0
SECTION
2
ENTITIES
0
LWPOLYLINE
8
MAG_UP
90
4
70
1
10
0.00
20
6.00
10
12.00
20
6.00
10
12.00
20
14.00
10
0.00
20
14.00
0
LWPOLYLINE
8
MAG_DOWN
90
4
70
1
10
0.00
20
-14.00
10
12.00
20
-14.00
10
12.00
20
-6.00
10
0.00
20
-6.00
0
LWPOLYLINE
8
MAG_RIGHT
90
4
70
1
10
12.00
20
6.00
10
24.00
20
6.00
10
24.00
20
14.00
10
12.00
20
14.00
0
LWPOLYLINE
8
MAG_LEFT
90
4
70
1
10
12.00
20
-14.00
10
24.00
20
-14.00
10
24.00
20
-6.00
10
12.00
20
-6.00
0
LWPOLYLINE
8
MAG_DOWN
90
4
70
1
10
24.00
20
6.00
10
36.00
20
6.00
10
36.00
20
14.00
10
24.00
20
14.00
0
LWPOLYLINE
8
MAG_UP
90
4
70
1
10
24.00
20
-14.00
10
36.00
20
-14.00
10
36.00
20
-6.00
10
24.00
20
-6.00
0
LWPOLYLINE
8
MAG_LEFT
90
4
70
1
10
36.00
20
6.00
10
48.00
20
6.00
10
48.00
20
14.00
10
36.00
20
14.00
0
LWPOLYLINE
8
MAG_RIGHT
90
4
70
1
10
36.00
20
-14.00
10
48.00
20
-14.00
10
48.00
20
-6.00
10
36.00
20
-6.00
0
LWPOLYLINE
8
BELT_AP
90
4
70
1
10
0.50
20
-5.00
10
7.50
20
-5.00
10
7.50
20
5.00
10
0.50
20
5.00
0
LWPOLYLINE
8
BELT_CN
90
4
70
1
10
8.50
20
-5.00
10
15.50
20
-5.00
10
15.50
20
5.00
10
8.50
20
5.00
0
LWPOLYLINE
8
BELT_BP
90
4
70
1
10
16.50
20
-5.00
10
23.50
20
-5.00
10
23.50
20
5.00
10
16.50
20
5.00
0
LWPOLYLINE
8
BELT_AN
90
4
70
1
10
24.50
20
-5.00
10
31.50
20
-5.00
10
31.50
20
5.00
10
24.50
20
5.00
0
LWPOLYLINE
8
BELT_CP
90
4
70
1
10
32.50
20
-5.00
10
39.50
20
-5.00
10
39.50
20
5.00
10
32.50
20
5.00
0
LWPOLYLINE
8
BELT_BN
90
4
70
1
10
40.50
20
-5.00
10
47.50
20
-5.00
10
47.50
20
5.00
10
40.50
20
5.00
0
ENDSEC
0
EOF
