ISO-10303-21;
HEADER;
/* Generated by software containing ST-Developer
 * from STEP Tools, Inc. (www.steptools.com) 
 */

FILE_DESCRIPTION(
/* description */ (''),
/* implementation_level */ '2;1');

FILE_NAME(
/* name */ 'EMOCD_Interface_ESPA_Gen3.step',
/* time_stamp */ '2026-07-28T19:15:41+05:30',
/* author */ (''),
/* organization */ (''),
/* preprocessor_version */ 'ST-DEVELOPER v20.1',
/* originating_system */ 'Autodesk Translation Framework v15.8.0.0',
/* authorisation */ '');

FILE_SCHEMA (('AUTOMOTIVE_DESIGN { 1 0 10303 214 3 1 1 }'));
ENDSEC;

DATA;
#10=MECHANICAL_DESIGN_GEOMETRIC_PRESENTATION_REPRESENTATION('',(#13,#14,
#15,#16,#17,#18),#1719);
#11=SHAPE_REPRESENTATION_RELATIONSHIP('SRR','None',#1726,#12);
#12=ADVANCED_BREP_SHAPE_REPRESENTATION('',(#19,#20,#21,#22,#23,#24),#1718);
#13=STYLED_ITEM('',(#1736),#19);
#14=STYLED_ITEM('',(#1737),#20);
#15=STYLED_ITEM('',(#1737),#21);
#16=STYLED_ITEM('',(#1737),#22);
#17=STYLED_ITEM('',(#1737),#23);
#18=STYLED_ITEM('',(#1737),#24);
#19=MANIFOLD_SOLID_BREP('espa_flange_ring',#1022);
#20=MANIFOLD_SOLID_BREP('espa_hub_plate',#1023);
#21=MANIFOLD_SOLID_BREP('gusset_1',#1024);
#22=MANIFOLD_SOLID_BREP('gusset_2',#1025);
#23=MANIFOLD_SOLID_BREP('gusset_3',#1026);
#24=MANIFOLD_SOLID_BREP('gusset_4',#1027);
#25=FACE_BOUND('',#185,.T.);
#26=FACE_BOUND('',#186,.T.);
#27=FACE_BOUND('',#187,.T.);
#28=FACE_BOUND('',#188,.T.);
#29=FACE_BOUND('',#189,.T.);
#30=FACE_BOUND('',#190,.T.);
#31=FACE_BOUND('',#191,.T.);
#32=FACE_BOUND('',#192,.T.);
#33=FACE_BOUND('',#193,.T.);
#34=FACE_BOUND('',#194,.T.);
#35=FACE_BOUND('',#195,.T.);
#36=FACE_BOUND('',#196,.T.);
#37=FACE_BOUND('',#197,.T.);
#38=FACE_BOUND('',#198,.T.);
#39=FACE_BOUND('',#199,.T.);
#40=FACE_BOUND('',#200,.T.);
#41=FACE_BOUND('',#201,.T.);
#42=FACE_BOUND('',#202,.T.);
#43=FACE_BOUND('',#203,.T.);
#44=FACE_BOUND('',#204,.T.);
#45=FACE_BOUND('',#205,.T.);
#46=FACE_BOUND('',#206,.T.);
#47=FACE_BOUND('',#207,.T.);
#48=FACE_BOUND('',#208,.T.);
#49=FACE_BOUND('',#209,.T.);
#50=FACE_BOUND('',#211,.T.);
#51=FACE_BOUND('',#212,.T.);
#52=FACE_BOUND('',#213,.T.);
#53=FACE_BOUND('',#214,.T.);
#54=FACE_BOUND('',#215,.T.);
#55=FACE_BOUND('',#216,.T.);
#56=FACE_BOUND('',#217,.T.);
#57=FACE_BOUND('',#218,.T.);
#58=FACE_BOUND('',#219,.T.);
#59=FACE_BOUND('',#220,.T.);
#60=FACE_BOUND('',#221,.T.);
#61=FACE_BOUND('',#222,.T.);
#62=FACE_BOUND('',#223,.T.);
#63=FACE_BOUND('',#224,.T.);
#64=FACE_BOUND('',#225,.T.);
#65=FACE_BOUND('',#226,.T.);
#66=FACE_BOUND('',#227,.T.);
#67=FACE_BOUND('',#228,.T.);
#68=FACE_BOUND('',#229,.T.);
#69=FACE_BOUND('',#230,.T.);
#70=FACE_BOUND('',#231,.T.);
#71=FACE_BOUND('',#232,.T.);
#72=FACE_BOUND('',#233,.T.);
#73=FACE_BOUND('',#234,.T.);
#74=FACE_BOUND('',#235,.T.);
#75=PLANE('',#1119);
#76=PLANE('',#1120);
#77=PLANE('',#1124);
#78=PLANE('',#1125);
#79=PLANE('',#1126);
#80=PLANE('',#1127);
#81=PLANE('',#1128);
#82=PLANE('',#1129);
#83=PLANE('',#1130);
#84=PLANE('',#1131);
#85=PLANE('',#1132);
#86=PLANE('',#1133);
#87=PLANE('',#1134);
#88=PLANE('',#1135);
#89=PLANE('',#1136);
#90=PLANE('',#1137);
#91=PLANE('',#1138);
#92=PLANE('',#1139);
#93=PLANE('',#1140);
#94=PLANE('',#1141);
#95=PLANE('',#1142);
#96=PLANE('',#1143);
#97=PLANE('',#1144);
#98=PLANE('',#1145);
#99=PLANE('',#1146);
#100=PLANE('',#1147);
#101=PLANE('',#1148);
#102=PLANE('',#1149);
#103=FACE_OUTER_BOUND('',#158,.T.);
#104=FACE_OUTER_BOUND('',#159,.T.);
#105=FACE_OUTER_BOUND('',#160,.T.);
#106=FACE_OUTER_BOUND('',#161,.T.);
#107=FACE_OUTER_BOUND('',#162,.T.);
#108=FACE_OUTER_BOUND('',#163,.T.);
#109=FACE_OUTER_BOUND('',#164,.T.);
#110=FACE_OUTER_BOUND('',#165,.T.);
#111=FACE_OUTER_BOUND('',#166,.T.);
#112=FACE_OUTER_BOUND('',#167,.T.);
#113=FACE_OUTER_BOUND('',#168,.T.);
#114=FACE_OUTER_BOUND('',#169,.T.);
#115=FACE_OUTER_BOUND('',#170,.T.);
#116=FACE_OUTER_BOUND('',#171,.T.);
#117=FACE_OUTER_BOUND('',#172,.T.);
#118=FACE_OUTER_BOUND('',#173,.T.);
#119=FACE_OUTER_BOUND('',#174,.T.);
#120=FACE_OUTER_BOUND('',#175,.T.);
#121=FACE_OUTER_BOUND('',#176,.T.);
#122=FACE_OUTER_BOUND('',#177,.T.);
#123=FACE_OUTER_BOUND('',#178,.T.);
#124=FACE_OUTER_BOUND('',#179,.T.);
#125=FACE_OUTER_BOUND('',#180,.T.);
#126=FACE_OUTER_BOUND('',#181,.T.);
#127=FACE_OUTER_BOUND('',#182,.T.);
#128=FACE_OUTER_BOUND('',#183,.T.);
#129=FACE_OUTER_BOUND('',#184,.T.);
#130=FACE_OUTER_BOUND('',#210,.T.);
#131=FACE_OUTER_BOUND('',#236,.T.);
#132=FACE_OUTER_BOUND('',#237,.T.);
#133=FACE_OUTER_BOUND('',#238,.T.);
#134=FACE_OUTER_BOUND('',#239,.T.);
#135=FACE_OUTER_BOUND('',#240,.T.);
#136=FACE_OUTER_BOUND('',#241,.T.);
#137=FACE_OUTER_BOUND('',#242,.T.);
#138=FACE_OUTER_BOUND('',#243,.T.);
#139=FACE_OUTER_BOUND('',#244,.T.);
#140=FACE_OUTER_BOUND('',#245,.T.);
#141=FACE_OUTER_BOUND('',#246,.T.);
#142=FACE_OUTER_BOUND('',#247,.T.);
#143=FACE_OUTER_BOUND('',#248,.T.);
#144=FACE_OUTER_BOUND('',#249,.T.);
#145=FACE_OUTER_BOUND('',#250,.T.);
#146=FACE_OUTER_BOUND('',#251,.T.);
#147=FACE_OUTER_BOUND('',#252,.T.);
#148=FACE_OUTER_BOUND('',#253,.T.);
#149=FACE_OUTER_BOUND('',#254,.T.);
#150=FACE_OUTER_BOUND('',#255,.T.);
#151=FACE_OUTER_BOUND('',#256,.T.);
#152=FACE_OUTER_BOUND('',#257,.T.);
#153=FACE_OUTER_BOUND('',#258,.T.);
#154=FACE_OUTER_BOUND('',#259,.T.);
#155=FACE_OUTER_BOUND('',#260,.T.);
#156=FACE_OUTER_BOUND('',#261,.T.);
#157=FACE_OUTER_BOUND('',#262,.T.);
#158=EDGE_LOOP('',(#682,#683,#684,#685));
#159=EDGE_LOOP('',(#686,#687,#688,#689));
#160=EDGE_LOOP('',(#690,#691,#692,#693));
#161=EDGE_LOOP('',(#694,#695,#696,#697));
#162=EDGE_LOOP('',(#698,#699,#700,#701));
#163=EDGE_LOOP('',(#702,#703,#704,#705));
#164=EDGE_LOOP('',(#706,#707,#708,#709));
#165=EDGE_LOOP('',(#710,#711,#712,#713));
#166=EDGE_LOOP('',(#714,#715,#716,#717));
#167=EDGE_LOOP('',(#718,#719,#720,#721));
#168=EDGE_LOOP('',(#722,#723,#724,#725));
#169=EDGE_LOOP('',(#726,#727,#728,#729));
#170=EDGE_LOOP('',(#730,#731,#732,#733));
#171=EDGE_LOOP('',(#734,#735,#736,#737));
#172=EDGE_LOOP('',(#738,#739,#740,#741));
#173=EDGE_LOOP('',(#742,#743,#744,#745));
#174=EDGE_LOOP('',(#746,#747,#748,#749));
#175=EDGE_LOOP('',(#750,#751,#752,#753));
#176=EDGE_LOOP('',(#754,#755,#756,#757));
#177=EDGE_LOOP('',(#758,#759,#760,#761));
#178=EDGE_LOOP('',(#762,#763,#764,#765));
#179=EDGE_LOOP('',(#766,#767,#768,#769));
#180=EDGE_LOOP('',(#770,#771,#772,#773));
#181=EDGE_LOOP('',(#774,#775,#776,#777));
#182=EDGE_LOOP('',(#778,#779,#780,#781));
#183=EDGE_LOOP('',(#782,#783,#784,#785));
#184=EDGE_LOOP('',(#786));
#185=EDGE_LOOP('',(#787));
#186=EDGE_LOOP('',(#788));
#187=EDGE_LOOP('',(#789));
#188=EDGE_LOOP('',(#790));
#189=EDGE_LOOP('',(#791));
#190=EDGE_LOOP('',(#792));
#191=EDGE_LOOP('',(#793));
#192=EDGE_LOOP('',(#794));
#193=EDGE_LOOP('',(#795));
#194=EDGE_LOOP('',(#796));
#195=EDGE_LOOP('',(#797));
#196=EDGE_LOOP('',(#798));
#197=EDGE_LOOP('',(#799));
#198=EDGE_LOOP('',(#800));
#199=EDGE_LOOP('',(#801));
#200=EDGE_LOOP('',(#802));
#201=EDGE_LOOP('',(#803));
#202=EDGE_LOOP('',(#804));
#203=EDGE_LOOP('',(#805));
#204=EDGE_LOOP('',(#806));
#205=EDGE_LOOP('',(#807));
#206=EDGE_LOOP('',(#808));
#207=EDGE_LOOP('',(#809));
#208=EDGE_LOOP('',(#810));
#209=EDGE_LOOP('',(#811));
#210=EDGE_LOOP('',(#812));
#211=EDGE_LOOP('',(#813));
#212=EDGE_LOOP('',(#814));
#213=EDGE_LOOP('',(#815));
#214=EDGE_LOOP('',(#816));
#215=EDGE_LOOP('',(#817));
#216=EDGE_LOOP('',(#818));
#217=EDGE_LOOP('',(#819));
#218=EDGE_LOOP('',(#820));
#219=EDGE_LOOP('',(#821));
#220=EDGE_LOOP('',(#822));
#221=EDGE_LOOP('',(#823));
#222=EDGE_LOOP('',(#824));
#223=EDGE_LOOP('',(#825));
#224=EDGE_LOOP('',(#826));
#225=EDGE_LOOP('',(#827));
#226=EDGE_LOOP('',(#828));
#227=EDGE_LOOP('',(#829));
#228=EDGE_LOOP('',(#830));
#229=EDGE_LOOP('',(#831));
#230=EDGE_LOOP('',(#832));
#231=EDGE_LOOP('',(#833));
#232=EDGE_LOOP('',(#834));
#233=EDGE_LOOP('',(#835));
#234=EDGE_LOOP('',(#836));
#235=EDGE_LOOP('',(#837));
#236=EDGE_LOOP('',(#838,#839,#840,#841));
#237=EDGE_LOOP('',(#842));
#238=EDGE_LOOP('',(#843));
#239=EDGE_LOOP('',(#844,#845,#846,#847));
#240=EDGE_LOOP('',(#848,#849,#850,#851));
#241=EDGE_LOOP('',(#852,#853,#854,#855));
#242=EDGE_LOOP('',(#856,#857,#858,#859));
#243=EDGE_LOOP('',(#860,#861,#862,#863));
#244=EDGE_LOOP('',(#864,#865,#866,#867));
#245=EDGE_LOOP('',(#868,#869,#870,#871));
#246=EDGE_LOOP('',(#872,#873,#874,#875));
#247=EDGE_LOOP('',(#876,#877,#878,#879));
#248=EDGE_LOOP('',(#880,#881,#882,#883));
#249=EDGE_LOOP('',(#884,#885,#886,#887));
#250=EDGE_LOOP('',(#888,#889,#890,#891));
#251=EDGE_LOOP('',(#892,#893,#894,#895));
#252=EDGE_LOOP('',(#896,#897,#898,#899));
#253=EDGE_LOOP('',(#900,#901,#902,#903));
#254=EDGE_LOOP('',(#904,#905,#906,#907));
#255=EDGE_LOOP('',(#908,#909,#910,#911));
#256=EDGE_LOOP('',(#912,#913,#914,#915));
#257=EDGE_LOOP('',(#916,#917,#918,#919));
#258=EDGE_LOOP('',(#920,#921,#922,#923));
#259=EDGE_LOOP('',(#924,#925,#926,#927));
#260=EDGE_LOOP('',(#928,#929,#930,#931));
#261=EDGE_LOOP('',(#932,#933,#934,#935));
#262=EDGE_LOOP('',(#936,#937,#938,#939));
#263=LINE('',#1450,#338);
#264=LINE('',#1456,#339);
#265=LINE('',#1462,#340);
#266=LINE('',#1468,#341);
#267=LINE('',#1474,#342);
#268=LINE('',#1480,#343);
#269=LINE('',#1486,#344);
#270=LINE('',#1492,#345);
#271=LINE('',#1498,#346);
#272=LINE('',#1504,#347);
#273=LINE('',#1510,#348);
#274=LINE('',#1516,#349);
#275=LINE('',#1522,#350);
#276=LINE('',#1528,#351);
#277=LINE('',#1534,#352);
#278=LINE('',#1540,#353);
#279=LINE('',#1546,#354);
#280=LINE('',#1552,#355);
#281=LINE('',#1558,#356);
#282=LINE('',#1564,#357);
#283=LINE('',#1570,#358);
#284=LINE('',#1576,#359);
#285=LINE('',#1582,#360);
#286=LINE('',#1588,#361);
#287=LINE('',#1594,#362);
#288=LINE('',#1600,#363);
#289=LINE('',#1608,#364);
#290=LINE('',#1615,#365);
#291=LINE('',#1617,#366);
#292=LINE('',#1619,#367);
#293=LINE('',#1620,#368);
#294=LINE('',#1623,#369);
#295=LINE('',#1625,#370);
#296=LINE('',#1626,#371);
#297=LINE('',#1629,#372);
#298=LINE('',#1631,#373);
#299=LINE('',#1632,#374);
#300=LINE('',#1634,#375);
#301=LINE('',#1635,#376);
#302=LINE('',#1641,#377);
#303=LINE('',#1643,#378);
#304=LINE('',#1645,#379);
#305=LINE('',#1646,#380);
#306=LINE('',#1649,#381);
#307=LINE('',#1651,#382);
#308=LINE('',#1652,#383);
#309=LINE('',#1655,#384);
#310=LINE('',#1657,#385);
#311=LINE('',#1658,#386);
#312=LINE('',#1660,#387);
#313=LINE('',#1661,#388);
#314=LINE('',#1667,#389);
#315=LINE('',#1669,#390);
#316=LINE('',#1671,#391);
#317=LINE('',#1672,#392);
#318=LINE('',#1675,#393);
#319=LINE('',#1677,#394);
#320=LINE('',#1678,#395);
#321=LINE('',#1681,#396);
#322=LINE('',#1683,#397);
#323=LINE('',#1684,#398);
#324=LINE('',#1686,#399);
#325=LINE('',#1687,#400);
#326=LINE('',#1693,#401);
#327=LINE('',#1695,#402);
#328=LINE('',#1697,#403);
#329=LINE('',#1698,#404);
#330=LINE('',#1701,#405);
#331=LINE('',#1703,#406);
#332=LINE('',#1704,#407);
#333=LINE('',#1707,#408);
#334=LINE('',#1709,#409);
#335=LINE('',#1710,#410);
#336=LINE('',#1712,#411);
#337=LINE('',#1713,#412);
#338=VECTOR('',#1156,4.5);
#339=VECTOR('',#1163,4.49999999999999);
#340=VECTOR('',#1170,4.49999999999999);
#341=VECTOR('',#1177,4.5);
#342=VECTOR('',#1184,4.5);
#343=VECTOR('',#1191,4.49999999999999);
#344=VECTOR('',#1198,4.49999999999999);
#345=VECTOR('',#1205,4.49999999999999);
#346=VECTOR('',#1212,4.49999999999999);
#347=VECTOR('',#1219,4.49999999999999);
#348=VECTOR('',#1226,4.49999999999999);
#349=VECTOR('',#1233,4.49999999999999);
#350=VECTOR('',#1240,4.49999999999999);
#351=VECTOR('',#1247,4.49999999999999);
#352=VECTOR('',#1254,4.5);
#353=VECTOR('',#1261,4.49999999999999);
#354=VECTOR('',#1268,4.5);
#355=VECTOR('',#1275,4.49999999999999);
#356=VECTOR('',#1282,4.49999999999999);
#357=VECTOR('',#1289,4.49999999999999);
#358=VECTOR('',#1296,4.5);
#359=VECTOR('',#1303,150.);
#360=VECTOR('',#1310,4.49999999999999);
#361=VECTOR('',#1317,4.49999999999999);
#362=VECTOR('',#1324,4.49999999999999);
#363=VECTOR('',#1331,230.);
#364=VECTOR('',#1342,150.);
#365=VECTOR('',#1351,10.);
#366=VECTOR('',#1352,10.);
#367=VECTOR('',#1353,10.);
#368=VECTOR('',#1354,10.);
#369=VECTOR('',#1357,10.);
#370=VECTOR('',#1358,10.);
#371=VECTOR('',#1359,10.);
#372=VECTOR('',#1362,10.);
#373=VECTOR('',#1363,10.);
#374=VECTOR('',#1364,10.);
#375=VECTOR('',#1367,10.);
#376=VECTOR('',#1368,10.);
#377=VECTOR('',#1375,10.);
#378=VECTOR('',#1376,10.);
#379=VECTOR('',#1377,10.);
#380=VECTOR('',#1378,10.);
#381=VECTOR('',#1381,10.);
#382=VECTOR('',#1382,10.);
#383=VECTOR('',#1383,10.);
#384=VECTOR('',#1386,10.);
#385=VECTOR('',#1387,10.);
#386=VECTOR('',#1388,10.);
#387=VECTOR('',#1391,10.);
#388=VECTOR('',#1392,10.);
#389=VECTOR('',#1399,10.);
#390=VECTOR('',#1400,10.);
#391=VECTOR('',#1401,10.);
#392=VECTOR('',#1402,10.);
#393=VECTOR('',#1405,10.);
#394=VECTOR('',#1406,10.);
#395=VECTOR('',#1407,10.);
#396=VECTOR('',#1410,10.);
#397=VECTOR('',#1411,10.);
#398=VECTOR('',#1412,10.);
#399=VECTOR('',#1415,10.);
#400=VECTOR('',#1416,10.);
#401=VECTOR('',#1423,10.);
#402=VECTOR('',#1424,10.);
#403=VECTOR('',#1425,10.);
#404=VECTOR('',#1426,10.);
#405=VECTOR('',#1429,10.);
#406=VECTOR('',#1430,10.);
#407=VECTOR('',#1431,10.);
#408=VECTOR('',#1434,10.);
#409=VECTOR('',#1435,10.);
#410=VECTOR('',#1436,10.);
#411=VECTOR('',#1439,10.);
#412=VECTOR('',#1440,10.);
#413=CIRCLE('',#1042,4.5);
#414=CIRCLE('',#1043,4.5);
#415=CIRCLE('',#1045,4.49999999999999);
#416=CIRCLE('',#1046,4.49999999999999);
#417=CIRCLE('',#1048,4.49999999999999);
#418=CIRCLE('',#1049,4.49999999999999);
#419=CIRCLE('',#1051,4.5);
#420=CIRCLE('',#1052,4.5);
#421=CIRCLE('',#1054,4.5);
#422=CIRCLE('',#1055,4.5);
#423=CIRCLE('',#1057,4.49999999999999);
#424=CIRCLE('',#1058,4.49999999999999);
#425=CIRCLE('',#1060,4.49999999999999);
#426=CIRCLE('',#1061,4.49999999999999);
#427=CIRCLE('',#1063,4.49999999999999);
#428=CIRCLE('',#1064,4.49999999999999);
#429=CIRCLE('',#1066,4.49999999999999);
#430=CIRCLE('',#1067,4.49999999999999);
#431=CIRCLE('',#1069,4.49999999999999);
#432=CIRCLE('',#1070,4.49999999999999);
#433=CIRCLE('',#1072,4.49999999999999);
#434=CIRCLE('',#1073,4.49999999999999);
#435=CIRCLE('',#1075,4.49999999999999);
#436=CIRCLE('',#1076,4.49999999999999);
#437=CIRCLE('',#1078,4.49999999999999);
#438=CIRCLE('',#1079,4.49999999999999);
#439=CIRCLE('',#1081,4.49999999999999);
#440=CIRCLE('',#1082,4.49999999999999);
#441=CIRCLE('',#1084,4.5);
#442=CIRCLE('',#1085,4.5);
#443=CIRCLE('',#1087,4.49999999999999);
#444=CIRCLE('',#1088,4.49999999999999);
#445=CIRCLE('',#1090,4.5);
#446=CIRCLE('',#1091,4.5);
#447=CIRCLE('',#1093,4.49999999999999);
#448=CIRCLE('',#1094,4.49999999999999);
#449=CIRCLE('',#1096,4.49999999999999);
#450=CIRCLE('',#1097,4.49999999999999);
#451=CIRCLE('',#1099,4.49999999999999);
#452=CIRCLE('',#1100,4.49999999999999);
#453=CIRCLE('',#1102,4.5);
#454=CIRCLE('',#1103,4.5);
#455=CIRCLE('',#1105,150.);
#456=CIRCLE('',#1106,150.);
#457=CIRCLE('',#1108,4.49999999999999);
#458=CIRCLE('',#1109,4.49999999999999);
#459=CIRCLE('',#1111,4.49999999999999);
#460=CIRCLE('',#1112,4.49999999999999);
#461=CIRCLE('',#1114,4.49999999999999);
#462=CIRCLE('',#1115,4.49999999999999);
#463=CIRCLE('',#1117,230.);
#464=CIRCLE('',#1118,230.);
#465=CIRCLE('',#1122,150.);
#466=CIRCLE('',#1123,150.);
#467=VERTEX_POINT('',#1447);
#468=VERTEX_POINT('',#1449);
#469=VERTEX_POINT('',#1453);
#470=VERTEX_POINT('',#1455);
#471=VERTEX_POINT('',#1459);
#472=VERTEX_POINT('',#1461);
#473=VERTEX_POINT('',#1465);
#474=VERTEX_POINT('',#1467);
#475=VERTEX_POINT('',#1471);
#476=VERTEX_POINT('',#1473);
#477=VERTEX_POINT('',#1477);
#478=VERTEX_POINT('',#1479);
#479=VERTEX_POINT('',#1483);
#480=VERTEX_POINT('',#1485);
#481=VERTEX_POINT('',#1489);
#482=VERTEX_POINT('',#1491);
#483=VERTEX_POINT('',#1495);
#484=VERTEX_POINT('',#1497);
#485=VERTEX_POINT('',#1501);
#486=VERTEX_POINT('',#1503);
#487=VERTEX_POINT('',#1507);
#488=VERTEX_POINT('',#1509);
#489=VERTEX_POINT('',#1513);
#490=VERTEX_POINT('',#1515);
#491=VERTEX_POINT('',#1519);
#492=VERTEX_POINT('',#1521);
#493=VERTEX_POINT('',#1525);
#494=VERTEX_POINT('',#1527);
#495=VERTEX_POINT('',#1531);
#496=VERTEX_POINT('',#1533);
#497=VERTEX_POINT('',#1537);
#498=VERTEX_POINT('',#1539);
#499=VERTEX_POINT('',#1543);
#500=VERTEX_POINT('',#1545);
#501=VERTEX_POINT('',#1549);
#502=VERTEX_POINT('',#1551);
#503=VERTEX_POINT('',#1555);
#504=VERTEX_POINT('',#1557);
#505=VERTEX_POINT('',#1561);
#506=VERTEX_POINT('',#1563);
#507=VERTEX_POINT('',#1567);
#508=VERTEX_POINT('',#1569);
#509=VERTEX_POINT('',#1573);
#510=VERTEX_POINT('',#1575);
#511=VERTEX_POINT('',#1579);
#512=VERTEX_POINT('',#1581);
#513=VERTEX_POINT('',#1585);
#514=VERTEX_POINT('',#1587);
#515=VERTEX_POINT('',#1591);
#516=VERTEX_POINT('',#1593);
#517=VERTEX_POINT('',#1597);
#518=VERTEX_POINT('',#1599);
#519=VERTEX_POINT('',#1605);
#520=VERTEX_POINT('',#1607);
#521=VERTEX_POINT('',#1613);
#522=VERTEX_POINT('',#1614);
#523=VERTEX_POINT('',#1616);
#524=VERTEX_POINT('',#1618);
#525=VERTEX_POINT('',#1622);
#526=VERTEX_POINT('',#1624);
#527=VERTEX_POINT('',#1628);
#528=VERTEX_POINT('',#1630);
#529=VERTEX_POINT('',#1639);
#530=VERTEX_POINT('',#1640);
#531=VERTEX_POINT('',#1642);
#532=VERTEX_POINT('',#1644);
#533=VERTEX_POINT('',#1648);
#534=VERTEX_POINT('',#1650);
#535=VERTEX_POINT('',#1654);
#536=VERTEX_POINT('',#1656);
#537=VERTEX_POINT('',#1665);
#538=VERTEX_POINT('',#1666);
#539=VERTEX_POINT('',#1668);
#540=VERTEX_POINT('',#1670);
#541=VERTEX_POINT('',#1674);
#542=VERTEX_POINT('',#1676);
#543=VERTEX_POINT('',#1680);
#544=VERTEX_POINT('',#1682);
#545=VERTEX_POINT('',#1691);
#546=VERTEX_POINT('',#1692);
#547=VERTEX_POINT('',#1694);
#548=VERTEX_POINT('',#1696);
#549=VERTEX_POINT('',#1700);
#550=VERTEX_POINT('',#1702);
#551=VERTEX_POINT('',#1706);
#552=VERTEX_POINT('',#1708);
#553=EDGE_CURVE('',#467,#467,#413,.T.);
#554=EDGE_CURVE('',#467,#468,#263,.T.);
#555=EDGE_CURVE('',#468,#468,#414,.T.);
#556=EDGE_CURVE('',#469,#469,#415,.T.);
#557=EDGE_CURVE('',#469,#470,#264,.T.);
#558=EDGE_CURVE('',#470,#470,#416,.T.);
#559=EDGE_CURVE('',#471,#471,#417,.T.);
#560=EDGE_CURVE('',#471,#472,#265,.T.);
#561=EDGE_CURVE('',#472,#472,#418,.T.);
#562=EDGE_CURVE('',#473,#473,#419,.T.);
#563=EDGE_CURVE('',#473,#474,#266,.T.);
#564=EDGE_CURVE('',#474,#474,#420,.T.);
#565=EDGE_CURVE('',#475,#475,#421,.T.);
#566=EDGE_CURVE('',#475,#476,#267,.T.);
#567=EDGE_CURVE('',#476,#476,#422,.T.);
#568=EDGE_CURVE('',#477,#477,#423,.T.);
#569=EDGE_CURVE('',#477,#478,#268,.T.);
#570=EDGE_CURVE('',#478,#478,#424,.T.);
#571=EDGE_CURVE('',#479,#479,#425,.T.);
#572=EDGE_CURVE('',#479,#480,#269,.T.);
#573=EDGE_CURVE('',#480,#480,#426,.T.);
#574=EDGE_CURVE('',#481,#481,#427,.T.);
#575=EDGE_CURVE('',#481,#482,#270,.T.);
#576=EDGE_CURVE('',#482,#482,#428,.T.);
#577=EDGE_CURVE('',#483,#483,#429,.T.);
#578=EDGE_CURVE('',#483,#484,#271,.T.);
#579=EDGE_CURVE('',#484,#484,#430,.T.);
#580=EDGE_CURVE('',#485,#485,#431,.T.);
#581=EDGE_CURVE('',#485,#486,#272,.T.);
#582=EDGE_CURVE('',#486,#486,#432,.T.);
#583=EDGE_CURVE('',#487,#487,#433,.T.);
#584=EDGE_CURVE('',#487,#488,#273,.T.);
#585=EDGE_CURVE('',#488,#488,#434,.T.);
#586=EDGE_CURVE('',#489,#489,#435,.T.);
#587=EDGE_CURVE('',#489,#490,#274,.T.);
#588=EDGE_CURVE('',#490,#490,#436,.T.);
#589=EDGE_CURVE('',#491,#491,#437,.T.);
#590=EDGE_CURVE('',#491,#492,#275,.T.);
#591=EDGE_CURVE('',#492,#492,#438,.T.);
#592=EDGE_CURVE('',#493,#493,#439,.T.);
#593=EDGE_CURVE('',#493,#494,#276,.T.);
#594=EDGE_CURVE('',#494,#494,#440,.T.);
#595=EDGE_CURVE('',#495,#495,#441,.T.);
#596=EDGE_CURVE('',#495,#496,#277,.T.);
#597=EDGE_CURVE('',#496,#496,#442,.T.);
#598=EDGE_CURVE('',#497,#497,#443,.T.);
#599=EDGE_CURVE('',#497,#498,#278,.T.);
#600=EDGE_CURVE('',#498,#498,#444,.T.);
#601=EDGE_CURVE('',#499,#499,#445,.T.);
#602=EDGE_CURVE('',#499,#500,#279,.T.);
#603=EDGE_CURVE('',#500,#500,#446,.T.);
#604=EDGE_CURVE('',#501,#501,#447,.T.);
#605=EDGE_CURVE('',#501,#502,#280,.T.);
#606=EDGE_CURVE('',#502,#502,#448,.T.);
#607=EDGE_CURVE('',#503,#503,#449,.T.);
#608=EDGE_CURVE('',#503,#504,#281,.T.);
#609=EDGE_CURVE('',#504,#504,#450,.T.);
#610=EDGE_CURVE('',#505,#505,#451,.T.);
#611=EDGE_CURVE('',#505,#506,#282,.T.);
#612=EDGE_CURVE('',#506,#506,#452,.T.);
#613=EDGE_CURVE('',#507,#507,#453,.T.);
#614=EDGE_CURVE('',#507,#508,#283,.T.);
#615=EDGE_CURVE('',#508,#508,#454,.T.);
#616=EDGE_CURVE('',#509,#509,#455,.T.);
#617=EDGE_CURVE('',#509,#510,#284,.T.);
#618=EDGE_CURVE('',#510,#510,#456,.T.);
#619=EDGE_CURVE('',#511,#511,#457,.T.);
#620=EDGE_CURVE('',#511,#512,#285,.T.);
#621=EDGE_CURVE('',#512,#512,#458,.T.);
#622=EDGE_CURVE('',#513,#513,#459,.T.);
#623=EDGE_CURVE('',#513,#514,#286,.T.);
#624=EDGE_CURVE('',#514,#514,#460,.T.);
#625=EDGE_CURVE('',#515,#515,#461,.T.);
#626=EDGE_CURVE('',#515,#516,#287,.T.);
#627=EDGE_CURVE('',#516,#516,#462,.T.);
#628=EDGE_CURVE('',#517,#517,#463,.T.);
#629=EDGE_CURVE('',#517,#518,#288,.T.);
#630=EDGE_CURVE('',#518,#518,#464,.T.);
#631=EDGE_CURVE('',#519,#519,#465,.T.);
#632=EDGE_CURVE('',#519,#520,#289,.T.);
#633=EDGE_CURVE('',#520,#520,#466,.T.);
#634=EDGE_CURVE('',#521,#522,#290,.T.);
#635=EDGE_CURVE('',#521,#523,#291,.T.);
#636=EDGE_CURVE('',#524,#523,#292,.T.);
#637=EDGE_CURVE('',#522,#524,#293,.T.);
#638=EDGE_CURVE('',#522,#525,#294,.T.);
#639=EDGE_CURVE('',#526,#524,#295,.T.);
#640=EDGE_CURVE('',#525,#526,#296,.T.);
#641=EDGE_CURVE('',#525,#527,#297,.T.);
#642=EDGE_CURVE('',#528,#526,#298,.T.);
#643=EDGE_CURVE('',#527,#528,#299,.T.);
#644=EDGE_CURVE('',#527,#521,#300,.T.);
#645=EDGE_CURVE('',#523,#528,#301,.T.);
#646=EDGE_CURVE('',#529,#530,#302,.T.);
#647=EDGE_CURVE('',#529,#531,#303,.T.);
#648=EDGE_CURVE('',#532,#531,#304,.T.);
#649=EDGE_CURVE('',#530,#532,#305,.T.);
#650=EDGE_CURVE('',#530,#533,#306,.T.);
#651=EDGE_CURVE('',#534,#532,#307,.T.);
#652=EDGE_CURVE('',#533,#534,#308,.T.);
#653=EDGE_CURVE('',#533,#535,#309,.T.);
#654=EDGE_CURVE('',#536,#534,#310,.T.);
#655=EDGE_CURVE('',#535,#536,#311,.T.);
#656=EDGE_CURVE('',#535,#529,#312,.T.);
#657=EDGE_CURVE('',#531,#536,#313,.T.);
#658=EDGE_CURVE('',#537,#538,#314,.T.);
#659=EDGE_CURVE('',#537,#539,#315,.T.);
#660=EDGE_CURVE('',#540,#539,#316,.T.);
#661=EDGE_CURVE('',#538,#540,#317,.T.);
#662=EDGE_CURVE('',#538,#541,#318,.T.);
#663=EDGE_CURVE('',#542,#540,#319,.T.);
#664=EDGE_CURVE('',#541,#542,#320,.T.);
#665=EDGE_CURVE('',#541,#543,#321,.T.);
#666=EDGE_CURVE('',#544,#542,#322,.T.);
#667=EDGE_CURVE('',#543,#544,#323,.T.);
#668=EDGE_CURVE('',#543,#537,#324,.T.);
#669=EDGE_CURVE('',#539,#544,#325,.T.);
#670=EDGE_CURVE('',#545,#546,#326,.T.);
#671=EDGE_CURVE('',#545,#547,#327,.T.);
#672=EDGE_CURVE('',#548,#547,#328,.T.);
#673=EDGE_CURVE('',#546,#548,#329,.T.);
#674=EDGE_CURVE('',#546,#549,#330,.T.);
#675=EDGE_CURVE('',#550,#548,#331,.T.);
#676=EDGE_CURVE('',#549,#550,#332,.T.);
#677=EDGE_CURVE('',#549,#551,#333,.T.);
#678=EDGE_CURVE('',#552,#550,#334,.T.);
#679=EDGE_CURVE('',#551,#552,#335,.T.);
#680=EDGE_CURVE('',#551,#545,#336,.T.);
#681=EDGE_CURVE('',#547,#552,#337,.T.);
#682=ORIENTED_EDGE('',*,*,#553,.F.);
#683=ORIENTED_EDGE('',*,*,#554,.T.);
#684=ORIENTED_EDGE('',*,*,#555,.T.);
#685=ORIENTED_EDGE('',*,*,#554,.F.);
#686=ORIENTED_EDGE('',*,*,#556,.F.);
#687=ORIENTED_EDGE('',*,*,#557,.T.);
#688=ORIENTED_EDGE('',*,*,#558,.T.);
#689=ORIENTED_EDGE('',*,*,#557,.F.);
#690=ORIENTED_EDGE('',*,*,#559,.F.);
#691=ORIENTED_EDGE('',*,*,#560,.T.);
#692=ORIENTED_EDGE('',*,*,#561,.T.);
#693=ORIENTED_EDGE('',*,*,#560,.F.);
#694=ORIENTED_EDGE('',*,*,#562,.F.);
#695=ORIENTED_EDGE('',*,*,#563,.T.);
#696=ORIENTED_EDGE('',*,*,#564,.T.);
#697=ORIENTED_EDGE('',*,*,#563,.F.);
#698=ORIENTED_EDGE('',*,*,#565,.F.);
#699=ORIENTED_EDGE('',*,*,#566,.T.);
#700=ORIENTED_EDGE('',*,*,#567,.T.);
#701=ORIENTED_EDGE('',*,*,#566,.F.);
#702=ORIENTED_EDGE('',*,*,#568,.F.);
#703=ORIENTED_EDGE('',*,*,#569,.T.);
#704=ORIENTED_EDGE('',*,*,#570,.T.);
#705=ORIENTED_EDGE('',*,*,#569,.F.);
#706=ORIENTED_EDGE('',*,*,#571,.F.);
#707=ORIENTED_EDGE('',*,*,#572,.T.);
#708=ORIENTED_EDGE('',*,*,#573,.T.);
#709=ORIENTED_EDGE('',*,*,#572,.F.);
#710=ORIENTED_EDGE('',*,*,#574,.F.);
#711=ORIENTED_EDGE('',*,*,#575,.T.);
#712=ORIENTED_EDGE('',*,*,#576,.T.);
#713=ORIENTED_EDGE('',*,*,#575,.F.);
#714=ORIENTED_EDGE('',*,*,#577,.F.);
#715=ORIENTED_EDGE('',*,*,#578,.T.);
#716=ORIENTED_EDGE('',*,*,#579,.T.);
#717=ORIENTED_EDGE('',*,*,#578,.F.);
#718=ORIENTED_EDGE('',*,*,#580,.F.);
#719=ORIENTED_EDGE('',*,*,#581,.T.);
#720=ORIENTED_EDGE('',*,*,#582,.T.);
#721=ORIENTED_EDGE('',*,*,#581,.F.);
#722=ORIENTED_EDGE('',*,*,#583,.F.);
#723=ORIENTED_EDGE('',*,*,#584,.T.);
#724=ORIENTED_EDGE('',*,*,#585,.T.);
#725=ORIENTED_EDGE('',*,*,#584,.F.);
#726=ORIENTED_EDGE('',*,*,#586,.F.);
#727=ORIENTED_EDGE('',*,*,#587,.T.);
#728=ORIENTED_EDGE('',*,*,#588,.T.);
#729=ORIENTED_EDGE('',*,*,#587,.F.);
#730=ORIENTED_EDGE('',*,*,#589,.F.);
#731=ORIENTED_EDGE('',*,*,#590,.T.);
#732=ORIENTED_EDGE('',*,*,#591,.T.);
#733=ORIENTED_EDGE('',*,*,#590,.F.);
#734=ORIENTED_EDGE('',*,*,#592,.F.);
#735=ORIENTED_EDGE('',*,*,#593,.T.);
#736=ORIENTED_EDGE('',*,*,#594,.T.);
#737=ORIENTED_EDGE('',*,*,#593,.F.);
#738=ORIENTED_EDGE('',*,*,#595,.F.);
#739=ORIENTED_EDGE('',*,*,#596,.T.);
#740=ORIENTED_EDGE('',*,*,#597,.T.);
#741=ORIENTED_EDGE('',*,*,#596,.F.);
#742=ORIENTED_EDGE('',*,*,#598,.F.);
#743=ORIENTED_EDGE('',*,*,#599,.T.);
#744=ORIENTED_EDGE('',*,*,#600,.T.);
#745=ORIENTED_EDGE('',*,*,#599,.F.);
#746=ORIENTED_EDGE('',*,*,#601,.F.);
#747=ORIENTED_EDGE('',*,*,#602,.T.);
#748=ORIENTED_EDGE('',*,*,#603,.T.);
#749=ORIENTED_EDGE('',*,*,#602,.F.);
#750=ORIENTED_EDGE('',*,*,#604,.F.);
#751=ORIENTED_EDGE('',*,*,#605,.T.);
#752=ORIENTED_EDGE('',*,*,#606,.T.);
#753=ORIENTED_EDGE('',*,*,#605,.F.);
#754=ORIENTED_EDGE('',*,*,#607,.F.);
#755=ORIENTED_EDGE('',*,*,#608,.T.);
#756=ORIENTED_EDGE('',*,*,#609,.T.);
#757=ORIENTED_EDGE('',*,*,#608,.F.);
#758=ORIENTED_EDGE('',*,*,#610,.F.);
#759=ORIENTED_EDGE('',*,*,#611,.T.);
#760=ORIENTED_EDGE('',*,*,#612,.T.);
#761=ORIENTED_EDGE('',*,*,#611,.F.);
#762=ORIENTED_EDGE('',*,*,#613,.F.);
#763=ORIENTED_EDGE('',*,*,#614,.T.);
#764=ORIENTED_EDGE('',*,*,#615,.T.);
#765=ORIENTED_EDGE('',*,*,#614,.F.);
#766=ORIENTED_EDGE('',*,*,#616,.F.);
#767=ORIENTED_EDGE('',*,*,#617,.T.);
#768=ORIENTED_EDGE('',*,*,#618,.T.);
#769=ORIENTED_EDGE('',*,*,#617,.F.);
#770=ORIENTED_EDGE('',*,*,#619,.F.);
#771=ORIENTED_EDGE('',*,*,#620,.T.);
#772=ORIENTED_EDGE('',*,*,#621,.T.);
#773=ORIENTED_EDGE('',*,*,#620,.F.);
#774=ORIENTED_EDGE('',*,*,#622,.F.);
#775=ORIENTED_EDGE('',*,*,#623,.T.);
#776=ORIENTED_EDGE('',*,*,#624,.T.);
#777=ORIENTED_EDGE('',*,*,#623,.F.);
#778=ORIENTED_EDGE('',*,*,#625,.F.);
#779=ORIENTED_EDGE('',*,*,#626,.T.);
#780=ORIENTED_EDGE('',*,*,#627,.T.);
#781=ORIENTED_EDGE('',*,*,#626,.F.);
#782=ORIENTED_EDGE('',*,*,#628,.F.);
#783=ORIENTED_EDGE('',*,*,#629,.T.);
#784=ORIENTED_EDGE('',*,*,#630,.T.);
#785=ORIENTED_EDGE('',*,*,#629,.F.);
#786=ORIENTED_EDGE('',*,*,#628,.T.);
#787=ORIENTED_EDGE('',*,*,#625,.T.);
#788=ORIENTED_EDGE('',*,*,#622,.T.);
#789=ORIENTED_EDGE('',*,*,#619,.T.);
#790=ORIENTED_EDGE('',*,*,#616,.T.);
#791=ORIENTED_EDGE('',*,*,#613,.T.);
#792=ORIENTED_EDGE('',*,*,#610,.T.);
#793=ORIENTED_EDGE('',*,*,#607,.T.);
#794=ORIENTED_EDGE('',*,*,#604,.T.);
#795=ORIENTED_EDGE('',*,*,#601,.T.);
#796=ORIENTED_EDGE('',*,*,#598,.T.);
#797=ORIENTED_EDGE('',*,*,#595,.T.);
#798=ORIENTED_EDGE('',*,*,#592,.T.);
#799=ORIENTED_EDGE('',*,*,#589,.T.);
#800=ORIENTED_EDGE('',*,*,#586,.T.);
#801=ORIENTED_EDGE('',*,*,#583,.T.);
#802=ORIENTED_EDGE('',*,*,#580,.T.);
#803=ORIENTED_EDGE('',*,*,#577,.T.);
#804=ORIENTED_EDGE('',*,*,#574,.T.);
#805=ORIENTED_EDGE('',*,*,#571,.T.);
#806=ORIENTED_EDGE('',*,*,#568,.T.);
#807=ORIENTED_EDGE('',*,*,#565,.T.);
#808=ORIENTED_EDGE('',*,*,#562,.T.);
#809=ORIENTED_EDGE('',*,*,#559,.T.);
#810=ORIENTED_EDGE('',*,*,#556,.T.);
#811=ORIENTED_EDGE('',*,*,#553,.T.);
#812=ORIENTED_EDGE('',*,*,#630,.F.);
#813=ORIENTED_EDGE('',*,*,#627,.F.);
#814=ORIENTED_EDGE('',*,*,#624,.F.);
#815=ORIENTED_EDGE('',*,*,#621,.F.);
#816=ORIENTED_EDGE('',*,*,#618,.F.);
#817=ORIENTED_EDGE('',*,*,#615,.F.);
#818=ORIENTED_EDGE('',*,*,#612,.F.);
#819=ORIENTED_EDGE('',*,*,#609,.F.);
#820=ORIENTED_EDGE('',*,*,#606,.F.);
#821=ORIENTED_EDGE('',*,*,#603,.F.);
#822=ORIENTED_EDGE('',*,*,#600,.F.);
#823=ORIENTED_EDGE('',*,*,#597,.F.);
#824=ORIENTED_EDGE('',*,*,#594,.F.);
#825=ORIENTED_EDGE('',*,*,#591,.F.);
#826=ORIENTED_EDGE('',*,*,#588,.F.);
#827=ORIENTED_EDGE('',*,*,#585,.F.);
#828=ORIENTED_EDGE('',*,*,#582,.F.);
#829=ORIENTED_EDGE('',*,*,#579,.F.);
#830=ORIENTED_EDGE('',*,*,#576,.F.);
#831=ORIENTED_EDGE('',*,*,#573,.F.);
#832=ORIENTED_EDGE('',*,*,#570,.F.);
#833=ORIENTED_EDGE('',*,*,#567,.F.);
#834=ORIENTED_EDGE('',*,*,#564,.F.);
#835=ORIENTED_EDGE('',*,*,#561,.F.);
#836=ORIENTED_EDGE('',*,*,#558,.F.);
#837=ORIENTED_EDGE('',*,*,#555,.F.);
#838=ORIENTED_EDGE('',*,*,#631,.F.);
#839=ORIENTED_EDGE('',*,*,#632,.T.);
#840=ORIENTED_EDGE('',*,*,#633,.T.);
#841=ORIENTED_EDGE('',*,*,#632,.F.);
#842=ORIENTED_EDGE('',*,*,#631,.T.);
#843=ORIENTED_EDGE('',*,*,#633,.F.);
#844=ORIENTED_EDGE('',*,*,#634,.F.);
#845=ORIENTED_EDGE('',*,*,#635,.T.);
#846=ORIENTED_EDGE('',*,*,#636,.F.);
#847=ORIENTED_EDGE('',*,*,#637,.F.);
#848=ORIENTED_EDGE('',*,*,#638,.F.);
#849=ORIENTED_EDGE('',*,*,#637,.T.);
#850=ORIENTED_EDGE('',*,*,#639,.F.);
#851=ORIENTED_EDGE('',*,*,#640,.F.);
#852=ORIENTED_EDGE('',*,*,#641,.F.);
#853=ORIENTED_EDGE('',*,*,#640,.T.);
#854=ORIENTED_EDGE('',*,*,#642,.F.);
#855=ORIENTED_EDGE('',*,*,#643,.F.);
#856=ORIENTED_EDGE('',*,*,#644,.F.);
#857=ORIENTED_EDGE('',*,*,#643,.T.);
#858=ORIENTED_EDGE('',*,*,#645,.F.);
#859=ORIENTED_EDGE('',*,*,#635,.F.);
#860=ORIENTED_EDGE('',*,*,#645,.T.);
#861=ORIENTED_EDGE('',*,*,#642,.T.);
#862=ORIENTED_EDGE('',*,*,#639,.T.);
#863=ORIENTED_EDGE('',*,*,#636,.T.);
#864=ORIENTED_EDGE('',*,*,#644,.T.);
#865=ORIENTED_EDGE('',*,*,#634,.T.);
#866=ORIENTED_EDGE('',*,*,#638,.T.);
#867=ORIENTED_EDGE('',*,*,#641,.T.);
#868=ORIENTED_EDGE('',*,*,#646,.F.);
#869=ORIENTED_EDGE('',*,*,#647,.T.);
#870=ORIENTED_EDGE('',*,*,#648,.F.);
#871=ORIENTED_EDGE('',*,*,#649,.F.);
#872=ORIENTED_EDGE('',*,*,#650,.F.);
#873=ORIENTED_EDGE('',*,*,#649,.T.);
#874=ORIENTED_EDGE('',*,*,#651,.F.);
#875=ORIENTED_EDGE('',*,*,#652,.F.);
#876=ORIENTED_EDGE('',*,*,#653,.F.);
#877=ORIENTED_EDGE('',*,*,#652,.T.);
#878=ORIENTED_EDGE('',*,*,#654,.F.);
#879=ORIENTED_EDGE('',*,*,#655,.F.);
#880=ORIENTED_EDGE('',*,*,#656,.F.);
#881=ORIENTED_EDGE('',*,*,#655,.T.);
#882=ORIENTED_EDGE('',*,*,#657,.F.);
#883=ORIENTED_EDGE('',*,*,#647,.F.);
#884=ORIENTED_EDGE('',*,*,#657,.T.);
#885=ORIENTED_EDGE('',*,*,#654,.T.);
#886=ORIENTED_EDGE('',*,*,#651,.T.);
#887=ORIENTED_EDGE('',*,*,#648,.T.);
#888=ORIENTED_EDGE('',*,*,#656,.T.);
#889=ORIENTED_EDGE('',*,*,#646,.T.);
#890=ORIENTED_EDGE('',*,*,#650,.T.);
#891=ORIENTED_EDGE('',*,*,#653,.T.);
#892=ORIENTED_EDGE('',*,*,#658,.F.);
#893=ORIENTED_EDGE('',*,*,#659,.T.);
#894=ORIENTED_EDGE('',*,*,#660,.F.);
#895=ORIENTED_EDGE('',*,*,#661,.F.);
#896=ORIENTED_EDGE('',*,*,#662,.F.);
#897=ORIENTED_EDGE('',*,*,#661,.T.);
#898=ORIENTED_EDGE('',*,*,#663,.F.);
#899=ORIENTED_EDGE('',*,*,#664,.F.);
#900=ORIENTED_EDGE('',*,*,#665,.F.);
#901=ORIENTED_EDGE('',*,*,#664,.T.);
#902=ORIENTED_EDGE('',*,*,#666,.F.);
#903=ORIENTED_EDGE('',*,*,#667,.F.);
#904=ORIENTED_EDGE('',*,*,#668,.F.);
#905=ORIENTED_EDGE('',*,*,#667,.T.);
#906=ORIENTED_EDGE('',*,*,#669,.F.);
#907=ORIENTED_EDGE('',*,*,#659,.F.);
#908=ORIENTED_EDGE('',*,*,#669,.T.);
#909=ORIENTED_EDGE('',*,*,#666,.T.);
#910=ORIENTED_EDGE('',*,*,#663,.T.);
#911=ORIENTED_EDGE('',*,*,#660,.T.);
#912=ORIENTED_EDGE('',*,*,#668,.T.);
#913=ORIENTED_EDGE('',*,*,#658,.T.);
#914=ORIENTED_EDGE('',*,*,#662,.T.);
#915=ORIENTED_EDGE('',*,*,#665,.T.);
#916=ORIENTED_EDGE('',*,*,#670,.F.);
#917=ORIENTED_EDGE('',*,*,#671,.T.);
#918=ORIENTED_EDGE('',*,*,#672,.F.);
#919=ORIENTED_EDGE('',*,*,#673,.F.);
#920=ORIENTED_EDGE('',*,*,#674,.F.);
#921=ORIENTED_EDGE('',*,*,#673,.T.);
#922=ORIENTED_EDGE('',*,*,#675,.F.);
#923=ORIENTED_EDGE('',*,*,#676,.F.);
#924=ORIENTED_EDGE('',*,*,#677,.F.);
#925=ORIENTED_EDGE('',*,*,#676,.T.);
#926=ORIENTED_EDGE('',*,*,#678,.F.);
#927=ORIENTED_EDGE('',*,*,#679,.F.);
#928=ORIENTED_EDGE('',*,*,#680,.F.);
#929=ORIENTED_EDGE('',*,*,#679,.T.);
#930=ORIENTED_EDGE('',*,*,#681,.F.);
#931=ORIENTED_EDGE('',*,*,#671,.F.);
#932=ORIENTED_EDGE('',*,*,#681,.T.);
#933=ORIENTED_EDGE('',*,*,#678,.T.);
#934=ORIENTED_EDGE('',*,*,#675,.T.);
#935=ORIENTED_EDGE('',*,*,#672,.T.);
#936=ORIENTED_EDGE('',*,*,#680,.T.);
#937=ORIENTED_EDGE('',*,*,#670,.T.);
#938=ORIENTED_EDGE('',*,*,#674,.T.);
#939=ORIENTED_EDGE('',*,*,#677,.T.);
#940=CYLINDRICAL_SURFACE('',#1041,4.5);
#941=CYLINDRICAL_SURFACE('',#1044,4.49999999999999);
#942=CYLINDRICAL_SURFACE('',#1047,4.49999999999999);
#943=CYLINDRICAL_SURFACE('',#1050,4.5);
#944=CYLINDRICAL_SURFACE('',#1053,4.5);
#945=CYLINDRICAL_SURFACE('',#1056,4.49999999999999);
#946=CYLINDRICAL_SURFACE('',#1059,4.49999999999999);
#947=CYLINDRICAL_SURFACE('',#1062,4.49999999999999);
#948=CYLINDRICAL_SURFACE('',#1065,4.49999999999999);
#949=CYLINDRICAL_SURFACE('',#1068,4.49999999999999);
#950=CYLINDRICAL_SURFACE('',#1071,4.49999999999999);
#951=CYLINDRICAL_SURFACE('',#1074,4.49999999999999);
#952=CYLINDRICAL_SURFACE('',#1077,4.49999999999999);
#953=CYLINDRICAL_SURFACE('',#1080,4.49999999999999);
#954=CYLINDRICAL_SURFACE('',#1083,4.5);
#955=CYLINDRICAL_SURFACE('',#1086,4.49999999999999);
#956=CYLINDRICAL_SURFACE('',#1089,4.5);
#957=CYLINDRICAL_SURFACE('',#1092,4.49999999999999);
#958=CYLINDRICAL_SURFACE('',#1095,4.49999999999999);
#959=CYLINDRICAL_SURFACE('',#1098,4.49999999999999);
#960=CYLINDRICAL_SURFACE('',#1101,4.5);
#961=CYLINDRICAL_SURFACE('',#1104,150.);
#962=CYLINDRICAL_SURFACE('',#1107,4.49999999999999);
#963=CYLINDRICAL_SURFACE('',#1110,4.49999999999999);
#964=CYLINDRICAL_SURFACE('',#1113,4.49999999999999);
#965=CYLINDRICAL_SURFACE('',#1116,230.);
#966=CYLINDRICAL_SURFACE('',#1121,150.);
#967=ADVANCED_FACE('',(#103),#940,.F.);
#968=ADVANCED_FACE('',(#104),#941,.F.);
#969=ADVANCED_FACE('',(#105),#942,.F.);
#970=ADVANCED_FACE('',(#106),#943,.F.);
#971=ADVANCED_FACE('',(#107),#944,.F.);
#972=ADVANCED_FACE('',(#108),#945,.F.);
#973=ADVANCED_FACE('',(#109),#946,.F.);
#974=ADVANCED_FACE('',(#110),#947,.F.);
#975=ADVANCED_FACE('',(#111),#948,.F.);
#976=ADVANCED_FACE('',(#112),#949,.F.);
#977=ADVANCED_FACE('',(#113),#950,.F.);
#978=ADVANCED_FACE('',(#114),#951,.F.);
#979=ADVANCED_FACE('',(#115),#952,.F.);
#980=ADVANCED_FACE('',(#116),#953,.F.);
#981=ADVANCED_FACE('',(#117),#954,.F.);
#982=ADVANCED_FACE('',(#118),#955,.F.);
#983=ADVANCED_FACE('',(#119),#956,.F.);
#984=ADVANCED_FACE('',(#120),#957,.F.);
#985=ADVANCED_FACE('',(#121),#958,.F.);
#986=ADVANCED_FACE('',(#122),#959,.F.);
#987=ADVANCED_FACE('',(#123),#960,.F.);
#988=ADVANCED_FACE('',(#124),#961,.F.);
#989=ADVANCED_FACE('',(#125),#962,.F.);
#990=ADVANCED_FACE('',(#126),#963,.F.);
#991=ADVANCED_FACE('',(#127),#964,.F.);
#992=ADVANCED_FACE('',(#128),#965,.T.);
#993=ADVANCED_FACE('',(#129,#25,#26,#27,#28,#29,#30,#31,#32,#33,#34,#35,
#36,#37,#38,#39,#40,#41,#42,#43,#44,#45,#46,#47,#48,#49),#75,.T.);
#994=ADVANCED_FACE('',(#130,#50,#51,#52,#53,#54,#55,#56,#57,#58,#59,#60,
#61,#62,#63,#64,#65,#66,#67,#68,#69,#70,#71,#72,#73,#74),#76,.F.);
#995=ADVANCED_FACE('',(#131),#966,.T.);
#996=ADVANCED_FACE('',(#132),#77,.T.);
#997=ADVANCED_FACE('',(#133),#78,.F.);
#998=ADVANCED_FACE('',(#134),#79,.T.);
#999=ADVANCED_FACE('',(#135),#80,.T.);
#1000=ADVANCED_FACE('',(#136),#81,.T.);
#1001=ADVANCED_FACE('',(#137),#82,.T.);
#1002=ADVANCED_FACE('',(#138),#83,.T.);
#1003=ADVANCED_FACE('',(#139),#84,.F.);
#1004=ADVANCED_FACE('',(#140),#85,.T.);
#1005=ADVANCED_FACE('',(#141),#86,.T.);
#1006=ADVANCED_FACE('',(#142),#87,.T.);
#1007=ADVANCED_FACE('',(#143),#88,.T.);
#1008=ADVANCED_FACE('',(#144),#89,.T.);
#1009=ADVANCED_FACE('',(#145),#90,.F.);
#1010=ADVANCED_FACE('',(#146),#91,.T.);
#1011=ADVANCED_FACE('',(#147),#92,.T.);
#1012=ADVANCED_FACE('',(#148),#93,.T.);
#1013=ADVANCED_FACE('',(#149),#94,.T.);
#1014=ADVANCED_FACE('',(#150),#95,.T.);
#1015=ADVANCED_FACE('',(#151),#96,.F.);
#1016=ADVANCED_FACE('',(#152),#97,.T.);
#1017=ADVANCED_FACE('',(#153),#98,.T.);
#1018=ADVANCED_FACE('',(#154),#99,.T.);
#1019=ADVANCED_FACE('',(#155),#100,.T.);
#1020=ADVANCED_FACE('',(#156),#101,.T.);
#1021=ADVANCED_FACE('',(#157),#102,.F.);
#1022=CLOSED_SHELL('',(#967,#968,#969,#970,#971,#972,#973,#974,#975,#976,
#977,#978,#979,#980,#981,#982,#983,#984,#985,#986,#987,#988,#989,#990,#991,
#992,#993,#994));
#1023=CLOSED_SHELL('',(#995,#996,#997));
#1024=CLOSED_SHELL('',(#998,#999,#1000,#1001,#1002,#1003));
#1025=CLOSED_SHELL('',(#1004,#1005,#1006,#1007,#1008,#1009));
#1026=CLOSED_SHELL('',(#1010,#1011,#1012,#1013,#1014,#1015));
#1027=CLOSED_SHELL('',(#1016,#1017,#1018,#1019,#1020,#1021));
#1028=DERIVED_UNIT_ELEMENT(#1030,1.);
#1029=DERIVED_UNIT_ELEMENT(#1721,-3.);
#1030=(
MASS_UNIT()
NAMED_UNIT(*)
SI_UNIT(.KILO.,.GRAM.)
);
#1031=DERIVED_UNIT((#1028,#1029));
#1032=MEASURE_REPRESENTATION_ITEM('density measure',
POSITIVE_RATIO_MEASURE(7850.),#1031);
#1033=PROPERTY_DEFINITION_REPRESENTATION(#1038,#1035);
#1034=PROPERTY_DEFINITION_REPRESENTATION(#1039,#1036);
#1035=REPRESENTATION('material name',(#1037),#1718);
#1036=REPRESENTATION('density',(#1032),#1718);
#1037=DESCRIPTIVE_REPRESENTATION_ITEM('Steel','Steel');
#1038=PROPERTY_DEFINITION('material property','material name',#1728);
#1039=PROPERTY_DEFINITION('material property','density of part',#1728);
#1040=AXIS2_PLACEMENT_3D('',#1445,#1150,#1151);
#1041=AXIS2_PLACEMENT_3D('',#1446,#1152,#1153);
#1042=AXIS2_PLACEMENT_3D('',#1448,#1154,#1155);
#1043=AXIS2_PLACEMENT_3D('',#1451,#1157,#1158);
#1044=AXIS2_PLACEMENT_3D('',#1452,#1159,#1160);
#1045=AXIS2_PLACEMENT_3D('',#1454,#1161,#1162);
#1046=AXIS2_PLACEMENT_3D('',#1457,#1164,#1165);
#1047=AXIS2_PLACEMENT_3D('',#1458,#1166,#1167);
#1048=AXIS2_PLACEMENT_3D('',#1460,#1168,#1169);
#1049=AXIS2_PLACEMENT_3D('',#1463,#1171,#1172);
#1050=AXIS2_PLACEMENT_3D('',#1464,#1173,#1174);
#1051=AXIS2_PLACEMENT_3D('',#1466,#1175,#1176);
#1052=AXIS2_PLACEMENT_3D('',#1469,#1178,#1179);
#1053=AXIS2_PLACEMENT_3D('',#1470,#1180,#1181);
#1054=AXIS2_PLACEMENT_3D('',#1472,#1182,#1183);
#1055=AXIS2_PLACEMENT_3D('',#1475,#1185,#1186);
#1056=AXIS2_PLACEMENT_3D('',#1476,#1187,#1188);
#1057=AXIS2_PLACEMENT_3D('',#1478,#1189,#1190);
#1058=AXIS2_PLACEMENT_3D('',#1481,#1192,#1193);
#1059=AXIS2_PLACEMENT_3D('',#1482,#1194,#1195);
#1060=AXIS2_PLACEMENT_3D('',#1484,#1196,#1197);
#1061=AXIS2_PLACEMENT_3D('',#1487,#1199,#1200);
#1062=AXIS2_PLACEMENT_3D('',#1488,#1201,#1202);
#1063=AXIS2_PLACEMENT_3D('',#1490,#1203,#1204);
#1064=AXIS2_PLACEMENT_3D('',#1493,#1206,#1207);
#1065=AXIS2_PLACEMENT_3D('',#1494,#1208,#1209);
#1066=AXIS2_PLACEMENT_3D('',#1496,#1210,#1211);
#1067=AXIS2_PLACEMENT_3D('',#1499,#1213,#1214);
#1068=AXIS2_PLACEMENT_3D('',#1500,#1215,#1216);
#1069=AXIS2_PLACEMENT_3D('',#1502,#1217,#1218);
#1070=AXIS2_PLACEMENT_3D('',#1505,#1220,#1221);
#1071=AXIS2_PLACEMENT_3D('',#1506,#1222,#1223);
#1072=AXIS2_PLACEMENT_3D('',#1508,#1224,#1225);
#1073=AXIS2_PLACEMENT_3D('',#1511,#1227,#1228);
#1074=AXIS2_PLACEMENT_3D('',#1512,#1229,#1230);
#1075=AXIS2_PLACEMENT_3D('',#1514,#1231,#1232);
#1076=AXIS2_PLACEMENT_3D('',#1517,#1234,#1235);
#1077=AXIS2_PLACEMENT_3D('',#1518,#1236,#1237);
#1078=AXIS2_PLACEMENT_3D('',#1520,#1238,#1239);
#1079=AXIS2_PLACEMENT_3D('',#1523,#1241,#1242);
#1080=AXIS2_PLACEMENT_3D('',#1524,#1243,#1244);
#1081=AXIS2_PLACEMENT_3D('',#1526,#1245,#1246);
#1082=AXIS2_PLACEMENT_3D('',#1529,#1248,#1249);
#1083=AXIS2_PLACEMENT_3D('',#1530,#1250,#1251);
#1084=AXIS2_PLACEMENT_3D('',#1532,#1252,#1253);
#1085=AXIS2_PLACEMENT_3D('',#1535,#1255,#1256);
#1086=AXIS2_PLACEMENT_3D('',#1536,#1257,#1258);
#1087=AXIS2_PLACEMENT_3D('',#1538,#1259,#1260);
#1088=AXIS2_PLACEMENT_3D('',#1541,#1262,#1263);
#1089=AXIS2_PLACEMENT_3D('',#1542,#1264,#1265);
#1090=AXIS2_PLACEMENT_3D('',#1544,#1266,#1267);
#1091=AXIS2_PLACEMENT_3D('',#1547,#1269,#1270);
#1092=AXIS2_PLACEMENT_3D('',#1548,#1271,#1272);
#1093=AXIS2_PLACEMENT_3D('',#1550,#1273,#1274);
#1094=AXIS2_PLACEMENT_3D('',#1553,#1276,#1277);
#1095=AXIS2_PLACEMENT_3D('',#1554,#1278,#1279);
#1096=AXIS2_PLACEMENT_3D('',#1556,#1280,#1281);
#1097=AXIS2_PLACEMENT_3D('',#1559,#1283,#1284);
#1098=AXIS2_PLACEMENT_3D('',#1560,#1285,#1286);
#1099=AXIS2_PLACEMENT_3D('',#1562,#1287,#1288);
#1100=AXIS2_PLACEMENT_3D('',#1565,#1290,#1291);
#1101=AXIS2_PLACEMENT_3D('',#1566,#1292,#1293);
#1102=AXIS2_PLACEMENT_3D('',#1568,#1294,#1295);
#1103=AXIS2_PLACEMENT_3D('',#1571,#1297,#1298);
#1104=AXIS2_PLACEMENT_3D('',#1572,#1299,#1300);
#1105=AXIS2_PLACEMENT_3D('',#1574,#1301,#1302);
#1106=AXIS2_PLACEMENT_3D('',#1577,#1304,#1305);
#1107=AXIS2_PLACEMENT_3D('',#1578,#1306,#1307);
#1108=AXIS2_PLACEMENT_3D('',#1580,#1308,#1309);
#1109=AXIS2_PLACEMENT_3D('',#1583,#1311,#1312);
#1110=AXIS2_PLACEMENT_3D('',#1584,#1313,#1314);
#1111=AXIS2_PLACEMENT_3D('',#1586,#1315,#1316);
#1112=AXIS2_PLACEMENT_3D('',#1589,#1318,#1319);
#1113=AXIS2_PLACEMENT_3D('',#1590,#1320,#1321);
#1114=AXIS2_PLACEMENT_3D('',#1592,#1322,#1323);
#1115=AXIS2_PLACEMENT_3D('',#1595,#1325,#1326);
#1116=AXIS2_PLACEMENT_3D('',#1596,#1327,#1328);
#1117=AXIS2_PLACEMENT_3D('',#1598,#1329,#1330);
#1118=AXIS2_PLACEMENT_3D('',#1601,#1332,#1333);
#1119=AXIS2_PLACEMENT_3D('',#1602,#1334,#1335);
#1120=AXIS2_PLACEMENT_3D('',#1603,#1336,#1337);
#1121=AXIS2_PLACEMENT_3D('',#1604,#1338,#1339);
#1122=AXIS2_PLACEMENT_3D('',#1606,#1340,#1341);
#1123=AXIS2_PLACEMENT_3D('',#1609,#1343,#1344);
#1124=AXIS2_PLACEMENT_3D('',#1610,#1345,#1346);
#1125=AXIS2_PLACEMENT_3D('',#1611,#1347,#1348);
#1126=AXIS2_PLACEMENT_3D('',#1612,#1349,#1350);
#1127=AXIS2_PLACEMENT_3D('',#1621,#1355,#1356);
#1128=AXIS2_PLACEMENT_3D('',#1627,#1360,#1361);
#1129=AXIS2_PLACEMENT_3D('',#1633,#1365,#1366);
#1130=AXIS2_PLACEMENT_3D('',#1636,#1369,#1370);
#1131=AXIS2_PLACEMENT_3D('',#1637,#1371,#1372);
#1132=AXIS2_PLACEMENT_3D('',#1638,#1373,#1374);
#1133=AXIS2_PLACEMENT_3D('',#1647,#1379,#1380);
#1134=AXIS2_PLACEMENT_3D('',#1653,#1384,#1385);
#1135=AXIS2_PLACEMENT_3D('',#1659,#1389,#1390);
#1136=AXIS2_PLACEMENT_3D('',#1662,#1393,#1394);
#1137=AXIS2_PLACEMENT_3D('',#1663,#1395,#1396);
#1138=AXIS2_PLACEMENT_3D('',#1664,#1397,#1398);
#1139=AXIS2_PLACEMENT_3D('',#1673,#1403,#1404);
#1140=AXIS2_PLACEMENT_3D('',#1679,#1408,#1409);
#1141=AXIS2_PLACEMENT_3D('',#1685,#1413,#1414);
#1142=AXIS2_PLACEMENT_3D('',#1688,#1417,#1418);
#1143=AXIS2_PLACEMENT_3D('',#1689,#1419,#1420);
#1144=AXIS2_PLACEMENT_3D('',#1690,#1421,#1422);
#1145=AXIS2_PLACEMENT_3D('',#1699,#1427,#1428);
#1146=AXIS2_PLACEMENT_3D('',#1705,#1432,#1433);
#1147=AXIS2_PLACEMENT_3D('',#1711,#1437,#1438);
#1148=AXIS2_PLACEMENT_3D('',#1714,#1441,#1442);
#1149=AXIS2_PLACEMENT_3D('',#1715,#1443,#1444);
#1150=DIRECTION('axis',(0.,0.,1.));
#1151=DIRECTION('refdir',(1.,0.,0.));
#1152=DIRECTION('center_axis',(1.,0.,0.));
#1153=DIRECTION('ref_axis',(0.,0.,-1.));
#1154=DIRECTION('center_axis',(-1.,0.,0.));
#1155=DIRECTION('ref_axis',(0.,0.,-1.));
#1156=DIRECTION('',(-1.,0.,0.));
#1157=DIRECTION('center_axis',(-1.,0.,0.));
#1158=DIRECTION('ref_axis',(0.,0.,-1.));
#1159=DIRECTION('center_axis',(1.,0.,0.));
#1160=DIRECTION('ref_axis',(0.,0.,-1.));
#1161=DIRECTION('center_axis',(-1.,0.,0.));
#1162=DIRECTION('ref_axis',(0.,0.,-1.));
#1163=DIRECTION('',(-1.,0.,0.));
#1164=DIRECTION('center_axis',(-1.,0.,0.));
#1165=DIRECTION('ref_axis',(0.,0.,-1.));
#1166=DIRECTION('center_axis',(1.,0.,0.));
#1167=DIRECTION('ref_axis',(0.,0.,-1.));
#1168=DIRECTION('center_axis',(-1.,0.,0.));
#1169=DIRECTION('ref_axis',(0.,0.,-1.));
#1170=DIRECTION('',(-1.,0.,0.));
#1171=DIRECTION('center_axis',(-1.,0.,0.));
#1172=DIRECTION('ref_axis',(0.,0.,-1.));
#1173=DIRECTION('center_axis',(1.,0.,0.));
#1174=DIRECTION('ref_axis',(0.,0.,-1.));
#1175=DIRECTION('center_axis',(-1.,0.,0.));
#1176=DIRECTION('ref_axis',(0.,0.,-1.));
#1177=DIRECTION('',(-1.,0.,0.));
#1178=DIRECTION('center_axis',(-1.,0.,0.));
#1179=DIRECTION('ref_axis',(0.,0.,-1.));
#1180=DIRECTION('center_axis',(1.,0.,0.));
#1181=DIRECTION('ref_axis',(0.,0.,-1.));
#1182=DIRECTION('center_axis',(-1.,0.,0.));
#1183=DIRECTION('ref_axis',(0.,0.,-1.));
#1184=DIRECTION('',(-1.,0.,0.));
#1185=DIRECTION('center_axis',(-1.,0.,0.));
#1186=DIRECTION('ref_axis',(0.,0.,-1.));
#1187=DIRECTION('center_axis',(1.,0.,0.));
#1188=DIRECTION('ref_axis',(0.,0.,-1.));
#1189=DIRECTION('center_axis',(-1.,0.,0.));
#1190=DIRECTION('ref_axis',(0.,0.,-1.));
#1191=DIRECTION('',(-1.,0.,0.));
#1192=DIRECTION('center_axis',(-1.,0.,0.));
#1193=DIRECTION('ref_axis',(0.,0.,-1.));
#1194=DIRECTION('center_axis',(1.,0.,0.));
#1195=DIRECTION('ref_axis',(0.,0.,-1.));
#1196=DIRECTION('center_axis',(-1.,0.,0.));
#1197=DIRECTION('ref_axis',(0.,0.,-1.));
#1198=DIRECTION('',(-1.,0.,0.));
#1199=DIRECTION('center_axis',(-1.,0.,0.));
#1200=DIRECTION('ref_axis',(0.,0.,-1.));
#1201=DIRECTION('center_axis',(1.,0.,0.));
#1202=DIRECTION('ref_axis',(0.,0.,-1.));
#1203=DIRECTION('center_axis',(-1.,0.,0.));
#1204=DIRECTION('ref_axis',(0.,0.,-1.));
#1205=DIRECTION('',(-1.,0.,0.));
#1206=DIRECTION('center_axis',(-1.,0.,0.));
#1207=DIRECTION('ref_axis',(0.,0.,-1.));
#1208=DIRECTION('center_axis',(1.,0.,0.));
#1209=DIRECTION('ref_axis',(0.,0.,-1.));
#1210=DIRECTION('center_axis',(-1.,0.,0.));
#1211=DIRECTION('ref_axis',(0.,0.,-1.));
#1212=DIRECTION('',(-1.,0.,0.));
#1213=DIRECTION('center_axis',(-1.,0.,0.));
#1214=DIRECTION('ref_axis',(0.,0.,-1.));
#1215=DIRECTION('center_axis',(1.,0.,0.));
#1216=DIRECTION('ref_axis',(0.,0.,-1.));
#1217=DIRECTION('center_axis',(-1.,0.,0.));
#1218=DIRECTION('ref_axis',(0.,0.,-1.));
#1219=DIRECTION('',(-1.,0.,0.));
#1220=DIRECTION('center_axis',(-1.,0.,0.));
#1221=DIRECTION('ref_axis',(0.,0.,-1.));
#1222=DIRECTION('center_axis',(1.,0.,0.));
#1223=DIRECTION('ref_axis',(0.,0.,-1.));
#1224=DIRECTION('center_axis',(-1.,0.,0.));
#1225=DIRECTION('ref_axis',(0.,0.,-1.));
#1226=DIRECTION('',(-1.,0.,0.));
#1227=DIRECTION('center_axis',(-1.,0.,0.));
#1228=DIRECTION('ref_axis',(0.,0.,-1.));
#1229=DIRECTION('center_axis',(1.,0.,0.));
#1230=DIRECTION('ref_axis',(0.,0.,-1.));
#1231=DIRECTION('center_axis',(-1.,0.,0.));
#1232=DIRECTION('ref_axis',(0.,0.,-1.));
#1233=DIRECTION('',(-1.,0.,0.));
#1234=DIRECTION('center_axis',(-1.,0.,0.));
#1235=DIRECTION('ref_axis',(0.,0.,-1.));
#1236=DIRECTION('center_axis',(1.,0.,0.));
#1237=DIRECTION('ref_axis',(0.,0.,-1.));
#1238=DIRECTION('center_axis',(-1.,0.,0.));
#1239=DIRECTION('ref_axis',(0.,0.,-1.));
#1240=DIRECTION('',(-1.,0.,0.));
#1241=DIRECTION('center_axis',(-1.,0.,0.));
#1242=DIRECTION('ref_axis',(0.,0.,-1.));
#1243=DIRECTION('center_axis',(1.,0.,0.));
#1244=DIRECTION('ref_axis',(0.,0.,-1.));
#1245=DIRECTION('center_axis',(-1.,0.,0.));
#1246=DIRECTION('ref_axis',(0.,0.,-1.));
#1247=DIRECTION('',(-1.,0.,0.));
#1248=DIRECTION('center_axis',(-1.,0.,0.));
#1249=DIRECTION('ref_axis',(0.,0.,-1.));
#1250=DIRECTION('center_axis',(1.,0.,0.));
#1251=DIRECTION('ref_axis',(0.,0.,-1.));
#1252=DIRECTION('center_axis',(-1.,0.,0.));
#1253=DIRECTION('ref_axis',(0.,0.,-1.));
#1254=DIRECTION('',(-1.,0.,0.));
#1255=DIRECTION('center_axis',(-1.,0.,0.));
#1256=DIRECTION('ref_axis',(0.,0.,-1.));
#1257=DIRECTION('center_axis',(1.,0.,0.));
#1258=DIRECTION('ref_axis',(0.,0.,-1.));
#1259=DIRECTION('center_axis',(-1.,0.,0.));
#1260=DIRECTION('ref_axis',(0.,0.,-1.));
#1261=DIRECTION('',(-1.,0.,0.));
#1262=DIRECTION('center_axis',(-1.,0.,0.));
#1263=DIRECTION('ref_axis',(0.,0.,-1.));
#1264=DIRECTION('center_axis',(1.,0.,0.));
#1265=DIRECTION('ref_axis',(0.,0.,-1.));
#1266=DIRECTION('center_axis',(-1.,0.,0.));
#1267=DIRECTION('ref_axis',(0.,0.,-1.));
#1268=DIRECTION('',(-1.,0.,0.));
#1269=DIRECTION('center_axis',(-1.,0.,0.));
#1270=DIRECTION('ref_axis',(0.,0.,-1.));
#1271=DIRECTION('center_axis',(1.,0.,0.));
#1272=DIRECTION('ref_axis',(0.,0.,-1.));
#1273=DIRECTION('center_axis',(-1.,0.,0.));
#1274=DIRECTION('ref_axis',(0.,0.,-1.));
#1275=DIRECTION('',(-1.,0.,0.));
#1276=DIRECTION('center_axis',(-1.,0.,0.));
#1277=DIRECTION('ref_axis',(0.,0.,-1.));
#1278=DIRECTION('center_axis',(1.,0.,0.));
#1279=DIRECTION('ref_axis',(0.,0.,-1.));
#1280=DIRECTION('center_axis',(-1.,0.,0.));
#1281=DIRECTION('ref_axis',(0.,0.,-1.));
#1282=DIRECTION('',(-1.,0.,0.));
#1283=DIRECTION('center_axis',(-1.,0.,0.));
#1284=DIRECTION('ref_axis',(0.,0.,-1.));
#1285=DIRECTION('center_axis',(1.,0.,0.));
#1286=DIRECTION('ref_axis',(0.,0.,-1.));
#1287=DIRECTION('center_axis',(-1.,0.,0.));
#1288=DIRECTION('ref_axis',(0.,0.,-1.));
#1289=DIRECTION('',(-1.,0.,0.));
#1290=DIRECTION('center_axis',(-1.,0.,0.));
#1291=DIRECTION('ref_axis',(0.,0.,-1.));
#1292=DIRECTION('center_axis',(1.,0.,0.));
#1293=DIRECTION('ref_axis',(0.,0.,-1.));
#1294=DIRECTION('center_axis',(-1.,0.,0.));
#1295=DIRECTION('ref_axis',(0.,0.,-1.));
#1296=DIRECTION('',(-1.,0.,0.));
#1297=DIRECTION('center_axis',(-1.,0.,0.));
#1298=DIRECTION('ref_axis',(0.,0.,-1.));
#1299=DIRECTION('center_axis',(1.,0.,0.));
#1300=DIRECTION('ref_axis',(0.,0.,-1.));
#1301=DIRECTION('center_axis',(-1.,0.,0.));
#1302=DIRECTION('ref_axis',(0.,0.,-1.));
#1303=DIRECTION('',(-1.,0.,0.));
#1304=DIRECTION('center_axis',(-1.,0.,0.));
#1305=DIRECTION('ref_axis',(0.,0.,-1.));
#1306=DIRECTION('center_axis',(1.,0.,0.));
#1307=DIRECTION('ref_axis',(0.,0.,-1.));
#1308=DIRECTION('center_axis',(-1.,0.,0.));
#1309=DIRECTION('ref_axis',(0.,0.,-1.));
#1310=DIRECTION('',(-1.,0.,0.));
#1311=DIRECTION('center_axis',(-1.,0.,0.));
#1312=DIRECTION('ref_axis',(0.,0.,-1.));
#1313=DIRECTION('center_axis',(1.,0.,0.));
#1314=DIRECTION('ref_axis',(0.,0.,-1.));
#1315=DIRECTION('center_axis',(-1.,0.,0.));
#1316=DIRECTION('ref_axis',(0.,0.,-1.));
#1317=DIRECTION('',(-1.,0.,0.));
#1318=DIRECTION('center_axis',(-1.,0.,0.));
#1319=DIRECTION('ref_axis',(0.,0.,-1.));
#1320=DIRECTION('center_axis',(1.,0.,0.));
#1321=DIRECTION('ref_axis',(0.,0.,-1.));
#1322=DIRECTION('center_axis',(-1.,0.,0.));
#1323=DIRECTION('ref_axis',(0.,0.,-1.));
#1324=DIRECTION('',(-1.,0.,0.));
#1325=DIRECTION('center_axis',(-1.,0.,0.));
#1326=DIRECTION('ref_axis',(0.,0.,-1.));
#1327=DIRECTION('center_axis',(1.,0.,0.));
#1328=DIRECTION('ref_axis',(0.,0.,-1.));
#1329=DIRECTION('center_axis',(1.,0.,0.));
#1330=DIRECTION('ref_axis',(0.,0.,-1.));
#1331=DIRECTION('',(-1.,0.,0.));
#1332=DIRECTION('center_axis',(1.,0.,0.));
#1333=DIRECTION('ref_axis',(0.,0.,-1.));
#1334=DIRECTION('center_axis',(1.,0.,0.));
#1335=DIRECTION('ref_axis',(0.,0.,-1.));
#1336=DIRECTION('center_axis',(1.,0.,0.));
#1337=DIRECTION('ref_axis',(0.,0.,-1.));
#1338=DIRECTION('center_axis',(1.,0.,0.));
#1339=DIRECTION('ref_axis',(0.,0.,-1.));
#1340=DIRECTION('center_axis',(1.,0.,0.));
#1341=DIRECTION('ref_axis',(0.,0.,-1.));
#1342=DIRECTION('',(-1.,0.,0.));
#1343=DIRECTION('center_axis',(1.,0.,0.));
#1344=DIRECTION('ref_axis',(0.,0.,-1.));
#1345=DIRECTION('center_axis',(1.,0.,0.));
#1346=DIRECTION('ref_axis',(0.,0.,-1.));
#1347=DIRECTION('center_axis',(1.,0.,0.));
#1348=DIRECTION('ref_axis',(0.,0.,-1.));
#1349=DIRECTION('center_axis',(0.,0.,1.));
#1350=DIRECTION('ref_axis',(0.,-1.,0.));
#1351=DIRECTION('',(0.,1.,0.));
#1352=DIRECTION('',(1.,0.,0.));
#1353=DIRECTION('',(0.,-1.,0.));
#1354=DIRECTION('',(1.,0.,0.));
#1355=DIRECTION('center_axis',(0.,1.,0.));
#1356=DIRECTION('ref_axis',(0.,0.,1.));
#1357=DIRECTION('',(0.,0.,-1.));
#1358=DIRECTION('',(0.,0.,1.));
#1359=DIRECTION('',(1.,0.,0.));
#1360=DIRECTION('center_axis',(0.,0.,-1.));
#1361=DIRECTION('ref_axis',(0.,1.,0.));
#1362=DIRECTION('',(0.,-1.,0.));
#1363=DIRECTION('',(0.,1.,0.));
#1364=DIRECTION('',(1.,0.,0.));
#1365=DIRECTION('center_axis',(0.,-1.,0.));
#1366=DIRECTION('ref_axis',(0.,0.,-1.));
#1367=DIRECTION('',(0.,0.,1.));
#1368=DIRECTION('',(0.,0.,-1.));
#1369=DIRECTION('center_axis',(1.,0.,0.));
#1370=DIRECTION('ref_axis',(0.,0.,-1.));
#1371=DIRECTION('center_axis',(1.,0.,0.));
#1372=DIRECTION('ref_axis',(0.,0.,-1.));
#1373=DIRECTION('center_axis',(0.,-1.,0.));
#1374=DIRECTION('ref_axis',(0.,0.,-1.));
#1375=DIRECTION('',(0.,0.,1.));
#1376=DIRECTION('',(1.,0.,0.));
#1377=DIRECTION('',(0.,0.,-1.));
#1378=DIRECTION('',(1.,0.,0.));
#1379=DIRECTION('center_axis',(0.,5.87765130683906E-17,1.));
#1380=DIRECTION('ref_axis',(0.,-1.,5.87765130683906E-17));
#1381=DIRECTION('',(0.,1.,-5.87765130683906E-17));
#1382=DIRECTION('',(0.,-1.,5.87765130683906E-17));
#1383=DIRECTION('',(1.,0.,0.));
#1384=DIRECTION('center_axis',(0.,1.,0.));
#1385=DIRECTION('ref_axis',(0.,0.,1.));
#1386=DIRECTION('',(0.,0.,-1.));
#1387=DIRECTION('',(0.,0.,1.));
#1388=DIRECTION('',(1.,0.,0.));
#1389=DIRECTION('center_axis',(0.,-5.87765130683906E-17,-1.));
#1390=DIRECTION('ref_axis',(0.,1.,-5.87765130683906E-17));
#1391=DIRECTION('',(0.,-1.,5.87765130683906E-17));
#1392=DIRECTION('',(0.,1.,-5.87765130683906E-17));
#1393=DIRECTION('center_axis',(1.,0.,0.));
#1394=DIRECTION('ref_axis',(0.,0.,-1.));
#1395=DIRECTION('center_axis',(1.,0.,0.));
#1396=DIRECTION('ref_axis',(0.,0.,-1.));
#1397=DIRECTION('center_axis',(0.,0.,-1.));
#1398=DIRECTION('ref_axis',(0.,1.,0.));
#1399=DIRECTION('',(0.,-1.,0.));
#1400=DIRECTION('',(1.,0.,0.));
#1401=DIRECTION('',(0.,1.,0.));
#1402=DIRECTION('',(1.,0.,0.));
#1403=DIRECTION('center_axis',(0.,-1.,1.17553026136781E-16));
#1404=DIRECTION('ref_axis',(0.,-1.17553026136781E-16,-1.));
#1405=DIRECTION('',(0.,1.17553026136781E-16,1.));
#1406=DIRECTION('',(0.,-1.17553026136781E-16,-1.));
#1407=DIRECTION('',(1.,0.,0.));
#1408=DIRECTION('center_axis',(0.,0.,1.));
#1409=DIRECTION('ref_axis',(0.,-1.,0.));
#1410=DIRECTION('',(0.,1.,0.));
#1411=DIRECTION('',(0.,-1.,0.));
#1412=DIRECTION('',(1.,0.,0.));
#1413=DIRECTION('center_axis',(0.,1.,-1.17553026136781E-16));
#1414=DIRECTION('ref_axis',(0.,1.17553026136781E-16,1.));
#1415=DIRECTION('',(0.,-1.17553026136781E-16,-1.));
#1416=DIRECTION('',(0.,1.17553026136781E-16,1.));
#1417=DIRECTION('center_axis',(1.,0.,0.));
#1418=DIRECTION('ref_axis',(0.,0.,-1.));
#1419=DIRECTION('center_axis',(1.,0.,0.));
#1420=DIRECTION('ref_axis',(0.,0.,-1.));
#1421=DIRECTION('center_axis',(0.,1.,0.));
#1422=DIRECTION('ref_axis',(0.,0.,1.));
#1423=DIRECTION('',(0.,0.,-1.));
#1424=DIRECTION('',(1.,0.,0.));
#1425=DIRECTION('',(0.,0.,1.));
#1426=DIRECTION('',(1.,0.,0.));
#1427=DIRECTION('center_axis',(0.,-1.82860262879438E-16,-1.));
#1428=DIRECTION('ref_axis',(0.,1.,-1.82860262879438E-16));
#1429=DIRECTION('',(0.,-1.,1.82860262879438E-16));
#1430=DIRECTION('',(0.,1.,-1.82860262879438E-16));
#1431=DIRECTION('',(1.,0.,0.));
#1432=DIRECTION('center_axis',(0.,-1.,0.));
#1433=DIRECTION('ref_axis',(0.,0.,-1.));
#1434=DIRECTION('',(0.,0.,1.));
#1435=DIRECTION('',(0.,0.,-1.));
#1436=DIRECTION('',(1.,0.,0.));
#1437=DIRECTION('center_axis',(0.,1.82860262879438E-16,1.));
#1438=DIRECTION('ref_axis',(0.,-1.,1.82860262879438E-16));
#1439=DIRECTION('',(0.,1.,-1.82860262879438E-16));
#1440=DIRECTION('',(0.,-1.,1.82860262879438E-16));
#1441=DIRECTION('center_axis',(1.,0.,0.));
#1442=DIRECTION('ref_axis',(0.,0.,-1.));
#1443=DIRECTION('center_axis',(1.,0.,0.));
#1444=DIRECTION('ref_axis',(0.,0.,-1.));
#1445=CARTESIAN_POINT('',(0.,0.,0.));
#1446=CARTESIAN_POINT('Origin',(-25.,-193.185165257814,51.7638090205041));
#1447=CARTESIAN_POINT('',(0.,-193.185165257814,56.2638090205041));
#1448=CARTESIAN_POINT('Origin',(0.,-193.185165257814,51.7638090205041));
#1449=CARTESIAN_POINT('',(-25.,-193.185165257814,56.2638090205041));
#1450=CARTESIAN_POINT('',(-25.,-193.185165257814,56.2638090205041));
#1451=CARTESIAN_POINT('Origin',(-25.,-193.185165257814,51.7638090205041));
#1452=CARTESIAN_POINT('Origin',(-25.,141.42135623731,141.421356237309));
#1453=CARTESIAN_POINT('',(0.,141.42135623731,145.921356237309));
#1454=CARTESIAN_POINT('Origin',(0.,141.42135623731,141.421356237309));
#1455=CARTESIAN_POINT('',(-25.,141.42135623731,145.921356237309));
#1456=CARTESIAN_POINT('',(-25.,141.42135623731,145.921356237309));
#1457=CARTESIAN_POINT('Origin',(-25.,141.42135623731,141.421356237309));
#1458=CARTESIAN_POINT('Origin',(-25.,-51.7638090205042,193.185165257814));
#1459=CARTESIAN_POINT('',(0.,-51.7638090205041,197.685165257814));
#1460=CARTESIAN_POINT('Origin',(0.,-51.7638090205042,193.185165257814));
#1461=CARTESIAN_POINT('',(-25.,-51.7638090205042,197.685165257814));
#1462=CARTESIAN_POINT('',(-25.,-51.7638090205042,197.685165257814));
#1463=CARTESIAN_POINT('Origin',(-25.,-51.7638090205042,193.185165257814));
#1464=CARTESIAN_POINT('Origin',(-25.,200.,-1.22464679914735E-14));
#1465=CARTESIAN_POINT('',(0.,200.,4.49999999999999));
#1466=CARTESIAN_POINT('Origin',(0.,200.,-1.22464679914735E-14));
#1467=CARTESIAN_POINT('',(-25.,200.,4.49999999999999));
#1468=CARTESIAN_POINT('',(-25.,200.,4.49999999999999));
#1469=CARTESIAN_POINT('Origin',(-25.,200.,-1.22464679914735E-14));
#1470=CARTESIAN_POINT('Origin',(-25.,193.185165257814,-51.7638090205041));
#1471=CARTESIAN_POINT('',(0.,193.185165257814,-47.2638090205041));
#1472=CARTESIAN_POINT('Origin',(0.,193.185165257814,-51.7638090205041));
#1473=CARTESIAN_POINT('',(-25.,193.185165257814,-47.2638090205041));
#1474=CARTESIAN_POINT('',(-25.,193.185165257814,-47.2638090205041));
#1475=CARTESIAN_POINT('Origin',(-25.,193.185165257814,-51.7638090205041));
#1476=CARTESIAN_POINT('Origin',(-25.,51.7638090205042,193.185165257814));
#1477=CARTESIAN_POINT('',(0.,51.7638090205042,197.685165257814));
#1478=CARTESIAN_POINT('Origin',(0.,51.7638090205042,193.185165257814));
#1479=CARTESIAN_POINT('',(-25.,51.7638090205042,197.685165257814));
#1480=CARTESIAN_POINT('',(-25.,51.7638090205042,197.685165257814));
#1481=CARTESIAN_POINT('Origin',(-25.,51.7638090205042,193.185165257814));
#1482=CARTESIAN_POINT('Origin',(-25.,-100.,173.205080756888));
#1483=CARTESIAN_POINT('',(0.,-100.,177.705080756888));
#1484=CARTESIAN_POINT('Origin',(0.,-100.,173.205080756888));
#1485=CARTESIAN_POINT('',(-25.,-100.,177.705080756888));
#1486=CARTESIAN_POINT('',(-25.,-100.,177.705080756888));
#1487=CARTESIAN_POINT('Origin',(-25.,-100.,173.205080756888));
#1488=CARTESIAN_POINT('Origin',(-25.,-141.421356237309,141.42135623731));
#1489=CARTESIAN_POINT('',(0.,-141.421356237309,145.92135623731));
#1490=CARTESIAN_POINT('Origin',(0.,-141.421356237309,141.42135623731));
#1491=CARTESIAN_POINT('',(-25.,-141.421356237309,145.92135623731));
#1492=CARTESIAN_POINT('',(-25.,-141.421356237309,145.92135623731));
#1493=CARTESIAN_POINT('Origin',(-25.,-141.421356237309,141.42135623731));
#1494=CARTESIAN_POINT('Origin',(-25.,-100.,-173.205080756888));
#1495=CARTESIAN_POINT('',(0.,-100.,-168.705080756888));
#1496=CARTESIAN_POINT('Origin',(0.,-100.,-173.205080756888));
#1497=CARTESIAN_POINT('',(-25.,-100.,-168.705080756888));
#1498=CARTESIAN_POINT('',(-25.,-100.,-168.705080756888));
#1499=CARTESIAN_POINT('Origin',(-25.,-100.,-173.205080756888));
#1500=CARTESIAN_POINT('Origin',(-25.,-141.42135623731,-141.421356237309));
#1501=CARTESIAN_POINT('',(0.,-141.42135623731,-136.92135623731));
#1502=CARTESIAN_POINT('Origin',(0.,-141.42135623731,-141.421356237309));
#1503=CARTESIAN_POINT('',(-25.,-141.42135623731,-136.921356237309));
#1504=CARTESIAN_POINT('',(-25.,-141.42135623731,-136.921356237309));
#1505=CARTESIAN_POINT('Origin',(-25.,-141.42135623731,-141.421356237309));
#1506=CARTESIAN_POINT('Origin',(-25.,141.421356237309,-141.42135623731));
#1507=CARTESIAN_POINT('',(0.,141.421356237309,-136.92135623731));
#1508=CARTESIAN_POINT('Origin',(0.,141.421356237309,-141.42135623731));
#1509=CARTESIAN_POINT('',(-25.,141.421356237309,-136.92135623731));
#1510=CARTESIAN_POINT('',(-25.,141.421356237309,-136.92135623731));
#1511=CARTESIAN_POINT('Origin',(-25.,141.421356237309,-141.42135623731));
#1512=CARTESIAN_POINT('Origin',(-25.,-173.205080756888,-100.));
#1513=CARTESIAN_POINT('',(0.,-173.205080756888,-95.5));
#1514=CARTESIAN_POINT('Origin',(0.,-173.205080756888,-100.));
#1515=CARTESIAN_POINT('',(-25.,-173.205080756888,-95.5));
#1516=CARTESIAN_POINT('',(-25.,-173.205080756888,-95.5));
#1517=CARTESIAN_POINT('Origin',(-25.,-173.205080756888,-100.));
#1518=CARTESIAN_POINT('Origin',(-25.,51.7638090205041,-193.185165257814));
#1519=CARTESIAN_POINT('',(0.,51.7638090205041,-188.685165257814));
#1520=CARTESIAN_POINT('Origin',(0.,51.7638090205041,-193.185165257814));
#1521=CARTESIAN_POINT('',(-25.,51.7638090205041,-188.685165257814));
#1522=CARTESIAN_POINT('',(-25.,51.7638090205041,-188.685165257814));
#1523=CARTESIAN_POINT('Origin',(-25.,51.7638090205041,-193.185165257814));
#1524=CARTESIAN_POINT('Origin',(-25.,173.205080756888,-100.));
#1525=CARTESIAN_POINT('',(0.,173.205080756888,-95.5));
#1526=CARTESIAN_POINT('Origin',(0.,173.205080756888,-100.));
#1527=CARTESIAN_POINT('',(-25.,173.205080756888,-95.5));
#1528=CARTESIAN_POINT('',(-25.,173.205080756888,-95.5));
#1529=CARTESIAN_POINT('Origin',(-25.,173.205080756888,-100.));
#1530=CARTESIAN_POINT('Origin',(-25.,193.185165257814,51.7638090205041));
#1531=CARTESIAN_POINT('',(0.,193.185165257814,56.2638090205041));
#1532=CARTESIAN_POINT('Origin',(0.,193.185165257814,51.7638090205041));
#1533=CARTESIAN_POINT('',(-25.,193.185165257814,56.2638090205041));
#1534=CARTESIAN_POINT('',(-25.,193.185165257814,56.2638090205041));
#1535=CARTESIAN_POINT('Origin',(-25.,193.185165257814,51.7638090205041));
#1536=CARTESIAN_POINT('Origin',(-25.,100.,-173.205080756888));
#1537=CARTESIAN_POINT('',(0.,100.,-168.705080756888));
#1538=CARTESIAN_POINT('Origin',(0.,100.,-173.205080756888));
#1539=CARTESIAN_POINT('',(-25.,100.,-168.705080756888));
#1540=CARTESIAN_POINT('',(-25.,100.,-168.705080756888));
#1541=CARTESIAN_POINT('Origin',(-25.,100.,-173.205080756888));
#1542=CARTESIAN_POINT('Origin',(-25.,-193.185165257814,-51.7638090205041));
#1543=CARTESIAN_POINT('',(0.,-193.185165257814,-47.2638090205041));
#1544=CARTESIAN_POINT('Origin',(0.,-193.185165257814,-51.7638090205041));
#1545=CARTESIAN_POINT('',(-25.,-193.185165257814,-47.2638090205041));
#1546=CARTESIAN_POINT('',(-25.,-193.185165257814,-47.2638090205041));
#1547=CARTESIAN_POINT('Origin',(-25.,-193.185165257814,-51.7638090205041));
#1548=CARTESIAN_POINT('Origin',(-25.,173.205080756888,100.));
#1549=CARTESIAN_POINT('',(0.,173.205080756888,104.5));
#1550=CARTESIAN_POINT('Origin',(0.,173.205080756888,100.));
#1551=CARTESIAN_POINT('',(-25.,173.205080756888,104.5));
#1552=CARTESIAN_POINT('',(-25.,173.205080756888,104.5));
#1553=CARTESIAN_POINT('Origin',(-25.,173.205080756888,100.));
#1554=CARTESIAN_POINT('Origin',(-25.,-51.7638090205043,-193.185165257814));
#1555=CARTESIAN_POINT('',(0.,-51.7638090205043,-188.685165257814));
#1556=CARTESIAN_POINT('Origin',(0.,-51.7638090205043,-193.185165257814));
#1557=CARTESIAN_POINT('',(-25.,-51.7638090205043,-188.685165257814));
#1558=CARTESIAN_POINT('',(-25.,-51.7638090205043,-188.685165257814));
#1559=CARTESIAN_POINT('Origin',(-25.,-51.7638090205043,-193.185165257814));
#1560=CARTESIAN_POINT('Origin',(-25.,0.,-200.));
#1561=CARTESIAN_POINT('',(0.,0.,-195.5));
#1562=CARTESIAN_POINT('Origin',(0.,0.,-200.));
#1563=CARTESIAN_POINT('',(-25.,-5.51091059616308E-16,-195.5));
#1564=CARTESIAN_POINT('',(-25.,-5.51091059616308E-16,-195.5));
#1565=CARTESIAN_POINT('Origin',(-25.,0.,-200.));
#1566=CARTESIAN_POINT('Origin',(-25.,-200.,3.67394039744206E-14));
#1567=CARTESIAN_POINT('',(0.,-200.,4.50000000000003));
#1568=CARTESIAN_POINT('Origin',(0.,-200.,3.67394039744206E-14));
#1569=CARTESIAN_POINT('',(-25.,-200.,4.50000000000004));
#1570=CARTESIAN_POINT('',(-25.,-200.,4.50000000000004));
#1571=CARTESIAN_POINT('Origin',(-25.,-200.,3.67394039744206E-14));
#1572=CARTESIAN_POINT('Origin',(-25.,0.,0.));
#1573=CARTESIAN_POINT('',(0.,-3.5527136788005E-14,150.));
#1574=CARTESIAN_POINT('Origin',(0.,0.,0.));
#1575=CARTESIAN_POINT('',(-25.,-1.83697019872103E-14,150.));
#1576=CARTESIAN_POINT('',(-25.,-1.83697019872103E-14,150.));
#1577=CARTESIAN_POINT('Origin',(-25.,0.,0.));
#1578=CARTESIAN_POINT('Origin',(-25.,100.,173.205080756888));
#1579=CARTESIAN_POINT('',(0.,100.,177.705080756888));
#1580=CARTESIAN_POINT('Origin',(0.,100.,173.205080756888));
#1581=CARTESIAN_POINT('',(-25.,100.,177.705080756888));
#1582=CARTESIAN_POINT('',(-25.,100.,177.705080756888));
#1583=CARTESIAN_POINT('Origin',(-25.,100.,173.205080756888));
#1584=CARTESIAN_POINT('Origin',(-25.,2.44929359829471E-14,200.));
#1585=CARTESIAN_POINT('',(0.,3.5527136788005E-14,204.5));
#1586=CARTESIAN_POINT('Origin',(0.,2.44929359829471E-14,200.));
#1587=CARTESIAN_POINT('',(-25.,2.39418449233308E-14,204.5));
#1588=CARTESIAN_POINT('',(-25.,2.39418449233308E-14,204.5));
#1589=CARTESIAN_POINT('Origin',(-25.,2.44929359829471E-14,200.));
#1590=CARTESIAN_POINT('Origin',(-25.,-173.205080756888,100.));
#1591=CARTESIAN_POINT('',(0.,-173.205080756888,104.5));
#1592=CARTESIAN_POINT('Origin',(0.,-173.205080756888,100.));
#1593=CARTESIAN_POINT('',(-25.,-173.205080756888,104.5));
#1594=CARTESIAN_POINT('',(-25.,-173.205080756888,104.5));
#1595=CARTESIAN_POINT('Origin',(-25.,-173.205080756888,100.));
#1596=CARTESIAN_POINT('Origin',(-25.,0.,0.));
#1597=CARTESIAN_POINT('',(0.,-3.5527136788005E-14,230.));
#1598=CARTESIAN_POINT('Origin',(0.,0.,0.));
#1599=CARTESIAN_POINT('',(-25.,-2.81668763803891E-14,230.));
#1600=CARTESIAN_POINT('',(-25.,-2.81668763803891E-14,230.));
#1601=CARTESIAN_POINT('Origin',(-25.,0.,0.));
#1602=CARTESIAN_POINT('Origin',(0.,0.,0.));
#1603=CARTESIAN_POINT('Origin',(-25.,0.,0.));
#1604=CARTESIAN_POINT('Origin',(-25.,0.,0.));
#1605=CARTESIAN_POINT('',(-10.,-1.83697019872103E-14,150.));
#1606=CARTESIAN_POINT('Origin',(-10.,0.,0.));
#1607=CARTESIAN_POINT('',(-25.,-1.83697019872103E-14,150.));
#1608=CARTESIAN_POINT('',(-25.,-1.83697019872103E-14,150.));
#1609=CARTESIAN_POINT('Origin',(-25.,0.,0.));
#1610=CARTESIAN_POINT('Origin',(-10.,0.,0.));
#1611=CARTESIAN_POINT('Origin',(-25.,0.,0.));
#1612=CARTESIAN_POINT('Origin',(-25.,6.,-50.));
#1613=CARTESIAN_POINT('',(-25.,-6.,-50.));
#1614=CARTESIAN_POINT('',(-25.,6.,-50.));
#1615=CARTESIAN_POINT('',(-25.,-6.,-50.));
#1616=CARTESIAN_POINT('',(30.,-6.,-50.));
#1617=CARTESIAN_POINT('',(-25.,-6.,-50.));
#1618=CARTESIAN_POINT('',(30.,6.,-50.));
#1619=CARTESIAN_POINT('',(30.,-6.,-50.));
#1620=CARTESIAN_POINT('',(-25.,6.,-50.));
#1621=CARTESIAN_POINT('Origin',(-25.,6.,-220.));
#1622=CARTESIAN_POINT('',(-25.,6.,-220.));
#1623=CARTESIAN_POINT('',(-25.,6.,-50.));
#1624=CARTESIAN_POINT('',(30.,6.,-220.));
#1625=CARTESIAN_POINT('',(30.,6.,-50.));
#1626=CARTESIAN_POINT('',(-25.,6.,-220.));
#1627=CARTESIAN_POINT('Origin',(-25.,-6.,-220.));
#1628=CARTESIAN_POINT('',(-25.,-6.,-220.));
#1629=CARTESIAN_POINT('',(-25.,6.,-220.));
#1630=CARTESIAN_POINT('',(30.,-6.,-220.));
#1631=CARTESIAN_POINT('',(30.,6.,-220.));
#1632=CARTESIAN_POINT('',(-25.,-6.,-220.));
#1633=CARTESIAN_POINT('Origin',(-25.,-6.,-50.));
#1634=CARTESIAN_POINT('',(-25.,-6.,-220.));
#1635=CARTESIAN_POINT('',(30.,-6.,-220.));
#1636=CARTESIAN_POINT('Origin',(30.,0.,-135.));
#1637=CARTESIAN_POINT('Origin',(-25.,0.,-135.));
#1638=CARTESIAN_POINT('Origin',(-25.,50.,6.));
#1639=CARTESIAN_POINT('',(-25.,50.,-6.));
#1640=CARTESIAN_POINT('',(-25.,50.,6.));
#1641=CARTESIAN_POINT('',(-25.,50.,-6.));
#1642=CARTESIAN_POINT('',(30.,50.,-6.));
#1643=CARTESIAN_POINT('',(-25.,50.,-6.));
#1644=CARTESIAN_POINT('',(30.,50.,6.));
#1645=CARTESIAN_POINT('',(30.,50.,-6.));
#1646=CARTESIAN_POINT('',(-25.,50.,6.));
#1647=CARTESIAN_POINT('Origin',(-25.,220.,5.99999999999999));
#1648=CARTESIAN_POINT('',(-25.,220.,5.99999999999999));
#1649=CARTESIAN_POINT('',(-25.,50.,6.));
#1650=CARTESIAN_POINT('',(30.,220.,5.99999999999999));
#1651=CARTESIAN_POINT('',(30.,50.,6.));
#1652=CARTESIAN_POINT('',(-25.,220.,5.99999999999999));
#1653=CARTESIAN_POINT('Origin',(-25.,220.,-6.00000000000001));
#1654=CARTESIAN_POINT('',(-25.,220.,-6.00000000000001));
#1655=CARTESIAN_POINT('',(-25.,220.,5.99999999999999));
#1656=CARTESIAN_POINT('',(30.,220.,-6.00000000000001));
#1657=CARTESIAN_POINT('',(30.,220.,5.99999999999999));
#1658=CARTESIAN_POINT('',(-25.,220.,-6.00000000000001));
#1659=CARTESIAN_POINT('Origin',(-25.,50.,-6.));
#1660=CARTESIAN_POINT('',(-25.,220.,-6.00000000000001));
#1661=CARTESIAN_POINT('',(30.,220.,-6.00000000000001));
#1662=CARTESIAN_POINT('Origin',(30.,135.,-8.88178419700125E-15));
#1663=CARTESIAN_POINT('Origin',(-25.,135.,-8.88178419700125E-15));
#1664=CARTESIAN_POINT('Origin',(-25.,-5.99999999999999,50.));
#1665=CARTESIAN_POINT('',(-25.,6.00000000000001,50.));
#1666=CARTESIAN_POINT('',(-25.,-5.99999999999999,50.));
#1667=CARTESIAN_POINT('',(-25.,6.00000000000001,50.));
#1668=CARTESIAN_POINT('',(30.,6.00000000000001,50.));
#1669=CARTESIAN_POINT('',(-25.,6.00000000000001,50.));
#1670=CARTESIAN_POINT('',(30.,-5.99999999999999,50.));
#1671=CARTESIAN_POINT('',(30.,6.00000000000001,50.));
#1672=CARTESIAN_POINT('',(-25.,-5.99999999999999,50.));
#1673=CARTESIAN_POINT('Origin',(-25.,-5.99999999999997,220.));
#1674=CARTESIAN_POINT('',(-25.,-5.99999999999997,220.));
#1675=CARTESIAN_POINT('',(-25.,-5.99999999999999,50.));
#1676=CARTESIAN_POINT('',(30.,-5.99999999999997,220.));
#1677=CARTESIAN_POINT('',(30.,-5.99999999999999,50.));
#1678=CARTESIAN_POINT('',(-25.,-5.99999999999997,220.));
#1679=CARTESIAN_POINT('Origin',(-25.,6.00000000000003,220.));
#1680=CARTESIAN_POINT('',(-25.,6.00000000000003,220.));
#1681=CARTESIAN_POINT('',(-25.,-5.99999999999997,220.));
#1682=CARTESIAN_POINT('',(30.,6.00000000000003,220.));
#1683=CARTESIAN_POINT('',(30.,-5.99999999999997,220.));
#1684=CARTESIAN_POINT('',(-25.,6.00000000000003,220.));
#1685=CARTESIAN_POINT('Origin',(-25.,6.00000000000001,50.));
#1686=CARTESIAN_POINT('',(-25.,6.00000000000003,220.));
#1687=CARTESIAN_POINT('',(30.,6.00000000000003,220.));
#1688=CARTESIAN_POINT('Origin',(30.,1.66533453693773E-14,135.));
#1689=CARTESIAN_POINT('Origin',(-25.,1.66533453693773E-14,135.));
#1690=CARTESIAN_POINT('Origin',(-25.,-50.,-5.99999999999999));
#1691=CARTESIAN_POINT('',(-25.,-50.,6.00000000000001));
#1692=CARTESIAN_POINT('',(-25.,-50.,-5.99999999999999));
#1693=CARTESIAN_POINT('',(-25.,-50.,6.00000000000001));
#1694=CARTESIAN_POINT('',(30.,-50.,6.00000000000001));
#1695=CARTESIAN_POINT('',(-25.,-50.,6.00000000000001));
#1696=CARTESIAN_POINT('',(30.,-50.,-5.99999999999999));
#1697=CARTESIAN_POINT('',(30.,-50.,6.00000000000001));
#1698=CARTESIAN_POINT('',(-25.,-50.,-5.99999999999999));
#1699=CARTESIAN_POINT('Origin',(-25.,-220.,-5.99999999999996));
#1700=CARTESIAN_POINT('',(-25.,-220.,-5.99999999999996));
#1701=CARTESIAN_POINT('',(-25.,-50.,-5.99999999999999));
#1702=CARTESIAN_POINT('',(30.,-220.,-5.99999999999996));
#1703=CARTESIAN_POINT('',(30.,-50.,-5.99999999999999));
#1704=CARTESIAN_POINT('',(-25.,-220.,-5.99999999999996));
#1705=CARTESIAN_POINT('Origin',(-25.,-220.,6.00000000000004));
#1706=CARTESIAN_POINT('',(-25.,-220.,6.00000000000004));
#1707=CARTESIAN_POINT('',(-25.,-220.,-5.99999999999996));
#1708=CARTESIAN_POINT('',(30.,-220.,6.00000000000004));
#1709=CARTESIAN_POINT('',(30.,-220.,-5.99999999999996));
#1710=CARTESIAN_POINT('',(-25.,-220.,6.00000000000004));
#1711=CARTESIAN_POINT('Origin',(-25.,-50.,6.00000000000001));
#1712=CARTESIAN_POINT('',(-25.,-220.,6.00000000000004));
#1713=CARTESIAN_POINT('',(30.,-220.,6.00000000000004));
#1714=CARTESIAN_POINT('Origin',(30.,-135.,2.44249065417534E-14));
#1715=CARTESIAN_POINT('Origin',(-25.,-135.,2.44249065417534E-14));
#1716=UNCERTAINTY_MEASURE_WITH_UNIT(LENGTH_MEASURE(0.01),#1720,
'DISTANCE_ACCURACY_VALUE',
'Maximum model space distance between geometric entities at asserted c
onnectivities');
#1717=UNCERTAINTY_MEASURE_WITH_UNIT(LENGTH_MEASURE(0.01),#1720,
'DISTANCE_ACCURACY_VALUE',
'Maximum model space distance between geometric entities at asserted c
onnectivities');
#1718=(
GEOMETRIC_REPRESENTATION_CONTEXT(3)
GLOBAL_UNCERTAINTY_ASSIGNED_CONTEXT((#1716))
GLOBAL_UNIT_ASSIGNED_CONTEXT((#1720,#1722,#1723))
REPRESENTATION_CONTEXT('','3D')
);
#1719=(
GEOMETRIC_REPRESENTATION_CONTEXT(3)
GLOBAL_UNCERTAINTY_ASSIGNED_CONTEXT((#1717))
GLOBAL_UNIT_ASSIGNED_CONTEXT((#1720,#1722,#1723))
REPRESENTATION_CONTEXT('','3D')
);
#1720=(
LENGTH_UNIT()
NAMED_UNIT(*)
SI_UNIT(.MILLI.,.METRE.)
);
#1721=(
LENGTH_UNIT()
NAMED_UNIT(*)
SI_UNIT($,.METRE.)
);
#1722=(
NAMED_UNIT(*)
PLANE_ANGLE_UNIT()
SI_UNIT($,.RADIAN.)
);
#1723=(
NAMED_UNIT(*)
SI_UNIT($,.STERADIAN.)
SOLID_ANGLE_UNIT()
);
#1724=SHAPE_DEFINITION_REPRESENTATION(#1725,#1726);
#1725=PRODUCT_DEFINITION_SHAPE('',$,#1728);
#1726=SHAPE_REPRESENTATION('',(#1040),#1718);
#1727=PRODUCT_DEFINITION_CONTEXT('part definition',#1732,'design');
#1728=PRODUCT_DEFINITION('EMOCD_Interface_ESPA_Gen3',
'EMOCD_Interface_ESPA_Gen3 v1',#1729,#1727);
#1729=PRODUCT_DEFINITION_FORMATION('',$,#1734);
#1730=PRODUCT_RELATED_PRODUCT_CATEGORY('EMOCD_Interface_ESPA_Gen3 v1',
'EMOCD_Interface_ESPA_Gen3 v1',(#1734));
#1731=APPLICATION_PROTOCOL_DEFINITION('international standard',
'automotive_design',2009,#1732);
#1732=APPLICATION_CONTEXT(
'Core Data for Automotive Mechanical Design Process');
#1733=PRODUCT_CONTEXT('part definition',#1732,'mechanical');
#1734=PRODUCT('EMOCD_Interface_ESPA_Gen3',
'EMOCD_Interface_ESPA_Gen3 v1',$,(#1733));
#1735=PRESENTATION_STYLE_ASSIGNMENT((#1738));
#1736=PRESENTATION_STYLE_ASSIGNMENT((#1739));
#1737=PRESENTATION_STYLE_ASSIGNMENT((#1740));
#1738=SURFACE_STYLE_USAGE(.BOTH.,#1741);
#1739=SURFACE_STYLE_USAGE(.BOTH.,#1742);
#1740=SURFACE_STYLE_USAGE(.BOTH.,#1743);
#1741=SURFACE_SIDE_STYLE('',(#1744));
#1742=SURFACE_SIDE_STYLE('',(#1745));
#1743=SURFACE_SIDE_STYLE('',(#1746));
#1744=SURFACE_STYLE_FILL_AREA(#1747);
#1745=SURFACE_STYLE_FILL_AREA(#1748);
#1746=SURFACE_STYLE_FILL_AREA(#1749);
#1747=FILL_AREA_STYLE('Steel - Satin',(#1750));
#1748=FILL_AREA_STYLE('Aluminum - Satin',(#1751));
#1749=FILL_AREA_STYLE('Aluminum - Polished',(#1752));
#1750=FILL_AREA_STYLE_COLOUR('Steel - Satin',#1753);
#1751=FILL_AREA_STYLE_COLOUR('Aluminum - Satin',#1754);
#1752=FILL_AREA_STYLE_COLOUR('Aluminum - Polished',#1755);
#1753=COLOUR_RGB('Steel - Satin',0.627450980392157,0.627450980392157,0.627450980392157);
#1754=COLOUR_RGB('Aluminum - Satin',0.96078431372549,0.96078431372549,0.964705882352941);
#1755=COLOUR_RGB('Aluminum - Polished',0.96078431372549,0.96078431372549,
0.964705882352941);
ENDSEC;
END-ISO-10303-21;
