ISO-10303-21;
HEADER;
/* Generated by software containing ST-Developer
 * from STEP Tools, Inc. (www.steptools.com) 
 */

FILE_DESCRIPTION(
/* description */ (''),
/* implementation_level */ '2;1');

FILE_NAME(
/* name */ 'EMOCD_Enclosure_Gen2.step',
/* time_stamp */ '2026-07-28T19:15:15+05:30',
/* author */ (''),
/* organization */ (''),
/* preprocessor_version */ 'ST-DEVELOPER v20.1',
/* originating_system */ 'Autodesk Translation Framework v15.8.0.0',
/* authorisation */ '');

FILE_SCHEMA (('AUTOMOTIVE_DESIGN { 1 0 10303 214 3 1 1 }'));
ENDSEC;

DATA;
#10=MECHANICAL_DESIGN_GEOMETRIC_PRESENTATION_REPRESENTATION('',(#17,#18,
#19,#20,#21,#22,#23,#24,#25,#26,#27),#1965);
#11=SHAPE_REPRESENTATION_RELATIONSHIP('SRR','None',#1972,#12);
#12=ADVANCED_BREP_SHAPE_REPRESENTATION('',(#28,#29,#30,#31,#32,#33,#34,
#35,#36,#37,#38),#1964);
#13=FACE_BOUND('',#140,.T.);
#14=FACE_BOUND('',#142,.T.);
#15=FACE_BOUND('',#158,.T.);
#16=FACE_BOUND('',#160,.T.);
#17=STYLED_ITEM('',(#1982),#28);
#18=STYLED_ITEM('',(#1982),#29);
#19=STYLED_ITEM('',(#1982),#30);
#20=STYLED_ITEM('',(#1982),#31);
#21=STYLED_ITEM('',(#1982),#32);
#22=STYLED_ITEM('',(#1982),#33);
#23=STYLED_ITEM('',(#1982),#34);
#24=STYLED_ITEM('',(#1982),#35);
#25=STYLED_ITEM('',(#1982),#36);
#26=STYLED_ITEM('',(#1982),#37);
#27=STYLED_ITEM('',(#1982),#38);
#28=MANIFOLD_SOLID_BREP('skin_side_P',#1223);
#29=MANIFOLD_SOLID_BREP('skin_side_S',#1224);
#30=MANIFOLD_SOLID_BREP('skin_top',#1225);
#31=MANIFOLD_SOLID_BREP('skin_bottom',#1226);
#32=MANIFOLD_SOLID_BREP('skin_aft',#1227);
#33=MANIFOLD_SOLID_BREP('skin_fwd_muzzle',#1228);
#34=MANIFOLD_SOLID_BREP('radiator_panel',#1229);
#35=MANIFOLD_SOLID_BREP('supercap_bank_96V_6F',#1230);
#36=MANIFOLD_SOLID_BREP('ppu_sic_inverter',#1231);
#37=MANIFOLD_SOLID_BREP('avionics_sequencer',#1232);
#38=MANIFOLD_SOLID_BREP('imu_unit',#1233);
#39=FACE_OUTER_BOUND('',#113,.T.);
#40=FACE_OUTER_BOUND('',#114,.T.);
#41=FACE_OUTER_BOUND('',#115,.T.);
#42=FACE_OUTER_BOUND('',#116,.T.);
#43=FACE_OUTER_BOUND('',#117,.T.);
#44=FACE_OUTER_BOUND('',#118,.T.);
#45=FACE_OUTER_BOUND('',#119,.T.);
#46=FACE_OUTER_BOUND('',#120,.T.);
#47=FACE_OUTER_BOUND('',#121,.T.);
#48=FACE_OUTER_BOUND('',#122,.T.);
#49=FACE_OUTER_BOUND('',#123,.T.);
#50=FACE_OUTER_BOUND('',#124,.T.);
#51=FACE_OUTER_BOUND('',#125,.T.);
#52=FACE_OUTER_BOUND('',#126,.T.);
#53=FACE_OUTER_BOUND('',#127,.T.);
#54=FACE_OUTER_BOUND('',#128,.T.);
#55=FACE_OUTER_BOUND('',#129,.T.);
#56=FACE_OUTER_BOUND('',#130,.T.);
#57=FACE_OUTER_BOUND('',#131,.T.);
#58=FACE_OUTER_BOUND('',#132,.T.);
#59=FACE_OUTER_BOUND('',#133,.T.);
#60=FACE_OUTER_BOUND('',#134,.T.);
#61=FACE_OUTER_BOUND('',#135,.T.);
#62=FACE_OUTER_BOUND('',#136,.T.);
#63=FACE_OUTER_BOUND('',#137,.T.);
#64=FACE_OUTER_BOUND('',#138,.T.);
#65=FACE_OUTER_BOUND('',#139,.T.);
#66=FACE_OUTER_BOUND('',#141,.T.);
#67=FACE_OUTER_BOUND('',#143,.T.);
#68=FACE_OUTER_BOUND('',#144,.T.);
#69=FACE_OUTER_BOUND('',#145,.T.);
#70=FACE_OUTER_BOUND('',#146,.T.);
#71=FACE_OUTER_BOUND('',#147,.T.);
#72=FACE_OUTER_BOUND('',#148,.T.);
#73=FACE_OUTER_BOUND('',#149,.T.);
#74=FACE_OUTER_BOUND('',#150,.T.);
#75=FACE_OUTER_BOUND('',#151,.T.);
#76=FACE_OUTER_BOUND('',#152,.T.);
#77=FACE_OUTER_BOUND('',#153,.T.);
#78=FACE_OUTER_BOUND('',#154,.T.);
#79=FACE_OUTER_BOUND('',#155,.T.);
#80=FACE_OUTER_BOUND('',#156,.T.);
#81=FACE_OUTER_BOUND('',#157,.T.);
#82=FACE_OUTER_BOUND('',#159,.T.);
#83=FACE_OUTER_BOUND('',#161,.T.);
#84=FACE_OUTER_BOUND('',#162,.T.);
#85=FACE_OUTER_BOUND('',#163,.T.);
#86=FACE_OUTER_BOUND('',#164,.T.);
#87=FACE_OUTER_BOUND('',#165,.T.);
#88=FACE_OUTER_BOUND('',#166,.T.);
#89=FACE_OUTER_BOUND('',#167,.T.);
#90=FACE_OUTER_BOUND('',#168,.T.);
#91=FACE_OUTER_BOUND('',#169,.T.);
#92=FACE_OUTER_BOUND('',#170,.T.);
#93=FACE_OUTER_BOUND('',#171,.T.);
#94=FACE_OUTER_BOUND('',#172,.T.);
#95=FACE_OUTER_BOUND('',#173,.T.);
#96=FACE_OUTER_BOUND('',#174,.T.);
#97=FACE_OUTER_BOUND('',#175,.T.);
#98=FACE_OUTER_BOUND('',#176,.T.);
#99=FACE_OUTER_BOUND('',#177,.T.);
#100=FACE_OUTER_BOUND('',#178,.T.);
#101=FACE_OUTER_BOUND('',#179,.T.);
#102=FACE_OUTER_BOUND('',#180,.T.);
#103=FACE_OUTER_BOUND('',#181,.T.);
#104=FACE_OUTER_BOUND('',#182,.T.);
#105=FACE_OUTER_BOUND('',#183,.T.);
#106=FACE_OUTER_BOUND('',#184,.T.);
#107=FACE_OUTER_BOUND('',#185,.T.);
#108=FACE_OUTER_BOUND('',#186,.T.);
#109=FACE_OUTER_BOUND('',#187,.T.);
#110=FACE_OUTER_BOUND('',#188,.T.);
#111=FACE_OUTER_BOUND('',#189,.T.);
#112=FACE_OUTER_BOUND('',#190,.T.);
#113=EDGE_LOOP('',(#763,#764,#765,#766));
#114=EDGE_LOOP('',(#767,#768,#769,#770));
#115=EDGE_LOOP('',(#771,#772,#773,#774));
#116=EDGE_LOOP('',(#775,#776,#777,#778));
#117=EDGE_LOOP('',(#779,#780,#781,#782));
#118=EDGE_LOOP('',(#783,#784,#785,#786));
#119=EDGE_LOOP('',(#787,#788,#789,#790));
#120=EDGE_LOOP('',(#791,#792,#793,#794));
#121=EDGE_LOOP('',(#795,#796,#797,#798));
#122=EDGE_LOOP('',(#799,#800,#801,#802));
#123=EDGE_LOOP('',(#803,#804,#805,#806));
#124=EDGE_LOOP('',(#807,#808,#809,#810));
#125=EDGE_LOOP('',(#811,#812,#813,#814));
#126=EDGE_LOOP('',(#815,#816,#817,#818));
#127=EDGE_LOOP('',(#819,#820,#821,#822));
#128=EDGE_LOOP('',(#823,#824,#825,#826));
#129=EDGE_LOOP('',(#827,#828,#829,#830));
#130=EDGE_LOOP('',(#831,#832,#833,#834));
#131=EDGE_LOOP('',(#835,#836,#837,#838));
#132=EDGE_LOOP('',(#839,#840,#841,#842));
#133=EDGE_LOOP('',(#843,#844,#845,#846));
#134=EDGE_LOOP('',(#847,#848,#849,#850));
#135=EDGE_LOOP('',(#851,#852,#853,#854));
#136=EDGE_LOOP('',(#855,#856,#857,#858));
#137=EDGE_LOOP('',(#859,#860,#861,#862));
#138=EDGE_LOOP('',(#863,#864,#865,#866));
#139=EDGE_LOOP('',(#867,#868,#869,#870));
#140=EDGE_LOOP('',(#871,#872,#873,#874));
#141=EDGE_LOOP('',(#875,#876,#877,#878));
#142=EDGE_LOOP('',(#879,#880,#881,#882));
#143=EDGE_LOOP('',(#883,#884,#885,#886));
#144=EDGE_LOOP('',(#887,#888,#889,#890));
#145=EDGE_LOOP('',(#891,#892,#893,#894));
#146=EDGE_LOOP('',(#895,#896,#897,#898));
#147=EDGE_LOOP('',(#899,#900,#901,#902));
#148=EDGE_LOOP('',(#903,#904,#905,#906));
#149=EDGE_LOOP('',(#907,#908,#909,#910));
#150=EDGE_LOOP('',(#911,#912,#913,#914));
#151=EDGE_LOOP('',(#915,#916,#917,#918));
#152=EDGE_LOOP('',(#919,#920,#921,#922));
#153=EDGE_LOOP('',(#923,#924,#925,#926));
#154=EDGE_LOOP('',(#927,#928,#929,#930));
#155=EDGE_LOOP('',(#931,#932,#933,#934));
#156=EDGE_LOOP('',(#935,#936,#937,#938));
#157=EDGE_LOOP('',(#939,#940,#941,#942));
#158=EDGE_LOOP('',(#943,#944,#945,#946));
#159=EDGE_LOOP('',(#947,#948,#949,#950));
#160=EDGE_LOOP('',(#951,#952,#953,#954));
#161=EDGE_LOOP('',(#955,#956,#957,#958));
#162=EDGE_LOOP('',(#959,#960,#961,#962));
#163=EDGE_LOOP('',(#963,#964,#965,#966));
#164=EDGE_LOOP('',(#967,#968,#969,#970));
#165=EDGE_LOOP('',(#971,#972,#973,#974));
#166=EDGE_LOOP('',(#975,#976,#977,#978));
#167=EDGE_LOOP('',(#979,#980,#981,#982));
#168=EDGE_LOOP('',(#983,#984,#985,#986));
#169=EDGE_LOOP('',(#987,#988,#989,#990));
#170=EDGE_LOOP('',(#991,#992,#993,#994));
#171=EDGE_LOOP('',(#995,#996,#997,#998));
#172=EDGE_LOOP('',(#999,#1000,#1001,#1002));
#173=EDGE_LOOP('',(#1003,#1004,#1005,#1006));
#174=EDGE_LOOP('',(#1007,#1008,#1009,#1010));
#175=EDGE_LOOP('',(#1011,#1012,#1013,#1014));
#176=EDGE_LOOP('',(#1015,#1016,#1017,#1018));
#177=EDGE_LOOP('',(#1019,#1020,#1021,#1022));
#178=EDGE_LOOP('',(#1023,#1024,#1025,#1026));
#179=EDGE_LOOP('',(#1027,#1028,#1029,#1030));
#180=EDGE_LOOP('',(#1031,#1032,#1033,#1034));
#181=EDGE_LOOP('',(#1035,#1036,#1037,#1038));
#182=EDGE_LOOP('',(#1039,#1040,#1041,#1042));
#183=EDGE_LOOP('',(#1043,#1044,#1045,#1046));
#184=EDGE_LOOP('',(#1047,#1048,#1049,#1050));
#185=EDGE_LOOP('',(#1051,#1052,#1053,#1054));
#186=EDGE_LOOP('',(#1055,#1056,#1057,#1058));
#187=EDGE_LOOP('',(#1059,#1060,#1061,#1062));
#188=EDGE_LOOP('',(#1063,#1064,#1065,#1066));
#189=EDGE_LOOP('',(#1067,#1068,#1069,#1070));
#190=EDGE_LOOP('',(#1071,#1072,#1073,#1074));
#191=LINE('',#1631,#347);
#192=LINE('',#1633,#348);
#193=LINE('',#1635,#349);
#194=LINE('',#1636,#350);
#195=LINE('',#1639,#351);
#196=LINE('',#1641,#352);
#197=LINE('',#1642,#353);
#198=LINE('',#1645,#354);
#199=LINE('',#1647,#355);
#200=LINE('',#1648,#356);
#201=LINE('',#1650,#357);
#202=LINE('',#1651,#358);
#203=LINE('',#1657,#359);
#204=LINE('',#1659,#360);
#205=LINE('',#1661,#361);
#206=LINE('',#1662,#362);
#207=LINE('',#1665,#363);
#208=LINE('',#1667,#364);
#209=LINE('',#1668,#365);
#210=LINE('',#1671,#366);
#211=LINE('',#1673,#367);
#212=LINE('',#1674,#368);
#213=LINE('',#1676,#369);
#214=LINE('',#1677,#370);
#215=LINE('',#1683,#371);
#216=LINE('',#1685,#372);
#217=LINE('',#1687,#373);
#218=LINE('',#1688,#374);
#219=LINE('',#1691,#375);
#220=LINE('',#1693,#376);
#221=LINE('',#1694,#377);
#222=LINE('',#1697,#378);
#223=LINE('',#1699,#379);
#224=LINE('',#1700,#380);
#225=LINE('',#1702,#381);
#226=LINE('',#1703,#382);
#227=LINE('',#1709,#383);
#228=LINE('',#1711,#384);
#229=LINE('',#1713,#385);
#230=LINE('',#1714,#386);
#231=LINE('',#1717,#387);
#232=LINE('',#1719,#388);
#233=LINE('',#1720,#389);
#234=LINE('',#1723,#390);
#235=LINE('',#1725,#391);
#236=LINE('',#1726,#392);
#237=LINE('',#1728,#393);
#238=LINE('',#1729,#394);
#239=LINE('',#1733,#395);
#240=LINE('',#1735,#396);
#241=LINE('',#1737,#397);
#242=LINE('',#1738,#398);
#243=LINE('',#1741,#399);
#244=LINE('',#1743,#400);
#245=LINE('',#1744,#401);
#246=LINE('',#1747,#402);
#247=LINE('',#1749,#403);
#248=LINE('',#1750,#404);
#249=LINE('',#1752,#405);
#250=LINE('',#1753,#406);
#251=LINE('',#1759,#407);
#252=LINE('',#1761,#408);
#253=LINE('',#1763,#409);
#254=LINE('',#1764,#410);
#255=LINE('',#1767,#411);
#256=LINE('',#1769,#412);
#257=LINE('',#1770,#413);
#258=LINE('',#1773,#414);
#259=LINE('',#1775,#415);
#260=LINE('',#1776,#416);
#261=LINE('',#1778,#417);
#262=LINE('',#1779,#418);
#263=LINE('',#1785,#419);
#264=LINE('',#1787,#420);
#265=LINE('',#1789,#421);
#266=LINE('',#1790,#422);
#267=LINE('',#1793,#423);
#268=LINE('',#1795,#424);
#269=LINE('',#1796,#425);
#270=LINE('',#1799,#426);
#271=LINE('',#1801,#427);
#272=LINE('',#1802,#428);
#273=LINE('',#1804,#429);
#274=LINE('',#1805,#430);
#275=LINE('',#1809,#431);
#276=LINE('',#1811,#432);
#277=LINE('',#1813,#433);
#278=LINE('',#1814,#434);
#279=LINE('',#1817,#435);
#280=LINE('',#1819,#436);
#281=LINE('',#1820,#437);
#282=LINE('',#1823,#438);
#283=LINE('',#1825,#439);
#284=LINE('',#1826,#440);
#285=LINE('',#1828,#441);
#286=LINE('',#1829,#442);
#287=LINE('',#1835,#443);
#288=LINE('',#1837,#444);
#289=LINE('',#1839,#445);
#290=LINE('',#1840,#446);
#291=LINE('',#1843,#447);
#292=LINE('',#1845,#448);
#293=LINE('',#1846,#449);
#294=LINE('',#1849,#450);
#295=LINE('',#1851,#451);
#296=LINE('',#1852,#452);
#297=LINE('',#1854,#453);
#298=LINE('',#1855,#454);
#299=LINE('',#1861,#455);
#300=LINE('',#1863,#456);
#301=LINE('',#1865,#457);
#302=LINE('',#1866,#458);
#303=LINE('',#1869,#459);
#304=LINE('',#1871,#460);
#305=LINE('',#1872,#461);
#306=LINE('',#1875,#462);
#307=LINE('',#1877,#463);
#308=LINE('',#1878,#464);
#309=LINE('',#1880,#465);
#310=LINE('',#1881,#466);
#311=LINE('',#1887,#467);
#312=LINE('',#1889,#468);
#313=LINE('',#1891,#469);
#314=LINE('',#1892,#470);
#315=LINE('',#1895,#471);
#316=LINE('',#1897,#472);
#317=LINE('',#1898,#473);
#318=LINE('',#1901,#474);
#319=LINE('',#1903,#475);
#320=LINE('',#1904,#476);
#321=LINE('',#1906,#477);
#322=LINE('',#1907,#478);
#323=LINE('',#1913,#479);
#324=LINE('',#1915,#480);
#325=LINE('',#1917,#481);
#326=LINE('',#1918,#482);
#327=LINE('',#1921,#483);
#328=LINE('',#1923,#484);
#329=LINE('',#1924,#485);
#330=LINE('',#1927,#486);
#331=LINE('',#1929,#487);
#332=LINE('',#1930,#488);
#333=LINE('',#1932,#489);
#334=LINE('',#1933,#490);
#335=LINE('',#1939,#491);
#336=LINE('',#1941,#492);
#337=LINE('',#1943,#493);
#338=LINE('',#1944,#494);
#339=LINE('',#1947,#495);
#340=LINE('',#1949,#496);
#341=LINE('',#1950,#497);
#342=LINE('',#1953,#498);
#343=LINE('',#1955,#499);
#344=LINE('',#1956,#500);
#345=LINE('',#1958,#501);
#346=LINE('',#1959,#502);
#347=VECTOR('',#1325,10.);
#348=VECTOR('',#1326,10.);
#349=VECTOR('',#1327,10.);
#350=VECTOR('',#1328,10.);
#351=VECTOR('',#1331,10.);
#352=VECTOR('',#1332,10.);
#353=VECTOR('',#1333,10.);
#354=VECTOR('',#1336,10.);
#355=VECTOR('',#1337,10.);
#356=VECTOR('',#1338,10.);
#357=VECTOR('',#1341,10.);
#358=VECTOR('',#1342,10.);
#359=VECTOR('',#1349,10.);
#360=VECTOR('',#1350,10.);
#361=VECTOR('',#1351,10.);
#362=VECTOR('',#1352,10.);
#363=VECTOR('',#1355,10.);
#364=VECTOR('',#1356,10.);
#365=VECTOR('',#1357,10.);
#366=VECTOR('',#1360,10.);
#367=VECTOR('',#1361,10.);
#368=VECTOR('',#1362,10.);
#369=VECTOR('',#1365,10.);
#370=VECTOR('',#1366,10.);
#371=VECTOR('',#1373,10.);
#372=VECTOR('',#1374,10.);
#373=VECTOR('',#1375,10.);
#374=VECTOR('',#1376,10.);
#375=VECTOR('',#1379,10.);
#376=VECTOR('',#1380,10.);
#377=VECTOR('',#1381,10.);
#378=VECTOR('',#1384,10.);
#379=VECTOR('',#1385,10.);
#380=VECTOR('',#1386,10.);
#381=VECTOR('',#1389,10.);
#382=VECTOR('',#1390,10.);
#383=VECTOR('',#1397,10.);
#384=VECTOR('',#1398,10.);
#385=VECTOR('',#1399,10.);
#386=VECTOR('',#1400,10.);
#387=VECTOR('',#1403,10.);
#388=VECTOR('',#1404,10.);
#389=VECTOR('',#1405,10.);
#390=VECTOR('',#1408,10.);
#391=VECTOR('',#1409,10.);
#392=VECTOR('',#1410,10.);
#393=VECTOR('',#1413,10.);
#394=VECTOR('',#1414,10.);
#395=VECTOR('',#1417,10.);
#396=VECTOR('',#1418,10.);
#397=VECTOR('',#1419,10.);
#398=VECTOR('',#1420,10.);
#399=VECTOR('',#1423,10.);
#400=VECTOR('',#1424,10.);
#401=VECTOR('',#1425,10.);
#402=VECTOR('',#1428,10.);
#403=VECTOR('',#1429,10.);
#404=VECTOR('',#1430,10.);
#405=VECTOR('',#1433,10.);
#406=VECTOR('',#1434,10.);
#407=VECTOR('',#1441,10.);
#408=VECTOR('',#1442,10.);
#409=VECTOR('',#1443,10.);
#410=VECTOR('',#1444,10.);
#411=VECTOR('',#1447,10.);
#412=VECTOR('',#1448,10.);
#413=VECTOR('',#1449,10.);
#414=VECTOR('',#1452,10.);
#415=VECTOR('',#1453,10.);
#416=VECTOR('',#1454,10.);
#417=VECTOR('',#1457,10.);
#418=VECTOR('',#1458,10.);
#419=VECTOR('',#1465,10.);
#420=VECTOR('',#1466,10.);
#421=VECTOR('',#1467,10.);
#422=VECTOR('',#1468,10.);
#423=VECTOR('',#1471,10.);
#424=VECTOR('',#1472,10.);
#425=VECTOR('',#1473,10.);
#426=VECTOR('',#1476,10.);
#427=VECTOR('',#1477,10.);
#428=VECTOR('',#1478,10.);
#429=VECTOR('',#1481,10.);
#430=VECTOR('',#1482,10.);
#431=VECTOR('',#1485,10.);
#432=VECTOR('',#1486,10.);
#433=VECTOR('',#1487,10.);
#434=VECTOR('',#1488,10.);
#435=VECTOR('',#1491,10.);
#436=VECTOR('',#1492,10.);
#437=VECTOR('',#1493,10.);
#438=VECTOR('',#1496,10.);
#439=VECTOR('',#1497,10.);
#440=VECTOR('',#1498,10.);
#441=VECTOR('',#1501,10.);
#442=VECTOR('',#1502,10.);
#443=VECTOR('',#1509,10.);
#444=VECTOR('',#1510,10.);
#445=VECTOR('',#1511,10.);
#446=VECTOR('',#1512,10.);
#447=VECTOR('',#1515,10.);
#448=VECTOR('',#1516,10.);
#449=VECTOR('',#1517,10.);
#450=VECTOR('',#1520,10.);
#451=VECTOR('',#1521,10.);
#452=VECTOR('',#1522,10.);
#453=VECTOR('',#1525,10.);
#454=VECTOR('',#1526,10.);
#455=VECTOR('',#1533,10.);
#456=VECTOR('',#1534,10.);
#457=VECTOR('',#1535,10.);
#458=VECTOR('',#1536,10.);
#459=VECTOR('',#1539,10.);
#460=VECTOR('',#1540,10.);
#461=VECTOR('',#1541,10.);
#462=VECTOR('',#1544,10.);
#463=VECTOR('',#1545,10.);
#464=VECTOR('',#1546,10.);
#465=VECTOR('',#1549,10.);
#466=VECTOR('',#1550,10.);
#467=VECTOR('',#1557,10.);
#468=VECTOR('',#1558,10.);
#469=VECTOR('',#1559,10.);
#470=VECTOR('',#1560,10.);
#471=VECTOR('',#1563,10.);
#472=VECTOR('',#1564,10.);
#473=VECTOR('',#1565,10.);
#474=VECTOR('',#1568,10.);
#475=VECTOR('',#1569,10.);
#476=VECTOR('',#1570,10.);
#477=VECTOR('',#1573,10.);
#478=VECTOR('',#1574,10.);
#479=VECTOR('',#1581,10.);
#480=VECTOR('',#1582,10.);
#481=VECTOR('',#1583,10.);
#482=VECTOR('',#1584,10.);
#483=VECTOR('',#1587,10.);
#484=VECTOR('',#1588,10.);
#485=VECTOR('',#1589,10.);
#486=VECTOR('',#1592,10.);
#487=VECTOR('',#1593,10.);
#488=VECTOR('',#1594,10.);
#489=VECTOR('',#1597,10.);
#490=VECTOR('',#1598,10.);
#491=VECTOR('',#1605,10.);
#492=VECTOR('',#1606,10.);
#493=VECTOR('',#1607,10.);
#494=VECTOR('',#1608,10.);
#495=VECTOR('',#1611,10.);
#496=VECTOR('',#1612,10.);
#497=VECTOR('',#1613,10.);
#498=VECTOR('',#1616,10.);
#499=VECTOR('',#1617,10.);
#500=VECTOR('',#1618,10.);
#501=VECTOR('',#1621,10.);
#502=VECTOR('',#1622,10.);
#503=VERTEX_POINT('',#1629);
#504=VERTEX_POINT('',#1630);
#505=VERTEX_POINT('',#1632);
#506=VERTEX_POINT('',#1634);
#507=VERTEX_POINT('',#1638);
#508=VERTEX_POINT('',#1640);
#509=VERTEX_POINT('',#1644);
#510=VERTEX_POINT('',#1646);
#511=VERTEX_POINT('',#1655);
#512=VERTEX_POINT('',#1656);
#513=VERTEX_POINT('',#1658);
#514=VERTEX_POINT('',#1660);
#515=VERTEX_POINT('',#1664);
#516=VERTEX_POINT('',#1666);
#517=VERTEX_POINT('',#1670);
#518=VERTEX_POINT('',#1672);
#519=VERTEX_POINT('',#1681);
#520=VERTEX_POINT('',#1682);
#521=VERTEX_POINT('',#1684);
#522=VERTEX_POINT('',#1686);
#523=VERTEX_POINT('',#1690);
#524=VERTEX_POINT('',#1692);
#525=VERTEX_POINT('',#1696);
#526=VERTEX_POINT('',#1698);
#527=VERTEX_POINT('',#1707);
#528=VERTEX_POINT('',#1708);
#529=VERTEX_POINT('',#1710);
#530=VERTEX_POINT('',#1712);
#531=VERTEX_POINT('',#1716);
#532=VERTEX_POINT('',#1718);
#533=VERTEX_POINT('',#1722);
#534=VERTEX_POINT('',#1724);
#535=VERTEX_POINT('',#1731);
#536=VERTEX_POINT('',#1732);
#537=VERTEX_POINT('',#1734);
#538=VERTEX_POINT('',#1736);
#539=VERTEX_POINT('',#1740);
#540=VERTEX_POINT('',#1742);
#541=VERTEX_POINT('',#1746);
#542=VERTEX_POINT('',#1748);
#543=VERTEX_POINT('',#1757);
#544=VERTEX_POINT('',#1758);
#545=VERTEX_POINT('',#1760);
#546=VERTEX_POINT('',#1762);
#547=VERTEX_POINT('',#1766);
#548=VERTEX_POINT('',#1768);
#549=VERTEX_POINT('',#1772);
#550=VERTEX_POINT('',#1774);
#551=VERTEX_POINT('',#1783);
#552=VERTEX_POINT('',#1784);
#553=VERTEX_POINT('',#1786);
#554=VERTEX_POINT('',#1788);
#555=VERTEX_POINT('',#1792);
#556=VERTEX_POINT('',#1794);
#557=VERTEX_POINT('',#1798);
#558=VERTEX_POINT('',#1800);
#559=VERTEX_POINT('',#1807);
#560=VERTEX_POINT('',#1808);
#561=VERTEX_POINT('',#1810);
#562=VERTEX_POINT('',#1812);
#563=VERTEX_POINT('',#1816);
#564=VERTEX_POINT('',#1818);
#565=VERTEX_POINT('',#1822);
#566=VERTEX_POINT('',#1824);
#567=VERTEX_POINT('',#1833);
#568=VERTEX_POINT('',#1834);
#569=VERTEX_POINT('',#1836);
#570=VERTEX_POINT('',#1838);
#571=VERTEX_POINT('',#1842);
#572=VERTEX_POINT('',#1844);
#573=VERTEX_POINT('',#1848);
#574=VERTEX_POINT('',#1850);
#575=VERTEX_POINT('',#1859);
#576=VERTEX_POINT('',#1860);
#577=VERTEX_POINT('',#1862);
#578=VERTEX_POINT('',#1864);
#579=VERTEX_POINT('',#1868);
#580=VERTEX_POINT('',#1870);
#581=VERTEX_POINT('',#1874);
#582=VERTEX_POINT('',#1876);
#583=VERTEX_POINT('',#1885);
#584=VERTEX_POINT('',#1886);
#585=VERTEX_POINT('',#1888);
#586=VERTEX_POINT('',#1890);
#587=VERTEX_POINT('',#1894);
#588=VERTEX_POINT('',#1896);
#589=VERTEX_POINT('',#1900);
#590=VERTEX_POINT('',#1902);
#591=VERTEX_POINT('',#1911);
#592=VERTEX_POINT('',#1912);
#593=VERTEX_POINT('',#1914);
#594=VERTEX_POINT('',#1916);
#595=VERTEX_POINT('',#1920);
#596=VERTEX_POINT('',#1922);
#597=VERTEX_POINT('',#1926);
#598=VERTEX_POINT('',#1928);
#599=VERTEX_POINT('',#1937);
#600=VERTEX_POINT('',#1938);
#601=VERTEX_POINT('',#1940);
#602=VERTEX_POINT('',#1942);
#603=VERTEX_POINT('',#1946);
#604=VERTEX_POINT('',#1948);
#605=VERTEX_POINT('',#1952);
#606=VERTEX_POINT('',#1954);
#607=EDGE_CURVE('',#503,#504,#191,.T.);
#608=EDGE_CURVE('',#504,#505,#192,.T.);
#609=EDGE_CURVE('',#506,#505,#193,.T.);
#610=EDGE_CURVE('',#503,#506,#194,.T.);
#611=EDGE_CURVE('',#507,#503,#195,.T.);
#612=EDGE_CURVE('',#508,#506,#196,.T.);
#613=EDGE_CURVE('',#507,#508,#197,.T.);
#614=EDGE_CURVE('',#509,#507,#198,.T.);
#615=EDGE_CURVE('',#510,#508,#199,.T.);
#616=EDGE_CURVE('',#509,#510,#200,.T.);
#617=EDGE_CURVE('',#504,#509,#201,.T.);
#618=EDGE_CURVE('',#505,#510,#202,.T.);
#619=EDGE_CURVE('',#511,#512,#203,.T.);
#620=EDGE_CURVE('',#512,#513,#204,.T.);
#621=EDGE_CURVE('',#514,#513,#205,.T.);
#622=EDGE_CURVE('',#511,#514,#206,.T.);
#623=EDGE_CURVE('',#515,#511,#207,.T.);
#624=EDGE_CURVE('',#516,#514,#208,.T.);
#625=EDGE_CURVE('',#515,#516,#209,.T.);
#626=EDGE_CURVE('',#517,#515,#210,.T.);
#627=EDGE_CURVE('',#518,#516,#211,.T.);
#628=EDGE_CURVE('',#517,#518,#212,.T.);
#629=EDGE_CURVE('',#512,#517,#213,.T.);
#630=EDGE_CURVE('',#513,#518,#214,.T.);
#631=EDGE_CURVE('',#519,#520,#215,.T.);
#632=EDGE_CURVE('',#520,#521,#216,.T.);
#633=EDGE_CURVE('',#522,#521,#217,.T.);
#634=EDGE_CURVE('',#519,#522,#218,.T.);
#635=EDGE_CURVE('',#523,#519,#219,.T.);
#636=EDGE_CURVE('',#524,#522,#220,.T.);
#637=EDGE_CURVE('',#523,#524,#221,.T.);
#638=EDGE_CURVE('',#525,#523,#222,.T.);
#639=EDGE_CURVE('',#526,#524,#223,.T.);
#640=EDGE_CURVE('',#525,#526,#224,.T.);
#641=EDGE_CURVE('',#520,#525,#225,.T.);
#642=EDGE_CURVE('',#521,#526,#226,.T.);
#643=EDGE_CURVE('',#527,#528,#227,.T.);
#644=EDGE_CURVE('',#529,#527,#228,.T.);
#645=EDGE_CURVE('',#530,#529,#229,.T.);
#646=EDGE_CURVE('',#530,#528,#230,.T.);
#647=EDGE_CURVE('',#528,#531,#231,.T.);
#648=EDGE_CURVE('',#532,#530,#232,.T.);
#649=EDGE_CURVE('',#532,#531,#233,.T.);
#650=EDGE_CURVE('',#531,#533,#234,.T.);
#651=EDGE_CURVE('',#534,#532,#235,.T.);
#652=EDGE_CURVE('',#534,#533,#236,.T.);
#653=EDGE_CURVE('',#533,#527,#237,.T.);
#654=EDGE_CURVE('',#529,#534,#238,.T.);
#655=EDGE_CURVE('',#535,#536,#239,.T.);
#656=EDGE_CURVE('',#536,#537,#240,.T.);
#657=EDGE_CURVE('',#538,#537,#241,.T.);
#658=EDGE_CURVE('',#535,#538,#242,.T.);
#659=EDGE_CURVE('',#539,#535,#243,.T.);
#660=EDGE_CURVE('',#540,#538,#244,.T.);
#661=EDGE_CURVE('',#539,#540,#245,.T.);
#662=EDGE_CURVE('',#541,#539,#246,.T.);
#663=EDGE_CURVE('',#542,#540,#247,.T.);
#664=EDGE_CURVE('',#541,#542,#248,.T.);
#665=EDGE_CURVE('',#536,#541,#249,.T.);
#666=EDGE_CURVE('',#537,#542,#250,.T.);
#667=EDGE_CURVE('',#543,#544,#251,.T.);
#668=EDGE_CURVE('',#544,#545,#252,.T.);
#669=EDGE_CURVE('',#546,#545,#253,.T.);
#670=EDGE_CURVE('',#543,#546,#254,.T.);
#671=EDGE_CURVE('',#547,#543,#255,.T.);
#672=EDGE_CURVE('',#548,#546,#256,.T.);
#673=EDGE_CURVE('',#547,#548,#257,.T.);
#674=EDGE_CURVE('',#549,#547,#258,.T.);
#675=EDGE_CURVE('',#550,#548,#259,.T.);
#676=EDGE_CURVE('',#549,#550,#260,.T.);
#677=EDGE_CURVE('',#544,#549,#261,.T.);
#678=EDGE_CURVE('',#545,#550,#262,.T.);
#679=EDGE_CURVE('',#551,#552,#263,.T.);
#680=EDGE_CURVE('',#553,#551,#264,.T.);
#681=EDGE_CURVE('',#554,#553,#265,.T.);
#682=EDGE_CURVE('',#554,#552,#266,.T.);
#683=EDGE_CURVE('',#552,#555,#267,.T.);
#684=EDGE_CURVE('',#556,#554,#268,.T.);
#685=EDGE_CURVE('',#556,#555,#269,.T.);
#686=EDGE_CURVE('',#555,#557,#270,.T.);
#687=EDGE_CURVE('',#558,#556,#271,.T.);
#688=EDGE_CURVE('',#558,#557,#272,.T.);
#689=EDGE_CURVE('',#557,#551,#273,.T.);
#690=EDGE_CURVE('',#553,#558,#274,.T.);
#691=EDGE_CURVE('',#559,#560,#275,.T.);
#692=EDGE_CURVE('',#560,#561,#276,.T.);
#693=EDGE_CURVE('',#562,#561,#277,.T.);
#694=EDGE_CURVE('',#559,#562,#278,.T.);
#695=EDGE_CURVE('',#563,#559,#279,.T.);
#696=EDGE_CURVE('',#564,#562,#280,.T.);
#697=EDGE_CURVE('',#563,#564,#281,.T.);
#698=EDGE_CURVE('',#565,#563,#282,.T.);
#699=EDGE_CURVE('',#566,#564,#283,.T.);
#700=EDGE_CURVE('',#565,#566,#284,.T.);
#701=EDGE_CURVE('',#560,#565,#285,.T.);
#702=EDGE_CURVE('',#561,#566,#286,.T.);
#703=EDGE_CURVE('',#567,#568,#287,.T.);
#704=EDGE_CURVE('',#568,#569,#288,.T.);
#705=EDGE_CURVE('',#570,#569,#289,.T.);
#706=EDGE_CURVE('',#567,#570,#290,.T.);
#707=EDGE_CURVE('',#571,#567,#291,.T.);
#708=EDGE_CURVE('',#572,#570,#292,.T.);
#709=EDGE_CURVE('',#571,#572,#293,.T.);
#710=EDGE_CURVE('',#573,#571,#294,.T.);
#711=EDGE_CURVE('',#574,#572,#295,.T.);
#712=EDGE_CURVE('',#573,#574,#296,.T.);
#713=EDGE_CURVE('',#568,#573,#297,.T.);
#714=EDGE_CURVE('',#569,#574,#298,.T.);
#715=EDGE_CURVE('',#575,#576,#299,.T.);
#716=EDGE_CURVE('',#576,#577,#300,.T.);
#717=EDGE_CURVE('',#578,#577,#301,.T.);
#718=EDGE_CURVE('',#575,#578,#302,.T.);
#719=EDGE_CURVE('',#579,#575,#303,.T.);
#720=EDGE_CURVE('',#580,#578,#304,.T.);
#721=EDGE_CURVE('',#579,#580,#305,.T.);
#722=EDGE_CURVE('',#581,#579,#306,.T.);
#723=EDGE_CURVE('',#582,#580,#307,.T.);
#724=EDGE_CURVE('',#581,#582,#308,.T.);
#725=EDGE_CURVE('',#576,#581,#309,.T.);
#726=EDGE_CURVE('',#577,#582,#310,.T.);
#727=EDGE_CURVE('',#583,#584,#311,.T.);
#728=EDGE_CURVE('',#584,#585,#312,.T.);
#729=EDGE_CURVE('',#586,#585,#313,.T.);
#730=EDGE_CURVE('',#583,#586,#314,.T.);
#731=EDGE_CURVE('',#587,#583,#315,.T.);
#732=EDGE_CURVE('',#588,#586,#316,.T.);
#733=EDGE_CURVE('',#587,#588,#317,.T.);
#734=EDGE_CURVE('',#589,#587,#318,.T.);
#735=EDGE_CURVE('',#590,#588,#319,.T.);
#736=EDGE_CURVE('',#589,#590,#320,.T.);
#737=EDGE_CURVE('',#584,#589,#321,.T.);
#738=EDGE_CURVE('',#585,#590,#322,.T.);
#739=EDGE_CURVE('',#591,#592,#323,.T.);
#740=EDGE_CURVE('',#592,#593,#324,.T.);
#741=EDGE_CURVE('',#594,#593,#325,.T.);
#742=EDGE_CURVE('',#591,#594,#326,.T.);
#743=EDGE_CURVE('',#595,#591,#327,.T.);
#744=EDGE_CURVE('',#596,#594,#328,.T.);
#745=EDGE_CURVE('',#595,#596,#329,.T.);
#746=EDGE_CURVE('',#597,#595,#330,.T.);
#747=EDGE_CURVE('',#598,#596,#331,.T.);
#748=EDGE_CURVE('',#597,#598,#332,.T.);
#749=EDGE_CURVE('',#592,#597,#333,.T.);
#750=EDGE_CURVE('',#593,#598,#334,.T.);
#751=EDGE_CURVE('',#599,#600,#335,.T.);
#752=EDGE_CURVE('',#600,#601,#336,.T.);
#753=EDGE_CURVE('',#602,#601,#337,.T.);
#754=EDGE_CURVE('',#599,#602,#338,.T.);
#755=EDGE_CURVE('',#603,#599,#339,.T.);
#756=EDGE_CURVE('',#604,#602,#340,.T.);
#757=EDGE_CURVE('',#603,#604,#341,.T.);
#758=EDGE_CURVE('',#605,#603,#342,.T.);
#759=EDGE_CURVE('',#606,#604,#343,.T.);
#760=EDGE_CURVE('',#605,#606,#344,.T.);
#761=EDGE_CURVE('',#600,#605,#345,.T.);
#762=EDGE_CURVE('',#601,#606,#346,.T.);
#763=ORIENTED_EDGE('',*,*,#607,.T.);
#764=ORIENTED_EDGE('',*,*,#608,.T.);
#765=ORIENTED_EDGE('',*,*,#609,.F.);
#766=ORIENTED_EDGE('',*,*,#610,.F.);
#767=ORIENTED_EDGE('',*,*,#611,.T.);
#768=ORIENTED_EDGE('',*,*,#610,.T.);
#769=ORIENTED_EDGE('',*,*,#612,.F.);
#770=ORIENTED_EDGE('',*,*,#613,.F.);
#771=ORIENTED_EDGE('',*,*,#614,.T.);
#772=ORIENTED_EDGE('',*,*,#613,.T.);
#773=ORIENTED_EDGE('',*,*,#615,.F.);
#774=ORIENTED_EDGE('',*,*,#616,.F.);
#775=ORIENTED_EDGE('',*,*,#617,.T.);
#776=ORIENTED_EDGE('',*,*,#616,.T.);
#777=ORIENTED_EDGE('',*,*,#618,.F.);
#778=ORIENTED_EDGE('',*,*,#608,.F.);
#779=ORIENTED_EDGE('',*,*,#618,.T.);
#780=ORIENTED_EDGE('',*,*,#615,.T.);
#781=ORIENTED_EDGE('',*,*,#612,.T.);
#782=ORIENTED_EDGE('',*,*,#609,.T.);
#783=ORIENTED_EDGE('',*,*,#617,.F.);
#784=ORIENTED_EDGE('',*,*,#607,.F.);
#785=ORIENTED_EDGE('',*,*,#611,.F.);
#786=ORIENTED_EDGE('',*,*,#614,.F.);
#787=ORIENTED_EDGE('',*,*,#619,.T.);
#788=ORIENTED_EDGE('',*,*,#620,.T.);
#789=ORIENTED_EDGE('',*,*,#621,.F.);
#790=ORIENTED_EDGE('',*,*,#622,.F.);
#791=ORIENTED_EDGE('',*,*,#623,.T.);
#792=ORIENTED_EDGE('',*,*,#622,.T.);
#793=ORIENTED_EDGE('',*,*,#624,.F.);
#794=ORIENTED_EDGE('',*,*,#625,.F.);
#795=ORIENTED_EDGE('',*,*,#626,.T.);
#796=ORIENTED_EDGE('',*,*,#625,.T.);
#797=ORIENTED_EDGE('',*,*,#627,.F.);
#798=ORIENTED_EDGE('',*,*,#628,.F.);
#799=ORIENTED_EDGE('',*,*,#629,.T.);
#800=ORIENTED_EDGE('',*,*,#628,.T.);
#801=ORIENTED_EDGE('',*,*,#630,.F.);
#802=ORIENTED_EDGE('',*,*,#620,.F.);
#803=ORIENTED_EDGE('',*,*,#630,.T.);
#804=ORIENTED_EDGE('',*,*,#627,.T.);
#805=ORIENTED_EDGE('',*,*,#624,.T.);
#806=ORIENTED_EDGE('',*,*,#621,.T.);
#807=ORIENTED_EDGE('',*,*,#629,.F.);
#808=ORIENTED_EDGE('',*,*,#619,.F.);
#809=ORIENTED_EDGE('',*,*,#623,.F.);
#810=ORIENTED_EDGE('',*,*,#626,.F.);
#811=ORIENTED_EDGE('',*,*,#631,.T.);
#812=ORIENTED_EDGE('',*,*,#632,.T.);
#813=ORIENTED_EDGE('',*,*,#633,.F.);
#814=ORIENTED_EDGE('',*,*,#634,.F.);
#815=ORIENTED_EDGE('',*,*,#635,.T.);
#816=ORIENTED_EDGE('',*,*,#634,.T.);
#817=ORIENTED_EDGE('',*,*,#636,.F.);
#818=ORIENTED_EDGE('',*,*,#637,.F.);
#819=ORIENTED_EDGE('',*,*,#638,.T.);
#820=ORIENTED_EDGE('',*,*,#637,.T.);
#821=ORIENTED_EDGE('',*,*,#639,.F.);
#822=ORIENTED_EDGE('',*,*,#640,.F.);
#823=ORIENTED_EDGE('',*,*,#641,.T.);
#824=ORIENTED_EDGE('',*,*,#640,.T.);
#825=ORIENTED_EDGE('',*,*,#642,.F.);
#826=ORIENTED_EDGE('',*,*,#632,.F.);
#827=ORIENTED_EDGE('',*,*,#642,.T.);
#828=ORIENTED_EDGE('',*,*,#639,.T.);
#829=ORIENTED_EDGE('',*,*,#636,.T.);
#830=ORIENTED_EDGE('',*,*,#633,.T.);
#831=ORIENTED_EDGE('',*,*,#641,.F.);
#832=ORIENTED_EDGE('',*,*,#631,.F.);
#833=ORIENTED_EDGE('',*,*,#635,.F.);
#834=ORIENTED_EDGE('',*,*,#638,.F.);
#835=ORIENTED_EDGE('',*,*,#643,.F.);
#836=ORIENTED_EDGE('',*,*,#644,.F.);
#837=ORIENTED_EDGE('',*,*,#645,.F.);
#838=ORIENTED_EDGE('',*,*,#646,.T.);
#839=ORIENTED_EDGE('',*,*,#647,.F.);
#840=ORIENTED_EDGE('',*,*,#646,.F.);
#841=ORIENTED_EDGE('',*,*,#648,.F.);
#842=ORIENTED_EDGE('',*,*,#649,.T.);
#843=ORIENTED_EDGE('',*,*,#650,.F.);
#844=ORIENTED_EDGE('',*,*,#649,.F.);
#845=ORIENTED_EDGE('',*,*,#651,.F.);
#846=ORIENTED_EDGE('',*,*,#652,.T.);
#847=ORIENTED_EDGE('',*,*,#653,.F.);
#848=ORIENTED_EDGE('',*,*,#652,.F.);
#849=ORIENTED_EDGE('',*,*,#654,.F.);
#850=ORIENTED_EDGE('',*,*,#644,.T.);
#851=ORIENTED_EDGE('',*,*,#655,.T.);
#852=ORIENTED_EDGE('',*,*,#656,.T.);
#853=ORIENTED_EDGE('',*,*,#657,.F.);
#854=ORIENTED_EDGE('',*,*,#658,.F.);
#855=ORIENTED_EDGE('',*,*,#659,.T.);
#856=ORIENTED_EDGE('',*,*,#658,.T.);
#857=ORIENTED_EDGE('',*,*,#660,.F.);
#858=ORIENTED_EDGE('',*,*,#661,.F.);
#859=ORIENTED_EDGE('',*,*,#662,.T.);
#860=ORIENTED_EDGE('',*,*,#661,.T.);
#861=ORIENTED_EDGE('',*,*,#663,.F.);
#862=ORIENTED_EDGE('',*,*,#664,.F.);
#863=ORIENTED_EDGE('',*,*,#665,.T.);
#864=ORIENTED_EDGE('',*,*,#664,.T.);
#865=ORIENTED_EDGE('',*,*,#666,.F.);
#866=ORIENTED_EDGE('',*,*,#656,.F.);
#867=ORIENTED_EDGE('',*,*,#666,.T.);
#868=ORIENTED_EDGE('',*,*,#663,.T.);
#869=ORIENTED_EDGE('',*,*,#660,.T.);
#870=ORIENTED_EDGE('',*,*,#657,.T.);
#871=ORIENTED_EDGE('',*,*,#650,.T.);
#872=ORIENTED_EDGE('',*,*,#653,.T.);
#873=ORIENTED_EDGE('',*,*,#643,.T.);
#874=ORIENTED_EDGE('',*,*,#647,.T.);
#875=ORIENTED_EDGE('',*,*,#665,.F.);
#876=ORIENTED_EDGE('',*,*,#655,.F.);
#877=ORIENTED_EDGE('',*,*,#659,.F.);
#878=ORIENTED_EDGE('',*,*,#662,.F.);
#879=ORIENTED_EDGE('',*,*,#651,.T.);
#880=ORIENTED_EDGE('',*,*,#648,.T.);
#881=ORIENTED_EDGE('',*,*,#645,.T.);
#882=ORIENTED_EDGE('',*,*,#654,.T.);
#883=ORIENTED_EDGE('',*,*,#667,.T.);
#884=ORIENTED_EDGE('',*,*,#668,.T.);
#885=ORIENTED_EDGE('',*,*,#669,.F.);
#886=ORIENTED_EDGE('',*,*,#670,.F.);
#887=ORIENTED_EDGE('',*,*,#671,.T.);
#888=ORIENTED_EDGE('',*,*,#670,.T.);
#889=ORIENTED_EDGE('',*,*,#672,.F.);
#890=ORIENTED_EDGE('',*,*,#673,.F.);
#891=ORIENTED_EDGE('',*,*,#674,.T.);
#892=ORIENTED_EDGE('',*,*,#673,.T.);
#893=ORIENTED_EDGE('',*,*,#675,.F.);
#894=ORIENTED_EDGE('',*,*,#676,.F.);
#895=ORIENTED_EDGE('',*,*,#677,.T.);
#896=ORIENTED_EDGE('',*,*,#676,.T.);
#897=ORIENTED_EDGE('',*,*,#678,.F.);
#898=ORIENTED_EDGE('',*,*,#668,.F.);
#899=ORIENTED_EDGE('',*,*,#678,.T.);
#900=ORIENTED_EDGE('',*,*,#675,.T.);
#901=ORIENTED_EDGE('',*,*,#672,.T.);
#902=ORIENTED_EDGE('',*,*,#669,.T.);
#903=ORIENTED_EDGE('',*,*,#677,.F.);
#904=ORIENTED_EDGE('',*,*,#667,.F.);
#905=ORIENTED_EDGE('',*,*,#671,.F.);
#906=ORIENTED_EDGE('',*,*,#674,.F.);
#907=ORIENTED_EDGE('',*,*,#679,.F.);
#908=ORIENTED_EDGE('',*,*,#680,.F.);
#909=ORIENTED_EDGE('',*,*,#681,.F.);
#910=ORIENTED_EDGE('',*,*,#682,.T.);
#911=ORIENTED_EDGE('',*,*,#683,.F.);
#912=ORIENTED_EDGE('',*,*,#682,.F.);
#913=ORIENTED_EDGE('',*,*,#684,.F.);
#914=ORIENTED_EDGE('',*,*,#685,.T.);
#915=ORIENTED_EDGE('',*,*,#686,.F.);
#916=ORIENTED_EDGE('',*,*,#685,.F.);
#917=ORIENTED_EDGE('',*,*,#687,.F.);
#918=ORIENTED_EDGE('',*,*,#688,.T.);
#919=ORIENTED_EDGE('',*,*,#689,.F.);
#920=ORIENTED_EDGE('',*,*,#688,.F.);
#921=ORIENTED_EDGE('',*,*,#690,.F.);
#922=ORIENTED_EDGE('',*,*,#680,.T.);
#923=ORIENTED_EDGE('',*,*,#691,.T.);
#924=ORIENTED_EDGE('',*,*,#692,.T.);
#925=ORIENTED_EDGE('',*,*,#693,.F.);
#926=ORIENTED_EDGE('',*,*,#694,.F.);
#927=ORIENTED_EDGE('',*,*,#695,.T.);
#928=ORIENTED_EDGE('',*,*,#694,.T.);
#929=ORIENTED_EDGE('',*,*,#696,.F.);
#930=ORIENTED_EDGE('',*,*,#697,.F.);
#931=ORIENTED_EDGE('',*,*,#698,.T.);
#932=ORIENTED_EDGE('',*,*,#697,.T.);
#933=ORIENTED_EDGE('',*,*,#699,.F.);
#934=ORIENTED_EDGE('',*,*,#700,.F.);
#935=ORIENTED_EDGE('',*,*,#701,.T.);
#936=ORIENTED_EDGE('',*,*,#700,.T.);
#937=ORIENTED_EDGE('',*,*,#702,.F.);
#938=ORIENTED_EDGE('',*,*,#692,.F.);
#939=ORIENTED_EDGE('',*,*,#702,.T.);
#940=ORIENTED_EDGE('',*,*,#699,.T.);
#941=ORIENTED_EDGE('',*,*,#696,.T.);
#942=ORIENTED_EDGE('',*,*,#693,.T.);
#943=ORIENTED_EDGE('',*,*,#686,.T.);
#944=ORIENTED_EDGE('',*,*,#689,.T.);
#945=ORIENTED_EDGE('',*,*,#679,.T.);
#946=ORIENTED_EDGE('',*,*,#683,.T.);
#947=ORIENTED_EDGE('',*,*,#701,.F.);
#948=ORIENTED_EDGE('',*,*,#691,.F.);
#949=ORIENTED_EDGE('',*,*,#695,.F.);
#950=ORIENTED_EDGE('',*,*,#698,.F.);
#951=ORIENTED_EDGE('',*,*,#687,.T.);
#952=ORIENTED_EDGE('',*,*,#684,.T.);
#953=ORIENTED_EDGE('',*,*,#681,.T.);
#954=ORIENTED_EDGE('',*,*,#690,.T.);
#955=ORIENTED_EDGE('',*,*,#703,.T.);
#956=ORIENTED_EDGE('',*,*,#704,.T.);
#957=ORIENTED_EDGE('',*,*,#705,.F.);
#958=ORIENTED_EDGE('',*,*,#706,.F.);
#959=ORIENTED_EDGE('',*,*,#707,.T.);
#960=ORIENTED_EDGE('',*,*,#706,.T.);
#961=ORIENTED_EDGE('',*,*,#708,.F.);
#962=ORIENTED_EDGE('',*,*,#709,.F.);
#963=ORIENTED_EDGE('',*,*,#710,.T.);
#964=ORIENTED_EDGE('',*,*,#709,.T.);
#965=ORIENTED_EDGE('',*,*,#711,.F.);
#966=ORIENTED_EDGE('',*,*,#712,.F.);
#967=ORIENTED_EDGE('',*,*,#713,.T.);
#968=ORIENTED_EDGE('',*,*,#712,.T.);
#969=ORIENTED_EDGE('',*,*,#714,.F.);
#970=ORIENTED_EDGE('',*,*,#704,.F.);
#971=ORIENTED_EDGE('',*,*,#714,.T.);
#972=ORIENTED_EDGE('',*,*,#711,.T.);
#973=ORIENTED_EDGE('',*,*,#708,.T.);
#974=ORIENTED_EDGE('',*,*,#705,.T.);
#975=ORIENTED_EDGE('',*,*,#713,.F.);
#976=ORIENTED_EDGE('',*,*,#703,.F.);
#977=ORIENTED_EDGE('',*,*,#707,.F.);
#978=ORIENTED_EDGE('',*,*,#710,.F.);
#979=ORIENTED_EDGE('',*,*,#715,.T.);
#980=ORIENTED_EDGE('',*,*,#716,.T.);
#981=ORIENTED_EDGE('',*,*,#717,.F.);
#982=ORIENTED_EDGE('',*,*,#718,.F.);
#983=ORIENTED_EDGE('',*,*,#719,.T.);
#984=ORIENTED_EDGE('',*,*,#718,.T.);
#985=ORIENTED_EDGE('',*,*,#720,.F.);
#986=ORIENTED_EDGE('',*,*,#721,.F.);
#987=ORIENTED_EDGE('',*,*,#722,.T.);
#988=ORIENTED_EDGE('',*,*,#721,.T.);
#989=ORIENTED_EDGE('',*,*,#723,.F.);
#990=ORIENTED_EDGE('',*,*,#724,.F.);
#991=ORIENTED_EDGE('',*,*,#725,.T.);
#992=ORIENTED_EDGE('',*,*,#724,.T.);
#993=ORIENTED_EDGE('',*,*,#726,.F.);
#994=ORIENTED_EDGE('',*,*,#716,.F.);
#995=ORIENTED_EDGE('',*,*,#726,.T.);
#996=ORIENTED_EDGE('',*,*,#723,.T.);
#997=ORIENTED_EDGE('',*,*,#720,.T.);
#998=ORIENTED_EDGE('',*,*,#717,.T.);
#999=ORIENTED_EDGE('',*,*,#725,.F.);
#1000=ORIENTED_EDGE('',*,*,#715,.F.);
#1001=ORIENTED_EDGE('',*,*,#719,.F.);
#1002=ORIENTED_EDGE('',*,*,#722,.F.);
#1003=ORIENTED_EDGE('',*,*,#727,.T.);
#1004=ORIENTED_EDGE('',*,*,#728,.T.);
#1005=ORIENTED_EDGE('',*,*,#729,.F.);
#1006=ORIENTED_EDGE('',*,*,#730,.F.);
#1007=ORIENTED_EDGE('',*,*,#731,.T.);
#1008=ORIENTED_EDGE('',*,*,#730,.T.);
#1009=ORIENTED_EDGE('',*,*,#732,.F.);
#1010=ORIENTED_EDGE('',*,*,#733,.F.);
#1011=ORIENTED_EDGE('',*,*,#734,.T.);
#1012=ORIENTED_EDGE('',*,*,#733,.T.);
#1013=ORIENTED_EDGE('',*,*,#735,.F.);
#1014=ORIENTED_EDGE('',*,*,#736,.F.);
#1015=ORIENTED_EDGE('',*,*,#737,.T.);
#1016=ORIENTED_EDGE('',*,*,#736,.T.);
#1017=ORIENTED_EDGE('',*,*,#738,.F.);
#1018=ORIENTED_EDGE('',*,*,#728,.F.);
#1019=ORIENTED_EDGE('',*,*,#738,.T.);
#1020=ORIENTED_EDGE('',*,*,#735,.T.);
#1021=ORIENTED_EDGE('',*,*,#732,.T.);
#1022=ORIENTED_EDGE('',*,*,#729,.T.);
#1023=ORIENTED_EDGE('',*,*,#737,.F.);
#1024=ORIENTED_EDGE('',*,*,#727,.F.);
#1025=ORIENTED_EDGE('',*,*,#731,.F.);
#1026=ORIENTED_EDGE('',*,*,#734,.F.);
#1027=ORIENTED_EDGE('',*,*,#739,.T.);
#1028=ORIENTED_EDGE('',*,*,#740,.T.);
#1029=ORIENTED_EDGE('',*,*,#741,.F.);
#1030=ORIENTED_EDGE('',*,*,#742,.F.);
#1031=ORIENTED_EDGE('',*,*,#743,.T.);
#1032=ORIENTED_EDGE('',*,*,#742,.T.);
#1033=ORIENTED_EDGE('',*,*,#744,.F.);
#1034=ORIENTED_EDGE('',*,*,#745,.F.);
#1035=ORIENTED_EDGE('',*,*,#746,.T.);
#1036=ORIENTED_EDGE('',*,*,#745,.T.);
#1037=ORIENTED_EDGE('',*,*,#747,.F.);
#1038=ORIENTED_EDGE('',*,*,#748,.F.);
#1039=ORIENTED_EDGE('',*,*,#749,.T.);
#1040=ORIENTED_EDGE('',*,*,#748,.T.);
#1041=ORIENTED_EDGE('',*,*,#750,.F.);
#1042=ORIENTED_EDGE('',*,*,#740,.F.);
#1043=ORIENTED_EDGE('',*,*,#750,.T.);
#1044=ORIENTED_EDGE('',*,*,#747,.T.);
#1045=ORIENTED_EDGE('',*,*,#744,.T.);
#1046=ORIENTED_EDGE('',*,*,#741,.T.);
#1047=ORIENTED_EDGE('',*,*,#749,.F.);
#1048=ORIENTED_EDGE('',*,*,#739,.F.);
#1049=ORIENTED_EDGE('',*,*,#743,.F.);
#1050=ORIENTED_EDGE('',*,*,#746,.F.);
#1051=ORIENTED_EDGE('',*,*,#751,.T.);
#1052=ORIENTED_EDGE('',*,*,#752,.T.);
#1053=ORIENTED_EDGE('',*,*,#753,.F.);
#1054=ORIENTED_EDGE('',*,*,#754,.F.);
#1055=ORIENTED_EDGE('',*,*,#755,.T.);
#1056=ORIENTED_EDGE('',*,*,#754,.T.);
#1057=ORIENTED_EDGE('',*,*,#756,.F.);
#1058=ORIENTED_EDGE('',*,*,#757,.F.);
#1059=ORIENTED_EDGE('',*,*,#758,.T.);
#1060=ORIENTED_EDGE('',*,*,#757,.T.);
#1061=ORIENTED_EDGE('',*,*,#759,.F.);
#1062=ORIENTED_EDGE('',*,*,#760,.F.);
#1063=ORIENTED_EDGE('',*,*,#761,.T.);
#1064=ORIENTED_EDGE('',*,*,#760,.T.);
#1065=ORIENTED_EDGE('',*,*,#762,.F.);
#1066=ORIENTED_EDGE('',*,*,#752,.F.);
#1067=ORIENTED_EDGE('',*,*,#762,.T.);
#1068=ORIENTED_EDGE('',*,*,#759,.T.);
#1069=ORIENTED_EDGE('',*,*,#756,.T.);
#1070=ORIENTED_EDGE('',*,*,#753,.T.);
#1071=ORIENTED_EDGE('',*,*,#761,.F.);
#1072=ORIENTED_EDGE('',*,*,#751,.F.);
#1073=ORIENTED_EDGE('',*,*,#755,.F.);
#1074=ORIENTED_EDGE('',*,*,#758,.F.);
#1075=PLANE('',#1247);
#1076=PLANE('',#1248);
#1077=PLANE('',#1249);
#1078=PLANE('',#1250);
#1079=PLANE('',#1251);
#1080=PLANE('',#1252);
#1081=PLANE('',#1253);
#1082=PLANE('',#1254);
#1083=PLANE('',#1255);
#1084=PLANE('',#1256);
#1085=PLANE('',#1257);
#1086=PLANE('',#1258);
#1087=PLANE('',#1259);
#1088=PLANE('',#1260);
#1089=PLANE('',#1261);
#1090=PLANE('',#1262);
#1091=PLANE('',#1263);
#1092=PLANE('',#1264);
#1093=PLANE('',#1265);
#1094=PLANE('',#1266);
#1095=PLANE('',#1267);
#1096=PLANE('',#1268);
#1097=PLANE('',#1269);
#1098=PLANE('',#1270);
#1099=PLANE('',#1271);
#1100=PLANE('',#1272);
#1101=PLANE('',#1273);
#1102=PLANE('',#1274);
#1103=PLANE('',#1275);
#1104=PLANE('',#1276);
#1105=PLANE('',#1277);
#1106=PLANE('',#1278);
#1107=PLANE('',#1279);
#1108=PLANE('',#1280);
#1109=PLANE('',#1281);
#1110=PLANE('',#1282);
#1111=PLANE('',#1283);
#1112=PLANE('',#1284);
#1113=PLANE('',#1285);
#1114=PLANE('',#1286);
#1115=PLANE('',#1287);
#1116=PLANE('',#1288);
#1117=PLANE('',#1289);
#1118=PLANE('',#1290);
#1119=PLANE('',#1291);
#1120=PLANE('',#1292);
#1121=PLANE('',#1293);
#1122=PLANE('',#1294);
#1123=PLANE('',#1295);
#1124=PLANE('',#1296);
#1125=PLANE('',#1297);
#1126=PLANE('',#1298);
#1127=PLANE('',#1299);
#1128=PLANE('',#1300);
#1129=PLANE('',#1301);
#1130=PLANE('',#1302);
#1131=PLANE('',#1303);
#1132=PLANE('',#1304);
#1133=PLANE('',#1305);
#1134=PLANE('',#1306);
#1135=PLANE('',#1307);
#1136=PLANE('',#1308);
#1137=PLANE('',#1309);
#1138=PLANE('',#1310);
#1139=PLANE('',#1311);
#1140=PLANE('',#1312);
#1141=PLANE('',#1313);
#1142=PLANE('',#1314);
#1143=PLANE('',#1315);
#1144=PLANE('',#1316);
#1145=PLANE('',#1317);
#1146=PLANE('',#1318);
#1147=PLANE('',#1319);
#1148=PLANE('',#1320);
#1149=ADVANCED_FACE('',(#39),#1075,.T.);
#1150=ADVANCED_FACE('',(#40),#1076,.T.);
#1151=ADVANCED_FACE('',(#41),#1077,.T.);
#1152=ADVANCED_FACE('',(#42),#1078,.T.);
#1153=ADVANCED_FACE('',(#43),#1079,.T.);
#1154=ADVANCED_FACE('',(#44),#1080,.F.);
#1155=ADVANCED_FACE('',(#45),#1081,.T.);
#1156=ADVANCED_FACE('',(#46),#1082,.T.);
#1157=ADVANCED_FACE('',(#47),#1083,.T.);
#1158=ADVANCED_FACE('',(#48),#1084,.T.);
#1159=ADVANCED_FACE('',(#49),#1085,.T.);
#1160=ADVANCED_FACE('',(#50),#1086,.F.);
#1161=ADVANCED_FACE('',(#51),#1087,.T.);
#1162=ADVANCED_FACE('',(#52),#1088,.T.);
#1163=ADVANCED_FACE('',(#53),#1089,.T.);
#1164=ADVANCED_FACE('',(#54),#1090,.T.);
#1165=ADVANCED_FACE('',(#55),#1091,.T.);
#1166=ADVANCED_FACE('',(#56),#1092,.F.);
#1167=ADVANCED_FACE('',(#57),#1093,.F.);
#1168=ADVANCED_FACE('',(#58),#1094,.F.);
#1169=ADVANCED_FACE('',(#59),#1095,.F.);
#1170=ADVANCED_FACE('',(#60),#1096,.F.);
#1171=ADVANCED_FACE('',(#61),#1097,.T.);
#1172=ADVANCED_FACE('',(#62),#1098,.T.);
#1173=ADVANCED_FACE('',(#63),#1099,.T.);
#1174=ADVANCED_FACE('',(#64),#1100,.T.);
#1175=ADVANCED_FACE('',(#65,#13),#1101,.T.);
#1176=ADVANCED_FACE('',(#66,#14),#1102,.F.);
#1177=ADVANCED_FACE('',(#67),#1103,.T.);
#1178=ADVANCED_FACE('',(#68),#1104,.T.);
#1179=ADVANCED_FACE('',(#69),#1105,.T.);
#1180=ADVANCED_FACE('',(#70),#1106,.T.);
#1181=ADVANCED_FACE('',(#71),#1107,.T.);
#1182=ADVANCED_FACE('',(#72),#1108,.F.);
#1183=ADVANCED_FACE('',(#73),#1109,.F.);
#1184=ADVANCED_FACE('',(#74),#1110,.F.);
#1185=ADVANCED_FACE('',(#75),#1111,.F.);
#1186=ADVANCED_FACE('',(#76),#1112,.F.);
#1187=ADVANCED_FACE('',(#77),#1113,.T.);
#1188=ADVANCED_FACE('',(#78),#1114,.T.);
#1189=ADVANCED_FACE('',(#79),#1115,.T.);
#1190=ADVANCED_FACE('',(#80),#1116,.T.);
#1191=ADVANCED_FACE('',(#81,#15),#1117,.T.);
#1192=ADVANCED_FACE('',(#82,#16),#1118,.F.);
#1193=ADVANCED_FACE('',(#83),#1119,.T.);
#1194=ADVANCED_FACE('',(#84),#1120,.T.);
#1195=ADVANCED_FACE('',(#85),#1121,.T.);
#1196=ADVANCED_FACE('',(#86),#1122,.T.);
#1197=ADVANCED_FACE('',(#87),#1123,.T.);
#1198=ADVANCED_FACE('',(#88),#1124,.F.);
#1199=ADVANCED_FACE('',(#89),#1125,.T.);
#1200=ADVANCED_FACE('',(#90),#1126,.T.);
#1201=ADVANCED_FACE('',(#91),#1127,.T.);
#1202=ADVANCED_FACE('',(#92),#1128,.T.);
#1203=ADVANCED_FACE('',(#93),#1129,.T.);
#1204=ADVANCED_FACE('',(#94),#1130,.F.);
#1205=ADVANCED_FACE('',(#95),#1131,.T.);
#1206=ADVANCED_FACE('',(#96),#1132,.T.);
#1207=ADVANCED_FACE('',(#97),#1133,.T.);
#1208=ADVANCED_FACE('',(#98),#1134,.T.);
#1209=ADVANCED_FACE('',(#99),#1135,.T.);
#1210=ADVANCED_FACE('',(#100),#1136,.F.);
#1211=ADVANCED_FACE('',(#101),#1137,.T.);
#1212=ADVANCED_FACE('',(#102),#1138,.T.);
#1213=ADVANCED_FACE('',(#103),#1139,.T.);
#1214=ADVANCED_FACE('',(#104),#1140,.T.);
#1215=ADVANCED_FACE('',(#105),#1141,.T.);
#1216=ADVANCED_FACE('',(#106),#1142,.F.);
#1217=ADVANCED_FACE('',(#107),#1143,.T.);
#1218=ADVANCED_FACE('',(#108),#1144,.T.);
#1219=ADVANCED_FACE('',(#109),#1145,.T.);
#1220=ADVANCED_FACE('',(#110),#1146,.T.);
#1221=ADVANCED_FACE('',(#111),#1147,.T.);
#1222=ADVANCED_FACE('',(#112),#1148,.F.);
#1223=CLOSED_SHELL('',(#1149,#1150,#1151,#1152,#1153,#1154));
#1224=CLOSED_SHELL('',(#1155,#1156,#1157,#1158,#1159,#1160));
#1225=CLOSED_SHELL('',(#1161,#1162,#1163,#1164,#1165,#1166));
#1226=CLOSED_SHELL('',(#1167,#1168,#1169,#1170,#1171,#1172,#1173,#1174,
#1175,#1176));
#1227=CLOSED_SHELL('',(#1177,#1178,#1179,#1180,#1181,#1182));
#1228=CLOSED_SHELL('',(#1183,#1184,#1185,#1186,#1187,#1188,#1189,#1190,
#1191,#1192));
#1229=CLOSED_SHELL('',(#1193,#1194,#1195,#1196,#1197,#1198));
#1230=CLOSED_SHELL('',(#1199,#1200,#1201,#1202,#1203,#1204));
#1231=CLOSED_SHELL('',(#1205,#1206,#1207,#1208,#1209,#1210));
#1232=CLOSED_SHELL('',(#1211,#1212,#1213,#1214,#1215,#1216));
#1233=CLOSED_SHELL('',(#1217,#1218,#1219,#1220,#1221,#1222));
#1234=DERIVED_UNIT_ELEMENT(#1236,1.);
#1235=DERIVED_UNIT_ELEMENT(#1967,-3.);
#1236=(
MASS_UNIT()
NAMED_UNIT(*)
SI_UNIT(.KILO.,.GRAM.)
);
#1237=DERIVED_UNIT((#1234,#1235));
#1238=MEASURE_REPRESENTATION_ITEM('density measure',
POSITIVE_RATIO_MEASURE(7850.),#1237);
#1239=PROPERTY_DEFINITION_REPRESENTATION(#1244,#1241);
#1240=PROPERTY_DEFINITION_REPRESENTATION(#1245,#1242);
#1241=REPRESENTATION('material name',(#1243),#1964);
#1242=REPRESENTATION('density',(#1238),#1964);
#1243=DESCRIPTIVE_REPRESENTATION_ITEM('Steel','Steel');
#1244=PROPERTY_DEFINITION('material property','material name',#1974);
#1245=PROPERTY_DEFINITION('material property','density of part',#1974);
#1246=AXIS2_PLACEMENT_3D('',#1627,#1321,#1322);
#1247=AXIS2_PLACEMENT_3D('',#1628,#1323,#1324);
#1248=AXIS2_PLACEMENT_3D('',#1637,#1329,#1330);
#1249=AXIS2_PLACEMENT_3D('',#1643,#1334,#1335);
#1250=AXIS2_PLACEMENT_3D('',#1649,#1339,#1340);
#1251=AXIS2_PLACEMENT_3D('',#1652,#1343,#1344);
#1252=AXIS2_PLACEMENT_3D('',#1653,#1345,#1346);
#1253=AXIS2_PLACEMENT_3D('',#1654,#1347,#1348);
#1254=AXIS2_PLACEMENT_3D('',#1663,#1353,#1354);
#1255=AXIS2_PLACEMENT_3D('',#1669,#1358,#1359);
#1256=AXIS2_PLACEMENT_3D('',#1675,#1363,#1364);
#1257=AXIS2_PLACEMENT_3D('',#1678,#1367,#1368);
#1258=AXIS2_PLACEMENT_3D('',#1679,#1369,#1370);
#1259=AXIS2_PLACEMENT_3D('',#1680,#1371,#1372);
#1260=AXIS2_PLACEMENT_3D('',#1689,#1377,#1378);
#1261=AXIS2_PLACEMENT_3D('',#1695,#1382,#1383);
#1262=AXIS2_PLACEMENT_3D('',#1701,#1387,#1388);
#1263=AXIS2_PLACEMENT_3D('',#1704,#1391,#1392);
#1264=AXIS2_PLACEMENT_3D('',#1705,#1393,#1394);
#1265=AXIS2_PLACEMENT_3D('',#1706,#1395,#1396);
#1266=AXIS2_PLACEMENT_3D('',#1715,#1401,#1402);
#1267=AXIS2_PLACEMENT_3D('',#1721,#1406,#1407);
#1268=AXIS2_PLACEMENT_3D('',#1727,#1411,#1412);
#1269=AXIS2_PLACEMENT_3D('',#1730,#1415,#1416);
#1270=AXIS2_PLACEMENT_3D('',#1739,#1421,#1422);
#1271=AXIS2_PLACEMENT_3D('',#1745,#1426,#1427);
#1272=AXIS2_PLACEMENT_3D('',#1751,#1431,#1432);
#1273=AXIS2_PLACEMENT_3D('',#1754,#1435,#1436);
#1274=AXIS2_PLACEMENT_3D('',#1755,#1437,#1438);
#1275=AXIS2_PLACEMENT_3D('',#1756,#1439,#1440);
#1276=AXIS2_PLACEMENT_3D('',#1765,#1445,#1446);
#1277=AXIS2_PLACEMENT_3D('',#1771,#1450,#1451);
#1278=AXIS2_PLACEMENT_3D('',#1777,#1455,#1456);
#1279=AXIS2_PLACEMENT_3D('',#1780,#1459,#1460);
#1280=AXIS2_PLACEMENT_3D('',#1781,#1461,#1462);
#1281=AXIS2_PLACEMENT_3D('',#1782,#1463,#1464);
#1282=AXIS2_PLACEMENT_3D('',#1791,#1469,#1470);
#1283=AXIS2_PLACEMENT_3D('',#1797,#1474,#1475);
#1284=AXIS2_PLACEMENT_3D('',#1803,#1479,#1480);
#1285=AXIS2_PLACEMENT_3D('',#1806,#1483,#1484);
#1286=AXIS2_PLACEMENT_3D('',#1815,#1489,#1490);
#1287=AXIS2_PLACEMENT_3D('',#1821,#1494,#1495);
#1288=AXIS2_PLACEMENT_3D('',#1827,#1499,#1500);
#1289=AXIS2_PLACEMENT_3D('',#1830,#1503,#1504);
#1290=AXIS2_PLACEMENT_3D('',#1831,#1505,#1506);
#1291=AXIS2_PLACEMENT_3D('',#1832,#1507,#1508);
#1292=AXIS2_PLACEMENT_3D('',#1841,#1513,#1514);
#1293=AXIS2_PLACEMENT_3D('',#1847,#1518,#1519);
#1294=AXIS2_PLACEMENT_3D('',#1853,#1523,#1524);
#1295=AXIS2_PLACEMENT_3D('',#1856,#1527,#1528);
#1296=AXIS2_PLACEMENT_3D('',#1857,#1529,#1530);
#1297=AXIS2_PLACEMENT_3D('',#1858,#1531,#1532);
#1298=AXIS2_PLACEMENT_3D('',#1867,#1537,#1538);
#1299=AXIS2_PLACEMENT_3D('',#1873,#1542,#1543);
#1300=AXIS2_PLACEMENT_3D('',#1879,#1547,#1548);
#1301=AXIS2_PLACEMENT_3D('',#1882,#1551,#1552);
#1302=AXIS2_PLACEMENT_3D('',#1883,#1553,#1554);
#1303=AXIS2_PLACEMENT_3D('',#1884,#1555,#1556);
#1304=AXIS2_PLACEMENT_3D('',#1893,#1561,#1562);
#1305=AXIS2_PLACEMENT_3D('',#1899,#1566,#1567);
#1306=AXIS2_PLACEMENT_3D('',#1905,#1571,#1572);
#1307=AXIS2_PLACEMENT_3D('',#1908,#1575,#1576);
#1308=AXIS2_PLACEMENT_3D('',#1909,#1577,#1578);
#1309=AXIS2_PLACEMENT_3D('',#1910,#1579,#1580);
#1310=AXIS2_PLACEMENT_3D('',#1919,#1585,#1586);
#1311=AXIS2_PLACEMENT_3D('',#1925,#1590,#1591);
#1312=AXIS2_PLACEMENT_3D('',#1931,#1595,#1596);
#1313=AXIS2_PLACEMENT_3D('',#1934,#1599,#1600);
#1314=AXIS2_PLACEMENT_3D('',#1935,#1601,#1602);
#1315=AXIS2_PLACEMENT_3D('',#1936,#1603,#1604);
#1316=AXIS2_PLACEMENT_3D('',#1945,#1609,#1610);
#1317=AXIS2_PLACEMENT_3D('',#1951,#1614,#1615);
#1318=AXIS2_PLACEMENT_3D('',#1957,#1619,#1620);
#1319=AXIS2_PLACEMENT_3D('',#1960,#1623,#1624);
#1320=AXIS2_PLACEMENT_3D('',#1961,#1625,#1626);
#1321=DIRECTION('axis',(0.,0.,1.));
#1322=DIRECTION('refdir',(1.,0.,0.));
#1323=DIRECTION('center_axis',(0.,0.,-1.));
#1324=DIRECTION('ref_axis',(-1.,0.,0.));
#1325=DIRECTION('',(-1.,0.,0.));
#1326=DIRECTION('',(0.,1.,0.));
#1327=DIRECTION('',(-1.,0.,0.));
#1328=DIRECTION('',(0.,1.,0.));
#1329=DIRECTION('center_axis',(1.,0.,0.));
#1330=DIRECTION('ref_axis',(0.,0.,-1.));
#1331=DIRECTION('',(0.,0.,-1.));
#1332=DIRECTION('',(0.,0.,-1.));
#1333=DIRECTION('',(0.,1.,0.));
#1334=DIRECTION('center_axis',(0.,0.,1.));
#1335=DIRECTION('ref_axis',(1.,0.,0.));
#1336=DIRECTION('',(1.,0.,0.));
#1337=DIRECTION('',(1.,0.,0.));
#1338=DIRECTION('',(0.,1.,0.));
#1339=DIRECTION('center_axis',(-1.,0.,0.));
#1340=DIRECTION('ref_axis',(0.,0.,1.));
#1341=DIRECTION('',(0.,0.,1.));
#1342=DIRECTION('',(0.,0.,1.));
#1343=DIRECTION('center_axis',(0.,1.,0.));
#1344=DIRECTION('ref_axis',(0.,0.,1.));
#1345=DIRECTION('center_axis',(0.,1.,0.));
#1346=DIRECTION('ref_axis',(1.,0.,0.));
#1347=DIRECTION('center_axis',(0.,0.,-1.));
#1348=DIRECTION('ref_axis',(-1.,0.,0.));
#1349=DIRECTION('',(-1.,0.,0.));
#1350=DIRECTION('',(0.,1.,0.));
#1351=DIRECTION('',(-1.,0.,0.));
#1352=DIRECTION('',(0.,1.,0.));
#1353=DIRECTION('center_axis',(1.,0.,0.));
#1354=DIRECTION('ref_axis',(0.,0.,-1.));
#1355=DIRECTION('',(0.,0.,-1.));
#1356=DIRECTION('',(0.,0.,-1.));
#1357=DIRECTION('',(0.,1.,0.));
#1358=DIRECTION('center_axis',(0.,0.,1.));
#1359=DIRECTION('ref_axis',(1.,0.,0.));
#1360=DIRECTION('',(1.,0.,0.));
#1361=DIRECTION('',(1.,0.,0.));
#1362=DIRECTION('',(0.,1.,0.));
#1363=DIRECTION('center_axis',(-1.,0.,0.));
#1364=DIRECTION('ref_axis',(0.,0.,1.));
#1365=DIRECTION('',(0.,0.,1.));
#1366=DIRECTION('',(0.,0.,1.));
#1367=DIRECTION('center_axis',(0.,1.,0.));
#1368=DIRECTION('ref_axis',(0.,0.,1.));
#1369=DIRECTION('center_axis',(0.,1.,0.));
#1370=DIRECTION('ref_axis',(1.,0.,0.));
#1371=DIRECTION('center_axis',(0.,1.,0.));
#1372=DIRECTION('ref_axis',(-1.,0.,0.));
#1373=DIRECTION('',(-1.,0.,0.));
#1374=DIRECTION('',(0.,0.,1.));
#1375=DIRECTION('',(-1.,0.,0.));
#1376=DIRECTION('',(0.,0.,1.));
#1377=DIRECTION('center_axis',(1.,0.,0.));
#1378=DIRECTION('ref_axis',(0.,1.,0.));
#1379=DIRECTION('',(0.,1.,0.));
#1380=DIRECTION('',(0.,1.,0.));
#1381=DIRECTION('',(0.,0.,1.));
#1382=DIRECTION('center_axis',(0.,-1.,0.));
#1383=DIRECTION('ref_axis',(1.,0.,0.));
#1384=DIRECTION('',(1.,0.,0.));
#1385=DIRECTION('',(1.,0.,0.));
#1386=DIRECTION('',(0.,0.,1.));
#1387=DIRECTION('center_axis',(-1.,0.,0.));
#1388=DIRECTION('ref_axis',(0.,-1.,0.));
#1389=DIRECTION('',(0.,-1.,0.));
#1390=DIRECTION('',(0.,-1.,0.));
#1391=DIRECTION('center_axis',(0.,0.,1.));
#1392=DIRECTION('ref_axis',(1.,0.,0.));
#1393=DIRECTION('center_axis',(0.,0.,1.));
#1394=DIRECTION('ref_axis',(1.,0.,0.));
#1395=DIRECTION('center_axis',(0.,-1.,0.));
#1396=DIRECTION('ref_axis',(1.,0.,0.));
#1397=DIRECTION('',(-1.,0.,0.));
#1398=DIRECTION('',(0.,0.,1.));
#1399=DIRECTION('',(1.,0.,0.));
#1400=DIRECTION('',(0.,0.,1.));
#1401=DIRECTION('center_axis',(-1.,0.,0.));
#1402=DIRECTION('ref_axis',(0.,-1.,0.));
#1403=DIRECTION('',(0.,1.,0.));
#1404=DIRECTION('',(0.,-1.,0.));
#1405=DIRECTION('',(0.,0.,1.));
#1406=DIRECTION('center_axis',(0.,1.,0.));
#1407=DIRECTION('ref_axis',(-1.,0.,0.));
#1408=DIRECTION('',(1.,0.,0.));
#1409=DIRECTION('',(-1.,0.,0.));
#1410=DIRECTION('',(0.,0.,1.));
#1411=DIRECTION('center_axis',(1.,7.56970244062607E-18,0.));
#1412=DIRECTION('ref_axis',(-7.56970244062607E-18,1.,0.));
#1413=DIRECTION('',(7.56970244062607E-18,-1.,0.));
#1414=DIRECTION('',(-7.56970244062607E-18,1.,0.));
#1415=DIRECTION('center_axis',(0.,1.,0.));
#1416=DIRECTION('ref_axis',(-1.,0.,0.));
#1417=DIRECTION('',(-1.,0.,0.));
#1418=DIRECTION('',(0.,0.,1.));
#1419=DIRECTION('',(-1.,0.,0.));
#1420=DIRECTION('',(0.,0.,1.));
#1421=DIRECTION('center_axis',(1.,0.,0.));
#1422=DIRECTION('ref_axis',(0.,1.,0.));
#1423=DIRECTION('',(0.,1.,0.));
#1424=DIRECTION('',(0.,1.,0.));
#1425=DIRECTION('',(0.,0.,1.));
#1426=DIRECTION('center_axis',(0.,-1.,0.));
#1427=DIRECTION('ref_axis',(1.,0.,0.));
#1428=DIRECTION('',(1.,0.,0.));
#1429=DIRECTION('',(1.,0.,0.));
#1430=DIRECTION('',(0.,0.,1.));
#1431=DIRECTION('center_axis',(-1.,0.,0.));
#1432=DIRECTION('ref_axis',(0.,-1.,0.));
#1433=DIRECTION('',(0.,-1.,0.));
#1434=DIRECTION('',(0.,-1.,0.));
#1435=DIRECTION('center_axis',(0.,0.,1.));
#1436=DIRECTION('ref_axis',(1.,0.,0.));
#1437=DIRECTION('center_axis',(0.,0.,1.));
#1438=DIRECTION('ref_axis',(1.,0.,0.));
#1439=DIRECTION('center_axis',(0.,2.22044604925031E-16,1.));
#1440=DIRECTION('ref_axis',(0.,-1.,2.22044604925031E-16));
#1441=DIRECTION('',(0.,-1.,2.22044604925031E-16));
#1442=DIRECTION('',(1.,0.,0.));
#1443=DIRECTION('',(0.,-1.,2.22044604925031E-16));
#1444=DIRECTION('',(1.,0.,0.));
#1445=DIRECTION('center_axis',(0.,1.,-2.22044604925031E-16));
#1446=DIRECTION('ref_axis',(0.,2.22044604925031E-16,1.));
#1447=DIRECTION('',(0.,2.22044604925031E-16,1.));
#1448=DIRECTION('',(0.,2.22044604925031E-16,1.));
#1449=DIRECTION('',(1.,0.,0.));
#1450=DIRECTION('center_axis',(0.,-2.22044604925031E-16,-1.));
#1451=DIRECTION('ref_axis',(0.,1.,-2.22044604925031E-16));
#1452=DIRECTION('',(0.,1.,-2.22044604925031E-16));
#1453=DIRECTION('',(0.,1.,-2.22044604925031E-16));
#1454=DIRECTION('',(1.,0.,0.));
#1455=DIRECTION('center_axis',(0.,-1.,2.22044604925031E-16));
#1456=DIRECTION('ref_axis',(0.,-2.22044604925031E-16,-1.));
#1457=DIRECTION('',(0.,-2.22044604925031E-16,-1.));
#1458=DIRECTION('',(0.,-2.22044604925031E-16,-1.));
#1459=DIRECTION('center_axis',(1.,0.,0.));
#1460=DIRECTION('ref_axis',(0.,1.,-2.22044604925031E-16));
#1461=DIRECTION('center_axis',(1.,0.,0.));
#1462=DIRECTION('ref_axis',(0.,1.,-2.22044604925031E-16));
#1463=DIRECTION('center_axis',(0.,-2.22044604925031E-16,-1.));
#1464=DIRECTION('ref_axis',(0.,1.,-2.22044604925031E-16));
#1465=DIRECTION('',(0.,-1.,2.22044604925031E-16));
#1466=DIRECTION('',(1.,0.,0.));
#1467=DIRECTION('',(0.,1.,-2.22044604925031E-16));
#1468=DIRECTION('',(1.,0.,0.));
#1469=DIRECTION('center_axis',(0.,-1.,2.22044604925031E-16));
#1470=DIRECTION('ref_axis',(0.,-2.22044604925031E-16,-1.));
#1471=DIRECTION('',(0.,2.22044604925031E-16,1.));
#1472=DIRECTION('',(0.,-2.22044604925031E-16,-1.));
#1473=DIRECTION('',(1.,0.,0.));
#1474=DIRECTION('center_axis',(0.,2.22044604925031E-16,1.));
#1475=DIRECTION('ref_axis',(0.,-1.,2.22044604925031E-16));
#1476=DIRECTION('',(0.,1.,-2.22044604925031E-16));
#1477=DIRECTION('',(0.,-1.,2.22044604925031E-16));
#1478=DIRECTION('',(1.,0.,0.));
#1479=DIRECTION('center_axis',(0.,1.,-2.22044604925031E-16));
#1480=DIRECTION('ref_axis',(0.,2.22044604925031E-16,1.));
#1481=DIRECTION('',(0.,-2.22044604925031E-16,-1.));
#1482=DIRECTION('',(0.,2.22044604925031E-16,1.));
#1483=DIRECTION('center_axis',(0.,2.22044604925031E-16,1.));
#1484=DIRECTION('ref_axis',(0.,-1.,2.22044604925031E-16));
#1485=DIRECTION('',(0.,-1.,2.22044604925031E-16));
#1486=DIRECTION('',(1.,0.,0.));
#1487=DIRECTION('',(0.,-1.,2.22044604925031E-16));
#1488=DIRECTION('',(1.,0.,0.));
#1489=DIRECTION('center_axis',(0.,1.,-2.22044604925031E-16));
#1490=DIRECTION('ref_axis',(0.,2.22044604925031E-16,1.));
#1491=DIRECTION('',(0.,2.22044604925031E-16,1.));
#1492=DIRECTION('',(0.,2.22044604925031E-16,1.));
#1493=DIRECTION('',(1.,0.,0.));
#1494=DIRECTION('center_axis',(0.,-2.22044604925031E-16,-1.));
#1495=DIRECTION('ref_axis',(0.,1.,-2.22044604925031E-16));
#1496=DIRECTION('',(0.,1.,-2.22044604925031E-16));
#1497=DIRECTION('',(0.,1.,-2.22044604925031E-16));
#1498=DIRECTION('',(1.,0.,0.));
#1499=DIRECTION('center_axis',(0.,-1.,2.22044604925031E-16));
#1500=DIRECTION('ref_axis',(0.,-2.22044604925031E-16,-1.));
#1501=DIRECTION('',(0.,-2.22044604925031E-16,-1.));
#1502=DIRECTION('',(0.,-2.22044604925031E-16,-1.));
#1503=DIRECTION('center_axis',(1.,0.,0.));
#1504=DIRECTION('ref_axis',(0.,1.,-2.22044604925031E-16));
#1505=DIRECTION('center_axis',(1.,0.,0.));
#1506=DIRECTION('ref_axis',(0.,1.,-2.22044604925031E-16));
#1507=DIRECTION('center_axis',(0.,1.,0.));
#1508=DIRECTION('ref_axis',(-1.,0.,0.));
#1509=DIRECTION('',(-1.,0.,0.));
#1510=DIRECTION('',(0.,0.,1.));
#1511=DIRECTION('',(-1.,0.,0.));
#1512=DIRECTION('',(0.,0.,1.));
#1513=DIRECTION('center_axis',(1.,0.,0.));
#1514=DIRECTION('ref_axis',(0.,1.,0.));
#1515=DIRECTION('',(0.,1.,0.));
#1516=DIRECTION('',(0.,1.,0.));
#1517=DIRECTION('',(0.,0.,1.));
#1518=DIRECTION('center_axis',(0.,-1.,0.));
#1519=DIRECTION('ref_axis',(1.,0.,0.));
#1520=DIRECTION('',(1.,0.,0.));
#1521=DIRECTION('',(1.,0.,0.));
#1522=DIRECTION('',(0.,0.,1.));
#1523=DIRECTION('center_axis',(-1.,0.,0.));
#1524=DIRECTION('ref_axis',(0.,-1.,0.));
#1525=DIRECTION('',(0.,-1.,0.));
#1526=DIRECTION('',(0.,-1.,0.));
#1527=DIRECTION('center_axis',(0.,0.,1.));
#1528=DIRECTION('ref_axis',(1.,0.,0.));
#1529=DIRECTION('center_axis',(0.,0.,1.));
#1530=DIRECTION('ref_axis',(1.,0.,0.));
#1531=DIRECTION('center_axis',(0.,0.,-1.));
#1532=DIRECTION('ref_axis',(-1.,0.,0.));
#1533=DIRECTION('',(-1.,0.,0.));
#1534=DIRECTION('',(0.,1.,0.));
#1535=DIRECTION('',(-1.,0.,0.));
#1536=DIRECTION('',(0.,1.,0.));
#1537=DIRECTION('center_axis',(1.,0.,0.));
#1538=DIRECTION('ref_axis',(0.,0.,-1.));
#1539=DIRECTION('',(0.,0.,-1.));
#1540=DIRECTION('',(0.,0.,-1.));
#1541=DIRECTION('',(0.,1.,0.));
#1542=DIRECTION('center_axis',(0.,0.,1.));
#1543=DIRECTION('ref_axis',(1.,0.,0.));
#1544=DIRECTION('',(1.,0.,0.));
#1545=DIRECTION('',(1.,0.,0.));
#1546=DIRECTION('',(0.,1.,0.));
#1547=DIRECTION('center_axis',(-1.,0.,0.));
#1548=DIRECTION('ref_axis',(0.,0.,1.));
#1549=DIRECTION('',(0.,0.,1.));
#1550=DIRECTION('',(0.,0.,1.));
#1551=DIRECTION('center_axis',(0.,1.,0.));
#1552=DIRECTION('ref_axis',(0.,0.,1.));
#1553=DIRECTION('center_axis',(0.,1.,0.));
#1554=DIRECTION('ref_axis',(1.,0.,0.));
#1555=DIRECTION('center_axis',(0.,0.,-1.));
#1556=DIRECTION('ref_axis',(-1.,0.,0.));
#1557=DIRECTION('',(-1.,0.,0.));
#1558=DIRECTION('',(0.,1.,0.));
#1559=DIRECTION('',(-1.,0.,0.));
#1560=DIRECTION('',(0.,1.,0.));
#1561=DIRECTION('center_axis',(1.,0.,0.));
#1562=DIRECTION('ref_axis',(0.,0.,-1.));
#1563=DIRECTION('',(0.,0.,-1.));
#1564=DIRECTION('',(0.,0.,-1.));
#1565=DIRECTION('',(0.,1.,0.));
#1566=DIRECTION('center_axis',(0.,0.,1.));
#1567=DIRECTION('ref_axis',(1.,0.,0.));
#1568=DIRECTION('',(1.,0.,0.));
#1569=DIRECTION('',(1.,0.,0.));
#1570=DIRECTION('',(0.,1.,0.));
#1571=DIRECTION('center_axis',(-1.,0.,0.));
#1572=DIRECTION('ref_axis',(0.,0.,1.));
#1573=DIRECTION('',(0.,0.,1.));
#1574=DIRECTION('',(0.,0.,1.));
#1575=DIRECTION('center_axis',(0.,1.,0.));
#1576=DIRECTION('ref_axis',(0.,0.,1.));
#1577=DIRECTION('center_axis',(0.,1.,0.));
#1578=DIRECTION('ref_axis',(1.,0.,0.));
#1579=DIRECTION('center_axis',(0.,0.,-1.));
#1580=DIRECTION('ref_axis',(-1.,0.,0.));
#1581=DIRECTION('',(-1.,0.,0.));
#1582=DIRECTION('',(0.,1.,0.));
#1583=DIRECTION('',(-1.,0.,0.));
#1584=DIRECTION('',(0.,1.,0.));
#1585=DIRECTION('center_axis',(1.,0.,0.));
#1586=DIRECTION('ref_axis',(0.,0.,-1.));
#1587=DIRECTION('',(0.,0.,-1.));
#1588=DIRECTION('',(0.,0.,-1.));
#1589=DIRECTION('',(0.,1.,0.));
#1590=DIRECTION('center_axis',(0.,0.,1.));
#1591=DIRECTION('ref_axis',(1.,0.,0.));
#1592=DIRECTION('',(1.,0.,0.));
#1593=DIRECTION('',(1.,0.,0.));
#1594=DIRECTION('',(0.,1.,0.));
#1595=DIRECTION('center_axis',(-1.,0.,0.));
#1596=DIRECTION('ref_axis',(0.,0.,1.));
#1597=DIRECTION('',(0.,0.,1.));
#1598=DIRECTION('',(0.,0.,1.));
#1599=DIRECTION('center_axis',(0.,1.,0.));
#1600=DIRECTION('ref_axis',(0.,0.,1.));
#1601=DIRECTION('center_axis',(0.,1.,0.));
#1602=DIRECTION('ref_axis',(1.,0.,0.));
#1603=DIRECTION('center_axis',(0.,0.,-1.));
#1604=DIRECTION('ref_axis',(-1.,0.,0.));
#1605=DIRECTION('',(-1.,0.,0.));
#1606=DIRECTION('',(0.,1.,0.));
#1607=DIRECTION('',(-1.,0.,0.));
#1608=DIRECTION('',(0.,1.,0.));
#1609=DIRECTION('center_axis',(1.,0.,0.));
#1610=DIRECTION('ref_axis',(0.,0.,-1.));
#1611=DIRECTION('',(0.,0.,-1.));
#1612=DIRECTION('',(0.,0.,-1.));
#1613=DIRECTION('',(0.,1.,0.));
#1614=DIRECTION('center_axis',(0.,0.,1.));
#1615=DIRECTION('ref_axis',(1.,0.,0.));
#1616=DIRECTION('',(1.,0.,0.));
#1617=DIRECTION('',(1.,0.,0.));
#1618=DIRECTION('',(0.,1.,0.));
#1619=DIRECTION('center_axis',(-1.,0.,0.));
#1620=DIRECTION('ref_axis',(0.,0.,1.));
#1621=DIRECTION('',(0.,0.,1.));
#1622=DIRECTION('',(0.,0.,1.));
#1623=DIRECTION('center_axis',(0.,1.,0.));
#1624=DIRECTION('ref_axis',(0.,0.,1.));
#1625=DIRECTION('center_axis',(0.,1.,0.));
#1626=DIRECTION('ref_axis',(1.,0.,0.));
#1627=CARTESIAN_POINT('',(0.,0.,0.));
#1628=CARTESIAN_POINT('Origin',(1805.,263.,-205.));
#1629=CARTESIAN_POINT('',(1805.,263.,-205.));
#1630=CARTESIAN_POINT('',(-30.,263.,-205.));
#1631=CARTESIAN_POINT('',(1805.,263.,-205.));
#1632=CARTESIAN_POINT('',(-30.,265.,-205.));
#1633=CARTESIAN_POINT('',(-30.,263.,-205.));
#1634=CARTESIAN_POINT('',(1805.,265.,-205.));
#1635=CARTESIAN_POINT('',(1805.,265.,-205.));
#1636=CARTESIAN_POINT('',(1805.,263.,-205.));
#1637=CARTESIAN_POINT('Origin',(1805.,263.,705.));
#1638=CARTESIAN_POINT('',(1805.,263.,705.));
#1639=CARTESIAN_POINT('',(1805.,263.,705.));
#1640=CARTESIAN_POINT('',(1805.,265.,705.));
#1641=CARTESIAN_POINT('',(1805.,265.,705.));
#1642=CARTESIAN_POINT('',(1805.,263.,705.));
#1643=CARTESIAN_POINT('Origin',(-30.,263.,705.));
#1644=CARTESIAN_POINT('',(-30.,263.,705.));
#1645=CARTESIAN_POINT('',(-30.,263.,705.));
#1646=CARTESIAN_POINT('',(-30.,265.,705.));
#1647=CARTESIAN_POINT('',(-30.,265.,705.));
#1648=CARTESIAN_POINT('',(-30.,263.,705.));
#1649=CARTESIAN_POINT('Origin',(-30.,263.,-205.));
#1650=CARTESIAN_POINT('',(-30.,263.,-205.));
#1651=CARTESIAN_POINT('',(-30.,265.,-205.));
#1652=CARTESIAN_POINT('Origin',(887.5,265.,250.));
#1653=CARTESIAN_POINT('Origin',(887.5,263.,250.));
#1654=CARTESIAN_POINT('Origin',(1805.,-265.,-205.));
#1655=CARTESIAN_POINT('',(1805.,-265.,-205.));
#1656=CARTESIAN_POINT('',(-30.,-265.,-205.));
#1657=CARTESIAN_POINT('',(1805.,-265.,-205.));
#1658=CARTESIAN_POINT('',(-30.,-263.,-205.));
#1659=CARTESIAN_POINT('',(-30.,-265.,-205.));
#1660=CARTESIAN_POINT('',(1805.,-263.,-205.));
#1661=CARTESIAN_POINT('',(1805.,-263.,-205.));
#1662=CARTESIAN_POINT('',(1805.,-265.,-205.));
#1663=CARTESIAN_POINT('Origin',(1805.,-265.,705.));
#1664=CARTESIAN_POINT('',(1805.,-265.,705.));
#1665=CARTESIAN_POINT('',(1805.,-265.,705.));
#1666=CARTESIAN_POINT('',(1805.,-263.,705.));
#1667=CARTESIAN_POINT('',(1805.,-263.,705.));
#1668=CARTESIAN_POINT('',(1805.,-265.,705.));
#1669=CARTESIAN_POINT('Origin',(-30.,-265.,705.));
#1670=CARTESIAN_POINT('',(-30.,-265.,705.));
#1671=CARTESIAN_POINT('',(-30.,-265.,705.));
#1672=CARTESIAN_POINT('',(-30.,-263.,705.));
#1673=CARTESIAN_POINT('',(-30.,-263.,705.));
#1674=CARTESIAN_POINT('',(-30.,-265.,705.));
#1675=CARTESIAN_POINT('Origin',(-30.,-265.,-205.));
#1676=CARTESIAN_POINT('',(-30.,-265.,-205.));
#1677=CARTESIAN_POINT('',(-30.,-263.,-205.));
#1678=CARTESIAN_POINT('Origin',(887.5,-263.,250.));
#1679=CARTESIAN_POINT('Origin',(887.5,-265.,250.));
#1680=CARTESIAN_POINT('Origin',(1805.,265.,705.));
#1681=CARTESIAN_POINT('',(1805.,265.,705.));
#1682=CARTESIAN_POINT('',(-30.,265.,705.));
#1683=CARTESIAN_POINT('',(1805.,265.,705.));
#1684=CARTESIAN_POINT('',(-30.,265.,707.));
#1685=CARTESIAN_POINT('',(-30.,265.,705.));
#1686=CARTESIAN_POINT('',(1805.,265.,707.));
#1687=CARTESIAN_POINT('',(1805.,265.,707.));
#1688=CARTESIAN_POINT('',(1805.,265.,705.));
#1689=CARTESIAN_POINT('Origin',(1805.,-265.,705.));
#1690=CARTESIAN_POINT('',(1805.,-265.,705.));
#1691=CARTESIAN_POINT('',(1805.,-265.,705.));
#1692=CARTESIAN_POINT('',(1805.,-265.,707.));
#1693=CARTESIAN_POINT('',(1805.,-265.,707.));
#1694=CARTESIAN_POINT('',(1805.,-265.,705.));
#1695=CARTESIAN_POINT('Origin',(-30.,-265.,705.));
#1696=CARTESIAN_POINT('',(-30.,-265.,705.));
#1697=CARTESIAN_POINT('',(-30.,-265.,705.));
#1698=CARTESIAN_POINT('',(-30.,-265.,707.));
#1699=CARTESIAN_POINT('',(-30.,-265.,707.));
#1700=CARTESIAN_POINT('',(-30.,-265.,705.));
#1701=CARTESIAN_POINT('Origin',(-30.,265.,705.));
#1702=CARTESIAN_POINT('',(-30.,265.,705.));
#1703=CARTESIAN_POINT('',(-30.,265.,707.));
#1704=CARTESIAN_POINT('Origin',(887.5,0.,707.));
#1705=CARTESIAN_POINT('Origin',(887.5,0.,705.));
#1706=CARTESIAN_POINT('Origin',(-27.,-110.,-215.));
#1707=CARTESIAN_POINT('',(2.,-110.,-205.));
#1708=CARTESIAN_POINT('',(-27.,-110.,-205.));
#1709=CARTESIAN_POINT('',(430.25,-110.,-205.));
#1710=CARTESIAN_POINT('',(2.,-110.,-207.));
#1711=CARTESIAN_POINT('',(2.,-110.,-215.));
#1712=CARTESIAN_POINT('',(-27.,-110.,-207.));
#1713=CARTESIAN_POINT('',(430.25,-110.,-207.));
#1714=CARTESIAN_POINT('',(-27.,-110.,-215.));
#1715=CARTESIAN_POINT('Origin',(-27.,110.,-215.));
#1716=CARTESIAN_POINT('',(-27.,110.,-205.));
#1717=CARTESIAN_POINT('',(-27.,55.,-205.));
#1718=CARTESIAN_POINT('',(-27.,110.,-207.));
#1719=CARTESIAN_POINT('',(-27.,55.,-207.));
#1720=CARTESIAN_POINT('',(-27.,110.,-215.));
#1721=CARTESIAN_POINT('Origin',(2.,110.,-215.));
#1722=CARTESIAN_POINT('',(2.,110.,-205.));
#1723=CARTESIAN_POINT('',(444.75,110.,-205.));
#1724=CARTESIAN_POINT('',(2.,110.,-207.));
#1725=CARTESIAN_POINT('',(444.75,110.,-207.));
#1726=CARTESIAN_POINT('',(2.,110.,-215.));
#1727=CARTESIAN_POINT('Origin',(2.,-110.,-215.));
#1728=CARTESIAN_POINT('',(2.00000000000003,-55.,-205.));
#1729=CARTESIAN_POINT('',(2.00000000000003,-55.,-207.));
#1730=CARTESIAN_POINT('Origin',(1805.,265.,-207.));
#1731=CARTESIAN_POINT('',(1805.,265.,-207.));
#1732=CARTESIAN_POINT('',(-30.,265.,-207.));
#1733=CARTESIAN_POINT('',(1805.,265.,-207.));
#1734=CARTESIAN_POINT('',(-30.,265.,-205.));
#1735=CARTESIAN_POINT('',(-30.,265.,-207.));
#1736=CARTESIAN_POINT('',(1805.,265.,-205.));
#1737=CARTESIAN_POINT('',(1805.,265.,-205.));
#1738=CARTESIAN_POINT('',(1805.,265.,-207.));
#1739=CARTESIAN_POINT('Origin',(1805.,-265.,-207.));
#1740=CARTESIAN_POINT('',(1805.,-265.,-207.));
#1741=CARTESIAN_POINT('',(1805.,-265.,-207.));
#1742=CARTESIAN_POINT('',(1805.,-265.,-205.));
#1743=CARTESIAN_POINT('',(1805.,-265.,-205.));
#1744=CARTESIAN_POINT('',(1805.,-265.,-207.));
#1745=CARTESIAN_POINT('Origin',(-30.,-265.,-207.));
#1746=CARTESIAN_POINT('',(-30.,-265.,-207.));
#1747=CARTESIAN_POINT('',(-30.,-265.,-207.));
#1748=CARTESIAN_POINT('',(-30.,-265.,-205.));
#1749=CARTESIAN_POINT('',(-30.,-265.,-205.));
#1750=CARTESIAN_POINT('',(-30.,-265.,-207.));
#1751=CARTESIAN_POINT('Origin',(-30.,265.,-207.));
#1752=CARTESIAN_POINT('',(-30.,265.,-207.));
#1753=CARTESIAN_POINT('',(-30.,265.,-205.));
#1754=CARTESIAN_POINT('Origin',(887.5,0.,-205.));
#1755=CARTESIAN_POINT('Origin',(887.5,0.,-207.));
#1756=CARTESIAN_POINT('Origin',(-32.,265.,707.));
#1757=CARTESIAN_POINT('',(-32.,265.,707.));
#1758=CARTESIAN_POINT('',(-32.,-265.,707.));
#1759=CARTESIAN_POINT('',(-32.,265.,707.));
#1760=CARTESIAN_POINT('',(-30.,-265.,707.));
#1761=CARTESIAN_POINT('',(-32.,-265.,707.));
#1762=CARTESIAN_POINT('',(-30.,265.,707.));
#1763=CARTESIAN_POINT('',(-30.,265.,707.));
#1764=CARTESIAN_POINT('',(-32.,265.,707.));
#1765=CARTESIAN_POINT('Origin',(-32.,265.,-207.));
#1766=CARTESIAN_POINT('',(-32.,265.,-207.));
#1767=CARTESIAN_POINT('',(-32.,265.,-207.));
#1768=CARTESIAN_POINT('',(-30.,265.,-207.));
#1769=CARTESIAN_POINT('',(-30.,265.,-207.));
#1770=CARTESIAN_POINT('',(-32.,265.,-207.));
#1771=CARTESIAN_POINT('Origin',(-32.,-265.,-207.));
#1772=CARTESIAN_POINT('',(-32.,-265.,-207.));
#1773=CARTESIAN_POINT('',(-32.,-265.,-207.));
#1774=CARTESIAN_POINT('',(-30.,-265.,-207.));
#1775=CARTESIAN_POINT('',(-30.,-265.,-207.));
#1776=CARTESIAN_POINT('',(-32.,-265.,-207.));
#1777=CARTESIAN_POINT('Origin',(-32.,-265.,707.));
#1778=CARTESIAN_POINT('',(-32.,-265.,707.));
#1779=CARTESIAN_POINT('',(-30.,-265.,707.));
#1780=CARTESIAN_POINT('Origin',(-30.,5.55111512312578E-14,250.));
#1781=CARTESIAN_POINT('Origin',(-32.,5.55111512312578E-14,250.));
#1782=CARTESIAN_POINT('Origin',(1795.,-80.,-9.99999999999998));
#1783=CARTESIAN_POINT('',(1807.,80.,-10.));
#1784=CARTESIAN_POINT('',(1807.,-80.,-9.99999999999998));
#1785=CARTESIAN_POINT('',(1807.,-40.,-9.99999999999999));
#1786=CARTESIAN_POINT('',(1805.,80.,-10.));
#1787=CARTESIAN_POINT('',(1795.,80.,-10.));
#1788=CARTESIAN_POINT('',(1805.,-80.,-9.99999999999998));
#1789=CARTESIAN_POINT('',(1805.,-40.,-9.99999999999999));
#1790=CARTESIAN_POINT('',(1795.,-80.,-9.99999999999998));
#1791=CARTESIAN_POINT('Origin',(1795.,-80.,150.));
#1792=CARTESIAN_POINT('',(1807.,-80.,150.));
#1793=CARTESIAN_POINT('',(1807.,-80.,200.));
#1794=CARTESIAN_POINT('',(1805.,-80.,150.));
#1795=CARTESIAN_POINT('',(1805.,-80.,200.));
#1796=CARTESIAN_POINT('',(1795.,-80.,150.));
#1797=CARTESIAN_POINT('Origin',(1795.,80.,150.));
#1798=CARTESIAN_POINT('',(1807.,80.,150.));
#1799=CARTESIAN_POINT('',(1807.,40.,150.));
#1800=CARTESIAN_POINT('',(1805.,80.,150.));
#1801=CARTESIAN_POINT('',(1805.,40.,150.));
#1802=CARTESIAN_POINT('',(1795.,80.,150.));
#1803=CARTESIAN_POINT('Origin',(1795.,80.,-10.));
#1804=CARTESIAN_POINT('',(1807.,80.,120.));
#1805=CARTESIAN_POINT('',(1805.,80.,120.));
#1806=CARTESIAN_POINT('Origin',(1805.,265.,707.));
#1807=CARTESIAN_POINT('',(1805.,265.,707.));
#1808=CARTESIAN_POINT('',(1805.,-265.,707.));
#1809=CARTESIAN_POINT('',(1805.,265.,707.));
#1810=CARTESIAN_POINT('',(1807.,-265.,707.));
#1811=CARTESIAN_POINT('',(1805.,-265.,707.));
#1812=CARTESIAN_POINT('',(1807.,265.,707.));
#1813=CARTESIAN_POINT('',(1807.,265.,707.));
#1814=CARTESIAN_POINT('',(1805.,265.,707.));
#1815=CARTESIAN_POINT('Origin',(1805.,265.,-207.));
#1816=CARTESIAN_POINT('',(1805.,265.,-207.));
#1817=CARTESIAN_POINT('',(1805.,265.,-207.));
#1818=CARTESIAN_POINT('',(1807.,265.,-207.));
#1819=CARTESIAN_POINT('',(1807.,265.,-207.));
#1820=CARTESIAN_POINT('',(1805.,265.,-207.));
#1821=CARTESIAN_POINT('Origin',(1805.,-265.,-207.));
#1822=CARTESIAN_POINT('',(1805.,-265.,-207.));
#1823=CARTESIAN_POINT('',(1805.,-265.,-207.));
#1824=CARTESIAN_POINT('',(1807.,-265.,-207.));
#1825=CARTESIAN_POINT('',(1807.,-265.,-207.));
#1826=CARTESIAN_POINT('',(1805.,-265.,-207.));
#1827=CARTESIAN_POINT('Origin',(1805.,-265.,707.));
#1828=CARTESIAN_POINT('',(1805.,-265.,707.));
#1829=CARTESIAN_POINT('',(1807.,-265.,707.));
#1830=CARTESIAN_POINT('Origin',(1807.,5.55111512312578E-14,250.));
#1831=CARTESIAN_POINT('Origin',(1805.,5.55111512312578E-14,250.));
#1832=CARTESIAN_POINT('Origin',(1670.,100.,707.));
#1833=CARTESIAN_POINT('',(1670.,100.,707.));
#1834=CARTESIAN_POINT('',(70.,100.,707.));
#1835=CARTESIAN_POINT('',(1670.,100.,707.));
#1836=CARTESIAN_POINT('',(70.,100.,710.));
#1837=CARTESIAN_POINT('',(70.,100.,707.));
#1838=CARTESIAN_POINT('',(1670.,100.,710.));
#1839=CARTESIAN_POINT('',(1670.,100.,710.));
#1840=CARTESIAN_POINT('',(1670.,100.,707.));
#1841=CARTESIAN_POINT('Origin',(1670.,-100.,707.));
#1842=CARTESIAN_POINT('',(1670.,-100.,707.));
#1843=CARTESIAN_POINT('',(1670.,-100.,707.));
#1844=CARTESIAN_POINT('',(1670.,-100.,710.));
#1845=CARTESIAN_POINT('',(1670.,-100.,710.));
#1846=CARTESIAN_POINT('',(1670.,-100.,707.));
#1847=CARTESIAN_POINT('Origin',(70.,-100.,707.));
#1848=CARTESIAN_POINT('',(70.,-100.,707.));
#1849=CARTESIAN_POINT('',(70.,-100.,707.));
#1850=CARTESIAN_POINT('',(70.,-100.,710.));
#1851=CARTESIAN_POINT('',(70.,-100.,710.));
#1852=CARTESIAN_POINT('',(70.,-100.,707.));
#1853=CARTESIAN_POINT('Origin',(70.,100.,707.));
#1854=CARTESIAN_POINT('',(70.,100.,707.));
#1855=CARTESIAN_POINT('',(70.,100.,710.));
#1856=CARTESIAN_POINT('Origin',(870.,0.,710.));
#1857=CARTESIAN_POINT('Origin',(870.,0.,707.));
#1858=CARTESIAN_POINT('Origin',(300.,-255.,-180.));
#1859=CARTESIAN_POINT('',(300.,-255.,-180.));
#1860=CARTESIAN_POINT('',(0.,-255.,-180.));
#1861=CARTESIAN_POINT('',(300.,-255.,-180.));
#1862=CARTESIAN_POINT('',(0.,-115.,-180.));
#1863=CARTESIAN_POINT('',(0.,-255.,-180.));
#1864=CARTESIAN_POINT('',(300.,-115.,-180.));
#1865=CARTESIAN_POINT('',(300.,-115.,-180.));
#1866=CARTESIAN_POINT('',(300.,-255.,-180.));
#1867=CARTESIAN_POINT('Origin',(300.,-255.,-30.));
#1868=CARTESIAN_POINT('',(300.,-255.,-30.));
#1869=CARTESIAN_POINT('',(300.,-255.,-30.));
#1870=CARTESIAN_POINT('',(300.,-115.,-30.));
#1871=CARTESIAN_POINT('',(300.,-115.,-30.));
#1872=CARTESIAN_POINT('',(300.,-255.,-30.));
#1873=CARTESIAN_POINT('Origin',(0.,-255.,-30.));
#1874=CARTESIAN_POINT('',(0.,-255.,-30.));
#1875=CARTESIAN_POINT('',(0.,-255.,-30.));
#1876=CARTESIAN_POINT('',(0.,-115.,-30.));
#1877=CARTESIAN_POINT('',(0.,-115.,-30.));
#1878=CARTESIAN_POINT('',(0.,-255.,-30.));
#1879=CARTESIAN_POINT('Origin',(0.,-255.,-180.));
#1880=CARTESIAN_POINT('',(0.,-255.,-180.));
#1881=CARTESIAN_POINT('',(0.,-115.,-180.));
#1882=CARTESIAN_POINT('Origin',(150.,-115.,-105.));
#1883=CARTESIAN_POINT('Origin',(150.,-255.,-105.));
#1884=CARTESIAN_POINT('Origin',(580.,-255.,-130.));
#1885=CARTESIAN_POINT('',(580.,-255.,-130.));
#1886=CARTESIAN_POINT('',(330.,-255.,-130.));
#1887=CARTESIAN_POINT('',(580.,-255.,-130.));
#1888=CARTESIAN_POINT('',(330.,-115.,-130.));
#1889=CARTESIAN_POINT('',(330.,-255.,-130.));
#1890=CARTESIAN_POINT('',(580.,-115.,-130.));
#1891=CARTESIAN_POINT('',(580.,-115.,-130.));
#1892=CARTESIAN_POINT('',(580.,-255.,-130.));
#1893=CARTESIAN_POINT('Origin',(580.,-255.,-30.));
#1894=CARTESIAN_POINT('',(580.,-255.,-30.));
#1895=CARTESIAN_POINT('',(580.,-255.,-30.));
#1896=CARTESIAN_POINT('',(580.,-115.,-30.));
#1897=CARTESIAN_POINT('',(580.,-115.,-30.));
#1898=CARTESIAN_POINT('',(580.,-255.,-30.));
#1899=CARTESIAN_POINT('Origin',(330.,-255.,-30.));
#1900=CARTESIAN_POINT('',(330.,-255.,-30.));
#1901=CARTESIAN_POINT('',(330.,-255.,-30.));
#1902=CARTESIAN_POINT('',(330.,-115.,-30.));
#1903=CARTESIAN_POINT('',(330.,-115.,-30.));
#1904=CARTESIAN_POINT('',(330.,-255.,-30.));
#1905=CARTESIAN_POINT('Origin',(330.,-255.,-130.));
#1906=CARTESIAN_POINT('',(330.,-255.,-130.));
#1907=CARTESIAN_POINT('',(330.,-115.,-130.));
#1908=CARTESIAN_POINT('Origin',(455.,-115.,-80.));
#1909=CARTESIAN_POINT('Origin',(455.,-255.,-80.));
#1910=CARTESIAN_POINT('Origin',(760.,-255.,-130.));
#1911=CARTESIAN_POINT('',(760.,-255.,-130.));
#1912=CARTESIAN_POINT('',(610.,-255.,-130.));
#1913=CARTESIAN_POINT('',(760.,-255.,-130.));
#1914=CARTESIAN_POINT('',(610.,-135.,-130.));
#1915=CARTESIAN_POINT('',(610.,-255.,-130.));
#1916=CARTESIAN_POINT('',(760.,-135.,-130.));
#1917=CARTESIAN_POINT('',(760.,-135.,-130.));
#1918=CARTESIAN_POINT('',(760.,-255.,-130.));
#1919=CARTESIAN_POINT('Origin',(760.,-255.,-50.));
#1920=CARTESIAN_POINT('',(760.,-255.,-50.));
#1921=CARTESIAN_POINT('',(760.,-255.,-50.));
#1922=CARTESIAN_POINT('',(760.,-135.,-50.));
#1923=CARTESIAN_POINT('',(760.,-135.,-50.));
#1924=CARTESIAN_POINT('',(760.,-255.,-50.));
#1925=CARTESIAN_POINT('Origin',(610.,-255.,-50.));
#1926=CARTESIAN_POINT('',(610.,-255.,-50.));
#1927=CARTESIAN_POINT('',(610.,-255.,-50.));
#1928=CARTESIAN_POINT('',(610.,-135.,-50.));
#1929=CARTESIAN_POINT('',(610.,-135.,-50.));
#1930=CARTESIAN_POINT('',(610.,-255.,-50.));
#1931=CARTESIAN_POINT('Origin',(610.,-255.,-130.));
#1932=CARTESIAN_POINT('',(610.,-255.,-130.));
#1933=CARTESIAN_POINT('',(610.,-135.,-130.));
#1934=CARTESIAN_POINT('Origin',(685.,-135.,-90.));
#1935=CARTESIAN_POINT('Origin',(685.,-255.,-90.));
#1936=CARTESIAN_POINT('Origin',(850.,-255.,-130.));
#1937=CARTESIAN_POINT('',(850.,-255.,-130.));
#1938=CARTESIAN_POINT('',(790.,-255.,-130.));
#1939=CARTESIAN_POINT('',(850.,-255.,-130.));
#1940=CARTESIAN_POINT('',(790.,-195.,-130.));
#1941=CARTESIAN_POINT('',(790.,-255.,-130.));
#1942=CARTESIAN_POINT('',(850.,-195.,-130.));
#1943=CARTESIAN_POINT('',(850.,-195.,-130.));
#1944=CARTESIAN_POINT('',(850.,-255.,-130.));
#1945=CARTESIAN_POINT('Origin',(850.,-255.,-80.));
#1946=CARTESIAN_POINT('',(850.,-255.,-80.));
#1947=CARTESIAN_POINT('',(850.,-255.,-80.));
#1948=CARTESIAN_POINT('',(850.,-195.,-80.));
#1949=CARTESIAN_POINT('',(850.,-195.,-80.));
#1950=CARTESIAN_POINT('',(850.,-255.,-80.));
#1951=CARTESIAN_POINT('Origin',(790.,-255.,-80.));
#1952=CARTESIAN_POINT('',(790.,-255.,-80.));
#1953=CARTESIAN_POINT('',(790.,-255.,-80.));
#1954=CARTESIAN_POINT('',(790.,-195.,-80.));
#1955=CARTESIAN_POINT('',(790.,-195.,-80.));
#1956=CARTESIAN_POINT('',(790.,-255.,-80.));
#1957=CARTESIAN_POINT('Origin',(790.,-255.,-130.));
#1958=CARTESIAN_POINT('',(790.,-255.,-130.));
#1959=CARTESIAN_POINT('',(790.,-195.,-130.));
#1960=CARTESIAN_POINT('Origin',(820.,-195.,-105.));
#1961=CARTESIAN_POINT('Origin',(820.,-255.,-105.));
#1962=UNCERTAINTY_MEASURE_WITH_UNIT(LENGTH_MEASURE(0.01),#1966,
'DISTANCE_ACCURACY_VALUE',
'Maximum model space distance between geometric entities at asserted c
onnectivities');
#1963=UNCERTAINTY_MEASURE_WITH_UNIT(LENGTH_MEASURE(0.01),#1966,
'DISTANCE_ACCURACY_VALUE',
'Maximum model space distance between geometric entities at asserted c
onnectivities');
#1964=(
GEOMETRIC_REPRESENTATION_CONTEXT(3)
GLOBAL_UNCERTAINTY_ASSIGNED_CONTEXT((#1962))
GLOBAL_UNIT_ASSIGNED_CONTEXT((#1966,#1968,#1969))
REPRESENTATION_CONTEXT('','3D')
);
#1965=(
GEOMETRIC_REPRESENTATION_CONTEXT(3)
GLOBAL_UNCERTAINTY_ASSIGNED_CONTEXT((#1963))
GLOBAL_UNIT_ASSIGNED_CONTEXT((#1966,#1968,#1969))
REPRESENTATION_CONTEXT('','3D')
);
#1966=(
LENGTH_UNIT()
NAMED_UNIT(*)
SI_UNIT(.MILLI.,.METRE.)
);
#1967=(
LENGTH_UNIT()
NAMED_UNIT(*)
SI_UNIT($,.METRE.)
);
#1968=(
NAMED_UNIT(*)
PLANE_ANGLE_UNIT()
SI_UNIT($,.RADIAN.)
);
#1969=(
NAMED_UNIT(*)
SI_UNIT($,.STERADIAN.)
SOLID_ANGLE_UNIT()
);
#1970=SHAPE_DEFINITION_REPRESENTATION(#1971,#1972);
#1971=PRODUCT_DEFINITION_SHAPE('',$,#1974);
#1972=SHAPE_REPRESENTATION('',(#1246),#1964);
#1973=PRODUCT_DEFINITION_CONTEXT('part definition',#1978,'design');
#1974=PRODUCT_DEFINITION('EMOCD_Enclosure_FRESH',
'EMOCD_Enclosure_FRESH v4',#1975,#1973);
#1975=PRODUCT_DEFINITION_FORMATION('',$,#1980);
#1976=PRODUCT_RELATED_PRODUCT_CATEGORY('EMOCD_Enclosure_FRESH v4',
'EMOCD_Enclosure_FRESH v4',(#1980));
#1977=APPLICATION_PROTOCOL_DEFINITION('international standard',
'automotive_design',2009,#1978);
#1978=APPLICATION_CONTEXT(
'Core Data for Automotive Mechanical Design Process');
#1979=PRODUCT_CONTEXT('part definition',#1978,'mechanical');
#1980=PRODUCT('EMOCD_Enclosure_FRESH','EMOCD_Enclosure_FRESH v4',$,(#1979));
#1981=PRESENTATION_STYLE_ASSIGNMENT((#1983));
#1982=PRESENTATION_STYLE_ASSIGNMENT((#1984));
#1983=SURFACE_STYLE_USAGE(.BOTH.,#1985);
#1984=SURFACE_STYLE_USAGE(.BOTH.,#1986);
#1985=SURFACE_SIDE_STYLE('',(#1987));
#1986=SURFACE_SIDE_STYLE('',(#1988));
#1987=SURFACE_STYLE_FILL_AREA(#1989);
#1988=SURFACE_STYLE_FILL_AREA(#1990);
#1989=FILL_AREA_STYLE('Steel - Satin',(#1991));
#1990=FILL_AREA_STYLE('Aluminum - Satin',(#1992));
#1991=FILL_AREA_STYLE_COLOUR('Steel - Satin',#1993);
#1992=FILL_AREA_STYLE_COLOUR('Aluminum - Satin',#1994);
#1993=COLOUR_RGB('Steel - Satin',0.627450980392157,0.627450980392157,0.627450980392157);
#1994=COLOUR_RGB('Aluminum - Satin',0.96078431372549,0.96078431372549,0.964705882352941);
ENDSEC;
END-ISO-10303-21;
