ISO-10303-21;
HEADER;
/* Generated by software containing ST-Developer
 * from STEP Tools, Inc. (www.steptools.com) 
 */

FILE_DESCRIPTION(
/* description */ (''),
/* implementation_level */ '2;1');

FILE_NAME(
/* name */ 'EMOCD_Track_Gen2.step',
/* time_stamp */ '2026-07-28T19:15:21+05:30',
/* author */ (''),
/* organization */ (''),
/* preprocessor_version */ 'ST-DEVELOPER v20.1',
/* originating_system */ 'Autodesk Translation Framework v15.8.0.0',
/* authorisation */ '');

FILE_SCHEMA (('AUTOMOTIVE_DESIGN { 1 0 10303 214 3 1 1 }'));
ENDSEC;

DATA;
#10=MECHANICAL_DESIGN_GEOMETRIC_PRESENTATION_REPRESENTATION('',(#13,#14,
#15,#16),#908);
#11=SHAPE_REPRESENTATION_RELATIONSHIP('SRR','None',#915,#12);
#12=ADVANCED_BREP_SHAPE_REPRESENTATION('',(#17,#18,#19,#20),#907);
#13=STYLED_ITEM('',(#925),#17);
#14=STYLED_ITEM('',(#925),#18);
#15=STYLED_ITEM('',(#926),#19);
#16=STYLED_ITEM('',(#926),#20);
#17=MANIFOLD_SOLID_BREP('longeron_P',#565);
#18=MANIFOLD_SOLID_BREP('longeron_S',#566);
#19=MANIFOLD_SOLID_BREP('launch_lock_P',#567);
#20=MANIFOLD_SOLID_BREP('launch_lock_S',#568);
#21=FACE_BOUND('',#63,.T.);
#22=FACE_BOUND('',#66,.T.);
#23=FACE_BOUND('',#75,.T.);
#24=FACE_BOUND('',#78,.T.);
#25=FACE_OUTER_BOUND('',#57,.T.);
#26=FACE_OUTER_BOUND('',#58,.T.);
#27=FACE_OUTER_BOUND('',#59,.T.);
#28=FACE_OUTER_BOUND('',#60,.T.);
#29=FACE_OUTER_BOUND('',#61,.T.);
#30=FACE_OUTER_BOUND('',#62,.T.);
#31=FACE_OUTER_BOUND('',#64,.T.);
#32=FACE_OUTER_BOUND('',#65,.T.);
#33=FACE_OUTER_BOUND('',#67,.T.);
#34=FACE_OUTER_BOUND('',#68,.T.);
#35=FACE_OUTER_BOUND('',#69,.T.);
#36=FACE_OUTER_BOUND('',#70,.T.);
#37=FACE_OUTER_BOUND('',#71,.T.);
#38=FACE_OUTER_BOUND('',#72,.T.);
#39=FACE_OUTER_BOUND('',#73,.T.);
#40=FACE_OUTER_BOUND('',#74,.T.);
#41=FACE_OUTER_BOUND('',#76,.T.);
#42=FACE_OUTER_BOUND('',#77,.T.);
#43=FACE_OUTER_BOUND('',#79,.T.);
#44=FACE_OUTER_BOUND('',#80,.T.);
#45=FACE_OUTER_BOUND('',#81,.T.);
#46=FACE_OUTER_BOUND('',#82,.T.);
#47=FACE_OUTER_BOUND('',#83,.T.);
#48=FACE_OUTER_BOUND('',#84,.T.);
#49=FACE_OUTER_BOUND('',#85,.T.);
#50=FACE_OUTER_BOUND('',#86,.T.);
#51=FACE_OUTER_BOUND('',#87,.T.);
#52=FACE_OUTER_BOUND('',#88,.T.);
#53=FACE_OUTER_BOUND('',#89,.T.);
#54=FACE_OUTER_BOUND('',#90,.T.);
#55=FACE_OUTER_BOUND('',#91,.T.);
#56=FACE_OUTER_BOUND('',#92,.T.);
#57=EDGE_LOOP('',(#357,#358,#359,#360));
#58=EDGE_LOOP('',(#361,#362,#363,#364));
#59=EDGE_LOOP('',(#365,#366,#367,#368));
#60=EDGE_LOOP('',(#369,#370,#371,#372));
#61=EDGE_LOOP('',(#373,#374,#375,#376));
#62=EDGE_LOOP('',(#377,#378,#379,#380));
#63=EDGE_LOOP('',(#381,#382,#383,#384));
#64=EDGE_LOOP('',(#385,#386,#387,#388));
#65=EDGE_LOOP('',(#389,#390,#391,#392));
#66=EDGE_LOOP('',(#393,#394,#395,#396));
#67=EDGE_LOOP('',(#397,#398,#399,#400));
#68=EDGE_LOOP('',(#401,#402,#403,#404));
#69=EDGE_LOOP('',(#405,#406,#407,#408));
#70=EDGE_LOOP('',(#409,#410,#411,#412));
#71=EDGE_LOOP('',(#413,#414,#415,#416));
#72=EDGE_LOOP('',(#417,#418,#419,#420));
#73=EDGE_LOOP('',(#421,#422,#423,#424));
#74=EDGE_LOOP('',(#425,#426,#427,#428));
#75=EDGE_LOOP('',(#429,#430,#431,#432));
#76=EDGE_LOOP('',(#433,#434,#435,#436));
#77=EDGE_LOOP('',(#437,#438,#439,#440));
#78=EDGE_LOOP('',(#441,#442,#443,#444));
#79=EDGE_LOOP('',(#445,#446,#447,#448));
#80=EDGE_LOOP('',(#449,#450,#451,#452));
#81=EDGE_LOOP('',(#453,#454,#455,#456));
#82=EDGE_LOOP('',(#457,#458,#459,#460));
#83=EDGE_LOOP('',(#461,#462,#463,#464));
#84=EDGE_LOOP('',(#465,#466,#467,#468));
#85=EDGE_LOOP('',(#469,#470,#471,#472));
#86=EDGE_LOOP('',(#473,#474,#475,#476));
#87=EDGE_LOOP('',(#477,#478,#479,#480));
#88=EDGE_LOOP('',(#481,#482,#483,#484));
#89=EDGE_LOOP('',(#485,#486,#487,#488));
#90=EDGE_LOOP('',(#489,#490,#491,#492));
#91=EDGE_LOOP('',(#493,#494,#495,#496));
#92=EDGE_LOOP('',(#497,#498,#499,#500));
#93=LINE('',#756,#165);
#94=LINE('',#758,#166);
#95=LINE('',#760,#167);
#96=LINE('',#761,#168);
#97=LINE('',#764,#169);
#98=LINE('',#766,#170);
#99=LINE('',#767,#171);
#100=LINE('',#770,#172);
#101=LINE('',#772,#173);
#102=LINE('',#773,#174);
#103=LINE('',#775,#175);
#104=LINE('',#776,#176);
#105=LINE('',#780,#177);
#106=LINE('',#782,#178);
#107=LINE('',#784,#179);
#108=LINE('',#785,#180);
#109=LINE('',#788,#181);
#110=LINE('',#790,#182);
#111=LINE('',#791,#183);
#112=LINE('',#794,#184);
#113=LINE('',#796,#185);
#114=LINE('',#797,#186);
#115=LINE('',#799,#187);
#116=LINE('',#800,#188);
#117=LINE('',#806,#189);
#118=LINE('',#808,#190);
#119=LINE('',#810,#191);
#120=LINE('',#811,#192);
#121=LINE('',#814,#193);
#122=LINE('',#816,#194);
#123=LINE('',#817,#195);
#124=LINE('',#820,#196);
#125=LINE('',#822,#197);
#126=LINE('',#823,#198);
#127=LINE('',#825,#199);
#128=LINE('',#826,#200);
#129=LINE('',#830,#201);
#130=LINE('',#832,#202);
#131=LINE('',#834,#203);
#132=LINE('',#835,#204);
#133=LINE('',#838,#205);
#134=LINE('',#840,#206);
#135=LINE('',#841,#207);
#136=LINE('',#844,#208);
#137=LINE('',#846,#209);
#138=LINE('',#847,#210);
#139=LINE('',#849,#211);
#140=LINE('',#850,#212);
#141=LINE('',#856,#213);
#142=LINE('',#858,#214);
#143=LINE('',#860,#215);
#144=LINE('',#861,#216);
#145=LINE('',#864,#217);
#146=LINE('',#866,#218);
#147=LINE('',#867,#219);
#148=LINE('',#870,#220);
#149=LINE('',#872,#221);
#150=LINE('',#873,#222);
#151=LINE('',#875,#223);
#152=LINE('',#876,#224);
#153=LINE('',#882,#225);
#154=LINE('',#884,#226);
#155=LINE('',#886,#227);
#156=LINE('',#887,#228);
#157=LINE('',#890,#229);
#158=LINE('',#892,#230);
#159=LINE('',#893,#231);
#160=LINE('',#896,#232);
#161=LINE('',#898,#233);
#162=LINE('',#899,#234);
#163=LINE('',#901,#235);
#164=LINE('',#902,#236);
#165=VECTOR('',#618,10.);
#166=VECTOR('',#619,10.);
#167=VECTOR('',#620,10.);
#168=VECTOR('',#621,10.);
#169=VECTOR('',#624,10.);
#170=VECTOR('',#625,10.);
#171=VECTOR('',#626,10.);
#172=VECTOR('',#629,10.);
#173=VECTOR('',#630,10.);
#174=VECTOR('',#631,10.);
#175=VECTOR('',#634,10.);
#176=VECTOR('',#635,10.);
#177=VECTOR('',#638,10.);
#178=VECTOR('',#639,10.);
#179=VECTOR('',#640,10.);
#180=VECTOR('',#641,10.);
#181=VECTOR('',#644,10.);
#182=VECTOR('',#645,10.);
#183=VECTOR('',#646,10.);
#184=VECTOR('',#649,10.);
#185=VECTOR('',#650,10.);
#186=VECTOR('',#651,10.);
#187=VECTOR('',#654,10.);
#188=VECTOR('',#655,10.);
#189=VECTOR('',#662,10.);
#190=VECTOR('',#663,10.);
#191=VECTOR('',#664,10.);
#192=VECTOR('',#665,10.);
#193=VECTOR('',#668,10.);
#194=VECTOR('',#669,10.);
#195=VECTOR('',#670,10.);
#196=VECTOR('',#673,10.);
#197=VECTOR('',#674,10.);
#198=VECTOR('',#675,10.);
#199=VECTOR('',#678,10.);
#200=VECTOR('',#679,10.);
#201=VECTOR('',#682,10.);
#202=VECTOR('',#683,10.);
#203=VECTOR('',#684,10.);
#204=VECTOR('',#685,10.);
#205=VECTOR('',#688,10.);
#206=VECTOR('',#689,10.);
#207=VECTOR('',#690,10.);
#208=VECTOR('',#693,10.);
#209=VECTOR('',#694,10.);
#210=VECTOR('',#695,10.);
#211=VECTOR('',#698,10.);
#212=VECTOR('',#699,10.);
#213=VECTOR('',#706,10.);
#214=VECTOR('',#707,10.);
#215=VECTOR('',#708,10.);
#216=VECTOR('',#709,10.);
#217=VECTOR('',#712,10.);
#218=VECTOR('',#713,10.);
#219=VECTOR('',#714,10.);
#220=VECTOR('',#717,10.);
#221=VECTOR('',#718,10.);
#222=VECTOR('',#719,10.);
#223=VECTOR('',#722,10.);
#224=VECTOR('',#723,10.);
#225=VECTOR('',#730,10.);
#226=VECTOR('',#731,10.);
#227=VECTOR('',#732,10.);
#228=VECTOR('',#733,10.);
#229=VECTOR('',#736,10.);
#230=VECTOR('',#737,10.);
#231=VECTOR('',#738,10.);
#232=VECTOR('',#741,10.);
#233=VECTOR('',#742,10.);
#234=VECTOR('',#743,10.);
#235=VECTOR('',#746,10.);
#236=VECTOR('',#747,10.);
#237=VERTEX_POINT('',#754);
#238=VERTEX_POINT('',#755);
#239=VERTEX_POINT('',#757);
#240=VERTEX_POINT('',#759);
#241=VERTEX_POINT('',#763);
#242=VERTEX_POINT('',#765);
#243=VERTEX_POINT('',#769);
#244=VERTEX_POINT('',#771);
#245=VERTEX_POINT('',#778);
#246=VERTEX_POINT('',#779);
#247=VERTEX_POINT('',#781);
#248=VERTEX_POINT('',#783);
#249=VERTEX_POINT('',#787);
#250=VERTEX_POINT('',#789);
#251=VERTEX_POINT('',#793);
#252=VERTEX_POINT('',#795);
#253=VERTEX_POINT('',#804);
#254=VERTEX_POINT('',#805);
#255=VERTEX_POINT('',#807);
#256=VERTEX_POINT('',#809);
#257=VERTEX_POINT('',#813);
#258=VERTEX_POINT('',#815);
#259=VERTEX_POINT('',#819);
#260=VERTEX_POINT('',#821);
#261=VERTEX_POINT('',#828);
#262=VERTEX_POINT('',#829);
#263=VERTEX_POINT('',#831);
#264=VERTEX_POINT('',#833);
#265=VERTEX_POINT('',#837);
#266=VERTEX_POINT('',#839);
#267=VERTEX_POINT('',#843);
#268=VERTEX_POINT('',#845);
#269=VERTEX_POINT('',#854);
#270=VERTEX_POINT('',#855);
#271=VERTEX_POINT('',#857);
#272=VERTEX_POINT('',#859);
#273=VERTEX_POINT('',#863);
#274=VERTEX_POINT('',#865);
#275=VERTEX_POINT('',#869);
#276=VERTEX_POINT('',#871);
#277=VERTEX_POINT('',#880);
#278=VERTEX_POINT('',#881);
#279=VERTEX_POINT('',#883);
#280=VERTEX_POINT('',#885);
#281=VERTEX_POINT('',#889);
#282=VERTEX_POINT('',#891);
#283=VERTEX_POINT('',#895);
#284=VERTEX_POINT('',#897);
#285=EDGE_CURVE('',#237,#238,#93,.T.);
#286=EDGE_CURVE('',#237,#239,#94,.T.);
#287=EDGE_CURVE('',#240,#239,#95,.T.);
#288=EDGE_CURVE('',#238,#240,#96,.T.);
#289=EDGE_CURVE('',#238,#241,#97,.T.);
#290=EDGE_CURVE('',#242,#240,#98,.T.);
#291=EDGE_CURVE('',#242,#241,#99,.T.);
#292=EDGE_CURVE('',#241,#243,#100,.T.);
#293=EDGE_CURVE('',#244,#242,#101,.T.);
#294=EDGE_CURVE('',#244,#243,#102,.T.);
#295=EDGE_CURVE('',#243,#237,#103,.T.);
#296=EDGE_CURVE('',#239,#244,#104,.T.);
#297=EDGE_CURVE('',#245,#246,#105,.T.);
#298=EDGE_CURVE('',#246,#247,#106,.T.);
#299=EDGE_CURVE('',#248,#247,#107,.T.);
#300=EDGE_CURVE('',#245,#248,#108,.T.);
#301=EDGE_CURVE('',#249,#245,#109,.T.);
#302=EDGE_CURVE('',#250,#248,#110,.T.);
#303=EDGE_CURVE('',#249,#250,#111,.T.);
#304=EDGE_CURVE('',#251,#249,#112,.T.);
#305=EDGE_CURVE('',#252,#250,#113,.T.);
#306=EDGE_CURVE('',#251,#252,#114,.T.);
#307=EDGE_CURVE('',#246,#251,#115,.T.);
#308=EDGE_CURVE('',#247,#252,#116,.T.);
#309=EDGE_CURVE('',#253,#254,#117,.T.);
#310=EDGE_CURVE('',#253,#255,#118,.T.);
#311=EDGE_CURVE('',#256,#255,#119,.T.);
#312=EDGE_CURVE('',#254,#256,#120,.T.);
#313=EDGE_CURVE('',#254,#257,#121,.T.);
#314=EDGE_CURVE('',#258,#256,#122,.T.);
#315=EDGE_CURVE('',#258,#257,#123,.T.);
#316=EDGE_CURVE('',#257,#259,#124,.T.);
#317=EDGE_CURVE('',#260,#258,#125,.T.);
#318=EDGE_CURVE('',#260,#259,#126,.T.);
#319=EDGE_CURVE('',#259,#253,#127,.T.);
#320=EDGE_CURVE('',#255,#260,#128,.T.);
#321=EDGE_CURVE('',#261,#262,#129,.T.);
#322=EDGE_CURVE('',#262,#263,#130,.T.);
#323=EDGE_CURVE('',#264,#263,#131,.T.);
#324=EDGE_CURVE('',#261,#264,#132,.T.);
#325=EDGE_CURVE('',#265,#261,#133,.T.);
#326=EDGE_CURVE('',#266,#264,#134,.T.);
#327=EDGE_CURVE('',#265,#266,#135,.T.);
#328=EDGE_CURVE('',#267,#265,#136,.T.);
#329=EDGE_CURVE('',#268,#266,#137,.T.);
#330=EDGE_CURVE('',#267,#268,#138,.T.);
#331=EDGE_CURVE('',#262,#267,#139,.T.);
#332=EDGE_CURVE('',#263,#268,#140,.T.);
#333=EDGE_CURVE('',#269,#270,#141,.T.);
#334=EDGE_CURVE('',#270,#271,#142,.T.);
#335=EDGE_CURVE('',#272,#271,#143,.T.);
#336=EDGE_CURVE('',#269,#272,#144,.T.);
#337=EDGE_CURVE('',#273,#269,#145,.T.);
#338=EDGE_CURVE('',#274,#272,#146,.T.);
#339=EDGE_CURVE('',#273,#274,#147,.T.);
#340=EDGE_CURVE('',#275,#273,#148,.T.);
#341=EDGE_CURVE('',#276,#274,#149,.T.);
#342=EDGE_CURVE('',#275,#276,#150,.T.);
#343=EDGE_CURVE('',#270,#275,#151,.T.);
#344=EDGE_CURVE('',#271,#276,#152,.T.);
#345=EDGE_CURVE('',#277,#278,#153,.T.);
#346=EDGE_CURVE('',#277,#279,#154,.T.);
#347=EDGE_CURVE('',#280,#279,#155,.T.);
#348=EDGE_CURVE('',#278,#280,#156,.T.);
#349=EDGE_CURVE('',#278,#281,#157,.T.);
#350=EDGE_CURVE('',#282,#280,#158,.T.);
#351=EDGE_CURVE('',#281,#282,#159,.T.);
#352=EDGE_CURVE('',#281,#283,#160,.T.);
#353=EDGE_CURVE('',#284,#282,#161,.T.);
#354=EDGE_CURVE('',#283,#284,#162,.T.);
#355=EDGE_CURVE('',#283,#277,#163,.T.);
#356=EDGE_CURVE('',#279,#284,#164,.T.);
#357=ORIENTED_EDGE('',*,*,#285,.F.);
#358=ORIENTED_EDGE('',*,*,#286,.T.);
#359=ORIENTED_EDGE('',*,*,#287,.F.);
#360=ORIENTED_EDGE('',*,*,#288,.F.);
#361=ORIENTED_EDGE('',*,*,#289,.F.);
#362=ORIENTED_EDGE('',*,*,#288,.T.);
#363=ORIENTED_EDGE('',*,*,#290,.F.);
#364=ORIENTED_EDGE('',*,*,#291,.T.);
#365=ORIENTED_EDGE('',*,*,#292,.F.);
#366=ORIENTED_EDGE('',*,*,#291,.F.);
#367=ORIENTED_EDGE('',*,*,#293,.F.);
#368=ORIENTED_EDGE('',*,*,#294,.T.);
#369=ORIENTED_EDGE('',*,*,#295,.F.);
#370=ORIENTED_EDGE('',*,*,#294,.F.);
#371=ORIENTED_EDGE('',*,*,#296,.F.);
#372=ORIENTED_EDGE('',*,*,#286,.F.);
#373=ORIENTED_EDGE('',*,*,#297,.T.);
#374=ORIENTED_EDGE('',*,*,#298,.T.);
#375=ORIENTED_EDGE('',*,*,#299,.F.);
#376=ORIENTED_EDGE('',*,*,#300,.F.);
#377=ORIENTED_EDGE('',*,*,#301,.T.);
#378=ORIENTED_EDGE('',*,*,#300,.T.);
#379=ORIENTED_EDGE('',*,*,#302,.F.);
#380=ORIENTED_EDGE('',*,*,#303,.F.);
#381=ORIENTED_EDGE('',*,*,#292,.T.);
#382=ORIENTED_EDGE('',*,*,#295,.T.);
#383=ORIENTED_EDGE('',*,*,#285,.T.);
#384=ORIENTED_EDGE('',*,*,#289,.T.);
#385=ORIENTED_EDGE('',*,*,#304,.T.);
#386=ORIENTED_EDGE('',*,*,#303,.T.);
#387=ORIENTED_EDGE('',*,*,#305,.F.);
#388=ORIENTED_EDGE('',*,*,#306,.F.);
#389=ORIENTED_EDGE('',*,*,#307,.T.);
#390=ORIENTED_EDGE('',*,*,#306,.T.);
#391=ORIENTED_EDGE('',*,*,#308,.F.);
#392=ORIENTED_EDGE('',*,*,#298,.F.);
#393=ORIENTED_EDGE('',*,*,#293,.T.);
#394=ORIENTED_EDGE('',*,*,#290,.T.);
#395=ORIENTED_EDGE('',*,*,#287,.T.);
#396=ORIENTED_EDGE('',*,*,#296,.T.);
#397=ORIENTED_EDGE('',*,*,#308,.T.);
#398=ORIENTED_EDGE('',*,*,#305,.T.);
#399=ORIENTED_EDGE('',*,*,#302,.T.);
#400=ORIENTED_EDGE('',*,*,#299,.T.);
#401=ORIENTED_EDGE('',*,*,#307,.F.);
#402=ORIENTED_EDGE('',*,*,#297,.F.);
#403=ORIENTED_EDGE('',*,*,#301,.F.);
#404=ORIENTED_EDGE('',*,*,#304,.F.);
#405=ORIENTED_EDGE('',*,*,#309,.F.);
#406=ORIENTED_EDGE('',*,*,#310,.T.);
#407=ORIENTED_EDGE('',*,*,#311,.F.);
#408=ORIENTED_EDGE('',*,*,#312,.F.);
#409=ORIENTED_EDGE('',*,*,#313,.F.);
#410=ORIENTED_EDGE('',*,*,#312,.T.);
#411=ORIENTED_EDGE('',*,*,#314,.F.);
#412=ORIENTED_EDGE('',*,*,#315,.T.);
#413=ORIENTED_EDGE('',*,*,#316,.F.);
#414=ORIENTED_EDGE('',*,*,#315,.F.);
#415=ORIENTED_EDGE('',*,*,#317,.F.);
#416=ORIENTED_EDGE('',*,*,#318,.T.);
#417=ORIENTED_EDGE('',*,*,#319,.F.);
#418=ORIENTED_EDGE('',*,*,#318,.F.);
#419=ORIENTED_EDGE('',*,*,#320,.F.);
#420=ORIENTED_EDGE('',*,*,#310,.F.);
#421=ORIENTED_EDGE('',*,*,#321,.T.);
#422=ORIENTED_EDGE('',*,*,#322,.T.);
#423=ORIENTED_EDGE('',*,*,#323,.F.);
#424=ORIENTED_EDGE('',*,*,#324,.F.);
#425=ORIENTED_EDGE('',*,*,#325,.T.);
#426=ORIENTED_EDGE('',*,*,#324,.T.);
#427=ORIENTED_EDGE('',*,*,#326,.F.);
#428=ORIENTED_EDGE('',*,*,#327,.F.);
#429=ORIENTED_EDGE('',*,*,#316,.T.);
#430=ORIENTED_EDGE('',*,*,#319,.T.);
#431=ORIENTED_EDGE('',*,*,#309,.T.);
#432=ORIENTED_EDGE('',*,*,#313,.T.);
#433=ORIENTED_EDGE('',*,*,#328,.T.);
#434=ORIENTED_EDGE('',*,*,#327,.T.);
#435=ORIENTED_EDGE('',*,*,#329,.F.);
#436=ORIENTED_EDGE('',*,*,#330,.F.);
#437=ORIENTED_EDGE('',*,*,#331,.T.);
#438=ORIENTED_EDGE('',*,*,#330,.T.);
#439=ORIENTED_EDGE('',*,*,#332,.F.);
#440=ORIENTED_EDGE('',*,*,#322,.F.);
#441=ORIENTED_EDGE('',*,*,#317,.T.);
#442=ORIENTED_EDGE('',*,*,#314,.T.);
#443=ORIENTED_EDGE('',*,*,#311,.T.);
#444=ORIENTED_EDGE('',*,*,#320,.T.);
#445=ORIENTED_EDGE('',*,*,#332,.T.);
#446=ORIENTED_EDGE('',*,*,#329,.T.);
#447=ORIENTED_EDGE('',*,*,#326,.T.);
#448=ORIENTED_EDGE('',*,*,#323,.T.);
#449=ORIENTED_EDGE('',*,*,#331,.F.);
#450=ORIENTED_EDGE('',*,*,#321,.F.);
#451=ORIENTED_EDGE('',*,*,#325,.F.);
#452=ORIENTED_EDGE('',*,*,#328,.F.);
#453=ORIENTED_EDGE('',*,*,#333,.T.);
#454=ORIENTED_EDGE('',*,*,#334,.T.);
#455=ORIENTED_EDGE('',*,*,#335,.F.);
#456=ORIENTED_EDGE('',*,*,#336,.F.);
#457=ORIENTED_EDGE('',*,*,#337,.T.);
#458=ORIENTED_EDGE('',*,*,#336,.T.);
#459=ORIENTED_EDGE('',*,*,#338,.F.);
#460=ORIENTED_EDGE('',*,*,#339,.F.);
#461=ORIENTED_EDGE('',*,*,#340,.T.);
#462=ORIENTED_EDGE('',*,*,#339,.T.);
#463=ORIENTED_EDGE('',*,*,#341,.F.);
#464=ORIENTED_EDGE('',*,*,#342,.F.);
#465=ORIENTED_EDGE('',*,*,#343,.T.);
#466=ORIENTED_EDGE('',*,*,#342,.T.);
#467=ORIENTED_EDGE('',*,*,#344,.F.);
#468=ORIENTED_EDGE('',*,*,#334,.F.);
#469=ORIENTED_EDGE('',*,*,#344,.T.);
#470=ORIENTED_EDGE('',*,*,#341,.T.);
#471=ORIENTED_EDGE('',*,*,#338,.T.);
#472=ORIENTED_EDGE('',*,*,#335,.T.);
#473=ORIENTED_EDGE('',*,*,#343,.F.);
#474=ORIENTED_EDGE('',*,*,#333,.F.);
#475=ORIENTED_EDGE('',*,*,#337,.F.);
#476=ORIENTED_EDGE('',*,*,#340,.F.);
#477=ORIENTED_EDGE('',*,*,#345,.F.);
#478=ORIENTED_EDGE('',*,*,#346,.T.);
#479=ORIENTED_EDGE('',*,*,#347,.F.);
#480=ORIENTED_EDGE('',*,*,#348,.F.);
#481=ORIENTED_EDGE('',*,*,#349,.F.);
#482=ORIENTED_EDGE('',*,*,#348,.T.);
#483=ORIENTED_EDGE('',*,*,#350,.F.);
#484=ORIENTED_EDGE('',*,*,#351,.F.);
#485=ORIENTED_EDGE('',*,*,#352,.F.);
#486=ORIENTED_EDGE('',*,*,#351,.T.);
#487=ORIENTED_EDGE('',*,*,#353,.F.);
#488=ORIENTED_EDGE('',*,*,#354,.F.);
#489=ORIENTED_EDGE('',*,*,#355,.F.);
#490=ORIENTED_EDGE('',*,*,#354,.T.);
#491=ORIENTED_EDGE('',*,*,#356,.F.);
#492=ORIENTED_EDGE('',*,*,#346,.F.);
#493=ORIENTED_EDGE('',*,*,#355,.T.);
#494=ORIENTED_EDGE('',*,*,#345,.T.);
#495=ORIENTED_EDGE('',*,*,#349,.T.);
#496=ORIENTED_EDGE('',*,*,#352,.T.);
#497=ORIENTED_EDGE('',*,*,#356,.T.);
#498=ORIENTED_EDGE('',*,*,#353,.T.);
#499=ORIENTED_EDGE('',*,*,#350,.T.);
#500=ORIENTED_EDGE('',*,*,#347,.T.);
#501=PLANE('',#582);
#502=PLANE('',#583);
#503=PLANE('',#584);
#504=PLANE('',#585);
#505=PLANE('',#586);
#506=PLANE('',#587);
#507=PLANE('',#588);
#508=PLANE('',#589);
#509=PLANE('',#590);
#510=PLANE('',#591);
#511=PLANE('',#592);
#512=PLANE('',#593);
#513=PLANE('',#594);
#514=PLANE('',#595);
#515=PLANE('',#596);
#516=PLANE('',#597);
#517=PLANE('',#598);
#518=PLANE('',#599);
#519=PLANE('',#600);
#520=PLANE('',#601);
#521=PLANE('',#602);
#522=PLANE('',#603);
#523=PLANE('',#604);
#524=PLANE('',#605);
#525=PLANE('',#606);
#526=PLANE('',#607);
#527=PLANE('',#608);
#528=PLANE('',#609);
#529=PLANE('',#610);
#530=PLANE('',#611);
#531=PLANE('',#612);
#532=PLANE('',#613);
#533=ADVANCED_FACE('',(#25),#501,.F.);
#534=ADVANCED_FACE('',(#26),#502,.T.);
#535=ADVANCED_FACE('',(#27),#503,.F.);
#536=ADVANCED_FACE('',(#28),#504,.F.);
#537=ADVANCED_FACE('',(#29),#505,.T.);
#538=ADVANCED_FACE('',(#30,#21),#506,.T.);
#539=ADVANCED_FACE('',(#31),#507,.T.);
#540=ADVANCED_FACE('',(#32,#22),#508,.T.);
#541=ADVANCED_FACE('',(#33),#509,.T.);
#542=ADVANCED_FACE('',(#34),#510,.F.);
#543=ADVANCED_FACE('',(#35),#511,.F.);
#544=ADVANCED_FACE('',(#36),#512,.T.);
#545=ADVANCED_FACE('',(#37),#513,.F.);
#546=ADVANCED_FACE('',(#38),#514,.F.);
#547=ADVANCED_FACE('',(#39),#515,.T.);
#548=ADVANCED_FACE('',(#40,#23),#516,.T.);
#549=ADVANCED_FACE('',(#41),#517,.T.);
#550=ADVANCED_FACE('',(#42,#24),#518,.T.);
#551=ADVANCED_FACE('',(#43),#519,.T.);
#552=ADVANCED_FACE('',(#44),#520,.F.);
#553=ADVANCED_FACE('',(#45),#521,.T.);
#554=ADVANCED_FACE('',(#46),#522,.T.);
#555=ADVANCED_FACE('',(#47),#523,.T.);
#556=ADVANCED_FACE('',(#48),#524,.T.);
#557=ADVANCED_FACE('',(#49),#525,.T.);
#558=ADVANCED_FACE('',(#50),#526,.F.);
#559=ADVANCED_FACE('',(#51),#527,.T.);
#560=ADVANCED_FACE('',(#52),#528,.T.);
#561=ADVANCED_FACE('',(#53),#529,.T.);
#562=ADVANCED_FACE('',(#54),#530,.T.);
#563=ADVANCED_FACE('',(#55),#531,.T.);
#564=ADVANCED_FACE('',(#56),#532,.T.);
#565=CLOSED_SHELL('',(#533,#534,#535,#536,#537,#538,#539,#540,#541,#542));
#566=CLOSED_SHELL('',(#543,#544,#545,#546,#547,#548,#549,#550,#551,#552));
#567=CLOSED_SHELL('',(#553,#554,#555,#556,#557,#558));
#568=CLOSED_SHELL('',(#559,#560,#561,#562,#563,#564));
#569=DERIVED_UNIT_ELEMENT(#571,1.);
#570=DERIVED_UNIT_ELEMENT(#910,-3.);
#571=(
MASS_UNIT()
NAMED_UNIT(*)
SI_UNIT(.KILO.,.GRAM.)
);
#572=DERIVED_UNIT((#569,#570));
#573=MEASURE_REPRESENTATION_ITEM('density measure',
POSITIVE_RATIO_MEASURE(7850.),#572);
#574=PROPERTY_DEFINITION_REPRESENTATION(#579,#576);
#575=PROPERTY_DEFINITION_REPRESENTATION(#580,#577);
#576=REPRESENTATION('material name',(#578),#907);
#577=REPRESENTATION('density',(#573),#907);
#578=DESCRIPTIVE_REPRESENTATION_ITEM('Steel','Steel');
#579=PROPERTY_DEFINITION('material property','material name',#917);
#580=PROPERTY_DEFINITION('material property','density of part',#917);
#581=AXIS2_PLACEMENT_3D('',#752,#614,#615);
#582=AXIS2_PLACEMENT_3D('',#753,#616,#617);
#583=AXIS2_PLACEMENT_3D('',#762,#622,#623);
#584=AXIS2_PLACEMENT_3D('',#768,#627,#628);
#585=AXIS2_PLACEMENT_3D('',#774,#632,#633);
#586=AXIS2_PLACEMENT_3D('',#777,#636,#637);
#587=AXIS2_PLACEMENT_3D('',#786,#642,#643);
#588=AXIS2_PLACEMENT_3D('',#792,#647,#648);
#589=AXIS2_PLACEMENT_3D('',#798,#652,#653);
#590=AXIS2_PLACEMENT_3D('',#801,#656,#657);
#591=AXIS2_PLACEMENT_3D('',#802,#658,#659);
#592=AXIS2_PLACEMENT_3D('',#803,#660,#661);
#593=AXIS2_PLACEMENT_3D('',#812,#666,#667);
#594=AXIS2_PLACEMENT_3D('',#818,#671,#672);
#595=AXIS2_PLACEMENT_3D('',#824,#676,#677);
#596=AXIS2_PLACEMENT_3D('',#827,#680,#681);
#597=AXIS2_PLACEMENT_3D('',#836,#686,#687);
#598=AXIS2_PLACEMENT_3D('',#842,#691,#692);
#599=AXIS2_PLACEMENT_3D('',#848,#696,#697);
#600=AXIS2_PLACEMENT_3D('',#851,#700,#701);
#601=AXIS2_PLACEMENT_3D('',#852,#702,#703);
#602=AXIS2_PLACEMENT_3D('',#853,#704,#705);
#603=AXIS2_PLACEMENT_3D('',#862,#710,#711);
#604=AXIS2_PLACEMENT_3D('',#868,#715,#716);
#605=AXIS2_PLACEMENT_3D('',#874,#720,#721);
#606=AXIS2_PLACEMENT_3D('',#877,#724,#725);
#607=AXIS2_PLACEMENT_3D('',#878,#726,#727);
#608=AXIS2_PLACEMENT_3D('',#879,#728,#729);
#609=AXIS2_PLACEMENT_3D('',#888,#734,#735);
#610=AXIS2_PLACEMENT_3D('',#894,#739,#740);
#611=AXIS2_PLACEMENT_3D('',#900,#744,#745);
#612=AXIS2_PLACEMENT_3D('',#903,#748,#749);
#613=AXIS2_PLACEMENT_3D('',#904,#750,#751);
#614=DIRECTION('axis',(0.,0.,1.));
#615=DIRECTION('refdir',(1.,0.,0.));
#616=DIRECTION('center_axis',(0.,1.,0.));
#617=DIRECTION('ref_axis',(-1.,0.,0.));
#618=DIRECTION('',(0.,0.,-1.));
#619=DIRECTION('',(-1.,0.,0.));
#620=DIRECTION('',(0.,0.,1.));
#621=DIRECTION('',(-1.,0.,0.));
#622=DIRECTION('center_axis',(0.,0.,1.));
#623=DIRECTION('ref_axis',(1.,0.,0.));
#624=DIRECTION('',(0.,-1.,0.));
#625=DIRECTION('',(0.,1.,0.));
#626=DIRECTION('',(1.,0.,0.));
#627=DIRECTION('center_axis',(0.,-1.,0.));
#628=DIRECTION('ref_axis',(1.,0.,0.));
#629=DIRECTION('',(0.,0.,1.));
#630=DIRECTION('',(0.,0.,-1.));
#631=DIRECTION('',(1.,0.,0.));
#632=DIRECTION('center_axis',(0.,0.,1.));
#633=DIRECTION('ref_axis',(1.,0.,0.));
#634=DIRECTION('',(0.,1.,0.));
#635=DIRECTION('',(0.,-1.,0.));
#636=DIRECTION('center_axis',(0.,1.,0.));
#637=DIRECTION('ref_axis',(-1.,0.,0.));
#638=DIRECTION('',(-1.,0.,0.));
#639=DIRECTION('',(0.,0.,1.));
#640=DIRECTION('',(-1.,0.,0.));
#641=DIRECTION('',(0.,0.,1.));
#642=DIRECTION('center_axis',(1.,0.,0.));
#643=DIRECTION('ref_axis',(0.,1.,0.));
#644=DIRECTION('',(0.,1.,0.));
#645=DIRECTION('',(0.,1.,0.));
#646=DIRECTION('',(0.,0.,1.));
#647=DIRECTION('center_axis',(0.,-1.,0.));
#648=DIRECTION('ref_axis',(1.,0.,0.));
#649=DIRECTION('',(1.,0.,0.));
#650=DIRECTION('',(1.,0.,0.));
#651=DIRECTION('',(0.,0.,1.));
#652=DIRECTION('center_axis',(-1.,0.,0.));
#653=DIRECTION('ref_axis',(0.,-1.,0.));
#654=DIRECTION('',(0.,-1.,0.));
#655=DIRECTION('',(0.,-1.,0.));
#656=DIRECTION('center_axis',(0.,0.,1.));
#657=DIRECTION('ref_axis',(1.,0.,0.));
#658=DIRECTION('center_axis',(0.,0.,1.));
#659=DIRECTION('ref_axis',(1.,0.,0.));
#660=DIRECTION('center_axis',(0.,1.,0.));
#661=DIRECTION('ref_axis',(-1.,0.,0.));
#662=DIRECTION('',(0.,0.,-1.));
#663=DIRECTION('',(-1.,0.,0.));
#664=DIRECTION('',(0.,0.,1.));
#665=DIRECTION('',(-1.,0.,0.));
#666=DIRECTION('center_axis',(0.,0.,1.));
#667=DIRECTION('ref_axis',(1.,0.,0.));
#668=DIRECTION('',(0.,-1.,0.));
#669=DIRECTION('',(0.,1.,0.));
#670=DIRECTION('',(1.,0.,0.));
#671=DIRECTION('center_axis',(0.,-1.,0.));
#672=DIRECTION('ref_axis',(1.,0.,0.));
#673=DIRECTION('',(0.,0.,1.));
#674=DIRECTION('',(0.,0.,-1.));
#675=DIRECTION('',(1.,0.,0.));
#676=DIRECTION('center_axis',(0.,0.,1.));
#677=DIRECTION('ref_axis',(1.,0.,0.));
#678=DIRECTION('',(0.,1.,0.));
#679=DIRECTION('',(0.,-1.,0.));
#680=DIRECTION('center_axis',(0.,1.,0.));
#681=DIRECTION('ref_axis',(-1.,0.,0.));
#682=DIRECTION('',(-1.,0.,0.));
#683=DIRECTION('',(0.,0.,1.));
#684=DIRECTION('',(-1.,0.,0.));
#685=DIRECTION('',(0.,0.,1.));
#686=DIRECTION('center_axis',(1.,0.,0.));
#687=DIRECTION('ref_axis',(0.,1.,0.));
#688=DIRECTION('',(0.,1.,0.));
#689=DIRECTION('',(0.,1.,0.));
#690=DIRECTION('',(0.,0.,1.));
#691=DIRECTION('center_axis',(0.,-1.,0.));
#692=DIRECTION('ref_axis',(1.,0.,0.));
#693=DIRECTION('',(1.,0.,0.));
#694=DIRECTION('',(1.,0.,0.));
#695=DIRECTION('',(0.,0.,1.));
#696=DIRECTION('center_axis',(-1.,0.,0.));
#697=DIRECTION('ref_axis',(0.,-1.,0.));
#698=DIRECTION('',(0.,-1.,0.));
#699=DIRECTION('',(0.,-1.,0.));
#700=DIRECTION('center_axis',(0.,0.,1.));
#701=DIRECTION('ref_axis',(1.,0.,0.));
#702=DIRECTION('center_axis',(0.,0.,1.));
#703=DIRECTION('ref_axis',(1.,0.,0.));
#704=DIRECTION('center_axis',(0.,0.,-1.));
#705=DIRECTION('ref_axis',(-1.,0.,0.));
#706=DIRECTION('',(-1.,0.,0.));
#707=DIRECTION('',(0.,1.,0.));
#708=DIRECTION('',(-1.,0.,0.));
#709=DIRECTION('',(0.,1.,0.));
#710=DIRECTION('center_axis',(1.,0.,0.));
#711=DIRECTION('ref_axis',(0.,0.,-1.));
#712=DIRECTION('',(0.,0.,-1.));
#713=DIRECTION('',(0.,0.,-1.));
#714=DIRECTION('',(0.,1.,0.));
#715=DIRECTION('center_axis',(0.,0.,1.));
#716=DIRECTION('ref_axis',(1.,0.,0.));
#717=DIRECTION('',(1.,0.,0.));
#718=DIRECTION('',(1.,0.,0.));
#719=DIRECTION('',(0.,1.,0.));
#720=DIRECTION('center_axis',(-1.,0.,0.));
#721=DIRECTION('ref_axis',(0.,0.,1.));
#722=DIRECTION('',(0.,0.,1.));
#723=DIRECTION('',(0.,0.,1.));
#724=DIRECTION('center_axis',(0.,1.,0.));
#725=DIRECTION('ref_axis',(0.,0.,1.));
#726=DIRECTION('center_axis',(0.,1.,0.));
#727=DIRECTION('ref_axis',(1.,0.,0.));
#728=DIRECTION('center_axis',(0.,0.,1.));
#729=DIRECTION('ref_axis',(-1.,0.,0.));
#730=DIRECTION('',(1.,0.,0.));
#731=DIRECTION('',(0.,-1.,0.));
#732=DIRECTION('',(-1.,0.,0.));
#733=DIRECTION('',(0.,-1.,0.));
#734=DIRECTION('center_axis',(1.,0.,0.));
#735=DIRECTION('ref_axis',(0.,0.,1.));
#736=DIRECTION('',(0.,0.,-1.));
#737=DIRECTION('',(0.,0.,1.));
#738=DIRECTION('',(0.,-1.,0.));
#739=DIRECTION('center_axis',(0.,0.,-1.));
#740=DIRECTION('ref_axis',(1.,0.,0.));
#741=DIRECTION('',(-1.,0.,0.));
#742=DIRECTION('',(1.,0.,0.));
#743=DIRECTION('',(0.,-1.,0.));
#744=DIRECTION('center_axis',(-1.,0.,0.));
#745=DIRECTION('ref_axis',(0.,0.,-1.));
#746=DIRECTION('',(0.,0.,1.));
#747=DIRECTION('',(0.,0.,-1.));
#748=DIRECTION('center_axis',(0.,1.,0.));
#749=DIRECTION('ref_axis',(1.,0.,0.));
#750=DIRECTION('center_axis',(0.,-1.,0.));
#751=DIRECTION('ref_axis',(0.,0.,-1.));
#752=CARTESIAN_POINT('',(0.,0.,0.));
#753=CARTESIAN_POINT('Origin',(1810.,98.5,-41.));
#754=CARTESIAN_POINT('',(1800.,98.5,16.));
#755=CARTESIAN_POINT('',(1800.,98.5,-41.));
#756=CARTESIAN_POINT('',(1800.,98.5,-43.));
#757=CARTESIAN_POINT('',(0.,98.5,16.));
#758=CARTESIAN_POINT('',(1810.,98.5,16.));
#759=CARTESIAN_POINT('',(0.,98.5,-41.));
#760=CARTESIAN_POINT('',(0.,98.5,-43.));
#761=CARTESIAN_POINT('',(1810.,98.5,-41.));
#762=CARTESIAN_POINT('Origin',(900.,80.,-41.));
#763=CARTESIAN_POINT('',(1800.,61.5,-41.));
#764=CARTESIAN_POINT('',(1800.,68.75,-41.));
#765=CARTESIAN_POINT('',(0.,61.5,-41.));
#766=CARTESIAN_POINT('',(0.,91.25,-41.));
#767=CARTESIAN_POINT('',(-10.,61.5,-41.));
#768=CARTESIAN_POINT('Origin',(-10.,61.5,-41.));
#769=CARTESIAN_POINT('',(1800.,61.5,16.));
#770=CARTESIAN_POINT('',(1800.,61.5,-43.));
#771=CARTESIAN_POINT('',(0.,61.5,16.));
#772=CARTESIAN_POINT('',(0.,61.5,-43.));
#773=CARTESIAN_POINT('',(-10.,61.5,16.));
#774=CARTESIAN_POINT('Origin',(900.,80.,16.));
#775=CARTESIAN_POINT('',(1800.,68.75,16.));
#776=CARTESIAN_POINT('',(0.,91.25,16.));
#777=CARTESIAN_POINT('Origin',(1800.,102.5,-45.));
#778=CARTESIAN_POINT('',(1800.,102.5,-45.));
#779=CARTESIAN_POINT('',(0.,102.5,-45.));
#780=CARTESIAN_POINT('',(1800.,102.5,-45.));
#781=CARTESIAN_POINT('',(0.,102.5,20.));
#782=CARTESIAN_POINT('',(0.,102.5,-45.));
#783=CARTESIAN_POINT('',(1800.,102.5,20.));
#784=CARTESIAN_POINT('',(1800.,102.5,20.));
#785=CARTESIAN_POINT('',(1800.,102.5,-45.));
#786=CARTESIAN_POINT('Origin',(1800.,57.5,-45.));
#787=CARTESIAN_POINT('',(1800.,57.5,-45.));
#788=CARTESIAN_POINT('',(1800.,57.5,-45.));
#789=CARTESIAN_POINT('',(1800.,57.5,20.));
#790=CARTESIAN_POINT('',(1800.,57.5,20.));
#791=CARTESIAN_POINT('',(1800.,57.5,-45.));
#792=CARTESIAN_POINT('Origin',(0.,57.5,-45.));
#793=CARTESIAN_POINT('',(0.,57.5,-45.));
#794=CARTESIAN_POINT('',(0.,57.5,-45.));
#795=CARTESIAN_POINT('',(0.,57.5,20.));
#796=CARTESIAN_POINT('',(0.,57.5,20.));
#797=CARTESIAN_POINT('',(0.,57.5,-45.));
#798=CARTESIAN_POINT('Origin',(0.,102.5,-45.));
#799=CARTESIAN_POINT('',(0.,102.5,-45.));
#800=CARTESIAN_POINT('',(0.,102.5,20.));
#801=CARTESIAN_POINT('Origin',(900.,80.,20.));
#802=CARTESIAN_POINT('Origin',(900.,80.,-45.));
#803=CARTESIAN_POINT('Origin',(1810.,-61.5,-41.));
#804=CARTESIAN_POINT('',(1800.,-61.5,16.));
#805=CARTESIAN_POINT('',(1800.,-61.5,-41.));
#806=CARTESIAN_POINT('',(1800.,-61.5,-43.));
#807=CARTESIAN_POINT('',(0.,-61.5,16.));
#808=CARTESIAN_POINT('',(1810.,-61.5,16.));
#809=CARTESIAN_POINT('',(0.,-61.5,-41.));
#810=CARTESIAN_POINT('',(0.,-61.5,-43.));
#811=CARTESIAN_POINT('',(1810.,-61.5,-41.));
#812=CARTESIAN_POINT('Origin',(900.,-80.,-41.));
#813=CARTESIAN_POINT('',(1800.,-98.5,-41.));
#814=CARTESIAN_POINT('',(1800.,-91.25,-41.));
#815=CARTESIAN_POINT('',(0.,-98.5,-41.));
#816=CARTESIAN_POINT('',(0.,-68.75,-41.));
#817=CARTESIAN_POINT('',(-10.,-98.5,-41.));
#818=CARTESIAN_POINT('Origin',(-10.,-98.5,-41.));
#819=CARTESIAN_POINT('',(1800.,-98.5,16.));
#820=CARTESIAN_POINT('',(1800.,-98.5,-43.));
#821=CARTESIAN_POINT('',(0.,-98.5,16.));
#822=CARTESIAN_POINT('',(0.,-98.5,-43.));
#823=CARTESIAN_POINT('',(-10.,-98.5,16.));
#824=CARTESIAN_POINT('Origin',(900.,-80.,16.));
#825=CARTESIAN_POINT('',(1800.,-91.25,16.));
#826=CARTESIAN_POINT('',(0.,-68.75,16.));
#827=CARTESIAN_POINT('Origin',(1800.,-57.5,-45.));
#828=CARTESIAN_POINT('',(1800.,-57.5,-45.));
#829=CARTESIAN_POINT('',(0.,-57.5,-45.));
#830=CARTESIAN_POINT('',(1800.,-57.5,-45.));
#831=CARTESIAN_POINT('',(0.,-57.5,20.));
#832=CARTESIAN_POINT('',(0.,-57.5,-45.));
#833=CARTESIAN_POINT('',(1800.,-57.5,20.));
#834=CARTESIAN_POINT('',(1800.,-57.5,20.));
#835=CARTESIAN_POINT('',(1800.,-57.5,-45.));
#836=CARTESIAN_POINT('Origin',(1800.,-102.5,-45.));
#837=CARTESIAN_POINT('',(1800.,-102.5,-45.));
#838=CARTESIAN_POINT('',(1800.,-102.5,-45.));
#839=CARTESIAN_POINT('',(1800.,-102.5,20.));
#840=CARTESIAN_POINT('',(1800.,-102.5,20.));
#841=CARTESIAN_POINT('',(1800.,-102.5,-45.));
#842=CARTESIAN_POINT('Origin',(0.,-102.5,-45.));
#843=CARTESIAN_POINT('',(0.,-102.5,-45.));
#844=CARTESIAN_POINT('',(0.,-102.5,-45.));
#845=CARTESIAN_POINT('',(0.,-102.5,20.));
#846=CARTESIAN_POINT('',(0.,-102.5,20.));
#847=CARTESIAN_POINT('',(0.,-102.5,-45.));
#848=CARTESIAN_POINT('Origin',(0.,-57.5,-45.));
#849=CARTESIAN_POINT('',(0.,-57.5,-45.));
#850=CARTESIAN_POINT('',(0.,-57.5,20.));
#851=CARTESIAN_POINT('Origin',(900.,-80.,20.));
#852=CARTESIAN_POINT('Origin',(900.,-80.,-45.));
#853=CARTESIAN_POINT('Origin',(50.,68.,-14.));
#854=CARTESIAN_POINT('',(50.,68.,-14.));
#855=CARTESIAN_POINT('',(30.,68.,-14.));
#856=CARTESIAN_POINT('',(50.,68.,-14.));
#857=CARTESIAN_POINT('',(30.,78.,-14.));
#858=CARTESIAN_POINT('',(30.,68.,-14.));
#859=CARTESIAN_POINT('',(50.,78.,-14.));
#860=CARTESIAN_POINT('',(50.,78.,-14.));
#861=CARTESIAN_POINT('',(50.,68.,-14.));
#862=CARTESIAN_POINT('Origin',(50.,68.,14.));
#863=CARTESIAN_POINT('',(50.,68.,14.));
#864=CARTESIAN_POINT('',(50.,68.,14.));
#865=CARTESIAN_POINT('',(50.,78.,14.));
#866=CARTESIAN_POINT('',(50.,78.,14.));
#867=CARTESIAN_POINT('',(50.,68.,14.));
#868=CARTESIAN_POINT('Origin',(30.,68.,14.));
#869=CARTESIAN_POINT('',(30.,68.,14.));
#870=CARTESIAN_POINT('',(30.,68.,14.));
#871=CARTESIAN_POINT('',(30.,78.,14.));
#872=CARTESIAN_POINT('',(30.,78.,14.));
#873=CARTESIAN_POINT('',(30.,68.,14.));
#874=CARTESIAN_POINT('Origin',(30.,68.,-14.));
#875=CARTESIAN_POINT('',(30.,68.,-14.));
#876=CARTESIAN_POINT('',(30.,78.,-14.));
#877=CARTESIAN_POINT('Origin',(40.,78.,0.));
#878=CARTESIAN_POINT('Origin',(40.,68.,0.));
#879=CARTESIAN_POINT('Origin',(50.,-68.,14.));
#880=CARTESIAN_POINT('',(30.,-68.,14.));
#881=CARTESIAN_POINT('',(50.,-68.,14.));
#882=CARTESIAN_POINT('',(30.,-68.,14.));
#883=CARTESIAN_POINT('',(30.,-78.,14.));
#884=CARTESIAN_POINT('',(30.,-68.,14.));
#885=CARTESIAN_POINT('',(50.,-78.,14.));
#886=CARTESIAN_POINT('',(30.,-78.,14.));
#887=CARTESIAN_POINT('',(50.,-68.,14.));
#888=CARTESIAN_POINT('Origin',(50.,-68.,-14.));
#889=CARTESIAN_POINT('',(50.,-68.,-14.));
#890=CARTESIAN_POINT('',(50.,-68.,14.));
#891=CARTESIAN_POINT('',(50.,-78.,-14.));
#892=CARTESIAN_POINT('',(50.,-78.,14.));
#893=CARTESIAN_POINT('',(50.,-68.,-14.));
#894=CARTESIAN_POINT('Origin',(30.,-68.,-14.));
#895=CARTESIAN_POINT('',(30.,-68.,-14.));
#896=CARTESIAN_POINT('',(50.,-68.,-14.));
#897=CARTESIAN_POINT('',(30.,-78.,-14.));
#898=CARTESIAN_POINT('',(50.,-78.,-14.));
#899=CARTESIAN_POINT('',(30.,-68.,-14.));
#900=CARTESIAN_POINT('Origin',(30.,-68.,14.));
#901=CARTESIAN_POINT('',(30.,-68.,-14.));
#902=CARTESIAN_POINT('',(30.,-78.,-14.));
#903=CARTESIAN_POINT('Origin',(40.,-68.,0.));
#904=CARTESIAN_POINT('Origin',(40.,-78.,0.));
#905=UNCERTAINTY_MEASURE_WITH_UNIT(LENGTH_MEASURE(0.01),#909,
'DISTANCE_ACCURACY_VALUE',
'Maximum model space distance between geometric entities at asserted c
onnectivities');
#906=UNCERTAINTY_MEASURE_WITH_UNIT(LENGTH_MEASURE(0.01),#909,
'DISTANCE_ACCURACY_VALUE',
'Maximum model space distance between geometric entities at asserted c
onnectivities');
#907=(
GEOMETRIC_REPRESENTATION_CONTEXT(3)
GLOBAL_UNCERTAINTY_ASSIGNED_CONTEXT((#905))
GLOBAL_UNIT_ASSIGNED_CONTEXT((#909,#911,#912))
REPRESENTATION_CONTEXT('','3D')
);
#908=(
GEOMETRIC_REPRESENTATION_CONTEXT(3)
GLOBAL_UNCERTAINTY_ASSIGNED_CONTEXT((#906))
GLOBAL_UNIT_ASSIGNED_CONTEXT((#909,#911,#912))
REPRESENTATION_CONTEXT('','3D')
);
#909=(
LENGTH_UNIT()
NAMED_UNIT(*)
SI_UNIT(.MILLI.,.METRE.)
);
#910=(
LENGTH_UNIT()
NAMED_UNIT(*)
SI_UNIT($,.METRE.)
);
#911=(
NAMED_UNIT(*)
PLANE_ANGLE_UNIT()
SI_UNIT($,.RADIAN.)
);
#912=(
NAMED_UNIT(*)
SI_UNIT($,.STERADIAN.)
SOLID_ANGLE_UNIT()
);
#913=SHAPE_DEFINITION_REPRESENTATION(#914,#915);
#914=PRODUCT_DEFINITION_SHAPE('',$,#917);
#915=SHAPE_REPRESENTATION('',(#581),#907);
#916=PRODUCT_DEFINITION_CONTEXT('part definition',#921,'design');
#917=PRODUCT_DEFINITION('EMOCD_Track_FRESH','EMOCD_Track_FRESH v2',#918,
#916);
#918=PRODUCT_DEFINITION_FORMATION('',$,#923);
#919=PRODUCT_RELATED_PRODUCT_CATEGORY('EMOCD_Track_FRESH v2',
'EMOCD_Track_FRESH v2',(#923));
#920=APPLICATION_PROTOCOL_DEFINITION('international standard',
'automotive_design',2009,#921);
#921=APPLICATION_CONTEXT(
'Core Data for Automotive Mechanical Design Process');
#922=PRODUCT_CONTEXT('part definition',#921,'mechanical');
#923=PRODUCT('EMOCD_Track_FRESH','EMOCD_Track_FRESH v2',$,(#922));
#924=PRESENTATION_STYLE_ASSIGNMENT((#927));
#925=PRESENTATION_STYLE_ASSIGNMENT((#928));
#926=PRESENTATION_STYLE_ASSIGNMENT((#929));
#927=SURFACE_STYLE_USAGE(.BOTH.,#930);
#928=SURFACE_STYLE_USAGE(.BOTH.,#931);
#929=SURFACE_STYLE_USAGE(.BOTH.,#932);
#930=SURFACE_SIDE_STYLE('',(#933));
#931=SURFACE_SIDE_STYLE('',(#934));
#932=SURFACE_SIDE_STYLE('',(#935));
#933=SURFACE_STYLE_FILL_AREA(#936);
#934=SURFACE_STYLE_FILL_AREA(#937);
#935=SURFACE_STYLE_FILL_AREA(#938);
#936=FILL_AREA_STYLE('Steel - Satin',(#939));
#937=FILL_AREA_STYLE('Aluminum - Anodized Rough (Grey)',(#940));
#938=FILL_AREA_STYLE('Stainless Steel - Satin',(#941));
#939=FILL_AREA_STYLE_COLOUR('Steel - Satin',#942);
#940=FILL_AREA_STYLE_COLOUR('Aluminum - Anodized Rough (Grey)',#943);
#941=FILL_AREA_STYLE_COLOUR('Stainless Steel - Satin',#944);
#942=COLOUR_RGB('Steel - Satin',0.627450980392157,0.627450980392157,0.627450980392157);
#943=COLOUR_RGB('Aluminum - Anodized Rough (Grey)',0.537254901960784,0.537254901960784,
0.537254901960784);
#944=COLOUR_RGB('Stainless Steel - Satin',0.796078431372549,0.796078431372549,
0.796078431372549);
ENDSEC;
END-ISO-10303-21;
