ISO-10303-21;
HEADER;
/* Generated by software containing ST-Developer
 * from STEP Tools, Inc. (www.steptools.com) 
 */

FILE_DESCRIPTION(
/* description */ (''),
/* implementation_level */ '2;1');

FILE_NAME(
/* name */ 'EMOCD_Sled_Gen2.step',
/* time_stamp */ '2026-07-28T19:15:19+05:30',
/* author */ (''),
/* organization */ (''),
/* preprocessor_version */ 'ST-DEVELOPER v20.1',
/* originating_system */ 'Autodesk Translation Framework v15.8.0.0',
/* authorisation */ '');

FILE_SCHEMA (('AUTOMOTIVE_DESIGN { 1 0 10303 214 3 1 1 }'));
ENDSEC;

DATA;
#10=MECHANICAL_DESIGN_GEOMETRIC_PRESENTATION_REPRESENTATION('',(#25,#26,
#27,#28,#29,#30,#31,#32,#33,#34,#35,#36,#37,#38,#39,#40),#2060);
#11=SHAPE_REPRESENTATION_RELATIONSHIP('SRR','None',#2067,#12);
#12=ADVANCED_BREP_SHAPE_REPRESENTATION('',(#41,#42,#43,#44,#45,#46,#47,
#48,#49,#50,#51,#52,#53,#54,#55,#56),#2059);
#13=CIRCLE('',#1359,15.);
#14=CIRCLE('',#1360,15.);
#15=CIRCLE('',#1364,15.);
#16=CIRCLE('',#1365,15.);
#17=CIRCLE('',#1369,15.);
#18=CIRCLE('',#1370,15.);
#19=CIRCLE('',#1374,15.);
#20=CIRCLE('',#1375,15.);
#21=CYLINDRICAL_SURFACE('',#1358,15.);
#22=CYLINDRICAL_SURFACE('',#1363,15.);
#23=CYLINDRICAL_SURFACE('',#1368,15.);
#24=CYLINDRICAL_SURFACE('',#1373,15.);
#25=STYLED_ITEM('',(#2077),#41);
#26=STYLED_ITEM('',(#2077),#42);
#27=STYLED_ITEM('',(#2078),#43);
#28=STYLED_ITEM('',(#2078),#44);
#29=STYLED_ITEM('',(#2078),#45);
#30=STYLED_ITEM('',(#2078),#46);
#31=STYLED_ITEM('',(#2078),#47);
#32=STYLED_ITEM('',(#2079),#48);
#33=STYLED_ITEM('',(#2078),#49);
#34=STYLED_ITEM('',(#2078),#50);
#35=STYLED_ITEM('',(#2078),#51);
#36=STYLED_ITEM('',(#2078),#52);
#37=STYLED_ITEM('',(#2076),#53);
#38=STYLED_ITEM('',(#2076),#54);
#39=STYLED_ITEM('',(#2076),#55);
#40=STYLED_ITEM('',(#2076),#56);
#41=MANIFOLD_SOLID_BREP('halbach_array_upper',#1257);
#42=MANIFOLD_SOLID_BREP('halbach_array_lower',#1258);
#43=MANIFOLD_SOLID_BREP('chassis_plate_upper',#1259);
#44=MANIFOLD_SOLID_BREP('chassis_plate_lower',#1260);
#45=MANIFOLD_SOLID_BREP('chassis_web_P',#1261);
#46=MANIFOLD_SOLID_BREP('chassis_web_S',#1262);
#47=MANIFOLD_SOLID_BREP('payload_backstop',#1263);
#48=MANIFOLD_SOLID_BREP('brake_fin_copper',#1264);
#49=MANIFOLD_SOLID_BREP('roller_arm_P_aft',#1265);
#50=MANIFOLD_SOLID_BREP('roller_arm_P_fwd',#1266);
#51=MANIFOLD_SOLID_BREP('roller_arm_S_aft',#1267);
#52=MANIFOLD_SOLID_BREP('roller_arm_S_fwd',#1268);
#53=MANIFOLD_SOLID_BREP('roller_P_aft',#1269);
#54=MANIFOLD_SOLID_BREP('roller_P_fwd',#1270);
#55=MANIFOLD_SOLID_BREP('roller_S_aft',#1271);
#56=MANIFOLD_SOLID_BREP('roller_S_fwd',#1272);
#57=FACE_OUTER_BOUND('',#141,.T.);
#58=FACE_OUTER_BOUND('',#142,.T.);
#59=FACE_OUTER_BOUND('',#143,.T.);
#60=FACE_OUTER_BOUND('',#144,.T.);
#61=FACE_OUTER_BOUND('',#145,.T.);
#62=FACE_OUTER_BOUND('',#146,.T.);
#63=FACE_OUTER_BOUND('',#147,.T.);
#64=FACE_OUTER_BOUND('',#148,.T.);
#65=FACE_OUTER_BOUND('',#149,.T.);
#66=FACE_OUTER_BOUND('',#150,.T.);
#67=FACE_OUTER_BOUND('',#151,.T.);
#68=FACE_OUTER_BOUND('',#152,.T.);
#69=FACE_OUTER_BOUND('',#153,.T.);
#70=FACE_OUTER_BOUND('',#154,.T.);
#71=FACE_OUTER_BOUND('',#155,.T.);
#72=FACE_OUTER_BOUND('',#156,.T.);
#73=FACE_OUTER_BOUND('',#157,.T.);
#74=FACE_OUTER_BOUND('',#158,.T.);
#75=FACE_OUTER_BOUND('',#159,.T.);
#76=FACE_OUTER_BOUND('',#160,.T.);
#77=FACE_OUTER_BOUND('',#161,.T.);
#78=FACE_OUTER_BOUND('',#162,.T.);
#79=FACE_OUTER_BOUND('',#163,.T.);
#80=FACE_OUTER_BOUND('',#164,.T.);
#81=FACE_OUTER_BOUND('',#165,.T.);
#82=FACE_OUTER_BOUND('',#166,.T.);
#83=FACE_OUTER_BOUND('',#167,.T.);
#84=FACE_OUTER_BOUND('',#168,.T.);
#85=FACE_OUTER_BOUND('',#169,.T.);
#86=FACE_OUTER_BOUND('',#170,.T.);
#87=FACE_OUTER_BOUND('',#171,.T.);
#88=FACE_OUTER_BOUND('',#172,.T.);
#89=FACE_OUTER_BOUND('',#173,.T.);
#90=FACE_OUTER_BOUND('',#174,.T.);
#91=FACE_OUTER_BOUND('',#175,.T.);
#92=FACE_OUTER_BOUND('',#176,.T.);
#93=FACE_OUTER_BOUND('',#177,.T.);
#94=FACE_OUTER_BOUND('',#178,.T.);
#95=FACE_OUTER_BOUND('',#179,.T.);
#96=FACE_OUTER_BOUND('',#180,.T.);
#97=FACE_OUTER_BOUND('',#181,.T.);
#98=FACE_OUTER_BOUND('',#182,.T.);
#99=FACE_OUTER_BOUND('',#183,.T.);
#100=FACE_OUTER_BOUND('',#184,.T.);
#101=FACE_OUTER_BOUND('',#185,.T.);
#102=FACE_OUTER_BOUND('',#186,.T.);
#103=FACE_OUTER_BOUND('',#187,.T.);
#104=FACE_OUTER_BOUND('',#188,.T.);
#105=FACE_OUTER_BOUND('',#189,.T.);
#106=FACE_OUTER_BOUND('',#190,.T.);
#107=FACE_OUTER_BOUND('',#191,.T.);
#108=FACE_OUTER_BOUND('',#192,.T.);
#109=FACE_OUTER_BOUND('',#193,.T.);
#110=FACE_OUTER_BOUND('',#194,.T.);
#111=FACE_OUTER_BOUND('',#195,.T.);
#112=FACE_OUTER_BOUND('',#196,.T.);
#113=FACE_OUTER_BOUND('',#197,.T.);
#114=FACE_OUTER_BOUND('',#198,.T.);
#115=FACE_OUTER_BOUND('',#199,.T.);
#116=FACE_OUTER_BOUND('',#200,.T.);
#117=FACE_OUTER_BOUND('',#201,.T.);
#118=FACE_OUTER_BOUND('',#202,.T.);
#119=FACE_OUTER_BOUND('',#203,.T.);
#120=FACE_OUTER_BOUND('',#204,.T.);
#121=FACE_OUTER_BOUND('',#205,.T.);
#122=FACE_OUTER_BOUND('',#206,.T.);
#123=FACE_OUTER_BOUND('',#207,.T.);
#124=FACE_OUTER_BOUND('',#208,.T.);
#125=FACE_OUTER_BOUND('',#209,.T.);
#126=FACE_OUTER_BOUND('',#210,.T.);
#127=FACE_OUTER_BOUND('',#211,.T.);
#128=FACE_OUTER_BOUND('',#212,.T.);
#129=FACE_OUTER_BOUND('',#213,.T.);
#130=FACE_OUTER_BOUND('',#214,.T.);
#131=FACE_OUTER_BOUND('',#215,.T.);
#132=FACE_OUTER_BOUND('',#216,.T.);
#133=FACE_OUTER_BOUND('',#217,.T.);
#134=FACE_OUTER_BOUND('',#218,.T.);
#135=FACE_OUTER_BOUND('',#219,.T.);
#136=FACE_OUTER_BOUND('',#220,.T.);
#137=FACE_OUTER_BOUND('',#221,.T.);
#138=FACE_OUTER_BOUND('',#222,.T.);
#139=FACE_OUTER_BOUND('',#223,.T.);
#140=FACE_OUTER_BOUND('',#224,.T.);
#141=EDGE_LOOP('',(#781,#782,#783,#784));
#142=EDGE_LOOP('',(#785,#786,#787,#788));
#143=EDGE_LOOP('',(#789,#790,#791,#792));
#144=EDGE_LOOP('',(#793,#794,#795,#796));
#145=EDGE_LOOP('',(#797,#798,#799,#800));
#146=EDGE_LOOP('',(#801,#802,#803,#804));
#147=EDGE_LOOP('',(#805,#806,#807,#808));
#148=EDGE_LOOP('',(#809,#810,#811,#812));
#149=EDGE_LOOP('',(#813,#814,#815,#816));
#150=EDGE_LOOP('',(#817,#818,#819,#820));
#151=EDGE_LOOP('',(#821,#822,#823,#824));
#152=EDGE_LOOP('',(#825,#826,#827,#828));
#153=EDGE_LOOP('',(#829,#830,#831,#832));
#154=EDGE_LOOP('',(#833,#834,#835,#836));
#155=EDGE_LOOP('',(#837,#838,#839,#840));
#156=EDGE_LOOP('',(#841,#842,#843,#844));
#157=EDGE_LOOP('',(#845,#846,#847,#848));
#158=EDGE_LOOP('',(#849,#850,#851,#852));
#159=EDGE_LOOP('',(#853,#854,#855,#856));
#160=EDGE_LOOP('',(#857,#858,#859,#860));
#161=EDGE_LOOP('',(#861,#862,#863,#864));
#162=EDGE_LOOP('',(#865,#866,#867,#868));
#163=EDGE_LOOP('',(#869,#870,#871,#872));
#164=EDGE_LOOP('',(#873,#874,#875,#876));
#165=EDGE_LOOP('',(#877,#878,#879,#880));
#166=EDGE_LOOP('',(#881,#882,#883,#884));
#167=EDGE_LOOP('',(#885,#886,#887,#888));
#168=EDGE_LOOP('',(#889,#890,#891,#892));
#169=EDGE_LOOP('',(#893,#894,#895,#896));
#170=EDGE_LOOP('',(#897,#898,#899,#900));
#171=EDGE_LOOP('',(#901,#902,#903,#904));
#172=EDGE_LOOP('',(#905,#906,#907,#908));
#173=EDGE_LOOP('',(#909,#910,#911,#912));
#174=EDGE_LOOP('',(#913,#914,#915,#916));
#175=EDGE_LOOP('',(#917,#918,#919,#920));
#176=EDGE_LOOP('',(#921,#922,#923,#924));
#177=EDGE_LOOP('',(#925,#926,#927,#928));
#178=EDGE_LOOP('',(#929,#930,#931,#932));
#179=EDGE_LOOP('',(#933,#934,#935,#936));
#180=EDGE_LOOP('',(#937,#938,#939,#940));
#181=EDGE_LOOP('',(#941,#942,#943,#944));
#182=EDGE_LOOP('',(#945,#946,#947,#948));
#183=EDGE_LOOP('',(#949,#950,#951,#952));
#184=EDGE_LOOP('',(#953,#954,#955,#956));
#185=EDGE_LOOP('',(#957,#958,#959,#960));
#186=EDGE_LOOP('',(#961,#962,#963,#964));
#187=EDGE_LOOP('',(#965,#966,#967,#968));
#188=EDGE_LOOP('',(#969,#970,#971,#972));
#189=EDGE_LOOP('',(#973,#974,#975,#976));
#190=EDGE_LOOP('',(#977,#978,#979,#980));
#191=EDGE_LOOP('',(#981,#982,#983,#984));
#192=EDGE_LOOP('',(#985,#986,#987,#988));
#193=EDGE_LOOP('',(#989,#990,#991,#992));
#194=EDGE_LOOP('',(#993,#994,#995,#996));
#195=EDGE_LOOP('',(#997,#998,#999,#1000));
#196=EDGE_LOOP('',(#1001,#1002,#1003,#1004));
#197=EDGE_LOOP('',(#1005,#1006,#1007,#1008));
#198=EDGE_LOOP('',(#1009,#1010,#1011,#1012));
#199=EDGE_LOOP('',(#1013,#1014,#1015,#1016));
#200=EDGE_LOOP('',(#1017,#1018,#1019,#1020));
#201=EDGE_LOOP('',(#1021,#1022,#1023,#1024));
#202=EDGE_LOOP('',(#1025,#1026,#1027,#1028));
#203=EDGE_LOOP('',(#1029,#1030,#1031,#1032));
#204=EDGE_LOOP('',(#1033,#1034,#1035,#1036));
#205=EDGE_LOOP('',(#1037,#1038,#1039,#1040));
#206=EDGE_LOOP('',(#1041,#1042,#1043,#1044));
#207=EDGE_LOOP('',(#1045,#1046,#1047,#1048));
#208=EDGE_LOOP('',(#1049,#1050,#1051,#1052));
#209=EDGE_LOOP('',(#1053,#1054,#1055,#1056));
#210=EDGE_LOOP('',(#1057,#1058,#1059,#1060));
#211=EDGE_LOOP('',(#1061,#1062,#1063,#1064));
#212=EDGE_LOOP('',(#1065,#1066,#1067,#1068));
#213=EDGE_LOOP('',(#1069,#1070,#1071,#1072));
#214=EDGE_LOOP('',(#1073));
#215=EDGE_LOOP('',(#1074));
#216=EDGE_LOOP('',(#1075,#1076,#1077,#1078));
#217=EDGE_LOOP('',(#1079));
#218=EDGE_LOOP('',(#1080));
#219=EDGE_LOOP('',(#1081,#1082,#1083,#1084));
#220=EDGE_LOOP('',(#1085));
#221=EDGE_LOOP('',(#1086));
#222=EDGE_LOOP('',(#1087,#1088,#1089,#1090));
#223=EDGE_LOOP('',(#1091));
#224=EDGE_LOOP('',(#1092));
#225=LINE('',#1716,#373);
#226=LINE('',#1718,#374);
#227=LINE('',#1720,#375);
#228=LINE('',#1721,#376);
#229=LINE('',#1724,#377);
#230=LINE('',#1726,#378);
#231=LINE('',#1727,#379);
#232=LINE('',#1730,#380);
#233=LINE('',#1732,#381);
#234=LINE('',#1733,#382);
#235=LINE('',#1735,#383);
#236=LINE('',#1736,#384);
#237=LINE('',#1742,#385);
#238=LINE('',#1744,#386);
#239=LINE('',#1746,#387);
#240=LINE('',#1747,#388);
#241=LINE('',#1750,#389);
#242=LINE('',#1752,#390);
#243=LINE('',#1753,#391);
#244=LINE('',#1756,#392);
#245=LINE('',#1758,#393);
#246=LINE('',#1759,#394);
#247=LINE('',#1761,#395);
#248=LINE('',#1762,#396);
#249=LINE('',#1768,#397);
#250=LINE('',#1770,#398);
#251=LINE('',#1772,#399);
#252=LINE('',#1773,#400);
#253=LINE('',#1776,#401);
#254=LINE('',#1778,#402);
#255=LINE('',#1779,#403);
#256=LINE('',#1782,#404);
#257=LINE('',#1784,#405);
#258=LINE('',#1785,#406);
#259=LINE('',#1787,#407);
#260=LINE('',#1788,#408);
#261=LINE('',#1794,#409);
#262=LINE('',#1796,#410);
#263=LINE('',#1798,#411);
#264=LINE('',#1799,#412);
#265=LINE('',#1802,#413);
#266=LINE('',#1804,#414);
#267=LINE('',#1805,#415);
#268=LINE('',#1808,#416);
#269=LINE('',#1810,#417);
#270=LINE('',#1811,#418);
#271=LINE('',#1813,#419);
#272=LINE('',#1814,#420);
#273=LINE('',#1820,#421);
#274=LINE('',#1822,#422);
#275=LINE('',#1824,#423);
#276=LINE('',#1825,#424);
#277=LINE('',#1828,#425);
#278=LINE('',#1830,#426);
#279=LINE('',#1831,#427);
#280=LINE('',#1834,#428);
#281=LINE('',#1836,#429);
#282=LINE('',#1837,#430);
#283=LINE('',#1839,#431);
#284=LINE('',#1840,#432);
#285=LINE('',#1846,#433);
#286=LINE('',#1848,#434);
#287=LINE('',#1850,#435);
#288=LINE('',#1851,#436);
#289=LINE('',#1854,#437);
#290=LINE('',#1856,#438);
#291=LINE('',#1857,#439);
#292=LINE('',#1860,#440);
#293=LINE('',#1862,#441);
#294=LINE('',#1863,#442);
#295=LINE('',#1865,#443);
#296=LINE('',#1866,#444);
#297=LINE('',#1872,#445);
#298=LINE('',#1874,#446);
#299=LINE('',#1876,#447);
#300=LINE('',#1877,#448);
#301=LINE('',#1880,#449);
#302=LINE('',#1882,#450);
#303=LINE('',#1883,#451);
#304=LINE('',#1886,#452);
#305=LINE('',#1888,#453);
#306=LINE('',#1889,#454);
#307=LINE('',#1891,#455);
#308=LINE('',#1892,#456);
#309=LINE('',#1898,#457);
#310=LINE('',#1900,#458);
#311=LINE('',#1902,#459);
#312=LINE('',#1903,#460);
#313=LINE('',#1906,#461);
#314=LINE('',#1908,#462);
#315=LINE('',#1909,#463);
#316=LINE('',#1912,#464);
#317=LINE('',#1914,#465);
#318=LINE('',#1915,#466);
#319=LINE('',#1917,#467);
#320=LINE('',#1918,#468);
#321=LINE('',#1924,#469);
#322=LINE('',#1926,#470);
#323=LINE('',#1928,#471);
#324=LINE('',#1929,#472);
#325=LINE('',#1932,#473);
#326=LINE('',#1934,#474);
#327=LINE('',#1935,#475);
#328=LINE('',#1938,#476);
#329=LINE('',#1940,#477);
#330=LINE('',#1941,#478);
#331=LINE('',#1943,#479);
#332=LINE('',#1944,#480);
#333=LINE('',#1950,#481);
#334=LINE('',#1952,#482);
#335=LINE('',#1954,#483);
#336=LINE('',#1955,#484);
#337=LINE('',#1958,#485);
#338=LINE('',#1960,#486);
#339=LINE('',#1961,#487);
#340=LINE('',#1964,#488);
#341=LINE('',#1966,#489);
#342=LINE('',#1967,#490);
#343=LINE('',#1969,#491);
#344=LINE('',#1970,#492);
#345=LINE('',#1976,#493);
#346=LINE('',#1978,#494);
#347=LINE('',#1980,#495);
#348=LINE('',#1981,#496);
#349=LINE('',#1984,#497);
#350=LINE('',#1986,#498);
#351=LINE('',#1987,#499);
#352=LINE('',#1990,#500);
#353=LINE('',#1992,#501);
#354=LINE('',#1993,#502);
#355=LINE('',#1995,#503);
#356=LINE('',#1996,#504);
#357=LINE('',#2002,#505);
#358=LINE('',#2004,#506);
#359=LINE('',#2006,#507);
#360=LINE('',#2007,#508);
#361=LINE('',#2010,#509);
#362=LINE('',#2012,#510);
#363=LINE('',#2013,#511);
#364=LINE('',#2016,#512);
#365=LINE('',#2018,#513);
#366=LINE('',#2019,#514);
#367=LINE('',#2021,#515);
#368=LINE('',#2022,#516);
#369=LINE('',#2029,#517);
#370=LINE('',#2037,#518);
#371=LINE('',#2045,#519);
#372=LINE('',#2053,#520);
#373=VECTOR('',#1382,10.);
#374=VECTOR('',#1383,10.);
#375=VECTOR('',#1384,10.);
#376=VECTOR('',#1385,10.);
#377=VECTOR('',#1388,10.);
#378=VECTOR('',#1389,10.);
#379=VECTOR('',#1390,10.);
#380=VECTOR('',#1393,10.);
#381=VECTOR('',#1394,10.);
#382=VECTOR('',#1395,10.);
#383=VECTOR('',#1398,10.);
#384=VECTOR('',#1399,10.);
#385=VECTOR('',#1406,10.);
#386=VECTOR('',#1407,10.);
#387=VECTOR('',#1408,10.);
#388=VECTOR('',#1409,10.);
#389=VECTOR('',#1412,10.);
#390=VECTOR('',#1413,10.);
#391=VECTOR('',#1414,10.);
#392=VECTOR('',#1417,10.);
#393=VECTOR('',#1418,10.);
#394=VECTOR('',#1419,10.);
#395=VECTOR('',#1422,10.);
#396=VECTOR('',#1423,10.);
#397=VECTOR('',#1430,10.);
#398=VECTOR('',#1431,10.);
#399=VECTOR('',#1432,10.);
#400=VECTOR('',#1433,10.);
#401=VECTOR('',#1436,10.);
#402=VECTOR('',#1437,10.);
#403=VECTOR('',#1438,10.);
#404=VECTOR('',#1441,10.);
#405=VECTOR('',#1442,10.);
#406=VECTOR('',#1443,10.);
#407=VECTOR('',#1446,10.);
#408=VECTOR('',#1447,10.);
#409=VECTOR('',#1454,10.);
#410=VECTOR('',#1455,10.);
#411=VECTOR('',#1456,10.);
#412=VECTOR('',#1457,10.);
#413=VECTOR('',#1460,10.);
#414=VECTOR('',#1461,10.);
#415=VECTOR('',#1462,10.);
#416=VECTOR('',#1465,10.);
#417=VECTOR('',#1466,10.);
#418=VECTOR('',#1467,10.);
#419=VECTOR('',#1470,10.);
#420=VECTOR('',#1471,10.);
#421=VECTOR('',#1478,10.);
#422=VECTOR('',#1479,10.);
#423=VECTOR('',#1480,10.);
#424=VECTOR('',#1481,10.);
#425=VECTOR('',#1484,10.);
#426=VECTOR('',#1485,10.);
#427=VECTOR('',#1486,10.);
#428=VECTOR('',#1489,10.);
#429=VECTOR('',#1490,10.);
#430=VECTOR('',#1491,10.);
#431=VECTOR('',#1494,10.);
#432=VECTOR('',#1495,10.);
#433=VECTOR('',#1502,10.);
#434=VECTOR('',#1503,10.);
#435=VECTOR('',#1504,10.);
#436=VECTOR('',#1505,10.);
#437=VECTOR('',#1508,10.);
#438=VECTOR('',#1509,10.);
#439=VECTOR('',#1510,10.);
#440=VECTOR('',#1513,10.);
#441=VECTOR('',#1514,10.);
#442=VECTOR('',#1515,10.);
#443=VECTOR('',#1518,10.);
#444=VECTOR('',#1519,10.);
#445=VECTOR('',#1526,10.);
#446=VECTOR('',#1527,10.);
#447=VECTOR('',#1528,10.);
#448=VECTOR('',#1529,10.);
#449=VECTOR('',#1532,10.);
#450=VECTOR('',#1533,10.);
#451=VECTOR('',#1534,10.);
#452=VECTOR('',#1537,10.);
#453=VECTOR('',#1538,10.);
#454=VECTOR('',#1539,10.);
#455=VECTOR('',#1542,10.);
#456=VECTOR('',#1543,10.);
#457=VECTOR('',#1550,10.);
#458=VECTOR('',#1551,10.);
#459=VECTOR('',#1552,10.);
#460=VECTOR('',#1553,10.);
#461=VECTOR('',#1556,10.);
#462=VECTOR('',#1557,10.);
#463=VECTOR('',#1558,10.);
#464=VECTOR('',#1561,10.);
#465=VECTOR('',#1562,10.);
#466=VECTOR('',#1563,10.);
#467=VECTOR('',#1566,10.);
#468=VECTOR('',#1567,10.);
#469=VECTOR('',#1574,10.);
#470=VECTOR('',#1575,10.);
#471=VECTOR('',#1576,10.);
#472=VECTOR('',#1577,10.);
#473=VECTOR('',#1580,10.);
#474=VECTOR('',#1581,10.);
#475=VECTOR('',#1582,10.);
#476=VECTOR('',#1585,10.);
#477=VECTOR('',#1586,10.);
#478=VECTOR('',#1587,10.);
#479=VECTOR('',#1590,10.);
#480=VECTOR('',#1591,10.);
#481=VECTOR('',#1598,10.);
#482=VECTOR('',#1599,10.);
#483=VECTOR('',#1600,10.);
#484=VECTOR('',#1601,10.);
#485=VECTOR('',#1604,10.);
#486=VECTOR('',#1605,10.);
#487=VECTOR('',#1606,10.);
#488=VECTOR('',#1609,10.);
#489=VECTOR('',#1610,10.);
#490=VECTOR('',#1611,10.);
#491=VECTOR('',#1614,10.);
#492=VECTOR('',#1615,10.);
#493=VECTOR('',#1622,10.);
#494=VECTOR('',#1623,10.);
#495=VECTOR('',#1624,10.);
#496=VECTOR('',#1625,10.);
#497=VECTOR('',#1628,10.);
#498=VECTOR('',#1629,10.);
#499=VECTOR('',#1630,10.);
#500=VECTOR('',#1633,10.);
#501=VECTOR('',#1634,10.);
#502=VECTOR('',#1635,10.);
#503=VECTOR('',#1638,10.);
#504=VECTOR('',#1639,10.);
#505=VECTOR('',#1646,10.);
#506=VECTOR('',#1647,10.);
#507=VECTOR('',#1648,10.);
#508=VECTOR('',#1649,10.);
#509=VECTOR('',#1652,10.);
#510=VECTOR('',#1653,10.);
#511=VECTOR('',#1654,10.);
#512=VECTOR('',#1657,10.);
#513=VECTOR('',#1658,10.);
#514=VECTOR('',#1659,10.);
#515=VECTOR('',#1662,10.);
#516=VECTOR('',#1663,10.);
#517=VECTOR('',#1672,15.);
#518=VECTOR('',#1683,15.);
#519=VECTOR('',#1694,15.);
#520=VECTOR('',#1705,15.);
#521=VERTEX_POINT('',#1714);
#522=VERTEX_POINT('',#1715);
#523=VERTEX_POINT('',#1717);
#524=VERTEX_POINT('',#1719);
#525=VERTEX_POINT('',#1723);
#526=VERTEX_POINT('',#1725);
#527=VERTEX_POINT('',#1729);
#528=VERTEX_POINT('',#1731);
#529=VERTEX_POINT('',#1740);
#530=VERTEX_POINT('',#1741);
#531=VERTEX_POINT('',#1743);
#532=VERTEX_POINT('',#1745);
#533=VERTEX_POINT('',#1749);
#534=VERTEX_POINT('',#1751);
#535=VERTEX_POINT('',#1755);
#536=VERTEX_POINT('',#1757);
#537=VERTEX_POINT('',#1766);
#538=VERTEX_POINT('',#1767);
#539=VERTEX_POINT('',#1769);
#540=VERTEX_POINT('',#1771);
#541=VERTEX_POINT('',#1775);
#542=VERTEX_POINT('',#1777);
#543=VERTEX_POINT('',#1781);
#544=VERTEX_POINT('',#1783);
#545=VERTEX_POINT('',#1792);
#546=VERTEX_POINT('',#1793);
#547=VERTEX_POINT('',#1795);
#548=VERTEX_POINT('',#1797);
#549=VERTEX_POINT('',#1801);
#550=VERTEX_POINT('',#1803);
#551=VERTEX_POINT('',#1807);
#552=VERTEX_POINT('',#1809);
#553=VERTEX_POINT('',#1818);
#554=VERTEX_POINT('',#1819);
#555=VERTEX_POINT('',#1821);
#556=VERTEX_POINT('',#1823);
#557=VERTEX_POINT('',#1827);
#558=VERTEX_POINT('',#1829);
#559=VERTEX_POINT('',#1833);
#560=VERTEX_POINT('',#1835);
#561=VERTEX_POINT('',#1844);
#562=VERTEX_POINT('',#1845);
#563=VERTEX_POINT('',#1847);
#564=VERTEX_POINT('',#1849);
#565=VERTEX_POINT('',#1853);
#566=VERTEX_POINT('',#1855);
#567=VERTEX_POINT('',#1859);
#568=VERTEX_POINT('',#1861);
#569=VERTEX_POINT('',#1870);
#570=VERTEX_POINT('',#1871);
#571=VERTEX_POINT('',#1873);
#572=VERTEX_POINT('',#1875);
#573=VERTEX_POINT('',#1879);
#574=VERTEX_POINT('',#1881);
#575=VERTEX_POINT('',#1885);
#576=VERTEX_POINT('',#1887);
#577=VERTEX_POINT('',#1896);
#578=VERTEX_POINT('',#1897);
#579=VERTEX_POINT('',#1899);
#580=VERTEX_POINT('',#1901);
#581=VERTEX_POINT('',#1905);
#582=VERTEX_POINT('',#1907);
#583=VERTEX_POINT('',#1911);
#584=VERTEX_POINT('',#1913);
#585=VERTEX_POINT('',#1922);
#586=VERTEX_POINT('',#1923);
#587=VERTEX_POINT('',#1925);
#588=VERTEX_POINT('',#1927);
#589=VERTEX_POINT('',#1931);
#590=VERTEX_POINT('',#1933);
#591=VERTEX_POINT('',#1937);
#592=VERTEX_POINT('',#1939);
#593=VERTEX_POINT('',#1948);
#594=VERTEX_POINT('',#1949);
#595=VERTEX_POINT('',#1951);
#596=VERTEX_POINT('',#1953);
#597=VERTEX_POINT('',#1957);
#598=VERTEX_POINT('',#1959);
#599=VERTEX_POINT('',#1963);
#600=VERTEX_POINT('',#1965);
#601=VERTEX_POINT('',#1974);
#602=VERTEX_POINT('',#1975);
#603=VERTEX_POINT('',#1977);
#604=VERTEX_POINT('',#1979);
#605=VERTEX_POINT('',#1983);
#606=VERTEX_POINT('',#1985);
#607=VERTEX_POINT('',#1989);
#608=VERTEX_POINT('',#1991);
#609=VERTEX_POINT('',#2000);
#610=VERTEX_POINT('',#2001);
#611=VERTEX_POINT('',#2003);
#612=VERTEX_POINT('',#2005);
#613=VERTEX_POINT('',#2009);
#614=VERTEX_POINT('',#2011);
#615=VERTEX_POINT('',#2015);
#616=VERTEX_POINT('',#2017);
#617=VERTEX_POINT('',#2026);
#618=VERTEX_POINT('',#2028);
#619=VERTEX_POINT('',#2034);
#620=VERTEX_POINT('',#2036);
#621=VERTEX_POINT('',#2042);
#622=VERTEX_POINT('',#2044);
#623=VERTEX_POINT('',#2050);
#624=VERTEX_POINT('',#2052);
#625=EDGE_CURVE('',#521,#522,#225,.T.);
#626=EDGE_CURVE('',#522,#523,#226,.T.);
#627=EDGE_CURVE('',#524,#523,#227,.T.);
#628=EDGE_CURVE('',#521,#524,#228,.T.);
#629=EDGE_CURVE('',#525,#521,#229,.T.);
#630=EDGE_CURVE('',#526,#524,#230,.T.);
#631=EDGE_CURVE('',#525,#526,#231,.T.);
#632=EDGE_CURVE('',#527,#525,#232,.T.);
#633=EDGE_CURVE('',#528,#526,#233,.T.);
#634=EDGE_CURVE('',#527,#528,#234,.T.);
#635=EDGE_CURVE('',#522,#527,#235,.T.);
#636=EDGE_CURVE('',#523,#528,#236,.T.);
#637=EDGE_CURVE('',#529,#530,#237,.T.);
#638=EDGE_CURVE('',#530,#531,#238,.T.);
#639=EDGE_CURVE('',#532,#531,#239,.T.);
#640=EDGE_CURVE('',#529,#532,#240,.T.);
#641=EDGE_CURVE('',#533,#529,#241,.T.);
#642=EDGE_CURVE('',#534,#532,#242,.T.);
#643=EDGE_CURVE('',#533,#534,#243,.T.);
#644=EDGE_CURVE('',#535,#533,#244,.T.);
#645=EDGE_CURVE('',#536,#534,#245,.T.);
#646=EDGE_CURVE('',#535,#536,#246,.T.);
#647=EDGE_CURVE('',#530,#535,#247,.T.);
#648=EDGE_CURVE('',#531,#536,#248,.T.);
#649=EDGE_CURVE('',#537,#538,#249,.T.);
#650=EDGE_CURVE('',#538,#539,#250,.T.);
#651=EDGE_CURVE('',#540,#539,#251,.T.);
#652=EDGE_CURVE('',#537,#540,#252,.T.);
#653=EDGE_CURVE('',#541,#537,#253,.T.);
#654=EDGE_CURVE('',#542,#540,#254,.T.);
#655=EDGE_CURVE('',#541,#542,#255,.T.);
#656=EDGE_CURVE('',#543,#541,#256,.T.);
#657=EDGE_CURVE('',#544,#542,#257,.T.);
#658=EDGE_CURVE('',#543,#544,#258,.T.);
#659=EDGE_CURVE('',#538,#543,#259,.T.);
#660=EDGE_CURVE('',#539,#544,#260,.T.);
#661=EDGE_CURVE('',#545,#546,#261,.T.);
#662=EDGE_CURVE('',#546,#547,#262,.T.);
#663=EDGE_CURVE('',#548,#547,#263,.T.);
#664=EDGE_CURVE('',#545,#548,#264,.T.);
#665=EDGE_CURVE('',#549,#545,#265,.T.);
#666=EDGE_CURVE('',#550,#548,#266,.T.);
#667=EDGE_CURVE('',#549,#550,#267,.T.);
#668=EDGE_CURVE('',#551,#549,#268,.T.);
#669=EDGE_CURVE('',#552,#550,#269,.T.);
#670=EDGE_CURVE('',#551,#552,#270,.T.);
#671=EDGE_CURVE('',#546,#551,#271,.T.);
#672=EDGE_CURVE('',#547,#552,#272,.T.);
#673=EDGE_CURVE('',#553,#554,#273,.T.);
#674=EDGE_CURVE('',#554,#555,#274,.T.);
#675=EDGE_CURVE('',#556,#555,#275,.T.);
#676=EDGE_CURVE('',#553,#556,#276,.T.);
#677=EDGE_CURVE('',#557,#553,#277,.T.);
#678=EDGE_CURVE('',#558,#556,#278,.T.);
#679=EDGE_CURVE('',#557,#558,#279,.T.);
#680=EDGE_CURVE('',#559,#557,#280,.T.);
#681=EDGE_CURVE('',#560,#558,#281,.T.);
#682=EDGE_CURVE('',#559,#560,#282,.T.);
#683=EDGE_CURVE('',#554,#559,#283,.T.);
#684=EDGE_CURVE('',#555,#560,#284,.T.);
#685=EDGE_CURVE('',#561,#562,#285,.T.);
#686=EDGE_CURVE('',#562,#563,#286,.T.);
#687=EDGE_CURVE('',#564,#563,#287,.T.);
#688=EDGE_CURVE('',#561,#564,#288,.T.);
#689=EDGE_CURVE('',#565,#561,#289,.T.);
#690=EDGE_CURVE('',#566,#564,#290,.T.);
#691=EDGE_CURVE('',#565,#566,#291,.T.);
#692=EDGE_CURVE('',#567,#565,#292,.T.);
#693=EDGE_CURVE('',#568,#566,#293,.T.);
#694=EDGE_CURVE('',#567,#568,#294,.T.);
#695=EDGE_CURVE('',#562,#567,#295,.T.);
#696=EDGE_CURVE('',#563,#568,#296,.T.);
#697=EDGE_CURVE('',#569,#570,#297,.T.);
#698=EDGE_CURVE('',#570,#571,#298,.T.);
#699=EDGE_CURVE('',#572,#571,#299,.T.);
#700=EDGE_CURVE('',#569,#572,#300,.T.);
#701=EDGE_CURVE('',#573,#569,#301,.T.);
#702=EDGE_CURVE('',#574,#572,#302,.T.);
#703=EDGE_CURVE('',#573,#574,#303,.T.);
#704=EDGE_CURVE('',#575,#573,#304,.T.);
#705=EDGE_CURVE('',#576,#574,#305,.T.);
#706=EDGE_CURVE('',#575,#576,#306,.T.);
#707=EDGE_CURVE('',#570,#575,#307,.T.);
#708=EDGE_CURVE('',#571,#576,#308,.T.);
#709=EDGE_CURVE('',#577,#578,#309,.T.);
#710=EDGE_CURVE('',#578,#579,#310,.T.);
#711=EDGE_CURVE('',#580,#579,#311,.T.);
#712=EDGE_CURVE('',#577,#580,#312,.T.);
#713=EDGE_CURVE('',#581,#577,#313,.T.);
#714=EDGE_CURVE('',#582,#580,#314,.T.);
#715=EDGE_CURVE('',#581,#582,#315,.T.);
#716=EDGE_CURVE('',#583,#581,#316,.T.);
#717=EDGE_CURVE('',#584,#582,#317,.T.);
#718=EDGE_CURVE('',#583,#584,#318,.T.);
#719=EDGE_CURVE('',#578,#583,#319,.T.);
#720=EDGE_CURVE('',#579,#584,#320,.T.);
#721=EDGE_CURVE('',#585,#586,#321,.T.);
#722=EDGE_CURVE('',#586,#587,#322,.T.);
#723=EDGE_CURVE('',#588,#587,#323,.T.);
#724=EDGE_CURVE('',#585,#588,#324,.T.);
#725=EDGE_CURVE('',#589,#585,#325,.T.);
#726=EDGE_CURVE('',#590,#588,#326,.T.);
#727=EDGE_CURVE('',#589,#590,#327,.T.);
#728=EDGE_CURVE('',#591,#589,#328,.T.);
#729=EDGE_CURVE('',#592,#590,#329,.T.);
#730=EDGE_CURVE('',#591,#592,#330,.T.);
#731=EDGE_CURVE('',#586,#591,#331,.T.);
#732=EDGE_CURVE('',#587,#592,#332,.T.);
#733=EDGE_CURVE('',#593,#594,#333,.T.);
#734=EDGE_CURVE('',#594,#595,#334,.T.);
#735=EDGE_CURVE('',#596,#595,#335,.T.);
#736=EDGE_CURVE('',#593,#596,#336,.T.);
#737=EDGE_CURVE('',#597,#593,#337,.T.);
#738=EDGE_CURVE('',#598,#596,#338,.T.);
#739=EDGE_CURVE('',#597,#598,#339,.T.);
#740=EDGE_CURVE('',#599,#597,#340,.T.);
#741=EDGE_CURVE('',#600,#598,#341,.T.);
#742=EDGE_CURVE('',#599,#600,#342,.T.);
#743=EDGE_CURVE('',#594,#599,#343,.T.);
#744=EDGE_CURVE('',#595,#600,#344,.T.);
#745=EDGE_CURVE('',#601,#602,#345,.T.);
#746=EDGE_CURVE('',#602,#603,#346,.T.);
#747=EDGE_CURVE('',#604,#603,#347,.T.);
#748=EDGE_CURVE('',#601,#604,#348,.T.);
#749=EDGE_CURVE('',#605,#601,#349,.T.);
#750=EDGE_CURVE('',#606,#604,#350,.T.);
#751=EDGE_CURVE('',#605,#606,#351,.T.);
#752=EDGE_CURVE('',#607,#605,#352,.T.);
#753=EDGE_CURVE('',#608,#606,#353,.T.);
#754=EDGE_CURVE('',#607,#608,#354,.T.);
#755=EDGE_CURVE('',#602,#607,#355,.T.);
#756=EDGE_CURVE('',#603,#608,#356,.T.);
#757=EDGE_CURVE('',#609,#610,#357,.T.);
#758=EDGE_CURVE('',#610,#611,#358,.T.);
#759=EDGE_CURVE('',#612,#611,#359,.T.);
#760=EDGE_CURVE('',#609,#612,#360,.T.);
#761=EDGE_CURVE('',#613,#609,#361,.T.);
#762=EDGE_CURVE('',#614,#612,#362,.T.);
#763=EDGE_CURVE('',#613,#614,#363,.T.);
#764=EDGE_CURVE('',#615,#613,#364,.T.);
#765=EDGE_CURVE('',#616,#614,#365,.T.);
#766=EDGE_CURVE('',#615,#616,#366,.T.);
#767=EDGE_CURVE('',#610,#615,#367,.T.);
#768=EDGE_CURVE('',#611,#616,#368,.T.);
#769=EDGE_CURVE('',#617,#617,#13,.T.);
#770=EDGE_CURVE('',#617,#618,#369,.T.);
#771=EDGE_CURVE('',#618,#618,#14,.T.);
#772=EDGE_CURVE('',#619,#619,#15,.T.);
#773=EDGE_CURVE('',#619,#620,#370,.T.);
#774=EDGE_CURVE('',#620,#620,#16,.T.);
#775=EDGE_CURVE('',#621,#621,#17,.T.);
#776=EDGE_CURVE('',#621,#622,#371,.T.);
#777=EDGE_CURVE('',#622,#622,#18,.T.);
#778=EDGE_CURVE('',#623,#623,#19,.T.);
#779=EDGE_CURVE('',#623,#624,#372,.T.);
#780=EDGE_CURVE('',#624,#624,#20,.T.);
#781=ORIENTED_EDGE('',*,*,#625,.T.);
#782=ORIENTED_EDGE('',*,*,#626,.T.);
#783=ORIENTED_EDGE('',*,*,#627,.F.);
#784=ORIENTED_EDGE('',*,*,#628,.F.);
#785=ORIENTED_EDGE('',*,*,#629,.T.);
#786=ORIENTED_EDGE('',*,*,#628,.T.);
#787=ORIENTED_EDGE('',*,*,#630,.F.);
#788=ORIENTED_EDGE('',*,*,#631,.F.);
#789=ORIENTED_EDGE('',*,*,#632,.T.);
#790=ORIENTED_EDGE('',*,*,#631,.T.);
#791=ORIENTED_EDGE('',*,*,#633,.F.);
#792=ORIENTED_EDGE('',*,*,#634,.F.);
#793=ORIENTED_EDGE('',*,*,#635,.T.);
#794=ORIENTED_EDGE('',*,*,#634,.T.);
#795=ORIENTED_EDGE('',*,*,#636,.F.);
#796=ORIENTED_EDGE('',*,*,#626,.F.);
#797=ORIENTED_EDGE('',*,*,#636,.T.);
#798=ORIENTED_EDGE('',*,*,#633,.T.);
#799=ORIENTED_EDGE('',*,*,#630,.T.);
#800=ORIENTED_EDGE('',*,*,#627,.T.);
#801=ORIENTED_EDGE('',*,*,#635,.F.);
#802=ORIENTED_EDGE('',*,*,#625,.F.);
#803=ORIENTED_EDGE('',*,*,#629,.F.);
#804=ORIENTED_EDGE('',*,*,#632,.F.);
#805=ORIENTED_EDGE('',*,*,#637,.T.);
#806=ORIENTED_EDGE('',*,*,#638,.T.);
#807=ORIENTED_EDGE('',*,*,#639,.F.);
#808=ORIENTED_EDGE('',*,*,#640,.F.);
#809=ORIENTED_EDGE('',*,*,#641,.T.);
#810=ORIENTED_EDGE('',*,*,#640,.T.);
#811=ORIENTED_EDGE('',*,*,#642,.F.);
#812=ORIENTED_EDGE('',*,*,#643,.F.);
#813=ORIENTED_EDGE('',*,*,#644,.T.);
#814=ORIENTED_EDGE('',*,*,#643,.T.);
#815=ORIENTED_EDGE('',*,*,#645,.F.);
#816=ORIENTED_EDGE('',*,*,#646,.F.);
#817=ORIENTED_EDGE('',*,*,#647,.T.);
#818=ORIENTED_EDGE('',*,*,#646,.T.);
#819=ORIENTED_EDGE('',*,*,#648,.F.);
#820=ORIENTED_EDGE('',*,*,#638,.F.);
#821=ORIENTED_EDGE('',*,*,#648,.T.);
#822=ORIENTED_EDGE('',*,*,#645,.T.);
#823=ORIENTED_EDGE('',*,*,#642,.T.);
#824=ORIENTED_EDGE('',*,*,#639,.T.);
#825=ORIENTED_EDGE('',*,*,#647,.F.);
#826=ORIENTED_EDGE('',*,*,#637,.F.);
#827=ORIENTED_EDGE('',*,*,#641,.F.);
#828=ORIENTED_EDGE('',*,*,#644,.F.);
#829=ORIENTED_EDGE('',*,*,#649,.T.);
#830=ORIENTED_EDGE('',*,*,#650,.T.);
#831=ORIENTED_EDGE('',*,*,#651,.F.);
#832=ORIENTED_EDGE('',*,*,#652,.F.);
#833=ORIENTED_EDGE('',*,*,#653,.T.);
#834=ORIENTED_EDGE('',*,*,#652,.T.);
#835=ORIENTED_EDGE('',*,*,#654,.F.);
#836=ORIENTED_EDGE('',*,*,#655,.F.);
#837=ORIENTED_EDGE('',*,*,#656,.T.);
#838=ORIENTED_EDGE('',*,*,#655,.T.);
#839=ORIENTED_EDGE('',*,*,#657,.F.);
#840=ORIENTED_EDGE('',*,*,#658,.F.);
#841=ORIENTED_EDGE('',*,*,#659,.T.);
#842=ORIENTED_EDGE('',*,*,#658,.T.);
#843=ORIENTED_EDGE('',*,*,#660,.F.);
#844=ORIENTED_EDGE('',*,*,#650,.F.);
#845=ORIENTED_EDGE('',*,*,#660,.T.);
#846=ORIENTED_EDGE('',*,*,#657,.T.);
#847=ORIENTED_EDGE('',*,*,#654,.T.);
#848=ORIENTED_EDGE('',*,*,#651,.T.);
#849=ORIENTED_EDGE('',*,*,#659,.F.);
#850=ORIENTED_EDGE('',*,*,#649,.F.);
#851=ORIENTED_EDGE('',*,*,#653,.F.);
#852=ORIENTED_EDGE('',*,*,#656,.F.);
#853=ORIENTED_EDGE('',*,*,#661,.T.);
#854=ORIENTED_EDGE('',*,*,#662,.T.);
#855=ORIENTED_EDGE('',*,*,#663,.F.);
#856=ORIENTED_EDGE('',*,*,#664,.F.);
#857=ORIENTED_EDGE('',*,*,#665,.T.);
#858=ORIENTED_EDGE('',*,*,#664,.T.);
#859=ORIENTED_EDGE('',*,*,#666,.F.);
#860=ORIENTED_EDGE('',*,*,#667,.F.);
#861=ORIENTED_EDGE('',*,*,#668,.T.);
#862=ORIENTED_EDGE('',*,*,#667,.T.);
#863=ORIENTED_EDGE('',*,*,#669,.F.);
#864=ORIENTED_EDGE('',*,*,#670,.F.);
#865=ORIENTED_EDGE('',*,*,#671,.T.);
#866=ORIENTED_EDGE('',*,*,#670,.T.);
#867=ORIENTED_EDGE('',*,*,#672,.F.);
#868=ORIENTED_EDGE('',*,*,#662,.F.);
#869=ORIENTED_EDGE('',*,*,#672,.T.);
#870=ORIENTED_EDGE('',*,*,#669,.T.);
#871=ORIENTED_EDGE('',*,*,#666,.T.);
#872=ORIENTED_EDGE('',*,*,#663,.T.);
#873=ORIENTED_EDGE('',*,*,#671,.F.);
#874=ORIENTED_EDGE('',*,*,#661,.F.);
#875=ORIENTED_EDGE('',*,*,#665,.F.);
#876=ORIENTED_EDGE('',*,*,#668,.F.);
#877=ORIENTED_EDGE('',*,*,#673,.T.);
#878=ORIENTED_EDGE('',*,*,#674,.T.);
#879=ORIENTED_EDGE('',*,*,#675,.F.);
#880=ORIENTED_EDGE('',*,*,#676,.F.);
#881=ORIENTED_EDGE('',*,*,#677,.T.);
#882=ORIENTED_EDGE('',*,*,#676,.T.);
#883=ORIENTED_EDGE('',*,*,#678,.F.);
#884=ORIENTED_EDGE('',*,*,#679,.F.);
#885=ORIENTED_EDGE('',*,*,#680,.T.);
#886=ORIENTED_EDGE('',*,*,#679,.T.);
#887=ORIENTED_EDGE('',*,*,#681,.F.);
#888=ORIENTED_EDGE('',*,*,#682,.F.);
#889=ORIENTED_EDGE('',*,*,#683,.T.);
#890=ORIENTED_EDGE('',*,*,#682,.T.);
#891=ORIENTED_EDGE('',*,*,#684,.F.);
#892=ORIENTED_EDGE('',*,*,#674,.F.);
#893=ORIENTED_EDGE('',*,*,#684,.T.);
#894=ORIENTED_EDGE('',*,*,#681,.T.);
#895=ORIENTED_EDGE('',*,*,#678,.T.);
#896=ORIENTED_EDGE('',*,*,#675,.T.);
#897=ORIENTED_EDGE('',*,*,#683,.F.);
#898=ORIENTED_EDGE('',*,*,#673,.F.);
#899=ORIENTED_EDGE('',*,*,#677,.F.);
#900=ORIENTED_EDGE('',*,*,#680,.F.);
#901=ORIENTED_EDGE('',*,*,#685,.T.);
#902=ORIENTED_EDGE('',*,*,#686,.T.);
#903=ORIENTED_EDGE('',*,*,#687,.F.);
#904=ORIENTED_EDGE('',*,*,#688,.F.);
#905=ORIENTED_EDGE('',*,*,#689,.T.);
#906=ORIENTED_EDGE('',*,*,#688,.T.);
#907=ORIENTED_EDGE('',*,*,#690,.F.);
#908=ORIENTED_EDGE('',*,*,#691,.F.);
#909=ORIENTED_EDGE('',*,*,#692,.T.);
#910=ORIENTED_EDGE('',*,*,#691,.T.);
#911=ORIENTED_EDGE('',*,*,#693,.F.);
#912=ORIENTED_EDGE('',*,*,#694,.F.);
#913=ORIENTED_EDGE('',*,*,#695,.T.);
#914=ORIENTED_EDGE('',*,*,#694,.T.);
#915=ORIENTED_EDGE('',*,*,#696,.F.);
#916=ORIENTED_EDGE('',*,*,#686,.F.);
#917=ORIENTED_EDGE('',*,*,#696,.T.);
#918=ORIENTED_EDGE('',*,*,#693,.T.);
#919=ORIENTED_EDGE('',*,*,#690,.T.);
#920=ORIENTED_EDGE('',*,*,#687,.T.);
#921=ORIENTED_EDGE('',*,*,#695,.F.);
#922=ORIENTED_EDGE('',*,*,#685,.F.);
#923=ORIENTED_EDGE('',*,*,#689,.F.);
#924=ORIENTED_EDGE('',*,*,#692,.F.);
#925=ORIENTED_EDGE('',*,*,#697,.T.);
#926=ORIENTED_EDGE('',*,*,#698,.T.);
#927=ORIENTED_EDGE('',*,*,#699,.F.);
#928=ORIENTED_EDGE('',*,*,#700,.F.);
#929=ORIENTED_EDGE('',*,*,#701,.T.);
#930=ORIENTED_EDGE('',*,*,#700,.T.);
#931=ORIENTED_EDGE('',*,*,#702,.F.);
#932=ORIENTED_EDGE('',*,*,#703,.F.);
#933=ORIENTED_EDGE('',*,*,#704,.T.);
#934=ORIENTED_EDGE('',*,*,#703,.T.);
#935=ORIENTED_EDGE('',*,*,#705,.F.);
#936=ORIENTED_EDGE('',*,*,#706,.F.);
#937=ORIENTED_EDGE('',*,*,#707,.T.);
#938=ORIENTED_EDGE('',*,*,#706,.T.);
#939=ORIENTED_EDGE('',*,*,#708,.F.);
#940=ORIENTED_EDGE('',*,*,#698,.F.);
#941=ORIENTED_EDGE('',*,*,#708,.T.);
#942=ORIENTED_EDGE('',*,*,#705,.T.);
#943=ORIENTED_EDGE('',*,*,#702,.T.);
#944=ORIENTED_EDGE('',*,*,#699,.T.);
#945=ORIENTED_EDGE('',*,*,#707,.F.);
#946=ORIENTED_EDGE('',*,*,#697,.F.);
#947=ORIENTED_EDGE('',*,*,#701,.F.);
#948=ORIENTED_EDGE('',*,*,#704,.F.);
#949=ORIENTED_EDGE('',*,*,#709,.T.);
#950=ORIENTED_EDGE('',*,*,#710,.T.);
#951=ORIENTED_EDGE('',*,*,#711,.F.);
#952=ORIENTED_EDGE('',*,*,#712,.F.);
#953=ORIENTED_EDGE('',*,*,#713,.T.);
#954=ORIENTED_EDGE('',*,*,#712,.T.);
#955=ORIENTED_EDGE('',*,*,#714,.F.);
#956=ORIENTED_EDGE('',*,*,#715,.F.);
#957=ORIENTED_EDGE('',*,*,#716,.T.);
#958=ORIENTED_EDGE('',*,*,#715,.T.);
#959=ORIENTED_EDGE('',*,*,#717,.F.);
#960=ORIENTED_EDGE('',*,*,#718,.F.);
#961=ORIENTED_EDGE('',*,*,#719,.T.);
#962=ORIENTED_EDGE('',*,*,#718,.T.);
#963=ORIENTED_EDGE('',*,*,#720,.F.);
#964=ORIENTED_EDGE('',*,*,#710,.F.);
#965=ORIENTED_EDGE('',*,*,#720,.T.);
#966=ORIENTED_EDGE('',*,*,#717,.T.);
#967=ORIENTED_EDGE('',*,*,#714,.T.);
#968=ORIENTED_EDGE('',*,*,#711,.T.);
#969=ORIENTED_EDGE('',*,*,#719,.F.);
#970=ORIENTED_EDGE('',*,*,#709,.F.);
#971=ORIENTED_EDGE('',*,*,#713,.F.);
#972=ORIENTED_EDGE('',*,*,#716,.F.);
#973=ORIENTED_EDGE('',*,*,#721,.T.);
#974=ORIENTED_EDGE('',*,*,#722,.T.);
#975=ORIENTED_EDGE('',*,*,#723,.F.);
#976=ORIENTED_EDGE('',*,*,#724,.F.);
#977=ORIENTED_EDGE('',*,*,#725,.T.);
#978=ORIENTED_EDGE('',*,*,#724,.T.);
#979=ORIENTED_EDGE('',*,*,#726,.F.);
#980=ORIENTED_EDGE('',*,*,#727,.F.);
#981=ORIENTED_EDGE('',*,*,#728,.T.);
#982=ORIENTED_EDGE('',*,*,#727,.T.);
#983=ORIENTED_EDGE('',*,*,#729,.F.);
#984=ORIENTED_EDGE('',*,*,#730,.F.);
#985=ORIENTED_EDGE('',*,*,#731,.T.);
#986=ORIENTED_EDGE('',*,*,#730,.T.);
#987=ORIENTED_EDGE('',*,*,#732,.F.);
#988=ORIENTED_EDGE('',*,*,#722,.F.);
#989=ORIENTED_EDGE('',*,*,#732,.T.);
#990=ORIENTED_EDGE('',*,*,#729,.T.);
#991=ORIENTED_EDGE('',*,*,#726,.T.);
#992=ORIENTED_EDGE('',*,*,#723,.T.);
#993=ORIENTED_EDGE('',*,*,#731,.F.);
#994=ORIENTED_EDGE('',*,*,#721,.F.);
#995=ORIENTED_EDGE('',*,*,#725,.F.);
#996=ORIENTED_EDGE('',*,*,#728,.F.);
#997=ORIENTED_EDGE('',*,*,#733,.T.);
#998=ORIENTED_EDGE('',*,*,#734,.T.);
#999=ORIENTED_EDGE('',*,*,#735,.F.);
#1000=ORIENTED_EDGE('',*,*,#736,.F.);
#1001=ORIENTED_EDGE('',*,*,#737,.T.);
#1002=ORIENTED_EDGE('',*,*,#736,.T.);
#1003=ORIENTED_EDGE('',*,*,#738,.F.);
#1004=ORIENTED_EDGE('',*,*,#739,.F.);
#1005=ORIENTED_EDGE('',*,*,#740,.T.);
#1006=ORIENTED_EDGE('',*,*,#739,.T.);
#1007=ORIENTED_EDGE('',*,*,#741,.F.);
#1008=ORIENTED_EDGE('',*,*,#742,.F.);
#1009=ORIENTED_EDGE('',*,*,#743,.T.);
#1010=ORIENTED_EDGE('',*,*,#742,.T.);
#1011=ORIENTED_EDGE('',*,*,#744,.F.);
#1012=ORIENTED_EDGE('',*,*,#734,.F.);
#1013=ORIENTED_EDGE('',*,*,#744,.T.);
#1014=ORIENTED_EDGE('',*,*,#741,.T.);
#1015=ORIENTED_EDGE('',*,*,#738,.T.);
#1016=ORIENTED_EDGE('',*,*,#735,.T.);
#1017=ORIENTED_EDGE('',*,*,#743,.F.);
#1018=ORIENTED_EDGE('',*,*,#733,.F.);
#1019=ORIENTED_EDGE('',*,*,#737,.F.);
#1020=ORIENTED_EDGE('',*,*,#740,.F.);
#1021=ORIENTED_EDGE('',*,*,#745,.T.);
#1022=ORIENTED_EDGE('',*,*,#746,.T.);
#1023=ORIENTED_EDGE('',*,*,#747,.F.);
#1024=ORIENTED_EDGE('',*,*,#748,.F.);
#1025=ORIENTED_EDGE('',*,*,#749,.T.);
#1026=ORIENTED_EDGE('',*,*,#748,.T.);
#1027=ORIENTED_EDGE('',*,*,#750,.F.);
#1028=ORIENTED_EDGE('',*,*,#751,.F.);
#1029=ORIENTED_EDGE('',*,*,#752,.T.);
#1030=ORIENTED_EDGE('',*,*,#751,.T.);
#1031=ORIENTED_EDGE('',*,*,#753,.F.);
#1032=ORIENTED_EDGE('',*,*,#754,.F.);
#1033=ORIENTED_EDGE('',*,*,#755,.T.);
#1034=ORIENTED_EDGE('',*,*,#754,.T.);
#1035=ORIENTED_EDGE('',*,*,#756,.F.);
#1036=ORIENTED_EDGE('',*,*,#746,.F.);
#1037=ORIENTED_EDGE('',*,*,#756,.T.);
#1038=ORIENTED_EDGE('',*,*,#753,.T.);
#1039=ORIENTED_EDGE('',*,*,#750,.T.);
#1040=ORIENTED_EDGE('',*,*,#747,.T.);
#1041=ORIENTED_EDGE('',*,*,#755,.F.);
#1042=ORIENTED_EDGE('',*,*,#745,.F.);
#1043=ORIENTED_EDGE('',*,*,#749,.F.);
#1044=ORIENTED_EDGE('',*,*,#752,.F.);
#1045=ORIENTED_EDGE('',*,*,#757,.T.);
#1046=ORIENTED_EDGE('',*,*,#758,.T.);
#1047=ORIENTED_EDGE('',*,*,#759,.F.);
#1048=ORIENTED_EDGE('',*,*,#760,.F.);
#1049=ORIENTED_EDGE('',*,*,#761,.T.);
#1050=ORIENTED_EDGE('',*,*,#760,.T.);
#1051=ORIENTED_EDGE('',*,*,#762,.F.);
#1052=ORIENTED_EDGE('',*,*,#763,.F.);
#1053=ORIENTED_EDGE('',*,*,#764,.T.);
#1054=ORIENTED_EDGE('',*,*,#763,.T.);
#1055=ORIENTED_EDGE('',*,*,#765,.F.);
#1056=ORIENTED_EDGE('',*,*,#766,.F.);
#1057=ORIENTED_EDGE('',*,*,#767,.T.);
#1058=ORIENTED_EDGE('',*,*,#766,.T.);
#1059=ORIENTED_EDGE('',*,*,#768,.F.);
#1060=ORIENTED_EDGE('',*,*,#758,.F.);
#1061=ORIENTED_EDGE('',*,*,#768,.T.);
#1062=ORIENTED_EDGE('',*,*,#765,.T.);
#1063=ORIENTED_EDGE('',*,*,#762,.T.);
#1064=ORIENTED_EDGE('',*,*,#759,.T.);
#1065=ORIENTED_EDGE('',*,*,#767,.F.);
#1066=ORIENTED_EDGE('',*,*,#757,.F.);
#1067=ORIENTED_EDGE('',*,*,#761,.F.);
#1068=ORIENTED_EDGE('',*,*,#764,.F.);
#1069=ORIENTED_EDGE('',*,*,#769,.F.);
#1070=ORIENTED_EDGE('',*,*,#770,.T.);
#1071=ORIENTED_EDGE('',*,*,#771,.T.);
#1072=ORIENTED_EDGE('',*,*,#770,.F.);
#1073=ORIENTED_EDGE('',*,*,#769,.T.);
#1074=ORIENTED_EDGE('',*,*,#771,.F.);
#1075=ORIENTED_EDGE('',*,*,#772,.F.);
#1076=ORIENTED_EDGE('',*,*,#773,.T.);
#1077=ORIENTED_EDGE('',*,*,#774,.T.);
#1078=ORIENTED_EDGE('',*,*,#773,.F.);
#1079=ORIENTED_EDGE('',*,*,#772,.T.);
#1080=ORIENTED_EDGE('',*,*,#774,.F.);
#1081=ORIENTED_EDGE('',*,*,#775,.F.);
#1082=ORIENTED_EDGE('',*,*,#776,.T.);
#1083=ORIENTED_EDGE('',*,*,#777,.F.);
#1084=ORIENTED_EDGE('',*,*,#776,.F.);
#1085=ORIENTED_EDGE('',*,*,#777,.T.);
#1086=ORIENTED_EDGE('',*,*,#775,.T.);
#1087=ORIENTED_EDGE('',*,*,#778,.F.);
#1088=ORIENTED_EDGE('',*,*,#779,.T.);
#1089=ORIENTED_EDGE('',*,*,#780,.F.);
#1090=ORIENTED_EDGE('',*,*,#779,.F.);
#1091=ORIENTED_EDGE('',*,*,#780,.T.);
#1092=ORIENTED_EDGE('',*,*,#778,.T.);
#1093=PLANE('',#1286);
#1094=PLANE('',#1287);
#1095=PLANE('',#1288);
#1096=PLANE('',#1289);
#1097=PLANE('',#1290);
#1098=PLANE('',#1291);
#1099=PLANE('',#1292);
#1100=PLANE('',#1293);
#1101=PLANE('',#1294);
#1102=PLANE('',#1295);
#1103=PLANE('',#1296);
#1104=PLANE('',#1297);
#1105=PLANE('',#1298);
#1106=PLANE('',#1299);
#1107=PLANE('',#1300);
#1108=PLANE('',#1301);
#1109=PLANE('',#1302);
#1110=PLANE('',#1303);
#1111=PLANE('',#1304);
#1112=PLANE('',#1305);
#1113=PLANE('',#1306);
#1114=PLANE('',#1307);
#1115=PLANE('',#1308);
#1116=PLANE('',#1309);
#1117=PLANE('',#1310);
#1118=PLANE('',#1311);
#1119=PLANE('',#1312);
#1120=PLANE('',#1313);
#1121=PLANE('',#1314);
#1122=PLANE('',#1315);
#1123=PLANE('',#1316);
#1124=PLANE('',#1317);
#1125=PLANE('',#1318);
#1126=PLANE('',#1319);
#1127=PLANE('',#1320);
#1128=PLANE('',#1321);
#1129=PLANE('',#1322);
#1130=PLANE('',#1323);
#1131=PLANE('',#1324);
#1132=PLANE('',#1325);
#1133=PLANE('',#1326);
#1134=PLANE('',#1327);
#1135=PLANE('',#1328);
#1136=PLANE('',#1329);
#1137=PLANE('',#1330);
#1138=PLANE('',#1331);
#1139=PLANE('',#1332);
#1140=PLANE('',#1333);
#1141=PLANE('',#1334);
#1142=PLANE('',#1335);
#1143=PLANE('',#1336);
#1144=PLANE('',#1337);
#1145=PLANE('',#1338);
#1146=PLANE('',#1339);
#1147=PLANE('',#1340);
#1148=PLANE('',#1341);
#1149=PLANE('',#1342);
#1150=PLANE('',#1343);
#1151=PLANE('',#1344);
#1152=PLANE('',#1345);
#1153=PLANE('',#1346);
#1154=PLANE('',#1347);
#1155=PLANE('',#1348);
#1156=PLANE('',#1349);
#1157=PLANE('',#1350);
#1158=PLANE('',#1351);
#1159=PLANE('',#1352);
#1160=PLANE('',#1353);
#1161=PLANE('',#1354);
#1162=PLANE('',#1355);
#1163=PLANE('',#1356);
#1164=PLANE('',#1357);
#1165=PLANE('',#1361);
#1166=PLANE('',#1362);
#1167=PLANE('',#1366);
#1168=PLANE('',#1367);
#1169=PLANE('',#1371);
#1170=PLANE('',#1372);
#1171=PLANE('',#1376);
#1172=PLANE('',#1377);
#1173=ADVANCED_FACE('',(#57),#1093,.T.);
#1174=ADVANCED_FACE('',(#58),#1094,.T.);
#1175=ADVANCED_FACE('',(#59),#1095,.T.);
#1176=ADVANCED_FACE('',(#60),#1096,.T.);
#1177=ADVANCED_FACE('',(#61),#1097,.T.);
#1178=ADVANCED_FACE('',(#62),#1098,.F.);
#1179=ADVANCED_FACE('',(#63),#1099,.T.);
#1180=ADVANCED_FACE('',(#64),#1100,.T.);
#1181=ADVANCED_FACE('',(#65),#1101,.T.);
#1182=ADVANCED_FACE('',(#66),#1102,.T.);
#1183=ADVANCED_FACE('',(#67),#1103,.T.);
#1184=ADVANCED_FACE('',(#68),#1104,.F.);
#1185=ADVANCED_FACE('',(#69),#1105,.T.);
#1186=ADVANCED_FACE('',(#70),#1106,.T.);
#1187=ADVANCED_FACE('',(#71),#1107,.T.);
#1188=ADVANCED_FACE('',(#72),#1108,.T.);
#1189=ADVANCED_FACE('',(#73),#1109,.T.);
#1190=ADVANCED_FACE('',(#74),#1110,.F.);
#1191=ADVANCED_FACE('',(#75),#1111,.T.);
#1192=ADVANCED_FACE('',(#76),#1112,.T.);
#1193=ADVANCED_FACE('',(#77),#1113,.T.);
#1194=ADVANCED_FACE('',(#78),#1114,.T.);
#1195=ADVANCED_FACE('',(#79),#1115,.T.);
#1196=ADVANCED_FACE('',(#80),#1116,.F.);
#1197=ADVANCED_FACE('',(#81),#1117,.T.);
#1198=ADVANCED_FACE('',(#82),#1118,.T.);
#1199=ADVANCED_FACE('',(#83),#1119,.T.);
#1200=ADVANCED_FACE('',(#84),#1120,.T.);
#1201=ADVANCED_FACE('',(#85),#1121,.T.);
#1202=ADVANCED_FACE('',(#86),#1122,.F.);
#1203=ADVANCED_FACE('',(#87),#1123,.T.);
#1204=ADVANCED_FACE('',(#88),#1124,.T.);
#1205=ADVANCED_FACE('',(#89),#1125,.T.);
#1206=ADVANCED_FACE('',(#90),#1126,.T.);
#1207=ADVANCED_FACE('',(#91),#1127,.T.);
#1208=ADVANCED_FACE('',(#92),#1128,.F.);
#1209=ADVANCED_FACE('',(#93),#1129,.T.);
#1210=ADVANCED_FACE('',(#94),#1130,.T.);
#1211=ADVANCED_FACE('',(#95),#1131,.T.);
#1212=ADVANCED_FACE('',(#96),#1132,.T.);
#1213=ADVANCED_FACE('',(#97),#1133,.T.);
#1214=ADVANCED_FACE('',(#98),#1134,.F.);
#1215=ADVANCED_FACE('',(#99),#1135,.T.);
#1216=ADVANCED_FACE('',(#100),#1136,.T.);
#1217=ADVANCED_FACE('',(#101),#1137,.T.);
#1218=ADVANCED_FACE('',(#102),#1138,.T.);
#1219=ADVANCED_FACE('',(#103),#1139,.T.);
#1220=ADVANCED_FACE('',(#104),#1140,.F.);
#1221=ADVANCED_FACE('',(#105),#1141,.T.);
#1222=ADVANCED_FACE('',(#106),#1142,.T.);
#1223=ADVANCED_FACE('',(#107),#1143,.T.);
#1224=ADVANCED_FACE('',(#108),#1144,.T.);
#1225=ADVANCED_FACE('',(#109),#1145,.T.);
#1226=ADVANCED_FACE('',(#110),#1146,.F.);
#1227=ADVANCED_FACE('',(#111),#1147,.T.);
#1228=ADVANCED_FACE('',(#112),#1148,.T.);
#1229=ADVANCED_FACE('',(#113),#1149,.T.);
#1230=ADVANCED_FACE('',(#114),#1150,.T.);
#1231=ADVANCED_FACE('',(#115),#1151,.T.);
#1232=ADVANCED_FACE('',(#116),#1152,.F.);
#1233=ADVANCED_FACE('',(#117),#1153,.T.);
#1234=ADVANCED_FACE('',(#118),#1154,.T.);
#1235=ADVANCED_FACE('',(#119),#1155,.T.);
#1236=ADVANCED_FACE('',(#120),#1156,.T.);
#1237=ADVANCED_FACE('',(#121),#1157,.T.);
#1238=ADVANCED_FACE('',(#122),#1158,.F.);
#1239=ADVANCED_FACE('',(#123),#1159,.T.);
#1240=ADVANCED_FACE('',(#124),#1160,.T.);
#1241=ADVANCED_FACE('',(#125),#1161,.T.);
#1242=ADVANCED_FACE('',(#126),#1162,.T.);
#1243=ADVANCED_FACE('',(#127),#1163,.T.);
#1244=ADVANCED_FACE('',(#128),#1164,.F.);
#1245=ADVANCED_FACE('',(#129),#21,.T.);
#1246=ADVANCED_FACE('',(#130),#1165,.T.);
#1247=ADVANCED_FACE('',(#131),#1166,.F.);
#1248=ADVANCED_FACE('',(#132),#22,.T.);
#1249=ADVANCED_FACE('',(#133),#1167,.T.);
#1250=ADVANCED_FACE('',(#134),#1168,.F.);
#1251=ADVANCED_FACE('',(#135),#23,.T.);
#1252=ADVANCED_FACE('',(#136),#1169,.T.);
#1253=ADVANCED_FACE('',(#137),#1170,.F.);
#1254=ADVANCED_FACE('',(#138),#24,.T.);
#1255=ADVANCED_FACE('',(#139),#1171,.T.);
#1256=ADVANCED_FACE('',(#140),#1172,.F.);
#1257=CLOSED_SHELL('',(#1173,#1174,#1175,#1176,#1177,#1178));
#1258=CLOSED_SHELL('',(#1179,#1180,#1181,#1182,#1183,#1184));
#1259=CLOSED_SHELL('',(#1185,#1186,#1187,#1188,#1189,#1190));
#1260=CLOSED_SHELL('',(#1191,#1192,#1193,#1194,#1195,#1196));
#1261=CLOSED_SHELL('',(#1197,#1198,#1199,#1200,#1201,#1202));
#1262=CLOSED_SHELL('',(#1203,#1204,#1205,#1206,#1207,#1208));
#1263=CLOSED_SHELL('',(#1209,#1210,#1211,#1212,#1213,#1214));
#1264=CLOSED_SHELL('',(#1215,#1216,#1217,#1218,#1219,#1220));
#1265=CLOSED_SHELL('',(#1221,#1222,#1223,#1224,#1225,#1226));
#1266=CLOSED_SHELL('',(#1227,#1228,#1229,#1230,#1231,#1232));
#1267=CLOSED_SHELL('',(#1233,#1234,#1235,#1236,#1237,#1238));
#1268=CLOSED_SHELL('',(#1239,#1240,#1241,#1242,#1243,#1244));
#1269=CLOSED_SHELL('',(#1245,#1246,#1247));
#1270=CLOSED_SHELL('',(#1248,#1249,#1250));
#1271=CLOSED_SHELL('',(#1251,#1252,#1253));
#1272=CLOSED_SHELL('',(#1254,#1255,#1256));
#1273=DERIVED_UNIT_ELEMENT(#1275,1.);
#1274=DERIVED_UNIT_ELEMENT(#2062,-3.);
#1275=(
MASS_UNIT()
NAMED_UNIT(*)
SI_UNIT(.KILO.,.GRAM.)
);
#1276=DERIVED_UNIT((#1273,#1274));
#1277=MEASURE_REPRESENTATION_ITEM('density measure',
POSITIVE_RATIO_MEASURE(7850.),#1276);
#1278=PROPERTY_DEFINITION_REPRESENTATION(#1283,#1280);
#1279=PROPERTY_DEFINITION_REPRESENTATION(#1284,#1281);
#1280=REPRESENTATION('material name',(#1282),#2059);
#1281=REPRESENTATION('density',(#1277),#2059);
#1282=DESCRIPTIVE_REPRESENTATION_ITEM('Steel','Steel');
#1283=PROPERTY_DEFINITION('material property','material name',#2069);
#1284=PROPERTY_DEFINITION('material property','density of part',#2069);
#1285=AXIS2_PLACEMENT_3D('',#1712,#1378,#1379);
#1286=AXIS2_PLACEMENT_3D('',#1713,#1380,#1381);
#1287=AXIS2_PLACEMENT_3D('',#1722,#1386,#1387);
#1288=AXIS2_PLACEMENT_3D('',#1728,#1391,#1392);
#1289=AXIS2_PLACEMENT_3D('',#1734,#1396,#1397);
#1290=AXIS2_PLACEMENT_3D('',#1737,#1400,#1401);
#1291=AXIS2_PLACEMENT_3D('',#1738,#1402,#1403);
#1292=AXIS2_PLACEMENT_3D('',#1739,#1404,#1405);
#1293=AXIS2_PLACEMENT_3D('',#1748,#1410,#1411);
#1294=AXIS2_PLACEMENT_3D('',#1754,#1415,#1416);
#1295=AXIS2_PLACEMENT_3D('',#1760,#1420,#1421);
#1296=AXIS2_PLACEMENT_3D('',#1763,#1424,#1425);
#1297=AXIS2_PLACEMENT_3D('',#1764,#1426,#1427);
#1298=AXIS2_PLACEMENT_3D('',#1765,#1428,#1429);
#1299=AXIS2_PLACEMENT_3D('',#1774,#1434,#1435);
#1300=AXIS2_PLACEMENT_3D('',#1780,#1439,#1440);
#1301=AXIS2_PLACEMENT_3D('',#1786,#1444,#1445);
#1302=AXIS2_PLACEMENT_3D('',#1789,#1448,#1449);
#1303=AXIS2_PLACEMENT_3D('',#1790,#1450,#1451);
#1304=AXIS2_PLACEMENT_3D('',#1791,#1452,#1453);
#1305=AXIS2_PLACEMENT_3D('',#1800,#1458,#1459);
#1306=AXIS2_PLACEMENT_3D('',#1806,#1463,#1464);
#1307=AXIS2_PLACEMENT_3D('',#1812,#1468,#1469);
#1308=AXIS2_PLACEMENT_3D('',#1815,#1472,#1473);
#1309=AXIS2_PLACEMENT_3D('',#1816,#1474,#1475);
#1310=AXIS2_PLACEMENT_3D('',#1817,#1476,#1477);
#1311=AXIS2_PLACEMENT_3D('',#1826,#1482,#1483);
#1312=AXIS2_PLACEMENT_3D('',#1832,#1487,#1488);
#1313=AXIS2_PLACEMENT_3D('',#1838,#1492,#1493);
#1314=AXIS2_PLACEMENT_3D('',#1841,#1496,#1497);
#1315=AXIS2_PLACEMENT_3D('',#1842,#1498,#1499);
#1316=AXIS2_PLACEMENT_3D('',#1843,#1500,#1501);
#1317=AXIS2_PLACEMENT_3D('',#1852,#1506,#1507);
#1318=AXIS2_PLACEMENT_3D('',#1858,#1511,#1512);
#1319=AXIS2_PLACEMENT_3D('',#1864,#1516,#1517);
#1320=AXIS2_PLACEMENT_3D('',#1867,#1520,#1521);
#1321=AXIS2_PLACEMENT_3D('',#1868,#1522,#1523);
#1322=AXIS2_PLACEMENT_3D('',#1869,#1524,#1525);
#1323=AXIS2_PLACEMENT_3D('',#1878,#1530,#1531);
#1324=AXIS2_PLACEMENT_3D('',#1884,#1535,#1536);
#1325=AXIS2_PLACEMENT_3D('',#1890,#1540,#1541);
#1326=AXIS2_PLACEMENT_3D('',#1893,#1544,#1545);
#1327=AXIS2_PLACEMENT_3D('',#1894,#1546,#1547);
#1328=AXIS2_PLACEMENT_3D('',#1895,#1548,#1549);
#1329=AXIS2_PLACEMENT_3D('',#1904,#1554,#1555);
#1330=AXIS2_PLACEMENT_3D('',#1910,#1559,#1560);
#1331=AXIS2_PLACEMENT_3D('',#1916,#1564,#1565);
#1332=AXIS2_PLACEMENT_3D('',#1919,#1568,#1569);
#1333=AXIS2_PLACEMENT_3D('',#1920,#1570,#1571);
#1334=AXIS2_PLACEMENT_3D('',#1921,#1572,#1573);
#1335=AXIS2_PLACEMENT_3D('',#1930,#1578,#1579);
#1336=AXIS2_PLACEMENT_3D('',#1936,#1583,#1584);
#1337=AXIS2_PLACEMENT_3D('',#1942,#1588,#1589);
#1338=AXIS2_PLACEMENT_3D('',#1945,#1592,#1593);
#1339=AXIS2_PLACEMENT_3D('',#1946,#1594,#1595);
#1340=AXIS2_PLACEMENT_3D('',#1947,#1596,#1597);
#1341=AXIS2_PLACEMENT_3D('',#1956,#1602,#1603);
#1342=AXIS2_PLACEMENT_3D('',#1962,#1607,#1608);
#1343=AXIS2_PLACEMENT_3D('',#1968,#1612,#1613);
#1344=AXIS2_PLACEMENT_3D('',#1971,#1616,#1617);
#1345=AXIS2_PLACEMENT_3D('',#1972,#1618,#1619);
#1346=AXIS2_PLACEMENT_3D('',#1973,#1620,#1621);
#1347=AXIS2_PLACEMENT_3D('',#1982,#1626,#1627);
#1348=AXIS2_PLACEMENT_3D('',#1988,#1631,#1632);
#1349=AXIS2_PLACEMENT_3D('',#1994,#1636,#1637);
#1350=AXIS2_PLACEMENT_3D('',#1997,#1640,#1641);
#1351=AXIS2_PLACEMENT_3D('',#1998,#1642,#1643);
#1352=AXIS2_PLACEMENT_3D('',#1999,#1644,#1645);
#1353=AXIS2_PLACEMENT_3D('',#2008,#1650,#1651);
#1354=AXIS2_PLACEMENT_3D('',#2014,#1655,#1656);
#1355=AXIS2_PLACEMENT_3D('',#2020,#1660,#1661);
#1356=AXIS2_PLACEMENT_3D('',#2023,#1664,#1665);
#1357=AXIS2_PLACEMENT_3D('',#2024,#1666,#1667);
#1358=AXIS2_PLACEMENT_3D('',#2025,#1668,#1669);
#1359=AXIS2_PLACEMENT_3D('',#2027,#1670,#1671);
#1360=AXIS2_PLACEMENT_3D('',#2030,#1673,#1674);
#1361=AXIS2_PLACEMENT_3D('',#2031,#1675,#1676);
#1362=AXIS2_PLACEMENT_3D('',#2032,#1677,#1678);
#1363=AXIS2_PLACEMENT_3D('',#2033,#1679,#1680);
#1364=AXIS2_PLACEMENT_3D('',#2035,#1681,#1682);
#1365=AXIS2_PLACEMENT_3D('',#2038,#1684,#1685);
#1366=AXIS2_PLACEMENT_3D('',#2039,#1686,#1687);
#1367=AXIS2_PLACEMENT_3D('',#2040,#1688,#1689);
#1368=AXIS2_PLACEMENT_3D('',#2041,#1690,#1691);
#1369=AXIS2_PLACEMENT_3D('',#2043,#1692,#1693);
#1370=AXIS2_PLACEMENT_3D('',#2046,#1695,#1696);
#1371=AXIS2_PLACEMENT_3D('',#2047,#1697,#1698);
#1372=AXIS2_PLACEMENT_3D('',#2048,#1699,#1700);
#1373=AXIS2_PLACEMENT_3D('',#2049,#1701,#1702);
#1374=AXIS2_PLACEMENT_3D('',#2051,#1703,#1704);
#1375=AXIS2_PLACEMENT_3D('',#2054,#1706,#1707);
#1376=AXIS2_PLACEMENT_3D('',#2055,#1708,#1709);
#1377=AXIS2_PLACEMENT_3D('',#2056,#1710,#1711);
#1378=DIRECTION('axis',(0.,0.,1.));
#1379=DIRECTION('refdir',(1.,0.,0.));
#1380=DIRECTION('center_axis',(0.,1.,0.));
#1381=DIRECTION('ref_axis',(-1.,0.,0.));
#1382=DIRECTION('',(-1.,0.,0.));
#1383=DIRECTION('',(0.,0.,1.));
#1384=DIRECTION('',(-1.,0.,0.));
#1385=DIRECTION('',(0.,0.,1.));
#1386=DIRECTION('center_axis',(1.,0.,0.));
#1387=DIRECTION('ref_axis',(0.,1.,0.));
#1388=DIRECTION('',(0.,1.,0.));
#1389=DIRECTION('',(0.,1.,0.));
#1390=DIRECTION('',(0.,0.,1.));
#1391=DIRECTION('center_axis',(0.,-1.,0.));
#1392=DIRECTION('ref_axis',(1.,0.,0.));
#1393=DIRECTION('',(1.,0.,0.));
#1394=DIRECTION('',(1.,0.,0.));
#1395=DIRECTION('',(0.,0.,1.));
#1396=DIRECTION('center_axis',(-1.,0.,0.));
#1397=DIRECTION('ref_axis',(0.,-1.,0.));
#1398=DIRECTION('',(0.,-1.,0.));
#1399=DIRECTION('',(0.,-1.,0.));
#1400=DIRECTION('center_axis',(0.,0.,1.));
#1401=DIRECTION('ref_axis',(1.,0.,0.));
#1402=DIRECTION('center_axis',(0.,0.,1.));
#1403=DIRECTION('ref_axis',(1.,0.,0.));
#1404=DIRECTION('center_axis',(0.,1.,0.));
#1405=DIRECTION('ref_axis',(-1.,0.,0.));
#1406=DIRECTION('',(-1.,0.,0.));
#1407=DIRECTION('',(0.,0.,1.));
#1408=DIRECTION('',(-1.,0.,0.));
#1409=DIRECTION('',(0.,0.,1.));
#1410=DIRECTION('center_axis',(1.,0.,0.));
#1411=DIRECTION('ref_axis',(0.,1.,0.));
#1412=DIRECTION('',(0.,1.,0.));
#1413=DIRECTION('',(0.,1.,0.));
#1414=DIRECTION('',(0.,0.,1.));
#1415=DIRECTION('center_axis',(0.,-1.,0.));
#1416=DIRECTION('ref_axis',(1.,0.,0.));
#1417=DIRECTION('',(1.,0.,0.));
#1418=DIRECTION('',(1.,0.,0.));
#1419=DIRECTION('',(0.,0.,1.));
#1420=DIRECTION('center_axis',(-1.,0.,0.));
#1421=DIRECTION('ref_axis',(0.,-1.,0.));
#1422=DIRECTION('',(0.,-1.,0.));
#1423=DIRECTION('',(0.,-1.,0.));
#1424=DIRECTION('center_axis',(0.,0.,1.));
#1425=DIRECTION('ref_axis',(1.,0.,0.));
#1426=DIRECTION('center_axis',(0.,0.,1.));
#1427=DIRECTION('ref_axis',(1.,0.,0.));
#1428=DIRECTION('center_axis',(0.,1.,0.));
#1429=DIRECTION('ref_axis',(-1.,0.,0.));
#1430=DIRECTION('',(-1.,0.,0.));
#1431=DIRECTION('',(0.,0.,1.));
#1432=DIRECTION('',(-1.,0.,0.));
#1433=DIRECTION('',(0.,0.,1.));
#1434=DIRECTION('center_axis',(1.,0.,0.));
#1435=DIRECTION('ref_axis',(0.,1.,0.));
#1436=DIRECTION('',(0.,1.,0.));
#1437=DIRECTION('',(0.,1.,0.));
#1438=DIRECTION('',(0.,0.,1.));
#1439=DIRECTION('center_axis',(0.,-1.,0.));
#1440=DIRECTION('ref_axis',(1.,0.,0.));
#1441=DIRECTION('',(1.,0.,0.));
#1442=DIRECTION('',(1.,0.,0.));
#1443=DIRECTION('',(0.,0.,1.));
#1444=DIRECTION('center_axis',(-1.,0.,0.));
#1445=DIRECTION('ref_axis',(0.,-1.,0.));
#1446=DIRECTION('',(0.,-1.,0.));
#1447=DIRECTION('',(0.,-1.,0.));
#1448=DIRECTION('center_axis',(0.,0.,1.));
#1449=DIRECTION('ref_axis',(1.,0.,0.));
#1450=DIRECTION('center_axis',(0.,0.,1.));
#1451=DIRECTION('ref_axis',(1.,0.,0.));
#1452=DIRECTION('center_axis',(0.,1.,0.));
#1453=DIRECTION('ref_axis',(-1.,0.,0.));
#1454=DIRECTION('',(-1.,0.,0.));
#1455=DIRECTION('',(0.,0.,1.));
#1456=DIRECTION('',(-1.,0.,0.));
#1457=DIRECTION('',(0.,0.,1.));
#1458=DIRECTION('center_axis',(1.,0.,0.));
#1459=DIRECTION('ref_axis',(0.,1.,0.));
#1460=DIRECTION('',(0.,1.,0.));
#1461=DIRECTION('',(0.,1.,0.));
#1462=DIRECTION('',(0.,0.,1.));
#1463=DIRECTION('center_axis',(0.,-1.,0.));
#1464=DIRECTION('ref_axis',(1.,0.,0.));
#1465=DIRECTION('',(1.,0.,0.));
#1466=DIRECTION('',(1.,0.,0.));
#1467=DIRECTION('',(0.,0.,1.));
#1468=DIRECTION('center_axis',(-1.,0.,0.));
#1469=DIRECTION('ref_axis',(0.,-1.,0.));
#1470=DIRECTION('',(0.,-1.,0.));
#1471=DIRECTION('',(0.,-1.,0.));
#1472=DIRECTION('center_axis',(0.,0.,1.));
#1473=DIRECTION('ref_axis',(1.,0.,0.));
#1474=DIRECTION('center_axis',(0.,0.,1.));
#1475=DIRECTION('ref_axis',(1.,0.,0.));
#1476=DIRECTION('center_axis',(0.,1.,0.));
#1477=DIRECTION('ref_axis',(-1.,0.,0.));
#1478=DIRECTION('',(-1.,0.,0.));
#1479=DIRECTION('',(0.,0.,1.));
#1480=DIRECTION('',(-1.,0.,0.));
#1481=DIRECTION('',(0.,0.,1.));
#1482=DIRECTION('center_axis',(1.,0.,0.));
#1483=DIRECTION('ref_axis',(0.,1.,0.));
#1484=DIRECTION('',(0.,1.,0.));
#1485=DIRECTION('',(0.,1.,0.));
#1486=DIRECTION('',(0.,0.,1.));
#1487=DIRECTION('center_axis',(0.,-1.,0.));
#1488=DIRECTION('ref_axis',(1.,0.,0.));
#1489=DIRECTION('',(1.,0.,0.));
#1490=DIRECTION('',(1.,0.,0.));
#1491=DIRECTION('',(0.,0.,1.));
#1492=DIRECTION('center_axis',(-1.,0.,0.));
#1493=DIRECTION('ref_axis',(0.,-1.,0.));
#1494=DIRECTION('',(0.,-1.,0.));
#1495=DIRECTION('',(0.,-1.,0.));
#1496=DIRECTION('center_axis',(0.,0.,1.));
#1497=DIRECTION('ref_axis',(1.,0.,0.));
#1498=DIRECTION('center_axis',(0.,0.,1.));
#1499=DIRECTION('ref_axis',(1.,0.,0.));
#1500=DIRECTION('center_axis',(0.,1.,0.));
#1501=DIRECTION('ref_axis',(-1.,0.,0.));
#1502=DIRECTION('',(-1.,0.,0.));
#1503=DIRECTION('',(0.,0.,1.));
#1504=DIRECTION('',(-1.,0.,0.));
#1505=DIRECTION('',(0.,0.,1.));
#1506=DIRECTION('center_axis',(1.,0.,0.));
#1507=DIRECTION('ref_axis',(0.,1.,0.));
#1508=DIRECTION('',(0.,1.,0.));
#1509=DIRECTION('',(0.,1.,0.));
#1510=DIRECTION('',(0.,0.,1.));
#1511=DIRECTION('center_axis',(0.,-1.,0.));
#1512=DIRECTION('ref_axis',(1.,0.,0.));
#1513=DIRECTION('',(1.,0.,0.));
#1514=DIRECTION('',(1.,0.,0.));
#1515=DIRECTION('',(0.,0.,1.));
#1516=DIRECTION('center_axis',(-1.,0.,0.));
#1517=DIRECTION('ref_axis',(0.,-1.,0.));
#1518=DIRECTION('',(0.,-1.,0.));
#1519=DIRECTION('',(0.,-1.,0.));
#1520=DIRECTION('center_axis',(0.,0.,1.));
#1521=DIRECTION('ref_axis',(1.,0.,0.));
#1522=DIRECTION('center_axis',(0.,0.,1.));
#1523=DIRECTION('ref_axis',(1.,0.,0.));
#1524=DIRECTION('center_axis',(0.,1.,0.));
#1525=DIRECTION('ref_axis',(-1.,0.,0.));
#1526=DIRECTION('',(-1.,0.,0.));
#1527=DIRECTION('',(0.,0.,1.));
#1528=DIRECTION('',(-1.,0.,0.));
#1529=DIRECTION('',(0.,0.,1.));
#1530=DIRECTION('center_axis',(1.,0.,0.));
#1531=DIRECTION('ref_axis',(0.,1.,0.));
#1532=DIRECTION('',(0.,1.,0.));
#1533=DIRECTION('',(0.,1.,0.));
#1534=DIRECTION('',(0.,0.,1.));
#1535=DIRECTION('center_axis',(0.,-1.,0.));
#1536=DIRECTION('ref_axis',(1.,0.,0.));
#1537=DIRECTION('',(1.,0.,0.));
#1538=DIRECTION('',(1.,0.,0.));
#1539=DIRECTION('',(0.,0.,1.));
#1540=DIRECTION('center_axis',(-1.,0.,0.));
#1541=DIRECTION('ref_axis',(0.,-1.,0.));
#1542=DIRECTION('',(0.,-1.,0.));
#1543=DIRECTION('',(0.,-1.,0.));
#1544=DIRECTION('center_axis',(0.,0.,1.));
#1545=DIRECTION('ref_axis',(1.,0.,0.));
#1546=DIRECTION('center_axis',(0.,0.,1.));
#1547=DIRECTION('ref_axis',(1.,0.,0.));
#1548=DIRECTION('center_axis',(0.,1.,0.));
#1549=DIRECTION('ref_axis',(-1.,0.,0.));
#1550=DIRECTION('',(-1.,0.,0.));
#1551=DIRECTION('',(0.,0.,1.));
#1552=DIRECTION('',(-1.,0.,0.));
#1553=DIRECTION('',(0.,0.,1.));
#1554=DIRECTION('center_axis',(1.,0.,0.));
#1555=DIRECTION('ref_axis',(0.,1.,0.));
#1556=DIRECTION('',(0.,1.,0.));
#1557=DIRECTION('',(0.,1.,0.));
#1558=DIRECTION('',(0.,0.,1.));
#1559=DIRECTION('center_axis',(0.,-1.,0.));
#1560=DIRECTION('ref_axis',(1.,0.,0.));
#1561=DIRECTION('',(1.,0.,0.));
#1562=DIRECTION('',(1.,0.,0.));
#1563=DIRECTION('',(0.,0.,1.));
#1564=DIRECTION('center_axis',(-1.,0.,0.));
#1565=DIRECTION('ref_axis',(0.,-1.,0.));
#1566=DIRECTION('',(0.,-1.,0.));
#1567=DIRECTION('',(0.,-1.,0.));
#1568=DIRECTION('center_axis',(0.,0.,1.));
#1569=DIRECTION('ref_axis',(1.,0.,0.));
#1570=DIRECTION('center_axis',(0.,0.,1.));
#1571=DIRECTION('ref_axis',(1.,0.,0.));
#1572=DIRECTION('center_axis',(0.,1.,0.));
#1573=DIRECTION('ref_axis',(-1.,0.,0.));
#1574=DIRECTION('',(-1.,0.,0.));
#1575=DIRECTION('',(0.,0.,1.));
#1576=DIRECTION('',(-1.,0.,0.));
#1577=DIRECTION('',(0.,0.,1.));
#1578=DIRECTION('center_axis',(1.,0.,0.));
#1579=DIRECTION('ref_axis',(0.,1.,0.));
#1580=DIRECTION('',(0.,1.,0.));
#1581=DIRECTION('',(0.,1.,0.));
#1582=DIRECTION('',(0.,0.,1.));
#1583=DIRECTION('center_axis',(0.,-1.,0.));
#1584=DIRECTION('ref_axis',(1.,0.,0.));
#1585=DIRECTION('',(1.,0.,0.));
#1586=DIRECTION('',(1.,0.,0.));
#1587=DIRECTION('',(0.,0.,1.));
#1588=DIRECTION('center_axis',(-1.,0.,0.));
#1589=DIRECTION('ref_axis',(0.,-1.,0.));
#1590=DIRECTION('',(0.,-1.,0.));
#1591=DIRECTION('',(0.,-1.,0.));
#1592=DIRECTION('center_axis',(0.,0.,1.));
#1593=DIRECTION('ref_axis',(1.,0.,0.));
#1594=DIRECTION('center_axis',(0.,0.,1.));
#1595=DIRECTION('ref_axis',(1.,0.,0.));
#1596=DIRECTION('center_axis',(0.,1.,0.));
#1597=DIRECTION('ref_axis',(-1.,0.,0.));
#1598=DIRECTION('',(-1.,0.,0.));
#1599=DIRECTION('',(0.,0.,1.));
#1600=DIRECTION('',(-1.,0.,0.));
#1601=DIRECTION('',(0.,0.,1.));
#1602=DIRECTION('center_axis',(1.,0.,0.));
#1603=DIRECTION('ref_axis',(0.,1.,0.));
#1604=DIRECTION('',(0.,1.,0.));
#1605=DIRECTION('',(0.,1.,0.));
#1606=DIRECTION('',(0.,0.,1.));
#1607=DIRECTION('center_axis',(0.,-1.,0.));
#1608=DIRECTION('ref_axis',(1.,0.,0.));
#1609=DIRECTION('',(1.,0.,0.));
#1610=DIRECTION('',(1.,0.,0.));
#1611=DIRECTION('',(0.,0.,1.));
#1612=DIRECTION('center_axis',(-1.,0.,0.));
#1613=DIRECTION('ref_axis',(0.,-1.,0.));
#1614=DIRECTION('',(0.,-1.,0.));
#1615=DIRECTION('',(0.,-1.,0.));
#1616=DIRECTION('center_axis',(0.,0.,1.));
#1617=DIRECTION('ref_axis',(1.,0.,0.));
#1618=DIRECTION('center_axis',(0.,0.,1.));
#1619=DIRECTION('ref_axis',(1.,0.,0.));
#1620=DIRECTION('center_axis',(0.,1.,0.));
#1621=DIRECTION('ref_axis',(-1.,0.,0.));
#1622=DIRECTION('',(-1.,0.,0.));
#1623=DIRECTION('',(0.,0.,1.));
#1624=DIRECTION('',(-1.,0.,0.));
#1625=DIRECTION('',(0.,0.,1.));
#1626=DIRECTION('center_axis',(1.,0.,0.));
#1627=DIRECTION('ref_axis',(0.,1.,0.));
#1628=DIRECTION('',(0.,1.,0.));
#1629=DIRECTION('',(0.,1.,0.));
#1630=DIRECTION('',(0.,0.,1.));
#1631=DIRECTION('center_axis',(0.,-1.,0.));
#1632=DIRECTION('ref_axis',(1.,0.,0.));
#1633=DIRECTION('',(1.,0.,0.));
#1634=DIRECTION('',(1.,0.,0.));
#1635=DIRECTION('',(0.,0.,1.));
#1636=DIRECTION('center_axis',(-1.,0.,0.));
#1637=DIRECTION('ref_axis',(0.,-1.,0.));
#1638=DIRECTION('',(0.,-1.,0.));
#1639=DIRECTION('',(0.,-1.,0.));
#1640=DIRECTION('center_axis',(0.,0.,1.));
#1641=DIRECTION('ref_axis',(1.,0.,0.));
#1642=DIRECTION('center_axis',(0.,0.,1.));
#1643=DIRECTION('ref_axis',(1.,0.,0.));
#1644=DIRECTION('center_axis',(0.,1.,0.));
#1645=DIRECTION('ref_axis',(-1.,0.,0.));
#1646=DIRECTION('',(-1.,0.,0.));
#1647=DIRECTION('',(0.,0.,1.));
#1648=DIRECTION('',(-1.,0.,0.));
#1649=DIRECTION('',(0.,0.,1.));
#1650=DIRECTION('center_axis',(1.,0.,0.));
#1651=DIRECTION('ref_axis',(0.,1.,0.));
#1652=DIRECTION('',(0.,1.,0.));
#1653=DIRECTION('',(0.,1.,0.));
#1654=DIRECTION('',(0.,0.,1.));
#1655=DIRECTION('center_axis',(0.,-1.,0.));
#1656=DIRECTION('ref_axis',(1.,0.,0.));
#1657=DIRECTION('',(1.,0.,0.));
#1658=DIRECTION('',(1.,0.,0.));
#1659=DIRECTION('',(0.,0.,1.));
#1660=DIRECTION('center_axis',(-1.,0.,0.));
#1661=DIRECTION('ref_axis',(0.,-1.,0.));
#1662=DIRECTION('',(0.,-1.,0.));
#1663=DIRECTION('',(0.,-1.,0.));
#1664=DIRECTION('center_axis',(0.,0.,1.));
#1665=DIRECTION('ref_axis',(1.,0.,0.));
#1666=DIRECTION('center_axis',(0.,0.,1.));
#1667=DIRECTION('ref_axis',(1.,0.,0.));
#1668=DIRECTION('center_axis',(0.,1.,0.));
#1669=DIRECTION('ref_axis',(1.,0.,0.));
#1670=DIRECTION('center_axis',(0.,1.,0.));
#1671=DIRECTION('ref_axis',(1.,0.,0.));
#1672=DIRECTION('',(0.,-1.,0.));
#1673=DIRECTION('center_axis',(0.,1.,0.));
#1674=DIRECTION('ref_axis',(1.,0.,0.));
#1675=DIRECTION('center_axis',(0.,1.,0.));
#1676=DIRECTION('ref_axis',(1.,0.,0.));
#1677=DIRECTION('center_axis',(0.,1.,0.));
#1678=DIRECTION('ref_axis',(1.,0.,0.));
#1679=DIRECTION('center_axis',(0.,1.,0.));
#1680=DIRECTION('ref_axis',(1.,0.,0.));
#1681=DIRECTION('center_axis',(0.,1.,0.));
#1682=DIRECTION('ref_axis',(1.,0.,0.));
#1683=DIRECTION('',(0.,-1.,0.));
#1684=DIRECTION('center_axis',(0.,1.,0.));
#1685=DIRECTION('ref_axis',(1.,0.,0.));
#1686=DIRECTION('center_axis',(0.,1.,0.));
#1687=DIRECTION('ref_axis',(1.,0.,0.));
#1688=DIRECTION('center_axis',(0.,1.,0.));
#1689=DIRECTION('ref_axis',(1.,0.,0.));
#1690=DIRECTION('center_axis',(0.,-1.,0.));
#1691=DIRECTION('ref_axis',(1.,0.,0.));
#1692=DIRECTION('center_axis',(0.,-1.,0.));
#1693=DIRECTION('ref_axis',(1.,0.,0.));
#1694=DIRECTION('',(0.,1.,0.));
#1695=DIRECTION('center_axis',(0.,1.,0.));
#1696=DIRECTION('ref_axis',(1.,0.,0.));
#1697=DIRECTION('center_axis',(0.,1.,0.));
#1698=DIRECTION('ref_axis',(1.,0.,0.));
#1699=DIRECTION('center_axis',(0.,1.,0.));
#1700=DIRECTION('ref_axis',(1.,0.,0.));
#1701=DIRECTION('center_axis',(0.,-1.,0.));
#1702=DIRECTION('ref_axis',(1.,0.,0.));
#1703=DIRECTION('center_axis',(0.,-1.,0.));
#1704=DIRECTION('ref_axis',(1.,0.,0.));
#1705=DIRECTION('',(0.,1.,0.));
#1706=DIRECTION('center_axis',(0.,1.,0.));
#1707=DIRECTION('ref_axis',(1.,0.,0.));
#1708=DIRECTION('center_axis',(0.,1.,0.));
#1709=DIRECTION('ref_axis',(1.,0.,0.));
#1710=DIRECTION('center_axis',(0.,1.,0.));
#1711=DIRECTION('ref_axis',(1.,0.,0.));
#1712=CARTESIAN_POINT('',(0.,0.,0.));
#1713=CARTESIAN_POINT('Origin',(170.,45.,6.));
#1714=CARTESIAN_POINT('',(170.,45.,6.));
#1715=CARTESIAN_POINT('',(-170.,45.,6.));
#1716=CARTESIAN_POINT('',(170.,45.,6.));
#1717=CARTESIAN_POINT('',(-170.,45.,14.));
#1718=CARTESIAN_POINT('',(-170.,45.,6.));
#1719=CARTESIAN_POINT('',(170.,45.,14.));
#1720=CARTESIAN_POINT('',(170.,45.,14.));
#1721=CARTESIAN_POINT('',(170.,45.,6.));
#1722=CARTESIAN_POINT('Origin',(170.,-45.,6.));
#1723=CARTESIAN_POINT('',(170.,-45.,6.));
#1724=CARTESIAN_POINT('',(170.,-45.,6.));
#1725=CARTESIAN_POINT('',(170.,-45.,14.));
#1726=CARTESIAN_POINT('',(170.,-45.,14.));
#1727=CARTESIAN_POINT('',(170.,-45.,6.));
#1728=CARTESIAN_POINT('Origin',(-170.,-45.,6.));
#1729=CARTESIAN_POINT('',(-170.,-45.,6.));
#1730=CARTESIAN_POINT('',(-170.,-45.,6.));
#1731=CARTESIAN_POINT('',(-170.,-45.,14.));
#1732=CARTESIAN_POINT('',(-170.,-45.,14.));
#1733=CARTESIAN_POINT('',(-170.,-45.,6.));
#1734=CARTESIAN_POINT('Origin',(-170.,45.,6.));
#1735=CARTESIAN_POINT('',(-170.,45.,6.));
#1736=CARTESIAN_POINT('',(-170.,45.,14.));
#1737=CARTESIAN_POINT('Origin',(0.,0.,14.));
#1738=CARTESIAN_POINT('Origin',(0.,0.,6.));
#1739=CARTESIAN_POINT('Origin',(170.,45.,-14.));
#1740=CARTESIAN_POINT('',(170.,45.,-14.));
#1741=CARTESIAN_POINT('',(-170.,45.,-14.));
#1742=CARTESIAN_POINT('',(170.,45.,-14.));
#1743=CARTESIAN_POINT('',(-170.,45.,-6.));
#1744=CARTESIAN_POINT('',(-170.,45.,-14.));
#1745=CARTESIAN_POINT('',(170.,45.,-6.));
#1746=CARTESIAN_POINT('',(170.,45.,-6.));
#1747=CARTESIAN_POINT('',(170.,45.,-14.));
#1748=CARTESIAN_POINT('Origin',(170.,-45.,-14.));
#1749=CARTESIAN_POINT('',(170.,-45.,-14.));
#1750=CARTESIAN_POINT('',(170.,-45.,-14.));
#1751=CARTESIAN_POINT('',(170.,-45.,-6.));
#1752=CARTESIAN_POINT('',(170.,-45.,-6.));
#1753=CARTESIAN_POINT('',(170.,-45.,-14.));
#1754=CARTESIAN_POINT('Origin',(-170.,-45.,-14.));
#1755=CARTESIAN_POINT('',(-170.,-45.,-14.));
#1756=CARTESIAN_POINT('',(-170.,-45.,-14.));
#1757=CARTESIAN_POINT('',(-170.,-45.,-6.));
#1758=CARTESIAN_POINT('',(-170.,-45.,-6.));
#1759=CARTESIAN_POINT('',(-170.,-45.,-14.));
#1760=CARTESIAN_POINT('Origin',(-170.,45.,-14.));
#1761=CARTESIAN_POINT('',(-170.,45.,-14.));
#1762=CARTESIAN_POINT('',(-170.,45.,-6.));
#1763=CARTESIAN_POINT('Origin',(0.,0.,-6.));
#1764=CARTESIAN_POINT('Origin',(0.,0.,-14.));
#1765=CARTESIAN_POINT('Origin',(180.,55.,14.));
#1766=CARTESIAN_POINT('',(180.,55.,14.));
#1767=CARTESIAN_POINT('',(-180.,55.,14.));
#1768=CARTESIAN_POINT('',(180.,55.,14.));
#1769=CARTESIAN_POINT('',(-180.,55.,20.));
#1770=CARTESIAN_POINT('',(-180.,55.,14.));
#1771=CARTESIAN_POINT('',(180.,55.,20.));
#1772=CARTESIAN_POINT('',(180.,55.,20.));
#1773=CARTESIAN_POINT('',(180.,55.,14.));
#1774=CARTESIAN_POINT('Origin',(180.,-55.,14.));
#1775=CARTESIAN_POINT('',(180.,-55.,14.));
#1776=CARTESIAN_POINT('',(180.,-55.,14.));
#1777=CARTESIAN_POINT('',(180.,-55.,20.));
#1778=CARTESIAN_POINT('',(180.,-55.,20.));
#1779=CARTESIAN_POINT('',(180.,-55.,14.));
#1780=CARTESIAN_POINT('Origin',(-180.,-55.,14.));
#1781=CARTESIAN_POINT('',(-180.,-55.,14.));
#1782=CARTESIAN_POINT('',(-180.,-55.,14.));
#1783=CARTESIAN_POINT('',(-180.,-55.,20.));
#1784=CARTESIAN_POINT('',(-180.,-55.,20.));
#1785=CARTESIAN_POINT('',(-180.,-55.,14.));
#1786=CARTESIAN_POINT('Origin',(-180.,55.,14.));
#1787=CARTESIAN_POINT('',(-180.,55.,14.));
#1788=CARTESIAN_POINT('',(-180.,55.,20.));
#1789=CARTESIAN_POINT('Origin',(0.,0.,20.));
#1790=CARTESIAN_POINT('Origin',(0.,0.,14.));
#1791=CARTESIAN_POINT('Origin',(180.,55.,-20.));
#1792=CARTESIAN_POINT('',(180.,55.,-20.));
#1793=CARTESIAN_POINT('',(-180.,55.,-20.));
#1794=CARTESIAN_POINT('',(180.,55.,-20.));
#1795=CARTESIAN_POINT('',(-180.,55.,-14.));
#1796=CARTESIAN_POINT('',(-180.,55.,-20.));
#1797=CARTESIAN_POINT('',(180.,55.,-14.));
#1798=CARTESIAN_POINT('',(180.,55.,-14.));
#1799=CARTESIAN_POINT('',(180.,55.,-20.));
#1800=CARTESIAN_POINT('Origin',(180.,-55.,-20.));
#1801=CARTESIAN_POINT('',(180.,-55.,-20.));
#1802=CARTESIAN_POINT('',(180.,-55.,-20.));
#1803=CARTESIAN_POINT('',(180.,-55.,-14.));
#1804=CARTESIAN_POINT('',(180.,-55.,-14.));
#1805=CARTESIAN_POINT('',(180.,-55.,-20.));
#1806=CARTESIAN_POINT('Origin',(-180.,-55.,-20.));
#1807=CARTESIAN_POINT('',(-180.,-55.,-20.));
#1808=CARTESIAN_POINT('',(-180.,-55.,-20.));
#1809=CARTESIAN_POINT('',(-180.,-55.,-14.));
#1810=CARTESIAN_POINT('',(-180.,-55.,-14.));
#1811=CARTESIAN_POINT('',(-180.,-55.,-20.));
#1812=CARTESIAN_POINT('Origin',(-180.,55.,-20.));
#1813=CARTESIAN_POINT('',(-180.,55.,-20.));
#1814=CARTESIAN_POINT('',(-180.,55.,-14.));
#1815=CARTESIAN_POINT('Origin',(0.,0.,-14.));
#1816=CARTESIAN_POINT('Origin',(0.,0.,-20.));
#1817=CARTESIAN_POINT('Origin',(180.,54.,-14.));
#1818=CARTESIAN_POINT('',(180.,54.,-14.));
#1819=CARTESIAN_POINT('',(-180.,54.,-14.));
#1820=CARTESIAN_POINT('',(180.,54.,-14.));
#1821=CARTESIAN_POINT('',(-180.,54.,14.));
#1822=CARTESIAN_POINT('',(-180.,54.,-14.));
#1823=CARTESIAN_POINT('',(180.,54.,14.));
#1824=CARTESIAN_POINT('',(180.,54.,14.));
#1825=CARTESIAN_POINT('',(180.,54.,-14.));
#1826=CARTESIAN_POINT('Origin',(180.,48.,-14.));
#1827=CARTESIAN_POINT('',(180.,48.,-14.));
#1828=CARTESIAN_POINT('',(180.,48.,-14.));
#1829=CARTESIAN_POINT('',(180.,48.,14.));
#1830=CARTESIAN_POINT('',(180.,48.,14.));
#1831=CARTESIAN_POINT('',(180.,48.,-14.));
#1832=CARTESIAN_POINT('Origin',(-180.,48.,-14.));
#1833=CARTESIAN_POINT('',(-180.,48.,-14.));
#1834=CARTESIAN_POINT('',(-180.,48.,-14.));
#1835=CARTESIAN_POINT('',(-180.,48.,14.));
#1836=CARTESIAN_POINT('',(-180.,48.,14.));
#1837=CARTESIAN_POINT('',(-180.,48.,-14.));
#1838=CARTESIAN_POINT('Origin',(-180.,54.,-14.));
#1839=CARTESIAN_POINT('',(-180.,54.,-14.));
#1840=CARTESIAN_POINT('',(-180.,54.,14.));
#1841=CARTESIAN_POINT('Origin',(0.,51.,14.));
#1842=CARTESIAN_POINT('Origin',(0.,51.,-14.));
#1843=CARTESIAN_POINT('Origin',(180.,-48.,-14.));
#1844=CARTESIAN_POINT('',(180.,-48.,-14.));
#1845=CARTESIAN_POINT('',(-180.,-48.,-14.));
#1846=CARTESIAN_POINT('',(180.,-48.,-14.));
#1847=CARTESIAN_POINT('',(-180.,-48.,14.));
#1848=CARTESIAN_POINT('',(-180.,-48.,-14.));
#1849=CARTESIAN_POINT('',(180.,-48.,14.));
#1850=CARTESIAN_POINT('',(180.,-48.,14.));
#1851=CARTESIAN_POINT('',(180.,-48.,-14.));
#1852=CARTESIAN_POINT('Origin',(180.,-54.,-14.));
#1853=CARTESIAN_POINT('',(180.,-54.,-14.));
#1854=CARTESIAN_POINT('',(180.,-54.,-14.));
#1855=CARTESIAN_POINT('',(180.,-54.,14.));
#1856=CARTESIAN_POINT('',(180.,-54.,14.));
#1857=CARTESIAN_POINT('',(180.,-54.,-14.));
#1858=CARTESIAN_POINT('Origin',(-180.,-54.,-14.));
#1859=CARTESIAN_POINT('',(-180.,-54.,-14.));
#1860=CARTESIAN_POINT('',(-180.,-54.,-14.));
#1861=CARTESIAN_POINT('',(-180.,-54.,14.));
#1862=CARTESIAN_POINT('',(-180.,-54.,14.));
#1863=CARTESIAN_POINT('',(-180.,-54.,-14.));
#1864=CARTESIAN_POINT('Origin',(-180.,-48.,-14.));
#1865=CARTESIAN_POINT('',(-180.,-48.,-14.));
#1866=CARTESIAN_POINT('',(-180.,-48.,14.));
#1867=CARTESIAN_POINT('Origin',(0.,-51.,14.));
#1868=CARTESIAN_POINT('Origin',(0.,-51.,-14.));
#1869=CARTESIAN_POINT('Origin',(-180.,55.,20.));
#1870=CARTESIAN_POINT('',(-180.,55.,20.));
#1871=CARTESIAN_POINT('',(-188.,55.,20.));
#1872=CARTESIAN_POINT('',(-180.,55.,20.));
#1873=CARTESIAN_POINT('',(-188.,55.,120.));
#1874=CARTESIAN_POINT('',(-188.,55.,20.));
#1875=CARTESIAN_POINT('',(-180.,55.,120.));
#1876=CARTESIAN_POINT('',(-180.,55.,120.));
#1877=CARTESIAN_POINT('',(-180.,55.,20.));
#1878=CARTESIAN_POINT('Origin',(-180.,-55.,20.));
#1879=CARTESIAN_POINT('',(-180.,-55.,20.));
#1880=CARTESIAN_POINT('',(-180.,-55.,20.));
#1881=CARTESIAN_POINT('',(-180.,-55.,120.));
#1882=CARTESIAN_POINT('',(-180.,-55.,120.));
#1883=CARTESIAN_POINT('',(-180.,-55.,20.));
#1884=CARTESIAN_POINT('Origin',(-188.,-55.,20.));
#1885=CARTESIAN_POINT('',(-188.,-55.,20.));
#1886=CARTESIAN_POINT('',(-188.,-55.,20.));
#1887=CARTESIAN_POINT('',(-188.,-55.,120.));
#1888=CARTESIAN_POINT('',(-188.,-55.,120.));
#1889=CARTESIAN_POINT('',(-188.,-55.,20.));
#1890=CARTESIAN_POINT('Origin',(-188.,55.,20.));
#1891=CARTESIAN_POINT('',(-188.,55.,20.));
#1892=CARTESIAN_POINT('',(-188.,55.,120.));
#1893=CARTESIAN_POINT('Origin',(-184.,0.,120.));
#1894=CARTESIAN_POINT('Origin',(-184.,0.,20.));
#1895=CARTESIAN_POINT('Origin',(300.,40.,-2.));
#1896=CARTESIAN_POINT('',(300.,40.,-2.));
#1897=CARTESIAN_POINT('',(180.,40.,-2.));
#1898=CARTESIAN_POINT('',(300.,40.,-2.));
#1899=CARTESIAN_POINT('',(180.,40.,2.));
#1900=CARTESIAN_POINT('',(180.,40.,-2.));
#1901=CARTESIAN_POINT('',(300.,40.,2.));
#1902=CARTESIAN_POINT('',(300.,40.,2.));
#1903=CARTESIAN_POINT('',(300.,40.,-2.));
#1904=CARTESIAN_POINT('Origin',(300.,-40.,-2.));
#1905=CARTESIAN_POINT('',(300.,-40.,-2.));
#1906=CARTESIAN_POINT('',(300.,-40.,-2.));
#1907=CARTESIAN_POINT('',(300.,-40.,2.));
#1908=CARTESIAN_POINT('',(300.,-40.,2.));
#1909=CARTESIAN_POINT('',(300.,-40.,-2.));
#1910=CARTESIAN_POINT('Origin',(180.,-40.,-2.));
#1911=CARTESIAN_POINT('',(180.,-40.,-2.));
#1912=CARTESIAN_POINT('',(180.,-40.,-2.));
#1913=CARTESIAN_POINT('',(180.,-40.,2.));
#1914=CARTESIAN_POINT('',(180.,-40.,2.));
#1915=CARTESIAN_POINT('',(180.,-40.,-2.));
#1916=CARTESIAN_POINT('Origin',(180.,40.,-2.));
#1917=CARTESIAN_POINT('',(180.,40.,-2.));
#1918=CARTESIAN_POINT('',(180.,40.,2.));
#1919=CARTESIAN_POINT('Origin',(240.,0.,2.));
#1920=CARTESIAN_POINT('Origin',(240.,0.,-2.));
#1921=CARTESIAN_POINT('Origin',(-105.,70.,-10.));
#1922=CARTESIAN_POINT('',(-105.,70.,-10.));
#1923=CARTESIAN_POINT('',(-145.,70.,-10.));
#1924=CARTESIAN_POINT('',(-105.,70.,-10.));
#1925=CARTESIAN_POINT('',(-145.,70.,10.));
#1926=CARTESIAN_POINT('',(-145.,70.,-10.));
#1927=CARTESIAN_POINT('',(-105.,70.,10.));
#1928=CARTESIAN_POINT('',(-105.,70.,10.));
#1929=CARTESIAN_POINT('',(-105.,70.,-10.));
#1930=CARTESIAN_POINT('Origin',(-105.,54.,-10.));
#1931=CARTESIAN_POINT('',(-105.,54.,-10.));
#1932=CARTESIAN_POINT('',(-105.,54.,-10.));
#1933=CARTESIAN_POINT('',(-105.,54.,10.));
#1934=CARTESIAN_POINT('',(-105.,54.,10.));
#1935=CARTESIAN_POINT('',(-105.,54.,-10.));
#1936=CARTESIAN_POINT('Origin',(-145.,54.,-10.));
#1937=CARTESIAN_POINT('',(-145.,54.,-10.));
#1938=CARTESIAN_POINT('',(-145.,54.,-10.));
#1939=CARTESIAN_POINT('',(-145.,54.,10.));
#1940=CARTESIAN_POINT('',(-145.,54.,10.));
#1941=CARTESIAN_POINT('',(-145.,54.,-10.));
#1942=CARTESIAN_POINT('Origin',(-145.,70.,-10.));
#1943=CARTESIAN_POINT('',(-145.,70.,-10.));
#1944=CARTESIAN_POINT('',(-145.,70.,10.));
#1945=CARTESIAN_POINT('Origin',(-125.,62.,10.));
#1946=CARTESIAN_POINT('Origin',(-125.,62.,-10.));
#1947=CARTESIAN_POINT('Origin',(145.,70.,-10.));
#1948=CARTESIAN_POINT('',(145.,70.,-10.));
#1949=CARTESIAN_POINT('',(105.,70.,-10.));
#1950=CARTESIAN_POINT('',(145.,70.,-10.));
#1951=CARTESIAN_POINT('',(105.,70.,10.));
#1952=CARTESIAN_POINT('',(105.,70.,-10.));
#1953=CARTESIAN_POINT('',(145.,70.,10.));
#1954=CARTESIAN_POINT('',(145.,70.,10.));
#1955=CARTESIAN_POINT('',(145.,70.,-10.));
#1956=CARTESIAN_POINT('Origin',(145.,54.,-10.));
#1957=CARTESIAN_POINT('',(145.,54.,-10.));
#1958=CARTESIAN_POINT('',(145.,54.,-10.));
#1959=CARTESIAN_POINT('',(145.,54.,10.));
#1960=CARTESIAN_POINT('',(145.,54.,10.));
#1961=CARTESIAN_POINT('',(145.,54.,-10.));
#1962=CARTESIAN_POINT('Origin',(105.,54.,-10.));
#1963=CARTESIAN_POINT('',(105.,54.,-10.));
#1964=CARTESIAN_POINT('',(105.,54.,-10.));
#1965=CARTESIAN_POINT('',(105.,54.,10.));
#1966=CARTESIAN_POINT('',(105.,54.,10.));
#1967=CARTESIAN_POINT('',(105.,54.,-10.));
#1968=CARTESIAN_POINT('Origin',(105.,70.,-10.));
#1969=CARTESIAN_POINT('',(105.,70.,-10.));
#1970=CARTESIAN_POINT('',(105.,70.,10.));
#1971=CARTESIAN_POINT('Origin',(125.,62.,10.));
#1972=CARTESIAN_POINT('Origin',(125.,62.,-10.));
#1973=CARTESIAN_POINT('Origin',(-105.,-54.,-10.));
#1974=CARTESIAN_POINT('',(-105.,-54.,-10.));
#1975=CARTESIAN_POINT('',(-145.,-54.,-10.));
#1976=CARTESIAN_POINT('',(-105.,-54.,-10.));
#1977=CARTESIAN_POINT('',(-145.,-54.,10.));
#1978=CARTESIAN_POINT('',(-145.,-54.,-10.));
#1979=CARTESIAN_POINT('',(-105.,-54.,10.));
#1980=CARTESIAN_POINT('',(-105.,-54.,10.));
#1981=CARTESIAN_POINT('',(-105.,-54.,-10.));
#1982=CARTESIAN_POINT('Origin',(-105.,-70.,-10.));
#1983=CARTESIAN_POINT('',(-105.,-70.,-10.));
#1984=CARTESIAN_POINT('',(-105.,-70.,-10.));
#1985=CARTESIAN_POINT('',(-105.,-70.,10.));
#1986=CARTESIAN_POINT('',(-105.,-70.,10.));
#1987=CARTESIAN_POINT('',(-105.,-70.,-10.));
#1988=CARTESIAN_POINT('Origin',(-145.,-70.,-10.));
#1989=CARTESIAN_POINT('',(-145.,-70.,-10.));
#1990=CARTESIAN_POINT('',(-145.,-70.,-10.));
#1991=CARTESIAN_POINT('',(-145.,-70.,10.));
#1992=CARTESIAN_POINT('',(-145.,-70.,10.));
#1993=CARTESIAN_POINT('',(-145.,-70.,-10.));
#1994=CARTESIAN_POINT('Origin',(-145.,-54.,-10.));
#1995=CARTESIAN_POINT('',(-145.,-54.,-10.));
#1996=CARTESIAN_POINT('',(-145.,-54.,10.));
#1997=CARTESIAN_POINT('Origin',(-125.,-62.,10.));
#1998=CARTESIAN_POINT('Origin',(-125.,-62.,-10.));
#1999=CARTESIAN_POINT('Origin',(145.,-54.,-10.));
#2000=CARTESIAN_POINT('',(145.,-54.,-10.));
#2001=CARTESIAN_POINT('',(105.,-54.,-10.));
#2002=CARTESIAN_POINT('',(145.,-54.,-10.));
#2003=CARTESIAN_POINT('',(105.,-54.,10.));
#2004=CARTESIAN_POINT('',(105.,-54.,-10.));
#2005=CARTESIAN_POINT('',(145.,-54.,10.));
#2006=CARTESIAN_POINT('',(145.,-54.,10.));
#2007=CARTESIAN_POINT('',(145.,-54.,-10.));
#2008=CARTESIAN_POINT('Origin',(145.,-70.,-10.));
#2009=CARTESIAN_POINT('',(145.,-70.,-10.));
#2010=CARTESIAN_POINT('',(145.,-70.,-10.));
#2011=CARTESIAN_POINT('',(145.,-70.,10.));
#2012=CARTESIAN_POINT('',(145.,-70.,10.));
#2013=CARTESIAN_POINT('',(145.,-70.,-10.));
#2014=CARTESIAN_POINT('Origin',(105.,-70.,-10.));
#2015=CARTESIAN_POINT('',(105.,-70.,-10.));
#2016=CARTESIAN_POINT('',(105.,-70.,-10.));
#2017=CARTESIAN_POINT('',(105.,-70.,10.));
#2018=CARTESIAN_POINT('',(105.,-70.,10.));
#2019=CARTESIAN_POINT('',(105.,-70.,-10.));
#2020=CARTESIAN_POINT('Origin',(105.,-54.,-10.));
#2021=CARTESIAN_POINT('',(105.,-54.,-10.));
#2022=CARTESIAN_POINT('',(105.,-54.,10.));
#2023=CARTESIAN_POINT('Origin',(125.,-62.,10.));
#2024=CARTESIAN_POINT('Origin',(125.,-62.,-10.));
#2025=CARTESIAN_POINT('Origin',(-125.,70.,0.));
#2026=CARTESIAN_POINT('',(-140.,86.,1.83697019872103E-15));
#2027=CARTESIAN_POINT('Origin',(-125.,86.,0.));
#2028=CARTESIAN_POINT('',(-140.,70.,1.83697019872103E-15));
#2029=CARTESIAN_POINT('',(-140.,70.,1.83697019872103E-15));
#2030=CARTESIAN_POINT('Origin',(-125.,70.,0.));
#2031=CARTESIAN_POINT('Origin',(-125.,86.,0.));
#2032=CARTESIAN_POINT('Origin',(-125.,70.,0.));
#2033=CARTESIAN_POINT('Origin',(125.,70.,0.));
#2034=CARTESIAN_POINT('',(110.,86.,1.83697019872103E-15));
#2035=CARTESIAN_POINT('Origin',(125.,86.,0.));
#2036=CARTESIAN_POINT('',(110.,70.,1.83697019872103E-15));
#2037=CARTESIAN_POINT('',(110.,70.,1.83697019872103E-15));
#2038=CARTESIAN_POINT('Origin',(125.,70.,0.));
#2039=CARTESIAN_POINT('Origin',(125.,86.,0.));
#2040=CARTESIAN_POINT('Origin',(125.,70.,0.));
#2041=CARTESIAN_POINT('Origin',(-125.,-70.,0.));
#2042=CARTESIAN_POINT('',(-140.,-86.,1.83697019872103E-15));
#2043=CARTESIAN_POINT('Origin',(-125.,-86.,0.));
#2044=CARTESIAN_POINT('',(-140.,-70.,1.83697019872103E-15));
#2045=CARTESIAN_POINT('',(-140.,-70.,-1.83697019872103E-15));
#2046=CARTESIAN_POINT('Origin',(-125.,-70.,0.));
#2047=CARTESIAN_POINT('Origin',(-125.,-70.,0.));
#2048=CARTESIAN_POINT('Origin',(-125.,-86.,0.));
#2049=CARTESIAN_POINT('Origin',(125.,-70.,0.));
#2050=CARTESIAN_POINT('',(110.,-86.,1.83697019872103E-15));
#2051=CARTESIAN_POINT('Origin',(125.,-86.,0.));
#2052=CARTESIAN_POINT('',(110.,-70.,1.83697019872103E-15));
#2053=CARTESIAN_POINT('',(110.,-70.,-1.83697019872103E-15));
#2054=CARTESIAN_POINT('Origin',(125.,-70.,0.));
#2055=CARTESIAN_POINT('Origin',(125.,-70.,0.));
#2056=CARTESIAN_POINT('Origin',(125.,-86.,0.));
#2057=UNCERTAINTY_MEASURE_WITH_UNIT(LENGTH_MEASURE(0.01),#2061,
'DISTANCE_ACCURACY_VALUE',
'Maximum model space distance between geometric entities at asserted c
onnectivities');
#2058=UNCERTAINTY_MEASURE_WITH_UNIT(LENGTH_MEASURE(0.01),#2061,
'DISTANCE_ACCURACY_VALUE',
'Maximum model space distance between geometric entities at asserted c
onnectivities');
#2059=(
GEOMETRIC_REPRESENTATION_CONTEXT(3)
GLOBAL_UNCERTAINTY_ASSIGNED_CONTEXT((#2057))
GLOBAL_UNIT_ASSIGNED_CONTEXT((#2061,#2063,#2064))
REPRESENTATION_CONTEXT('','3D')
);
#2060=(
GEOMETRIC_REPRESENTATION_CONTEXT(3)
GLOBAL_UNCERTAINTY_ASSIGNED_CONTEXT((#2058))
GLOBAL_UNIT_ASSIGNED_CONTEXT((#2061,#2063,#2064))
REPRESENTATION_CONTEXT('','3D')
);
#2061=(
LENGTH_UNIT()
NAMED_UNIT(*)
SI_UNIT(.MILLI.,.METRE.)
);
#2062=(
LENGTH_UNIT()
NAMED_UNIT(*)
SI_UNIT($,.METRE.)
);
#2063=(
NAMED_UNIT(*)
PLANE_ANGLE_UNIT()
SI_UNIT($,.RADIAN.)
);
#2064=(
NAMED_UNIT(*)
SI_UNIT($,.STERADIAN.)
SOLID_ANGLE_UNIT()
);
#2065=SHAPE_DEFINITION_REPRESENTATION(#2066,#2067);
#2066=PRODUCT_DEFINITION_SHAPE('',$,#2069);
#2067=SHAPE_REPRESENTATION('',(#1285),#2059);
#2068=PRODUCT_DEFINITION_CONTEXT('part definition',#2073,'design');
#2069=PRODUCT_DEFINITION('EMOCD_Sled_FRESH','EMOCD_Sled_FRESH v2',#2070,
#2068);
#2070=PRODUCT_DEFINITION_FORMATION('',$,#2075);
#2071=PRODUCT_RELATED_PRODUCT_CATEGORY('EMOCD_Sled_FRESH v2',
'EMOCD_Sled_FRESH v2',(#2075));
#2072=APPLICATION_PROTOCOL_DEFINITION('international standard',
'automotive_design',2009,#2073);
#2073=APPLICATION_CONTEXT(
'Core Data for Automotive Mechanical Design Process');
#2074=PRODUCT_CONTEXT('part definition',#2073,'mechanical');
#2075=PRODUCT('EMOCD_Sled_FRESH','EMOCD_Sled_FRESH v2',$,(#2074));
#2076=PRESENTATION_STYLE_ASSIGNMENT((#2080));
#2077=PRESENTATION_STYLE_ASSIGNMENT((#2081));
#2078=PRESENTATION_STYLE_ASSIGNMENT((#2082));
#2079=PRESENTATION_STYLE_ASSIGNMENT((#2083));
#2080=SURFACE_STYLE_USAGE(.BOTH.,#2084);
#2081=SURFACE_STYLE_USAGE(.BOTH.,#2085);
#2082=SURFACE_STYLE_USAGE(.BOTH.,#2086);
#2083=SURFACE_STYLE_USAGE(.BOTH.,#2087);
#2084=SURFACE_SIDE_STYLE('',(#2088));
#2085=SURFACE_SIDE_STYLE('',(#2089));
#2086=SURFACE_SIDE_STYLE('',(#2090));
#2087=SURFACE_SIDE_STYLE('',(#2091));
#2088=SURFACE_STYLE_FILL_AREA(#2092);
#2089=SURFACE_STYLE_FILL_AREA(#2093);
#2090=SURFACE_STYLE_FILL_AREA(#2094);
#2091=SURFACE_STYLE_FILL_AREA(#2095);
#2092=FILL_AREA_STYLE('Steel - Satin',(#2096));
#2093=FILL_AREA_STYLE('Paint - Enamel Glossy (Red)',(#2097));
#2094=FILL_AREA_STYLE('Titanium - Satin',(#2098));
#2095=FILL_AREA_STYLE('Copper - Polished',(#2099));
#2096=FILL_AREA_STYLE_COLOUR('Steel - Satin',#2100);
#2097=FILL_AREA_STYLE_COLOUR('Paint - Enamel Glossy (Red)',#2101);
#2098=FILL_AREA_STYLE_COLOUR('Titanium - Satin',#2102);
#2099=FILL_AREA_STYLE_COLOUR('Copper - Polished',#2103);
#2100=COLOUR_RGB('Steel - Satin',0.627450980392157,0.627450980392157,0.627450980392157);
#2101=COLOUR_RGB('Paint - Enamel Glossy (Red)',0.768627450980392,0.207843137254902,
0.152941176470588);
#2102=COLOUR_RGB('Titanium - Satin',0.858823529411765,0.847058823529412,
0.827450980392157);
#2103=COLOUR_RGB('Copper - Polished',0.929411764705882,0.807843137254902,
0.764705882352941);
ENDSEC;
END-ISO-10303-21;
