ISO-10303-21;
HEADER;
FILE_DESCRIPTION(('FreeCAD Model'),'2;1');
FILE_NAME('VOLLEY_Interface_ESPA_FreeCAD_Gen5.step','1970-01-01T00:00:00',('FreeCAD'),(
    'FreeCAD'),'Open CASCADE STEP processor 7.8','FreeCAD','Unknown');
FILE_SCHEMA(('AUTOMOTIVE_DESIGN { 1 0 10303 214 1 1 1 1 }'));
ENDSEC;
DATA;
#1 = APPLICATION_PROTOCOL_DEFINITION('international standard',
  'automotive_design',2000,#2);
#2 = APPLICATION_CONTEXT(
  'core data for automotive mechanical design processes');
#3 = SHAPE_DEFINITION_REPRESENTATION(#4,#10);
#4 = PRODUCT_DEFINITION_SHAPE('','',#5);
#5 = PRODUCT_DEFINITION('design','',#6,#9);
#6 = PRODUCT_DEFINITION_FORMATION('','',#7);
#7 = PRODUCT('Open CASCADE STEP translator 7.8 1',
  'Open CASCADE STEP translator 7.8 1','',(#8));
#8 = PRODUCT_CONTEXT('',#2,'mechanical');
#9 = PRODUCT_DEFINITION_CONTEXT('part definition',#2,'design');
#10 = ADVANCED_BREP_SHAPE_REPRESENTATION('',(#11,#15),#1574);
#11 = AXIS2_PLACEMENT_3D('',#12,#13,#14);
#12 = CARTESIAN_POINT('',(0.,0.,0.));
#13 = DIRECTION('',(0.,0.,1.));
#14 = DIRECTION('',(1.,0.,-0.));
#15 = MANIFOLD_SOLID_BREP('',#16);
#16 = CLOSED_SHELL('',(#17,#50,#323,#686,#711,#728,#745,#762,#779,#796,
    #813,#830,#855,#872,#889,#906,#923,#940,#957,#982,#999,#1016,#1033,
    #1050,#1067,#1084,#1101,#1126,#1157,#1181,#1205,#1230,#1254,#1278,
    #1302,#1327,#1351,#1375,#1399,#1424,#1448,#1472,#1496,#1514,#1523,
    #1532,#1541,#1550));
#17 = ADVANCED_FACE('',(#18),#45,.T.);
#18 = FACE_BOUND('',#19,.T.);
#19 = EDGE_LOOP('',(#20,#29,#37,#44));
#20 = ORIENTED_EDGE('',*,*,#21,.T.);
#21 = EDGE_CURVE('',#22,#22,#24,.T.);
#22 = VERTEX_POINT('',#23);
#23 = CARTESIAN_POINT('',(-25.,230.,0.));
#24 = CIRCLE('',#25,230.);
#25 = AXIS2_PLACEMENT_3D('',#26,#27,#28);
#26 = CARTESIAN_POINT('',(-25.,0.,0.));
#27 = DIRECTION('',(1.,0.,0.));
#28 = DIRECTION('',(-0.,1.,0.));
#29 = ORIENTED_EDGE('',*,*,#30,.T.);
#30 = EDGE_CURVE('',#22,#31,#33,.T.);
#31 = VERTEX_POINT('',#32);
#32 = CARTESIAN_POINT('',(0.,230.,0.));
#33 = LINE('',#34,#35);
#34 = CARTESIAN_POINT('',(-25.,230.,0.));
#35 = VECTOR('',#36,1.);
#36 = DIRECTION('',(1.,0.,0.));
#37 = ORIENTED_EDGE('',*,*,#38,.F.);
#38 = EDGE_CURVE('',#31,#31,#39,.T.);
#39 = CIRCLE('',#40,230.);
#40 = AXIS2_PLACEMENT_3D('',#41,#42,#43);
#41 = CARTESIAN_POINT('',(0.,0.,0.));
#42 = DIRECTION('',(1.,0.,0.));
#43 = DIRECTION('',(-0.,1.,0.));
#44 = ORIENTED_EDGE('',*,*,#30,.F.);
#45 = CYLINDRICAL_SURFACE('',#46,230.);
#46 = AXIS2_PLACEMENT_3D('',#47,#48,#49);
#47 = CARTESIAN_POINT('',(-25.,0.,0.));
#48 = DIRECTION('',(-1.,-0.,-0.));
#49 = DIRECTION('',(0.,1.,0.));
#50 = ADVANCED_FACE('',(#51,#54,#65,#76,#87,#98,#109,#120,#131,#142,#153
    ,#164,#175,#186,#197,#208,#219,#230,#241,#252,#263,#274,#285,#296,
    #307),#318,.F.);
#51 = FACE_BOUND('',#52,.F.);
#52 = EDGE_LOOP('',(#53));
#53 = ORIENTED_EDGE('',*,*,#21,.T.);
#54 = FACE_BOUND('',#55,.F.);
#55 = EDGE_LOOP('',(#56));
#56 = ORIENTED_EDGE('',*,*,#57,.T.);
#57 = EDGE_CURVE('',#58,#58,#60,.T.);
#58 = VERTEX_POINT('',#59);
#59 = CARTESIAN_POINT('',(-25.,138.23937572197,-138.2393757219));
#60 = CIRCLE('',#61,4.5);
#61 = AXIS2_PLACEMENT_3D('',#62,#63,#64);
#62 = CARTESIAN_POINT('',(-25.,141.4213562373,-141.4213562373));
#63 = DIRECTION('',(-1.,0.,0.));
#64 = DIRECTION('',(0.,-0.707106781187,0.707106781187));
#65 = FACE_BOUND('',#66,.F.);
#66 = EDGE_LOOP('',(#67));
#67 = ORIENTED_EDGE('',*,*,#68,.T.);
#68 = EDGE_CURVE('',#69,#69,#71,.T.);
#69 = VERTEX_POINT('',#70);
#70 = CARTESIAN_POINT('',(-25.,188.83849903951,-50.59912331754));
#71 = CIRCLE('',#72,4.5);
#72 = AXIS2_PLACEMENT_3D('',#73,#74,#75);
#73 = CARTESIAN_POINT('',(-25.,193.18516525781,-51.7638090205));
#74 = DIRECTION('',(-1.,0.,0.));
#75 = DIRECTION('',(0.,-0.965925826289,0.258819045103));
#76 = FACE_BOUND('',#77,.F.);
#77 = EDGE_LOOP('',(#78));
#78 = ORIENTED_EDGE('',*,*,#79,.T.);
#79 = EDGE_CURVE('',#80,#80,#82,.T.);
#80 = VERTEX_POINT('',#81);
#81 = CARTESIAN_POINT('',(-25.,169.30796643985,-97.75));
#82 = CIRCLE('',#83,4.5);
#83 = AXIS2_PLACEMENT_3D('',#84,#85,#86);
#84 = CARTESIAN_POINT('',(-25.,173.20508075688,-100.));
#85 = DIRECTION('',(-1.,0.,0.));
#86 = DIRECTION('',(0.,-0.866025403784,0.5));
#87 = FACE_BOUND('',#88,.F.);
#88 = EDGE_LOOP('',(#89));
#89 = ORIENTED_EDGE('',*,*,#90,.T.);
#90 = EDGE_CURVE('',#91,#91,#93,.T.);
#91 = VERTEX_POINT('',#92);
#92 = CARTESIAN_POINT('',(-25.,97.75,-169.3079664398));
#93 = CIRCLE('',#94,4.5);
#94 = AXIS2_PLACEMENT_3D('',#95,#96,#97);
#95 = CARTESIAN_POINT('',(-25.,100.,-173.2050807568));
#96 = DIRECTION('',(-1.,0.,0.));
#97 = DIRECTION('',(0.,-0.5,0.866025403784));
#98 = FACE_BOUND('',#99,.F.);
#99 = EDGE_LOOP('',(#100));
#100 = ORIENTED_EDGE('',*,*,#101,.T.);
#101 = EDGE_CURVE('',#102,#102,#104,.T.);
#102 = VERTEX_POINT('',#103);
#103 = CARTESIAN_POINT('',(-25.,50.599123317543,-188.8384990395));
#104 = CIRCLE('',#105,4.5);
#105 = AXIS2_PLACEMENT_3D('',#106,#107,#108);
#106 = CARTESIAN_POINT('',(-25.,51.763809020504,-193.1851652578));
#107 = DIRECTION('',(-1.,0.,0.));
#108 = DIRECTION('',(0.,-0.258819045103,0.965925826289));
#109 = FACE_BOUND('',#110,.F.);
#110 = EDGE_LOOP('',(#111));
#111 = ORIENTED_EDGE('',*,*,#112,.T.);
#112 = EDGE_CURVE('',#113,#113,#115,.T.);
#113 = VERTEX_POINT('',#114);
#114 = CARTESIAN_POINT('',(-25.,195.5,-1.102182119233E-15));
#115 = CIRCLE('',#116,4.5);
#116 = AXIS2_PLACEMENT_3D('',#117,#118,#119);
#117 = CARTESIAN_POINT('',(-25.,200.,0.));
#118 = DIRECTION('',(-1.,0.,0.));
#119 = DIRECTION('',(0.,-1.,0.));
#120 = FACE_BOUND('',#121,.F.);
#121 = EDGE_LOOP('',(#122));
#122 = ORIENTED_EDGE('',*,*,#123,.T.);
#123 = EDGE_CURVE('',#124,#124,#126,.T.);
#124 = VERTEX_POINT('',#125);
#125 = CARTESIAN_POINT('',(-25.,188.83849903951,50.599123317543));
#126 = CIRCLE('',#127,4.5);
#127 = AXIS2_PLACEMENT_3D('',#128,#129,#130);
#128 = CARTESIAN_POINT('',(-25.,193.18516525781,51.763809020504));
#129 = DIRECTION('',(-1.,0.,0.));
#130 = DIRECTION('',(-0.,-0.965925826289,-0.258819045103));
#131 = FACE_BOUND('',#132,.F.);
#132 = EDGE_LOOP('',(#133));
#133 = ORIENTED_EDGE('',*,*,#134,.T.);
#134 = EDGE_CURVE('',#135,#135,#137,.T.);
#135 = VERTEX_POINT('',#136);
#136 = CARTESIAN_POINT('',(-25.,169.30796643985,97.75));
#137 = CIRCLE('',#138,4.5);
#138 = AXIS2_PLACEMENT_3D('',#139,#140,#141);
#139 = CARTESIAN_POINT('',(-25.,173.20508075688,100.));
#140 = DIRECTION('',(-1.,0.,0.));
#141 = DIRECTION('',(-0.,-0.866025403784,-0.5));
#142 = FACE_BOUND('',#143,.F.);
#143 = EDGE_LOOP('',(#144));
#144 = ORIENTED_EDGE('',*,*,#145,.T.);
#145 = EDGE_CURVE('',#146,#146,#148,.T.);
#146 = VERTEX_POINT('',#147);
#147 = CARTESIAN_POINT('',(-25.,138.23937572197,138.23937572197));
#148 = CIRCLE('',#149,4.5);
#149 = AXIS2_PLACEMENT_3D('',#150,#151,#152);
#150 = CARTESIAN_POINT('',(-25.,141.42135623731,141.4213562373));
#151 = DIRECTION('',(-1.,0.,0.));
#152 = DIRECTION('',(-0.,-0.707106781187,-0.707106781187));
#153 = FACE_BOUND('',#154,.F.);
#154 = EDGE_LOOP('',(#155));
#155 = ORIENTED_EDGE('',*,*,#156,.T.);
#156 = EDGE_CURVE('',#157,#157,#159,.T.);
#157 = VERTEX_POINT('',#158);
#158 = CARTESIAN_POINT('',(-25.,97.75,169.30796643985));
#159 = CIRCLE('',#160,4.5);
#160 = AXIS2_PLACEMENT_3D('',#161,#162,#163);
#161 = CARTESIAN_POINT('',(-25.,100.,173.20508075688));
#162 = DIRECTION('',(-1.,0.,0.));
#163 = DIRECTION('',(-0.,-0.5,-0.866025403784));
#164 = FACE_BOUND('',#165,.F.);
#165 = EDGE_LOOP('',(#166));
#166 = ORIENTED_EDGE('',*,*,#167,.T.);
#167 = EDGE_CURVE('',#168,#168,#170,.T.);
#168 = VERTEX_POINT('',#169);
#169 = CARTESIAN_POINT('',(-25.,50.599123317543,188.83849903951));
#170 = CIRCLE('',#171,4.5);
#171 = AXIS2_PLACEMENT_3D('',#172,#173,#174);
#172 = CARTESIAN_POINT('',(-25.,51.763809020504,193.18516525781));
#173 = DIRECTION('',(-1.,0.,0.));
#174 = DIRECTION('',(-0.,-0.258819045103,-0.965925826289));
#175 = FACE_BOUND('',#176,.F.);
#176 = EDGE_LOOP('',(#177));
#177 = ORIENTED_EDGE('',*,*,#178,.T.);
#178 = EDGE_CURVE('',#179,#179,#181,.T.);
#179 = VERTEX_POINT('',#180);
#180 = CARTESIAN_POINT('',(-25.,1.284904974962E-14,195.5));
#181 = CIRCLE('',#182,4.5);
#182 = AXIS2_PLACEMENT_3D('',#183,#184,#185);
#183 = CARTESIAN_POINT('',(-25.,1.224646799147E-14,200.));
#184 = DIRECTION('',(-1.,0.,0.));
#185 = DIRECTION('',(-0.,-1.110223024625E-16,-1.));
#186 = FACE_BOUND('',#187,.F.);
#187 = EDGE_LOOP('',(#188));
#188 = ORIENTED_EDGE('',*,*,#189,.T.);
#189 = EDGE_CURVE('',#190,#190,#192,.T.);
#190 = VERTEX_POINT('',#191);
#191 = CARTESIAN_POINT('',(-25.,-3.684238537149E-14,-195.5));
#192 = CIRCLE('',#193,4.5);
#193 = AXIS2_PLACEMENT_3D('',#194,#195,#196);
#194 = CARTESIAN_POINT('',(-25.,-3.673940397442E-14,-200.));
#195 = DIRECTION('',(-1.,0.,0.));
#196 = DIRECTION('',(0.,2.22044604925E-16,1.));
#197 = FACE_BOUND('',#198,.F.);
#198 = EDGE_LOOP('',(#199));
#199 = ORIENTED_EDGE('',*,*,#200,.T.);
#200 = EDGE_CURVE('',#201,#201,#203,.T.);
#201 = VERTEX_POINT('',#202);
#202 = CARTESIAN_POINT('',(-25.,-50.59912331754,-188.8384990395));
#203 = CIRCLE('',#204,4.5);
#204 = AXIS2_PLACEMENT_3D('',#205,#206,#207);
#205 = CARTESIAN_POINT('',(-25.,-51.7638090205,-193.1851652578));
#206 = DIRECTION('',(-1.,0.,0.));
#207 = DIRECTION('',(0.,0.258819045103,0.965925826289));
#208 = FACE_BOUND('',#209,.F.);
#209 = EDGE_LOOP('',(#210));
#210 = ORIENTED_EDGE('',*,*,#211,.T.);
#211 = EDGE_CURVE('',#212,#212,#214,.T.);
#212 = VERTEX_POINT('',#213);
#213 = CARTESIAN_POINT('',(-25.,-97.75,-169.3079664398));
#214 = CIRCLE('',#215,4.5);
#215 = AXIS2_PLACEMENT_3D('',#216,#217,#218);
#216 = CARTESIAN_POINT('',(-25.,-100.,-173.2050807568));
#217 = DIRECTION('',(-1.,0.,0.));
#218 = DIRECTION('',(0.,0.5,0.866025403784));
#219 = FACE_BOUND('',#220,.F.);
#220 = EDGE_LOOP('',(#221));
#221 = ORIENTED_EDGE('',*,*,#222,.T.);
#222 = EDGE_CURVE('',#223,#223,#225,.T.);
#223 = VERTEX_POINT('',#224);
#224 = CARTESIAN_POINT('',(-25.,-138.2393757219,-138.2393757219));
#225 = CIRCLE('',#226,4.5);
#226 = AXIS2_PLACEMENT_3D('',#227,#228,#229);
#227 = CARTESIAN_POINT('',(-25.,-141.4213562373,-141.4213562373));
#228 = DIRECTION('',(-1.,0.,0.));
#229 = DIRECTION('',(0.,0.707106781187,0.707106781187));
#230 = FACE_BOUND('',#231,.F.);
#231 = EDGE_LOOP('',(#232));
#232 = ORIENTED_EDGE('',*,*,#233,.T.);
#233 = EDGE_CURVE('',#234,#234,#236,.T.);
#234 = VERTEX_POINT('',#235);
#235 = CARTESIAN_POINT('',(-25.,-169.3079664398,-97.75));
#236 = CIRCLE('',#237,4.5);
#237 = AXIS2_PLACEMENT_3D('',#238,#239,#240);
#238 = CARTESIAN_POINT('',(-25.,-173.2050807568,-100.));
#239 = DIRECTION('',(-1.,0.,0.));
#240 = DIRECTION('',(0.,0.866025403784,0.5));
#241 = FACE_BOUND('',#242,.F.);
#242 = EDGE_LOOP('',(#243));
#243 = ORIENTED_EDGE('',*,*,#244,.T.);
#244 = EDGE_CURVE('',#245,#245,#247,.T.);
#245 = VERTEX_POINT('',#246);
#246 = CARTESIAN_POINT('',(-25.,-188.8384990395,-50.59912331754));
#247 = CIRCLE('',#248,4.5);
#248 = AXIS2_PLACEMENT_3D('',#249,#250,#251);
#249 = CARTESIAN_POINT('',(-25.,-193.1851652578,-51.7638090205));
#250 = DIRECTION('',(-1.,0.,0.));
#251 = DIRECTION('',(0.,0.965925826289,0.258819045103));
#252 = FACE_BOUND('',#253,.F.);
#253 = EDGE_LOOP('',(#254));
#254 = ORIENTED_EDGE('',*,*,#255,.T.);
#255 = EDGE_CURVE('',#256,#256,#258,.T.);
#256 = VERTEX_POINT('',#257);
#257 = CARTESIAN_POINT('',(-25.,-50.59912331754,188.83849903951));
#258 = CIRCLE('',#259,4.5);
#259 = AXIS2_PLACEMENT_3D('',#260,#261,#262);
#260 = CARTESIAN_POINT('',(-25.,-51.7638090205,193.18516525781));
#261 = DIRECTION('',(-1.,-0.,0.));
#262 = DIRECTION('',(-0.,0.258819045103,-0.965925826289));
#263 = FACE_BOUND('',#264,.F.);
#264 = EDGE_LOOP('',(#265));
#265 = ORIENTED_EDGE('',*,*,#266,.T.);
#266 = EDGE_CURVE('',#267,#267,#269,.T.);
#267 = VERTEX_POINT('',#268);
#268 = CARTESIAN_POINT('',(-25.,-97.75,169.30796643985));
#269 = CIRCLE('',#270,4.5);
#270 = AXIS2_PLACEMENT_3D('',#271,#272,#273);
#271 = CARTESIAN_POINT('',(-25.,-100.,173.20508075688));
#272 = DIRECTION('',(-1.,-0.,0.));
#273 = DIRECTION('',(-0.,0.5,-0.866025403784));
#274 = FACE_BOUND('',#275,.F.);
#275 = EDGE_LOOP('',(#276));
#276 = ORIENTED_EDGE('',*,*,#277,.T.);
#277 = EDGE_CURVE('',#278,#278,#280,.T.);
#278 = VERTEX_POINT('',#279);
#279 = CARTESIAN_POINT('',(-25.,-195.5,2.504402704256E-14));
#280 = CIRCLE('',#281,4.5);
#281 = AXIS2_PLACEMENT_3D('',#282,#283,#284);
#282 = CARTESIAN_POINT('',(-25.,-200.,2.449293598295E-14));
#283 = DIRECTION('',(-1.,-0.,0.));
#284 = DIRECTION('',(-0.,1.,-1.224646799147E-16));
#285 = FACE_BOUND('',#286,.F.);
#286 = EDGE_LOOP('',(#287));
#287 = ORIENTED_EDGE('',*,*,#288,.T.);
#288 = EDGE_CURVE('',#289,#289,#291,.T.);
#289 = VERTEX_POINT('',#290);
#290 = CARTESIAN_POINT('',(-25.,-169.3079664398,97.75));
#291 = CIRCLE('',#292,4.5);
#292 = AXIS2_PLACEMENT_3D('',#293,#294,#295);
#293 = CARTESIAN_POINT('',(-25.,-173.2050807568,100.));
#294 = DIRECTION('',(-1.,-0.,0.));
#295 = DIRECTION('',(-0.,0.866025403784,-0.5));
#296 = FACE_BOUND('',#297,.F.);
#297 = EDGE_LOOP('',(#298));
#298 = ORIENTED_EDGE('',*,*,#299,.T.);
#299 = EDGE_CURVE('',#300,#300,#302,.T.);
#300 = VERTEX_POINT('',#301);
#301 = CARTESIAN_POINT('',(-25.,-188.8384990395,50.599123317543));
#302 = CIRCLE('',#303,4.5);
#303 = AXIS2_PLACEMENT_3D('',#304,#305,#306);
#304 = CARTESIAN_POINT('',(-25.,-193.1851652578,51.763809020504));
#305 = DIRECTION('',(-1.,-0.,0.));
#306 = DIRECTION('',(-0.,0.965925826289,-0.258819045103));
#307 = FACE_BOUND('',#308,.F.);
#308 = EDGE_LOOP('',(#309));
#309 = ORIENTED_EDGE('',*,*,#310,.T.);
#310 = EDGE_CURVE('',#311,#311,#313,.T.);
#311 = VERTEX_POINT('',#312);
#312 = CARTESIAN_POINT('',(-25.,-138.2393757219,138.23937572197));
#313 = CIRCLE('',#314,4.5);
#314 = AXIS2_PLACEMENT_3D('',#315,#316,#317);
#315 = CARTESIAN_POINT('',(-25.,-141.4213562373,141.42135623731));
#316 = DIRECTION('',(-1.,-0.,0.));
#317 = DIRECTION('',(-0.,0.707106781187,-0.707106781187));
#318 = PLANE('',#319);
#319 = AXIS2_PLACEMENT_3D('',#320,#321,#322);
#320 = CARTESIAN_POINT('',(-25.,-1.217616257148E-14,1.49633663495E-14));
#321 = DIRECTION('',(1.,0.,0.));
#322 = DIRECTION('',(-0.,0.,1.));
#323 = ADVANCED_FACE('',(#324,#327,#338,#349,#360,#371,#382,#393,#404,
    #415,#426,#437,#448,#459,#470,#481,#492,#626,#637,#648,#659,#670),
  #681,.T.);
#324 = FACE_BOUND('',#325,.T.);
#325 = EDGE_LOOP('',(#326));
#326 = ORIENTED_EDGE('',*,*,#38,.T.);
#327 = FACE_BOUND('',#328,.T.);
#328 = EDGE_LOOP('',(#329));
#329 = ORIENTED_EDGE('',*,*,#330,.T.);
#330 = EDGE_CURVE('',#331,#331,#333,.T.);
#331 = VERTEX_POINT('',#332);
#332 = CARTESIAN_POINT('',(0.,188.83849903951,-50.59912331754));
#333 = CIRCLE('',#334,4.5);
#334 = AXIS2_PLACEMENT_3D('',#335,#336,#337);
#335 = CARTESIAN_POINT('',(0.,193.18516525781,-51.7638090205));
#336 = DIRECTION('',(-1.,0.,0.));
#337 = DIRECTION('',(0.,-0.965925826289,0.258819045103));
#338 = FACE_BOUND('',#339,.T.);
#339 = EDGE_LOOP('',(#340));
#340 = ORIENTED_EDGE('',*,*,#341,.T.);
#341 = EDGE_CURVE('',#342,#342,#344,.T.);
#342 = VERTEX_POINT('',#343);
#343 = CARTESIAN_POINT('',(0.,169.30796643985,-97.75));
#344 = CIRCLE('',#345,4.5);
#345 = AXIS2_PLACEMENT_3D('',#346,#347,#348);
#346 = CARTESIAN_POINT('',(0.,173.20508075688,-100.));
#347 = DIRECTION('',(-1.,0.,0.));
#348 = DIRECTION('',(0.,-0.866025403784,0.5));
#349 = FACE_BOUND('',#350,.T.);
#350 = EDGE_LOOP('',(#351));
#351 = ORIENTED_EDGE('',*,*,#352,.T.);
#352 = EDGE_CURVE('',#353,#353,#355,.T.);
#353 = VERTEX_POINT('',#354);
#354 = CARTESIAN_POINT('',(0.,97.75,-169.3079664398));
#355 = CIRCLE('',#356,4.5);
#356 = AXIS2_PLACEMENT_3D('',#357,#358,#359);
#357 = CARTESIAN_POINT('',(0.,100.,-173.2050807568));
#358 = DIRECTION('',(-1.,0.,0.));
#359 = DIRECTION('',(0.,-0.5,0.866025403784));
#360 = FACE_BOUND('',#361,.T.);
#361 = EDGE_LOOP('',(#362));
#362 = ORIENTED_EDGE('',*,*,#363,.T.);
#363 = EDGE_CURVE('',#364,#364,#366,.T.);
#364 = VERTEX_POINT('',#365);
#365 = CARTESIAN_POINT('',(0.,50.599123317543,-188.8384990395));
#366 = CIRCLE('',#367,4.5);
#367 = AXIS2_PLACEMENT_3D('',#368,#369,#370);
#368 = CARTESIAN_POINT('',(0.,51.763809020504,-193.1851652578));
#369 = DIRECTION('',(-1.,0.,0.));
#370 = DIRECTION('',(0.,-0.258819045103,0.965925826289));
#371 = FACE_BOUND('',#372,.T.);
#372 = EDGE_LOOP('',(#373));
#373 = ORIENTED_EDGE('',*,*,#374,.T.);
#374 = EDGE_CURVE('',#375,#375,#377,.T.);
#375 = VERTEX_POINT('',#376);
#376 = CARTESIAN_POINT('',(0.,195.5,-1.102182119233E-15));
#377 = CIRCLE('',#378,4.5);
#378 = AXIS2_PLACEMENT_3D('',#379,#380,#381);
#379 = CARTESIAN_POINT('',(0.,200.,0.));
#380 = DIRECTION('',(-1.,0.,0.));
#381 = DIRECTION('',(0.,-1.,0.));
#382 = FACE_BOUND('',#383,.T.);
#383 = EDGE_LOOP('',(#384));
#384 = ORIENTED_EDGE('',*,*,#385,.T.);
#385 = EDGE_CURVE('',#386,#386,#388,.T.);
#386 = VERTEX_POINT('',#387);
#387 = CARTESIAN_POINT('',(0.,188.83849903951,50.599123317543));
#388 = CIRCLE('',#389,4.5);
#389 = AXIS2_PLACEMENT_3D('',#390,#391,#392);
#390 = CARTESIAN_POINT('',(0.,193.18516525781,51.763809020504));
#391 = DIRECTION('',(-1.,-0.,0.));
#392 = DIRECTION('',(0.,-0.965925826289,-0.258819045103));
#393 = FACE_BOUND('',#394,.T.);
#394 = EDGE_LOOP('',(#395));
#395 = ORIENTED_EDGE('',*,*,#396,.T.);
#396 = EDGE_CURVE('',#397,#397,#399,.T.);
#397 = VERTEX_POINT('',#398);
#398 = CARTESIAN_POINT('',(0.,169.30796643985,97.75));
#399 = CIRCLE('',#400,4.5);
#400 = AXIS2_PLACEMENT_3D('',#401,#402,#403);
#401 = CARTESIAN_POINT('',(0.,173.20508075688,100.));
#402 = DIRECTION('',(-1.,-0.,0.));
#403 = DIRECTION('',(0.,-0.866025403784,-0.5));
#404 = FACE_BOUND('',#405,.T.);
#405 = EDGE_LOOP('',(#406));
#406 = ORIENTED_EDGE('',*,*,#407,.T.);
#407 = EDGE_CURVE('',#408,#408,#410,.T.);
#408 = VERTEX_POINT('',#409);
#409 = CARTESIAN_POINT('',(0.,97.75,169.30796643985));
#410 = CIRCLE('',#411,4.5);
#411 = AXIS2_PLACEMENT_3D('',#412,#413,#414);
#412 = CARTESIAN_POINT('',(0.,100.,173.20508075688));
#413 = DIRECTION('',(-1.,-0.,0.));
#414 = DIRECTION('',(0.,-0.5,-0.866025403784));
#415 = FACE_BOUND('',#416,.T.);
#416 = EDGE_LOOP('',(#417));
#417 = ORIENTED_EDGE('',*,*,#418,.T.);
#418 = EDGE_CURVE('',#419,#419,#421,.T.);
#419 = VERTEX_POINT('',#420);
#420 = CARTESIAN_POINT('',(0.,50.599123317543,188.83849903951));
#421 = CIRCLE('',#422,4.5);
#422 = AXIS2_PLACEMENT_3D('',#423,#424,#425);
#423 = CARTESIAN_POINT('',(0.,51.763809020504,193.18516525781));
#424 = DIRECTION('',(-1.,-0.,0.));
#425 = DIRECTION('',(0.,-0.258819045103,-0.965925826289));
#426 = FACE_BOUND('',#427,.T.);
#427 = EDGE_LOOP('',(#428));
#428 = ORIENTED_EDGE('',*,*,#429,.T.);
#429 = EDGE_CURVE('',#430,#430,#432,.T.);
#430 = VERTEX_POINT('',#431);
#431 = CARTESIAN_POINT('',(0.,1.284904974962E-14,195.5));
#432 = CIRCLE('',#433,4.5);
#433 = AXIS2_PLACEMENT_3D('',#434,#435,#436);
#434 = CARTESIAN_POINT('',(0.,1.224646799147E-14,200.));
#435 = DIRECTION('',(-1.,-0.,0.));
#436 = DIRECTION('',(0.,-1.110223024625E-16,-1.));
#437 = FACE_BOUND('',#438,.T.);
#438 = EDGE_LOOP('',(#439));
#439 = ORIENTED_EDGE('',*,*,#440,.T.);
#440 = EDGE_CURVE('',#441,#441,#443,.T.);
#441 = VERTEX_POINT('',#442);
#442 = CARTESIAN_POINT('',(0.,-3.684238537149E-14,-195.5));
#443 = CIRCLE('',#444,4.5);
#444 = AXIS2_PLACEMENT_3D('',#445,#446,#447);
#445 = CARTESIAN_POINT('',(0.,-3.673940397442E-14,-200.));
#446 = DIRECTION('',(-1.,0.,0.));
#447 = DIRECTION('',(0.,2.22044604925E-16,1.));
#448 = FACE_BOUND('',#449,.T.);
#449 = EDGE_LOOP('',(#450));
#450 = ORIENTED_EDGE('',*,*,#451,.T.);
#451 = EDGE_CURVE('',#452,#452,#454,.T.);
#452 = VERTEX_POINT('',#453);
#453 = CARTESIAN_POINT('',(0.,-50.59912331754,-188.8384990395));
#454 = CIRCLE('',#455,4.5);
#455 = AXIS2_PLACEMENT_3D('',#456,#457,#458);
#456 = CARTESIAN_POINT('',(0.,-51.7638090205,-193.1851652578));
#457 = DIRECTION('',(-1.,0.,0.));
#458 = DIRECTION('',(0.,0.258819045103,0.965925826289));
#459 = FACE_BOUND('',#460,.T.);
#460 = EDGE_LOOP('',(#461));
#461 = ORIENTED_EDGE('',*,*,#462,.T.);
#462 = EDGE_CURVE('',#463,#463,#465,.T.);
#463 = VERTEX_POINT('',#464);
#464 = CARTESIAN_POINT('',(0.,-97.75,-169.3079664398));
#465 = CIRCLE('',#466,4.5);
#466 = AXIS2_PLACEMENT_3D('',#467,#468,#469);
#467 = CARTESIAN_POINT('',(0.,-100.,-173.2050807568));
#468 = DIRECTION('',(-1.,0.,0.));
#469 = DIRECTION('',(0.,0.5,0.866025403784));
#470 = FACE_BOUND('',#471,.T.);
#471 = EDGE_LOOP('',(#472));
#472 = ORIENTED_EDGE('',*,*,#473,.T.);
#473 = EDGE_CURVE('',#474,#474,#476,.T.);
#474 = VERTEX_POINT('',#475);
#475 = CARTESIAN_POINT('',(0.,-169.3079664398,-97.75));
#476 = CIRCLE('',#477,4.5);
#477 = AXIS2_PLACEMENT_3D('',#478,#479,#480);
#478 = CARTESIAN_POINT('',(0.,-173.2050807568,-100.));
#479 = DIRECTION('',(-1.,0.,0.));
#480 = DIRECTION('',(0.,0.866025403784,0.5));
#481 = FACE_BOUND('',#482,.T.);
#482 = EDGE_LOOP('',(#483));
#483 = ORIENTED_EDGE('',*,*,#484,.T.);
#484 = EDGE_CURVE('',#485,#485,#487,.T.);
#485 = VERTEX_POINT('',#486);
#486 = CARTESIAN_POINT('',(0.,-188.8384990395,-50.59912331754));
#487 = CIRCLE('',#488,4.5);
#488 = AXIS2_PLACEMENT_3D('',#489,#490,#491);
#489 = CARTESIAN_POINT('',(0.,-193.1851652578,-51.7638090205));
#490 = DIRECTION('',(-1.,0.,0.));
#491 = DIRECTION('',(0.,0.965925826289,0.258819045103));
#492 = FACE_BOUND('',#493,.T.);
#493 = EDGE_LOOP('',(#494,#504,#513,#521,#529,#537,#546,#554,#562,#570,
    #579,#587,#595,#603,#612,#620));
#494 = ORIENTED_EDGE('',*,*,#495,.F.);
#495 = EDGE_CURVE('',#496,#498,#500,.T.);
#496 = VERTEX_POINT('',#497);
#497 = CARTESIAN_POINT('',(0.,110.22377108305,101.73848970881));
#498 = VERTEX_POINT('',#499);
#499 = CARTESIAN_POINT('',(0.,159.80613254816,151.32085117392));
#500 = LINE('',#501,#502);
#501 = CARTESIAN_POINT('',(0.,39.597979746447,31.112698372208));
#502 = VECTOR('',#503,1.);
#503 = DIRECTION('',(0.,0.707106781187,0.707106781187));
#504 = ORIENTED_EDGE('',*,*,#505,.T.);
#505 = EDGE_CURVE('',#496,#506,#508,.T.);
#506 = VERTEX_POINT('',#507);
#507 = CARTESIAN_POINT('',(0.,110.22377108305,-101.7384897088));
#508 = CIRCLE('',#509,150.);
#509 = AXIS2_PLACEMENT_3D('',#510,#511,#512);
#510 = CARTESIAN_POINT('',(0.,0.,0.));
#511 = DIRECTION('',(-1.,0.,0.));
#512 = DIRECTION('',(0.,0.734825140554,0.678256598059));
#513 = ORIENTED_EDGE('',*,*,#514,.T.);
#514 = EDGE_CURVE('',#506,#515,#517,.T.);
#515 = VERTEX_POINT('',#516);
#516 = CARTESIAN_POINT('',(0.,159.80613254816,-151.3208511739));
#517 = LINE('',#518,#519);
#518 = CARTESIAN_POINT('',(0.,39.597979746447,-31.1126983722));
#519 = VECTOR('',#520,1.);
#520 = DIRECTION('',(0.,0.707106781187,-0.707106781187));
#521 = ORIENTED_EDGE('',*,*,#522,.F.);
#522 = EDGE_CURVE('',#523,#515,#525,.T.);
#523 = VERTEX_POINT('',#524);
#524 = CARTESIAN_POINT('',(0.,151.32085117392,-159.8061325481));
#525 = LINE('',#526,#527);
#526 = CARTESIAN_POINT('',(0.,151.32085117392,-159.8061325481));
#527 = VECTOR('',#528,1.);
#528 = DIRECTION('',(0.,0.707106781187,0.707106781187));
#529 = ORIENTED_EDGE('',*,*,#530,.F.);
#530 = EDGE_CURVE('',#531,#523,#533,.T.);
#531 = VERTEX_POINT('',#532);
#532 = CARTESIAN_POINT('',(0.,101.73848970881,-110.223771083));
#533 = LINE('',#534,#535);
#534 = CARTESIAN_POINT('',(0.,31.112698372208,-39.59797974644));
#535 = VECTOR('',#536,1.);
#536 = DIRECTION('',(0.,0.707106781187,-0.707106781187));
#537 = ORIENTED_EDGE('',*,*,#538,.T.);
#538 = EDGE_CURVE('',#531,#539,#541,.T.);
#539 = VERTEX_POINT('',#540);
#540 = CARTESIAN_POINT('',(0.,-101.7384897088,-110.223771083));
#541 = CIRCLE('',#542,150.);
#542 = AXIS2_PLACEMENT_3D('',#543,#544,#545);
#543 = CARTESIAN_POINT('',(0.,0.,0.));
#544 = DIRECTION('',(-1.,0.,0.));
#545 = DIRECTION('',(0.,0.734825140554,0.678256598059));
#546 = ORIENTED_EDGE('',*,*,#547,.T.);
#547 = EDGE_CURVE('',#539,#548,#550,.T.);
#548 = VERTEX_POINT('',#549);
#549 = CARTESIAN_POINT('',(0.,-151.3208511739,-159.8061325481));
#550 = LINE('',#551,#552);
#551 = CARTESIAN_POINT('',(0.,-31.1126983722,-39.59797974644));
#552 = VECTOR('',#553,1.);
#553 = DIRECTION('',(0.,-0.707106781187,-0.707106781187));
#554 = ORIENTED_EDGE('',*,*,#555,.F.);
#555 = EDGE_CURVE('',#556,#548,#558,.T.);
#556 = VERTEX_POINT('',#557);
#557 = CARTESIAN_POINT('',(0.,-159.8061325481,-151.3208511739));
#558 = LINE('',#559,#560);
#559 = CARTESIAN_POINT('',(0.,-159.8061325481,-151.3208511739));
#560 = VECTOR('',#561,1.);
#561 = DIRECTION('',(0.,0.707106781187,-0.707106781187));
#562 = ORIENTED_EDGE('',*,*,#563,.F.);
#563 = EDGE_CURVE('',#564,#556,#566,.T.);
#564 = VERTEX_POINT('',#565);
#565 = CARTESIAN_POINT('',(0.,-110.223771083,-101.7384897088));
#566 = LINE('',#567,#568);
#567 = CARTESIAN_POINT('',(0.,-39.59797974644,-31.1126983722));
#568 = VECTOR('',#569,1.);
#569 = DIRECTION('',(0.,-0.707106781187,-0.707106781187));
#570 = ORIENTED_EDGE('',*,*,#571,.T.);
#571 = EDGE_CURVE('',#564,#572,#574,.T.);
#572 = VERTEX_POINT('',#573);
#573 = CARTESIAN_POINT('',(0.,-110.223771083,101.73848970881));
#574 = CIRCLE('',#575,150.);
#575 = AXIS2_PLACEMENT_3D('',#576,#577,#578);
#576 = CARTESIAN_POINT('',(0.,0.,0.));
#577 = DIRECTION('',(-1.,0.,0.));
#578 = DIRECTION('',(0.,0.734825140554,0.678256598059));
#579 = ORIENTED_EDGE('',*,*,#580,.T.);
#580 = EDGE_CURVE('',#572,#581,#583,.T.);
#581 = VERTEX_POINT('',#582);
#582 = CARTESIAN_POINT('',(0.,-159.8061325481,151.32085117392));
#583 = LINE('',#584,#585);
#584 = CARTESIAN_POINT('',(0.,-39.59797974644,31.112698372208));
#585 = VECTOR('',#586,1.);
#586 = DIRECTION('',(0.,-0.707106781187,0.707106781187));
#587 = ORIENTED_EDGE('',*,*,#588,.F.);
#588 = EDGE_CURVE('',#589,#581,#591,.T.);
#589 = VERTEX_POINT('',#590);
#590 = CARTESIAN_POINT('',(0.,-151.3208511739,159.80613254816));
#591 = LINE('',#592,#593);
#592 = CARTESIAN_POINT('',(0.,-151.3208511739,159.80613254816));
#593 = VECTOR('',#594,1.);
#594 = DIRECTION('',(0.,-0.707106781187,-0.707106781187));
#595 = ORIENTED_EDGE('',*,*,#596,.F.);
#596 = EDGE_CURVE('',#597,#589,#599,.T.);
#597 = VERTEX_POINT('',#598);
#598 = CARTESIAN_POINT('',(0.,-101.7384897088,110.22377108305));
#599 = LINE('',#600,#601);
#600 = CARTESIAN_POINT('',(0.,-31.1126983722,39.597979746447));
#601 = VECTOR('',#602,1.);
#602 = DIRECTION('',(0.,-0.707106781187,0.707106781187));
#603 = ORIENTED_EDGE('',*,*,#604,.T.);
#604 = EDGE_CURVE('',#597,#605,#607,.T.);
#605 = VERTEX_POINT('',#606);
#606 = CARTESIAN_POINT('',(0.,101.73848970881,110.22377108305));
#607 = CIRCLE('',#608,150.);
#608 = AXIS2_PLACEMENT_3D('',#609,#610,#611);
#609 = CARTESIAN_POINT('',(0.,0.,0.));
#610 = DIRECTION('',(-1.,0.,0.));
#611 = DIRECTION('',(0.,0.734825140554,0.678256598059));
#612 = ORIENTED_EDGE('',*,*,#613,.T.);
#613 = EDGE_CURVE('',#605,#614,#616,.T.);
#614 = VERTEX_POINT('',#615);
#615 = CARTESIAN_POINT('',(0.,151.32085117392,159.80613254816));
#616 = LINE('',#617,#618);
#617 = CARTESIAN_POINT('',(0.,31.112698372208,39.597979746447));
#618 = VECTOR('',#619,1.);
#619 = DIRECTION('',(0.,0.707106781187,0.707106781187));
#620 = ORIENTED_EDGE('',*,*,#621,.F.);
#621 = EDGE_CURVE('',#498,#614,#622,.T.);
#622 = LINE('',#623,#624);
#623 = CARTESIAN_POINT('',(0.,159.80613254816,151.32085117392));
#624 = VECTOR('',#625,1.);
#625 = DIRECTION('',(0.,-0.707106781187,0.707106781187));
#626 = FACE_BOUND('',#627,.T.);
#627 = EDGE_LOOP('',(#628));
#628 = ORIENTED_EDGE('',*,*,#629,.T.);
#629 = EDGE_CURVE('',#630,#630,#632,.T.);
#630 = VERTEX_POINT('',#631);
#631 = CARTESIAN_POINT('',(0.,-50.59912331754,188.83849903951));
#632 = CIRCLE('',#633,4.5);
#633 = AXIS2_PLACEMENT_3D('',#634,#635,#636);
#634 = CARTESIAN_POINT('',(0.,-51.7638090205,193.18516525781));
#635 = DIRECTION('',(-1.,0.,-0.));
#636 = DIRECTION('',(0.,0.258819045103,-0.965925826289));
#637 = FACE_BOUND('',#638,.T.);
#638 = EDGE_LOOP('',(#639));
#639 = ORIENTED_EDGE('',*,*,#640,.T.);
#640 = EDGE_CURVE('',#641,#641,#643,.T.);
#641 = VERTEX_POINT('',#642);
#642 = CARTESIAN_POINT('',(0.,-97.75,169.30796643985));
#643 = CIRCLE('',#644,4.5);
#644 = AXIS2_PLACEMENT_3D('',#645,#646,#647);
#645 = CARTESIAN_POINT('',(0.,-100.,173.20508075688));
#646 = DIRECTION('',(-1.,0.,-0.));
#647 = DIRECTION('',(0.,0.5,-0.866025403784));
#648 = FACE_BOUND('',#649,.T.);
#649 = EDGE_LOOP('',(#650));
#650 = ORIENTED_EDGE('',*,*,#651,.T.);
#651 = EDGE_CURVE('',#652,#652,#654,.T.);
#652 = VERTEX_POINT('',#653);
#653 = CARTESIAN_POINT('',(0.,-195.5,2.504402704256E-14));
#654 = CIRCLE('',#655,4.5);
#655 = AXIS2_PLACEMENT_3D('',#656,#657,#658);
#656 = CARTESIAN_POINT('',(0.,-200.,2.449293598295E-14));
#657 = DIRECTION('',(-1.,0.,-0.));
#658 = DIRECTION('',(0.,1.,-1.224646799147E-16));
#659 = FACE_BOUND('',#660,.T.);
#660 = EDGE_LOOP('',(#661));
#661 = ORIENTED_EDGE('',*,*,#662,.T.);
#662 = EDGE_CURVE('',#663,#663,#665,.T.);
#663 = VERTEX_POINT('',#664);
#664 = CARTESIAN_POINT('',(0.,-169.3079664398,97.75));
#665 = CIRCLE('',#666,4.5);
#666 = AXIS2_PLACEMENT_3D('',#667,#668,#669);
#667 = CARTESIAN_POINT('',(0.,-173.2050807568,100.));
#668 = DIRECTION('',(-1.,0.,-0.));
#669 = DIRECTION('',(0.,0.866025403784,-0.5));
#670 = FACE_BOUND('',#671,.T.);
#671 = EDGE_LOOP('',(#672));
#672 = ORIENTED_EDGE('',*,*,#673,.T.);
#673 = EDGE_CURVE('',#674,#674,#676,.T.);
#674 = VERTEX_POINT('',#675);
#675 = CARTESIAN_POINT('',(0.,-188.8384990395,50.599123317543));
#676 = CIRCLE('',#677,4.5);
#677 = AXIS2_PLACEMENT_3D('',#678,#679,#680);
#678 = CARTESIAN_POINT('',(0.,-193.1851652578,51.763809020504));
#679 = DIRECTION('',(-1.,0.,-0.));
#680 = DIRECTION('',(0.,0.965925826289,-0.258819045103));
#681 = PLANE('',#682);
#682 = AXIS2_PLACEMENT_3D('',#683,#684,#685);
#683 = CARTESIAN_POINT('',(0.,-1.217616257148E-14,1.49633663495E-14));
#684 = DIRECTION('',(1.,0.,0.));
#685 = DIRECTION('',(-0.,0.,1.));
#686 = ADVANCED_FACE('',(#687),#706,.F.);
#687 = FACE_BOUND('',#688,.F.);
#688 = EDGE_LOOP('',(#689,#690,#698,#705));
#689 = ORIENTED_EDGE('',*,*,#57,.F.);
#690 = ORIENTED_EDGE('',*,*,#691,.F.);
#691 = EDGE_CURVE('',#692,#58,#694,.T.);
#692 = VERTEX_POINT('',#693);
#693 = CARTESIAN_POINT('',(0.,138.23937572197,-138.2393757219));
#694 = LINE('',#695,#696);
#695 = CARTESIAN_POINT('',(0.,138.23937572197,-138.2393757219));
#696 = VECTOR('',#697,1.);
#697 = DIRECTION('',(-1.,0.,0.));
#698 = ORIENTED_EDGE('',*,*,#699,.T.);
#699 = EDGE_CURVE('',#692,#692,#700,.T.);
#700 = CIRCLE('',#701,4.5);
#701 = AXIS2_PLACEMENT_3D('',#702,#703,#704);
#702 = CARTESIAN_POINT('',(0.,141.4213562373,-141.4213562373));
#703 = DIRECTION('',(-1.,0.,0.));
#704 = DIRECTION('',(0.,-0.707106781187,0.707106781187));
#705 = ORIENTED_EDGE('',*,*,#691,.T.);
#706 = CYLINDRICAL_SURFACE('',#707,4.5);
#707 = AXIS2_PLACEMENT_3D('',#708,#709,#710);
#708 = CARTESIAN_POINT('',(0.,141.4213562373,-141.4213562373));
#709 = DIRECTION('',(-1.,0.,0.));
#710 = DIRECTION('',(0.,-0.707106781187,0.707106781187));
#711 = ADVANCED_FACE('',(#712),#723,.F.);
#712 = FACE_BOUND('',#713,.F.);
#713 = EDGE_LOOP('',(#714,#715,#721,#722));
#714 = ORIENTED_EDGE('',*,*,#68,.F.);
#715 = ORIENTED_EDGE('',*,*,#716,.F.);
#716 = EDGE_CURVE('',#331,#69,#717,.T.);
#717 = LINE('',#718,#719);
#718 = CARTESIAN_POINT('',(0.,188.83849903951,-50.59912331754));
#719 = VECTOR('',#720,1.);
#720 = DIRECTION('',(-1.,0.,0.));
#721 = ORIENTED_EDGE('',*,*,#330,.T.);
#722 = ORIENTED_EDGE('',*,*,#716,.T.);
#723 = CYLINDRICAL_SURFACE('',#724,4.5);
#724 = AXIS2_PLACEMENT_3D('',#725,#726,#727);
#725 = CARTESIAN_POINT('',(0.,193.18516525781,-51.7638090205));
#726 = DIRECTION('',(-1.,0.,0.));
#727 = DIRECTION('',(0.,-0.965925826289,0.258819045103));
#728 = ADVANCED_FACE('',(#729),#740,.F.);
#729 = FACE_BOUND('',#730,.F.);
#730 = EDGE_LOOP('',(#731,#732,#738,#739));
#731 = ORIENTED_EDGE('',*,*,#79,.F.);
#732 = ORIENTED_EDGE('',*,*,#733,.F.);
#733 = EDGE_CURVE('',#342,#80,#734,.T.);
#734 = LINE('',#735,#736);
#735 = CARTESIAN_POINT('',(0.,169.30796643985,-97.75));
#736 = VECTOR('',#737,1.);
#737 = DIRECTION('',(-1.,0.,0.));
#738 = ORIENTED_EDGE('',*,*,#341,.T.);
#739 = ORIENTED_EDGE('',*,*,#733,.T.);
#740 = CYLINDRICAL_SURFACE('',#741,4.5);
#741 = AXIS2_PLACEMENT_3D('',#742,#743,#744);
#742 = CARTESIAN_POINT('',(0.,173.20508075688,-100.));
#743 = DIRECTION('',(-1.,0.,0.));
#744 = DIRECTION('',(0.,-0.866025403784,0.5));
#745 = ADVANCED_FACE('',(#746),#757,.F.);
#746 = FACE_BOUND('',#747,.F.);
#747 = EDGE_LOOP('',(#748,#749,#755,#756));
#748 = ORIENTED_EDGE('',*,*,#90,.F.);
#749 = ORIENTED_EDGE('',*,*,#750,.F.);
#750 = EDGE_CURVE('',#353,#91,#751,.T.);
#751 = LINE('',#752,#753);
#752 = CARTESIAN_POINT('',(0.,97.75,-169.3079664398));
#753 = VECTOR('',#754,1.);
#754 = DIRECTION('',(-1.,0.,0.));
#755 = ORIENTED_EDGE('',*,*,#352,.T.);
#756 = ORIENTED_EDGE('',*,*,#750,.T.);
#757 = CYLINDRICAL_SURFACE('',#758,4.5);
#758 = AXIS2_PLACEMENT_3D('',#759,#760,#761);
#759 = CARTESIAN_POINT('',(0.,100.,-173.2050807568));
#760 = DIRECTION('',(-1.,0.,0.));
#761 = DIRECTION('',(0.,-0.5,0.866025403784));
#762 = ADVANCED_FACE('',(#763),#774,.F.);
#763 = FACE_BOUND('',#764,.F.);
#764 = EDGE_LOOP('',(#765,#766,#772,#773));
#765 = ORIENTED_EDGE('',*,*,#101,.F.);
#766 = ORIENTED_EDGE('',*,*,#767,.F.);
#767 = EDGE_CURVE('',#364,#102,#768,.T.);
#768 = LINE('',#769,#770);
#769 = CARTESIAN_POINT('',(0.,50.599123317543,-188.8384990395));
#770 = VECTOR('',#771,1.);
#771 = DIRECTION('',(-1.,0.,0.));
#772 = ORIENTED_EDGE('',*,*,#363,.T.);
#773 = ORIENTED_EDGE('',*,*,#767,.T.);
#774 = CYLINDRICAL_SURFACE('',#775,4.5);
#775 = AXIS2_PLACEMENT_3D('',#776,#777,#778);
#776 = CARTESIAN_POINT('',(0.,51.763809020504,-193.1851652578));
#777 = DIRECTION('',(-1.,0.,0.));
#778 = DIRECTION('',(0.,-0.258819045103,0.965925826289));
#779 = ADVANCED_FACE('',(#780),#791,.F.);
#780 = FACE_BOUND('',#781,.F.);
#781 = EDGE_LOOP('',(#782,#783,#789,#790));
#782 = ORIENTED_EDGE('',*,*,#112,.F.);
#783 = ORIENTED_EDGE('',*,*,#784,.F.);
#784 = EDGE_CURVE('',#375,#113,#785,.T.);
#785 = LINE('',#786,#787);
#786 = CARTESIAN_POINT('',(0.,195.5,-1.102182119233E-15));
#787 = VECTOR('',#788,1.);
#788 = DIRECTION('',(-1.,0.,0.));
#789 = ORIENTED_EDGE('',*,*,#374,.T.);
#790 = ORIENTED_EDGE('',*,*,#784,.T.);
#791 = CYLINDRICAL_SURFACE('',#792,4.5);
#792 = AXIS2_PLACEMENT_3D('',#793,#794,#795);
#793 = CARTESIAN_POINT('',(0.,200.,0.));
#794 = DIRECTION('',(-1.,0.,0.));
#795 = DIRECTION('',(0.,-1.,0.));
#796 = ADVANCED_FACE('',(#797),#808,.F.);
#797 = FACE_BOUND('',#798,.F.);
#798 = EDGE_LOOP('',(#799,#800,#806,#807));
#799 = ORIENTED_EDGE('',*,*,#123,.F.);
#800 = ORIENTED_EDGE('',*,*,#801,.F.);
#801 = EDGE_CURVE('',#386,#124,#802,.T.);
#802 = LINE('',#803,#804);
#803 = CARTESIAN_POINT('',(0.,188.83849903951,50.599123317543));
#804 = VECTOR('',#805,1.);
#805 = DIRECTION('',(-1.,0.,0.));
#806 = ORIENTED_EDGE('',*,*,#385,.T.);
#807 = ORIENTED_EDGE('',*,*,#801,.T.);
#808 = CYLINDRICAL_SURFACE('',#809,4.5);
#809 = AXIS2_PLACEMENT_3D('',#810,#811,#812);
#810 = CARTESIAN_POINT('',(0.,193.18516525781,51.763809020504));
#811 = DIRECTION('',(-1.,0.,0.));
#812 = DIRECTION('',(-0.,-0.965925826289,-0.258819045103));
#813 = ADVANCED_FACE('',(#814),#825,.F.);
#814 = FACE_BOUND('',#815,.F.);
#815 = EDGE_LOOP('',(#816,#817,#823,#824));
#816 = ORIENTED_EDGE('',*,*,#134,.F.);
#817 = ORIENTED_EDGE('',*,*,#818,.F.);
#818 = EDGE_CURVE('',#397,#135,#819,.T.);
#819 = LINE('',#820,#821);
#820 = CARTESIAN_POINT('',(0.,169.30796643985,97.75));
#821 = VECTOR('',#822,1.);
#822 = DIRECTION('',(-1.,0.,0.));
#823 = ORIENTED_EDGE('',*,*,#396,.T.);
#824 = ORIENTED_EDGE('',*,*,#818,.T.);
#825 = CYLINDRICAL_SURFACE('',#826,4.5);
#826 = AXIS2_PLACEMENT_3D('',#827,#828,#829);
#827 = CARTESIAN_POINT('',(0.,173.20508075688,100.));
#828 = DIRECTION('',(-1.,0.,0.));
#829 = DIRECTION('',(-0.,-0.866025403784,-0.5));
#830 = ADVANCED_FACE('',(#831),#850,.F.);
#831 = FACE_BOUND('',#832,.F.);
#832 = EDGE_LOOP('',(#833,#834,#842,#849));
#833 = ORIENTED_EDGE('',*,*,#145,.F.);
#834 = ORIENTED_EDGE('',*,*,#835,.F.);
#835 = EDGE_CURVE('',#836,#146,#838,.T.);
#836 = VERTEX_POINT('',#837);
#837 = CARTESIAN_POINT('',(0.,138.23937572197,138.23937572197));
#838 = LINE('',#839,#840);
#839 = CARTESIAN_POINT('',(0.,138.23937572197,138.23937572197));
#840 = VECTOR('',#841,1.);
#841 = DIRECTION('',(-1.,0.,0.));
#842 = ORIENTED_EDGE('',*,*,#843,.T.);
#843 = EDGE_CURVE('',#836,#836,#844,.T.);
#844 = CIRCLE('',#845,4.5);
#845 = AXIS2_PLACEMENT_3D('',#846,#847,#848);
#846 = CARTESIAN_POINT('',(0.,141.42135623731,141.4213562373));
#847 = DIRECTION('',(-1.,-0.,0.));
#848 = DIRECTION('',(0.,-0.707106781187,-0.707106781187));
#849 = ORIENTED_EDGE('',*,*,#835,.T.);
#850 = CYLINDRICAL_SURFACE('',#851,4.5);
#851 = AXIS2_PLACEMENT_3D('',#852,#853,#854);
#852 = CARTESIAN_POINT('',(0.,141.42135623731,141.4213562373));
#853 = DIRECTION('',(-1.,0.,0.));
#854 = DIRECTION('',(-0.,-0.707106781187,-0.707106781187));
#855 = ADVANCED_FACE('',(#856),#867,.F.);
#856 = FACE_BOUND('',#857,.F.);
#857 = EDGE_LOOP('',(#858,#859,#865,#866));
#858 = ORIENTED_EDGE('',*,*,#156,.F.);
#859 = ORIENTED_EDGE('',*,*,#860,.F.);
#860 = EDGE_CURVE('',#408,#157,#861,.T.);
#861 = LINE('',#862,#863);
#862 = CARTESIAN_POINT('',(0.,97.75,169.30796643985));
#863 = VECTOR('',#864,1.);
#864 = DIRECTION('',(-1.,0.,0.));
#865 = ORIENTED_EDGE('',*,*,#407,.T.);
#866 = ORIENTED_EDGE('',*,*,#860,.T.);
#867 = CYLINDRICAL_SURFACE('',#868,4.5);
#868 = AXIS2_PLACEMENT_3D('',#869,#870,#871);
#869 = CARTESIAN_POINT('',(0.,100.,173.20508075688));
#870 = DIRECTION('',(-1.,0.,0.));
#871 = DIRECTION('',(-0.,-0.5,-0.866025403784));
#872 = ADVANCED_FACE('',(#873),#884,.F.);
#873 = FACE_BOUND('',#874,.F.);
#874 = EDGE_LOOP('',(#875,#876,#882,#883));
#875 = ORIENTED_EDGE('',*,*,#167,.F.);
#876 = ORIENTED_EDGE('',*,*,#877,.F.);
#877 = EDGE_CURVE('',#419,#168,#878,.T.);
#878 = LINE('',#879,#880);
#879 = CARTESIAN_POINT('',(0.,50.599123317543,188.83849903951));
#880 = VECTOR('',#881,1.);
#881 = DIRECTION('',(-1.,0.,0.));
#882 = ORIENTED_EDGE('',*,*,#418,.T.);
#883 = ORIENTED_EDGE('',*,*,#877,.T.);
#884 = CYLINDRICAL_SURFACE('',#885,4.5);
#885 = AXIS2_PLACEMENT_3D('',#886,#887,#888);
#886 = CARTESIAN_POINT('',(0.,51.763809020504,193.18516525781));
#887 = DIRECTION('',(-1.,0.,0.));
#888 = DIRECTION('',(-0.,-0.258819045103,-0.965925826289));
#889 = ADVANCED_FACE('',(#890),#901,.F.);
#890 = FACE_BOUND('',#891,.F.);
#891 = EDGE_LOOP('',(#892,#893,#899,#900));
#892 = ORIENTED_EDGE('',*,*,#178,.F.);
#893 = ORIENTED_EDGE('',*,*,#894,.F.);
#894 = EDGE_CURVE('',#430,#179,#895,.T.);
#895 = LINE('',#896,#897);
#896 = CARTESIAN_POINT('',(0.,1.284904974962E-14,195.5));
#897 = VECTOR('',#898,1.);
#898 = DIRECTION('',(-1.,0.,0.));
#899 = ORIENTED_EDGE('',*,*,#429,.T.);
#900 = ORIENTED_EDGE('',*,*,#894,.T.);
#901 = CYLINDRICAL_SURFACE('',#902,4.5);
#902 = AXIS2_PLACEMENT_3D('',#903,#904,#905);
#903 = CARTESIAN_POINT('',(0.,1.224646799147E-14,200.));
#904 = DIRECTION('',(-1.,0.,0.));
#905 = DIRECTION('',(-0.,-1.110223024625E-16,-1.));
#906 = ADVANCED_FACE('',(#907),#918,.F.);
#907 = FACE_BOUND('',#908,.F.);
#908 = EDGE_LOOP('',(#909,#910,#916,#917));
#909 = ORIENTED_EDGE('',*,*,#189,.F.);
#910 = ORIENTED_EDGE('',*,*,#911,.F.);
#911 = EDGE_CURVE('',#441,#190,#912,.T.);
#912 = LINE('',#913,#914);
#913 = CARTESIAN_POINT('',(0.,-3.684238537149E-14,-195.5));
#914 = VECTOR('',#915,1.);
#915 = DIRECTION('',(-1.,0.,-0.));
#916 = ORIENTED_EDGE('',*,*,#440,.T.);
#917 = ORIENTED_EDGE('',*,*,#911,.T.);
#918 = CYLINDRICAL_SURFACE('',#919,4.5);
#919 = AXIS2_PLACEMENT_3D('',#920,#921,#922);
#920 = CARTESIAN_POINT('',(0.,-3.673940397442E-14,-200.));
#921 = DIRECTION('',(-1.,0.,-0.));
#922 = DIRECTION('',(0.,2.22044604925E-16,1.));
#923 = ADVANCED_FACE('',(#924),#935,.F.);
#924 = FACE_BOUND('',#925,.F.);
#925 = EDGE_LOOP('',(#926,#927,#933,#934));
#926 = ORIENTED_EDGE('',*,*,#200,.F.);
#927 = ORIENTED_EDGE('',*,*,#928,.F.);
#928 = EDGE_CURVE('',#452,#201,#929,.T.);
#929 = LINE('',#930,#931);
#930 = CARTESIAN_POINT('',(0.,-50.59912331754,-188.8384990395));
#931 = VECTOR('',#932,1.);
#932 = DIRECTION('',(-1.,0.,-0.));
#933 = ORIENTED_EDGE('',*,*,#451,.T.);
#934 = ORIENTED_EDGE('',*,*,#928,.T.);
#935 = CYLINDRICAL_SURFACE('',#936,4.5);
#936 = AXIS2_PLACEMENT_3D('',#937,#938,#939);
#937 = CARTESIAN_POINT('',(0.,-51.7638090205,-193.1851652578));
#938 = DIRECTION('',(-1.,0.,-0.));
#939 = DIRECTION('',(0.,0.258819045103,0.965925826289));
#940 = ADVANCED_FACE('',(#941),#952,.F.);
#941 = FACE_BOUND('',#942,.F.);
#942 = EDGE_LOOP('',(#943,#944,#950,#951));
#943 = ORIENTED_EDGE('',*,*,#211,.F.);
#944 = ORIENTED_EDGE('',*,*,#945,.F.);
#945 = EDGE_CURVE('',#463,#212,#946,.T.);
#946 = LINE('',#947,#948);
#947 = CARTESIAN_POINT('',(0.,-97.75,-169.3079664398));
#948 = VECTOR('',#949,1.);
#949 = DIRECTION('',(-1.,0.,-0.));
#950 = ORIENTED_EDGE('',*,*,#462,.T.);
#951 = ORIENTED_EDGE('',*,*,#945,.T.);
#952 = CYLINDRICAL_SURFACE('',#953,4.5);
#953 = AXIS2_PLACEMENT_3D('',#954,#955,#956);
#954 = CARTESIAN_POINT('',(0.,-100.,-173.2050807568));
#955 = DIRECTION('',(-1.,0.,-0.));
#956 = DIRECTION('',(0.,0.5,0.866025403784));
#957 = ADVANCED_FACE('',(#958),#977,.F.);
#958 = FACE_BOUND('',#959,.F.);
#959 = EDGE_LOOP('',(#960,#961,#969,#976));
#960 = ORIENTED_EDGE('',*,*,#222,.F.);
#961 = ORIENTED_EDGE('',*,*,#962,.F.);
#962 = EDGE_CURVE('',#963,#223,#965,.T.);
#963 = VERTEX_POINT('',#964);
#964 = CARTESIAN_POINT('',(0.,-138.2393757219,-138.2393757219));
#965 = LINE('',#966,#967);
#966 = CARTESIAN_POINT('',(0.,-138.2393757219,-138.2393757219));
#967 = VECTOR('',#968,1.);
#968 = DIRECTION('',(-1.,0.,-0.));
#969 = ORIENTED_EDGE('',*,*,#970,.T.);
#970 = EDGE_CURVE('',#963,#963,#971,.T.);
#971 = CIRCLE('',#972,4.5);
#972 = AXIS2_PLACEMENT_3D('',#973,#974,#975);
#973 = CARTESIAN_POINT('',(0.,-141.4213562373,-141.4213562373));
#974 = DIRECTION('',(-1.,0.,0.));
#975 = DIRECTION('',(0.,0.707106781187,0.707106781187));
#976 = ORIENTED_EDGE('',*,*,#962,.T.);
#977 = CYLINDRICAL_SURFACE('',#978,4.5);
#978 = AXIS2_PLACEMENT_3D('',#979,#980,#981);
#979 = CARTESIAN_POINT('',(0.,-141.4213562373,-141.4213562373));
#980 = DIRECTION('',(-1.,0.,-0.));
#981 = DIRECTION('',(0.,0.707106781187,0.707106781187));
#982 = ADVANCED_FACE('',(#983),#994,.F.);
#983 = FACE_BOUND('',#984,.F.);
#984 = EDGE_LOOP('',(#985,#986,#992,#993));
#985 = ORIENTED_EDGE('',*,*,#233,.F.);
#986 = ORIENTED_EDGE('',*,*,#987,.F.);
#987 = EDGE_CURVE('',#474,#234,#988,.T.);
#988 = LINE('',#989,#990);
#989 = CARTESIAN_POINT('',(0.,-169.3079664398,-97.75));
#990 = VECTOR('',#991,1.);
#991 = DIRECTION('',(-1.,0.,-0.));
#992 = ORIENTED_EDGE('',*,*,#473,.T.);
#993 = ORIENTED_EDGE('',*,*,#987,.T.);
#994 = CYLINDRICAL_SURFACE('',#995,4.5);
#995 = AXIS2_PLACEMENT_3D('',#996,#997,#998);
#996 = CARTESIAN_POINT('',(0.,-173.2050807568,-100.));
#997 = DIRECTION('',(-1.,0.,-0.));
#998 = DIRECTION('',(0.,0.866025403784,0.5));
#999 = ADVANCED_FACE('',(#1000),#1011,.F.);
#1000 = FACE_BOUND('',#1001,.F.);
#1001 = EDGE_LOOP('',(#1002,#1003,#1009,#1010));
#1002 = ORIENTED_EDGE('',*,*,#244,.F.);
#1003 = ORIENTED_EDGE('',*,*,#1004,.F.);
#1004 = EDGE_CURVE('',#485,#245,#1005,.T.);
#1005 = LINE('',#1006,#1007);
#1006 = CARTESIAN_POINT('',(0.,-188.8384990395,-50.59912331754));
#1007 = VECTOR('',#1008,1.);
#1008 = DIRECTION('',(-1.,0.,-0.));
#1009 = ORIENTED_EDGE('',*,*,#484,.T.);
#1010 = ORIENTED_EDGE('',*,*,#1004,.T.);
#1011 = CYLINDRICAL_SURFACE('',#1012,4.5);
#1012 = AXIS2_PLACEMENT_3D('',#1013,#1014,#1015);
#1013 = CARTESIAN_POINT('',(0.,-193.1851652578,-51.7638090205));
#1014 = DIRECTION('',(-1.,0.,-0.));
#1015 = DIRECTION('',(0.,0.965925826289,0.258819045103));
#1016 = ADVANCED_FACE('',(#1017),#1028,.F.);
#1017 = FACE_BOUND('',#1018,.F.);
#1018 = EDGE_LOOP('',(#1019,#1020,#1026,#1027));
#1019 = ORIENTED_EDGE('',*,*,#255,.F.);
#1020 = ORIENTED_EDGE('',*,*,#1021,.F.);
#1021 = EDGE_CURVE('',#630,#256,#1022,.T.);
#1022 = LINE('',#1023,#1024);
#1023 = CARTESIAN_POINT('',(0.,-50.59912331754,188.83849903951));
#1024 = VECTOR('',#1025,1.);
#1025 = DIRECTION('',(-1.,-0.,0.));
#1026 = ORIENTED_EDGE('',*,*,#629,.T.);
#1027 = ORIENTED_EDGE('',*,*,#1021,.T.);
#1028 = CYLINDRICAL_SURFACE('',#1029,4.5);
#1029 = AXIS2_PLACEMENT_3D('',#1030,#1031,#1032);
#1030 = CARTESIAN_POINT('',(0.,-51.7638090205,193.18516525781));
#1031 = DIRECTION('',(-1.,-0.,0.));
#1032 = DIRECTION('',(-0.,0.258819045103,-0.965925826289));
#1033 = ADVANCED_FACE('',(#1034),#1045,.F.);
#1034 = FACE_BOUND('',#1035,.F.);
#1035 = EDGE_LOOP('',(#1036,#1037,#1043,#1044));
#1036 = ORIENTED_EDGE('',*,*,#266,.F.);
#1037 = ORIENTED_EDGE('',*,*,#1038,.F.);
#1038 = EDGE_CURVE('',#641,#267,#1039,.T.);
#1039 = LINE('',#1040,#1041);
#1040 = CARTESIAN_POINT('',(0.,-97.75,169.30796643985));
#1041 = VECTOR('',#1042,1.);
#1042 = DIRECTION('',(-1.,-0.,0.));
#1043 = ORIENTED_EDGE('',*,*,#640,.T.);
#1044 = ORIENTED_EDGE('',*,*,#1038,.T.);
#1045 = CYLINDRICAL_SURFACE('',#1046,4.5);
#1046 = AXIS2_PLACEMENT_3D('',#1047,#1048,#1049);
#1047 = CARTESIAN_POINT('',(0.,-100.,173.20508075688));
#1048 = DIRECTION('',(-1.,-0.,0.));
#1049 = DIRECTION('',(-0.,0.5,-0.866025403784));
#1050 = ADVANCED_FACE('',(#1051),#1062,.F.);
#1051 = FACE_BOUND('',#1052,.F.);
#1052 = EDGE_LOOP('',(#1053,#1054,#1060,#1061));
#1053 = ORIENTED_EDGE('',*,*,#277,.F.);
#1054 = ORIENTED_EDGE('',*,*,#1055,.F.);
#1055 = EDGE_CURVE('',#652,#278,#1056,.T.);
#1056 = LINE('',#1057,#1058);
#1057 = CARTESIAN_POINT('',(0.,-195.5,2.504402704256E-14));
#1058 = VECTOR('',#1059,1.);
#1059 = DIRECTION('',(-1.,-0.,0.));
#1060 = ORIENTED_EDGE('',*,*,#651,.T.);
#1061 = ORIENTED_EDGE('',*,*,#1055,.T.);
#1062 = CYLINDRICAL_SURFACE('',#1063,4.5);
#1063 = AXIS2_PLACEMENT_3D('',#1064,#1065,#1066);
#1064 = CARTESIAN_POINT('',(0.,-200.,2.449293598295E-14));
#1065 = DIRECTION('',(-1.,-0.,0.));
#1066 = DIRECTION('',(-0.,1.,-1.224646799147E-16));
#1067 = ADVANCED_FACE('',(#1068),#1079,.F.);
#1068 = FACE_BOUND('',#1069,.F.);
#1069 = EDGE_LOOP('',(#1070,#1071,#1077,#1078));
#1070 = ORIENTED_EDGE('',*,*,#288,.F.);
#1071 = ORIENTED_EDGE('',*,*,#1072,.F.);
#1072 = EDGE_CURVE('',#663,#289,#1073,.T.);
#1073 = LINE('',#1074,#1075);
#1074 = CARTESIAN_POINT('',(0.,-169.3079664398,97.75));
#1075 = VECTOR('',#1076,1.);
#1076 = DIRECTION('',(-1.,-0.,0.));
#1077 = ORIENTED_EDGE('',*,*,#662,.T.);
#1078 = ORIENTED_EDGE('',*,*,#1072,.T.);
#1079 = CYLINDRICAL_SURFACE('',#1080,4.5);
#1080 = AXIS2_PLACEMENT_3D('',#1081,#1082,#1083);
#1081 = CARTESIAN_POINT('',(0.,-173.2050807568,100.));
#1082 = DIRECTION('',(-1.,-0.,0.));
#1083 = DIRECTION('',(-0.,0.866025403784,-0.5));
#1084 = ADVANCED_FACE('',(#1085),#1096,.F.);
#1085 = FACE_BOUND('',#1086,.F.);
#1086 = EDGE_LOOP('',(#1087,#1088,#1094,#1095));
#1087 = ORIENTED_EDGE('',*,*,#299,.F.);
#1088 = ORIENTED_EDGE('',*,*,#1089,.F.);
#1089 = EDGE_CURVE('',#674,#300,#1090,.T.);
#1090 = LINE('',#1091,#1092);
#1091 = CARTESIAN_POINT('',(0.,-188.8384990395,50.599123317543));
#1092 = VECTOR('',#1093,1.);
#1093 = DIRECTION('',(-1.,-0.,0.));
#1094 = ORIENTED_EDGE('',*,*,#673,.T.);
#1095 = ORIENTED_EDGE('',*,*,#1089,.T.);
#1096 = CYLINDRICAL_SURFACE('',#1097,4.5);
#1097 = AXIS2_PLACEMENT_3D('',#1098,#1099,#1100);
#1098 = CARTESIAN_POINT('',(0.,-193.1851652578,51.763809020504));
#1099 = DIRECTION('',(-1.,-0.,0.));
#1100 = DIRECTION('',(-0.,0.965925826289,-0.258819045103));
#1101 = ADVANCED_FACE('',(#1102),#1121,.F.);
#1102 = FACE_BOUND('',#1103,.F.);
#1103 = EDGE_LOOP('',(#1104,#1105,#1113,#1120));
#1104 = ORIENTED_EDGE('',*,*,#310,.F.);
#1105 = ORIENTED_EDGE('',*,*,#1106,.F.);
#1106 = EDGE_CURVE('',#1107,#311,#1109,.T.);
#1107 = VERTEX_POINT('',#1108);
#1108 = CARTESIAN_POINT('',(0.,-138.2393757219,138.23937572197));
#1109 = LINE('',#1110,#1111);
#1110 = CARTESIAN_POINT('',(0.,-138.2393757219,138.23937572197));
#1111 = VECTOR('',#1112,1.);
#1112 = DIRECTION('',(-1.,-0.,0.));
#1113 = ORIENTED_EDGE('',*,*,#1114,.T.);
#1114 = EDGE_CURVE('',#1107,#1107,#1115,.T.);
#1115 = CIRCLE('',#1116,4.5);
#1116 = AXIS2_PLACEMENT_3D('',#1117,#1118,#1119);
#1117 = CARTESIAN_POINT('',(0.,-141.4213562373,141.42135623731));
#1118 = DIRECTION('',(-1.,0.,-0.));
#1119 = DIRECTION('',(0.,0.707106781187,-0.707106781187));
#1120 = ORIENTED_EDGE('',*,*,#1106,.T.);
#1121 = CYLINDRICAL_SURFACE('',#1122,4.5);
#1122 = AXIS2_PLACEMENT_3D('',#1123,#1124,#1125);
#1123 = CARTESIAN_POINT('',(0.,-141.4213562373,141.42135623731));
#1124 = DIRECTION('',(-1.,-0.,0.));
#1125 = DIRECTION('',(-0.,0.707106781187,-0.707106781187));
#1126 = ADVANCED_FACE('',(#1127),#1152,.F.);
#1127 = FACE_BOUND('',#1128,.F.);
#1128 = EDGE_LOOP('',(#1129,#1130,#1138,#1146));
#1129 = ORIENTED_EDGE('',*,*,#495,.F.);
#1130 = ORIENTED_EDGE('',*,*,#1131,.F.);
#1131 = EDGE_CURVE('',#1132,#496,#1134,.T.);
#1132 = VERTEX_POINT('',#1133);
#1133 = CARTESIAN_POINT('',(15.,110.22377108305,101.73848970881));
#1134 = LINE('',#1135,#1136);
#1135 = CARTESIAN_POINT('',(0.,110.22377108305,101.73848970881));
#1136 = VECTOR('',#1137,1.);
#1137 = DIRECTION('',(-1.,-0.,-0.));
#1138 = ORIENTED_EDGE('',*,*,#1139,.T.);
#1139 = EDGE_CURVE('',#1132,#1140,#1142,.T.);
#1140 = VERTEX_POINT('',#1141);
#1141 = CARTESIAN_POINT('',(15.,159.80613254816,151.32085117392));
#1142 = LINE('',#1143,#1144);
#1143 = CARTESIAN_POINT('',(15.,39.597979746447,31.112698372208));
#1144 = VECTOR('',#1145,1.);
#1145 = DIRECTION('',(0.,0.707106781187,0.707106781187));
#1146 = ORIENTED_EDGE('',*,*,#1147,.F.);
#1147 = EDGE_CURVE('',#498,#1140,#1148,.T.);
#1148 = LINE('',#1149,#1150);
#1149 = CARTESIAN_POINT('',(0.,159.80613254816,151.32085117392));
#1150 = VECTOR('',#1151,1.);
#1151 = DIRECTION('',(1.,0.,0.));
#1152 = PLANE('',#1153);
#1153 = AXIS2_PLACEMENT_3D('',#1154,#1155,#1156);
#1154 = CARTESIAN_POINT('',(0.,39.597979746447,31.112698372208));
#1155 = DIRECTION('',(0.,-0.707106781187,0.707106781187));
#1156 = DIRECTION('',(1.,0.,0.));
#1157 = ADVANCED_FACE('',(#1158),#1176,.T.);
#1158 = FACE_BOUND('',#1159,.T.);
#1159 = EDGE_LOOP('',(#1160,#1161,#1162,#1170));
#1160 = ORIENTED_EDGE('',*,*,#1147,.F.);
#1161 = ORIENTED_EDGE('',*,*,#621,.T.);
#1162 = ORIENTED_EDGE('',*,*,#1163,.T.);
#1163 = EDGE_CURVE('',#614,#1164,#1166,.T.);
#1164 = VERTEX_POINT('',#1165);
#1165 = CARTESIAN_POINT('',(15.,151.32085117392,159.80613254816));
#1166 = LINE('',#1167,#1168);
#1167 = CARTESIAN_POINT('',(0.,151.32085117392,159.80613254816));
#1168 = VECTOR('',#1169,1.);
#1169 = DIRECTION('',(1.,0.,0.));
#1170 = ORIENTED_EDGE('',*,*,#1171,.F.);
#1171 = EDGE_CURVE('',#1140,#1164,#1172,.T.);
#1172 = LINE('',#1173,#1174);
#1173 = CARTESIAN_POINT('',(15.,159.80613254816,151.32085117392));
#1174 = VECTOR('',#1175,1.);
#1175 = DIRECTION('',(0.,-0.707106781187,0.707106781187));
#1176 = PLANE('',#1177);
#1177 = AXIS2_PLACEMENT_3D('',#1178,#1179,#1180);
#1178 = CARTESIAN_POINT('',(0.,159.80613254816,151.32085117392));
#1179 = DIRECTION('',(0.,0.707106781187,0.707106781187));
#1180 = DIRECTION('',(0.,-0.707106781187,0.707106781187));
#1181 = ADVANCED_FACE('',(#1182),#1200,.T.);
#1182 = FACE_BOUND('',#1183,.T.);
#1183 = EDGE_LOOP('',(#1184,#1185,#1193,#1199));
#1184 = ORIENTED_EDGE('',*,*,#613,.F.);
#1185 = ORIENTED_EDGE('',*,*,#1186,.F.);
#1186 = EDGE_CURVE('',#1187,#605,#1189,.T.);
#1187 = VERTEX_POINT('',#1188);
#1188 = CARTESIAN_POINT('',(15.,101.73848970881,110.22377108305));
#1189 = LINE('',#1190,#1191);
#1190 = CARTESIAN_POINT('',(0.,101.73848970881,110.22377108305));
#1191 = VECTOR('',#1192,1.);
#1192 = DIRECTION('',(-1.,-0.,-0.));
#1193 = ORIENTED_EDGE('',*,*,#1194,.T.);
#1194 = EDGE_CURVE('',#1187,#1164,#1195,.T.);
#1195 = LINE('',#1196,#1197);
#1196 = CARTESIAN_POINT('',(15.,31.112698372208,39.597979746447));
#1197 = VECTOR('',#1198,1.);
#1198 = DIRECTION('',(0.,0.707106781187,0.707106781187));
#1199 = ORIENTED_EDGE('',*,*,#1163,.F.);
#1200 = PLANE('',#1201);
#1201 = AXIS2_PLACEMENT_3D('',#1202,#1203,#1204);
#1202 = CARTESIAN_POINT('',(0.,31.112698372208,39.597979746447));
#1203 = DIRECTION('',(0.,-0.707106781187,0.707106781187));
#1204 = DIRECTION('',(1.,0.,0.));
#1205 = ADVANCED_FACE('',(#1206),#1225,.T.);
#1206 = FACE_BOUND('',#1207,.T.);
#1207 = EDGE_LOOP('',(#1208,#1217,#1218,#1219));
#1208 = ORIENTED_EDGE('',*,*,#1209,.T.);
#1209 = EDGE_CURVE('',#1210,#1187,#1212,.T.);
#1210 = VERTEX_POINT('',#1211);
#1211 = CARTESIAN_POINT('',(15.,-101.7384897088,110.22377108305));
#1212 = CIRCLE('',#1213,150.);
#1213 = AXIS2_PLACEMENT_3D('',#1214,#1215,#1216);
#1214 = CARTESIAN_POINT('',(15.,0.,0.));
#1215 = DIRECTION('',(-1.,0.,0.));
#1216 = DIRECTION('',(0.,0.734825140554,0.678256598059));
#1217 = ORIENTED_EDGE('',*,*,#1186,.T.);
#1218 = ORIENTED_EDGE('',*,*,#604,.F.);
#1219 = ORIENTED_EDGE('',*,*,#1220,.F.);
#1220 = EDGE_CURVE('',#1210,#597,#1221,.T.);
#1221 = LINE('',#1222,#1223);
#1222 = CARTESIAN_POINT('',(0.,-101.7384897088,110.22377108305));
#1223 = VECTOR('',#1224,1.);
#1224 = DIRECTION('',(-1.,-0.,-0.));
#1225 = CYLINDRICAL_SURFACE('',#1226,150.);
#1226 = AXIS2_PLACEMENT_3D('',#1227,#1228,#1229);
#1227 = CARTESIAN_POINT('',(0.,0.,0.));
#1228 = DIRECTION('',(-1.,-0.,-0.));
#1229 = DIRECTION('',(0.,1.,0.));
#1230 = ADVANCED_FACE('',(#1231),#1249,.F.);
#1231 = FACE_BOUND('',#1232,.F.);
#1232 = EDGE_LOOP('',(#1233,#1234,#1235,#1243));
#1233 = ORIENTED_EDGE('',*,*,#596,.F.);
#1234 = ORIENTED_EDGE('',*,*,#1220,.F.);
#1235 = ORIENTED_EDGE('',*,*,#1236,.T.);
#1236 = EDGE_CURVE('',#1210,#1237,#1239,.T.);
#1237 = VERTEX_POINT('',#1238);
#1238 = CARTESIAN_POINT('',(15.,-151.3208511739,159.80613254816));
#1239 = LINE('',#1240,#1241);
#1240 = CARTESIAN_POINT('',(15.,-31.1126983722,39.597979746447));
#1241 = VECTOR('',#1242,1.);
#1242 = DIRECTION('',(0.,-0.707106781187,0.707106781187));
#1243 = ORIENTED_EDGE('',*,*,#1244,.F.);
#1244 = EDGE_CURVE('',#589,#1237,#1245,.T.);
#1245 = LINE('',#1246,#1247);
#1246 = CARTESIAN_POINT('',(0.,-151.3208511739,159.80613254816));
#1247 = VECTOR('',#1248,1.);
#1248 = DIRECTION('',(1.,0.,0.));
#1249 = PLANE('',#1250);
#1250 = AXIS2_PLACEMENT_3D('',#1251,#1252,#1253);
#1251 = CARTESIAN_POINT('',(0.,-31.1126983722,39.597979746447));
#1252 = DIRECTION('',(0.,-0.707106781187,-0.707106781187));
#1253 = DIRECTION('',(1.,0.,0.));
#1254 = ADVANCED_FACE('',(#1255),#1273,.T.);
#1255 = FACE_BOUND('',#1256,.T.);
#1256 = EDGE_LOOP('',(#1257,#1258,#1259,#1267));
#1257 = ORIENTED_EDGE('',*,*,#1244,.F.);
#1258 = ORIENTED_EDGE('',*,*,#588,.T.);
#1259 = ORIENTED_EDGE('',*,*,#1260,.T.);
#1260 = EDGE_CURVE('',#581,#1261,#1263,.T.);
#1261 = VERTEX_POINT('',#1262);
#1262 = CARTESIAN_POINT('',(15.,-159.8061325481,151.32085117392));
#1263 = LINE('',#1264,#1265);
#1264 = CARTESIAN_POINT('',(0.,-159.8061325481,151.32085117392));
#1265 = VECTOR('',#1266,1.);
#1266 = DIRECTION('',(1.,0.,0.));
#1267 = ORIENTED_EDGE('',*,*,#1268,.F.);
#1268 = EDGE_CURVE('',#1237,#1261,#1269,.T.);
#1269 = LINE('',#1270,#1271);
#1270 = CARTESIAN_POINT('',(15.,-151.3208511739,159.80613254816));
#1271 = VECTOR('',#1272,1.);
#1272 = DIRECTION('',(0.,-0.707106781187,-0.707106781187));
#1273 = PLANE('',#1274);
#1274 = AXIS2_PLACEMENT_3D('',#1275,#1276,#1277);
#1275 = CARTESIAN_POINT('',(0.,-151.3208511739,159.80613254816));
#1276 = DIRECTION('',(0.,-0.707106781187,0.707106781187));
#1277 = DIRECTION('',(0.,-0.707106781187,-0.707106781187));
#1278 = ADVANCED_FACE('',(#1279),#1297,.T.);
#1279 = FACE_BOUND('',#1280,.T.);
#1280 = EDGE_LOOP('',(#1281,#1282,#1290,#1296));
#1281 = ORIENTED_EDGE('',*,*,#580,.F.);
#1282 = ORIENTED_EDGE('',*,*,#1283,.F.);
#1283 = EDGE_CURVE('',#1284,#572,#1286,.T.);
#1284 = VERTEX_POINT('',#1285);
#1285 = CARTESIAN_POINT('',(15.,-110.223771083,101.73848970881));
#1286 = LINE('',#1287,#1288);
#1287 = CARTESIAN_POINT('',(0.,-110.223771083,101.73848970881));
#1288 = VECTOR('',#1289,1.);
#1289 = DIRECTION('',(-1.,-0.,-0.));
#1290 = ORIENTED_EDGE('',*,*,#1291,.T.);
#1291 = EDGE_CURVE('',#1284,#1261,#1292,.T.);
#1292 = LINE('',#1293,#1294);
#1293 = CARTESIAN_POINT('',(15.,-39.59797974644,31.112698372208));
#1294 = VECTOR('',#1295,1.);
#1295 = DIRECTION('',(0.,-0.707106781187,0.707106781187));
#1296 = ORIENTED_EDGE('',*,*,#1260,.F.);
#1297 = PLANE('',#1298);
#1298 = AXIS2_PLACEMENT_3D('',#1299,#1300,#1301);
#1299 = CARTESIAN_POINT('',(0.,-39.59797974644,31.112698372208));
#1300 = DIRECTION('',(0.,-0.707106781187,-0.707106781187));
#1301 = DIRECTION('',(1.,0.,0.));
#1302 = ADVANCED_FACE('',(#1303),#1322,.T.);
#1303 = FACE_BOUND('',#1304,.T.);
#1304 = EDGE_LOOP('',(#1305,#1306,#1307,#1315));
#1305 = ORIENTED_EDGE('',*,*,#1283,.T.);
#1306 = ORIENTED_EDGE('',*,*,#571,.F.);
#1307 = ORIENTED_EDGE('',*,*,#1308,.F.);
#1308 = EDGE_CURVE('',#1309,#564,#1311,.T.);
#1309 = VERTEX_POINT('',#1310);
#1310 = CARTESIAN_POINT('',(15.,-110.223771083,-101.7384897088));
#1311 = LINE('',#1312,#1313);
#1312 = CARTESIAN_POINT('',(0.,-110.223771083,-101.7384897088));
#1313 = VECTOR('',#1314,1.);
#1314 = DIRECTION('',(-1.,-0.,-0.));
#1315 = ORIENTED_EDGE('',*,*,#1316,.T.);
#1316 = EDGE_CURVE('',#1309,#1284,#1317,.T.);
#1317 = CIRCLE('',#1318,150.);
#1318 = AXIS2_PLACEMENT_3D('',#1319,#1320,#1321);
#1319 = CARTESIAN_POINT('',(15.,0.,0.));
#1320 = DIRECTION('',(-1.,0.,0.));
#1321 = DIRECTION('',(0.,0.734825140554,0.678256598059));
#1322 = CYLINDRICAL_SURFACE('',#1323,150.);
#1323 = AXIS2_PLACEMENT_3D('',#1324,#1325,#1326);
#1324 = CARTESIAN_POINT('',(0.,0.,0.));
#1325 = DIRECTION('',(-1.,-0.,-0.));
#1326 = DIRECTION('',(0.,1.,0.));
#1327 = ADVANCED_FACE('',(#1328),#1346,.F.);
#1328 = FACE_BOUND('',#1329,.F.);
#1329 = EDGE_LOOP('',(#1330,#1331,#1332,#1340));
#1330 = ORIENTED_EDGE('',*,*,#563,.F.);
#1331 = ORIENTED_EDGE('',*,*,#1308,.F.);
#1332 = ORIENTED_EDGE('',*,*,#1333,.T.);
#1333 = EDGE_CURVE('',#1309,#1334,#1336,.T.);
#1334 = VERTEX_POINT('',#1335);
#1335 = CARTESIAN_POINT('',(15.,-159.8061325481,-151.3208511739));
#1336 = LINE('',#1337,#1338);
#1337 = CARTESIAN_POINT('',(15.,-39.59797974644,-31.1126983722));
#1338 = VECTOR('',#1339,1.);
#1339 = DIRECTION('',(0.,-0.707106781187,-0.707106781187));
#1340 = ORIENTED_EDGE('',*,*,#1341,.F.);
#1341 = EDGE_CURVE('',#556,#1334,#1342,.T.);
#1342 = LINE('',#1343,#1344);
#1343 = CARTESIAN_POINT('',(0.,-159.8061325481,-151.3208511739));
#1344 = VECTOR('',#1345,1.);
#1345 = DIRECTION('',(1.,0.,0.));
#1346 = PLANE('',#1347);
#1347 = AXIS2_PLACEMENT_3D('',#1348,#1349,#1350);
#1348 = CARTESIAN_POINT('',(0.,-39.59797974644,-31.1126983722));
#1349 = DIRECTION('',(0.,0.707106781187,-0.707106781187));
#1350 = DIRECTION('',(1.,0.,0.));
#1351 = ADVANCED_FACE('',(#1352),#1370,.T.);
#1352 = FACE_BOUND('',#1353,.T.);
#1353 = EDGE_LOOP('',(#1354,#1355,#1356,#1364));
#1354 = ORIENTED_EDGE('',*,*,#1341,.F.);
#1355 = ORIENTED_EDGE('',*,*,#555,.T.);
#1356 = ORIENTED_EDGE('',*,*,#1357,.T.);
#1357 = EDGE_CURVE('',#548,#1358,#1360,.T.);
#1358 = VERTEX_POINT('',#1359);
#1359 = CARTESIAN_POINT('',(15.,-151.3208511739,-159.8061325481));
#1360 = LINE('',#1361,#1362);
#1361 = CARTESIAN_POINT('',(0.,-151.3208511739,-159.8061325481));
#1362 = VECTOR('',#1363,1.);
#1363 = DIRECTION('',(1.,0.,0.));
#1364 = ORIENTED_EDGE('',*,*,#1365,.F.);
#1365 = EDGE_CURVE('',#1334,#1358,#1366,.T.);
#1366 = LINE('',#1367,#1368);
#1367 = CARTESIAN_POINT('',(15.,-159.8061325481,-151.3208511739));
#1368 = VECTOR('',#1369,1.);
#1369 = DIRECTION('',(0.,0.707106781187,-0.707106781187));
#1370 = PLANE('',#1371);
#1371 = AXIS2_PLACEMENT_3D('',#1372,#1373,#1374);
#1372 = CARTESIAN_POINT('',(0.,-159.8061325481,-151.3208511739));
#1373 = DIRECTION('',(0.,-0.707106781187,-0.707106781187));
#1374 = DIRECTION('',(0.,0.707106781187,-0.707106781187));
#1375 = ADVANCED_FACE('',(#1376),#1394,.T.);
#1376 = FACE_BOUND('',#1377,.T.);
#1377 = EDGE_LOOP('',(#1378,#1379,#1387,#1393));
#1378 = ORIENTED_EDGE('',*,*,#547,.F.);
#1379 = ORIENTED_EDGE('',*,*,#1380,.F.);
#1380 = EDGE_CURVE('',#1381,#539,#1383,.T.);
#1381 = VERTEX_POINT('',#1382);
#1382 = CARTESIAN_POINT('',(15.,-101.7384897088,-110.223771083));
#1383 = LINE('',#1384,#1385);
#1384 = CARTESIAN_POINT('',(0.,-101.7384897088,-110.223771083));
#1385 = VECTOR('',#1386,1.);
#1386 = DIRECTION('',(-1.,-0.,-0.));
#1387 = ORIENTED_EDGE('',*,*,#1388,.T.);
#1388 = EDGE_CURVE('',#1381,#1358,#1389,.T.);
#1389 = LINE('',#1390,#1391);
#1390 = CARTESIAN_POINT('',(15.,-31.1126983722,-39.59797974644));
#1391 = VECTOR('',#1392,1.);
#1392 = DIRECTION('',(0.,-0.707106781187,-0.707106781187));
#1393 = ORIENTED_EDGE('',*,*,#1357,.F.);
#1394 = PLANE('',#1395);
#1395 = AXIS2_PLACEMENT_3D('',#1396,#1397,#1398);
#1396 = CARTESIAN_POINT('',(0.,-31.1126983722,-39.59797974644));
#1397 = DIRECTION('',(0.,0.707106781187,-0.707106781187));
#1398 = DIRECTION('',(1.,0.,0.));
#1399 = ADVANCED_FACE('',(#1400),#1419,.T.);
#1400 = FACE_BOUND('',#1401,.T.);
#1401 = EDGE_LOOP('',(#1402,#1403,#1404,#1412));
#1402 = ORIENTED_EDGE('',*,*,#1380,.T.);
#1403 = ORIENTED_EDGE('',*,*,#538,.F.);
#1404 = ORIENTED_EDGE('',*,*,#1405,.F.);
#1405 = EDGE_CURVE('',#1406,#531,#1408,.T.);
#1406 = VERTEX_POINT('',#1407);
#1407 = CARTESIAN_POINT('',(15.,101.73848970881,-110.223771083));
#1408 = LINE('',#1409,#1410);
#1409 = CARTESIAN_POINT('',(0.,101.73848970881,-110.223771083));
#1410 = VECTOR('',#1411,1.);
#1411 = DIRECTION('',(-1.,-0.,-0.));
#1412 = ORIENTED_EDGE('',*,*,#1413,.T.);
#1413 = EDGE_CURVE('',#1406,#1381,#1414,.T.);
#1414 = CIRCLE('',#1415,150.);
#1415 = AXIS2_PLACEMENT_3D('',#1416,#1417,#1418);
#1416 = CARTESIAN_POINT('',(15.,0.,0.));
#1417 = DIRECTION('',(-1.,0.,0.));
#1418 = DIRECTION('',(0.,0.734825140554,0.678256598059));
#1419 = CYLINDRICAL_SURFACE('',#1420,150.);
#1420 = AXIS2_PLACEMENT_3D('',#1421,#1422,#1423);
#1421 = CARTESIAN_POINT('',(0.,0.,0.));
#1422 = DIRECTION('',(-1.,-0.,-0.));
#1423 = DIRECTION('',(0.,1.,0.));
#1424 = ADVANCED_FACE('',(#1425),#1443,.F.);
#1425 = FACE_BOUND('',#1426,.F.);
#1426 = EDGE_LOOP('',(#1427,#1428,#1429,#1437));
#1427 = ORIENTED_EDGE('',*,*,#530,.F.);
#1428 = ORIENTED_EDGE('',*,*,#1405,.F.);
#1429 = ORIENTED_EDGE('',*,*,#1430,.T.);
#1430 = EDGE_CURVE('',#1406,#1431,#1433,.T.);
#1431 = VERTEX_POINT('',#1432);
#1432 = CARTESIAN_POINT('',(15.,151.32085117392,-159.8061325481));
#1433 = LINE('',#1434,#1435);
#1434 = CARTESIAN_POINT('',(15.,31.112698372208,-39.59797974644));
#1435 = VECTOR('',#1436,1.);
#1436 = DIRECTION('',(0.,0.707106781187,-0.707106781187));
#1437 = ORIENTED_EDGE('',*,*,#1438,.F.);
#1438 = EDGE_CURVE('',#523,#1431,#1439,.T.);
#1439 = LINE('',#1440,#1441);
#1440 = CARTESIAN_POINT('',(0.,151.32085117392,-159.8061325481));
#1441 = VECTOR('',#1442,1.);
#1442 = DIRECTION('',(1.,0.,0.));
#1443 = PLANE('',#1444);
#1444 = AXIS2_PLACEMENT_3D('',#1445,#1446,#1447);
#1445 = CARTESIAN_POINT('',(0.,31.112698372208,-39.59797974644));
#1446 = DIRECTION('',(0.,0.707106781187,0.707106781187));
#1447 = DIRECTION('',(1.,0.,-0.));
#1448 = ADVANCED_FACE('',(#1449),#1467,.T.);
#1449 = FACE_BOUND('',#1450,.T.);
#1450 = EDGE_LOOP('',(#1451,#1452,#1453,#1461));
#1451 = ORIENTED_EDGE('',*,*,#1438,.F.);
#1452 = ORIENTED_EDGE('',*,*,#522,.T.);
#1453 = ORIENTED_EDGE('',*,*,#1454,.T.);
#1454 = EDGE_CURVE('',#515,#1455,#1457,.T.);
#1455 = VERTEX_POINT('',#1456);
#1456 = CARTESIAN_POINT('',(15.,159.80613254816,-151.3208511739));
#1457 = LINE('',#1458,#1459);
#1458 = CARTESIAN_POINT('',(0.,159.80613254816,-151.3208511739));
#1459 = VECTOR('',#1460,1.);
#1460 = DIRECTION('',(1.,0.,0.));
#1461 = ORIENTED_EDGE('',*,*,#1462,.F.);
#1462 = EDGE_CURVE('',#1431,#1455,#1463,.T.);
#1463 = LINE('',#1464,#1465);
#1464 = CARTESIAN_POINT('',(15.,151.32085117392,-159.8061325481));
#1465 = VECTOR('',#1466,1.);
#1466 = DIRECTION('',(0.,0.707106781187,0.707106781187));
#1467 = PLANE('',#1468);
#1468 = AXIS2_PLACEMENT_3D('',#1469,#1470,#1471);
#1469 = CARTESIAN_POINT('',(0.,151.32085117392,-159.8061325481));
#1470 = DIRECTION('',(0.,0.707106781187,-0.707106781187));
#1471 = DIRECTION('',(0.,0.707106781187,0.707106781187));
#1472 = ADVANCED_FACE('',(#1473),#1491,.T.);
#1473 = FACE_BOUND('',#1474,.T.);
#1474 = EDGE_LOOP('',(#1475,#1476,#1484,#1490));
#1475 = ORIENTED_EDGE('',*,*,#514,.F.);
#1476 = ORIENTED_EDGE('',*,*,#1477,.F.);
#1477 = EDGE_CURVE('',#1478,#506,#1480,.T.);
#1478 = VERTEX_POINT('',#1479);
#1479 = CARTESIAN_POINT('',(15.,110.22377108305,-101.7384897088));
#1480 = LINE('',#1481,#1482);
#1481 = CARTESIAN_POINT('',(0.,110.22377108305,-101.7384897088));
#1482 = VECTOR('',#1483,1.);
#1483 = DIRECTION('',(-1.,-0.,-0.));
#1484 = ORIENTED_EDGE('',*,*,#1485,.T.);
#1485 = EDGE_CURVE('',#1478,#1455,#1486,.T.);
#1486 = LINE('',#1487,#1488);
#1487 = CARTESIAN_POINT('',(15.,39.597979746447,-31.1126983722));
#1488 = VECTOR('',#1489,1.);
#1489 = DIRECTION('',(0.,0.707106781187,-0.707106781187));
#1490 = ORIENTED_EDGE('',*,*,#1454,.F.);
#1491 = PLANE('',#1492);
#1492 = AXIS2_PLACEMENT_3D('',#1493,#1494,#1495);
#1493 = CARTESIAN_POINT('',(0.,39.597979746447,-31.1126983722));
#1494 = DIRECTION('',(0.,0.707106781187,0.707106781187));
#1495 = DIRECTION('',(1.,0.,-0.));
#1496 = ADVANCED_FACE('',(#1497),#1509,.T.);
#1497 = FACE_BOUND('',#1498,.T.);
#1498 = EDGE_LOOP('',(#1499,#1500,#1501,#1502));
#1499 = ORIENTED_EDGE('',*,*,#1477,.T.);
#1500 = ORIENTED_EDGE('',*,*,#505,.F.);
#1501 = ORIENTED_EDGE('',*,*,#1131,.F.);
#1502 = ORIENTED_EDGE('',*,*,#1503,.T.);
#1503 = EDGE_CURVE('',#1132,#1478,#1504,.T.);
#1504 = CIRCLE('',#1505,150.);
#1505 = AXIS2_PLACEMENT_3D('',#1506,#1507,#1508);
#1506 = CARTESIAN_POINT('',(15.,0.,0.));
#1507 = DIRECTION('',(-1.,0.,0.));
#1508 = DIRECTION('',(0.,0.734825140554,0.678256598059));
#1509 = CYLINDRICAL_SURFACE('',#1510,150.);
#1510 = AXIS2_PLACEMENT_3D('',#1511,#1512,#1513);
#1511 = CARTESIAN_POINT('',(0.,0.,0.));
#1512 = DIRECTION('',(-1.,-0.,-0.));
#1513 = DIRECTION('',(0.,1.,0.));
#1514 = ADVANCED_FACE('',(#1515),#1518,.F.);
#1515 = FACE_BOUND('',#1516,.F.);
#1516 = EDGE_LOOP('',(#1517));
#1517 = ORIENTED_EDGE('',*,*,#699,.F.);
#1518 = PLANE('',#1519);
#1519 = AXIS2_PLACEMENT_3D('',#1520,#1521,#1522);
#1520 = CARTESIAN_POINT('',(0.,31.112698372208,-39.59797974644));
#1521 = DIRECTION('',(1.,0.,0.));
#1522 = DIRECTION('',(-0.,0.707106781187,0.707106781187));
#1523 = ADVANCED_FACE('',(#1524),#1527,.F.);
#1524 = FACE_BOUND('',#1525,.F.);
#1525 = EDGE_LOOP('',(#1526));
#1526 = ORIENTED_EDGE('',*,*,#843,.F.);
#1527 = PLANE('',#1528);
#1528 = AXIS2_PLACEMENT_3D('',#1529,#1530,#1531);
#1529 = CARTESIAN_POINT('',(0.,39.597979746447,31.112698372208));
#1530 = DIRECTION('',(1.,0.,0.));
#1531 = DIRECTION('',(0.,-0.707106781187,0.707106781187));
#1532 = ADVANCED_FACE('',(#1533),#1536,.F.);
#1533 = FACE_BOUND('',#1534,.F.);
#1534 = EDGE_LOOP('',(#1535));
#1535 = ORIENTED_EDGE('',*,*,#970,.F.);
#1536 = PLANE('',#1537);
#1537 = AXIS2_PLACEMENT_3D('',#1538,#1539,#1540);
#1538 = CARTESIAN_POINT('',(0.,-39.59797974644,-31.1126983722));
#1539 = DIRECTION('',(1.,0.,0.));
#1540 = DIRECTION('',(0.,0.707106781187,-0.707106781187));
#1541 = ADVANCED_FACE('',(#1542),#1545,.F.);
#1542 = FACE_BOUND('',#1543,.F.);
#1543 = EDGE_LOOP('',(#1544));
#1544 = ORIENTED_EDGE('',*,*,#1114,.F.);
#1545 = PLANE('',#1546);
#1546 = AXIS2_PLACEMENT_3D('',#1547,#1548,#1549);
#1547 = CARTESIAN_POINT('',(0.,-31.1126983722,39.597979746447));
#1548 = DIRECTION('',(1.,0.,0.));
#1549 = DIRECTION('',(0.,-0.707106781187,-0.707106781187));
#1550 = ADVANCED_FACE('',(#1551),#1569,.T.);
#1551 = FACE_BOUND('',#1552,.T.);
#1552 = EDGE_LOOP('',(#1553,#1554,#1555,#1556,#1557,#1558,#1559,#1560,
    #1561,#1562,#1563,#1564,#1565,#1566,#1567,#1568));
#1553 = ORIENTED_EDGE('',*,*,#1503,.F.);
#1554 = ORIENTED_EDGE('',*,*,#1139,.T.);
#1555 = ORIENTED_EDGE('',*,*,#1171,.T.);
#1556 = ORIENTED_EDGE('',*,*,#1194,.F.);
#1557 = ORIENTED_EDGE('',*,*,#1209,.F.);
#1558 = ORIENTED_EDGE('',*,*,#1236,.T.);
#1559 = ORIENTED_EDGE('',*,*,#1268,.T.);
#1560 = ORIENTED_EDGE('',*,*,#1291,.F.);
#1561 = ORIENTED_EDGE('',*,*,#1316,.F.);
#1562 = ORIENTED_EDGE('',*,*,#1333,.T.);
#1563 = ORIENTED_EDGE('',*,*,#1365,.T.);
#1564 = ORIENTED_EDGE('',*,*,#1388,.F.);
#1565 = ORIENTED_EDGE('',*,*,#1413,.F.);
#1566 = ORIENTED_EDGE('',*,*,#1430,.T.);
#1567 = ORIENTED_EDGE('',*,*,#1462,.T.);
#1568 = ORIENTED_EDGE('',*,*,#1485,.F.);
#1569 = PLANE('',#1570);
#1570 = AXIS2_PLACEMENT_3D('',#1571,#1572,#1573);
#1571 = CARTESIAN_POINT('',(15.,-1.40025869572E-14,3.211823975732E-15));
#1572 = DIRECTION('',(1.,0.,0.));
#1573 = DIRECTION('',(-0.,0.,1.));
#1574 = ( GEOMETRIC_REPRESENTATION_CONTEXT(3) 
GLOBAL_UNCERTAINTY_ASSIGNED_CONTEXT((#1578)) 
GLOBAL_UNIT_ASSIGNED_CONTEXT((#1575,#1576,#1577)) REPRESENTATION_CONTEXT
('Context #1','3D Context with UNIT and UNCERTAINTY') );
#1575 = ( LENGTH_UNIT() NAMED_UNIT(*) SI_UNIT(.MILLI.,.METRE.) );
#1576 = ( NAMED_UNIT(*) PLANE_ANGLE_UNIT() SI_UNIT($,.RADIAN.) );
#1577 = ( NAMED_UNIT(*) SI_UNIT($,.STERADIAN.) SOLID_ANGLE_UNIT() );
#1578 = UNCERTAINTY_MEASURE_WITH_UNIT(LENGTH_MEASURE(1.E-07),#1575,
  'distance_accuracy_value','confusion accuracy');
#1579 = PRODUCT_RELATED_PRODUCT_CATEGORY('part',$,(#7));
ENDSEC;
END-ISO-10303-21;
