ISO-10303-21;
HEADER;
/* Generated by software containing ST-Developer
 * from STEP Tools, Inc. (www.steptools.com) 
 */

FILE_DESCRIPTION(
/* description */ (''),
/* implementation_level */ '2;1');

FILE_NAME(
/* name */ 'EMOCD_Brake_Gen1.step',
/* time_stamp */ '2026-07-28T19:15:05+05:30',
/* author */ (''),
/* organization */ (''),
/* preprocessor_version */ 'ST-DEVELOPER v20.1',
/* originating_system */ 'Autodesk Translation Framework v15.8.0.0',
/* authorisation */ '');

FILE_SCHEMA (('AUTOMOTIVE_DESIGN { 1 0 10303 214 3 1 1 }'));
ENDSEC;

DATA;
#10=MECHANICAL_DESIGN_GEOMETRIC_PRESENTATION_REPRESENTATION('',(#13,#14,
#15,#16),#570);
#11=SHAPE_REPRESENTATION_RELATIONSHIP('SRR','None',#577,#12);
#12=ADVANCED_BREP_SHAPE_REPRESENTATION('',(#17,#18,#19,#20),#569);
#13=STYLED_ITEM('',(#586),#17);
#14=STYLED_ITEM('',(#586),#18);
#15=STYLED_ITEM('',(#586),#19);
#16=STYLED_ITEM('',(#586),#20);
#17=MANIFOLD_SOLID_BREP('BrakePole_Top_Main',#347);
#18=MANIFOLD_SOLID_BREP('BrakePole_Top_Taper',#348);
#19=MANIFOLD_SOLID_BREP('BrakePole_Bottom_Main',#349);
#20=MANIFOLD_SOLID_BREP('BrakePole_Bottom_Taper',#350);
#21=FACE_OUTER_BOUND('',#43,.T.);
#22=FACE_OUTER_BOUND('',#44,.T.);
#23=FACE_OUTER_BOUND('',#45,.T.);
#24=FACE_OUTER_BOUND('',#46,.T.);
#25=FACE_OUTER_BOUND('',#47,.T.);
#26=FACE_OUTER_BOUND('',#48,.T.);
#27=FACE_OUTER_BOUND('',#49,.T.);
#28=FACE_OUTER_BOUND('',#50,.T.);
#29=FACE_OUTER_BOUND('',#51,.T.);
#30=FACE_OUTER_BOUND('',#52,.T.);
#31=FACE_OUTER_BOUND('',#53,.T.);
#32=FACE_OUTER_BOUND('',#54,.T.);
#33=FACE_OUTER_BOUND('',#55,.T.);
#34=FACE_OUTER_BOUND('',#56,.T.);
#35=FACE_OUTER_BOUND('',#57,.T.);
#36=FACE_OUTER_BOUND('',#58,.T.);
#37=FACE_OUTER_BOUND('',#59,.T.);
#38=FACE_OUTER_BOUND('',#60,.T.);
#39=FACE_OUTER_BOUND('',#61,.T.);
#40=FACE_OUTER_BOUND('',#62,.T.);
#41=FACE_OUTER_BOUND('',#63,.T.);
#42=FACE_OUTER_BOUND('',#64,.T.);
#43=EDGE_LOOP('',(#219,#220,#221,#222));
#44=EDGE_LOOP('',(#223,#224,#225,#226));
#45=EDGE_LOOP('',(#227,#228,#229,#230));
#46=EDGE_LOOP('',(#231,#232,#233,#234));
#47=EDGE_LOOP('',(#235,#236,#237,#238));
#48=EDGE_LOOP('',(#239,#240,#241,#242));
#49=EDGE_LOOP('',(#243,#244,#245));
#50=EDGE_LOOP('',(#246,#247,#248,#249));
#51=EDGE_LOOP('',(#250,#251,#252,#253));
#52=EDGE_LOOP('',(#254,#255,#256,#257));
#53=EDGE_LOOP('',(#258,#259,#260));
#54=EDGE_LOOP('',(#261,#262,#263,#264));
#55=EDGE_LOOP('',(#265,#266,#267,#268));
#56=EDGE_LOOP('',(#269,#270,#271,#272));
#57=EDGE_LOOP('',(#273,#274,#275,#276));
#58=EDGE_LOOP('',(#277,#278,#279,#280));
#59=EDGE_LOOP('',(#281,#282,#283,#284));
#60=EDGE_LOOP('',(#285,#286,#287));
#61=EDGE_LOOP('',(#288,#289,#290,#291));
#62=EDGE_LOOP('',(#292,#293,#294,#295));
#63=EDGE_LOOP('',(#296,#297,#298,#299));
#64=EDGE_LOOP('',(#300,#301,#302));
#65=LINE('',#478,#107);
#66=LINE('',#480,#108);
#67=LINE('',#482,#109);
#68=LINE('',#483,#110);
#69=LINE('',#486,#111);
#70=LINE('',#488,#112);
#71=LINE('',#489,#113);
#72=LINE('',#492,#114);
#73=LINE('',#494,#115);
#74=LINE('',#495,#116);
#75=LINE('',#497,#117);
#76=LINE('',#498,#118);
#77=LINE('',#504,#119);
#78=LINE('',#506,#120);
#79=LINE('',#507,#121);
#80=LINE('',#510,#122);
#81=LINE('',#512,#123);
#82=LINE('',#513,#124);
#83=LINE('',#516,#125);
#84=LINE('',#517,#126);
#85=LINE('',#519,#127);
#86=LINE('',#524,#128);
#87=LINE('',#526,#129);
#88=LINE('',#528,#130);
#89=LINE('',#529,#131);
#90=LINE('',#532,#132);
#91=LINE('',#534,#133);
#92=LINE('',#535,#134);
#93=LINE('',#538,#135);
#94=LINE('',#540,#136);
#95=LINE('',#541,#137);
#96=LINE('',#543,#138);
#97=LINE('',#544,#139);
#98=LINE('',#550,#140);
#99=LINE('',#552,#141);
#100=LINE('',#553,#142);
#101=LINE('',#556,#143);
#102=LINE('',#558,#144);
#103=LINE('',#559,#145);
#104=LINE('',#562,#146);
#105=LINE('',#563,#147);
#106=LINE('',#565,#148);
#107=VECTOR('',#390,10.);
#108=VECTOR('',#391,10.);
#109=VECTOR('',#392,10.);
#110=VECTOR('',#393,10.);
#111=VECTOR('',#396,10.);
#112=VECTOR('',#397,10.);
#113=VECTOR('',#398,10.);
#114=VECTOR('',#401,10.);
#115=VECTOR('',#402,10.);
#116=VECTOR('',#403,10.);
#117=VECTOR('',#406,10.);
#118=VECTOR('',#407,10.);
#119=VECTOR('',#414,10.);
#120=VECTOR('',#415,10.);
#121=VECTOR('',#416,10.);
#122=VECTOR('',#419,10.);
#123=VECTOR('',#420,10.);
#124=VECTOR('',#421,10.);
#125=VECTOR('',#424,10.);
#126=VECTOR('',#425,10.);
#127=VECTOR('',#428,10.);
#128=VECTOR('',#433,10.);
#129=VECTOR('',#434,10.);
#130=VECTOR('',#435,10.);
#131=VECTOR('',#436,10.);
#132=VECTOR('',#439,10.);
#133=VECTOR('',#440,10.);
#134=VECTOR('',#441,10.);
#135=VECTOR('',#444,10.);
#136=VECTOR('',#445,10.);
#137=VECTOR('',#446,10.);
#138=VECTOR('',#449,10.);
#139=VECTOR('',#450,10.);
#140=VECTOR('',#457,10.);
#141=VECTOR('',#458,10.);
#142=VECTOR('',#459,10.);
#143=VECTOR('',#462,10.);
#144=VECTOR('',#463,10.);
#145=VECTOR('',#464,10.);
#146=VECTOR('',#467,10.);
#147=VECTOR('',#468,10.);
#148=VECTOR('',#471,10.);
#149=VERTEX_POINT('',#476);
#150=VERTEX_POINT('',#477);
#151=VERTEX_POINT('',#479);
#152=VERTEX_POINT('',#481);
#153=VERTEX_POINT('',#485);
#154=VERTEX_POINT('',#487);
#155=VERTEX_POINT('',#491);
#156=VERTEX_POINT('',#493);
#157=VERTEX_POINT('',#502);
#158=VERTEX_POINT('',#503);
#159=VERTEX_POINT('',#505);
#160=VERTEX_POINT('',#509);
#161=VERTEX_POINT('',#511);
#162=VERTEX_POINT('',#515);
#163=VERTEX_POINT('',#522);
#164=VERTEX_POINT('',#523);
#165=VERTEX_POINT('',#525);
#166=VERTEX_POINT('',#527);
#167=VERTEX_POINT('',#531);
#168=VERTEX_POINT('',#533);
#169=VERTEX_POINT('',#537);
#170=VERTEX_POINT('',#539);
#171=VERTEX_POINT('',#548);
#172=VERTEX_POINT('',#549);
#173=VERTEX_POINT('',#551);
#174=VERTEX_POINT('',#555);
#175=VERTEX_POINT('',#557);
#176=VERTEX_POINT('',#561);
#177=EDGE_CURVE('',#149,#150,#65,.T.);
#178=EDGE_CURVE('',#150,#151,#66,.T.);
#179=EDGE_CURVE('',#152,#151,#67,.T.);
#180=EDGE_CURVE('',#149,#152,#68,.T.);
#181=EDGE_CURVE('',#153,#149,#69,.T.);
#182=EDGE_CURVE('',#154,#152,#70,.T.);
#183=EDGE_CURVE('',#153,#154,#71,.T.);
#184=EDGE_CURVE('',#155,#153,#72,.T.);
#185=EDGE_CURVE('',#156,#154,#73,.T.);
#186=EDGE_CURVE('',#155,#156,#74,.T.);
#187=EDGE_CURVE('',#150,#155,#75,.T.);
#188=EDGE_CURVE('',#151,#156,#76,.T.);
#189=EDGE_CURVE('',#157,#158,#77,.T.);
#190=EDGE_CURVE('',#158,#159,#78,.T.);
#191=EDGE_CURVE('',#159,#157,#79,.T.);
#192=EDGE_CURVE('',#160,#158,#80,.T.);
#193=EDGE_CURVE('',#161,#160,#81,.T.);
#194=EDGE_CURVE('',#159,#161,#82,.T.);
#195=EDGE_CURVE('',#162,#161,#83,.T.);
#196=EDGE_CURVE('',#157,#162,#84,.T.);
#197=EDGE_CURVE('',#160,#162,#85,.T.);
#198=EDGE_CURVE('',#163,#164,#86,.T.);
#199=EDGE_CURVE('',#163,#165,#87,.T.);
#200=EDGE_CURVE('',#166,#165,#88,.T.);
#201=EDGE_CURVE('',#164,#166,#89,.T.);
#202=EDGE_CURVE('',#164,#167,#90,.T.);
#203=EDGE_CURVE('',#168,#166,#91,.T.);
#204=EDGE_CURVE('',#167,#168,#92,.T.);
#205=EDGE_CURVE('',#167,#169,#93,.T.);
#206=EDGE_CURVE('',#170,#168,#94,.T.);
#207=EDGE_CURVE('',#169,#170,#95,.T.);
#208=EDGE_CURVE('',#169,#163,#96,.T.);
#209=EDGE_CURVE('',#165,#170,#97,.T.);
#210=EDGE_CURVE('',#171,#172,#98,.T.);
#211=EDGE_CURVE('',#172,#173,#99,.T.);
#212=EDGE_CURVE('',#173,#171,#100,.T.);
#213=EDGE_CURVE('',#174,#172,#101,.T.);
#214=EDGE_CURVE('',#175,#174,#102,.T.);
#215=EDGE_CURVE('',#173,#175,#103,.T.);
#216=EDGE_CURVE('',#176,#175,#104,.T.);
#217=EDGE_CURVE('',#171,#176,#105,.T.);
#218=EDGE_CURVE('',#174,#176,#106,.T.);
#219=ORIENTED_EDGE('',*,*,#177,.T.);
#220=ORIENTED_EDGE('',*,*,#178,.T.);
#221=ORIENTED_EDGE('',*,*,#179,.F.);
#222=ORIENTED_EDGE('',*,*,#180,.F.);
#223=ORIENTED_EDGE('',*,*,#181,.T.);
#224=ORIENTED_EDGE('',*,*,#180,.T.);
#225=ORIENTED_EDGE('',*,*,#182,.F.);
#226=ORIENTED_EDGE('',*,*,#183,.F.);
#227=ORIENTED_EDGE('',*,*,#184,.T.);
#228=ORIENTED_EDGE('',*,*,#183,.T.);
#229=ORIENTED_EDGE('',*,*,#185,.F.);
#230=ORIENTED_EDGE('',*,*,#186,.F.);
#231=ORIENTED_EDGE('',*,*,#187,.T.);
#232=ORIENTED_EDGE('',*,*,#186,.T.);
#233=ORIENTED_EDGE('',*,*,#188,.F.);
#234=ORIENTED_EDGE('',*,*,#178,.F.);
#235=ORIENTED_EDGE('',*,*,#188,.T.);
#236=ORIENTED_EDGE('',*,*,#185,.T.);
#237=ORIENTED_EDGE('',*,*,#182,.T.);
#238=ORIENTED_EDGE('',*,*,#179,.T.);
#239=ORIENTED_EDGE('',*,*,#187,.F.);
#240=ORIENTED_EDGE('',*,*,#177,.F.);
#241=ORIENTED_EDGE('',*,*,#181,.F.);
#242=ORIENTED_EDGE('',*,*,#184,.F.);
#243=ORIENTED_EDGE('',*,*,#189,.T.);
#244=ORIENTED_EDGE('',*,*,#190,.T.);
#245=ORIENTED_EDGE('',*,*,#191,.T.);
#246=ORIENTED_EDGE('',*,*,#192,.F.);
#247=ORIENTED_EDGE('',*,*,#193,.F.);
#248=ORIENTED_EDGE('',*,*,#194,.F.);
#249=ORIENTED_EDGE('',*,*,#190,.F.);
#250=ORIENTED_EDGE('',*,*,#194,.T.);
#251=ORIENTED_EDGE('',*,*,#195,.F.);
#252=ORIENTED_EDGE('',*,*,#196,.F.);
#253=ORIENTED_EDGE('',*,*,#191,.F.);
#254=ORIENTED_EDGE('',*,*,#196,.T.);
#255=ORIENTED_EDGE('',*,*,#197,.F.);
#256=ORIENTED_EDGE('',*,*,#192,.T.);
#257=ORIENTED_EDGE('',*,*,#189,.F.);
#258=ORIENTED_EDGE('',*,*,#197,.T.);
#259=ORIENTED_EDGE('',*,*,#195,.T.);
#260=ORIENTED_EDGE('',*,*,#193,.T.);
#261=ORIENTED_EDGE('',*,*,#198,.F.);
#262=ORIENTED_EDGE('',*,*,#199,.T.);
#263=ORIENTED_EDGE('',*,*,#200,.F.);
#264=ORIENTED_EDGE('',*,*,#201,.F.);
#265=ORIENTED_EDGE('',*,*,#202,.F.);
#266=ORIENTED_EDGE('',*,*,#201,.T.);
#267=ORIENTED_EDGE('',*,*,#203,.F.);
#268=ORIENTED_EDGE('',*,*,#204,.F.);
#269=ORIENTED_EDGE('',*,*,#205,.F.);
#270=ORIENTED_EDGE('',*,*,#204,.T.);
#271=ORIENTED_EDGE('',*,*,#206,.F.);
#272=ORIENTED_EDGE('',*,*,#207,.F.);
#273=ORIENTED_EDGE('',*,*,#208,.F.);
#274=ORIENTED_EDGE('',*,*,#207,.T.);
#275=ORIENTED_EDGE('',*,*,#209,.F.);
#276=ORIENTED_EDGE('',*,*,#199,.F.);
#277=ORIENTED_EDGE('',*,*,#208,.T.);
#278=ORIENTED_EDGE('',*,*,#198,.T.);
#279=ORIENTED_EDGE('',*,*,#202,.T.);
#280=ORIENTED_EDGE('',*,*,#205,.T.);
#281=ORIENTED_EDGE('',*,*,#209,.T.);
#282=ORIENTED_EDGE('',*,*,#206,.T.);
#283=ORIENTED_EDGE('',*,*,#203,.T.);
#284=ORIENTED_EDGE('',*,*,#200,.T.);
#285=ORIENTED_EDGE('',*,*,#210,.T.);
#286=ORIENTED_EDGE('',*,*,#211,.T.);
#287=ORIENTED_EDGE('',*,*,#212,.T.);
#288=ORIENTED_EDGE('',*,*,#213,.F.);
#289=ORIENTED_EDGE('',*,*,#214,.F.);
#290=ORIENTED_EDGE('',*,*,#215,.F.);
#291=ORIENTED_EDGE('',*,*,#211,.F.);
#292=ORIENTED_EDGE('',*,*,#215,.T.);
#293=ORIENTED_EDGE('',*,*,#216,.F.);
#294=ORIENTED_EDGE('',*,*,#217,.F.);
#295=ORIENTED_EDGE('',*,*,#212,.F.);
#296=ORIENTED_EDGE('',*,*,#217,.T.);
#297=ORIENTED_EDGE('',*,*,#218,.F.);
#298=ORIENTED_EDGE('',*,*,#213,.T.);
#299=ORIENTED_EDGE('',*,*,#210,.F.);
#300=ORIENTED_EDGE('',*,*,#218,.T.);
#301=ORIENTED_EDGE('',*,*,#216,.T.);
#302=ORIENTED_EDGE('',*,*,#214,.T.);
#303=PLANE('',#364);
#304=PLANE('',#365);
#305=PLANE('',#366);
#306=PLANE('',#367);
#307=PLANE('',#368);
#308=PLANE('',#369);
#309=PLANE('',#370);
#310=PLANE('',#371);
#311=PLANE('',#372);
#312=PLANE('',#373);
#313=PLANE('',#374);
#314=PLANE('',#375);
#315=PLANE('',#376);
#316=PLANE('',#377);
#317=PLANE('',#378);
#318=PLANE('',#379);
#319=PLANE('',#380);
#320=PLANE('',#381);
#321=PLANE('',#382);
#322=PLANE('',#383);
#323=PLANE('',#384);
#324=PLANE('',#385);
#325=ADVANCED_FACE('',(#21),#303,.T.);
#326=ADVANCED_FACE('',(#22),#304,.T.);
#327=ADVANCED_FACE('',(#23),#305,.T.);
#328=ADVANCED_FACE('',(#24),#306,.T.);
#329=ADVANCED_FACE('',(#25),#307,.T.);
#330=ADVANCED_FACE('',(#26),#308,.F.);
#331=ADVANCED_FACE('',(#27),#309,.T.);
#332=ADVANCED_FACE('',(#28),#310,.T.);
#333=ADVANCED_FACE('',(#29),#311,.T.);
#334=ADVANCED_FACE('',(#30),#312,.T.);
#335=ADVANCED_FACE('',(#31),#313,.T.);
#336=ADVANCED_FACE('',(#32),#314,.T.);
#337=ADVANCED_FACE('',(#33),#315,.T.);
#338=ADVANCED_FACE('',(#34),#316,.T.);
#339=ADVANCED_FACE('',(#35),#317,.T.);
#340=ADVANCED_FACE('',(#36),#318,.T.);
#341=ADVANCED_FACE('',(#37),#319,.T.);
#342=ADVANCED_FACE('',(#38),#320,.T.);
#343=ADVANCED_FACE('',(#39),#321,.T.);
#344=ADVANCED_FACE('',(#40),#322,.T.);
#345=ADVANCED_FACE('',(#41),#323,.T.);
#346=ADVANCED_FACE('',(#42),#324,.T.);
#347=CLOSED_SHELL('',(#325,#326,#327,#328,#329,#330));
#348=CLOSED_SHELL('',(#331,#332,#333,#334,#335));
#349=CLOSED_SHELL('',(#336,#337,#338,#339,#340,#341));
#350=CLOSED_SHELL('',(#342,#343,#344,#345,#346));
#351=DERIVED_UNIT_ELEMENT(#353,1.);
#352=DERIVED_UNIT_ELEMENT(#572,-3.);
#353=(
MASS_UNIT()
NAMED_UNIT(*)
SI_UNIT(.KILO.,.GRAM.)
);
#354=DERIVED_UNIT((#351,#352));
#355=MEASURE_REPRESENTATION_ITEM('density measure',
POSITIVE_RATIO_MEASURE(7850.),#354);
#356=PROPERTY_DEFINITION_REPRESENTATION(#361,#358);
#357=PROPERTY_DEFINITION_REPRESENTATION(#362,#359);
#358=REPRESENTATION('material name',(#360),#569);
#359=REPRESENTATION('density',(#355),#569);
#360=DESCRIPTIVE_REPRESENTATION_ITEM('Steel','Steel');
#361=PROPERTY_DEFINITION('material property','material name',#579);
#362=PROPERTY_DEFINITION('material property','density of part',#579);
#363=AXIS2_PLACEMENT_3D('',#474,#386,#387);
#364=AXIS2_PLACEMENT_3D('',#475,#388,#389);
#365=AXIS2_PLACEMENT_3D('',#484,#394,#395);
#366=AXIS2_PLACEMENT_3D('',#490,#399,#400);
#367=AXIS2_PLACEMENT_3D('',#496,#404,#405);
#368=AXIS2_PLACEMENT_3D('',#499,#408,#409);
#369=AXIS2_PLACEMENT_3D('',#500,#410,#411);
#370=AXIS2_PLACEMENT_3D('',#501,#412,#413);
#371=AXIS2_PLACEMENT_3D('',#508,#417,#418);
#372=AXIS2_PLACEMENT_3D('',#514,#422,#423);
#373=AXIS2_PLACEMENT_3D('',#518,#426,#427);
#374=AXIS2_PLACEMENT_3D('',#520,#429,#430);
#375=AXIS2_PLACEMENT_3D('',#521,#431,#432);
#376=AXIS2_PLACEMENT_3D('',#530,#437,#438);
#377=AXIS2_PLACEMENT_3D('',#536,#442,#443);
#378=AXIS2_PLACEMENT_3D('',#542,#447,#448);
#379=AXIS2_PLACEMENT_3D('',#545,#451,#452);
#380=AXIS2_PLACEMENT_3D('',#546,#453,#454);
#381=AXIS2_PLACEMENT_3D('',#547,#455,#456);
#382=AXIS2_PLACEMENT_3D('',#554,#460,#461);
#383=AXIS2_PLACEMENT_3D('',#560,#465,#466);
#384=AXIS2_PLACEMENT_3D('',#564,#469,#470);
#385=AXIS2_PLACEMENT_3D('',#566,#472,#473);
#386=DIRECTION('axis',(0.,0.,1.));
#387=DIRECTION('refdir',(1.,0.,0.));
#388=DIRECTION('center_axis',(0.,1.,0.));
#389=DIRECTION('ref_axis',(-1.,0.,0.));
#390=DIRECTION('',(-1.,0.,0.));
#391=DIRECTION('',(0.,0.,1.));
#392=DIRECTION('',(-1.,0.,0.));
#393=DIRECTION('',(0.,0.,1.));
#394=DIRECTION('center_axis',(1.,0.,0.));
#395=DIRECTION('ref_axis',(0.,1.,0.));
#396=DIRECTION('',(0.,1.,0.));
#397=DIRECTION('',(0.,1.,0.));
#398=DIRECTION('',(0.,0.,1.));
#399=DIRECTION('center_axis',(0.,-1.,0.));
#400=DIRECTION('ref_axis',(1.,0.,0.));
#401=DIRECTION('',(1.,0.,0.));
#402=DIRECTION('',(1.,0.,0.));
#403=DIRECTION('',(0.,0.,1.));
#404=DIRECTION('center_axis',(-1.,0.,0.));
#405=DIRECTION('ref_axis',(0.,-1.,0.));
#406=DIRECTION('',(0.,-1.,0.));
#407=DIRECTION('',(0.,-1.,0.));
#408=DIRECTION('center_axis',(0.,0.,1.));
#409=DIRECTION('ref_axis',(1.,0.,0.));
#410=DIRECTION('center_axis',(0.,0.,1.));
#411=DIRECTION('ref_axis',(1.,0.,0.));
#412=DIRECTION('center_axis',(0.,-1.,0.));
#413=DIRECTION('ref_axis',(0.,0.,-1.));
#414=DIRECTION('',(0.,0.,1.));
#415=DIRECTION('',(-0.894427190999916,0.,-0.447213595499958));
#416=DIRECTION('',(1.,0.,0.));
#417=DIRECTION('center_axis',(-0.447213595499958,0.,0.894427190999916));
#418=DIRECTION('ref_axis',(0.894427190999916,0.,0.447213595499958));
#419=DIRECTION('',(0.,-1.,0.));
#420=DIRECTION('',(0.894427190999916,0.,0.447213595499958));
#421=DIRECTION('',(0.,1.,0.));
#422=DIRECTION('center_axis',(0.,0.,-1.));
#423=DIRECTION('ref_axis',(-1.,0.,0.));
#424=DIRECTION('',(-1.,0.,0.));
#425=DIRECTION('',(0.,1.,0.));
#426=DIRECTION('center_axis',(1.,0.,0.));
#427=DIRECTION('ref_axis',(0.,0.,-1.));
#428=DIRECTION('',(0.,0.,-1.));
#429=DIRECTION('center_axis',(0.,1.,0.));
#430=DIRECTION('ref_axis',(0.,0.,1.));
#431=DIRECTION('center_axis',(0.,-1.,0.));
#432=DIRECTION('ref_axis',(-1.,0.,0.));
#433=DIRECTION('',(1.,0.,0.));
#434=DIRECTION('',(0.,0.,-1.));
#435=DIRECTION('',(-1.,0.,0.));
#436=DIRECTION('',(0.,0.,-1.));
#437=DIRECTION('center_axis',(1.,0.,0.));
#438=DIRECTION('ref_axis',(0.,-1.,0.));
#439=DIRECTION('',(0.,1.,0.));
#440=DIRECTION('',(0.,-1.,0.));
#441=DIRECTION('',(0.,0.,-1.));
#442=DIRECTION('center_axis',(0.,1.,0.));
#443=DIRECTION('ref_axis',(1.,0.,0.));
#444=DIRECTION('',(-1.,0.,0.));
#445=DIRECTION('',(1.,0.,0.));
#446=DIRECTION('',(0.,0.,-1.));
#447=DIRECTION('center_axis',(-1.,0.,0.));
#448=DIRECTION('ref_axis',(0.,1.,0.));
#449=DIRECTION('',(0.,-1.,0.));
#450=DIRECTION('',(0.,1.,0.));
#451=DIRECTION('center_axis',(0.,0.,1.));
#452=DIRECTION('ref_axis',(1.,0.,0.));
#453=DIRECTION('center_axis',(0.,0.,-1.));
#454=DIRECTION('ref_axis',(-1.,0.,0.));
#455=DIRECTION('center_axis',(0.,-1.,0.));
#456=DIRECTION('ref_axis',(0.,0.,-1.));
#457=DIRECTION('',(0.894427190999916,0.,-0.447213595499958));
#458=DIRECTION('',(0.,0.,1.));
#459=DIRECTION('',(-1.,0.,0.));
#460=DIRECTION('center_axis',(1.,0.,0.));
#461=DIRECTION('ref_axis',(0.,0.,-1.));
#462=DIRECTION('',(0.,-1.,0.));
#463=DIRECTION('',(0.,0.,-1.));
#464=DIRECTION('',(0.,1.,0.));
#465=DIRECTION('center_axis',(0.,0.,1.));
#466=DIRECTION('ref_axis',(1.,0.,0.));
#467=DIRECTION('',(1.,0.,0.));
#468=DIRECTION('',(0.,1.,0.));
#469=DIRECTION('center_axis',(-0.447213595499958,0.,-0.894427190999916));
#470=DIRECTION('ref_axis',(-0.894427190999916,0.,0.447213595499958));
#471=DIRECTION('',(-0.894427190999916,0.,0.447213595499958));
#472=DIRECTION('center_axis',(0.,1.,0.));
#473=DIRECTION('ref_axis',(0.,0.,1.));
#474=CARTESIAN_POINT('',(0.,0.,0.));
#475=CARTESIAN_POINT('Origin',(210.,45.,0.));
#476=CARTESIAN_POINT('',(210.,45.,0.));
#477=CARTESIAN_POINT('',(30.,45.,0.));
#478=CARTESIAN_POINT('',(210.,45.,0.));
#479=CARTESIAN_POINT('',(30.,45.,15.));
#480=CARTESIAN_POINT('',(30.,45.,0.));
#481=CARTESIAN_POINT('',(210.,45.,15.));
#482=CARTESIAN_POINT('',(210.,45.,15.));
#483=CARTESIAN_POINT('',(210.,45.,0.));
#484=CARTESIAN_POINT('Origin',(210.,-45.,0.));
#485=CARTESIAN_POINT('',(210.,-45.,0.));
#486=CARTESIAN_POINT('',(210.,-45.,0.));
#487=CARTESIAN_POINT('',(210.,-45.,15.));
#488=CARTESIAN_POINT('',(210.,-45.,15.));
#489=CARTESIAN_POINT('',(210.,-45.,0.));
#490=CARTESIAN_POINT('Origin',(30.,-45.,0.));
#491=CARTESIAN_POINT('',(30.,-45.,0.));
#492=CARTESIAN_POINT('',(30.,-45.,0.));
#493=CARTESIAN_POINT('',(30.,-45.,15.));
#494=CARTESIAN_POINT('',(30.,-45.,15.));
#495=CARTESIAN_POINT('',(30.,-45.,0.));
#496=CARTESIAN_POINT('Origin',(30.,45.,0.));
#497=CARTESIAN_POINT('',(30.,45.,0.));
#498=CARTESIAN_POINT('',(30.,45.,15.));
#499=CARTESIAN_POINT('Origin',(120.,0.,15.));
#500=CARTESIAN_POINT('Origin',(120.,0.,0.));
#501=CARTESIAN_POINT('Origin',(15.,-45.,-13.5));
#502=CARTESIAN_POINT('',(30.,-45.,-21.));
#503=CARTESIAN_POINT('',(30.,-45.,-6.));
#504=CARTESIAN_POINT('',(30.,-45.,-21.));
#505=CARTESIAN_POINT('',(0.,-45.,-21.));
#506=CARTESIAN_POINT('',(30.,-45.,-6.));
#507=CARTESIAN_POINT('',(0.,-45.,-21.));
#508=CARTESIAN_POINT('Origin',(0.,0.,-21.));
#509=CARTESIAN_POINT('',(30.,45.,-6.));
#510=CARTESIAN_POINT('',(30.,0.,-6.));
#511=CARTESIAN_POINT('',(0.,45.,-21.));
#512=CARTESIAN_POINT('',(30.,45.,-6.));
#513=CARTESIAN_POINT('',(0.,0.,-21.));
#514=CARTESIAN_POINT('Origin',(30.,0.,-21.));
#515=CARTESIAN_POINT('',(30.,45.,-21.));
#516=CARTESIAN_POINT('',(0.,45.,-21.));
#517=CARTESIAN_POINT('',(30.,0.,-21.));
#518=CARTESIAN_POINT('Origin',(30.,0.,-6.));
#519=CARTESIAN_POINT('',(30.,45.,-21.));
#520=CARTESIAN_POINT('Origin',(15.,45.,-13.5));
#521=CARTESIAN_POINT('Origin',(210.,-45.,0.));
#522=CARTESIAN_POINT('',(30.,-45.,0.));
#523=CARTESIAN_POINT('',(210.,-45.,0.));
#524=CARTESIAN_POINT('',(30.,-45.,0.));
#525=CARTESIAN_POINT('',(30.,-45.,-15.));
#526=CARTESIAN_POINT('',(30.,-45.,0.));
#527=CARTESIAN_POINT('',(210.,-45.,-15.));
#528=CARTESIAN_POINT('',(30.,-45.,-15.));
#529=CARTESIAN_POINT('',(210.,-45.,0.));
#530=CARTESIAN_POINT('Origin',(210.,45.,0.));
#531=CARTESIAN_POINT('',(210.,45.,0.));
#532=CARTESIAN_POINT('',(210.,-45.,0.));
#533=CARTESIAN_POINT('',(210.,45.,-15.));
#534=CARTESIAN_POINT('',(210.,-45.,-15.));
#535=CARTESIAN_POINT('',(210.,45.,0.));
#536=CARTESIAN_POINT('Origin',(30.,45.,0.));
#537=CARTESIAN_POINT('',(30.,45.,0.));
#538=CARTESIAN_POINT('',(210.,45.,0.));
#539=CARTESIAN_POINT('',(30.,45.,-15.));
#540=CARTESIAN_POINT('',(210.,45.,-15.));
#541=CARTESIAN_POINT('',(30.,45.,0.));
#542=CARTESIAN_POINT('Origin',(30.,-45.,0.));
#543=CARTESIAN_POINT('',(30.,45.,0.));
#544=CARTESIAN_POINT('',(30.,45.,-15.));
#545=CARTESIAN_POINT('Origin',(120.,0.,0.));
#546=CARTESIAN_POINT('Origin',(120.,0.,-15.));
#547=CARTESIAN_POINT('Origin',(15.,-45.,13.5));
#548=CARTESIAN_POINT('',(0.,-45.,21.));
#549=CARTESIAN_POINT('',(30.,-45.,6.));
#550=CARTESIAN_POINT('',(30.,-45.,6.));
#551=CARTESIAN_POINT('',(30.,-45.,21.));
#552=CARTESIAN_POINT('',(30.,-45.,21.));
#553=CARTESIAN_POINT('',(0.,-45.,21.));
#554=CARTESIAN_POINT('Origin',(30.,0.,21.));
#555=CARTESIAN_POINT('',(30.,45.,6.));
#556=CARTESIAN_POINT('',(30.,0.,6.));
#557=CARTESIAN_POINT('',(30.,45.,21.));
#558=CARTESIAN_POINT('',(30.,45.,21.));
#559=CARTESIAN_POINT('',(30.,0.,21.));
#560=CARTESIAN_POINT('Origin',(0.,0.,21.));
#561=CARTESIAN_POINT('',(0.,45.,21.));
#562=CARTESIAN_POINT('',(0.,45.,21.));
#563=CARTESIAN_POINT('',(0.,0.,21.));
#564=CARTESIAN_POINT('Origin',(30.,0.,6.));
#565=CARTESIAN_POINT('',(30.,45.,6.));
#566=CARTESIAN_POINT('Origin',(15.,45.,13.5));
#567=UNCERTAINTY_MEASURE_WITH_UNIT(LENGTH_MEASURE(0.01),#571,
'DISTANCE_ACCURACY_VALUE',
'Maximum model space distance between geometric entities at asserted c
onnectivities');
#568=UNCERTAINTY_MEASURE_WITH_UNIT(LENGTH_MEASURE(0.01),#571,
'DISTANCE_ACCURACY_VALUE',
'Maximum model space distance between geometric entities at asserted c
onnectivities');
#569=(
GEOMETRIC_REPRESENTATION_CONTEXT(3)
GLOBAL_UNCERTAINTY_ASSIGNED_CONTEXT((#567))
GLOBAL_UNIT_ASSIGNED_CONTEXT((#571,#573,#574))
REPRESENTATION_CONTEXT('','3D')
);
#570=(
GEOMETRIC_REPRESENTATION_CONTEXT(3)
GLOBAL_UNCERTAINTY_ASSIGNED_CONTEXT((#568))
GLOBAL_UNIT_ASSIGNED_CONTEXT((#571,#573,#574))
REPRESENTATION_CONTEXT('','3D')
);
#571=(
LENGTH_UNIT()
NAMED_UNIT(*)
SI_UNIT(.MILLI.,.METRE.)
);
#572=(
LENGTH_UNIT()
NAMED_UNIT(*)
SI_UNIT($,.METRE.)
);
#573=(
NAMED_UNIT(*)
PLANE_ANGLE_UNIT()
SI_UNIT($,.RADIAN.)
);
#574=(
NAMED_UNIT(*)
SI_UNIT($,.STERADIAN.)
SOLID_ANGLE_UNIT()
);
#575=SHAPE_DEFINITION_REPRESENTATION(#576,#577);
#576=PRODUCT_DEFINITION_SHAPE('',$,#579);
#577=SHAPE_REPRESENTATION('',(#363),#569);
#578=PRODUCT_DEFINITION_CONTEXT('part definition',#583,'design');
#579=PRODUCT_DEFINITION('EMOCD_Brake_Gen1','EMOCD_Brake_Gen1 v1',#580,#578);
#580=PRODUCT_DEFINITION_FORMATION('',$,#585);
#581=PRODUCT_RELATED_PRODUCT_CATEGORY('EMOCD_Brake_Gen1 v1',
'EMOCD_Brake_Gen1 v1',(#585));
#582=APPLICATION_PROTOCOL_DEFINITION('international standard',
'automotive_design',2009,#583);
#583=APPLICATION_CONTEXT(
'Core Data for Automotive Mechanical Design Process');
#584=PRODUCT_CONTEXT('part definition',#583,'mechanical');
#585=PRODUCT('EMOCD_Brake_Gen1','EMOCD_Brake_Gen1 v1',$,(#584));
#586=PRESENTATION_STYLE_ASSIGNMENT((#587));
#587=SURFACE_STYLE_USAGE(.BOTH.,#588);
#588=SURFACE_SIDE_STYLE('',(#589));
#589=SURFACE_STYLE_FILL_AREA(#590);
#590=FILL_AREA_STYLE('Steel - Satin',(#591));
#591=FILL_AREA_STYLE_COLOUR('Steel - Satin',#592);
#592=COLOUR_RGB('Steel - Satin',0.627450980392157,0.627450980392157,0.627450980392157);
ENDSEC;
END-ISO-10303-21;
