ISO-10303-21;
HEADER;
/* Generated by software containing ST-Developer
 * from STEP Tools, Inc. (www.steptools.com) 
 */

FILE_DESCRIPTION(
/* description */ (''),
/* implementation_level */ '2;1');

FILE_NAME(
/* name */ 'EMOCD_Sled_Gen1b.step',
/* time_stamp */ '2026-07-28T19:10:06+05:30',
/* author */ (''),
/* organization */ (''),
/* preprocessor_version */ 'ST-DEVELOPER v20.1',
/* originating_system */ 'Autodesk Translation Framework v15.8.0.0',
/* authorisation */ '');

FILE_SCHEMA (('AUTOMOTIVE_DESIGN { 1 0 10303 214 3 1 1 }'));
ENDSEC;

DATA;
#10=MECHANICAL_DESIGN_GEOMETRIC_PRESENTATION_REPRESENTATION('',(#25,#26,
#27,#28,#29,#30,#31,#32,#33,#34,#35),#1305);
#11=SHAPE_REPRESENTATION_RELATIONSHIP('SRR','None',#1312,#12);
#12=ADVANCED_BREP_SHAPE_REPRESENTATION('',(#36,#37,#38,#39,#40,#41,#42,
#43,#44,#45,#46),#1304);
#13=CIRCLE('',#854,15.);
#14=CIRCLE('',#855,15.);
#15=CIRCLE('',#859,15.);
#16=CIRCLE('',#860,15.);
#17=CIRCLE('',#864,15.);
#18=CIRCLE('',#865,15.);
#19=CIRCLE('',#869,15.);
#20=CIRCLE('',#870,15.);
#21=CYLINDRICAL_SURFACE('',#853,15.);
#22=CYLINDRICAL_SURFACE('',#858,15.);
#23=CYLINDRICAL_SURFACE('',#863,15.);
#24=CYLINDRICAL_SURFACE('',#868,15.);
#25=STYLED_ITEM('',(#1321),#36);
#26=STYLED_ITEM('',(#1321),#37);
#27=STYLED_ITEM('',(#1321),#38);
#28=STYLED_ITEM('',(#1321),#39);
#29=STYLED_ITEM('',(#1321),#40);
#30=STYLED_ITEM('',(#1321),#41);
#31=STYLED_ITEM('',(#1321),#42);
#32=STYLED_ITEM('',(#1321),#43);
#33=STYLED_ITEM('',(#1321),#44);
#34=STYLED_ITEM('',(#1321),#45);
#35=STYLED_ITEM('',(#1321),#46);
#36=MANIFOLD_SOLID_BREP('Chassis_TopPlate',#787);
#37=MANIFOLD_SOLID_BREP('Chassis_BottomPlate',#788);
#38=MANIFOLD_SOLID_BREP('ChassisWeb_P',#789);
#39=MANIFOLD_SOLID_BREP('ChassisWeb_S',#790);
#40=MANIFOLD_SOLID_BREP('Sled_Backstop',#791);
#41=MANIFOLD_SOLID_BREP('HalbachArray_Top',#792);
#42=MANIFOLD_SOLID_BREP('HalbachArray_Bottom',#793);
#43=MANIFOLD_SOLID_BREP('Roller_P_x119',#794);
#44=MANIFOLD_SOLID_BREP('Roller_S_x119',#795);
#45=MANIFOLD_SOLID_BREP('Roller_P_x369',#796);
#46=MANIFOLD_SOLID_BREP('Roller_S_x369',#797);
#47=FACE_OUTER_BOUND('',#101,.T.);
#48=FACE_OUTER_BOUND('',#102,.T.);
#49=FACE_OUTER_BOUND('',#103,.T.);
#50=FACE_OUTER_BOUND('',#104,.T.);
#51=FACE_OUTER_BOUND('',#105,.T.);
#52=FACE_OUTER_BOUND('',#106,.T.);
#53=FACE_OUTER_BOUND('',#107,.T.);
#54=FACE_OUTER_BOUND('',#108,.T.);
#55=FACE_OUTER_BOUND('',#109,.T.);
#56=FACE_OUTER_BOUND('',#110,.T.);
#57=FACE_OUTER_BOUND('',#111,.T.);
#58=FACE_OUTER_BOUND('',#112,.T.);
#59=FACE_OUTER_BOUND('',#113,.T.);
#60=FACE_OUTER_BOUND('',#114,.T.);
#61=FACE_OUTER_BOUND('',#115,.T.);
#62=FACE_OUTER_BOUND('',#116,.T.);
#63=FACE_OUTER_BOUND('',#117,.T.);
#64=FACE_OUTER_BOUND('',#118,.T.);
#65=FACE_OUTER_BOUND('',#119,.T.);
#66=FACE_OUTER_BOUND('',#120,.T.);
#67=FACE_OUTER_BOUND('',#121,.T.);
#68=FACE_OUTER_BOUND('',#122,.T.);
#69=FACE_OUTER_BOUND('',#123,.T.);
#70=FACE_OUTER_BOUND('',#124,.T.);
#71=FACE_OUTER_BOUND('',#125,.T.);
#72=FACE_OUTER_BOUND('',#126,.T.);
#73=FACE_OUTER_BOUND('',#127,.T.);
#74=FACE_OUTER_BOUND('',#128,.T.);
#75=FACE_OUTER_BOUND('',#129,.T.);
#76=FACE_OUTER_BOUND('',#130,.T.);
#77=FACE_OUTER_BOUND('',#131,.T.);
#78=FACE_OUTER_BOUND('',#132,.T.);
#79=FACE_OUTER_BOUND('',#133,.T.);
#80=FACE_OUTER_BOUND('',#134,.T.);
#81=FACE_OUTER_BOUND('',#135,.T.);
#82=FACE_OUTER_BOUND('',#136,.T.);
#83=FACE_OUTER_BOUND('',#137,.T.);
#84=FACE_OUTER_BOUND('',#138,.T.);
#85=FACE_OUTER_BOUND('',#139,.T.);
#86=FACE_OUTER_BOUND('',#140,.T.);
#87=FACE_OUTER_BOUND('',#141,.T.);
#88=FACE_OUTER_BOUND('',#142,.T.);
#89=FACE_OUTER_BOUND('',#143,.T.);
#90=FACE_OUTER_BOUND('',#144,.T.);
#91=FACE_OUTER_BOUND('',#145,.T.);
#92=FACE_OUTER_BOUND('',#146,.T.);
#93=FACE_OUTER_BOUND('',#147,.T.);
#94=FACE_OUTER_BOUND('',#148,.T.);
#95=FACE_OUTER_BOUND('',#149,.T.);
#96=FACE_OUTER_BOUND('',#150,.T.);
#97=FACE_OUTER_BOUND('',#151,.T.);
#98=FACE_OUTER_BOUND('',#152,.T.);
#99=FACE_OUTER_BOUND('',#153,.T.);
#100=FACE_OUTER_BOUND('',#154,.T.);
#101=EDGE_LOOP('',(#491,#492,#493,#494));
#102=EDGE_LOOP('',(#495,#496,#497,#498));
#103=EDGE_LOOP('',(#499,#500,#501,#502));
#104=EDGE_LOOP('',(#503,#504,#505,#506));
#105=EDGE_LOOP('',(#507,#508,#509,#510));
#106=EDGE_LOOP('',(#511,#512,#513,#514));
#107=EDGE_LOOP('',(#515,#516,#517,#518));
#108=EDGE_LOOP('',(#519,#520,#521,#522));
#109=EDGE_LOOP('',(#523,#524,#525,#526));
#110=EDGE_LOOP('',(#527,#528,#529,#530));
#111=EDGE_LOOP('',(#531,#532,#533,#534));
#112=EDGE_LOOP('',(#535,#536,#537,#538));
#113=EDGE_LOOP('',(#539,#540,#541,#542));
#114=EDGE_LOOP('',(#543,#544,#545,#546));
#115=EDGE_LOOP('',(#547,#548,#549,#550));
#116=EDGE_LOOP('',(#551,#552,#553,#554));
#117=EDGE_LOOP('',(#555,#556,#557,#558));
#118=EDGE_LOOP('',(#559,#560,#561,#562));
#119=EDGE_LOOP('',(#563,#564,#565,#566));
#120=EDGE_LOOP('',(#567,#568,#569,#570));
#121=EDGE_LOOP('',(#571,#572,#573,#574));
#122=EDGE_LOOP('',(#575,#576,#577,#578));
#123=EDGE_LOOP('',(#579,#580,#581,#582));
#124=EDGE_LOOP('',(#583,#584,#585,#586));
#125=EDGE_LOOP('',(#587,#588,#589,#590));
#126=EDGE_LOOP('',(#591,#592,#593,#594));
#127=EDGE_LOOP('',(#595,#596,#597,#598));
#128=EDGE_LOOP('',(#599,#600,#601,#602));
#129=EDGE_LOOP('',(#603,#604,#605,#606));
#130=EDGE_LOOP('',(#607,#608,#609,#610));
#131=EDGE_LOOP('',(#611,#612,#613,#614));
#132=EDGE_LOOP('',(#615,#616,#617,#618));
#133=EDGE_LOOP('',(#619,#620,#621,#622));
#134=EDGE_LOOP('',(#623,#624,#625,#626));
#135=EDGE_LOOP('',(#627,#628,#629,#630));
#136=EDGE_LOOP('',(#631,#632,#633,#634));
#137=EDGE_LOOP('',(#635,#636,#637,#638));
#138=EDGE_LOOP('',(#639,#640,#641,#642));
#139=EDGE_LOOP('',(#643,#644,#645,#646));
#140=EDGE_LOOP('',(#647,#648,#649,#650));
#141=EDGE_LOOP('',(#651,#652,#653,#654));
#142=EDGE_LOOP('',(#655,#656,#657,#658));
#143=EDGE_LOOP('',(#659,#660,#661,#662));
#144=EDGE_LOOP('',(#663));
#145=EDGE_LOOP('',(#664));
#146=EDGE_LOOP('',(#665,#666,#667,#668));
#147=EDGE_LOOP('',(#669));
#148=EDGE_LOOP('',(#670));
#149=EDGE_LOOP('',(#671,#672,#673,#674));
#150=EDGE_LOOP('',(#675));
#151=EDGE_LOOP('',(#676));
#152=EDGE_LOOP('',(#677,#678,#679,#680));
#153=EDGE_LOOP('',(#681));
#154=EDGE_LOOP('',(#682));
#155=LINE('',#1091,#243);
#156=LINE('',#1093,#244);
#157=LINE('',#1095,#245);
#158=LINE('',#1096,#246);
#159=LINE('',#1099,#247);
#160=LINE('',#1101,#248);
#161=LINE('',#1102,#249);
#162=LINE('',#1105,#250);
#163=LINE('',#1107,#251);
#164=LINE('',#1108,#252);
#165=LINE('',#1110,#253);
#166=LINE('',#1111,#254);
#167=LINE('',#1117,#255);
#168=LINE('',#1119,#256);
#169=LINE('',#1121,#257);
#170=LINE('',#1122,#258);
#171=LINE('',#1125,#259);
#172=LINE('',#1127,#260);
#173=LINE('',#1128,#261);
#174=LINE('',#1131,#262);
#175=LINE('',#1133,#263);
#176=LINE('',#1134,#264);
#177=LINE('',#1136,#265);
#178=LINE('',#1137,#266);
#179=LINE('',#1143,#267);
#180=LINE('',#1145,#268);
#181=LINE('',#1147,#269);
#182=LINE('',#1148,#270);
#183=LINE('',#1151,#271);
#184=LINE('',#1153,#272);
#185=LINE('',#1154,#273);
#186=LINE('',#1157,#274);
#187=LINE('',#1159,#275);
#188=LINE('',#1160,#276);
#189=LINE('',#1162,#277);
#190=LINE('',#1163,#278);
#191=LINE('',#1169,#279);
#192=LINE('',#1171,#280);
#193=LINE('',#1173,#281);
#194=LINE('',#1174,#282);
#195=LINE('',#1177,#283);
#196=LINE('',#1179,#284);
#197=LINE('',#1180,#285);
#198=LINE('',#1183,#286);
#199=LINE('',#1185,#287);
#200=LINE('',#1186,#288);
#201=LINE('',#1188,#289);
#202=LINE('',#1189,#290);
#203=LINE('',#1195,#291);
#204=LINE('',#1197,#292);
#205=LINE('',#1199,#293);
#206=LINE('',#1200,#294);
#207=LINE('',#1203,#295);
#208=LINE('',#1205,#296);
#209=LINE('',#1206,#297);
#210=LINE('',#1209,#298);
#211=LINE('',#1211,#299);
#212=LINE('',#1212,#300);
#213=LINE('',#1214,#301);
#214=LINE('',#1215,#302);
#215=LINE('',#1221,#303);
#216=LINE('',#1223,#304);
#217=LINE('',#1225,#305);
#218=LINE('',#1226,#306);
#219=LINE('',#1229,#307);
#220=LINE('',#1231,#308);
#221=LINE('',#1232,#309);
#222=LINE('',#1235,#310);
#223=LINE('',#1237,#311);
#224=LINE('',#1238,#312);
#225=LINE('',#1240,#313);
#226=LINE('',#1241,#314);
#227=LINE('',#1247,#315);
#228=LINE('',#1249,#316);
#229=LINE('',#1251,#317);
#230=LINE('',#1252,#318);
#231=LINE('',#1255,#319);
#232=LINE('',#1257,#320);
#233=LINE('',#1258,#321);
#234=LINE('',#1261,#322);
#235=LINE('',#1263,#323);
#236=LINE('',#1264,#324);
#237=LINE('',#1266,#325);
#238=LINE('',#1267,#326);
#239=LINE('',#1274,#327);
#240=LINE('',#1282,#328);
#241=LINE('',#1290,#329);
#242=LINE('',#1298,#330);
#243=VECTOR('',#877,10.);
#244=VECTOR('',#878,10.);
#245=VECTOR('',#879,10.);
#246=VECTOR('',#880,10.);
#247=VECTOR('',#883,10.);
#248=VECTOR('',#884,10.);
#249=VECTOR('',#885,10.);
#250=VECTOR('',#888,10.);
#251=VECTOR('',#889,10.);
#252=VECTOR('',#890,10.);
#253=VECTOR('',#893,10.);
#254=VECTOR('',#894,10.);
#255=VECTOR('',#901,10.);
#256=VECTOR('',#902,10.);
#257=VECTOR('',#903,10.);
#258=VECTOR('',#904,10.);
#259=VECTOR('',#907,10.);
#260=VECTOR('',#908,10.);
#261=VECTOR('',#909,10.);
#262=VECTOR('',#912,10.);
#263=VECTOR('',#913,10.);
#264=VECTOR('',#914,10.);
#265=VECTOR('',#917,10.);
#266=VECTOR('',#918,10.);
#267=VECTOR('',#925,10.);
#268=VECTOR('',#926,10.);
#269=VECTOR('',#927,10.);
#270=VECTOR('',#928,10.);
#271=VECTOR('',#931,10.);
#272=VECTOR('',#932,10.);
#273=VECTOR('',#933,10.);
#274=VECTOR('',#936,10.);
#275=VECTOR('',#937,10.);
#276=VECTOR('',#938,10.);
#277=VECTOR('',#941,10.);
#278=VECTOR('',#942,10.);
#279=VECTOR('',#949,10.);
#280=VECTOR('',#950,10.);
#281=VECTOR('',#951,10.);
#282=VECTOR('',#952,10.);
#283=VECTOR('',#955,10.);
#284=VECTOR('',#956,10.);
#285=VECTOR('',#957,10.);
#286=VECTOR('',#960,10.);
#287=VECTOR('',#961,10.);
#288=VECTOR('',#962,10.);
#289=VECTOR('',#965,10.);
#290=VECTOR('',#966,10.);
#291=VECTOR('',#973,10.);
#292=VECTOR('',#974,10.);
#293=VECTOR('',#975,10.);
#294=VECTOR('',#976,10.);
#295=VECTOR('',#979,10.);
#296=VECTOR('',#980,10.);
#297=VECTOR('',#981,10.);
#298=VECTOR('',#984,10.);
#299=VECTOR('',#985,10.);
#300=VECTOR('',#986,10.);
#301=VECTOR('',#989,10.);
#302=VECTOR('',#990,10.);
#303=VECTOR('',#997,10.);
#304=VECTOR('',#998,10.);
#305=VECTOR('',#999,10.);
#306=VECTOR('',#1000,10.);
#307=VECTOR('',#1003,10.);
#308=VECTOR('',#1004,10.);
#309=VECTOR('',#1005,10.);
#310=VECTOR('',#1008,10.);
#311=VECTOR('',#1009,10.);
#312=VECTOR('',#1010,10.);
#313=VECTOR('',#1013,10.);
#314=VECTOR('',#1014,10.);
#315=VECTOR('',#1021,10.);
#316=VECTOR('',#1022,10.);
#317=VECTOR('',#1023,10.);
#318=VECTOR('',#1024,10.);
#319=VECTOR('',#1027,10.);
#320=VECTOR('',#1028,10.);
#321=VECTOR('',#1029,10.);
#322=VECTOR('',#1032,10.);
#323=VECTOR('',#1033,10.);
#324=VECTOR('',#1034,10.);
#325=VECTOR('',#1037,10.);
#326=VECTOR('',#1038,10.);
#327=VECTOR('',#1047,15.);
#328=VECTOR('',#1058,15.);
#329=VECTOR('',#1069,15.);
#330=VECTOR('',#1080,15.);
#331=VERTEX_POINT('',#1089);
#332=VERTEX_POINT('',#1090);
#333=VERTEX_POINT('',#1092);
#334=VERTEX_POINT('',#1094);
#335=VERTEX_POINT('',#1098);
#336=VERTEX_POINT('',#1100);
#337=VERTEX_POINT('',#1104);
#338=VERTEX_POINT('',#1106);
#339=VERTEX_POINT('',#1115);
#340=VERTEX_POINT('',#1116);
#341=VERTEX_POINT('',#1118);
#342=VERTEX_POINT('',#1120);
#343=VERTEX_POINT('',#1124);
#344=VERTEX_POINT('',#1126);
#345=VERTEX_POINT('',#1130);
#346=VERTEX_POINT('',#1132);
#347=VERTEX_POINT('',#1141);
#348=VERTEX_POINT('',#1142);
#349=VERTEX_POINT('',#1144);
#350=VERTEX_POINT('',#1146);
#351=VERTEX_POINT('',#1150);
#352=VERTEX_POINT('',#1152);
#353=VERTEX_POINT('',#1156);
#354=VERTEX_POINT('',#1158);
#355=VERTEX_POINT('',#1167);
#356=VERTEX_POINT('',#1168);
#357=VERTEX_POINT('',#1170);
#358=VERTEX_POINT('',#1172);
#359=VERTEX_POINT('',#1176);
#360=VERTEX_POINT('',#1178);
#361=VERTEX_POINT('',#1182);
#362=VERTEX_POINT('',#1184);
#363=VERTEX_POINT('',#1193);
#364=VERTEX_POINT('',#1194);
#365=VERTEX_POINT('',#1196);
#366=VERTEX_POINT('',#1198);
#367=VERTEX_POINT('',#1202);
#368=VERTEX_POINT('',#1204);
#369=VERTEX_POINT('',#1208);
#370=VERTEX_POINT('',#1210);
#371=VERTEX_POINT('',#1219);
#372=VERTEX_POINT('',#1220);
#373=VERTEX_POINT('',#1222);
#374=VERTEX_POINT('',#1224);
#375=VERTEX_POINT('',#1228);
#376=VERTEX_POINT('',#1230);
#377=VERTEX_POINT('',#1234);
#378=VERTEX_POINT('',#1236);
#379=VERTEX_POINT('',#1245);
#380=VERTEX_POINT('',#1246);
#381=VERTEX_POINT('',#1248);
#382=VERTEX_POINT('',#1250);
#383=VERTEX_POINT('',#1254);
#384=VERTEX_POINT('',#1256);
#385=VERTEX_POINT('',#1260);
#386=VERTEX_POINT('',#1262);
#387=VERTEX_POINT('',#1271);
#388=VERTEX_POINT('',#1273);
#389=VERTEX_POINT('',#1279);
#390=VERTEX_POINT('',#1281);
#391=VERTEX_POINT('',#1287);
#392=VERTEX_POINT('',#1289);
#393=VERTEX_POINT('',#1295);
#394=VERTEX_POINT('',#1297);
#395=EDGE_CURVE('',#331,#332,#155,.T.);
#396=EDGE_CURVE('',#332,#333,#156,.T.);
#397=EDGE_CURVE('',#334,#333,#157,.T.);
#398=EDGE_CURVE('',#331,#334,#158,.T.);
#399=EDGE_CURVE('',#335,#331,#159,.T.);
#400=EDGE_CURVE('',#336,#334,#160,.T.);
#401=EDGE_CURVE('',#335,#336,#161,.T.);
#402=EDGE_CURVE('',#337,#335,#162,.T.);
#403=EDGE_CURVE('',#338,#336,#163,.T.);
#404=EDGE_CURVE('',#337,#338,#164,.T.);
#405=EDGE_CURVE('',#332,#337,#165,.T.);
#406=EDGE_CURVE('',#333,#338,#166,.T.);
#407=EDGE_CURVE('',#339,#340,#167,.T.);
#408=EDGE_CURVE('',#340,#341,#168,.T.);
#409=EDGE_CURVE('',#342,#341,#169,.T.);
#410=EDGE_CURVE('',#339,#342,#170,.T.);
#411=EDGE_CURVE('',#343,#339,#171,.T.);
#412=EDGE_CURVE('',#344,#342,#172,.T.);
#413=EDGE_CURVE('',#343,#344,#173,.T.);
#414=EDGE_CURVE('',#345,#343,#174,.T.);
#415=EDGE_CURVE('',#346,#344,#175,.T.);
#416=EDGE_CURVE('',#345,#346,#176,.T.);
#417=EDGE_CURVE('',#340,#345,#177,.T.);
#418=EDGE_CURVE('',#341,#346,#178,.T.);
#419=EDGE_CURVE('',#347,#348,#179,.T.);
#420=EDGE_CURVE('',#348,#349,#180,.T.);
#421=EDGE_CURVE('',#350,#349,#181,.T.);
#422=EDGE_CURVE('',#347,#350,#182,.T.);
#423=EDGE_CURVE('',#351,#347,#183,.T.);
#424=EDGE_CURVE('',#352,#350,#184,.T.);
#425=EDGE_CURVE('',#351,#352,#185,.T.);
#426=EDGE_CURVE('',#353,#351,#186,.T.);
#427=EDGE_CURVE('',#354,#352,#187,.T.);
#428=EDGE_CURVE('',#353,#354,#188,.T.);
#429=EDGE_CURVE('',#348,#353,#189,.T.);
#430=EDGE_CURVE('',#349,#354,#190,.T.);
#431=EDGE_CURVE('',#355,#356,#191,.T.);
#432=EDGE_CURVE('',#356,#357,#192,.T.);
#433=EDGE_CURVE('',#358,#357,#193,.T.);
#434=EDGE_CURVE('',#355,#358,#194,.T.);
#435=EDGE_CURVE('',#359,#355,#195,.T.);
#436=EDGE_CURVE('',#360,#358,#196,.T.);
#437=EDGE_CURVE('',#359,#360,#197,.T.);
#438=EDGE_CURVE('',#361,#359,#198,.T.);
#439=EDGE_CURVE('',#362,#360,#199,.T.);
#440=EDGE_CURVE('',#361,#362,#200,.T.);
#441=EDGE_CURVE('',#356,#361,#201,.T.);
#442=EDGE_CURVE('',#357,#362,#202,.T.);
#443=EDGE_CURVE('',#363,#364,#203,.T.);
#444=EDGE_CURVE('',#364,#365,#204,.T.);
#445=EDGE_CURVE('',#366,#365,#205,.T.);
#446=EDGE_CURVE('',#363,#366,#206,.T.);
#447=EDGE_CURVE('',#367,#363,#207,.T.);
#448=EDGE_CURVE('',#368,#366,#208,.T.);
#449=EDGE_CURVE('',#367,#368,#209,.T.);
#450=EDGE_CURVE('',#369,#367,#210,.T.);
#451=EDGE_CURVE('',#370,#368,#211,.T.);
#452=EDGE_CURVE('',#369,#370,#212,.T.);
#453=EDGE_CURVE('',#364,#369,#213,.T.);
#454=EDGE_CURVE('',#365,#370,#214,.T.);
#455=EDGE_CURVE('',#371,#372,#215,.T.);
#456=EDGE_CURVE('',#372,#373,#216,.T.);
#457=EDGE_CURVE('',#374,#373,#217,.T.);
#458=EDGE_CURVE('',#371,#374,#218,.T.);
#459=EDGE_CURVE('',#375,#371,#219,.T.);
#460=EDGE_CURVE('',#376,#374,#220,.T.);
#461=EDGE_CURVE('',#375,#376,#221,.T.);
#462=EDGE_CURVE('',#377,#375,#222,.T.);
#463=EDGE_CURVE('',#378,#376,#223,.T.);
#464=EDGE_CURVE('',#377,#378,#224,.T.);
#465=EDGE_CURVE('',#372,#377,#225,.T.);
#466=EDGE_CURVE('',#373,#378,#226,.T.);
#467=EDGE_CURVE('',#379,#380,#227,.T.);
#468=EDGE_CURVE('',#380,#381,#228,.T.);
#469=EDGE_CURVE('',#382,#381,#229,.T.);
#470=EDGE_CURVE('',#379,#382,#230,.T.);
#471=EDGE_CURVE('',#383,#379,#231,.T.);
#472=EDGE_CURVE('',#384,#382,#232,.T.);
#473=EDGE_CURVE('',#383,#384,#233,.T.);
#474=EDGE_CURVE('',#385,#383,#234,.T.);
#475=EDGE_CURVE('',#386,#384,#235,.T.);
#476=EDGE_CURVE('',#385,#386,#236,.T.);
#477=EDGE_CURVE('',#380,#385,#237,.T.);
#478=EDGE_CURVE('',#381,#386,#238,.T.);
#479=EDGE_CURVE('',#387,#387,#13,.T.);
#480=EDGE_CURVE('',#387,#388,#239,.T.);
#481=EDGE_CURVE('',#388,#388,#14,.T.);
#482=EDGE_CURVE('',#389,#389,#15,.T.);
#483=EDGE_CURVE('',#389,#390,#240,.T.);
#484=EDGE_CURVE('',#390,#390,#16,.T.);
#485=EDGE_CURVE('',#391,#391,#17,.T.);
#486=EDGE_CURVE('',#391,#392,#241,.T.);
#487=EDGE_CURVE('',#392,#392,#18,.T.);
#488=EDGE_CURVE('',#393,#393,#19,.T.);
#489=EDGE_CURVE('',#393,#394,#242,.T.);
#490=EDGE_CURVE('',#394,#394,#20,.T.);
#491=ORIENTED_EDGE('',*,*,#395,.T.);
#492=ORIENTED_EDGE('',*,*,#396,.T.);
#493=ORIENTED_EDGE('',*,*,#397,.F.);
#494=ORIENTED_EDGE('',*,*,#398,.F.);
#495=ORIENTED_EDGE('',*,*,#399,.T.);
#496=ORIENTED_EDGE('',*,*,#398,.T.);
#497=ORIENTED_EDGE('',*,*,#400,.F.);
#498=ORIENTED_EDGE('',*,*,#401,.F.);
#499=ORIENTED_EDGE('',*,*,#402,.T.);
#500=ORIENTED_EDGE('',*,*,#401,.T.);
#501=ORIENTED_EDGE('',*,*,#403,.F.);
#502=ORIENTED_EDGE('',*,*,#404,.F.);
#503=ORIENTED_EDGE('',*,*,#405,.T.);
#504=ORIENTED_EDGE('',*,*,#404,.T.);
#505=ORIENTED_EDGE('',*,*,#406,.F.);
#506=ORIENTED_EDGE('',*,*,#396,.F.);
#507=ORIENTED_EDGE('',*,*,#406,.T.);
#508=ORIENTED_EDGE('',*,*,#403,.T.);
#509=ORIENTED_EDGE('',*,*,#400,.T.);
#510=ORIENTED_EDGE('',*,*,#397,.T.);
#511=ORIENTED_EDGE('',*,*,#405,.F.);
#512=ORIENTED_EDGE('',*,*,#395,.F.);
#513=ORIENTED_EDGE('',*,*,#399,.F.);
#514=ORIENTED_EDGE('',*,*,#402,.F.);
#515=ORIENTED_EDGE('',*,*,#407,.T.);
#516=ORIENTED_EDGE('',*,*,#408,.T.);
#517=ORIENTED_EDGE('',*,*,#409,.F.);
#518=ORIENTED_EDGE('',*,*,#410,.F.);
#519=ORIENTED_EDGE('',*,*,#411,.T.);
#520=ORIENTED_EDGE('',*,*,#410,.T.);
#521=ORIENTED_EDGE('',*,*,#412,.F.);
#522=ORIENTED_EDGE('',*,*,#413,.F.);
#523=ORIENTED_EDGE('',*,*,#414,.T.);
#524=ORIENTED_EDGE('',*,*,#413,.T.);
#525=ORIENTED_EDGE('',*,*,#415,.F.);
#526=ORIENTED_EDGE('',*,*,#416,.F.);
#527=ORIENTED_EDGE('',*,*,#417,.T.);
#528=ORIENTED_EDGE('',*,*,#416,.T.);
#529=ORIENTED_EDGE('',*,*,#418,.F.);
#530=ORIENTED_EDGE('',*,*,#408,.F.);
#531=ORIENTED_EDGE('',*,*,#418,.T.);
#532=ORIENTED_EDGE('',*,*,#415,.T.);
#533=ORIENTED_EDGE('',*,*,#412,.T.);
#534=ORIENTED_EDGE('',*,*,#409,.T.);
#535=ORIENTED_EDGE('',*,*,#417,.F.);
#536=ORIENTED_EDGE('',*,*,#407,.F.);
#537=ORIENTED_EDGE('',*,*,#411,.F.);
#538=ORIENTED_EDGE('',*,*,#414,.F.);
#539=ORIENTED_EDGE('',*,*,#419,.T.);
#540=ORIENTED_EDGE('',*,*,#420,.T.);
#541=ORIENTED_EDGE('',*,*,#421,.F.);
#542=ORIENTED_EDGE('',*,*,#422,.F.);
#543=ORIENTED_EDGE('',*,*,#423,.T.);
#544=ORIENTED_EDGE('',*,*,#422,.T.);
#545=ORIENTED_EDGE('',*,*,#424,.F.);
#546=ORIENTED_EDGE('',*,*,#425,.F.);
#547=ORIENTED_EDGE('',*,*,#426,.T.);
#548=ORIENTED_EDGE('',*,*,#425,.T.);
#549=ORIENTED_EDGE('',*,*,#427,.F.);
#550=ORIENTED_EDGE('',*,*,#428,.F.);
#551=ORIENTED_EDGE('',*,*,#429,.T.);
#552=ORIENTED_EDGE('',*,*,#428,.T.);
#553=ORIENTED_EDGE('',*,*,#430,.F.);
#554=ORIENTED_EDGE('',*,*,#420,.F.);
#555=ORIENTED_EDGE('',*,*,#430,.T.);
#556=ORIENTED_EDGE('',*,*,#427,.T.);
#557=ORIENTED_EDGE('',*,*,#424,.T.);
#558=ORIENTED_EDGE('',*,*,#421,.T.);
#559=ORIENTED_EDGE('',*,*,#429,.F.);
#560=ORIENTED_EDGE('',*,*,#419,.F.);
#561=ORIENTED_EDGE('',*,*,#423,.F.);
#562=ORIENTED_EDGE('',*,*,#426,.F.);
#563=ORIENTED_EDGE('',*,*,#431,.T.);
#564=ORIENTED_EDGE('',*,*,#432,.T.);
#565=ORIENTED_EDGE('',*,*,#433,.F.);
#566=ORIENTED_EDGE('',*,*,#434,.F.);
#567=ORIENTED_EDGE('',*,*,#435,.T.);
#568=ORIENTED_EDGE('',*,*,#434,.T.);
#569=ORIENTED_EDGE('',*,*,#436,.F.);
#570=ORIENTED_EDGE('',*,*,#437,.F.);
#571=ORIENTED_EDGE('',*,*,#438,.T.);
#572=ORIENTED_EDGE('',*,*,#437,.T.);
#573=ORIENTED_EDGE('',*,*,#439,.F.);
#574=ORIENTED_EDGE('',*,*,#440,.F.);
#575=ORIENTED_EDGE('',*,*,#441,.T.);
#576=ORIENTED_EDGE('',*,*,#440,.T.);
#577=ORIENTED_EDGE('',*,*,#442,.F.);
#578=ORIENTED_EDGE('',*,*,#432,.F.);
#579=ORIENTED_EDGE('',*,*,#442,.T.);
#580=ORIENTED_EDGE('',*,*,#439,.T.);
#581=ORIENTED_EDGE('',*,*,#436,.T.);
#582=ORIENTED_EDGE('',*,*,#433,.T.);
#583=ORIENTED_EDGE('',*,*,#441,.F.);
#584=ORIENTED_EDGE('',*,*,#431,.F.);
#585=ORIENTED_EDGE('',*,*,#435,.F.);
#586=ORIENTED_EDGE('',*,*,#438,.F.);
#587=ORIENTED_EDGE('',*,*,#443,.T.);
#588=ORIENTED_EDGE('',*,*,#444,.T.);
#589=ORIENTED_EDGE('',*,*,#445,.F.);
#590=ORIENTED_EDGE('',*,*,#446,.F.);
#591=ORIENTED_EDGE('',*,*,#447,.T.);
#592=ORIENTED_EDGE('',*,*,#446,.T.);
#593=ORIENTED_EDGE('',*,*,#448,.F.);
#594=ORIENTED_EDGE('',*,*,#449,.F.);
#595=ORIENTED_EDGE('',*,*,#450,.T.);
#596=ORIENTED_EDGE('',*,*,#449,.T.);
#597=ORIENTED_EDGE('',*,*,#451,.F.);
#598=ORIENTED_EDGE('',*,*,#452,.F.);
#599=ORIENTED_EDGE('',*,*,#453,.T.);
#600=ORIENTED_EDGE('',*,*,#452,.T.);
#601=ORIENTED_EDGE('',*,*,#454,.F.);
#602=ORIENTED_EDGE('',*,*,#444,.F.);
#603=ORIENTED_EDGE('',*,*,#454,.T.);
#604=ORIENTED_EDGE('',*,*,#451,.T.);
#605=ORIENTED_EDGE('',*,*,#448,.T.);
#606=ORIENTED_EDGE('',*,*,#445,.T.);
#607=ORIENTED_EDGE('',*,*,#453,.F.);
#608=ORIENTED_EDGE('',*,*,#443,.F.);
#609=ORIENTED_EDGE('',*,*,#447,.F.);
#610=ORIENTED_EDGE('',*,*,#450,.F.);
#611=ORIENTED_EDGE('',*,*,#455,.T.);
#612=ORIENTED_EDGE('',*,*,#456,.T.);
#613=ORIENTED_EDGE('',*,*,#457,.F.);
#614=ORIENTED_EDGE('',*,*,#458,.F.);
#615=ORIENTED_EDGE('',*,*,#459,.T.);
#616=ORIENTED_EDGE('',*,*,#458,.T.);
#617=ORIENTED_EDGE('',*,*,#460,.F.);
#618=ORIENTED_EDGE('',*,*,#461,.F.);
#619=ORIENTED_EDGE('',*,*,#462,.T.);
#620=ORIENTED_EDGE('',*,*,#461,.T.);
#621=ORIENTED_EDGE('',*,*,#463,.F.);
#622=ORIENTED_EDGE('',*,*,#464,.F.);
#623=ORIENTED_EDGE('',*,*,#465,.T.);
#624=ORIENTED_EDGE('',*,*,#464,.T.);
#625=ORIENTED_EDGE('',*,*,#466,.F.);
#626=ORIENTED_EDGE('',*,*,#456,.F.);
#627=ORIENTED_EDGE('',*,*,#466,.T.);
#628=ORIENTED_EDGE('',*,*,#463,.T.);
#629=ORIENTED_EDGE('',*,*,#460,.T.);
#630=ORIENTED_EDGE('',*,*,#457,.T.);
#631=ORIENTED_EDGE('',*,*,#465,.F.);
#632=ORIENTED_EDGE('',*,*,#455,.F.);
#633=ORIENTED_EDGE('',*,*,#459,.F.);
#634=ORIENTED_EDGE('',*,*,#462,.F.);
#635=ORIENTED_EDGE('',*,*,#467,.T.);
#636=ORIENTED_EDGE('',*,*,#468,.T.);
#637=ORIENTED_EDGE('',*,*,#469,.F.);
#638=ORIENTED_EDGE('',*,*,#470,.F.);
#639=ORIENTED_EDGE('',*,*,#471,.T.);
#640=ORIENTED_EDGE('',*,*,#470,.T.);
#641=ORIENTED_EDGE('',*,*,#472,.F.);
#642=ORIENTED_EDGE('',*,*,#473,.F.);
#643=ORIENTED_EDGE('',*,*,#474,.T.);
#644=ORIENTED_EDGE('',*,*,#473,.T.);
#645=ORIENTED_EDGE('',*,*,#475,.F.);
#646=ORIENTED_EDGE('',*,*,#476,.F.);
#647=ORIENTED_EDGE('',*,*,#477,.T.);
#648=ORIENTED_EDGE('',*,*,#476,.T.);
#649=ORIENTED_EDGE('',*,*,#478,.F.);
#650=ORIENTED_EDGE('',*,*,#468,.F.);
#651=ORIENTED_EDGE('',*,*,#478,.T.);
#652=ORIENTED_EDGE('',*,*,#475,.T.);
#653=ORIENTED_EDGE('',*,*,#472,.T.);
#654=ORIENTED_EDGE('',*,*,#469,.T.);
#655=ORIENTED_EDGE('',*,*,#477,.F.);
#656=ORIENTED_EDGE('',*,*,#467,.F.);
#657=ORIENTED_EDGE('',*,*,#471,.F.);
#658=ORIENTED_EDGE('',*,*,#474,.F.);
#659=ORIENTED_EDGE('',*,*,#479,.F.);
#660=ORIENTED_EDGE('',*,*,#480,.T.);
#661=ORIENTED_EDGE('',*,*,#481,.T.);
#662=ORIENTED_EDGE('',*,*,#480,.F.);
#663=ORIENTED_EDGE('',*,*,#479,.T.);
#664=ORIENTED_EDGE('',*,*,#481,.F.);
#665=ORIENTED_EDGE('',*,*,#482,.F.);
#666=ORIENTED_EDGE('',*,*,#483,.T.);
#667=ORIENTED_EDGE('',*,*,#484,.T.);
#668=ORIENTED_EDGE('',*,*,#483,.F.);
#669=ORIENTED_EDGE('',*,*,#482,.T.);
#670=ORIENTED_EDGE('',*,*,#484,.F.);
#671=ORIENTED_EDGE('',*,*,#485,.F.);
#672=ORIENTED_EDGE('',*,*,#486,.T.);
#673=ORIENTED_EDGE('',*,*,#487,.T.);
#674=ORIENTED_EDGE('',*,*,#486,.F.);
#675=ORIENTED_EDGE('',*,*,#485,.T.);
#676=ORIENTED_EDGE('',*,*,#487,.F.);
#677=ORIENTED_EDGE('',*,*,#488,.F.);
#678=ORIENTED_EDGE('',*,*,#489,.T.);
#679=ORIENTED_EDGE('',*,*,#490,.T.);
#680=ORIENTED_EDGE('',*,*,#489,.F.);
#681=ORIENTED_EDGE('',*,*,#488,.T.);
#682=ORIENTED_EDGE('',*,*,#490,.F.);
#683=PLANE('',#811);
#684=PLANE('',#812);
#685=PLANE('',#813);
#686=PLANE('',#814);
#687=PLANE('',#815);
#688=PLANE('',#816);
#689=PLANE('',#817);
#690=PLANE('',#818);
#691=PLANE('',#819);
#692=PLANE('',#820);
#693=PLANE('',#821);
#694=PLANE('',#822);
#695=PLANE('',#823);
#696=PLANE('',#824);
#697=PLANE('',#825);
#698=PLANE('',#826);
#699=PLANE('',#827);
#700=PLANE('',#828);
#701=PLANE('',#829);
#702=PLANE('',#830);
#703=PLANE('',#831);
#704=PLANE('',#832);
#705=PLANE('',#833);
#706=PLANE('',#834);
#707=PLANE('',#835);
#708=PLANE('',#836);
#709=PLANE('',#837);
#710=PLANE('',#838);
#711=PLANE('',#839);
#712=PLANE('',#840);
#713=PLANE('',#841);
#714=PLANE('',#842);
#715=PLANE('',#843);
#716=PLANE('',#844);
#717=PLANE('',#845);
#718=PLANE('',#846);
#719=PLANE('',#847);
#720=PLANE('',#848);
#721=PLANE('',#849);
#722=PLANE('',#850);
#723=PLANE('',#851);
#724=PLANE('',#852);
#725=PLANE('',#856);
#726=PLANE('',#857);
#727=PLANE('',#861);
#728=PLANE('',#862);
#729=PLANE('',#866);
#730=PLANE('',#867);
#731=PLANE('',#871);
#732=PLANE('',#872);
#733=ADVANCED_FACE('',(#47),#683,.T.);
#734=ADVANCED_FACE('',(#48),#684,.T.);
#735=ADVANCED_FACE('',(#49),#685,.T.);
#736=ADVANCED_FACE('',(#50),#686,.T.);
#737=ADVANCED_FACE('',(#51),#687,.T.);
#738=ADVANCED_FACE('',(#52),#688,.F.);
#739=ADVANCED_FACE('',(#53),#689,.T.);
#740=ADVANCED_FACE('',(#54),#690,.T.);
#741=ADVANCED_FACE('',(#55),#691,.T.);
#742=ADVANCED_FACE('',(#56),#692,.T.);
#743=ADVANCED_FACE('',(#57),#693,.T.);
#744=ADVANCED_FACE('',(#58),#694,.F.);
#745=ADVANCED_FACE('',(#59),#695,.T.);
#746=ADVANCED_FACE('',(#60),#696,.T.);
#747=ADVANCED_FACE('',(#61),#697,.T.);
#748=ADVANCED_FACE('',(#62),#698,.T.);
#749=ADVANCED_FACE('',(#63),#699,.T.);
#750=ADVANCED_FACE('',(#64),#700,.F.);
#751=ADVANCED_FACE('',(#65),#701,.T.);
#752=ADVANCED_FACE('',(#66),#702,.T.);
#753=ADVANCED_FACE('',(#67),#703,.T.);
#754=ADVANCED_FACE('',(#68),#704,.T.);
#755=ADVANCED_FACE('',(#69),#705,.T.);
#756=ADVANCED_FACE('',(#70),#706,.F.);
#757=ADVANCED_FACE('',(#71),#707,.T.);
#758=ADVANCED_FACE('',(#72),#708,.T.);
#759=ADVANCED_FACE('',(#73),#709,.T.);
#760=ADVANCED_FACE('',(#74),#710,.T.);
#761=ADVANCED_FACE('',(#75),#711,.T.);
#762=ADVANCED_FACE('',(#76),#712,.F.);
#763=ADVANCED_FACE('',(#77),#713,.T.);
#764=ADVANCED_FACE('',(#78),#714,.T.);
#765=ADVANCED_FACE('',(#79),#715,.T.);
#766=ADVANCED_FACE('',(#80),#716,.T.);
#767=ADVANCED_FACE('',(#81),#717,.T.);
#768=ADVANCED_FACE('',(#82),#718,.F.);
#769=ADVANCED_FACE('',(#83),#719,.T.);
#770=ADVANCED_FACE('',(#84),#720,.T.);
#771=ADVANCED_FACE('',(#85),#721,.T.);
#772=ADVANCED_FACE('',(#86),#722,.T.);
#773=ADVANCED_FACE('',(#87),#723,.T.);
#774=ADVANCED_FACE('',(#88),#724,.F.);
#775=ADVANCED_FACE('',(#89),#21,.T.);
#776=ADVANCED_FACE('',(#90),#725,.T.);
#777=ADVANCED_FACE('',(#91),#726,.F.);
#778=ADVANCED_FACE('',(#92),#22,.T.);
#779=ADVANCED_FACE('',(#93),#727,.T.);
#780=ADVANCED_FACE('',(#94),#728,.F.);
#781=ADVANCED_FACE('',(#95),#23,.T.);
#782=ADVANCED_FACE('',(#96),#729,.T.);
#783=ADVANCED_FACE('',(#97),#730,.F.);
#784=ADVANCED_FACE('',(#98),#24,.T.);
#785=ADVANCED_FACE('',(#99),#731,.T.);
#786=ADVANCED_FACE('',(#100),#732,.F.);
#787=CLOSED_SHELL('',(#733,#734,#735,#736,#737,#738));
#788=CLOSED_SHELL('',(#739,#740,#741,#742,#743,#744));
#789=CLOSED_SHELL('',(#745,#746,#747,#748,#749,#750));
#790=CLOSED_SHELL('',(#751,#752,#753,#754,#755,#756));
#791=CLOSED_SHELL('',(#757,#758,#759,#760,#761,#762));
#792=CLOSED_SHELL('',(#763,#764,#765,#766,#767,#768));
#793=CLOSED_SHELL('',(#769,#770,#771,#772,#773,#774));
#794=CLOSED_SHELL('',(#775,#776,#777));
#795=CLOSED_SHELL('',(#778,#779,#780));
#796=CLOSED_SHELL('',(#781,#782,#783));
#797=CLOSED_SHELL('',(#784,#785,#786));
#798=DERIVED_UNIT_ELEMENT(#800,1.);
#799=DERIVED_UNIT_ELEMENT(#1307,-3.);
#800=(
MASS_UNIT()
NAMED_UNIT(*)
SI_UNIT(.KILO.,.GRAM.)
);
#801=DERIVED_UNIT((#798,#799));
#802=MEASURE_REPRESENTATION_ITEM('density measure',
POSITIVE_RATIO_MEASURE(7850.),#801);
#803=PROPERTY_DEFINITION_REPRESENTATION(#808,#805);
#804=PROPERTY_DEFINITION_REPRESENTATION(#809,#806);
#805=REPRESENTATION('material name',(#807),#1304);
#806=REPRESENTATION('density',(#802),#1304);
#807=DESCRIPTIVE_REPRESENTATION_ITEM('Steel','Steel');
#808=PROPERTY_DEFINITION('material property','material name',#1314);
#809=PROPERTY_DEFINITION('material property','density of part',#1314);
#810=AXIS2_PLACEMENT_3D('',#1087,#873,#874);
#811=AXIS2_PLACEMENT_3D('',#1088,#875,#876);
#812=AXIS2_PLACEMENT_3D('',#1097,#881,#882);
#813=AXIS2_PLACEMENT_3D('',#1103,#886,#887);
#814=AXIS2_PLACEMENT_3D('',#1109,#891,#892);
#815=AXIS2_PLACEMENT_3D('',#1112,#895,#896);
#816=AXIS2_PLACEMENT_3D('',#1113,#897,#898);
#817=AXIS2_PLACEMENT_3D('',#1114,#899,#900);
#818=AXIS2_PLACEMENT_3D('',#1123,#905,#906);
#819=AXIS2_PLACEMENT_3D('',#1129,#910,#911);
#820=AXIS2_PLACEMENT_3D('',#1135,#915,#916);
#821=AXIS2_PLACEMENT_3D('',#1138,#919,#920);
#822=AXIS2_PLACEMENT_3D('',#1139,#921,#922);
#823=AXIS2_PLACEMENT_3D('',#1140,#923,#924);
#824=AXIS2_PLACEMENT_3D('',#1149,#929,#930);
#825=AXIS2_PLACEMENT_3D('',#1155,#934,#935);
#826=AXIS2_PLACEMENT_3D('',#1161,#939,#940);
#827=AXIS2_PLACEMENT_3D('',#1164,#943,#944);
#828=AXIS2_PLACEMENT_3D('',#1165,#945,#946);
#829=AXIS2_PLACEMENT_3D('',#1166,#947,#948);
#830=AXIS2_PLACEMENT_3D('',#1175,#953,#954);
#831=AXIS2_PLACEMENT_3D('',#1181,#958,#959);
#832=AXIS2_PLACEMENT_3D('',#1187,#963,#964);
#833=AXIS2_PLACEMENT_3D('',#1190,#967,#968);
#834=AXIS2_PLACEMENT_3D('',#1191,#969,#970);
#835=AXIS2_PLACEMENT_3D('',#1192,#971,#972);
#836=AXIS2_PLACEMENT_3D('',#1201,#977,#978);
#837=AXIS2_PLACEMENT_3D('',#1207,#982,#983);
#838=AXIS2_PLACEMENT_3D('',#1213,#987,#988);
#839=AXIS2_PLACEMENT_3D('',#1216,#991,#992);
#840=AXIS2_PLACEMENT_3D('',#1217,#993,#994);
#841=AXIS2_PLACEMENT_3D('',#1218,#995,#996);
#842=AXIS2_PLACEMENT_3D('',#1227,#1001,#1002);
#843=AXIS2_PLACEMENT_3D('',#1233,#1006,#1007);
#844=AXIS2_PLACEMENT_3D('',#1239,#1011,#1012);
#845=AXIS2_PLACEMENT_3D('',#1242,#1015,#1016);
#846=AXIS2_PLACEMENT_3D('',#1243,#1017,#1018);
#847=AXIS2_PLACEMENT_3D('',#1244,#1019,#1020);
#848=AXIS2_PLACEMENT_3D('',#1253,#1025,#1026);
#849=AXIS2_PLACEMENT_3D('',#1259,#1030,#1031);
#850=AXIS2_PLACEMENT_3D('',#1265,#1035,#1036);
#851=AXIS2_PLACEMENT_3D('',#1268,#1039,#1040);
#852=AXIS2_PLACEMENT_3D('',#1269,#1041,#1042);
#853=AXIS2_PLACEMENT_3D('',#1270,#1043,#1044);
#854=AXIS2_PLACEMENT_3D('',#1272,#1045,#1046);
#855=AXIS2_PLACEMENT_3D('',#1275,#1048,#1049);
#856=AXIS2_PLACEMENT_3D('',#1276,#1050,#1051);
#857=AXIS2_PLACEMENT_3D('',#1277,#1052,#1053);
#858=AXIS2_PLACEMENT_3D('',#1278,#1054,#1055);
#859=AXIS2_PLACEMENT_3D('',#1280,#1056,#1057);
#860=AXIS2_PLACEMENT_3D('',#1283,#1059,#1060);
#861=AXIS2_PLACEMENT_3D('',#1284,#1061,#1062);
#862=AXIS2_PLACEMENT_3D('',#1285,#1063,#1064);
#863=AXIS2_PLACEMENT_3D('',#1286,#1065,#1066);
#864=AXIS2_PLACEMENT_3D('',#1288,#1067,#1068);
#865=AXIS2_PLACEMENT_3D('',#1291,#1070,#1071);
#866=AXIS2_PLACEMENT_3D('',#1292,#1072,#1073);
#867=AXIS2_PLACEMENT_3D('',#1293,#1074,#1075);
#868=AXIS2_PLACEMENT_3D('',#1294,#1076,#1077);
#869=AXIS2_PLACEMENT_3D('',#1296,#1078,#1079);
#870=AXIS2_PLACEMENT_3D('',#1299,#1081,#1082);
#871=AXIS2_PLACEMENT_3D('',#1300,#1083,#1084);
#872=AXIS2_PLACEMENT_3D('',#1301,#1085,#1086);
#873=DIRECTION('axis',(0.,0.,1.));
#874=DIRECTION('refdir',(1.,0.,0.));
#875=DIRECTION('center_axis',(0.,1.,0.));
#876=DIRECTION('ref_axis',(-1.,0.,0.));
#877=DIRECTION('',(-1.,0.,0.));
#878=DIRECTION('',(0.,0.,1.));
#879=DIRECTION('',(-1.,0.,0.));
#880=DIRECTION('',(0.,0.,1.));
#881=DIRECTION('center_axis',(1.,0.,0.));
#882=DIRECTION('ref_axis',(0.,1.,0.));
#883=DIRECTION('',(0.,1.,0.));
#884=DIRECTION('',(0.,1.,0.));
#885=DIRECTION('',(0.,0.,1.));
#886=DIRECTION('center_axis',(0.,-1.,0.));
#887=DIRECTION('ref_axis',(1.,0.,0.));
#888=DIRECTION('',(1.,0.,0.));
#889=DIRECTION('',(1.,0.,0.));
#890=DIRECTION('',(0.,0.,1.));
#891=DIRECTION('center_axis',(-1.,0.,0.));
#892=DIRECTION('ref_axis',(0.,-1.,0.));
#893=DIRECTION('',(0.,-1.,0.));
#894=DIRECTION('',(0.,-1.,0.));
#895=DIRECTION('center_axis',(0.,0.,1.));
#896=DIRECTION('ref_axis',(1.,0.,0.));
#897=DIRECTION('center_axis',(0.,0.,1.));
#898=DIRECTION('ref_axis',(1.,0.,0.));
#899=DIRECTION('center_axis',(0.,1.,0.));
#900=DIRECTION('ref_axis',(-1.,0.,0.));
#901=DIRECTION('',(-1.,0.,0.));
#902=DIRECTION('',(0.,0.,1.));
#903=DIRECTION('',(-1.,0.,0.));
#904=DIRECTION('',(0.,0.,1.));
#905=DIRECTION('center_axis',(1.,0.,0.));
#906=DIRECTION('ref_axis',(0.,1.,0.));
#907=DIRECTION('',(0.,1.,0.));
#908=DIRECTION('',(0.,1.,0.));
#909=DIRECTION('',(0.,0.,1.));
#910=DIRECTION('center_axis',(0.,-1.,0.));
#911=DIRECTION('ref_axis',(1.,0.,0.));
#912=DIRECTION('',(1.,0.,0.));
#913=DIRECTION('',(1.,0.,0.));
#914=DIRECTION('',(0.,0.,1.));
#915=DIRECTION('center_axis',(-1.,0.,0.));
#916=DIRECTION('ref_axis',(0.,-1.,0.));
#917=DIRECTION('',(0.,-1.,0.));
#918=DIRECTION('',(0.,-1.,0.));
#919=DIRECTION('center_axis',(0.,0.,1.));
#920=DIRECTION('ref_axis',(1.,0.,0.));
#921=DIRECTION('center_axis',(0.,0.,1.));
#922=DIRECTION('ref_axis',(1.,0.,0.));
#923=DIRECTION('center_axis',(0.,1.,0.));
#924=DIRECTION('ref_axis',(-1.,0.,0.));
#925=DIRECTION('',(-1.,0.,0.));
#926=DIRECTION('',(0.,0.,1.));
#927=DIRECTION('',(-1.,0.,0.));
#928=DIRECTION('',(0.,0.,1.));
#929=DIRECTION('center_axis',(1.,0.,0.));
#930=DIRECTION('ref_axis',(0.,1.,0.));
#931=DIRECTION('',(0.,1.,0.));
#932=DIRECTION('',(0.,1.,0.));
#933=DIRECTION('',(0.,0.,1.));
#934=DIRECTION('center_axis',(0.,-1.,0.));
#935=DIRECTION('ref_axis',(1.,0.,0.));
#936=DIRECTION('',(1.,0.,0.));
#937=DIRECTION('',(1.,0.,0.));
#938=DIRECTION('',(0.,0.,1.));
#939=DIRECTION('center_axis',(-1.,0.,0.));
#940=DIRECTION('ref_axis',(0.,-1.,0.));
#941=DIRECTION('',(0.,-1.,0.));
#942=DIRECTION('',(0.,-1.,0.));
#943=DIRECTION('center_axis',(0.,0.,1.));
#944=DIRECTION('ref_axis',(1.,0.,0.));
#945=DIRECTION('center_axis',(0.,0.,1.));
#946=DIRECTION('ref_axis',(1.,0.,0.));
#947=DIRECTION('center_axis',(0.,1.,0.));
#948=DIRECTION('ref_axis',(-1.,0.,0.));
#949=DIRECTION('',(-1.,0.,0.));
#950=DIRECTION('',(0.,0.,1.));
#951=DIRECTION('',(-1.,0.,0.));
#952=DIRECTION('',(0.,0.,1.));
#953=DIRECTION('center_axis',(1.,0.,0.));
#954=DIRECTION('ref_axis',(0.,1.,0.));
#955=DIRECTION('',(0.,1.,0.));
#956=DIRECTION('',(0.,1.,0.));
#957=DIRECTION('',(0.,0.,1.));
#958=DIRECTION('center_axis',(0.,-1.,0.));
#959=DIRECTION('ref_axis',(1.,0.,0.));
#960=DIRECTION('',(1.,0.,0.));
#961=DIRECTION('',(1.,0.,0.));
#962=DIRECTION('',(0.,0.,1.));
#963=DIRECTION('center_axis',(-1.,0.,0.));
#964=DIRECTION('ref_axis',(0.,-1.,0.));
#965=DIRECTION('',(0.,-1.,0.));
#966=DIRECTION('',(0.,-1.,0.));
#967=DIRECTION('center_axis',(0.,0.,1.));
#968=DIRECTION('ref_axis',(1.,0.,0.));
#969=DIRECTION('center_axis',(0.,0.,1.));
#970=DIRECTION('ref_axis',(1.,0.,0.));
#971=DIRECTION('center_axis',(0.,1.,0.));
#972=DIRECTION('ref_axis',(-1.,0.,0.));
#973=DIRECTION('',(-1.,0.,0.));
#974=DIRECTION('',(0.,0.,1.));
#975=DIRECTION('',(-1.,0.,0.));
#976=DIRECTION('',(0.,0.,1.));
#977=DIRECTION('center_axis',(1.,0.,0.));
#978=DIRECTION('ref_axis',(0.,1.,0.));
#979=DIRECTION('',(0.,1.,0.));
#980=DIRECTION('',(0.,1.,0.));
#981=DIRECTION('',(0.,0.,1.));
#982=DIRECTION('center_axis',(0.,-1.,0.));
#983=DIRECTION('ref_axis',(1.,0.,0.));
#984=DIRECTION('',(1.,0.,0.));
#985=DIRECTION('',(1.,0.,0.));
#986=DIRECTION('',(0.,0.,1.));
#987=DIRECTION('center_axis',(-1.,0.,0.));
#988=DIRECTION('ref_axis',(0.,-1.,0.));
#989=DIRECTION('',(0.,-1.,0.));
#990=DIRECTION('',(0.,-1.,0.));
#991=DIRECTION('center_axis',(0.,0.,1.));
#992=DIRECTION('ref_axis',(1.,0.,0.));
#993=DIRECTION('center_axis',(0.,0.,1.));
#994=DIRECTION('ref_axis',(1.,0.,0.));
#995=DIRECTION('center_axis',(0.,1.,0.));
#996=DIRECTION('ref_axis',(-1.,0.,0.));
#997=DIRECTION('',(-1.,0.,0.));
#998=DIRECTION('',(0.,0.,1.));
#999=DIRECTION('',(-1.,0.,0.));
#1000=DIRECTION('',(0.,0.,1.));
#1001=DIRECTION('center_axis',(1.,0.,0.));
#1002=DIRECTION('ref_axis',(0.,1.,0.));
#1003=DIRECTION('',(0.,1.,0.));
#1004=DIRECTION('',(0.,1.,0.));
#1005=DIRECTION('',(0.,0.,1.));
#1006=DIRECTION('center_axis',(0.,-1.,0.));
#1007=DIRECTION('ref_axis',(1.,0.,0.));
#1008=DIRECTION('',(1.,0.,0.));
#1009=DIRECTION('',(1.,0.,0.));
#1010=DIRECTION('',(0.,0.,1.));
#1011=DIRECTION('center_axis',(-1.,0.,0.));
#1012=DIRECTION('ref_axis',(0.,-1.,0.));
#1013=DIRECTION('',(0.,-1.,0.));
#1014=DIRECTION('',(0.,-1.,0.));
#1015=DIRECTION('center_axis',(0.,0.,1.));
#1016=DIRECTION('ref_axis',(1.,0.,0.));
#1017=DIRECTION('center_axis',(0.,0.,1.));
#1018=DIRECTION('ref_axis',(1.,0.,0.));
#1019=DIRECTION('center_axis',(0.,1.,0.));
#1020=DIRECTION('ref_axis',(-1.,0.,0.));
#1021=DIRECTION('',(-1.,0.,0.));
#1022=DIRECTION('',(0.,0.,1.));
#1023=DIRECTION('',(-1.,0.,0.));
#1024=DIRECTION('',(0.,0.,1.));
#1025=DIRECTION('center_axis',(1.,0.,0.));
#1026=DIRECTION('ref_axis',(0.,1.,0.));
#1027=DIRECTION('',(0.,1.,0.));
#1028=DIRECTION('',(0.,1.,0.));
#1029=DIRECTION('',(0.,0.,1.));
#1030=DIRECTION('center_axis',(0.,-1.,0.));
#1031=DIRECTION('ref_axis',(1.,0.,0.));
#1032=DIRECTION('',(1.,0.,0.));
#1033=DIRECTION('',(1.,0.,0.));
#1034=DIRECTION('',(0.,0.,1.));
#1035=DIRECTION('center_axis',(-1.,0.,0.));
#1036=DIRECTION('ref_axis',(0.,-1.,0.));
#1037=DIRECTION('',(0.,-1.,0.));
#1038=DIRECTION('',(0.,-1.,0.));
#1039=DIRECTION('center_axis',(0.,0.,1.));
#1040=DIRECTION('ref_axis',(1.,0.,0.));
#1041=DIRECTION('center_axis',(0.,0.,1.));
#1042=DIRECTION('ref_axis',(1.,0.,0.));
#1043=DIRECTION('center_axis',(0.,1.,0.));
#1044=DIRECTION('ref_axis',(1.,0.,0.));
#1045=DIRECTION('center_axis',(0.,1.,0.));
#1046=DIRECTION('ref_axis',(1.,0.,0.));
#1047=DIRECTION('',(0.,-1.,0.));
#1048=DIRECTION('center_axis',(0.,1.,0.));
#1049=DIRECTION('ref_axis',(1.,0.,0.));
#1050=DIRECTION('center_axis',(0.,1.,0.));
#1051=DIRECTION('ref_axis',(1.,0.,0.));
#1052=DIRECTION('center_axis',(0.,1.,0.));
#1053=DIRECTION('ref_axis',(1.,0.,0.));
#1054=DIRECTION('center_axis',(0.,1.,0.));
#1055=DIRECTION('ref_axis',(1.,0.,0.));
#1056=DIRECTION('center_axis',(0.,1.,0.));
#1057=DIRECTION('ref_axis',(1.,0.,0.));
#1058=DIRECTION('',(0.,-1.,0.));
#1059=DIRECTION('center_axis',(0.,1.,0.));
#1060=DIRECTION('ref_axis',(1.,0.,0.));
#1061=DIRECTION('center_axis',(0.,1.,0.));
#1062=DIRECTION('ref_axis',(1.,0.,0.));
#1063=DIRECTION('center_axis',(0.,1.,0.));
#1064=DIRECTION('ref_axis',(1.,0.,0.));
#1065=DIRECTION('center_axis',(0.,1.,0.));
#1066=DIRECTION('ref_axis',(1.,0.,0.));
#1067=DIRECTION('center_axis',(0.,1.,0.));
#1068=DIRECTION('ref_axis',(1.,0.,0.));
#1069=DIRECTION('',(0.,-1.,0.));
#1070=DIRECTION('center_axis',(0.,1.,0.));
#1071=DIRECTION('ref_axis',(1.,0.,0.));
#1072=DIRECTION('center_axis',(0.,1.,0.));
#1073=DIRECTION('ref_axis',(1.,0.,0.));
#1074=DIRECTION('center_axis',(0.,1.,0.));
#1075=DIRECTION('ref_axis',(1.,0.,0.));
#1076=DIRECTION('center_axis',(0.,1.,0.));
#1077=DIRECTION('ref_axis',(1.,0.,0.));
#1078=DIRECTION('center_axis',(0.,1.,0.));
#1079=DIRECTION('ref_axis',(1.,0.,0.));
#1080=DIRECTION('',(0.,-1.,0.));
#1081=DIRECTION('center_axis',(0.,1.,0.));
#1082=DIRECTION('ref_axis',(1.,0.,0.));
#1083=DIRECTION('center_axis',(0.,1.,0.));
#1084=DIRECTION('ref_axis',(1.,0.,0.));
#1085=DIRECTION('center_axis',(0.,1.,0.));
#1086=DIRECTION('ref_axis',(1.,0.,0.));
#1087=CARTESIAN_POINT('',(0.,0.,0.));
#1088=CARTESIAN_POINT('Origin',(488.,70.,0.));
#1089=CARTESIAN_POINT('',(488.,70.,0.));
#1090=CARTESIAN_POINT('',(0.,70.,0.));
#1091=CARTESIAN_POINT('',(488.,70.,0.));
#1092=CARTESIAN_POINT('',(0.,70.,6.));
#1093=CARTESIAN_POINT('',(0.,70.,0.));
#1094=CARTESIAN_POINT('',(488.,70.,6.));
#1095=CARTESIAN_POINT('',(488.,70.,6.));
#1096=CARTESIAN_POINT('',(488.,70.,0.));
#1097=CARTESIAN_POINT('Origin',(488.,-70.,0.));
#1098=CARTESIAN_POINT('',(488.,-70.,0.));
#1099=CARTESIAN_POINT('',(488.,-70.,0.));
#1100=CARTESIAN_POINT('',(488.,-70.,6.));
#1101=CARTESIAN_POINT('',(488.,-70.,6.));
#1102=CARTESIAN_POINT('',(488.,-70.,0.));
#1103=CARTESIAN_POINT('Origin',(0.,-70.,0.));
#1104=CARTESIAN_POINT('',(0.,-70.,0.));
#1105=CARTESIAN_POINT('',(0.,-70.,0.));
#1106=CARTESIAN_POINT('',(0.,-70.,6.));
#1107=CARTESIAN_POINT('',(0.,-70.,6.));
#1108=CARTESIAN_POINT('',(0.,-70.,0.));
#1109=CARTESIAN_POINT('Origin',(0.,70.,0.));
#1110=CARTESIAN_POINT('',(0.,70.,0.));
#1111=CARTESIAN_POINT('',(0.,70.,6.));
#1112=CARTESIAN_POINT('Origin',(244.,0.,6.));
#1113=CARTESIAN_POINT('Origin',(244.,0.,0.));
#1114=CARTESIAN_POINT('Origin',(488.,70.,0.));
#1115=CARTESIAN_POINT('',(488.,70.,0.));
#1116=CARTESIAN_POINT('',(0.,70.,0.));
#1117=CARTESIAN_POINT('',(488.,70.,0.));
#1118=CARTESIAN_POINT('',(0.,70.,6.));
#1119=CARTESIAN_POINT('',(0.,70.,0.));
#1120=CARTESIAN_POINT('',(488.,70.,6.));
#1121=CARTESIAN_POINT('',(488.,70.,6.));
#1122=CARTESIAN_POINT('',(488.,70.,0.));
#1123=CARTESIAN_POINT('Origin',(488.,-70.,0.));
#1124=CARTESIAN_POINT('',(488.,-70.,0.));
#1125=CARTESIAN_POINT('',(488.,-70.,0.));
#1126=CARTESIAN_POINT('',(488.,-70.,6.));
#1127=CARTESIAN_POINT('',(488.,-70.,6.));
#1128=CARTESIAN_POINT('',(488.,-70.,0.));
#1129=CARTESIAN_POINT('Origin',(0.,-70.,0.));
#1130=CARTESIAN_POINT('',(0.,-70.,0.));
#1131=CARTESIAN_POINT('',(0.,-70.,0.));
#1132=CARTESIAN_POINT('',(0.,-70.,6.));
#1133=CARTESIAN_POINT('',(0.,-70.,6.));
#1134=CARTESIAN_POINT('',(0.,-70.,0.));
#1135=CARTESIAN_POINT('Origin',(0.,70.,0.));
#1136=CARTESIAN_POINT('',(0.,70.,0.));
#1137=CARTESIAN_POINT('',(0.,70.,6.));
#1138=CARTESIAN_POINT('Origin',(244.,0.,6.));
#1139=CARTESIAN_POINT('Origin',(244.,0.,0.));
#1140=CARTESIAN_POINT('Origin',(488.,54.,0.));
#1141=CARTESIAN_POINT('',(488.,54.,0.));
#1142=CARTESIAN_POINT('',(0.,54.,0.));
#1143=CARTESIAN_POINT('',(488.,54.,0.));
#1144=CARTESIAN_POINT('',(0.,54.,140.));
#1145=CARTESIAN_POINT('',(0.,54.,0.));
#1146=CARTESIAN_POINT('',(488.,54.,140.));
#1147=CARTESIAN_POINT('',(488.,54.,140.));
#1148=CARTESIAN_POINT('',(488.,54.,0.));
#1149=CARTESIAN_POINT('Origin',(488.,48.,0.));
#1150=CARTESIAN_POINT('',(488.,48.,0.));
#1151=CARTESIAN_POINT('',(488.,48.,0.));
#1152=CARTESIAN_POINT('',(488.,48.,140.));
#1153=CARTESIAN_POINT('',(488.,48.,140.));
#1154=CARTESIAN_POINT('',(488.,48.,0.));
#1155=CARTESIAN_POINT('Origin',(0.,48.,0.));
#1156=CARTESIAN_POINT('',(0.,48.,0.));
#1157=CARTESIAN_POINT('',(0.,48.,0.));
#1158=CARTESIAN_POINT('',(0.,48.,140.));
#1159=CARTESIAN_POINT('',(0.,48.,140.));
#1160=CARTESIAN_POINT('',(0.,48.,0.));
#1161=CARTESIAN_POINT('Origin',(0.,54.,0.));
#1162=CARTESIAN_POINT('',(0.,54.,0.));
#1163=CARTESIAN_POINT('',(0.,54.,140.));
#1164=CARTESIAN_POINT('Origin',(244.,51.,140.));
#1165=CARTESIAN_POINT('Origin',(244.,51.,0.));
#1166=CARTESIAN_POINT('Origin',(488.,-48.,0.));
#1167=CARTESIAN_POINT('',(488.,-48.,0.));
#1168=CARTESIAN_POINT('',(0.,-48.,0.));
#1169=CARTESIAN_POINT('',(488.,-48.,0.));
#1170=CARTESIAN_POINT('',(0.,-48.,140.));
#1171=CARTESIAN_POINT('',(0.,-48.,0.));
#1172=CARTESIAN_POINT('',(488.,-48.,140.));
#1173=CARTESIAN_POINT('',(488.,-48.,140.));
#1174=CARTESIAN_POINT('',(488.,-48.,0.));
#1175=CARTESIAN_POINT('Origin',(488.,-54.,0.));
#1176=CARTESIAN_POINT('',(488.,-54.,0.));
#1177=CARTESIAN_POINT('',(488.,-54.,0.));
#1178=CARTESIAN_POINT('',(488.,-54.,140.));
#1179=CARTESIAN_POINT('',(488.,-54.,140.));
#1180=CARTESIAN_POINT('',(488.,-54.,0.));
#1181=CARTESIAN_POINT('Origin',(0.,-54.,0.));
#1182=CARTESIAN_POINT('',(0.,-54.,0.));
#1183=CARTESIAN_POINT('',(0.,-54.,0.));
#1184=CARTESIAN_POINT('',(0.,-54.,140.));
#1185=CARTESIAN_POINT('',(0.,-54.,140.));
#1186=CARTESIAN_POINT('',(0.,-54.,0.));
#1187=CARTESIAN_POINT('Origin',(0.,-48.,0.));
#1188=CARTESIAN_POINT('',(0.,-48.,0.));
#1189=CARTESIAN_POINT('',(0.,-48.,140.));
#1190=CARTESIAN_POINT('Origin',(244.,-51.,140.));
#1191=CARTESIAN_POINT('Origin',(244.,-51.,0.));
#1192=CARTESIAN_POINT('Origin',(8.,70.,0.));
#1193=CARTESIAN_POINT('',(8.,70.,0.));
#1194=CARTESIAN_POINT('',(0.,70.,0.));
#1195=CARTESIAN_POINT('',(8.,70.,0.));
#1196=CARTESIAN_POINT('',(0.,70.,140.));
#1197=CARTESIAN_POINT('',(0.,70.,0.));
#1198=CARTESIAN_POINT('',(8.,70.,140.));
#1199=CARTESIAN_POINT('',(8.,70.,140.));
#1200=CARTESIAN_POINT('',(8.,70.,0.));
#1201=CARTESIAN_POINT('Origin',(8.,-70.,0.));
#1202=CARTESIAN_POINT('',(8.,-70.,0.));
#1203=CARTESIAN_POINT('',(8.,-70.,0.));
#1204=CARTESIAN_POINT('',(8.,-70.,140.));
#1205=CARTESIAN_POINT('',(8.,-70.,140.));
#1206=CARTESIAN_POINT('',(8.,-70.,0.));
#1207=CARTESIAN_POINT('Origin',(0.,-70.,0.));
#1208=CARTESIAN_POINT('',(0.,-70.,0.));
#1209=CARTESIAN_POINT('',(0.,-70.,0.));
#1210=CARTESIAN_POINT('',(0.,-70.,140.));
#1211=CARTESIAN_POINT('',(0.,-70.,140.));
#1212=CARTESIAN_POINT('',(0.,-70.,0.));
#1213=CARTESIAN_POINT('Origin',(0.,70.,0.));
#1214=CARTESIAN_POINT('',(0.,70.,0.));
#1215=CARTESIAN_POINT('',(0.,70.,140.));
#1216=CARTESIAN_POINT('Origin',(4.,0.,140.));
#1217=CARTESIAN_POINT('Origin',(4.,0.,0.));
#1218=CARTESIAN_POINT('Origin',(488.,45.,0.));
#1219=CARTESIAN_POINT('',(488.,45.,0.));
#1220=CARTESIAN_POINT('',(230.,45.,0.));
#1221=CARTESIAN_POINT('',(488.,45.,0.));
#1222=CARTESIAN_POINT('',(230.,45.,8.));
#1223=CARTESIAN_POINT('',(230.,45.,0.));
#1224=CARTESIAN_POINT('',(488.,45.,8.));
#1225=CARTESIAN_POINT('',(488.,45.,8.));
#1226=CARTESIAN_POINT('',(488.,45.,0.));
#1227=CARTESIAN_POINT('Origin',(488.,-45.,0.));
#1228=CARTESIAN_POINT('',(488.,-45.,0.));
#1229=CARTESIAN_POINT('',(488.,-45.,0.));
#1230=CARTESIAN_POINT('',(488.,-45.,8.));
#1231=CARTESIAN_POINT('',(488.,-45.,8.));
#1232=CARTESIAN_POINT('',(488.,-45.,0.));
#1233=CARTESIAN_POINT('Origin',(230.,-45.,0.));
#1234=CARTESIAN_POINT('',(230.,-45.,0.));
#1235=CARTESIAN_POINT('',(230.,-45.,0.));
#1236=CARTESIAN_POINT('',(230.,-45.,8.));
#1237=CARTESIAN_POINT('',(230.,-45.,8.));
#1238=CARTESIAN_POINT('',(230.,-45.,0.));
#1239=CARTESIAN_POINT('Origin',(230.,45.,0.));
#1240=CARTESIAN_POINT('',(230.,45.,0.));
#1241=CARTESIAN_POINT('',(230.,45.,8.));
#1242=CARTESIAN_POINT('Origin',(359.,0.,8.));
#1243=CARTESIAN_POINT('Origin',(359.,0.,0.));
#1244=CARTESIAN_POINT('Origin',(488.,45.,0.));
#1245=CARTESIAN_POINT('',(488.,45.,0.));
#1246=CARTESIAN_POINT('',(230.,45.,0.));
#1247=CARTESIAN_POINT('',(488.,45.,0.));
#1248=CARTESIAN_POINT('',(230.,45.,8.));
#1249=CARTESIAN_POINT('',(230.,45.,0.));
#1250=CARTESIAN_POINT('',(488.,45.,8.));
#1251=CARTESIAN_POINT('',(488.,45.,8.));
#1252=CARTESIAN_POINT('',(488.,45.,0.));
#1253=CARTESIAN_POINT('Origin',(488.,-45.,0.));
#1254=CARTESIAN_POINT('',(488.,-45.,0.));
#1255=CARTESIAN_POINT('',(488.,-45.,0.));
#1256=CARTESIAN_POINT('',(488.,-45.,8.));
#1257=CARTESIAN_POINT('',(488.,-45.,8.));
#1258=CARTESIAN_POINT('',(488.,-45.,0.));
#1259=CARTESIAN_POINT('Origin',(230.,-45.,0.));
#1260=CARTESIAN_POINT('',(230.,-45.,0.));
#1261=CARTESIAN_POINT('',(230.,-45.,0.));
#1262=CARTESIAN_POINT('',(230.,-45.,8.));
#1263=CARTESIAN_POINT('',(230.,-45.,8.));
#1264=CARTESIAN_POINT('',(230.,-45.,0.));
#1265=CARTESIAN_POINT('Origin',(230.,45.,0.));
#1266=CARTESIAN_POINT('',(230.,45.,0.));
#1267=CARTESIAN_POINT('',(230.,45.,8.));
#1268=CARTESIAN_POINT('Origin',(359.,0.,8.));
#1269=CARTESIAN_POINT('Origin',(359.,0.,0.));
#1270=CARTESIAN_POINT('Origin',(119.,0.,0.));
#1271=CARTESIAN_POINT('',(104.,16.,1.83697019872103E-15));
#1272=CARTESIAN_POINT('Origin',(119.,16.,0.));
#1273=CARTESIAN_POINT('',(104.,0.,1.83697019872103E-15));
#1274=CARTESIAN_POINT('',(104.,0.,1.83697019872103E-15));
#1275=CARTESIAN_POINT('Origin',(119.,0.,0.));
#1276=CARTESIAN_POINT('Origin',(119.,16.,0.));
#1277=CARTESIAN_POINT('Origin',(119.,0.,0.));
#1278=CARTESIAN_POINT('Origin',(119.,0.,0.));
#1279=CARTESIAN_POINT('',(104.,16.,1.83697019872103E-15));
#1280=CARTESIAN_POINT('Origin',(119.,16.,0.));
#1281=CARTESIAN_POINT('',(104.,0.,1.83697019872103E-15));
#1282=CARTESIAN_POINT('',(104.,0.,1.83697019872103E-15));
#1283=CARTESIAN_POINT('Origin',(119.,0.,0.));
#1284=CARTESIAN_POINT('Origin',(119.,16.,0.));
#1285=CARTESIAN_POINT('Origin',(119.,0.,0.));
#1286=CARTESIAN_POINT('Origin',(369.,0.,0.));
#1287=CARTESIAN_POINT('',(354.,16.,1.83697019872103E-15));
#1288=CARTESIAN_POINT('Origin',(369.,16.,0.));
#1289=CARTESIAN_POINT('',(354.,0.,1.83697019872103E-15));
#1290=CARTESIAN_POINT('',(354.,0.,1.83697019872103E-15));
#1291=CARTESIAN_POINT('Origin',(369.,0.,0.));
#1292=CARTESIAN_POINT('Origin',(369.,16.,0.));
#1293=CARTESIAN_POINT('Origin',(369.,0.,0.));
#1294=CARTESIAN_POINT('Origin',(369.,0.,0.));
#1295=CARTESIAN_POINT('',(354.,16.,1.83697019872103E-15));
#1296=CARTESIAN_POINT('Origin',(369.,16.,0.));
#1297=CARTESIAN_POINT('',(354.,0.,1.83697019872103E-15));
#1298=CARTESIAN_POINT('',(354.,0.,1.83697019872103E-15));
#1299=CARTESIAN_POINT('Origin',(369.,0.,0.));
#1300=CARTESIAN_POINT('Origin',(369.,16.,0.));
#1301=CARTESIAN_POINT('Origin',(369.,0.,0.));
#1302=UNCERTAINTY_MEASURE_WITH_UNIT(LENGTH_MEASURE(0.01),#1306,
'DISTANCE_ACCURACY_VALUE',
'Maximum model space distance between geometric entities at asserted c
onnectivities');
#1303=UNCERTAINTY_MEASURE_WITH_UNIT(LENGTH_MEASURE(0.01),#1306,
'DISTANCE_ACCURACY_VALUE',
'Maximum model space distance between geometric entities at asserted c
onnectivities');
#1304=(
GEOMETRIC_REPRESENTATION_CONTEXT(3)
GLOBAL_UNCERTAINTY_ASSIGNED_CONTEXT((#1302))
GLOBAL_UNIT_ASSIGNED_CONTEXT((#1306,#1308,#1309))
REPRESENTATION_CONTEXT('','3D')
);
#1305=(
GEOMETRIC_REPRESENTATION_CONTEXT(3)
GLOBAL_UNCERTAINTY_ASSIGNED_CONTEXT((#1303))
GLOBAL_UNIT_ASSIGNED_CONTEXT((#1306,#1308,#1309))
REPRESENTATION_CONTEXT('','3D')
);
#1306=(
LENGTH_UNIT()
NAMED_UNIT(*)
SI_UNIT(.MILLI.,.METRE.)
);
#1307=(
LENGTH_UNIT()
NAMED_UNIT(*)
SI_UNIT($,.METRE.)
);
#1308=(
NAMED_UNIT(*)
PLANE_ANGLE_UNIT()
SI_UNIT($,.RADIAN.)
);
#1309=(
NAMED_UNIT(*)
SI_UNIT($,.STERADIAN.)
SOLID_ANGLE_UNIT()
);
#1310=SHAPE_DEFINITION_REPRESENTATION(#1311,#1312);
#1311=PRODUCT_DEFINITION_SHAPE('',$,#1314);
#1312=SHAPE_REPRESENTATION('',(#810),#1304);
#1313=PRODUCT_DEFINITION_CONTEXT('part definition',#1318,'design');
#1314=PRODUCT_DEFINITION('EMOCD_Sled','EMOCD_Sled v1',#1315,#1313);
#1315=PRODUCT_DEFINITION_FORMATION('',$,#1320);
#1316=PRODUCT_RELATED_PRODUCT_CATEGORY('EMOCD_Sled v1','EMOCD_Sled v1',
(#1320));
#1317=APPLICATION_PROTOCOL_DEFINITION('international standard',
'automotive_design',2009,#1318);
#1318=APPLICATION_CONTEXT(
'Core Data for Automotive Mechanical Design Process');
#1319=PRODUCT_CONTEXT('part definition',#1318,'mechanical');
#1320=PRODUCT('EMOCD_Sled','EMOCD_Sled v1',$,(#1319));
#1321=PRESENTATION_STYLE_ASSIGNMENT((#1322));
#1322=SURFACE_STYLE_USAGE(.BOTH.,#1323);
#1323=SURFACE_SIDE_STYLE('',(#1324));
#1324=SURFACE_STYLE_FILL_AREA(#1325);
#1325=FILL_AREA_STYLE('Steel - Satin',(#1326));
#1326=FILL_AREA_STYLE_COLOUR('Steel - Satin',#1327);
#1327=COLOUR_RGB('Steel - Satin',0.627450980392157,0.627450980392157,0.627450980392157);
ENDSEC;
END-ISO-10303-21;
