ISO-10303-21;
HEADER;
/* Generated by software containing ST-Developer
 * from STEP Tools, Inc. (www.steptools.com) 
 */

FILE_DESCRIPTION(
/* description */ (''),
/* implementation_level */ '2;1');

FILE_NAME(
/* name */ 'EMOCD_Track_Gen1.step',
/* time_stamp */ '2026-07-28T19:10:10+05:30',
/* author */ (''),
/* organization */ (''),
/* preprocessor_version */ 'ST-DEVELOPER v20.1',
/* originating_system */ 'Autodesk Translation Framework v15.8.0.0',
/* authorisation */ '');

FILE_SCHEMA (('AUTOMOTIVE_DESIGN { 1 0 10303 214 3 1 1 }'));
ENDSEC;

DATA;
#10=MECHANICAL_DESIGN_GEOMETRIC_PRESENTATION_REPRESENTATION('',(#13,#14,
#15,#16,#17,#18,#19,#20),#1240);
#11=SHAPE_REPRESENTATION_RELATIONSHIP('SRR','None',#1247,#12);
#12=ADVANCED_BREP_SHAPE_REPRESENTATION('',(#21,#22,#23,#24,#25,#26,#27,
#28),#1239);
#13=STYLED_ITEM('',(#1256),#21);
#14=STYLED_ITEM('',(#1256),#22);
#15=STYLED_ITEM('',(#1256),#23);
#16=STYLED_ITEM('',(#1256),#24);
#17=STYLED_ITEM('',(#1256),#25);
#18=STYLED_ITEM('',(#1256),#26);
#19=STYLED_ITEM('',(#1256),#27);
#20=STYLED_ITEM('',(#1256),#28);
#21=MANIFOLD_SOLID_BREP('Longeron_P',#765);
#22=MANIFOLD_SOLID_BREP('Longeron_S',#766);
#23=MANIFOLD_SOLID_BREP('GuideRail_P_0',#767);
#24=MANIFOLD_SOLID_BREP('GuideRail_P_1',#768);
#25=MANIFOLD_SOLID_BREP('GuideRail_S_0',#769);
#26=MANIFOLD_SOLID_BREP('GuideRail_S_1',#770);
#27=MANIFOLD_SOLID_BREP('LaunchLock_P',#771);
#28=MANIFOLD_SOLID_BREP('LaunchLock_S',#772);
#29=FACE_OUTER_BOUND('',#77,.T.);
#30=FACE_OUTER_BOUND('',#78,.T.);
#31=FACE_OUTER_BOUND('',#79,.T.);
#32=FACE_OUTER_BOUND('',#80,.T.);
#33=FACE_OUTER_BOUND('',#81,.T.);
#34=FACE_OUTER_BOUND('',#82,.T.);
#35=FACE_OUTER_BOUND('',#83,.T.);
#36=FACE_OUTER_BOUND('',#84,.T.);
#37=FACE_OUTER_BOUND('',#85,.T.);
#38=FACE_OUTER_BOUND('',#86,.T.);
#39=FACE_OUTER_BOUND('',#87,.T.);
#40=FACE_OUTER_BOUND('',#88,.T.);
#41=FACE_OUTER_BOUND('',#89,.T.);
#42=FACE_OUTER_BOUND('',#90,.T.);
#43=FACE_OUTER_BOUND('',#91,.T.);
#44=FACE_OUTER_BOUND('',#92,.T.);
#45=FACE_OUTER_BOUND('',#93,.T.);
#46=FACE_OUTER_BOUND('',#94,.T.);
#47=FACE_OUTER_BOUND('',#95,.T.);
#48=FACE_OUTER_BOUND('',#96,.T.);
#49=FACE_OUTER_BOUND('',#97,.T.);
#50=FACE_OUTER_BOUND('',#98,.T.);
#51=FACE_OUTER_BOUND('',#99,.T.);
#52=FACE_OUTER_BOUND('',#100,.T.);
#53=FACE_OUTER_BOUND('',#101,.T.);
#54=FACE_OUTER_BOUND('',#102,.T.);
#55=FACE_OUTER_BOUND('',#103,.T.);
#56=FACE_OUTER_BOUND('',#104,.T.);
#57=FACE_OUTER_BOUND('',#105,.T.);
#58=FACE_OUTER_BOUND('',#106,.T.);
#59=FACE_OUTER_BOUND('',#107,.T.);
#60=FACE_OUTER_BOUND('',#108,.T.);
#61=FACE_OUTER_BOUND('',#109,.T.);
#62=FACE_OUTER_BOUND('',#110,.T.);
#63=FACE_OUTER_BOUND('',#111,.T.);
#64=FACE_OUTER_BOUND('',#112,.T.);
#65=FACE_OUTER_BOUND('',#113,.T.);
#66=FACE_OUTER_BOUND('',#114,.T.);
#67=FACE_OUTER_BOUND('',#115,.T.);
#68=FACE_OUTER_BOUND('',#116,.T.);
#69=FACE_OUTER_BOUND('',#117,.T.);
#70=FACE_OUTER_BOUND('',#118,.T.);
#71=FACE_OUTER_BOUND('',#119,.T.);
#72=FACE_OUTER_BOUND('',#120,.T.);
#73=FACE_OUTER_BOUND('',#121,.T.);
#74=FACE_OUTER_BOUND('',#122,.T.);
#75=FACE_OUTER_BOUND('',#123,.T.);
#76=FACE_OUTER_BOUND('',#124,.T.);
#77=EDGE_LOOP('',(#477,#478,#479,#480));
#78=EDGE_LOOP('',(#481,#482,#483,#484));
#79=EDGE_LOOP('',(#485,#486,#487,#488));
#80=EDGE_LOOP('',(#489,#490,#491,#492));
#81=EDGE_LOOP('',(#493,#494,#495,#496));
#82=EDGE_LOOP('',(#497,#498,#499,#500));
#83=EDGE_LOOP('',(#501,#502,#503,#504));
#84=EDGE_LOOP('',(#505,#506,#507,#508));
#85=EDGE_LOOP('',(#509,#510,#511,#512));
#86=EDGE_LOOP('',(#513,#514,#515,#516));
#87=EDGE_LOOP('',(#517,#518,#519,#520));
#88=EDGE_LOOP('',(#521,#522,#523,#524));
#89=EDGE_LOOP('',(#525,#526,#527,#528));
#90=EDGE_LOOP('',(#529,#530,#531,#532));
#91=EDGE_LOOP('',(#533,#534,#535,#536));
#92=EDGE_LOOP('',(#537,#538,#539,#540));
#93=EDGE_LOOP('',(#541,#542,#543,#544));
#94=EDGE_LOOP('',(#545,#546,#547,#548));
#95=EDGE_LOOP('',(#549,#550,#551,#552));
#96=EDGE_LOOP('',(#553,#554,#555,#556));
#97=EDGE_LOOP('',(#557,#558,#559,#560));
#98=EDGE_LOOP('',(#561,#562,#563,#564));
#99=EDGE_LOOP('',(#565,#566,#567,#568));
#100=EDGE_LOOP('',(#569,#570,#571,#572));
#101=EDGE_LOOP('',(#573,#574,#575,#576));
#102=EDGE_LOOP('',(#577,#578,#579,#580));
#103=EDGE_LOOP('',(#581,#582,#583,#584));
#104=EDGE_LOOP('',(#585,#586,#587,#588));
#105=EDGE_LOOP('',(#589,#590,#591,#592));
#106=EDGE_LOOP('',(#593,#594,#595,#596));
#107=EDGE_LOOP('',(#597,#598,#599,#600));
#108=EDGE_LOOP('',(#601,#602,#603,#604));
#109=EDGE_LOOP('',(#605,#606,#607,#608));
#110=EDGE_LOOP('',(#609,#610,#611,#612));
#111=EDGE_LOOP('',(#613,#614,#615,#616));
#112=EDGE_LOOP('',(#617,#618,#619,#620));
#113=EDGE_LOOP('',(#621,#622,#623,#624));
#114=EDGE_LOOP('',(#625,#626,#627,#628));
#115=EDGE_LOOP('',(#629,#630,#631,#632));
#116=EDGE_LOOP('',(#633,#634,#635,#636));
#117=EDGE_LOOP('',(#637,#638,#639,#640));
#118=EDGE_LOOP('',(#641,#642,#643,#644));
#119=EDGE_LOOP('',(#645,#646,#647,#648));
#120=EDGE_LOOP('',(#649,#650,#651,#652));
#121=EDGE_LOOP('',(#653,#654,#655,#656));
#122=EDGE_LOOP('',(#657,#658,#659,#660));
#123=EDGE_LOOP('',(#661,#662,#663,#664));
#124=EDGE_LOOP('',(#665,#666,#667,#668));
#125=LINE('',#1032,#221);
#126=LINE('',#1034,#222);
#127=LINE('',#1036,#223);
#128=LINE('',#1037,#224);
#129=LINE('',#1040,#225);
#130=LINE('',#1042,#226);
#131=LINE('',#1043,#227);
#132=LINE('',#1046,#228);
#133=LINE('',#1047,#229);
#134=LINE('',#1050,#230);
#135=LINE('',#1051,#231);
#136=LINE('',#1053,#232);
#137=LINE('',#1058,#233);
#138=LINE('',#1060,#234);
#139=LINE('',#1062,#235);
#140=LINE('',#1063,#236);
#141=LINE('',#1066,#237);
#142=LINE('',#1068,#238);
#143=LINE('',#1069,#239);
#144=LINE('',#1072,#240);
#145=LINE('',#1073,#241);
#146=LINE('',#1076,#242);
#147=LINE('',#1077,#243);
#148=LINE('',#1079,#244);
#149=LINE('',#1084,#245);
#150=LINE('',#1086,#246);
#151=LINE('',#1088,#247);
#152=LINE('',#1089,#248);
#153=LINE('',#1092,#249);
#154=LINE('',#1094,#250);
#155=LINE('',#1095,#251);
#156=LINE('',#1098,#252);
#157=LINE('',#1099,#253);
#158=LINE('',#1102,#254);
#159=LINE('',#1103,#255);
#160=LINE('',#1105,#256);
#161=LINE('',#1110,#257);
#162=LINE('',#1112,#258);
#163=LINE('',#1114,#259);
#164=LINE('',#1115,#260);
#165=LINE('',#1118,#261);
#166=LINE('',#1120,#262);
#167=LINE('',#1121,#263);
#168=LINE('',#1124,#264);
#169=LINE('',#1125,#265);
#170=LINE('',#1128,#266);
#171=LINE('',#1129,#267);
#172=LINE('',#1131,#268);
#173=LINE('',#1136,#269);
#174=LINE('',#1138,#270);
#175=LINE('',#1140,#271);
#176=LINE('',#1141,#272);
#177=LINE('',#1144,#273);
#178=LINE('',#1146,#274);
#179=LINE('',#1147,#275);
#180=LINE('',#1150,#276);
#181=LINE('',#1151,#277);
#182=LINE('',#1154,#278);
#183=LINE('',#1155,#279);
#184=LINE('',#1157,#280);
#185=LINE('',#1162,#281);
#186=LINE('',#1164,#282);
#187=LINE('',#1166,#283);
#188=LINE('',#1167,#284);
#189=LINE('',#1170,#285);
#190=LINE('',#1172,#286);
#191=LINE('',#1173,#287);
#192=LINE('',#1176,#288);
#193=LINE('',#1177,#289);
#194=LINE('',#1180,#290);
#195=LINE('',#1181,#291);
#196=LINE('',#1183,#292);
#197=LINE('',#1188,#293);
#198=LINE('',#1190,#294);
#199=LINE('',#1192,#295);
#200=LINE('',#1193,#296);
#201=LINE('',#1196,#297);
#202=LINE('',#1198,#298);
#203=LINE('',#1199,#299);
#204=LINE('',#1202,#300);
#205=LINE('',#1203,#301);
#206=LINE('',#1206,#302);
#207=LINE('',#1207,#303);
#208=LINE('',#1209,#304);
#209=LINE('',#1214,#305);
#210=LINE('',#1216,#306);
#211=LINE('',#1218,#307);
#212=LINE('',#1219,#308);
#213=LINE('',#1222,#309);
#214=LINE('',#1224,#310);
#215=LINE('',#1225,#311);
#216=LINE('',#1228,#312);
#217=LINE('',#1229,#313);
#218=LINE('',#1232,#314);
#219=LINE('',#1233,#315);
#220=LINE('',#1235,#316);
#221=VECTOR('',#838,10.);
#222=VECTOR('',#839,10.);
#223=VECTOR('',#840,10.);
#224=VECTOR('',#841,10.);
#225=VECTOR('',#844,10.);
#226=VECTOR('',#845,10.);
#227=VECTOR('',#846,10.);
#228=VECTOR('',#849,10.);
#229=VECTOR('',#850,10.);
#230=VECTOR('',#853,10.);
#231=VECTOR('',#854,10.);
#232=VECTOR('',#857,10.);
#233=VECTOR('',#862,10.);
#234=VECTOR('',#863,10.);
#235=VECTOR('',#864,10.);
#236=VECTOR('',#865,10.);
#237=VECTOR('',#868,10.);
#238=VECTOR('',#869,10.);
#239=VECTOR('',#870,10.);
#240=VECTOR('',#873,10.);
#241=VECTOR('',#874,10.);
#242=VECTOR('',#877,10.);
#243=VECTOR('',#878,10.);
#244=VECTOR('',#881,10.);
#245=VECTOR('',#886,10.);
#246=VECTOR('',#887,10.);
#247=VECTOR('',#888,10.);
#248=VECTOR('',#889,10.);
#249=VECTOR('',#892,10.);
#250=VECTOR('',#893,10.);
#251=VECTOR('',#894,10.);
#252=VECTOR('',#897,10.);
#253=VECTOR('',#898,10.);
#254=VECTOR('',#901,10.);
#255=VECTOR('',#902,10.);
#256=VECTOR('',#905,10.);
#257=VECTOR('',#910,10.);
#258=VECTOR('',#911,10.);
#259=VECTOR('',#912,10.);
#260=VECTOR('',#913,10.);
#261=VECTOR('',#916,10.);
#262=VECTOR('',#917,10.);
#263=VECTOR('',#918,10.);
#264=VECTOR('',#921,10.);
#265=VECTOR('',#922,10.);
#266=VECTOR('',#925,10.);
#267=VECTOR('',#926,10.);
#268=VECTOR('',#929,10.);
#269=VECTOR('',#934,10.);
#270=VECTOR('',#935,10.);
#271=VECTOR('',#936,10.);
#272=VECTOR('',#937,10.);
#273=VECTOR('',#940,10.);
#274=VECTOR('',#941,10.);
#275=VECTOR('',#942,10.);
#276=VECTOR('',#945,10.);
#277=VECTOR('',#946,10.);
#278=VECTOR('',#949,10.);
#279=VECTOR('',#950,10.);
#280=VECTOR('',#953,10.);
#281=VECTOR('',#958,10.);
#282=VECTOR('',#959,10.);
#283=VECTOR('',#960,10.);
#284=VECTOR('',#961,10.);
#285=VECTOR('',#964,10.);
#286=VECTOR('',#965,10.);
#287=VECTOR('',#966,10.);
#288=VECTOR('',#969,10.);
#289=VECTOR('',#970,10.);
#290=VECTOR('',#973,10.);
#291=VECTOR('',#974,10.);
#292=VECTOR('',#977,10.);
#293=VECTOR('',#982,10.);
#294=VECTOR('',#983,10.);
#295=VECTOR('',#984,10.);
#296=VECTOR('',#985,10.);
#297=VECTOR('',#988,10.);
#298=VECTOR('',#989,10.);
#299=VECTOR('',#990,10.);
#300=VECTOR('',#993,10.);
#301=VECTOR('',#994,10.);
#302=VECTOR('',#997,10.);
#303=VECTOR('',#998,10.);
#304=VECTOR('',#1001,10.);
#305=VECTOR('',#1006,10.);
#306=VECTOR('',#1007,10.);
#307=VECTOR('',#1008,10.);
#308=VECTOR('',#1009,10.);
#309=VECTOR('',#1012,10.);
#310=VECTOR('',#1013,10.);
#311=VECTOR('',#1014,10.);
#312=VECTOR('',#1017,10.);
#313=VECTOR('',#1018,10.);
#314=VECTOR('',#1021,10.);
#315=VECTOR('',#1022,10.);
#316=VECTOR('',#1025,10.);
#317=VERTEX_POINT('',#1030);
#318=VERTEX_POINT('',#1031);
#319=VERTEX_POINT('',#1033);
#320=VERTEX_POINT('',#1035);
#321=VERTEX_POINT('',#1039);
#322=VERTEX_POINT('',#1041);
#323=VERTEX_POINT('',#1045);
#324=VERTEX_POINT('',#1049);
#325=VERTEX_POINT('',#1056);
#326=VERTEX_POINT('',#1057);
#327=VERTEX_POINT('',#1059);
#328=VERTEX_POINT('',#1061);
#329=VERTEX_POINT('',#1065);
#330=VERTEX_POINT('',#1067);
#331=VERTEX_POINT('',#1071);
#332=VERTEX_POINT('',#1075);
#333=VERTEX_POINT('',#1082);
#334=VERTEX_POINT('',#1083);
#335=VERTEX_POINT('',#1085);
#336=VERTEX_POINT('',#1087);
#337=VERTEX_POINT('',#1091);
#338=VERTEX_POINT('',#1093);
#339=VERTEX_POINT('',#1097);
#340=VERTEX_POINT('',#1101);
#341=VERTEX_POINT('',#1108);
#342=VERTEX_POINT('',#1109);
#343=VERTEX_POINT('',#1111);
#344=VERTEX_POINT('',#1113);
#345=VERTEX_POINT('',#1117);
#346=VERTEX_POINT('',#1119);
#347=VERTEX_POINT('',#1123);
#348=VERTEX_POINT('',#1127);
#349=VERTEX_POINT('',#1134);
#350=VERTEX_POINT('',#1135);
#351=VERTEX_POINT('',#1137);
#352=VERTEX_POINT('',#1139);
#353=VERTEX_POINT('',#1143);
#354=VERTEX_POINT('',#1145);
#355=VERTEX_POINT('',#1149);
#356=VERTEX_POINT('',#1153);
#357=VERTEX_POINT('',#1160);
#358=VERTEX_POINT('',#1161);
#359=VERTEX_POINT('',#1163);
#360=VERTEX_POINT('',#1165);
#361=VERTEX_POINT('',#1169);
#362=VERTEX_POINT('',#1171);
#363=VERTEX_POINT('',#1175);
#364=VERTEX_POINT('',#1179);
#365=VERTEX_POINT('',#1186);
#366=VERTEX_POINT('',#1187);
#367=VERTEX_POINT('',#1189);
#368=VERTEX_POINT('',#1191);
#369=VERTEX_POINT('',#1195);
#370=VERTEX_POINT('',#1197);
#371=VERTEX_POINT('',#1201);
#372=VERTEX_POINT('',#1205);
#373=VERTEX_POINT('',#1212);
#374=VERTEX_POINT('',#1213);
#375=VERTEX_POINT('',#1215);
#376=VERTEX_POINT('',#1217);
#377=VERTEX_POINT('',#1221);
#378=VERTEX_POINT('',#1223);
#379=VERTEX_POINT('',#1227);
#380=VERTEX_POINT('',#1231);
#381=EDGE_CURVE('',#317,#318,#125,.T.);
#382=EDGE_CURVE('',#318,#319,#126,.T.);
#383=EDGE_CURVE('',#319,#320,#127,.T.);
#384=EDGE_CURVE('',#320,#317,#128,.T.);
#385=EDGE_CURVE('',#321,#318,#129,.T.);
#386=EDGE_CURVE('',#322,#321,#130,.T.);
#387=EDGE_CURVE('',#319,#322,#131,.T.);
#388=EDGE_CURVE('',#323,#322,#132,.T.);
#389=EDGE_CURVE('',#320,#323,#133,.T.);
#390=EDGE_CURVE('',#324,#323,#134,.T.);
#391=EDGE_CURVE('',#317,#324,#135,.T.);
#392=EDGE_CURVE('',#321,#324,#136,.T.);
#393=EDGE_CURVE('',#325,#326,#137,.T.);
#394=EDGE_CURVE('',#326,#327,#138,.T.);
#395=EDGE_CURVE('',#327,#328,#139,.T.);
#396=EDGE_CURVE('',#328,#325,#140,.T.);
#397=EDGE_CURVE('',#329,#326,#141,.T.);
#398=EDGE_CURVE('',#330,#329,#142,.T.);
#399=EDGE_CURVE('',#327,#330,#143,.T.);
#400=EDGE_CURVE('',#331,#330,#144,.T.);
#401=EDGE_CURVE('',#328,#331,#145,.T.);
#402=EDGE_CURVE('',#332,#331,#146,.T.);
#403=EDGE_CURVE('',#325,#332,#147,.T.);
#404=EDGE_CURVE('',#329,#332,#148,.T.);
#405=EDGE_CURVE('',#333,#334,#149,.T.);
#406=EDGE_CURVE('',#334,#335,#150,.T.);
#407=EDGE_CURVE('',#335,#336,#151,.T.);
#408=EDGE_CURVE('',#336,#333,#152,.T.);
#409=EDGE_CURVE('',#337,#334,#153,.T.);
#410=EDGE_CURVE('',#338,#337,#154,.T.);
#411=EDGE_CURVE('',#335,#338,#155,.T.);
#412=EDGE_CURVE('',#339,#338,#156,.T.);
#413=EDGE_CURVE('',#336,#339,#157,.T.);
#414=EDGE_CURVE('',#340,#339,#158,.T.);
#415=EDGE_CURVE('',#333,#340,#159,.T.);
#416=EDGE_CURVE('',#337,#340,#160,.T.);
#417=EDGE_CURVE('',#341,#342,#161,.T.);
#418=EDGE_CURVE('',#342,#343,#162,.T.);
#419=EDGE_CURVE('',#343,#344,#163,.T.);
#420=EDGE_CURVE('',#344,#341,#164,.T.);
#421=EDGE_CURVE('',#345,#342,#165,.T.);
#422=EDGE_CURVE('',#346,#345,#166,.T.);
#423=EDGE_CURVE('',#343,#346,#167,.T.);
#424=EDGE_CURVE('',#347,#346,#168,.T.);
#425=EDGE_CURVE('',#344,#347,#169,.T.);
#426=EDGE_CURVE('',#348,#347,#170,.T.);
#427=EDGE_CURVE('',#341,#348,#171,.T.);
#428=EDGE_CURVE('',#345,#348,#172,.T.);
#429=EDGE_CURVE('',#349,#350,#173,.T.);
#430=EDGE_CURVE('',#350,#351,#174,.T.);
#431=EDGE_CURVE('',#351,#352,#175,.T.);
#432=EDGE_CURVE('',#352,#349,#176,.T.);
#433=EDGE_CURVE('',#353,#350,#177,.T.);
#434=EDGE_CURVE('',#354,#353,#178,.T.);
#435=EDGE_CURVE('',#351,#354,#179,.T.);
#436=EDGE_CURVE('',#355,#354,#180,.T.);
#437=EDGE_CURVE('',#352,#355,#181,.T.);
#438=EDGE_CURVE('',#356,#355,#182,.T.);
#439=EDGE_CURVE('',#349,#356,#183,.T.);
#440=EDGE_CURVE('',#353,#356,#184,.T.);
#441=EDGE_CURVE('',#357,#358,#185,.T.);
#442=EDGE_CURVE('',#358,#359,#186,.T.);
#443=EDGE_CURVE('',#359,#360,#187,.T.);
#444=EDGE_CURVE('',#360,#357,#188,.T.);
#445=EDGE_CURVE('',#361,#358,#189,.T.);
#446=EDGE_CURVE('',#362,#361,#190,.T.);
#447=EDGE_CURVE('',#359,#362,#191,.T.);
#448=EDGE_CURVE('',#363,#362,#192,.T.);
#449=EDGE_CURVE('',#360,#363,#193,.T.);
#450=EDGE_CURVE('',#364,#363,#194,.T.);
#451=EDGE_CURVE('',#357,#364,#195,.T.);
#452=EDGE_CURVE('',#361,#364,#196,.T.);
#453=EDGE_CURVE('',#365,#366,#197,.T.);
#454=EDGE_CURVE('',#366,#367,#198,.T.);
#455=EDGE_CURVE('',#367,#368,#199,.T.);
#456=EDGE_CURVE('',#368,#365,#200,.T.);
#457=EDGE_CURVE('',#369,#366,#201,.T.);
#458=EDGE_CURVE('',#370,#369,#202,.T.);
#459=EDGE_CURVE('',#367,#370,#203,.T.);
#460=EDGE_CURVE('',#371,#370,#204,.T.);
#461=EDGE_CURVE('',#368,#371,#205,.T.);
#462=EDGE_CURVE('',#372,#371,#206,.T.);
#463=EDGE_CURVE('',#365,#372,#207,.T.);
#464=EDGE_CURVE('',#369,#372,#208,.T.);
#465=EDGE_CURVE('',#373,#374,#209,.T.);
#466=EDGE_CURVE('',#374,#375,#210,.T.);
#467=EDGE_CURVE('',#375,#376,#211,.T.);
#468=EDGE_CURVE('',#376,#373,#212,.T.);
#469=EDGE_CURVE('',#377,#374,#213,.T.);
#470=EDGE_CURVE('',#378,#377,#214,.T.);
#471=EDGE_CURVE('',#375,#378,#215,.T.);
#472=EDGE_CURVE('',#379,#378,#216,.T.);
#473=EDGE_CURVE('',#376,#379,#217,.T.);
#474=EDGE_CURVE('',#380,#379,#218,.T.);
#475=EDGE_CURVE('',#373,#380,#219,.T.);
#476=EDGE_CURVE('',#377,#380,#220,.T.);
#477=ORIENTED_EDGE('',*,*,#381,.T.);
#478=ORIENTED_EDGE('',*,*,#382,.T.);
#479=ORIENTED_EDGE('',*,*,#383,.T.);
#480=ORIENTED_EDGE('',*,*,#384,.T.);
#481=ORIENTED_EDGE('',*,*,#385,.F.);
#482=ORIENTED_EDGE('',*,*,#386,.F.);
#483=ORIENTED_EDGE('',*,*,#387,.F.);
#484=ORIENTED_EDGE('',*,*,#382,.F.);
#485=ORIENTED_EDGE('',*,*,#387,.T.);
#486=ORIENTED_EDGE('',*,*,#388,.F.);
#487=ORIENTED_EDGE('',*,*,#389,.F.);
#488=ORIENTED_EDGE('',*,*,#383,.F.);
#489=ORIENTED_EDGE('',*,*,#389,.T.);
#490=ORIENTED_EDGE('',*,*,#390,.F.);
#491=ORIENTED_EDGE('',*,*,#391,.F.);
#492=ORIENTED_EDGE('',*,*,#384,.F.);
#493=ORIENTED_EDGE('',*,*,#391,.T.);
#494=ORIENTED_EDGE('',*,*,#392,.F.);
#495=ORIENTED_EDGE('',*,*,#385,.T.);
#496=ORIENTED_EDGE('',*,*,#381,.F.);
#497=ORIENTED_EDGE('',*,*,#392,.T.);
#498=ORIENTED_EDGE('',*,*,#390,.T.);
#499=ORIENTED_EDGE('',*,*,#388,.T.);
#500=ORIENTED_EDGE('',*,*,#386,.T.);
#501=ORIENTED_EDGE('',*,*,#393,.T.);
#502=ORIENTED_EDGE('',*,*,#394,.T.);
#503=ORIENTED_EDGE('',*,*,#395,.T.);
#504=ORIENTED_EDGE('',*,*,#396,.T.);
#505=ORIENTED_EDGE('',*,*,#397,.F.);
#506=ORIENTED_EDGE('',*,*,#398,.F.);
#507=ORIENTED_EDGE('',*,*,#399,.F.);
#508=ORIENTED_EDGE('',*,*,#394,.F.);
#509=ORIENTED_EDGE('',*,*,#399,.T.);
#510=ORIENTED_EDGE('',*,*,#400,.F.);
#511=ORIENTED_EDGE('',*,*,#401,.F.);
#512=ORIENTED_EDGE('',*,*,#395,.F.);
#513=ORIENTED_EDGE('',*,*,#401,.T.);
#514=ORIENTED_EDGE('',*,*,#402,.F.);
#515=ORIENTED_EDGE('',*,*,#403,.F.);
#516=ORIENTED_EDGE('',*,*,#396,.F.);
#517=ORIENTED_EDGE('',*,*,#403,.T.);
#518=ORIENTED_EDGE('',*,*,#404,.F.);
#519=ORIENTED_EDGE('',*,*,#397,.T.);
#520=ORIENTED_EDGE('',*,*,#393,.F.);
#521=ORIENTED_EDGE('',*,*,#404,.T.);
#522=ORIENTED_EDGE('',*,*,#402,.T.);
#523=ORIENTED_EDGE('',*,*,#400,.T.);
#524=ORIENTED_EDGE('',*,*,#398,.T.);
#525=ORIENTED_EDGE('',*,*,#405,.T.);
#526=ORIENTED_EDGE('',*,*,#406,.T.);
#527=ORIENTED_EDGE('',*,*,#407,.T.);
#528=ORIENTED_EDGE('',*,*,#408,.T.);
#529=ORIENTED_EDGE('',*,*,#409,.F.);
#530=ORIENTED_EDGE('',*,*,#410,.F.);
#531=ORIENTED_EDGE('',*,*,#411,.F.);
#532=ORIENTED_EDGE('',*,*,#406,.F.);
#533=ORIENTED_EDGE('',*,*,#411,.T.);
#534=ORIENTED_EDGE('',*,*,#412,.F.);
#535=ORIENTED_EDGE('',*,*,#413,.F.);
#536=ORIENTED_EDGE('',*,*,#407,.F.);
#537=ORIENTED_EDGE('',*,*,#413,.T.);
#538=ORIENTED_EDGE('',*,*,#414,.F.);
#539=ORIENTED_EDGE('',*,*,#415,.F.);
#540=ORIENTED_EDGE('',*,*,#408,.F.);
#541=ORIENTED_EDGE('',*,*,#415,.T.);
#542=ORIENTED_EDGE('',*,*,#416,.F.);
#543=ORIENTED_EDGE('',*,*,#409,.T.);
#544=ORIENTED_EDGE('',*,*,#405,.F.);
#545=ORIENTED_EDGE('',*,*,#416,.T.);
#546=ORIENTED_EDGE('',*,*,#414,.T.);
#547=ORIENTED_EDGE('',*,*,#412,.T.);
#548=ORIENTED_EDGE('',*,*,#410,.T.);
#549=ORIENTED_EDGE('',*,*,#417,.T.);
#550=ORIENTED_EDGE('',*,*,#418,.T.);
#551=ORIENTED_EDGE('',*,*,#419,.T.);
#552=ORIENTED_EDGE('',*,*,#420,.T.);
#553=ORIENTED_EDGE('',*,*,#421,.F.);
#554=ORIENTED_EDGE('',*,*,#422,.F.);
#555=ORIENTED_EDGE('',*,*,#423,.F.);
#556=ORIENTED_EDGE('',*,*,#418,.F.);
#557=ORIENTED_EDGE('',*,*,#423,.T.);
#558=ORIENTED_EDGE('',*,*,#424,.F.);
#559=ORIENTED_EDGE('',*,*,#425,.F.);
#560=ORIENTED_EDGE('',*,*,#419,.F.);
#561=ORIENTED_EDGE('',*,*,#425,.T.);
#562=ORIENTED_EDGE('',*,*,#426,.F.);
#563=ORIENTED_EDGE('',*,*,#427,.F.);
#564=ORIENTED_EDGE('',*,*,#420,.F.);
#565=ORIENTED_EDGE('',*,*,#427,.T.);
#566=ORIENTED_EDGE('',*,*,#428,.F.);
#567=ORIENTED_EDGE('',*,*,#421,.T.);
#568=ORIENTED_EDGE('',*,*,#417,.F.);
#569=ORIENTED_EDGE('',*,*,#428,.T.);
#570=ORIENTED_EDGE('',*,*,#426,.T.);
#571=ORIENTED_EDGE('',*,*,#424,.T.);
#572=ORIENTED_EDGE('',*,*,#422,.T.);
#573=ORIENTED_EDGE('',*,*,#429,.T.);
#574=ORIENTED_EDGE('',*,*,#430,.T.);
#575=ORIENTED_EDGE('',*,*,#431,.T.);
#576=ORIENTED_EDGE('',*,*,#432,.T.);
#577=ORIENTED_EDGE('',*,*,#433,.F.);
#578=ORIENTED_EDGE('',*,*,#434,.F.);
#579=ORIENTED_EDGE('',*,*,#435,.F.);
#580=ORIENTED_EDGE('',*,*,#430,.F.);
#581=ORIENTED_EDGE('',*,*,#435,.T.);
#582=ORIENTED_EDGE('',*,*,#436,.F.);
#583=ORIENTED_EDGE('',*,*,#437,.F.);
#584=ORIENTED_EDGE('',*,*,#431,.F.);
#585=ORIENTED_EDGE('',*,*,#437,.T.);
#586=ORIENTED_EDGE('',*,*,#438,.F.);
#587=ORIENTED_EDGE('',*,*,#439,.F.);
#588=ORIENTED_EDGE('',*,*,#432,.F.);
#589=ORIENTED_EDGE('',*,*,#439,.T.);
#590=ORIENTED_EDGE('',*,*,#440,.F.);
#591=ORIENTED_EDGE('',*,*,#433,.T.);
#592=ORIENTED_EDGE('',*,*,#429,.F.);
#593=ORIENTED_EDGE('',*,*,#440,.T.);
#594=ORIENTED_EDGE('',*,*,#438,.T.);
#595=ORIENTED_EDGE('',*,*,#436,.T.);
#596=ORIENTED_EDGE('',*,*,#434,.T.);
#597=ORIENTED_EDGE('',*,*,#441,.T.);
#598=ORIENTED_EDGE('',*,*,#442,.T.);
#599=ORIENTED_EDGE('',*,*,#443,.T.);
#600=ORIENTED_EDGE('',*,*,#444,.T.);
#601=ORIENTED_EDGE('',*,*,#445,.F.);
#602=ORIENTED_EDGE('',*,*,#446,.F.);
#603=ORIENTED_EDGE('',*,*,#447,.F.);
#604=ORIENTED_EDGE('',*,*,#442,.F.);
#605=ORIENTED_EDGE('',*,*,#447,.T.);
#606=ORIENTED_EDGE('',*,*,#448,.F.);
#607=ORIENTED_EDGE('',*,*,#449,.F.);
#608=ORIENTED_EDGE('',*,*,#443,.F.);
#609=ORIENTED_EDGE('',*,*,#449,.T.);
#610=ORIENTED_EDGE('',*,*,#450,.F.);
#611=ORIENTED_EDGE('',*,*,#451,.F.);
#612=ORIENTED_EDGE('',*,*,#444,.F.);
#613=ORIENTED_EDGE('',*,*,#451,.T.);
#614=ORIENTED_EDGE('',*,*,#452,.F.);
#615=ORIENTED_EDGE('',*,*,#445,.T.);
#616=ORIENTED_EDGE('',*,*,#441,.F.);
#617=ORIENTED_EDGE('',*,*,#452,.T.);
#618=ORIENTED_EDGE('',*,*,#450,.T.);
#619=ORIENTED_EDGE('',*,*,#448,.T.);
#620=ORIENTED_EDGE('',*,*,#446,.T.);
#621=ORIENTED_EDGE('',*,*,#453,.T.);
#622=ORIENTED_EDGE('',*,*,#454,.T.);
#623=ORIENTED_EDGE('',*,*,#455,.T.);
#624=ORIENTED_EDGE('',*,*,#456,.T.);
#625=ORIENTED_EDGE('',*,*,#457,.F.);
#626=ORIENTED_EDGE('',*,*,#458,.F.);
#627=ORIENTED_EDGE('',*,*,#459,.F.);
#628=ORIENTED_EDGE('',*,*,#454,.F.);
#629=ORIENTED_EDGE('',*,*,#459,.T.);
#630=ORIENTED_EDGE('',*,*,#460,.F.);
#631=ORIENTED_EDGE('',*,*,#461,.F.);
#632=ORIENTED_EDGE('',*,*,#455,.F.);
#633=ORIENTED_EDGE('',*,*,#461,.T.);
#634=ORIENTED_EDGE('',*,*,#462,.F.);
#635=ORIENTED_EDGE('',*,*,#463,.F.);
#636=ORIENTED_EDGE('',*,*,#456,.F.);
#637=ORIENTED_EDGE('',*,*,#463,.T.);
#638=ORIENTED_EDGE('',*,*,#464,.F.);
#639=ORIENTED_EDGE('',*,*,#457,.T.);
#640=ORIENTED_EDGE('',*,*,#453,.F.);
#641=ORIENTED_EDGE('',*,*,#464,.T.);
#642=ORIENTED_EDGE('',*,*,#462,.T.);
#643=ORIENTED_EDGE('',*,*,#460,.T.);
#644=ORIENTED_EDGE('',*,*,#458,.T.);
#645=ORIENTED_EDGE('',*,*,#465,.T.);
#646=ORIENTED_EDGE('',*,*,#466,.T.);
#647=ORIENTED_EDGE('',*,*,#467,.T.);
#648=ORIENTED_EDGE('',*,*,#468,.T.);
#649=ORIENTED_EDGE('',*,*,#469,.F.);
#650=ORIENTED_EDGE('',*,*,#470,.F.);
#651=ORIENTED_EDGE('',*,*,#471,.F.);
#652=ORIENTED_EDGE('',*,*,#466,.F.);
#653=ORIENTED_EDGE('',*,*,#471,.T.);
#654=ORIENTED_EDGE('',*,*,#472,.F.);
#655=ORIENTED_EDGE('',*,*,#473,.F.);
#656=ORIENTED_EDGE('',*,*,#467,.F.);
#657=ORIENTED_EDGE('',*,*,#473,.T.);
#658=ORIENTED_EDGE('',*,*,#474,.F.);
#659=ORIENTED_EDGE('',*,*,#475,.F.);
#660=ORIENTED_EDGE('',*,*,#468,.F.);
#661=ORIENTED_EDGE('',*,*,#475,.T.);
#662=ORIENTED_EDGE('',*,*,#476,.F.);
#663=ORIENTED_EDGE('',*,*,#469,.T.);
#664=ORIENTED_EDGE('',*,*,#465,.F.);
#665=ORIENTED_EDGE('',*,*,#476,.T.);
#666=ORIENTED_EDGE('',*,*,#474,.T.);
#667=ORIENTED_EDGE('',*,*,#472,.T.);
#668=ORIENTED_EDGE('',*,*,#470,.T.);
#669=PLANE('',#786);
#670=PLANE('',#787);
#671=PLANE('',#788);
#672=PLANE('',#789);
#673=PLANE('',#790);
#674=PLANE('',#791);
#675=PLANE('',#792);
#676=PLANE('',#793);
#677=PLANE('',#794);
#678=PLANE('',#795);
#679=PLANE('',#796);
#680=PLANE('',#797);
#681=PLANE('',#798);
#682=PLANE('',#799);
#683=PLANE('',#800);
#684=PLANE('',#801);
#685=PLANE('',#802);
#686=PLANE('',#803);
#687=PLANE('',#804);
#688=PLANE('',#805);
#689=PLANE('',#806);
#690=PLANE('',#807);
#691=PLANE('',#808);
#692=PLANE('',#809);
#693=PLANE('',#810);
#694=PLANE('',#811);
#695=PLANE('',#812);
#696=PLANE('',#813);
#697=PLANE('',#814);
#698=PLANE('',#815);
#699=PLANE('',#816);
#700=PLANE('',#817);
#701=PLANE('',#818);
#702=PLANE('',#819);
#703=PLANE('',#820);
#704=PLANE('',#821);
#705=PLANE('',#822);
#706=PLANE('',#823);
#707=PLANE('',#824);
#708=PLANE('',#825);
#709=PLANE('',#826);
#710=PLANE('',#827);
#711=PLANE('',#828);
#712=PLANE('',#829);
#713=PLANE('',#830);
#714=PLANE('',#831);
#715=PLANE('',#832);
#716=PLANE('',#833);
#717=ADVANCED_FACE('',(#29),#669,.T.);
#718=ADVANCED_FACE('',(#30),#670,.T.);
#719=ADVANCED_FACE('',(#31),#671,.T.);
#720=ADVANCED_FACE('',(#32),#672,.T.);
#721=ADVANCED_FACE('',(#33),#673,.T.);
#722=ADVANCED_FACE('',(#34),#674,.T.);
#723=ADVANCED_FACE('',(#35),#675,.T.);
#724=ADVANCED_FACE('',(#36),#676,.T.);
#725=ADVANCED_FACE('',(#37),#677,.T.);
#726=ADVANCED_FACE('',(#38),#678,.T.);
#727=ADVANCED_FACE('',(#39),#679,.T.);
#728=ADVANCED_FACE('',(#40),#680,.T.);
#729=ADVANCED_FACE('',(#41),#681,.T.);
#730=ADVANCED_FACE('',(#42),#682,.T.);
#731=ADVANCED_FACE('',(#43),#683,.T.);
#732=ADVANCED_FACE('',(#44),#684,.T.);
#733=ADVANCED_FACE('',(#45),#685,.T.);
#734=ADVANCED_FACE('',(#46),#686,.T.);
#735=ADVANCED_FACE('',(#47),#687,.T.);
#736=ADVANCED_FACE('',(#48),#688,.T.);
#737=ADVANCED_FACE('',(#49),#689,.T.);
#738=ADVANCED_FACE('',(#50),#690,.T.);
#739=ADVANCED_FACE('',(#51),#691,.T.);
#740=ADVANCED_FACE('',(#52),#692,.T.);
#741=ADVANCED_FACE('',(#53),#693,.T.);
#742=ADVANCED_FACE('',(#54),#694,.T.);
#743=ADVANCED_FACE('',(#55),#695,.T.);
#744=ADVANCED_FACE('',(#56),#696,.T.);
#745=ADVANCED_FACE('',(#57),#697,.T.);
#746=ADVANCED_FACE('',(#58),#698,.T.);
#747=ADVANCED_FACE('',(#59),#699,.T.);
#748=ADVANCED_FACE('',(#60),#700,.T.);
#749=ADVANCED_FACE('',(#61),#701,.T.);
#750=ADVANCED_FACE('',(#62),#702,.T.);
#751=ADVANCED_FACE('',(#63),#703,.T.);
#752=ADVANCED_FACE('',(#64),#704,.T.);
#753=ADVANCED_FACE('',(#65),#705,.T.);
#754=ADVANCED_FACE('',(#66),#706,.T.);
#755=ADVANCED_FACE('',(#67),#707,.T.);
#756=ADVANCED_FACE('',(#68),#708,.T.);
#757=ADVANCED_FACE('',(#69),#709,.T.);
#758=ADVANCED_FACE('',(#70),#710,.T.);
#759=ADVANCED_FACE('',(#71),#711,.T.);
#760=ADVANCED_FACE('',(#72),#712,.T.);
#761=ADVANCED_FACE('',(#73),#713,.T.);
#762=ADVANCED_FACE('',(#74),#714,.T.);
#763=ADVANCED_FACE('',(#75),#715,.T.);
#764=ADVANCED_FACE('',(#76),#716,.T.);
#765=CLOSED_SHELL('',(#717,#718,#719,#720,#721,#722));
#766=CLOSED_SHELL('',(#723,#724,#725,#726,#727,#728));
#767=CLOSED_SHELL('',(#729,#730,#731,#732,#733,#734));
#768=CLOSED_SHELL('',(#735,#736,#737,#738,#739,#740));
#769=CLOSED_SHELL('',(#741,#742,#743,#744,#745,#746));
#770=CLOSED_SHELL('',(#747,#748,#749,#750,#751,#752));
#771=CLOSED_SHELL('',(#753,#754,#755,#756,#757,#758));
#772=CLOSED_SHELL('',(#759,#760,#761,#762,#763,#764));
#773=DERIVED_UNIT_ELEMENT(#775,1.);
#774=DERIVED_UNIT_ELEMENT(#1242,-3.);
#775=(
MASS_UNIT()
NAMED_UNIT(*)
SI_UNIT(.KILO.,.GRAM.)
);
#776=DERIVED_UNIT((#773,#774));
#777=MEASURE_REPRESENTATION_ITEM('density measure',
POSITIVE_RATIO_MEASURE(7850.),#776);
#778=PROPERTY_DEFINITION_REPRESENTATION(#783,#780);
#779=PROPERTY_DEFINITION_REPRESENTATION(#784,#781);
#780=REPRESENTATION('material name',(#782),#1239);
#781=REPRESENTATION('density',(#777),#1239);
#782=DESCRIPTIVE_REPRESENTATION_ITEM('Steel','Steel');
#783=PROPERTY_DEFINITION('material property','material name',#1249);
#784=PROPERTY_DEFINITION('material property','density of part',#1249);
#785=AXIS2_PLACEMENT_3D('',#1028,#834,#835);
#786=AXIS2_PLACEMENT_3D('',#1029,#836,#837);
#787=AXIS2_PLACEMENT_3D('',#1038,#842,#843);
#788=AXIS2_PLACEMENT_3D('',#1044,#847,#848);
#789=AXIS2_PLACEMENT_3D('',#1048,#851,#852);
#790=AXIS2_PLACEMENT_3D('',#1052,#855,#856);
#791=AXIS2_PLACEMENT_3D('',#1054,#858,#859);
#792=AXIS2_PLACEMENT_3D('',#1055,#860,#861);
#793=AXIS2_PLACEMENT_3D('',#1064,#866,#867);
#794=AXIS2_PLACEMENT_3D('',#1070,#871,#872);
#795=AXIS2_PLACEMENT_3D('',#1074,#875,#876);
#796=AXIS2_PLACEMENT_3D('',#1078,#879,#880);
#797=AXIS2_PLACEMENT_3D('',#1080,#882,#883);
#798=AXIS2_PLACEMENT_3D('',#1081,#884,#885);
#799=AXIS2_PLACEMENT_3D('',#1090,#890,#891);
#800=AXIS2_PLACEMENT_3D('',#1096,#895,#896);
#801=AXIS2_PLACEMENT_3D('',#1100,#899,#900);
#802=AXIS2_PLACEMENT_3D('',#1104,#903,#904);
#803=AXIS2_PLACEMENT_3D('',#1106,#906,#907);
#804=AXIS2_PLACEMENT_3D('',#1107,#908,#909);
#805=AXIS2_PLACEMENT_3D('',#1116,#914,#915);
#806=AXIS2_PLACEMENT_3D('',#1122,#919,#920);
#807=AXIS2_PLACEMENT_3D('',#1126,#923,#924);
#808=AXIS2_PLACEMENT_3D('',#1130,#927,#928);
#809=AXIS2_PLACEMENT_3D('',#1132,#930,#931);
#810=AXIS2_PLACEMENT_3D('',#1133,#932,#933);
#811=AXIS2_PLACEMENT_3D('',#1142,#938,#939);
#812=AXIS2_PLACEMENT_3D('',#1148,#943,#944);
#813=AXIS2_PLACEMENT_3D('',#1152,#947,#948);
#814=AXIS2_PLACEMENT_3D('',#1156,#951,#952);
#815=AXIS2_PLACEMENT_3D('',#1158,#954,#955);
#816=AXIS2_PLACEMENT_3D('',#1159,#956,#957);
#817=AXIS2_PLACEMENT_3D('',#1168,#962,#963);
#818=AXIS2_PLACEMENT_3D('',#1174,#967,#968);
#819=AXIS2_PLACEMENT_3D('',#1178,#971,#972);
#820=AXIS2_PLACEMENT_3D('',#1182,#975,#976);
#821=AXIS2_PLACEMENT_3D('',#1184,#978,#979);
#822=AXIS2_PLACEMENT_3D('',#1185,#980,#981);
#823=AXIS2_PLACEMENT_3D('',#1194,#986,#987);
#824=AXIS2_PLACEMENT_3D('',#1200,#991,#992);
#825=AXIS2_PLACEMENT_3D('',#1204,#995,#996);
#826=AXIS2_PLACEMENT_3D('',#1208,#999,#1000);
#827=AXIS2_PLACEMENT_3D('',#1210,#1002,#1003);
#828=AXIS2_PLACEMENT_3D('',#1211,#1004,#1005);
#829=AXIS2_PLACEMENT_3D('',#1220,#1010,#1011);
#830=AXIS2_PLACEMENT_3D('',#1226,#1015,#1016);
#831=AXIS2_PLACEMENT_3D('',#1230,#1019,#1020);
#832=AXIS2_PLACEMENT_3D('',#1234,#1023,#1024);
#833=AXIS2_PLACEMENT_3D('',#1236,#1026,#1027);
#834=DIRECTION('axis',(0.,0.,1.));
#835=DIRECTION('refdir',(1.,0.,0.));
#836=DIRECTION('center_axis',(0.,0.,-1.));
#837=DIRECTION('ref_axis',(-1.,0.,0.));
#838=DIRECTION('',(0.,1.,0.));
#839=DIRECTION('',(1.,0.,0.));
#840=DIRECTION('',(0.,-1.,0.));
#841=DIRECTION('',(-1.,0.,0.));
#842=DIRECTION('center_axis',(0.,1.,0.));
#843=DIRECTION('ref_axis',(-1.,0.,0.));
#844=DIRECTION('',(0.,0.,-1.));
#845=DIRECTION('',(-1.,0.,0.));
#846=DIRECTION('',(0.,0.,1.));
#847=DIRECTION('center_axis',(1.,0.,0.));
#848=DIRECTION('ref_axis',(0.,1.,0.));
#849=DIRECTION('',(0.,1.,0.));
#850=DIRECTION('',(0.,0.,1.));
#851=DIRECTION('center_axis',(0.,-1.,0.));
#852=DIRECTION('ref_axis',(1.,0.,0.));
#853=DIRECTION('',(1.,0.,0.));
#854=DIRECTION('',(0.,0.,1.));
#855=DIRECTION('center_axis',(-1.,0.,0.));
#856=DIRECTION('ref_axis',(0.,-1.,0.));
#857=DIRECTION('',(0.,-1.,0.));
#858=DIRECTION('center_axis',(0.,0.,1.));
#859=DIRECTION('ref_axis',(1.,0.,0.));
#860=DIRECTION('center_axis',(0.,0.,-1.));
#861=DIRECTION('ref_axis',(-1.,0.,0.));
#862=DIRECTION('',(-1.,0.,0.));
#863=DIRECTION('',(0.,1.,0.));
#864=DIRECTION('',(1.,0.,0.));
#865=DIRECTION('',(0.,-1.,0.));
#866=DIRECTION('center_axis',(-1.,0.,0.));
#867=DIRECTION('ref_axis',(0.,-1.,0.));
#868=DIRECTION('',(0.,0.,-1.));
#869=DIRECTION('',(0.,-1.,0.));
#870=DIRECTION('',(0.,0.,1.));
#871=DIRECTION('center_axis',(0.,1.,0.));
#872=DIRECTION('ref_axis',(-1.,0.,0.));
#873=DIRECTION('',(-1.,0.,0.));
#874=DIRECTION('',(0.,0.,1.));
#875=DIRECTION('center_axis',(1.,0.,0.));
#876=DIRECTION('ref_axis',(0.,1.,0.));
#877=DIRECTION('',(0.,1.,0.));
#878=DIRECTION('',(0.,0.,1.));
#879=DIRECTION('center_axis',(0.,-1.,0.));
#880=DIRECTION('ref_axis',(1.,0.,0.));
#881=DIRECTION('',(1.,0.,0.));
#882=DIRECTION('center_axis',(0.,0.,1.));
#883=DIRECTION('ref_axis',(1.,0.,0.));
#884=DIRECTION('center_axis',(0.,0.,-1.));
#885=DIRECTION('ref_axis',(-1.,0.,0.));
#886=DIRECTION('',(0.,1.,0.));
#887=DIRECTION('',(1.,0.,0.));
#888=DIRECTION('',(0.,-1.,0.));
#889=DIRECTION('',(-1.,0.,0.));
#890=DIRECTION('center_axis',(0.,1.,0.));
#891=DIRECTION('ref_axis',(-1.,0.,0.));
#892=DIRECTION('',(0.,0.,-1.));
#893=DIRECTION('',(-1.,0.,0.));
#894=DIRECTION('',(0.,0.,1.));
#895=DIRECTION('center_axis',(1.,0.,0.));
#896=DIRECTION('ref_axis',(0.,1.,0.));
#897=DIRECTION('',(0.,1.,0.));
#898=DIRECTION('',(0.,0.,1.));
#899=DIRECTION('center_axis',(0.,-1.,0.));
#900=DIRECTION('ref_axis',(1.,0.,0.));
#901=DIRECTION('',(1.,0.,0.));
#902=DIRECTION('',(0.,0.,1.));
#903=DIRECTION('center_axis',(-1.,0.,0.));
#904=DIRECTION('ref_axis',(0.,-1.,0.));
#905=DIRECTION('',(0.,-1.,0.));
#906=DIRECTION('center_axis',(0.,0.,1.));
#907=DIRECTION('ref_axis',(1.,0.,0.));
#908=DIRECTION('center_axis',(0.,0.,-1.));
#909=DIRECTION('ref_axis',(-1.,0.,0.));
#910=DIRECTION('',(0.,1.,0.));
#911=DIRECTION('',(1.,0.,0.));
#912=DIRECTION('',(0.,-1.,0.));
#913=DIRECTION('',(-1.,0.,0.));
#914=DIRECTION('center_axis',(0.,1.,0.));
#915=DIRECTION('ref_axis',(-1.,0.,0.));
#916=DIRECTION('',(0.,0.,-1.));
#917=DIRECTION('',(-1.,0.,0.));
#918=DIRECTION('',(0.,0.,1.));
#919=DIRECTION('center_axis',(1.,0.,0.));
#920=DIRECTION('ref_axis',(0.,1.,0.));
#921=DIRECTION('',(0.,1.,0.));
#922=DIRECTION('',(0.,0.,1.));
#923=DIRECTION('center_axis',(0.,-1.,0.));
#924=DIRECTION('ref_axis',(1.,0.,0.));
#925=DIRECTION('',(1.,0.,0.));
#926=DIRECTION('',(0.,0.,1.));
#927=DIRECTION('center_axis',(-1.,0.,0.));
#928=DIRECTION('ref_axis',(0.,-1.,0.));
#929=DIRECTION('',(0.,-1.,0.));
#930=DIRECTION('center_axis',(0.,0.,1.));
#931=DIRECTION('ref_axis',(1.,0.,0.));
#932=DIRECTION('center_axis',(0.,0.,-1.));
#933=DIRECTION('ref_axis',(-1.,0.,0.));
#934=DIRECTION('',(-1.,0.,0.));
#935=DIRECTION('',(0.,1.,0.));
#936=DIRECTION('',(1.,0.,0.));
#937=DIRECTION('',(0.,-1.,0.));
#938=DIRECTION('center_axis',(-1.,0.,0.));
#939=DIRECTION('ref_axis',(0.,-1.,0.));
#940=DIRECTION('',(0.,0.,-1.));
#941=DIRECTION('',(0.,-1.,0.));
#942=DIRECTION('',(0.,0.,1.));
#943=DIRECTION('center_axis',(0.,1.,0.));
#944=DIRECTION('ref_axis',(-1.,0.,0.));
#945=DIRECTION('',(-1.,0.,0.));
#946=DIRECTION('',(0.,0.,1.));
#947=DIRECTION('center_axis',(1.,0.,0.));
#948=DIRECTION('ref_axis',(0.,1.,0.));
#949=DIRECTION('',(0.,1.,0.));
#950=DIRECTION('',(0.,0.,1.));
#951=DIRECTION('center_axis',(0.,-1.,0.));
#952=DIRECTION('ref_axis',(1.,0.,0.));
#953=DIRECTION('',(1.,0.,0.));
#954=DIRECTION('center_axis',(0.,0.,1.));
#955=DIRECTION('ref_axis',(1.,0.,0.));
#956=DIRECTION('center_axis',(0.,0.,-1.));
#957=DIRECTION('ref_axis',(-1.,0.,0.));
#958=DIRECTION('',(-1.,0.,0.));
#959=DIRECTION('',(0.,1.,0.));
#960=DIRECTION('',(1.,0.,0.));
#961=DIRECTION('',(0.,-1.,0.));
#962=DIRECTION('center_axis',(-1.,0.,0.));
#963=DIRECTION('ref_axis',(0.,-1.,0.));
#964=DIRECTION('',(0.,0.,-1.));
#965=DIRECTION('',(0.,-1.,0.));
#966=DIRECTION('',(0.,0.,1.));
#967=DIRECTION('center_axis',(0.,1.,0.));
#968=DIRECTION('ref_axis',(-1.,0.,0.));
#969=DIRECTION('',(-1.,0.,0.));
#970=DIRECTION('',(0.,0.,1.));
#971=DIRECTION('center_axis',(1.,0.,0.));
#972=DIRECTION('ref_axis',(0.,1.,0.));
#973=DIRECTION('',(0.,1.,0.));
#974=DIRECTION('',(0.,0.,1.));
#975=DIRECTION('center_axis',(0.,-1.,0.));
#976=DIRECTION('ref_axis',(1.,0.,0.));
#977=DIRECTION('',(1.,0.,0.));
#978=DIRECTION('center_axis',(0.,0.,1.));
#979=DIRECTION('ref_axis',(1.,0.,0.));
#980=DIRECTION('center_axis',(0.,0.,-1.));
#981=DIRECTION('ref_axis',(-1.,0.,0.));
#982=DIRECTION('',(0.,1.,0.));
#983=DIRECTION('',(1.,0.,0.));
#984=DIRECTION('',(0.,-1.,0.));
#985=DIRECTION('',(-1.,0.,0.));
#986=DIRECTION('center_axis',(0.,1.,0.));
#987=DIRECTION('ref_axis',(-1.,0.,0.));
#988=DIRECTION('',(0.,0.,-1.));
#989=DIRECTION('',(-1.,0.,0.));
#990=DIRECTION('',(0.,0.,1.));
#991=DIRECTION('center_axis',(1.,0.,0.));
#992=DIRECTION('ref_axis',(0.,1.,0.));
#993=DIRECTION('',(0.,1.,0.));
#994=DIRECTION('',(0.,0.,1.));
#995=DIRECTION('center_axis',(0.,-1.,0.));
#996=DIRECTION('ref_axis',(1.,0.,0.));
#997=DIRECTION('',(1.,0.,0.));
#998=DIRECTION('',(0.,0.,1.));
#999=DIRECTION('center_axis',(-1.,0.,0.));
#1000=DIRECTION('ref_axis',(0.,-1.,0.));
#1001=DIRECTION('',(0.,-1.,0.));
#1002=DIRECTION('center_axis',(0.,0.,1.));
#1003=DIRECTION('ref_axis',(1.,0.,0.));
#1004=DIRECTION('center_axis',(0.,0.,-1.));
#1005=DIRECTION('ref_axis',(-1.,0.,0.));
#1006=DIRECTION('',(-1.,0.,0.));
#1007=DIRECTION('',(0.,1.,0.));
#1008=DIRECTION('',(1.,0.,0.));
#1009=DIRECTION('',(0.,-1.,0.));
#1010=DIRECTION('center_axis',(-1.,0.,0.));
#1011=DIRECTION('ref_axis',(0.,-1.,0.));
#1012=DIRECTION('',(0.,0.,-1.));
#1013=DIRECTION('',(0.,-1.,0.));
#1014=DIRECTION('',(0.,0.,1.));
#1015=DIRECTION('center_axis',(0.,1.,0.));
#1016=DIRECTION('ref_axis',(-1.,0.,0.));
#1017=DIRECTION('',(-1.,0.,0.));
#1018=DIRECTION('',(0.,0.,1.));
#1019=DIRECTION('center_axis',(1.,0.,0.));
#1020=DIRECTION('ref_axis',(0.,1.,0.));
#1021=DIRECTION('',(0.,1.,0.));
#1022=DIRECTION('',(0.,0.,1.));
#1023=DIRECTION('center_axis',(0.,-1.,0.));
#1024=DIRECTION('ref_axis',(1.,0.,0.));
#1025=DIRECTION('',(1.,0.,0.));
#1026=DIRECTION('center_axis',(0.,0.,1.));
#1027=DIRECTION('ref_axis',(1.,0.,0.));
#1028=CARTESIAN_POINT('',(0.,0.,0.));
#1029=CARTESIAN_POINT('Origin',(900.,88.,-32.5));
#1030=CARTESIAN_POINT('',(0.,78.,-32.5));
#1031=CARTESIAN_POINT('',(0.,98.,-32.5));
#1032=CARTESIAN_POINT('',(0.,98.,-32.5));
#1033=CARTESIAN_POINT('',(1800.,98.,-32.5));
#1034=CARTESIAN_POINT('',(1800.,98.,-32.5));
#1035=CARTESIAN_POINT('',(1800.,78.,-32.5));
#1036=CARTESIAN_POINT('',(1800.,78.,-32.5));
#1037=CARTESIAN_POINT('',(0.,78.,-32.5));
#1038=CARTESIAN_POINT('Origin',(1800.,98.,0.));
#1039=CARTESIAN_POINT('',(0.,98.,32.5));
#1040=CARTESIAN_POINT('',(0.,98.,0.));
#1041=CARTESIAN_POINT('',(1800.,98.,32.5));
#1042=CARTESIAN_POINT('',(1800.,98.,32.5));
#1043=CARTESIAN_POINT('',(1800.,98.,0.));
#1044=CARTESIAN_POINT('Origin',(1800.,78.,0.));
#1045=CARTESIAN_POINT('',(1800.,78.,32.5));
#1046=CARTESIAN_POINT('',(1800.,78.,32.5));
#1047=CARTESIAN_POINT('',(1800.,78.,0.));
#1048=CARTESIAN_POINT('Origin',(0.,78.,0.));
#1049=CARTESIAN_POINT('',(0.,78.,32.5));
#1050=CARTESIAN_POINT('',(0.,78.,32.5));
#1051=CARTESIAN_POINT('',(0.,78.,0.));
#1052=CARTESIAN_POINT('Origin',(0.,98.,0.));
#1053=CARTESIAN_POINT('',(0.,98.,32.5));
#1054=CARTESIAN_POINT('Origin',(900.,88.,32.5));
#1055=CARTESIAN_POINT('Origin',(900.,-88.,-32.5));
#1056=CARTESIAN_POINT('',(1800.,-98.,-32.5));
#1057=CARTESIAN_POINT('',(0.,-98.,-32.5));
#1058=CARTESIAN_POINT('',(1800.,-98.,-32.5));
#1059=CARTESIAN_POINT('',(0.,-78.,-32.5));
#1060=CARTESIAN_POINT('',(0.,-98.,-32.5));
#1061=CARTESIAN_POINT('',(1800.,-78.,-32.5));
#1062=CARTESIAN_POINT('',(0.,-78.,-32.5));
#1063=CARTESIAN_POINT('',(1800.,-78.,-32.5));
#1064=CARTESIAN_POINT('Origin',(0.,-78.,0.));
#1065=CARTESIAN_POINT('',(0.,-98.,32.5));
#1066=CARTESIAN_POINT('',(0.,-98.,0.));
#1067=CARTESIAN_POINT('',(0.,-78.,32.5));
#1068=CARTESIAN_POINT('',(0.,-98.,32.5));
#1069=CARTESIAN_POINT('',(0.,-78.,0.));
#1070=CARTESIAN_POINT('Origin',(1800.,-78.,0.));
#1071=CARTESIAN_POINT('',(1800.,-78.,32.5));
#1072=CARTESIAN_POINT('',(0.,-78.,32.5));
#1073=CARTESIAN_POINT('',(1800.,-78.,0.));
#1074=CARTESIAN_POINT('Origin',(1800.,-98.,0.));
#1075=CARTESIAN_POINT('',(1800.,-98.,32.5));
#1076=CARTESIAN_POINT('',(1800.,-78.,32.5));
#1077=CARTESIAN_POINT('',(1800.,-98.,0.));
#1078=CARTESIAN_POINT('Origin',(0.,-98.,0.));
#1079=CARTESIAN_POINT('',(1800.,-98.,32.5));
#1080=CARTESIAN_POINT('Origin',(900.,-88.,32.5));
#1081=CARTESIAN_POINT('Origin',(900.,72.,-11.));
#1082=CARTESIAN_POINT('',(0.,68.,-11.));
#1083=CARTESIAN_POINT('',(0.,76.,-11.));
#1084=CARTESIAN_POINT('',(0.,76.,-11.));
#1085=CARTESIAN_POINT('',(1800.,76.,-11.));
#1086=CARTESIAN_POINT('',(1800.,76.,-11.));
#1087=CARTESIAN_POINT('',(1800.,68.,-11.));
#1088=CARTESIAN_POINT('',(1800.,68.,-11.));
#1089=CARTESIAN_POINT('',(0.,68.,-11.));
#1090=CARTESIAN_POINT('Origin',(1800.,76.,0.));
#1091=CARTESIAN_POINT('',(0.,76.,11.));
#1092=CARTESIAN_POINT('',(0.,76.,0.));
#1093=CARTESIAN_POINT('',(1800.,76.,11.));
#1094=CARTESIAN_POINT('',(1800.,76.,11.));
#1095=CARTESIAN_POINT('',(1800.,76.,0.));
#1096=CARTESIAN_POINT('Origin',(1800.,68.,0.));
#1097=CARTESIAN_POINT('',(1800.,68.,11.));
#1098=CARTESIAN_POINT('',(1800.,68.,11.));
#1099=CARTESIAN_POINT('',(1800.,68.,0.));
#1100=CARTESIAN_POINT('Origin',(0.,68.,0.));
#1101=CARTESIAN_POINT('',(0.,68.,11.));
#1102=CARTESIAN_POINT('',(0.,68.,11.));
#1103=CARTESIAN_POINT('',(0.,68.,0.));
#1104=CARTESIAN_POINT('Origin',(0.,76.,0.));
#1105=CARTESIAN_POINT('',(0.,76.,11.));
#1106=CARTESIAN_POINT('Origin',(900.,72.,11.));
#1107=CARTESIAN_POINT('Origin',(900.,87.,-11.));
#1108=CARTESIAN_POINT('',(0.,83.,-11.));
#1109=CARTESIAN_POINT('',(0.,91.,-11.));
#1110=CARTESIAN_POINT('',(0.,91.,-11.));
#1111=CARTESIAN_POINT('',(1800.,91.,-11.));
#1112=CARTESIAN_POINT('',(1800.,91.,-11.));
#1113=CARTESIAN_POINT('',(1800.,83.,-11.));
#1114=CARTESIAN_POINT('',(1800.,83.,-11.));
#1115=CARTESIAN_POINT('',(0.,83.,-11.));
#1116=CARTESIAN_POINT('Origin',(1800.,91.,0.));
#1117=CARTESIAN_POINT('',(0.,91.,11.));
#1118=CARTESIAN_POINT('',(0.,91.,0.));
#1119=CARTESIAN_POINT('',(1800.,91.,11.));
#1120=CARTESIAN_POINT('',(1800.,91.,11.));
#1121=CARTESIAN_POINT('',(1800.,91.,0.));
#1122=CARTESIAN_POINT('Origin',(1800.,83.,0.));
#1123=CARTESIAN_POINT('',(1800.,83.,11.));
#1124=CARTESIAN_POINT('',(1800.,83.,11.));
#1125=CARTESIAN_POINT('',(1800.,83.,0.));
#1126=CARTESIAN_POINT('Origin',(0.,83.,0.));
#1127=CARTESIAN_POINT('',(0.,83.,11.));
#1128=CARTESIAN_POINT('',(0.,83.,11.));
#1129=CARTESIAN_POINT('',(0.,83.,0.));
#1130=CARTESIAN_POINT('Origin',(0.,91.,0.));
#1131=CARTESIAN_POINT('',(0.,91.,11.));
#1132=CARTESIAN_POINT('Origin',(900.,87.,11.));
#1133=CARTESIAN_POINT('Origin',(900.,-72.,-11.));
#1134=CARTESIAN_POINT('',(1800.,-76.,-11.));
#1135=CARTESIAN_POINT('',(0.,-76.,-11.));
#1136=CARTESIAN_POINT('',(1800.,-76.,-11.));
#1137=CARTESIAN_POINT('',(0.,-68.,-11.));
#1138=CARTESIAN_POINT('',(0.,-76.,-11.));
#1139=CARTESIAN_POINT('',(1800.,-68.,-11.));
#1140=CARTESIAN_POINT('',(0.,-68.,-11.));
#1141=CARTESIAN_POINT('',(1800.,-68.,-11.));
#1142=CARTESIAN_POINT('Origin',(0.,-68.,0.));
#1143=CARTESIAN_POINT('',(0.,-76.,11.));
#1144=CARTESIAN_POINT('',(0.,-76.,0.));
#1145=CARTESIAN_POINT('',(0.,-68.,11.));
#1146=CARTESIAN_POINT('',(0.,-76.,11.));
#1147=CARTESIAN_POINT('',(0.,-68.,0.));
#1148=CARTESIAN_POINT('Origin',(1800.,-68.,0.));
#1149=CARTESIAN_POINT('',(1800.,-68.,11.));
#1150=CARTESIAN_POINT('',(0.,-68.,11.));
#1151=CARTESIAN_POINT('',(1800.,-68.,0.));
#1152=CARTESIAN_POINT('Origin',(1800.,-76.,0.));
#1153=CARTESIAN_POINT('',(1800.,-76.,11.));
#1154=CARTESIAN_POINT('',(1800.,-68.,11.));
#1155=CARTESIAN_POINT('',(1800.,-76.,0.));
#1156=CARTESIAN_POINT('Origin',(0.,-76.,0.));
#1157=CARTESIAN_POINT('',(1800.,-76.,11.));
#1158=CARTESIAN_POINT('Origin',(900.,-72.,11.));
#1159=CARTESIAN_POINT('Origin',(900.,-87.,-11.));
#1160=CARTESIAN_POINT('',(1800.,-91.,-11.));
#1161=CARTESIAN_POINT('',(0.,-91.,-11.));
#1162=CARTESIAN_POINT('',(1800.,-91.,-11.));
#1163=CARTESIAN_POINT('',(0.,-83.,-11.));
#1164=CARTESIAN_POINT('',(0.,-91.,-11.));
#1165=CARTESIAN_POINT('',(1800.,-83.,-11.));
#1166=CARTESIAN_POINT('',(0.,-83.,-11.));
#1167=CARTESIAN_POINT('',(1800.,-83.,-11.));
#1168=CARTESIAN_POINT('Origin',(0.,-83.,0.));
#1169=CARTESIAN_POINT('',(0.,-91.,11.));
#1170=CARTESIAN_POINT('',(0.,-91.,0.));
#1171=CARTESIAN_POINT('',(0.,-83.,11.));
#1172=CARTESIAN_POINT('',(0.,-91.,11.));
#1173=CARTESIAN_POINT('',(0.,-83.,0.));
#1174=CARTESIAN_POINT('Origin',(1800.,-83.,0.));
#1175=CARTESIAN_POINT('',(1800.,-83.,11.));
#1176=CARTESIAN_POINT('',(0.,-83.,11.));
#1177=CARTESIAN_POINT('',(1800.,-83.,0.));
#1178=CARTESIAN_POINT('Origin',(1800.,-91.,0.));
#1179=CARTESIAN_POINT('',(1800.,-91.,11.));
#1180=CARTESIAN_POINT('',(1800.,-83.,11.));
#1181=CARTESIAN_POINT('',(1800.,-91.,0.));
#1182=CARTESIAN_POINT('Origin',(0.,-91.,0.));
#1183=CARTESIAN_POINT('',(1800.,-91.,11.));
#1184=CARTESIAN_POINT('Origin',(900.,-87.,11.));
#1185=CARTESIAN_POINT('Origin',(40.,73.,-14.));
#1186=CARTESIAN_POINT('',(30.,68.,-14.));
#1187=CARTESIAN_POINT('',(30.,78.,-14.));
#1188=CARTESIAN_POINT('',(30.,78.,-14.));
#1189=CARTESIAN_POINT('',(50.,78.,-14.));
#1190=CARTESIAN_POINT('',(50.,78.,-14.));
#1191=CARTESIAN_POINT('',(50.,68.,-14.));
#1192=CARTESIAN_POINT('',(50.,68.,-14.));
#1193=CARTESIAN_POINT('',(30.,68.,-14.));
#1194=CARTESIAN_POINT('Origin',(50.,78.,0.));
#1195=CARTESIAN_POINT('',(30.,78.,14.));
#1196=CARTESIAN_POINT('',(30.,78.,0.));
#1197=CARTESIAN_POINT('',(50.,78.,14.));
#1198=CARTESIAN_POINT('',(50.,78.,14.));
#1199=CARTESIAN_POINT('',(50.,78.,0.));
#1200=CARTESIAN_POINT('Origin',(50.,68.,0.));
#1201=CARTESIAN_POINT('',(50.,68.,14.));
#1202=CARTESIAN_POINT('',(50.,68.,14.));
#1203=CARTESIAN_POINT('',(50.,68.,0.));
#1204=CARTESIAN_POINT('Origin',(30.,68.,0.));
#1205=CARTESIAN_POINT('',(30.,68.,14.));
#1206=CARTESIAN_POINT('',(30.,68.,14.));
#1207=CARTESIAN_POINT('',(30.,68.,0.));
#1208=CARTESIAN_POINT('Origin',(30.,78.,0.));
#1209=CARTESIAN_POINT('',(30.,78.,14.));
#1210=CARTESIAN_POINT('Origin',(40.,73.,14.));
#1211=CARTESIAN_POINT('Origin',(40.,-73.,-14.));
#1212=CARTESIAN_POINT('',(50.,-78.,-14.));
#1213=CARTESIAN_POINT('',(30.,-78.,-14.));
#1214=CARTESIAN_POINT('',(50.,-78.,-14.));
#1215=CARTESIAN_POINT('',(30.,-68.,-14.));
#1216=CARTESIAN_POINT('',(30.,-78.,-14.));
#1217=CARTESIAN_POINT('',(50.,-68.,-14.));
#1218=CARTESIAN_POINT('',(30.,-68.,-14.));
#1219=CARTESIAN_POINT('',(50.,-68.,-14.));
#1220=CARTESIAN_POINT('Origin',(30.,-68.,0.));
#1221=CARTESIAN_POINT('',(30.,-78.,14.));
#1222=CARTESIAN_POINT('',(30.,-78.,0.));
#1223=CARTESIAN_POINT('',(30.,-68.,14.));
#1224=CARTESIAN_POINT('',(30.,-78.,14.));
#1225=CARTESIAN_POINT('',(30.,-68.,0.));
#1226=CARTESIAN_POINT('Origin',(50.,-68.,0.));
#1227=CARTESIAN_POINT('',(50.,-68.,14.));
#1228=CARTESIAN_POINT('',(30.,-68.,14.));
#1229=CARTESIAN_POINT('',(50.,-68.,0.));
#1230=CARTESIAN_POINT('Origin',(50.,-78.,0.));
#1231=CARTESIAN_POINT('',(50.,-78.,14.));
#1232=CARTESIAN_POINT('',(50.,-68.,14.));
#1233=CARTESIAN_POINT('',(50.,-78.,0.));
#1234=CARTESIAN_POINT('Origin',(30.,-78.,0.));
#1235=CARTESIAN_POINT('',(50.,-78.,14.));
#1236=CARTESIAN_POINT('Origin',(40.,-73.,14.));
#1237=UNCERTAINTY_MEASURE_WITH_UNIT(LENGTH_MEASURE(0.01),#1241,
'DISTANCE_ACCURACY_VALUE',
'Maximum model space distance between geometric entities at asserted c
onnectivities');
#1238=UNCERTAINTY_MEASURE_WITH_UNIT(LENGTH_MEASURE(0.01),#1241,
'DISTANCE_ACCURACY_VALUE',
'Maximum model space distance between geometric entities at asserted c
onnectivities');
#1239=(
GEOMETRIC_REPRESENTATION_CONTEXT(3)
GLOBAL_UNCERTAINTY_ASSIGNED_CONTEXT((#1237))
GLOBAL_UNIT_ASSIGNED_CONTEXT((#1241,#1243,#1244))
REPRESENTATION_CONTEXT('','3D')
);
#1240=(
GEOMETRIC_REPRESENTATION_CONTEXT(3)
GLOBAL_UNCERTAINTY_ASSIGNED_CONTEXT((#1238))
GLOBAL_UNIT_ASSIGNED_CONTEXT((#1241,#1243,#1244))
REPRESENTATION_CONTEXT('','3D')
);
#1241=(
LENGTH_UNIT()
NAMED_UNIT(*)
SI_UNIT(.MILLI.,.METRE.)
);
#1242=(
LENGTH_UNIT()
NAMED_UNIT(*)
SI_UNIT($,.METRE.)
);
#1243=(
NAMED_UNIT(*)
PLANE_ANGLE_UNIT()
SI_UNIT($,.RADIAN.)
);
#1244=(
NAMED_UNIT(*)
SI_UNIT($,.STERADIAN.)
SOLID_ANGLE_UNIT()
);
#1245=SHAPE_DEFINITION_REPRESENTATION(#1246,#1247);
#1246=PRODUCT_DEFINITION_SHAPE('',$,#1249);
#1247=SHAPE_REPRESENTATION('',(#785),#1239);
#1248=PRODUCT_DEFINITION_CONTEXT('part definition',#1253,'design');
#1249=PRODUCT_DEFINITION('EMOCD_Track_Gen1','EMOCD_Track_Gen1 v1',#1250,
#1248);
#1250=PRODUCT_DEFINITION_FORMATION('',$,#1255);
#1251=PRODUCT_RELATED_PRODUCT_CATEGORY('EMOCD_Track_Gen1 v1',
'EMOCD_Track_Gen1 v1',(#1255));
#1252=APPLICATION_PROTOCOL_DEFINITION('international standard',
'automotive_design',2009,#1253);
#1253=APPLICATION_CONTEXT(
'Core Data for Automotive Mechanical Design Process');
#1254=PRODUCT_CONTEXT('part definition',#1253,'mechanical');
#1255=PRODUCT('EMOCD_Track_Gen1','EMOCD_Track_Gen1 v1',$,(#1254));
#1256=PRESENTATION_STYLE_ASSIGNMENT((#1257));
#1257=SURFACE_STYLE_USAGE(.BOTH.,#1258);
#1258=SURFACE_SIDE_STYLE('',(#1259));
#1259=SURFACE_STYLE_FILL_AREA(#1260);
#1260=FILL_AREA_STYLE('Steel - Satin',(#1261));
#1261=FILL_AREA_STYLE_COLOUR('Steel - Satin',#1262);
#1262=COLOUR_RGB('Steel - Satin',0.627450980392157,0.627450980392157,0.627450980392157);
ENDSEC;
END-ISO-10303-21;
