ISO-10303-21;
HEADER;
/* Generated by software containing ST-Developer
 * from STEP Tools, Inc. (www.steptools.com) 
 */

FILE_DESCRIPTION(
/* description */ (''),
/* implementation_level */ '2;1');

FILE_NAME(
/* name */ 'EMOCD_Interface_ESPA_Gen1.step',
/* time_stamp */ '2026-07-28T19:15:03+05:30',
/* author */ (''),
/* organization */ (''),
/* preprocessor_version */ 'ST-DEVELOPER v20.1',
/* originating_system */ 'Autodesk Translation Framework v15.8.0.0',
/* authorisation */ '');

FILE_SCHEMA (('AUTOMOTIVE_DESIGN { 1 0 10303 214 3 1 1 }'));
ENDSEC;

DATA;
#10=MECHANICAL_DESIGN_GEOMETRIC_PRESENTATION_REPRESENTATION('',(#13,#14,
#15,#16,#17,#18),#1855);
#11=SHAPE_REPRESENTATION_RELATIONSHIP('SRR','None',#1862,#12);
#12=ADVANCED_BREP_SHAPE_REPRESENTATION('',(#19,#20,#21,#22,#23,#24),#1854);
#13=STYLED_ITEM('',(#1871),#19);
#14=STYLED_ITEM('',(#1871),#20);
#15=STYLED_ITEM('',(#1871),#21);
#16=STYLED_ITEM('',(#1871),#22);
#17=STYLED_ITEM('',(#1871),#23);
#18=STYLED_ITEM('',(#1871),#24);
#19=MANIFOLD_SOLID_BREP('ESPA_FlangeRing',#1102);
#20=MANIFOLD_SOLID_BREP('ESPA_HubPlate',#1103);
#21=MANIFOLD_SOLID_BREP('ESPA_Gusset_0deg',#1104);
#22=MANIFOLD_SOLID_BREP('ESPA_Gusset_90deg',#1105);
#23=MANIFOLD_SOLID_BREP('ESPA_Gusset_180deg',#1106);
#24=MANIFOLD_SOLID_BREP('ESPA_Gusset_270deg',#1107);
#25=FACE_BOUND('',#191,.T.);
#26=FACE_BOUND('',#192,.T.);
#27=FACE_BOUND('',#193,.T.);
#28=FACE_BOUND('',#194,.T.);
#29=FACE_BOUND('',#195,.T.);
#30=FACE_BOUND('',#196,.T.);
#31=FACE_BOUND('',#197,.T.);
#32=FACE_BOUND('',#198,.T.);
#33=FACE_BOUND('',#199,.T.);
#34=FACE_BOUND('',#200,.T.);
#35=FACE_BOUND('',#201,.T.);
#36=FACE_BOUND('',#202,.T.);
#37=FACE_BOUND('',#203,.T.);
#38=FACE_BOUND('',#204,.T.);
#39=FACE_BOUND('',#205,.T.);
#40=FACE_BOUND('',#206,.T.);
#41=FACE_BOUND('',#207,.T.);
#42=FACE_BOUND('',#208,.T.);
#43=FACE_BOUND('',#209,.T.);
#44=FACE_BOUND('',#210,.T.);
#45=FACE_BOUND('',#211,.T.);
#46=FACE_BOUND('',#212,.T.);
#47=FACE_BOUND('',#213,.T.);
#48=FACE_BOUND('',#214,.T.);
#49=FACE_BOUND('',#215,.T.);
#50=FACE_BOUND('',#217,.T.);
#51=FACE_BOUND('',#218,.T.);
#52=FACE_BOUND('',#219,.T.);
#53=FACE_BOUND('',#220,.T.);
#54=FACE_BOUND('',#221,.T.);
#55=FACE_BOUND('',#222,.T.);
#56=FACE_BOUND('',#223,.T.);
#57=FACE_BOUND('',#224,.T.);
#58=FACE_BOUND('',#225,.T.);
#59=FACE_BOUND('',#226,.T.);
#60=FACE_BOUND('',#227,.T.);
#61=FACE_BOUND('',#228,.T.);
#62=FACE_BOUND('',#229,.T.);
#63=FACE_BOUND('',#230,.T.);
#64=FACE_BOUND('',#231,.T.);
#65=FACE_BOUND('',#232,.T.);
#66=FACE_BOUND('',#233,.T.);
#67=FACE_BOUND('',#234,.T.);
#68=FACE_BOUND('',#235,.T.);
#69=FACE_BOUND('',#236,.T.);
#70=FACE_BOUND('',#237,.T.);
#71=FACE_BOUND('',#238,.T.);
#72=FACE_BOUND('',#239,.T.);
#73=FACE_BOUND('',#240,.T.);
#74=FACE_BOUND('',#241,.T.);
#75=PLANE('',#1199);
#76=PLANE('',#1200);
#77=PLANE('',#1204);
#78=PLANE('',#1205);
#79=PLANE('',#1206);
#80=PLANE('',#1207);
#81=PLANE('',#1208);
#82=PLANE('',#1209);
#83=PLANE('',#1210);
#84=PLANE('',#1211);
#85=PLANE('',#1212);
#86=PLANE('',#1216);
#87=PLANE('',#1217);
#88=PLANE('',#1218);
#89=PLANE('',#1219);
#90=PLANE('',#1220);
#91=PLANE('',#1221);
#92=PLANE('',#1222);
#93=PLANE('',#1223);
#94=PLANE('',#1224);
#95=PLANE('',#1225);
#96=PLANE('',#1226);
#97=PLANE('',#1227);
#98=PLANE('',#1228);
#99=PLANE('',#1232);
#100=PLANE('',#1233);
#101=PLANE('',#1234);
#102=PLANE('',#1235);
#103=PLANE('',#1236);
#104=PLANE('',#1237);
#105=FACE_OUTER_BOUND('',#164,.T.);
#106=FACE_OUTER_BOUND('',#165,.T.);
#107=FACE_OUTER_BOUND('',#166,.T.);
#108=FACE_OUTER_BOUND('',#167,.T.);
#109=FACE_OUTER_BOUND('',#168,.T.);
#110=FACE_OUTER_BOUND('',#169,.T.);
#111=FACE_OUTER_BOUND('',#170,.T.);
#112=FACE_OUTER_BOUND('',#171,.T.);
#113=FACE_OUTER_BOUND('',#172,.T.);
#114=FACE_OUTER_BOUND('',#173,.T.);
#115=FACE_OUTER_BOUND('',#174,.T.);
#116=FACE_OUTER_BOUND('',#175,.T.);
#117=FACE_OUTER_BOUND('',#176,.T.);
#118=FACE_OUTER_BOUND('',#177,.T.);
#119=FACE_OUTER_BOUND('',#178,.T.);
#120=FACE_OUTER_BOUND('',#179,.T.);
#121=FACE_OUTER_BOUND('',#180,.T.);
#122=FACE_OUTER_BOUND('',#181,.T.);
#123=FACE_OUTER_BOUND('',#182,.T.);
#124=FACE_OUTER_BOUND('',#183,.T.);
#125=FACE_OUTER_BOUND('',#184,.T.);
#126=FACE_OUTER_BOUND('',#185,.T.);
#127=FACE_OUTER_BOUND('',#186,.T.);
#128=FACE_OUTER_BOUND('',#187,.T.);
#129=FACE_OUTER_BOUND('',#188,.T.);
#130=FACE_OUTER_BOUND('',#189,.T.);
#131=FACE_OUTER_BOUND('',#190,.T.);
#132=FACE_OUTER_BOUND('',#216,.T.);
#133=FACE_OUTER_BOUND('',#242,.T.);
#134=FACE_OUTER_BOUND('',#243,.T.);
#135=FACE_OUTER_BOUND('',#244,.T.);
#136=FACE_OUTER_BOUND('',#245,.T.);
#137=FACE_OUTER_BOUND('',#246,.T.);
#138=FACE_OUTER_BOUND('',#247,.T.);
#139=FACE_OUTER_BOUND('',#248,.T.);
#140=FACE_OUTER_BOUND('',#249,.T.);
#141=FACE_OUTER_BOUND('',#250,.T.);
#142=FACE_OUTER_BOUND('',#251,.T.);
#143=FACE_OUTER_BOUND('',#252,.T.);
#144=FACE_OUTER_BOUND('',#253,.T.);
#145=FACE_OUTER_BOUND('',#254,.T.);
#146=FACE_OUTER_BOUND('',#255,.T.);
#147=FACE_OUTER_BOUND('',#256,.T.);
#148=FACE_OUTER_BOUND('',#257,.T.);
#149=FACE_OUTER_BOUND('',#258,.T.);
#150=FACE_OUTER_BOUND('',#259,.T.);
#151=FACE_OUTER_BOUND('',#260,.T.);
#152=FACE_OUTER_BOUND('',#261,.T.);
#153=FACE_OUTER_BOUND('',#262,.T.);
#154=FACE_OUTER_BOUND('',#263,.T.);
#155=FACE_OUTER_BOUND('',#264,.T.);
#156=FACE_OUTER_BOUND('',#265,.T.);
#157=FACE_OUTER_BOUND('',#266,.T.);
#158=FACE_OUTER_BOUND('',#267,.T.);
#159=FACE_OUTER_BOUND('',#268,.T.);
#160=FACE_OUTER_BOUND('',#269,.T.);
#161=FACE_OUTER_BOUND('',#270,.T.);
#162=FACE_OUTER_BOUND('',#271,.T.);
#163=FACE_OUTER_BOUND('',#272,.T.);
#164=EDGE_LOOP('',(#732,#733,#734,#735));
#165=EDGE_LOOP('',(#736,#737,#738,#739));
#166=EDGE_LOOP('',(#740,#741,#742,#743));
#167=EDGE_LOOP('',(#744,#745,#746,#747));
#168=EDGE_LOOP('',(#748,#749,#750,#751));
#169=EDGE_LOOP('',(#752,#753,#754,#755));
#170=EDGE_LOOP('',(#756,#757,#758,#759));
#171=EDGE_LOOP('',(#760,#761,#762,#763));
#172=EDGE_LOOP('',(#764,#765,#766,#767));
#173=EDGE_LOOP('',(#768,#769,#770,#771));
#174=EDGE_LOOP('',(#772,#773,#774,#775));
#175=EDGE_LOOP('',(#776,#777,#778,#779));
#176=EDGE_LOOP('',(#780,#781,#782,#783));
#177=EDGE_LOOP('',(#784,#785,#786,#787));
#178=EDGE_LOOP('',(#788,#789,#790,#791));
#179=EDGE_LOOP('',(#792,#793,#794,#795));
#180=EDGE_LOOP('',(#796,#797,#798,#799));
#181=EDGE_LOOP('',(#800,#801,#802,#803));
#182=EDGE_LOOP('',(#804,#805,#806,#807));
#183=EDGE_LOOP('',(#808,#809,#810,#811));
#184=EDGE_LOOP('',(#812,#813,#814,#815));
#185=EDGE_LOOP('',(#816,#817,#818,#819));
#186=EDGE_LOOP('',(#820,#821,#822,#823));
#187=EDGE_LOOP('',(#824,#825,#826,#827));
#188=EDGE_LOOP('',(#828,#829,#830,#831));
#189=EDGE_LOOP('',(#832,#833,#834,#835));
#190=EDGE_LOOP('',(#836));
#191=EDGE_LOOP('',(#837));
#192=EDGE_LOOP('',(#838));
#193=EDGE_LOOP('',(#839));
#194=EDGE_LOOP('',(#840));
#195=EDGE_LOOP('',(#841));
#196=EDGE_LOOP('',(#842));
#197=EDGE_LOOP('',(#843));
#198=EDGE_LOOP('',(#844));
#199=EDGE_LOOP('',(#845));
#200=EDGE_LOOP('',(#846));
#201=EDGE_LOOP('',(#847));
#202=EDGE_LOOP('',(#848));
#203=EDGE_LOOP('',(#849));
#204=EDGE_LOOP('',(#850));
#205=EDGE_LOOP('',(#851));
#206=EDGE_LOOP('',(#852));
#207=EDGE_LOOP('',(#853));
#208=EDGE_LOOP('',(#854));
#209=EDGE_LOOP('',(#855));
#210=EDGE_LOOP('',(#856));
#211=EDGE_LOOP('',(#857));
#212=EDGE_LOOP('',(#858));
#213=EDGE_LOOP('',(#859));
#214=EDGE_LOOP('',(#860));
#215=EDGE_LOOP('',(#861));
#216=EDGE_LOOP('',(#862));
#217=EDGE_LOOP('',(#863));
#218=EDGE_LOOP('',(#864));
#219=EDGE_LOOP('',(#865));
#220=EDGE_LOOP('',(#866));
#221=EDGE_LOOP('',(#867));
#222=EDGE_LOOP('',(#868));
#223=EDGE_LOOP('',(#869));
#224=EDGE_LOOP('',(#870));
#225=EDGE_LOOP('',(#871));
#226=EDGE_LOOP('',(#872));
#227=EDGE_LOOP('',(#873));
#228=EDGE_LOOP('',(#874));
#229=EDGE_LOOP('',(#875));
#230=EDGE_LOOP('',(#876));
#231=EDGE_LOOP('',(#877));
#232=EDGE_LOOP('',(#878));
#233=EDGE_LOOP('',(#879));
#234=EDGE_LOOP('',(#880));
#235=EDGE_LOOP('',(#881));
#236=EDGE_LOOP('',(#882));
#237=EDGE_LOOP('',(#883));
#238=EDGE_LOOP('',(#884));
#239=EDGE_LOOP('',(#885));
#240=EDGE_LOOP('',(#886));
#241=EDGE_LOOP('',(#887));
#242=EDGE_LOOP('',(#888,#889,#890,#891));
#243=EDGE_LOOP('',(#892));
#244=EDGE_LOOP('',(#893));
#245=EDGE_LOOP('',(#894,#895,#896,#897));
#246=EDGE_LOOP('',(#898,#899,#900,#901));
#247=EDGE_LOOP('',(#902,#903,#904,#905));
#248=EDGE_LOOP('',(#906,#907,#908,#909));
#249=EDGE_LOOP('',(#910,#911,#912,#913));
#250=EDGE_LOOP('',(#914,#915,#916,#917));
#251=EDGE_LOOP('',(#918,#919));
#252=EDGE_LOOP('',(#920,#921,#922,#923));
#253=EDGE_LOOP('',(#924,#925,#926,#927,#928,#929,#930,#931));
#254=EDGE_LOOP('',(#932,#933,#934,#935));
#255=EDGE_LOOP('',(#936,#937,#938,#939));
#256=EDGE_LOOP('',(#940,#941,#942,#943,#944,#945));
#257=EDGE_LOOP('',(#946,#947,#948,#949));
#258=EDGE_LOOP('',(#950,#951,#952,#953));
#259=EDGE_LOOP('',(#954,#955,#956,#957));
#260=EDGE_LOOP('',(#958,#959,#960,#961));
#261=EDGE_LOOP('',(#962,#963,#964,#965));
#262=EDGE_LOOP('',(#966,#967,#968,#969));
#263=EDGE_LOOP('',(#970,#971,#972,#973));
#264=EDGE_LOOP('',(#974,#975,#976,#977));
#265=EDGE_LOOP('',(#978,#979));
#266=EDGE_LOOP('',(#980,#981,#982,#983));
#267=EDGE_LOOP('',(#984,#985,#986,#987,#988,#989,#990,#991));
#268=EDGE_LOOP('',(#992,#993,#994,#995,#996,#997));
#269=EDGE_LOOP('',(#998,#999,#1000,#1001));
#270=EDGE_LOOP('',(#1002,#1003,#1004,#1005));
#271=EDGE_LOOP('',(#1006,#1007,#1008,#1009));
#272=EDGE_LOOP('',(#1010,#1011,#1012,#1013));
#273=LINE('',#1562,#356);
#274=LINE('',#1568,#357);
#275=LINE('',#1574,#358);
#276=LINE('',#1580,#359);
#277=LINE('',#1586,#360);
#278=LINE('',#1592,#361);
#279=LINE('',#1598,#362);
#280=LINE('',#1604,#363);
#281=LINE('',#1610,#364);
#282=LINE('',#1616,#365);
#283=LINE('',#1622,#366);
#284=LINE('',#1628,#367);
#285=LINE('',#1634,#368);
#286=LINE('',#1640,#369);
#287=LINE('',#1646,#370);
#288=LINE('',#1652,#371);
#289=LINE('',#1658,#372);
#290=LINE('',#1664,#373);
#291=LINE('',#1670,#374);
#292=LINE('',#1676,#375);
#293=LINE('',#1682,#376);
#294=LINE('',#1688,#377);
#295=LINE('',#1694,#378);
#296=LINE('',#1700,#379);
#297=LINE('',#1706,#380);
#298=LINE('',#1712,#381);
#299=LINE('',#1720,#382);
#300=LINE('',#1727,#383);
#301=LINE('',#1729,#384);
#302=LINE('',#1731,#385);
#303=LINE('',#1732,#386);
#304=LINE('',#1735,#387);
#305=LINE('',#1737,#388);
#306=LINE('',#1738,#389);
#307=LINE('',#1741,#390);
#308=LINE('',#1743,#391);
#309=LINE('',#1744,#392);
#310=LINE('',#1746,#393);
#311=LINE('',#1747,#394);
#312=LINE('',#1753,#395);
#313=LINE('',#1757,#396);
#314=LINE('',#1760,#397);
#315=LINE('',#1763,#398);
#316=LINE('',#1765,#399);
#317=LINE('',#1767,#400);
#318=LINE('',#1769,#401);
#319=LINE('',#1770,#402);
#320=LINE('',#1773,#403);
#321=LINE('',#1775,#404);
#322=LINE('',#1776,#405);
#323=LINE('',#1779,#406);
#324=LINE('',#1780,#407);
#325=LINE('',#1783,#408);
#326=LINE('',#1784,#409);
#327=LINE('',#1786,#410);
#328=LINE('',#1791,#411);
#329=LINE('',#1793,#412);
#330=LINE('',#1795,#413);
#331=LINE('',#1796,#414);
#332=LINE('',#1799,#415);
#333=LINE('',#1801,#416);
#334=LINE('',#1802,#417);
#335=LINE('',#1805,#418);
#336=LINE('',#1807,#419);
#337=LINE('',#1808,#420);
#338=LINE('',#1810,#421);
#339=LINE('',#1811,#422);
#340=LINE('',#1817,#423);
#341=LINE('',#1821,#424);
#342=LINE('',#1824,#425);
#343=LINE('',#1827,#426);
#344=LINE('',#1829,#427);
#345=LINE('',#1831,#428);
#346=LINE('',#1833,#429);
#347=LINE('',#1834,#430);
#348=LINE('',#1837,#431);
#349=LINE('',#1839,#432);
#350=LINE('',#1840,#433);
#351=LINE('',#1843,#434);
#352=LINE('',#1844,#435);
#353=LINE('',#1847,#436);
#354=LINE('',#1848,#437);
#355=LINE('',#1850,#438);
#356=VECTOR('',#1244,4.49999999999999);
#357=VECTOR('',#1251,4.49999999999999);
#358=VECTOR('',#1258,4.5);
#359=VECTOR('',#1265,4.49999999999999);
#360=VECTOR('',#1272,4.49999999999999);
#361=VECTOR('',#1279,4.49999999999999);
#362=VECTOR('',#1286,4.49999999999999);
#363=VECTOR('',#1293,4.49999999999999);
#364=VECTOR('',#1300,4.5);
#365=VECTOR('',#1307,4.5);
#366=VECTOR('',#1314,4.49999999999999);
#367=VECTOR('',#1321,4.49999999999999);
#368=VECTOR('',#1328,4.49999999999999);
#369=VECTOR('',#1335,4.49999999999999);
#370=VECTOR('',#1342,4.5);
#371=VECTOR('',#1349,4.49999999999999);
#372=VECTOR('',#1356,4.49999999999999);
#373=VECTOR('',#1363,4.49999999999999);
#374=VECTOR('',#1370,4.49999999999999);
#375=VECTOR('',#1377,4.49999999999999);
#376=VECTOR('',#1384,4.5);
#377=VECTOR('',#1391,4.5);
#378=VECTOR('',#1398,4.49999999999999);
#379=VECTOR('',#1405,4.49999999999999);
#380=VECTOR('',#1412,170.);
#381=VECTOR('',#1419,230.);
#382=VECTOR('',#1430,150.);
#383=VECTOR('',#1439,10.);
#384=VECTOR('',#1440,10.);
#385=VECTOR('',#1441,10.);
#386=VECTOR('',#1442,10.);
#387=VECTOR('',#1445,10.);
#388=VECTOR('',#1446,10.);
#389=VECTOR('',#1447,10.);
#390=VECTOR('',#1450,10.);
#391=VECTOR('',#1451,10.);
#392=VECTOR('',#1452,10.);
#393=VECTOR('',#1455,10.);
#394=VECTOR('',#1456,10.);
#395=VECTOR('',#1463,10.);
#396=VECTOR('',#1468,10.);
#397=VECTOR('',#1471,10.);
#398=VECTOR('',#1474,10.);
#399=VECTOR('',#1475,10.);
#400=VECTOR('',#1476,10.);
#401=VECTOR('',#1477,10.);
#402=VECTOR('',#1478,10.);
#403=VECTOR('',#1481,10.);
#404=VECTOR('',#1482,10.);
#405=VECTOR('',#1483,10.);
#406=VECTOR('',#1486,10.);
#407=VECTOR('',#1487,10.);
#408=VECTOR('',#1490,10.);
#409=VECTOR('',#1491,10.);
#410=VECTOR('',#1494,10.);
#411=VECTOR('',#1499,10.);
#412=VECTOR('',#1500,10.);
#413=VECTOR('',#1501,10.);
#414=VECTOR('',#1502,10.);
#415=VECTOR('',#1505,10.);
#416=VECTOR('',#1506,10.);
#417=VECTOR('',#1507,10.);
#418=VECTOR('',#1510,10.);
#419=VECTOR('',#1511,10.);
#420=VECTOR('',#1512,10.);
#421=VECTOR('',#1515,10.);
#422=VECTOR('',#1516,10.);
#423=VECTOR('',#1523,10.);
#424=VECTOR('',#1528,10.);
#425=VECTOR('',#1531,10.);
#426=VECTOR('',#1534,10.);
#427=VECTOR('',#1535,10.);
#428=VECTOR('',#1536,10.);
#429=VECTOR('',#1537,10.);
#430=VECTOR('',#1538,10.);
#431=VECTOR('',#1541,10.);
#432=VECTOR('',#1542,10.);
#433=VECTOR('',#1543,10.);
#434=VECTOR('',#1546,10.);
#435=VECTOR('',#1547,10.);
#436=VECTOR('',#1550,10.);
#437=VECTOR('',#1551,10.);
#438=VECTOR('',#1554,10.);
#439=CIRCLE('',#1122,4.49999999999999);
#440=CIRCLE('',#1123,4.49999999999999);
#441=CIRCLE('',#1125,4.49999999999999);
#442=CIRCLE('',#1126,4.49999999999999);
#443=CIRCLE('',#1128,4.5);
#444=CIRCLE('',#1129,4.5);
#445=CIRCLE('',#1131,4.49999999999999);
#446=CIRCLE('',#1132,4.49999999999999);
#447=CIRCLE('',#1134,4.49999999999999);
#448=CIRCLE('',#1135,4.49999999999999);
#449=CIRCLE('',#1137,4.49999999999999);
#450=CIRCLE('',#1138,4.49999999999999);
#451=CIRCLE('',#1140,4.49999999999999);
#452=CIRCLE('',#1141,4.49999999999999);
#453=CIRCLE('',#1143,4.49999999999999);
#454=CIRCLE('',#1144,4.49999999999999);
#455=CIRCLE('',#1146,4.5);
#456=CIRCLE('',#1147,4.5);
#457=CIRCLE('',#1149,4.5);
#458=CIRCLE('',#1150,4.5);
#459=CIRCLE('',#1152,4.49999999999999);
#460=CIRCLE('',#1153,4.49999999999999);
#461=CIRCLE('',#1155,4.49999999999999);
#462=CIRCLE('',#1156,4.49999999999999);
#463=CIRCLE('',#1158,4.49999999999999);
#464=CIRCLE('',#1159,4.49999999999999);
#465=CIRCLE('',#1161,4.49999999999999);
#466=CIRCLE('',#1162,4.49999999999999);
#467=CIRCLE('',#1164,4.5);
#468=CIRCLE('',#1165,4.5);
#469=CIRCLE('',#1167,4.49999999999999);
#470=CIRCLE('',#1168,4.49999999999999);
#471=CIRCLE('',#1170,4.49999999999999);
#472=CIRCLE('',#1171,4.49999999999999);
#473=CIRCLE('',#1173,4.49999999999999);
#474=CIRCLE('',#1174,4.49999999999999);
#475=CIRCLE('',#1176,4.49999999999999);
#476=CIRCLE('',#1177,4.49999999999999);
#477=CIRCLE('',#1179,4.49999999999999);
#478=CIRCLE('',#1180,4.49999999999999);
#479=CIRCLE('',#1182,4.5);
#480=CIRCLE('',#1183,4.5);
#481=CIRCLE('',#1185,4.5);
#482=CIRCLE('',#1186,4.5);
#483=CIRCLE('',#1188,4.49999999999999);
#484=CIRCLE('',#1189,4.49999999999999);
#485=CIRCLE('',#1191,4.49999999999999);
#486=CIRCLE('',#1192,4.49999999999999);
#487=CIRCLE('',#1194,170.);
#488=CIRCLE('',#1195,170.);
#489=CIRCLE('',#1197,230.);
#490=CIRCLE('',#1198,230.);
#491=CIRCLE('',#1202,150.);
#492=CIRCLE('',#1203,150.);
#493=CIRCLE('',#1213,4.5);
#494=CIRCLE('',#1215,4.5);
#495=CIRCLE('',#1229,4.5);
#496=CIRCLE('',#1231,4.5);
#497=VERTEX_POINT('',#1559);
#498=VERTEX_POINT('',#1561);
#499=VERTEX_POINT('',#1565);
#500=VERTEX_POINT('',#1567);
#501=VERTEX_POINT('',#1571);
#502=VERTEX_POINT('',#1573);
#503=VERTEX_POINT('',#1577);
#504=VERTEX_POINT('',#1579);
#505=VERTEX_POINT('',#1583);
#506=VERTEX_POINT('',#1585);
#507=VERTEX_POINT('',#1589);
#508=VERTEX_POINT('',#1591);
#509=VERTEX_POINT('',#1595);
#510=VERTEX_POINT('',#1597);
#511=VERTEX_POINT('',#1601);
#512=VERTEX_POINT('',#1603);
#513=VERTEX_POINT('',#1607);
#514=VERTEX_POINT('',#1609);
#515=VERTEX_POINT('',#1613);
#516=VERTEX_POINT('',#1615);
#517=VERTEX_POINT('',#1619);
#518=VERTEX_POINT('',#1621);
#519=VERTEX_POINT('',#1625);
#520=VERTEX_POINT('',#1627);
#521=VERTEX_POINT('',#1631);
#522=VERTEX_POINT('',#1633);
#523=VERTEX_POINT('',#1637);
#524=VERTEX_POINT('',#1639);
#525=VERTEX_POINT('',#1643);
#526=VERTEX_POINT('',#1645);
#527=VERTEX_POINT('',#1649);
#528=VERTEX_POINT('',#1651);
#529=VERTEX_POINT('',#1655);
#530=VERTEX_POINT('',#1657);
#531=VERTEX_POINT('',#1661);
#532=VERTEX_POINT('',#1663);
#533=VERTEX_POINT('',#1667);
#534=VERTEX_POINT('',#1669);
#535=VERTEX_POINT('',#1673);
#536=VERTEX_POINT('',#1675);
#537=VERTEX_POINT('',#1679);
#538=VERTEX_POINT('',#1681);
#539=VERTEX_POINT('',#1685);
#540=VERTEX_POINT('',#1687);
#541=VERTEX_POINT('',#1691);
#542=VERTEX_POINT('',#1693);
#543=VERTEX_POINT('',#1697);
#544=VERTEX_POINT('',#1699);
#545=VERTEX_POINT('',#1703);
#546=VERTEX_POINT('',#1705);
#547=VERTEX_POINT('',#1709);
#548=VERTEX_POINT('',#1711);
#549=VERTEX_POINT('',#1717);
#550=VERTEX_POINT('',#1719);
#551=VERTEX_POINT('',#1725);
#552=VERTEX_POINT('',#1726);
#553=VERTEX_POINT('',#1728);
#554=VERTEX_POINT('',#1730);
#555=VERTEX_POINT('',#1734);
#556=VERTEX_POINT('',#1736);
#557=VERTEX_POINT('',#1740);
#558=VERTEX_POINT('',#1742);
#559=VERTEX_POINT('',#1751);
#560=VERTEX_POINT('',#1752);
#561=VERTEX_POINT('',#1756);
#562=VERTEX_POINT('',#1758);
#563=VERTEX_POINT('',#1762);
#564=VERTEX_POINT('',#1764);
#565=VERTEX_POINT('',#1766);
#566=VERTEX_POINT('',#1768);
#567=VERTEX_POINT('',#1772);
#568=VERTEX_POINT('',#1774);
#569=VERTEX_POINT('',#1778);
#570=VERTEX_POINT('',#1782);
#571=VERTEX_POINT('',#1789);
#572=VERTEX_POINT('',#1790);
#573=VERTEX_POINT('',#1792);
#574=VERTEX_POINT('',#1794);
#575=VERTEX_POINT('',#1798);
#576=VERTEX_POINT('',#1800);
#577=VERTEX_POINT('',#1804);
#578=VERTEX_POINT('',#1806);
#579=VERTEX_POINT('',#1815);
#580=VERTEX_POINT('',#1816);
#581=VERTEX_POINT('',#1820);
#582=VERTEX_POINT('',#1822);
#583=VERTEX_POINT('',#1826);
#584=VERTEX_POINT('',#1828);
#585=VERTEX_POINT('',#1830);
#586=VERTEX_POINT('',#1832);
#587=VERTEX_POINT('',#1836);
#588=VERTEX_POINT('',#1838);
#589=VERTEX_POINT('',#1842);
#590=VERTEX_POINT('',#1846);
#591=EDGE_CURVE('',#497,#497,#439,.T.);
#592=EDGE_CURVE('',#497,#498,#273,.T.);
#593=EDGE_CURVE('',#498,#498,#440,.T.);
#594=EDGE_CURVE('',#499,#499,#441,.T.);
#595=EDGE_CURVE('',#499,#500,#274,.T.);
#596=EDGE_CURVE('',#500,#500,#442,.T.);
#597=EDGE_CURVE('',#501,#501,#443,.T.);
#598=EDGE_CURVE('',#501,#502,#275,.T.);
#599=EDGE_CURVE('',#502,#502,#444,.T.);
#600=EDGE_CURVE('',#503,#503,#445,.T.);
#601=EDGE_CURVE('',#503,#504,#276,.T.);
#602=EDGE_CURVE('',#504,#504,#446,.T.);
#603=EDGE_CURVE('',#505,#505,#447,.T.);
#604=EDGE_CURVE('',#505,#506,#277,.T.);
#605=EDGE_CURVE('',#506,#506,#448,.T.);
#606=EDGE_CURVE('',#507,#507,#449,.T.);
#607=EDGE_CURVE('',#507,#508,#278,.T.);
#608=EDGE_CURVE('',#508,#508,#450,.T.);
#609=EDGE_CURVE('',#509,#509,#451,.T.);
#610=EDGE_CURVE('',#509,#510,#279,.T.);
#611=EDGE_CURVE('',#510,#510,#452,.T.);
#612=EDGE_CURVE('',#511,#511,#453,.T.);
#613=EDGE_CURVE('',#511,#512,#280,.T.);
#614=EDGE_CURVE('',#512,#512,#454,.T.);
#615=EDGE_CURVE('',#513,#513,#455,.T.);
#616=EDGE_CURVE('',#513,#514,#281,.T.);
#617=EDGE_CURVE('',#514,#514,#456,.T.);
#618=EDGE_CURVE('',#515,#515,#457,.T.);
#619=EDGE_CURVE('',#515,#516,#282,.T.);
#620=EDGE_CURVE('',#516,#516,#458,.T.);
#621=EDGE_CURVE('',#517,#517,#459,.T.);
#622=EDGE_CURVE('',#517,#518,#283,.T.);
#623=EDGE_CURVE('',#518,#518,#460,.T.);
#624=EDGE_CURVE('',#519,#519,#461,.T.);
#625=EDGE_CURVE('',#519,#520,#284,.T.);
#626=EDGE_CURVE('',#520,#520,#462,.T.);
#627=EDGE_CURVE('',#521,#521,#463,.T.);
#628=EDGE_CURVE('',#521,#522,#285,.T.);
#629=EDGE_CURVE('',#522,#522,#464,.T.);
#630=EDGE_CURVE('',#523,#523,#465,.T.);
#631=EDGE_CURVE('',#523,#524,#286,.T.);
#632=EDGE_CURVE('',#524,#524,#466,.T.);
#633=EDGE_CURVE('',#525,#525,#467,.T.);
#634=EDGE_CURVE('',#525,#526,#287,.T.);
#635=EDGE_CURVE('',#526,#526,#468,.T.);
#636=EDGE_CURVE('',#527,#527,#469,.T.);
#637=EDGE_CURVE('',#527,#528,#288,.T.);
#638=EDGE_CURVE('',#528,#528,#470,.T.);
#639=EDGE_CURVE('',#529,#529,#471,.T.);
#640=EDGE_CURVE('',#529,#530,#289,.T.);
#641=EDGE_CURVE('',#530,#530,#472,.T.);
#642=EDGE_CURVE('',#531,#531,#473,.T.);
#643=EDGE_CURVE('',#531,#532,#290,.T.);
#644=EDGE_CURVE('',#532,#532,#474,.T.);
#645=EDGE_CURVE('',#533,#533,#475,.T.);
#646=EDGE_CURVE('',#533,#534,#291,.T.);
#647=EDGE_CURVE('',#534,#534,#476,.T.);
#648=EDGE_CURVE('',#535,#535,#477,.T.);
#649=EDGE_CURVE('',#535,#536,#292,.T.);
#650=EDGE_CURVE('',#536,#536,#478,.T.);
#651=EDGE_CURVE('',#537,#537,#479,.T.);
#652=EDGE_CURVE('',#537,#538,#293,.T.);
#653=EDGE_CURVE('',#538,#538,#480,.T.);
#654=EDGE_CURVE('',#539,#539,#481,.T.);
#655=EDGE_CURVE('',#539,#540,#294,.T.);
#656=EDGE_CURVE('',#540,#540,#482,.T.);
#657=EDGE_CURVE('',#541,#541,#483,.T.);
#658=EDGE_CURVE('',#541,#542,#295,.T.);
#659=EDGE_CURVE('',#542,#542,#484,.T.);
#660=EDGE_CURVE('',#543,#543,#485,.T.);
#661=EDGE_CURVE('',#543,#544,#296,.T.);
#662=EDGE_CURVE('',#544,#544,#486,.T.);
#663=EDGE_CURVE('',#545,#545,#487,.T.);
#664=EDGE_CURVE('',#545,#546,#297,.T.);
#665=EDGE_CURVE('',#546,#546,#488,.T.);
#666=EDGE_CURVE('',#547,#547,#489,.T.);
#667=EDGE_CURVE('',#547,#548,#298,.T.);
#668=EDGE_CURVE('',#548,#548,#490,.T.);
#669=EDGE_CURVE('',#549,#549,#491,.T.);
#670=EDGE_CURVE('',#549,#550,#299,.T.);
#671=EDGE_CURVE('',#550,#550,#492,.T.);
#672=EDGE_CURVE('',#551,#552,#300,.T.);
#673=EDGE_CURVE('',#552,#553,#301,.T.);
#674=EDGE_CURVE('',#554,#553,#302,.T.);
#675=EDGE_CURVE('',#551,#554,#303,.T.);
#676=EDGE_CURVE('',#555,#551,#304,.T.);
#677=EDGE_CURVE('',#556,#554,#305,.T.);
#678=EDGE_CURVE('',#555,#556,#306,.T.);
#679=EDGE_CURVE('',#557,#555,#307,.T.);
#680=EDGE_CURVE('',#558,#556,#308,.T.);
#681=EDGE_CURVE('',#557,#558,#309,.T.);
#682=EDGE_CURVE('',#552,#557,#310,.T.);
#683=EDGE_CURVE('',#553,#558,#311,.T.);
#684=EDGE_CURVE('',#559,#560,#312,.T.);
#685=EDGE_CURVE('',#559,#560,#493,.T.);
#686=EDGE_CURVE('',#561,#559,#313,.T.);
#687=EDGE_CURVE('',#562,#561,#494,.T.);
#688=EDGE_CURVE('',#560,#562,#314,.T.);
#689=EDGE_CURVE('',#563,#562,#315,.T.);
#690=EDGE_CURVE('',#564,#563,#316,.T.);
#691=EDGE_CURVE('',#565,#564,#317,.T.);
#692=EDGE_CURVE('',#566,#565,#318,.T.);
#693=EDGE_CURVE('',#561,#566,#319,.T.);
#694=EDGE_CURVE('',#564,#567,#320,.T.);
#695=EDGE_CURVE('',#568,#567,#321,.T.);
#696=EDGE_CURVE('',#565,#568,#322,.T.);
#697=EDGE_CURVE('',#569,#568,#323,.T.);
#698=EDGE_CURVE('',#566,#569,#324,.T.);
#699=EDGE_CURVE('',#570,#569,#325,.T.);
#700=EDGE_CURVE('',#563,#570,#326,.T.);
#701=EDGE_CURVE('',#567,#570,#327,.T.);
#702=EDGE_CURVE('',#571,#572,#328,.T.);
#703=EDGE_CURVE('',#572,#573,#329,.T.);
#704=EDGE_CURVE('',#574,#573,#330,.T.);
#705=EDGE_CURVE('',#571,#574,#331,.T.);
#706=EDGE_CURVE('',#575,#571,#332,.T.);
#707=EDGE_CURVE('',#576,#574,#333,.T.);
#708=EDGE_CURVE('',#575,#576,#334,.T.);
#709=EDGE_CURVE('',#577,#575,#335,.T.);
#710=EDGE_CURVE('',#578,#576,#336,.T.);
#711=EDGE_CURVE('',#577,#578,#337,.T.);
#712=EDGE_CURVE('',#572,#577,#338,.T.);
#713=EDGE_CURVE('',#573,#578,#339,.T.);
#714=EDGE_CURVE('',#579,#580,#340,.T.);
#715=EDGE_CURVE('',#579,#580,#495,.T.);
#716=EDGE_CURVE('',#581,#579,#341,.T.);
#717=EDGE_CURVE('',#582,#581,#496,.T.);
#718=EDGE_CURVE('',#580,#582,#342,.T.);
#719=EDGE_CURVE('',#583,#582,#343,.T.);
#720=EDGE_CURVE('',#584,#583,#344,.T.);
#721=EDGE_CURVE('',#585,#584,#345,.T.);
#722=EDGE_CURVE('',#586,#585,#346,.T.);
#723=EDGE_CURVE('',#581,#586,#347,.T.);
#724=EDGE_CURVE('',#586,#587,#348,.T.);
#725=EDGE_CURVE('',#588,#587,#349,.T.);
#726=EDGE_CURVE('',#583,#588,#350,.T.);
#727=EDGE_CURVE('',#589,#588,#351,.T.);
#728=EDGE_CURVE('',#584,#589,#352,.T.);
#729=EDGE_CURVE('',#590,#589,#353,.T.);
#730=EDGE_CURVE('',#585,#590,#354,.T.);
#731=EDGE_CURVE('',#587,#590,#355,.T.);
#732=ORIENTED_EDGE('',*,*,#591,.F.);
#733=ORIENTED_EDGE('',*,*,#592,.T.);
#734=ORIENTED_EDGE('',*,*,#593,.F.);
#735=ORIENTED_EDGE('',*,*,#592,.F.);
#736=ORIENTED_EDGE('',*,*,#594,.F.);
#737=ORIENTED_EDGE('',*,*,#595,.T.);
#738=ORIENTED_EDGE('',*,*,#596,.F.);
#739=ORIENTED_EDGE('',*,*,#595,.F.);
#740=ORIENTED_EDGE('',*,*,#597,.F.);
#741=ORIENTED_EDGE('',*,*,#598,.T.);
#742=ORIENTED_EDGE('',*,*,#599,.F.);
#743=ORIENTED_EDGE('',*,*,#598,.F.);
#744=ORIENTED_EDGE('',*,*,#600,.F.);
#745=ORIENTED_EDGE('',*,*,#601,.T.);
#746=ORIENTED_EDGE('',*,*,#602,.F.);
#747=ORIENTED_EDGE('',*,*,#601,.F.);
#748=ORIENTED_EDGE('',*,*,#603,.F.);
#749=ORIENTED_EDGE('',*,*,#604,.T.);
#750=ORIENTED_EDGE('',*,*,#605,.F.);
#751=ORIENTED_EDGE('',*,*,#604,.F.);
#752=ORIENTED_EDGE('',*,*,#606,.F.);
#753=ORIENTED_EDGE('',*,*,#607,.T.);
#754=ORIENTED_EDGE('',*,*,#608,.F.);
#755=ORIENTED_EDGE('',*,*,#607,.F.);
#756=ORIENTED_EDGE('',*,*,#609,.F.);
#757=ORIENTED_EDGE('',*,*,#610,.T.);
#758=ORIENTED_EDGE('',*,*,#611,.F.);
#759=ORIENTED_EDGE('',*,*,#610,.F.);
#760=ORIENTED_EDGE('',*,*,#612,.F.);
#761=ORIENTED_EDGE('',*,*,#613,.T.);
#762=ORIENTED_EDGE('',*,*,#614,.F.);
#763=ORIENTED_EDGE('',*,*,#613,.F.);
#764=ORIENTED_EDGE('',*,*,#615,.F.);
#765=ORIENTED_EDGE('',*,*,#616,.T.);
#766=ORIENTED_EDGE('',*,*,#617,.F.);
#767=ORIENTED_EDGE('',*,*,#616,.F.);
#768=ORIENTED_EDGE('',*,*,#618,.F.);
#769=ORIENTED_EDGE('',*,*,#619,.T.);
#770=ORIENTED_EDGE('',*,*,#620,.F.);
#771=ORIENTED_EDGE('',*,*,#619,.F.);
#772=ORIENTED_EDGE('',*,*,#621,.F.);
#773=ORIENTED_EDGE('',*,*,#622,.T.);
#774=ORIENTED_EDGE('',*,*,#623,.F.);
#775=ORIENTED_EDGE('',*,*,#622,.F.);
#776=ORIENTED_EDGE('',*,*,#624,.F.);
#777=ORIENTED_EDGE('',*,*,#625,.T.);
#778=ORIENTED_EDGE('',*,*,#626,.F.);
#779=ORIENTED_EDGE('',*,*,#625,.F.);
#780=ORIENTED_EDGE('',*,*,#627,.F.);
#781=ORIENTED_EDGE('',*,*,#628,.T.);
#782=ORIENTED_EDGE('',*,*,#629,.F.);
#783=ORIENTED_EDGE('',*,*,#628,.F.);
#784=ORIENTED_EDGE('',*,*,#630,.F.);
#785=ORIENTED_EDGE('',*,*,#631,.T.);
#786=ORIENTED_EDGE('',*,*,#632,.F.);
#787=ORIENTED_EDGE('',*,*,#631,.F.);
#788=ORIENTED_EDGE('',*,*,#633,.F.);
#789=ORIENTED_EDGE('',*,*,#634,.T.);
#790=ORIENTED_EDGE('',*,*,#635,.F.);
#791=ORIENTED_EDGE('',*,*,#634,.F.);
#792=ORIENTED_EDGE('',*,*,#636,.F.);
#793=ORIENTED_EDGE('',*,*,#637,.T.);
#794=ORIENTED_EDGE('',*,*,#638,.F.);
#795=ORIENTED_EDGE('',*,*,#637,.F.);
#796=ORIENTED_EDGE('',*,*,#639,.F.);
#797=ORIENTED_EDGE('',*,*,#640,.T.);
#798=ORIENTED_EDGE('',*,*,#641,.F.);
#799=ORIENTED_EDGE('',*,*,#640,.F.);
#800=ORIENTED_EDGE('',*,*,#642,.F.);
#801=ORIENTED_EDGE('',*,*,#643,.T.);
#802=ORIENTED_EDGE('',*,*,#644,.F.);
#803=ORIENTED_EDGE('',*,*,#643,.F.);
#804=ORIENTED_EDGE('',*,*,#645,.F.);
#805=ORIENTED_EDGE('',*,*,#646,.T.);
#806=ORIENTED_EDGE('',*,*,#647,.F.);
#807=ORIENTED_EDGE('',*,*,#646,.F.);
#808=ORIENTED_EDGE('',*,*,#648,.F.);
#809=ORIENTED_EDGE('',*,*,#649,.T.);
#810=ORIENTED_EDGE('',*,*,#650,.F.);
#811=ORIENTED_EDGE('',*,*,#649,.F.);
#812=ORIENTED_EDGE('',*,*,#651,.F.);
#813=ORIENTED_EDGE('',*,*,#652,.T.);
#814=ORIENTED_EDGE('',*,*,#653,.F.);
#815=ORIENTED_EDGE('',*,*,#652,.F.);
#816=ORIENTED_EDGE('',*,*,#654,.F.);
#817=ORIENTED_EDGE('',*,*,#655,.T.);
#818=ORIENTED_EDGE('',*,*,#656,.F.);
#819=ORIENTED_EDGE('',*,*,#655,.F.);
#820=ORIENTED_EDGE('',*,*,#657,.F.);
#821=ORIENTED_EDGE('',*,*,#658,.T.);
#822=ORIENTED_EDGE('',*,*,#659,.F.);
#823=ORIENTED_EDGE('',*,*,#658,.F.);
#824=ORIENTED_EDGE('',*,*,#660,.F.);
#825=ORIENTED_EDGE('',*,*,#661,.T.);
#826=ORIENTED_EDGE('',*,*,#662,.F.);
#827=ORIENTED_EDGE('',*,*,#661,.F.);
#828=ORIENTED_EDGE('',*,*,#663,.F.);
#829=ORIENTED_EDGE('',*,*,#664,.T.);
#830=ORIENTED_EDGE('',*,*,#665,.T.);
#831=ORIENTED_EDGE('',*,*,#664,.F.);
#832=ORIENTED_EDGE('',*,*,#666,.F.);
#833=ORIENTED_EDGE('',*,*,#667,.T.);
#834=ORIENTED_EDGE('',*,*,#668,.T.);
#835=ORIENTED_EDGE('',*,*,#667,.F.);
#836=ORIENTED_EDGE('',*,*,#666,.T.);
#837=ORIENTED_EDGE('',*,*,#663,.T.);
#838=ORIENTED_EDGE('',*,*,#662,.T.);
#839=ORIENTED_EDGE('',*,*,#659,.T.);
#840=ORIENTED_EDGE('',*,*,#656,.T.);
#841=ORIENTED_EDGE('',*,*,#653,.T.);
#842=ORIENTED_EDGE('',*,*,#650,.T.);
#843=ORIENTED_EDGE('',*,*,#647,.T.);
#844=ORIENTED_EDGE('',*,*,#644,.T.);
#845=ORIENTED_EDGE('',*,*,#641,.T.);
#846=ORIENTED_EDGE('',*,*,#638,.T.);
#847=ORIENTED_EDGE('',*,*,#635,.T.);
#848=ORIENTED_EDGE('',*,*,#632,.T.);
#849=ORIENTED_EDGE('',*,*,#629,.T.);
#850=ORIENTED_EDGE('',*,*,#626,.T.);
#851=ORIENTED_EDGE('',*,*,#623,.T.);
#852=ORIENTED_EDGE('',*,*,#620,.T.);
#853=ORIENTED_EDGE('',*,*,#617,.T.);
#854=ORIENTED_EDGE('',*,*,#614,.T.);
#855=ORIENTED_EDGE('',*,*,#611,.T.);
#856=ORIENTED_EDGE('',*,*,#608,.T.);
#857=ORIENTED_EDGE('',*,*,#605,.T.);
#858=ORIENTED_EDGE('',*,*,#602,.T.);
#859=ORIENTED_EDGE('',*,*,#599,.T.);
#860=ORIENTED_EDGE('',*,*,#596,.T.);
#861=ORIENTED_EDGE('',*,*,#593,.T.);
#862=ORIENTED_EDGE('',*,*,#668,.F.);
#863=ORIENTED_EDGE('',*,*,#665,.F.);
#864=ORIENTED_EDGE('',*,*,#660,.T.);
#865=ORIENTED_EDGE('',*,*,#657,.T.);
#866=ORIENTED_EDGE('',*,*,#654,.T.);
#867=ORIENTED_EDGE('',*,*,#651,.T.);
#868=ORIENTED_EDGE('',*,*,#648,.T.);
#869=ORIENTED_EDGE('',*,*,#645,.T.);
#870=ORIENTED_EDGE('',*,*,#642,.T.);
#871=ORIENTED_EDGE('',*,*,#639,.T.);
#872=ORIENTED_EDGE('',*,*,#636,.T.);
#873=ORIENTED_EDGE('',*,*,#633,.T.);
#874=ORIENTED_EDGE('',*,*,#630,.T.);
#875=ORIENTED_EDGE('',*,*,#627,.T.);
#876=ORIENTED_EDGE('',*,*,#624,.T.);
#877=ORIENTED_EDGE('',*,*,#621,.T.);
#878=ORIENTED_EDGE('',*,*,#618,.T.);
#879=ORIENTED_EDGE('',*,*,#615,.T.);
#880=ORIENTED_EDGE('',*,*,#612,.T.);
#881=ORIENTED_EDGE('',*,*,#609,.T.);
#882=ORIENTED_EDGE('',*,*,#606,.T.);
#883=ORIENTED_EDGE('',*,*,#603,.T.);
#884=ORIENTED_EDGE('',*,*,#600,.T.);
#885=ORIENTED_EDGE('',*,*,#597,.T.);
#886=ORIENTED_EDGE('',*,*,#594,.T.);
#887=ORIENTED_EDGE('',*,*,#591,.T.);
#888=ORIENTED_EDGE('',*,*,#669,.F.);
#889=ORIENTED_EDGE('',*,*,#670,.T.);
#890=ORIENTED_EDGE('',*,*,#671,.T.);
#891=ORIENTED_EDGE('',*,*,#670,.F.);
#892=ORIENTED_EDGE('',*,*,#669,.T.);
#893=ORIENTED_EDGE('',*,*,#671,.F.);
#894=ORIENTED_EDGE('',*,*,#672,.T.);
#895=ORIENTED_EDGE('',*,*,#673,.T.);
#896=ORIENTED_EDGE('',*,*,#674,.F.);
#897=ORIENTED_EDGE('',*,*,#675,.F.);
#898=ORIENTED_EDGE('',*,*,#676,.T.);
#899=ORIENTED_EDGE('',*,*,#675,.T.);
#900=ORIENTED_EDGE('',*,*,#677,.F.);
#901=ORIENTED_EDGE('',*,*,#678,.F.);
#902=ORIENTED_EDGE('',*,*,#679,.T.);
#903=ORIENTED_EDGE('',*,*,#678,.T.);
#904=ORIENTED_EDGE('',*,*,#680,.F.);
#905=ORIENTED_EDGE('',*,*,#681,.F.);
#906=ORIENTED_EDGE('',*,*,#682,.T.);
#907=ORIENTED_EDGE('',*,*,#681,.T.);
#908=ORIENTED_EDGE('',*,*,#683,.F.);
#909=ORIENTED_EDGE('',*,*,#673,.F.);
#910=ORIENTED_EDGE('',*,*,#683,.T.);
#911=ORIENTED_EDGE('',*,*,#680,.T.);
#912=ORIENTED_EDGE('',*,*,#677,.T.);
#913=ORIENTED_EDGE('',*,*,#674,.T.);
#914=ORIENTED_EDGE('',*,*,#682,.F.);
#915=ORIENTED_EDGE('',*,*,#672,.F.);
#916=ORIENTED_EDGE('',*,*,#676,.F.);
#917=ORIENTED_EDGE('',*,*,#679,.F.);
#918=ORIENTED_EDGE('',*,*,#684,.F.);
#919=ORIENTED_EDGE('',*,*,#685,.T.);
#920=ORIENTED_EDGE('',*,*,#686,.F.);
#921=ORIENTED_EDGE('',*,*,#687,.F.);
#922=ORIENTED_EDGE('',*,*,#688,.F.);
#923=ORIENTED_EDGE('',*,*,#685,.F.);
#924=ORIENTED_EDGE('',*,*,#686,.T.);
#925=ORIENTED_EDGE('',*,*,#684,.T.);
#926=ORIENTED_EDGE('',*,*,#688,.T.);
#927=ORIENTED_EDGE('',*,*,#689,.F.);
#928=ORIENTED_EDGE('',*,*,#690,.F.);
#929=ORIENTED_EDGE('',*,*,#691,.F.);
#930=ORIENTED_EDGE('',*,*,#692,.F.);
#931=ORIENTED_EDGE('',*,*,#693,.F.);
#932=ORIENTED_EDGE('',*,*,#691,.T.);
#933=ORIENTED_EDGE('',*,*,#694,.T.);
#934=ORIENTED_EDGE('',*,*,#695,.F.);
#935=ORIENTED_EDGE('',*,*,#696,.F.);
#936=ORIENTED_EDGE('',*,*,#692,.T.);
#937=ORIENTED_EDGE('',*,*,#696,.T.);
#938=ORIENTED_EDGE('',*,*,#697,.F.);
#939=ORIENTED_EDGE('',*,*,#698,.F.);
#940=ORIENTED_EDGE('',*,*,#687,.T.);
#941=ORIENTED_EDGE('',*,*,#693,.T.);
#942=ORIENTED_EDGE('',*,*,#698,.T.);
#943=ORIENTED_EDGE('',*,*,#699,.F.);
#944=ORIENTED_EDGE('',*,*,#700,.F.);
#945=ORIENTED_EDGE('',*,*,#689,.T.);
#946=ORIENTED_EDGE('',*,*,#690,.T.);
#947=ORIENTED_EDGE('',*,*,#700,.T.);
#948=ORIENTED_EDGE('',*,*,#701,.F.);
#949=ORIENTED_EDGE('',*,*,#694,.F.);
#950=ORIENTED_EDGE('',*,*,#701,.T.);
#951=ORIENTED_EDGE('',*,*,#699,.T.);
#952=ORIENTED_EDGE('',*,*,#697,.T.);
#953=ORIENTED_EDGE('',*,*,#695,.T.);
#954=ORIENTED_EDGE('',*,*,#702,.T.);
#955=ORIENTED_EDGE('',*,*,#703,.T.);
#956=ORIENTED_EDGE('',*,*,#704,.F.);
#957=ORIENTED_EDGE('',*,*,#705,.F.);
#958=ORIENTED_EDGE('',*,*,#706,.T.);
#959=ORIENTED_EDGE('',*,*,#705,.T.);
#960=ORIENTED_EDGE('',*,*,#707,.F.);
#961=ORIENTED_EDGE('',*,*,#708,.F.);
#962=ORIENTED_EDGE('',*,*,#709,.T.);
#963=ORIENTED_EDGE('',*,*,#708,.T.);
#964=ORIENTED_EDGE('',*,*,#710,.F.);
#965=ORIENTED_EDGE('',*,*,#711,.F.);
#966=ORIENTED_EDGE('',*,*,#712,.T.);
#967=ORIENTED_EDGE('',*,*,#711,.T.);
#968=ORIENTED_EDGE('',*,*,#713,.F.);
#969=ORIENTED_EDGE('',*,*,#703,.F.);
#970=ORIENTED_EDGE('',*,*,#713,.T.);
#971=ORIENTED_EDGE('',*,*,#710,.T.);
#972=ORIENTED_EDGE('',*,*,#707,.T.);
#973=ORIENTED_EDGE('',*,*,#704,.T.);
#974=ORIENTED_EDGE('',*,*,#712,.F.);
#975=ORIENTED_EDGE('',*,*,#702,.F.);
#976=ORIENTED_EDGE('',*,*,#706,.F.);
#977=ORIENTED_EDGE('',*,*,#709,.F.);
#978=ORIENTED_EDGE('',*,*,#714,.F.);
#979=ORIENTED_EDGE('',*,*,#715,.T.);
#980=ORIENTED_EDGE('',*,*,#716,.F.);
#981=ORIENTED_EDGE('',*,*,#717,.F.);
#982=ORIENTED_EDGE('',*,*,#718,.F.);
#983=ORIENTED_EDGE('',*,*,#715,.F.);
#984=ORIENTED_EDGE('',*,*,#716,.T.);
#985=ORIENTED_EDGE('',*,*,#714,.T.);
#986=ORIENTED_EDGE('',*,*,#718,.T.);
#987=ORIENTED_EDGE('',*,*,#719,.F.);
#988=ORIENTED_EDGE('',*,*,#720,.F.);
#989=ORIENTED_EDGE('',*,*,#721,.F.);
#990=ORIENTED_EDGE('',*,*,#722,.F.);
#991=ORIENTED_EDGE('',*,*,#723,.F.);
#992=ORIENTED_EDGE('',*,*,#717,.T.);
#993=ORIENTED_EDGE('',*,*,#723,.T.);
#994=ORIENTED_EDGE('',*,*,#724,.T.);
#995=ORIENTED_EDGE('',*,*,#725,.F.);
#996=ORIENTED_EDGE('',*,*,#726,.F.);
#997=ORIENTED_EDGE('',*,*,#719,.T.);
#998=ORIENTED_EDGE('',*,*,#720,.T.);
#999=ORIENTED_EDGE('',*,*,#726,.T.);
#1000=ORIENTED_EDGE('',*,*,#727,.F.);
#1001=ORIENTED_EDGE('',*,*,#728,.F.);
#1002=ORIENTED_EDGE('',*,*,#721,.T.);
#1003=ORIENTED_EDGE('',*,*,#728,.T.);
#1004=ORIENTED_EDGE('',*,*,#729,.F.);
#1005=ORIENTED_EDGE('',*,*,#730,.F.);
#1006=ORIENTED_EDGE('',*,*,#722,.T.);
#1007=ORIENTED_EDGE('',*,*,#730,.T.);
#1008=ORIENTED_EDGE('',*,*,#731,.F.);
#1009=ORIENTED_EDGE('',*,*,#724,.F.);
#1010=ORIENTED_EDGE('',*,*,#731,.T.);
#1011=ORIENTED_EDGE('',*,*,#729,.T.);
#1012=ORIENTED_EDGE('',*,*,#727,.T.);
#1013=ORIENTED_EDGE('',*,*,#725,.T.);
#1014=CYLINDRICAL_SURFACE('',#1121,4.49999999999999);
#1015=CYLINDRICAL_SURFACE('',#1124,4.49999999999999);
#1016=CYLINDRICAL_SURFACE('',#1127,4.5);
#1017=CYLINDRICAL_SURFACE('',#1130,4.49999999999999);
#1018=CYLINDRICAL_SURFACE('',#1133,4.49999999999999);
#1019=CYLINDRICAL_SURFACE('',#1136,4.49999999999999);
#1020=CYLINDRICAL_SURFACE('',#1139,4.49999999999999);
#1021=CYLINDRICAL_SURFACE('',#1142,4.49999999999999);
#1022=CYLINDRICAL_SURFACE('',#1145,4.5);
#1023=CYLINDRICAL_SURFACE('',#1148,4.5);
#1024=CYLINDRICAL_SURFACE('',#1151,4.49999999999999);
#1025=CYLINDRICAL_SURFACE('',#1154,4.49999999999999);
#1026=CYLINDRICAL_SURFACE('',#1157,4.49999999999999);
#1027=CYLINDRICAL_SURFACE('',#1160,4.49999999999999);
#1028=CYLINDRICAL_SURFACE('',#1163,4.5);
#1029=CYLINDRICAL_SURFACE('',#1166,4.49999999999999);
#1030=CYLINDRICAL_SURFACE('',#1169,4.49999999999999);
#1031=CYLINDRICAL_SURFACE('',#1172,4.49999999999999);
#1032=CYLINDRICAL_SURFACE('',#1175,4.49999999999999);
#1033=CYLINDRICAL_SURFACE('',#1178,4.49999999999999);
#1034=CYLINDRICAL_SURFACE('',#1181,4.5);
#1035=CYLINDRICAL_SURFACE('',#1184,4.5);
#1036=CYLINDRICAL_SURFACE('',#1187,4.49999999999999);
#1037=CYLINDRICAL_SURFACE('',#1190,4.49999999999999);
#1038=CYLINDRICAL_SURFACE('',#1193,170.);
#1039=CYLINDRICAL_SURFACE('',#1196,230.);
#1040=CYLINDRICAL_SURFACE('',#1201,150.);
#1041=CYLINDRICAL_SURFACE('',#1214,4.5);
#1042=CYLINDRICAL_SURFACE('',#1230,4.5);
#1043=ADVANCED_FACE('',(#105),#1014,.F.);
#1044=ADVANCED_FACE('',(#106),#1015,.F.);
#1045=ADVANCED_FACE('',(#107),#1016,.F.);
#1046=ADVANCED_FACE('',(#108),#1017,.F.);
#1047=ADVANCED_FACE('',(#109),#1018,.F.);
#1048=ADVANCED_FACE('',(#110),#1019,.F.);
#1049=ADVANCED_FACE('',(#111),#1020,.F.);
#1050=ADVANCED_FACE('',(#112),#1021,.F.);
#1051=ADVANCED_FACE('',(#113),#1022,.F.);
#1052=ADVANCED_FACE('',(#114),#1023,.F.);
#1053=ADVANCED_FACE('',(#115),#1024,.F.);
#1054=ADVANCED_FACE('',(#116),#1025,.F.);
#1055=ADVANCED_FACE('',(#117),#1026,.F.);
#1056=ADVANCED_FACE('',(#118),#1027,.F.);
#1057=ADVANCED_FACE('',(#119),#1028,.F.);
#1058=ADVANCED_FACE('',(#120),#1029,.F.);
#1059=ADVANCED_FACE('',(#121),#1030,.F.);
#1060=ADVANCED_FACE('',(#122),#1031,.F.);
#1061=ADVANCED_FACE('',(#123),#1032,.F.);
#1062=ADVANCED_FACE('',(#124),#1033,.F.);
#1063=ADVANCED_FACE('',(#125),#1034,.F.);
#1064=ADVANCED_FACE('',(#126),#1035,.F.);
#1065=ADVANCED_FACE('',(#127),#1036,.F.);
#1066=ADVANCED_FACE('',(#128),#1037,.F.);
#1067=ADVANCED_FACE('',(#129),#1038,.F.);
#1068=ADVANCED_FACE('',(#130),#1039,.T.);
#1069=ADVANCED_FACE('',(#131,#25,#26,#27,#28,#29,#30,#31,#32,#33,#34,#35,
#36,#37,#38,#39,#40,#41,#42,#43,#44,#45,#46,#47,#48,#49),#75,.T.);
#1070=ADVANCED_FACE('',(#132,#50,#51,#52,#53,#54,#55,#56,#57,#58,#59,#60,
#61,#62,#63,#64,#65,#66,#67,#68,#69,#70,#71,#72,#73,#74),#76,.F.);
#1071=ADVANCED_FACE('',(#133),#1040,.T.);
#1072=ADVANCED_FACE('',(#134),#77,.T.);
#1073=ADVANCED_FACE('',(#135),#78,.F.);
#1074=ADVANCED_FACE('',(#136),#79,.T.);
#1075=ADVANCED_FACE('',(#137),#80,.T.);
#1076=ADVANCED_FACE('',(#138),#81,.T.);
#1077=ADVANCED_FACE('',(#139),#82,.T.);
#1078=ADVANCED_FACE('',(#140),#83,.T.);
#1079=ADVANCED_FACE('',(#141),#84,.F.);
#1080=ADVANCED_FACE('',(#142),#85,.T.);
#1081=ADVANCED_FACE('',(#143),#1041,.F.);
#1082=ADVANCED_FACE('',(#144),#86,.F.);
#1083=ADVANCED_FACE('',(#145),#87,.T.);
#1084=ADVANCED_FACE('',(#146),#88,.T.);
#1085=ADVANCED_FACE('',(#147),#89,.T.);
#1086=ADVANCED_FACE('',(#148),#90,.T.);
#1087=ADVANCED_FACE('',(#149),#91,.T.);
#1088=ADVANCED_FACE('',(#150),#92,.T.);
#1089=ADVANCED_FACE('',(#151),#93,.T.);
#1090=ADVANCED_FACE('',(#152),#94,.T.);
#1091=ADVANCED_FACE('',(#153),#95,.T.);
#1092=ADVANCED_FACE('',(#154),#96,.T.);
#1093=ADVANCED_FACE('',(#155),#97,.F.);
#1094=ADVANCED_FACE('',(#156),#98,.T.);
#1095=ADVANCED_FACE('',(#157),#1042,.F.);
#1096=ADVANCED_FACE('',(#158),#99,.F.);
#1097=ADVANCED_FACE('',(#159),#100,.T.);
#1098=ADVANCED_FACE('',(#160),#101,.T.);
#1099=ADVANCED_FACE('',(#161),#102,.T.);
#1100=ADVANCED_FACE('',(#162),#103,.T.);
#1101=ADVANCED_FACE('',(#163),#104,.T.);
#1102=CLOSED_SHELL('',(#1043,#1044,#1045,#1046,#1047,#1048,#1049,#1050,
#1051,#1052,#1053,#1054,#1055,#1056,#1057,#1058,#1059,#1060,#1061,#1062,
#1063,#1064,#1065,#1066,#1067,#1068,#1069,#1070));
#1103=CLOSED_SHELL('',(#1071,#1072,#1073));
#1104=CLOSED_SHELL('',(#1074,#1075,#1076,#1077,#1078,#1079));
#1105=CLOSED_SHELL('',(#1080,#1081,#1082,#1083,#1084,#1085,#1086,#1087));
#1106=CLOSED_SHELL('',(#1088,#1089,#1090,#1091,#1092,#1093));
#1107=CLOSED_SHELL('',(#1094,#1095,#1096,#1097,#1098,#1099,#1100,#1101));
#1108=DERIVED_UNIT_ELEMENT(#1110,1.);
#1109=DERIVED_UNIT_ELEMENT(#1857,-3.);
#1110=(
MASS_UNIT()
NAMED_UNIT(*)
SI_UNIT(.KILO.,.GRAM.)
);
#1111=DERIVED_UNIT((#1108,#1109));
#1112=MEASURE_REPRESENTATION_ITEM('density measure',
POSITIVE_RATIO_MEASURE(7850.),#1111);
#1113=PROPERTY_DEFINITION_REPRESENTATION(#1118,#1115);
#1114=PROPERTY_DEFINITION_REPRESENTATION(#1119,#1116);
#1115=REPRESENTATION('material name',(#1117),#1854);
#1116=REPRESENTATION('density',(#1112),#1854);
#1117=DESCRIPTIVE_REPRESENTATION_ITEM('Steel','Steel');
#1118=PROPERTY_DEFINITION('material property','material name',#1864);
#1119=PROPERTY_DEFINITION('material property','density of part',#1864);
#1120=AXIS2_PLACEMENT_3D('',#1557,#1238,#1239);
#1121=AXIS2_PLACEMENT_3D('',#1558,#1240,#1241);
#1122=AXIS2_PLACEMENT_3D('',#1560,#1242,#1243);
#1123=AXIS2_PLACEMENT_3D('',#1563,#1245,#1246);
#1124=AXIS2_PLACEMENT_3D('',#1564,#1247,#1248);
#1125=AXIS2_PLACEMENT_3D('',#1566,#1249,#1250);
#1126=AXIS2_PLACEMENT_3D('',#1569,#1252,#1253);
#1127=AXIS2_PLACEMENT_3D('',#1570,#1254,#1255);
#1128=AXIS2_PLACEMENT_3D('',#1572,#1256,#1257);
#1129=AXIS2_PLACEMENT_3D('',#1575,#1259,#1260);
#1130=AXIS2_PLACEMENT_3D('',#1576,#1261,#1262);
#1131=AXIS2_PLACEMENT_3D('',#1578,#1263,#1264);
#1132=AXIS2_PLACEMENT_3D('',#1581,#1266,#1267);
#1133=AXIS2_PLACEMENT_3D('',#1582,#1268,#1269);
#1134=AXIS2_PLACEMENT_3D('',#1584,#1270,#1271);
#1135=AXIS2_PLACEMENT_3D('',#1587,#1273,#1274);
#1136=AXIS2_PLACEMENT_3D('',#1588,#1275,#1276);
#1137=AXIS2_PLACEMENT_3D('',#1590,#1277,#1278);
#1138=AXIS2_PLACEMENT_3D('',#1593,#1280,#1281);
#1139=AXIS2_PLACEMENT_3D('',#1594,#1282,#1283);
#1140=AXIS2_PLACEMENT_3D('',#1596,#1284,#1285);
#1141=AXIS2_PLACEMENT_3D('',#1599,#1287,#1288);
#1142=AXIS2_PLACEMENT_3D('',#1600,#1289,#1290);
#1143=AXIS2_PLACEMENT_3D('',#1602,#1291,#1292);
#1144=AXIS2_PLACEMENT_3D('',#1605,#1294,#1295);
#1145=AXIS2_PLACEMENT_3D('',#1606,#1296,#1297);
#1146=AXIS2_PLACEMENT_3D('',#1608,#1298,#1299);
#1147=AXIS2_PLACEMENT_3D('',#1611,#1301,#1302);
#1148=AXIS2_PLACEMENT_3D('',#1612,#1303,#1304);
#1149=AXIS2_PLACEMENT_3D('',#1614,#1305,#1306);
#1150=AXIS2_PLACEMENT_3D('',#1617,#1308,#1309);
#1151=AXIS2_PLACEMENT_3D('',#1618,#1310,#1311);
#1152=AXIS2_PLACEMENT_3D('',#1620,#1312,#1313);
#1153=AXIS2_PLACEMENT_3D('',#1623,#1315,#1316);
#1154=AXIS2_PLACEMENT_3D('',#1624,#1317,#1318);
#1155=AXIS2_PLACEMENT_3D('',#1626,#1319,#1320);
#1156=AXIS2_PLACEMENT_3D('',#1629,#1322,#1323);
#1157=AXIS2_PLACEMENT_3D('',#1630,#1324,#1325);
#1158=AXIS2_PLACEMENT_3D('',#1632,#1326,#1327);
#1159=AXIS2_PLACEMENT_3D('',#1635,#1329,#1330);
#1160=AXIS2_PLACEMENT_3D('',#1636,#1331,#1332);
#1161=AXIS2_PLACEMENT_3D('',#1638,#1333,#1334);
#1162=AXIS2_PLACEMENT_3D('',#1641,#1336,#1337);
#1163=AXIS2_PLACEMENT_3D('',#1642,#1338,#1339);
#1164=AXIS2_PLACEMENT_3D('',#1644,#1340,#1341);
#1165=AXIS2_PLACEMENT_3D('',#1647,#1343,#1344);
#1166=AXIS2_PLACEMENT_3D('',#1648,#1345,#1346);
#1167=AXIS2_PLACEMENT_3D('',#1650,#1347,#1348);
#1168=AXIS2_PLACEMENT_3D('',#1653,#1350,#1351);
#1169=AXIS2_PLACEMENT_3D('',#1654,#1352,#1353);
#1170=AXIS2_PLACEMENT_3D('',#1656,#1354,#1355);
#1171=AXIS2_PLACEMENT_3D('',#1659,#1357,#1358);
#1172=AXIS2_PLACEMENT_3D('',#1660,#1359,#1360);
#1173=AXIS2_PLACEMENT_3D('',#1662,#1361,#1362);
#1174=AXIS2_PLACEMENT_3D('',#1665,#1364,#1365);
#1175=AXIS2_PLACEMENT_3D('',#1666,#1366,#1367);
#1176=AXIS2_PLACEMENT_3D('',#1668,#1368,#1369);
#1177=AXIS2_PLACEMENT_3D('',#1671,#1371,#1372);
#1178=AXIS2_PLACEMENT_3D('',#1672,#1373,#1374);
#1179=AXIS2_PLACEMENT_3D('',#1674,#1375,#1376);
#1180=AXIS2_PLACEMENT_3D('',#1677,#1378,#1379);
#1181=AXIS2_PLACEMENT_3D('',#1678,#1380,#1381);
#1182=AXIS2_PLACEMENT_3D('',#1680,#1382,#1383);
#1183=AXIS2_PLACEMENT_3D('',#1683,#1385,#1386);
#1184=AXIS2_PLACEMENT_3D('',#1684,#1387,#1388);
#1185=AXIS2_PLACEMENT_3D('',#1686,#1389,#1390);
#1186=AXIS2_PLACEMENT_3D('',#1689,#1392,#1393);
#1187=AXIS2_PLACEMENT_3D('',#1690,#1394,#1395);
#1188=AXIS2_PLACEMENT_3D('',#1692,#1396,#1397);
#1189=AXIS2_PLACEMENT_3D('',#1695,#1399,#1400);
#1190=AXIS2_PLACEMENT_3D('',#1696,#1401,#1402);
#1191=AXIS2_PLACEMENT_3D('',#1698,#1403,#1404);
#1192=AXIS2_PLACEMENT_3D('',#1701,#1406,#1407);
#1193=AXIS2_PLACEMENT_3D('',#1702,#1408,#1409);
#1194=AXIS2_PLACEMENT_3D('',#1704,#1410,#1411);
#1195=AXIS2_PLACEMENT_3D('',#1707,#1413,#1414);
#1196=AXIS2_PLACEMENT_3D('',#1708,#1415,#1416);
#1197=AXIS2_PLACEMENT_3D('',#1710,#1417,#1418);
#1198=AXIS2_PLACEMENT_3D('',#1713,#1420,#1421);
#1199=AXIS2_PLACEMENT_3D('',#1714,#1422,#1423);
#1200=AXIS2_PLACEMENT_3D('',#1715,#1424,#1425);
#1201=AXIS2_PLACEMENT_3D('',#1716,#1426,#1427);
#1202=AXIS2_PLACEMENT_3D('',#1718,#1428,#1429);
#1203=AXIS2_PLACEMENT_3D('',#1721,#1431,#1432);
#1204=AXIS2_PLACEMENT_3D('',#1722,#1433,#1434);
#1205=AXIS2_PLACEMENT_3D('',#1723,#1435,#1436);
#1206=AXIS2_PLACEMENT_3D('',#1724,#1437,#1438);
#1207=AXIS2_PLACEMENT_3D('',#1733,#1443,#1444);
#1208=AXIS2_PLACEMENT_3D('',#1739,#1448,#1449);
#1209=AXIS2_PLACEMENT_3D('',#1745,#1453,#1454);
#1210=AXIS2_PLACEMENT_3D('',#1748,#1457,#1458);
#1211=AXIS2_PLACEMENT_3D('',#1749,#1459,#1460);
#1212=AXIS2_PLACEMENT_3D('',#1750,#1461,#1462);
#1213=AXIS2_PLACEMENT_3D('',#1754,#1464,#1465);
#1214=AXIS2_PLACEMENT_3D('',#1755,#1466,#1467);
#1215=AXIS2_PLACEMENT_3D('',#1759,#1469,#1470);
#1216=AXIS2_PLACEMENT_3D('',#1761,#1472,#1473);
#1217=AXIS2_PLACEMENT_3D('',#1771,#1479,#1480);
#1218=AXIS2_PLACEMENT_3D('',#1777,#1484,#1485);
#1219=AXIS2_PLACEMENT_3D('',#1781,#1488,#1489);
#1220=AXIS2_PLACEMENT_3D('',#1785,#1492,#1493);
#1221=AXIS2_PLACEMENT_3D('',#1787,#1495,#1496);
#1222=AXIS2_PLACEMENT_3D('',#1788,#1497,#1498);
#1223=AXIS2_PLACEMENT_3D('',#1797,#1503,#1504);
#1224=AXIS2_PLACEMENT_3D('',#1803,#1508,#1509);
#1225=AXIS2_PLACEMENT_3D('',#1809,#1513,#1514);
#1226=AXIS2_PLACEMENT_3D('',#1812,#1517,#1518);
#1227=AXIS2_PLACEMENT_3D('',#1813,#1519,#1520);
#1228=AXIS2_PLACEMENT_3D('',#1814,#1521,#1522);
#1229=AXIS2_PLACEMENT_3D('',#1818,#1524,#1525);
#1230=AXIS2_PLACEMENT_3D('',#1819,#1526,#1527);
#1231=AXIS2_PLACEMENT_3D('',#1823,#1529,#1530);
#1232=AXIS2_PLACEMENT_3D('',#1825,#1532,#1533);
#1233=AXIS2_PLACEMENT_3D('',#1835,#1539,#1540);
#1234=AXIS2_PLACEMENT_3D('',#1841,#1544,#1545);
#1235=AXIS2_PLACEMENT_3D('',#1845,#1548,#1549);
#1236=AXIS2_PLACEMENT_3D('',#1849,#1552,#1553);
#1237=AXIS2_PLACEMENT_3D('',#1851,#1555,#1556);
#1238=DIRECTION('axis',(0.,0.,1.));
#1239=DIRECTION('refdir',(1.,0.,0.));
#1240=DIRECTION('center_axis',(1.,0.,0.));
#1241=DIRECTION('ref_axis',(0.,0.,-1.));
#1242=DIRECTION('center_axis',(1.,0.,0.));
#1243=DIRECTION('ref_axis',(0.,0.,-1.));
#1244=DIRECTION('',(1.,0.,0.));
#1245=DIRECTION('center_axis',(-1.,0.,0.));
#1246=DIRECTION('ref_axis',(0.,0.,-1.));
#1247=DIRECTION('center_axis',(1.,0.,0.));
#1248=DIRECTION('ref_axis',(0.,0.,-1.));
#1249=DIRECTION('center_axis',(1.,0.,0.));
#1250=DIRECTION('ref_axis',(0.,0.,-1.));
#1251=DIRECTION('',(1.,0.,0.));
#1252=DIRECTION('center_axis',(-1.,0.,0.));
#1253=DIRECTION('ref_axis',(0.,0.,-1.));
#1254=DIRECTION('center_axis',(1.,0.,0.));
#1255=DIRECTION('ref_axis',(0.,0.,-1.));
#1256=DIRECTION('center_axis',(1.,0.,0.));
#1257=DIRECTION('ref_axis',(0.,0.,-1.));
#1258=DIRECTION('',(1.,0.,0.));
#1259=DIRECTION('center_axis',(-1.,0.,0.));
#1260=DIRECTION('ref_axis',(0.,0.,-1.));
#1261=DIRECTION('center_axis',(1.,0.,0.));
#1262=DIRECTION('ref_axis',(0.,0.,-1.));
#1263=DIRECTION('center_axis',(1.,0.,0.));
#1264=DIRECTION('ref_axis',(0.,0.,-1.));
#1265=DIRECTION('',(1.,0.,0.));
#1266=DIRECTION('center_axis',(-1.,0.,0.));
#1267=DIRECTION('ref_axis',(0.,0.,-1.));
#1268=DIRECTION('center_axis',(1.,0.,0.));
#1269=DIRECTION('ref_axis',(0.,0.,-1.));
#1270=DIRECTION('center_axis',(1.,0.,0.));
#1271=DIRECTION('ref_axis',(0.,0.,-1.));
#1272=DIRECTION('',(1.,0.,0.));
#1273=DIRECTION('center_axis',(-1.,0.,0.));
#1274=DIRECTION('ref_axis',(0.,0.,-1.));
#1275=DIRECTION('center_axis',(1.,0.,0.));
#1276=DIRECTION('ref_axis',(0.,0.,-1.));
#1277=DIRECTION('center_axis',(1.,0.,0.));
#1278=DIRECTION('ref_axis',(0.,0.,-1.));
#1279=DIRECTION('',(1.,0.,0.));
#1280=DIRECTION('center_axis',(-1.,0.,0.));
#1281=DIRECTION('ref_axis',(0.,0.,-1.));
#1282=DIRECTION('center_axis',(1.,0.,0.));
#1283=DIRECTION('ref_axis',(0.,0.,-1.));
#1284=DIRECTION('center_axis',(1.,0.,0.));
#1285=DIRECTION('ref_axis',(0.,0.,-1.));
#1286=DIRECTION('',(1.,0.,0.));
#1287=DIRECTION('center_axis',(-1.,0.,0.));
#1288=DIRECTION('ref_axis',(0.,0.,-1.));
#1289=DIRECTION('center_axis',(1.,0.,0.));
#1290=DIRECTION('ref_axis',(0.,0.,-1.));
#1291=DIRECTION('center_axis',(1.,0.,0.));
#1292=DIRECTION('ref_axis',(0.,0.,-1.));
#1293=DIRECTION('',(1.,0.,0.));
#1294=DIRECTION('center_axis',(-1.,0.,0.));
#1295=DIRECTION('ref_axis',(0.,0.,-1.));
#1296=DIRECTION('center_axis',(1.,0.,0.));
#1297=DIRECTION('ref_axis',(0.,0.,-1.));
#1298=DIRECTION('center_axis',(1.,0.,0.));
#1299=DIRECTION('ref_axis',(0.,0.,-1.));
#1300=DIRECTION('',(1.,0.,0.));
#1301=DIRECTION('center_axis',(-1.,0.,0.));
#1302=DIRECTION('ref_axis',(0.,0.,-1.));
#1303=DIRECTION('center_axis',(1.,0.,0.));
#1304=DIRECTION('ref_axis',(0.,0.,-1.));
#1305=DIRECTION('center_axis',(1.,0.,0.));
#1306=DIRECTION('ref_axis',(0.,0.,-1.));
#1307=DIRECTION('',(1.,0.,0.));
#1308=DIRECTION('center_axis',(-1.,0.,0.));
#1309=DIRECTION('ref_axis',(0.,0.,-1.));
#1310=DIRECTION('center_axis',(1.,0.,0.));
#1311=DIRECTION('ref_axis',(0.,0.,-1.));
#1312=DIRECTION('center_axis',(1.,0.,0.));
#1313=DIRECTION('ref_axis',(0.,0.,-1.));
#1314=DIRECTION('',(1.,0.,0.));
#1315=DIRECTION('center_axis',(-1.,0.,0.));
#1316=DIRECTION('ref_axis',(0.,0.,-1.));
#1317=DIRECTION('center_axis',(1.,0.,0.));
#1318=DIRECTION('ref_axis',(0.,0.,-1.));
#1319=DIRECTION('center_axis',(1.,0.,0.));
#1320=DIRECTION('ref_axis',(0.,0.,-1.));
#1321=DIRECTION('',(1.,0.,0.));
#1322=DIRECTION('center_axis',(-1.,0.,0.));
#1323=DIRECTION('ref_axis',(0.,0.,-1.));
#1324=DIRECTION('center_axis',(1.,0.,0.));
#1325=DIRECTION('ref_axis',(0.,0.,-1.));
#1326=DIRECTION('center_axis',(1.,0.,0.));
#1327=DIRECTION('ref_axis',(0.,0.,-1.));
#1328=DIRECTION('',(1.,0.,0.));
#1329=DIRECTION('center_axis',(-1.,0.,0.));
#1330=DIRECTION('ref_axis',(0.,0.,-1.));
#1331=DIRECTION('center_axis',(1.,0.,0.));
#1332=DIRECTION('ref_axis',(0.,0.,-1.));
#1333=DIRECTION('center_axis',(1.,0.,0.));
#1334=DIRECTION('ref_axis',(0.,0.,-1.));
#1335=DIRECTION('',(1.,0.,0.));
#1336=DIRECTION('center_axis',(-1.,0.,0.));
#1337=DIRECTION('ref_axis',(0.,0.,-1.));
#1338=DIRECTION('center_axis',(1.,0.,0.));
#1339=DIRECTION('ref_axis',(0.,0.,-1.));
#1340=DIRECTION('center_axis',(1.,0.,0.));
#1341=DIRECTION('ref_axis',(0.,0.,-1.));
#1342=DIRECTION('',(1.,0.,0.));
#1343=DIRECTION('center_axis',(-1.,0.,0.));
#1344=DIRECTION('ref_axis',(0.,0.,-1.));
#1345=DIRECTION('center_axis',(1.,0.,0.));
#1346=DIRECTION('ref_axis',(0.,0.,-1.));
#1347=DIRECTION('center_axis',(1.,0.,0.));
#1348=DIRECTION('ref_axis',(0.,0.,-1.));
#1349=DIRECTION('',(1.,0.,0.));
#1350=DIRECTION('center_axis',(-1.,0.,0.));
#1351=DIRECTION('ref_axis',(0.,0.,-1.));
#1352=DIRECTION('center_axis',(1.,0.,0.));
#1353=DIRECTION('ref_axis',(0.,0.,-1.));
#1354=DIRECTION('center_axis',(1.,0.,0.));
#1355=DIRECTION('ref_axis',(0.,0.,-1.));
#1356=DIRECTION('',(1.,0.,0.));
#1357=DIRECTION('center_axis',(-1.,0.,0.));
#1358=DIRECTION('ref_axis',(0.,0.,-1.));
#1359=DIRECTION('center_axis',(1.,0.,0.));
#1360=DIRECTION('ref_axis',(0.,0.,-1.));
#1361=DIRECTION('center_axis',(1.,0.,0.));
#1362=DIRECTION('ref_axis',(0.,0.,-1.));
#1363=DIRECTION('',(1.,0.,0.));
#1364=DIRECTION('center_axis',(-1.,0.,0.));
#1365=DIRECTION('ref_axis',(0.,0.,-1.));
#1366=DIRECTION('center_axis',(1.,0.,0.));
#1367=DIRECTION('ref_axis',(0.,0.,-1.));
#1368=DIRECTION('center_axis',(1.,0.,0.));
#1369=DIRECTION('ref_axis',(0.,0.,-1.));
#1370=DIRECTION('',(1.,0.,0.));
#1371=DIRECTION('center_axis',(-1.,0.,0.));
#1372=DIRECTION('ref_axis',(0.,0.,-1.));
#1373=DIRECTION('center_axis',(1.,0.,0.));
#1374=DIRECTION('ref_axis',(0.,0.,-1.));
#1375=DIRECTION('center_axis',(1.,0.,0.));
#1376=DIRECTION('ref_axis',(0.,0.,-1.));
#1377=DIRECTION('',(1.,0.,0.));
#1378=DIRECTION('center_axis',(-1.,0.,0.));
#1379=DIRECTION('ref_axis',(0.,0.,-1.));
#1380=DIRECTION('center_axis',(1.,0.,0.));
#1381=DIRECTION('ref_axis',(0.,0.,-1.));
#1382=DIRECTION('center_axis',(1.,0.,0.));
#1383=DIRECTION('ref_axis',(0.,0.,-1.));
#1384=DIRECTION('',(1.,0.,0.));
#1385=DIRECTION('center_axis',(-1.,0.,0.));
#1386=DIRECTION('ref_axis',(0.,0.,-1.));
#1387=DIRECTION('center_axis',(1.,0.,0.));
#1388=DIRECTION('ref_axis',(0.,0.,-1.));
#1389=DIRECTION('center_axis',(1.,0.,0.));
#1390=DIRECTION('ref_axis',(0.,0.,-1.));
#1391=DIRECTION('',(1.,0.,0.));
#1392=DIRECTION('center_axis',(-1.,0.,0.));
#1393=DIRECTION('ref_axis',(0.,0.,-1.));
#1394=DIRECTION('center_axis',(1.,0.,0.));
#1395=DIRECTION('ref_axis',(0.,0.,-1.));
#1396=DIRECTION('center_axis',(1.,0.,0.));
#1397=DIRECTION('ref_axis',(0.,0.,-1.));
#1398=DIRECTION('',(1.,0.,0.));
#1399=DIRECTION('center_axis',(-1.,0.,0.));
#1400=DIRECTION('ref_axis',(0.,0.,-1.));
#1401=DIRECTION('center_axis',(1.,0.,0.));
#1402=DIRECTION('ref_axis',(0.,0.,-1.));
#1403=DIRECTION('center_axis',(1.,0.,0.));
#1404=DIRECTION('ref_axis',(0.,0.,-1.));
#1405=DIRECTION('',(1.,0.,0.));
#1406=DIRECTION('center_axis',(-1.,0.,0.));
#1407=DIRECTION('ref_axis',(0.,0.,-1.));
#1408=DIRECTION('center_axis',(1.,0.,0.));
#1409=DIRECTION('ref_axis',(0.,0.,-1.));
#1410=DIRECTION('center_axis',(-1.,0.,0.));
#1411=DIRECTION('ref_axis',(0.,0.,-1.));
#1412=DIRECTION('',(-1.,0.,0.));
#1413=DIRECTION('center_axis',(-1.,0.,0.));
#1414=DIRECTION('ref_axis',(0.,0.,-1.));
#1415=DIRECTION('center_axis',(1.,0.,0.));
#1416=DIRECTION('ref_axis',(0.,0.,-1.));
#1417=DIRECTION('center_axis',(1.,0.,0.));
#1418=DIRECTION('ref_axis',(0.,0.,-1.));
#1419=DIRECTION('',(-1.,0.,0.));
#1420=DIRECTION('center_axis',(1.,0.,0.));
#1421=DIRECTION('ref_axis',(0.,0.,-1.));
#1422=DIRECTION('center_axis',(1.,0.,0.));
#1423=DIRECTION('ref_axis',(0.,0.,-1.));
#1424=DIRECTION('center_axis',(1.,0.,0.));
#1425=DIRECTION('ref_axis',(0.,0.,-1.));
#1426=DIRECTION('center_axis',(1.,0.,0.));
#1427=DIRECTION('ref_axis',(0.,0.,-1.));
#1428=DIRECTION('center_axis',(1.,0.,0.));
#1429=DIRECTION('ref_axis',(0.,0.,-1.));
#1430=DIRECTION('',(-1.,0.,0.));
#1431=DIRECTION('center_axis',(1.,0.,0.));
#1432=DIRECTION('ref_axis',(0.,0.,-1.));
#1433=DIRECTION('center_axis',(1.,0.,0.));
#1434=DIRECTION('ref_axis',(0.,0.,-1.));
#1435=DIRECTION('center_axis',(1.,0.,0.));
#1436=DIRECTION('ref_axis',(0.,0.,-1.));
#1437=DIRECTION('center_axis',(0.,1.,0.));
#1438=DIRECTION('ref_axis',(-1.,0.,0.));
#1439=DIRECTION('',(-1.,0.,0.));
#1440=DIRECTION('',(0.,0.,1.));
#1441=DIRECTION('',(-1.,0.,0.));
#1442=DIRECTION('',(0.,0.,1.));
#1443=DIRECTION('center_axis',(1.,0.,0.));
#1444=DIRECTION('ref_axis',(0.,1.,0.));
#1445=DIRECTION('',(0.,1.,0.));
#1446=DIRECTION('',(0.,1.,0.));
#1447=DIRECTION('',(0.,0.,1.));
#1448=DIRECTION('center_axis',(0.,-1.,0.));
#1449=DIRECTION('ref_axis',(1.,0.,0.));
#1450=DIRECTION('',(1.,0.,0.));
#1451=DIRECTION('',(1.,0.,0.));
#1452=DIRECTION('',(0.,0.,1.));
#1453=DIRECTION('center_axis',(-1.,0.,0.));
#1454=DIRECTION('ref_axis',(0.,-1.,0.));
#1455=DIRECTION('',(0.,-1.,0.));
#1456=DIRECTION('',(0.,-1.,0.));
#1457=DIRECTION('center_axis',(0.,0.,1.));
#1458=DIRECTION('ref_axis',(1.,0.,0.));
#1459=DIRECTION('center_axis',(0.,0.,1.));
#1460=DIRECTION('ref_axis',(1.,0.,0.));
#1461=DIRECTION('center_axis',(1.,0.,0.));
#1462=DIRECTION('ref_axis',(0.,0.,-1.));
#1463=DIRECTION('',(0.,-1.,0.));
#1464=DIRECTION('center_axis',(1.,0.,0.));
#1465=DIRECTION('ref_axis',(0.,0.,-1.));
#1466=DIRECTION('center_axis',(1.,0.,0.));
#1467=DIRECTION('ref_axis',(0.,1.22464679914735E-16,1.));
#1468=DIRECTION('',(-1.,0.,0.));
#1469=DIRECTION('center_axis',(-1.,5.87765130683906E-17,0.));
#1470=DIRECTION('ref_axis',(0.,0.,-1.));
#1471=DIRECTION('',(1.,0.,0.));
#1472=DIRECTION('center_axis',(0.,0.,1.));
#1473=DIRECTION('ref_axis',(1.,0.,0.));
#1474=DIRECTION('',(5.87765130683906E-17,1.,0.));
#1475=DIRECTION('',(1.,0.,0.));
#1476=DIRECTION('',(-5.87765130683906E-17,-1.,0.));
#1477=DIRECTION('',(-1.,0.,0.));
#1478=DIRECTION('',(5.87765130683906E-17,1.,0.));
#1479=DIRECTION('center_axis',(-1.,5.87765130683906E-17,0.));
#1480=DIRECTION('ref_axis',(-5.87765130683906E-17,-1.,0.));
#1481=DIRECTION('',(0.,0.,1.));
#1482=DIRECTION('',(-5.87765130683906E-17,-1.,0.));
#1483=DIRECTION('',(0.,0.,1.));
#1484=DIRECTION('center_axis',(0.,1.,0.));
#1485=DIRECTION('ref_axis',(-1.,0.,0.));
#1486=DIRECTION('',(-1.,0.,0.));
#1487=DIRECTION('',(0.,0.,1.));
#1488=DIRECTION('center_axis',(1.,-5.87765130683906E-17,0.));
#1489=DIRECTION('ref_axis',(5.87765130683906E-17,1.,0.));
#1490=DIRECTION('',(5.87765130683906E-17,1.,0.));
#1491=DIRECTION('',(0.,0.,1.));
#1492=DIRECTION('center_axis',(0.,-1.,0.));
#1493=DIRECTION('ref_axis',(1.,0.,0.));
#1494=DIRECTION('',(1.,0.,0.));
#1495=DIRECTION('center_axis',(0.,0.,1.));
#1496=DIRECTION('ref_axis',(1.,0.,0.));
#1497=DIRECTION('center_axis',(-1.17553026136781E-16,-1.,0.));
#1498=DIRECTION('ref_axis',(1.,-1.17553026136781E-16,0.));
#1499=DIRECTION('',(1.,-1.17553026136781E-16,0.));
#1500=DIRECTION('',(0.,0.,1.));
#1501=DIRECTION('',(1.,-1.17553026136781E-16,0.));
#1502=DIRECTION('',(0.,0.,1.));
#1503=DIRECTION('center_axis',(-1.,0.,0.));
#1504=DIRECTION('ref_axis',(0.,-1.,0.));
#1505=DIRECTION('',(0.,-1.,0.));
#1506=DIRECTION('',(0.,-1.,0.));
#1507=DIRECTION('',(0.,0.,1.));
#1508=DIRECTION('center_axis',(1.17553026136781E-16,1.,0.));
#1509=DIRECTION('ref_axis',(-1.,1.17553026136781E-16,0.));
#1510=DIRECTION('',(-1.,1.17553026136781E-16,0.));
#1511=DIRECTION('',(-1.,1.17553026136781E-16,0.));
#1512=DIRECTION('',(0.,0.,1.));
#1513=DIRECTION('center_axis',(1.,0.,0.));
#1514=DIRECTION('ref_axis',(0.,1.,0.));
#1515=DIRECTION('',(0.,1.,0.));
#1516=DIRECTION('',(0.,1.,0.));
#1517=DIRECTION('center_axis',(0.,0.,1.));
#1518=DIRECTION('ref_axis',(1.,0.,0.));
#1519=DIRECTION('center_axis',(0.,0.,1.));
#1520=DIRECTION('ref_axis',(1.,0.,0.));
#1521=DIRECTION('center_axis',(1.,0.,0.));
#1522=DIRECTION('ref_axis',(0.,0.,-1.));
#1523=DIRECTION('',(0.,-1.,0.));
#1524=DIRECTION('center_axis',(1.,0.,0.));
#1525=DIRECTION('ref_axis',(0.,0.,-1.));
#1526=DIRECTION('center_axis',(1.,0.,0.));
#1527=DIRECTION('ref_axis',(0.,1.22464679914735E-16,1.));
#1528=DIRECTION('',(-1.,0.,0.));
#1529=DIRECTION('center_axis',(-1.,1.82860262879438E-16,0.));
#1530=DIRECTION('ref_axis',(0.,0.,-1.));
#1531=DIRECTION('',(1.,0.,0.));
#1532=DIRECTION('center_axis',(0.,0.,1.));
#1533=DIRECTION('ref_axis',(1.,0.,0.));
#1534=DIRECTION('',(1.82860262879438E-16,1.,0.));
#1535=DIRECTION('',(1.,0.,0.));
#1536=DIRECTION('',(-1.82860262879438E-16,-1.,0.));
#1537=DIRECTION('',(-1.,0.,0.));
#1538=DIRECTION('',(1.82860262879438E-16,1.,0.));
#1539=DIRECTION('center_axis',(1.,-1.82860262879438E-16,0.));
#1540=DIRECTION('ref_axis',(1.82860262879438E-16,1.,0.));
#1541=DIRECTION('',(0.,0.,1.));
#1542=DIRECTION('',(1.82860262879438E-16,1.,0.));
#1543=DIRECTION('',(0.,0.,1.));
#1544=DIRECTION('center_axis',(0.,-1.,0.));
#1545=DIRECTION('ref_axis',(1.,0.,0.));
#1546=DIRECTION('',(1.,0.,0.));
#1547=DIRECTION('',(0.,0.,1.));
#1548=DIRECTION('center_axis',(-1.,1.82860262879438E-16,0.));
#1549=DIRECTION('ref_axis',(-1.82860262879438E-16,-1.,0.));
#1550=DIRECTION('',(-1.82860262879438E-16,-1.,0.));
#1551=DIRECTION('',(0.,0.,1.));
#1552=DIRECTION('center_axis',(0.,1.,0.));
#1553=DIRECTION('ref_axis',(-1.,0.,0.));
#1554=DIRECTION('',(-1.,0.,0.));
#1555=DIRECTION('center_axis',(0.,0.,1.));
#1556=DIRECTION('ref_axis',(1.,0.,0.));
#1557=CARTESIAN_POINT('',(0.,0.,0.));
#1558=CARTESIAN_POINT('Origin',(0.,-100.,-173.205080756888));
#1559=CARTESIAN_POINT('',(0.,-100.,-168.705080756888));
#1560=CARTESIAN_POINT('Origin',(0.,-100.,-173.205080756888));
#1561=CARTESIAN_POINT('',(25.,-100.,-168.705080756888));
#1562=CARTESIAN_POINT('',(0.,-100.,-168.705080756888));
#1563=CARTESIAN_POINT('Origin',(25.,-100.,-173.205080756888));
#1564=CARTESIAN_POINT('Origin',(0.,-173.205080756888,-100.));
#1565=CARTESIAN_POINT('',(0.,-173.205080756888,-95.5));
#1566=CARTESIAN_POINT('Origin',(0.,-173.205080756888,-100.));
#1567=CARTESIAN_POINT('',(25.,-173.205080756888,-95.5));
#1568=CARTESIAN_POINT('',(0.,-173.205080756888,-95.5));
#1569=CARTESIAN_POINT('Origin',(25.,-173.205080756888,-100.));
#1570=CARTESIAN_POINT('Origin',(0.,-200.,3.67394039744206E-14));
#1571=CARTESIAN_POINT('',(0.,-200.,4.50000000000004));
#1572=CARTESIAN_POINT('Origin',(0.,-200.,3.67394039744206E-14));
#1573=CARTESIAN_POINT('',(25.,-200.,4.50000000000004));
#1574=CARTESIAN_POINT('',(0.,-200.,4.50000000000004));
#1575=CARTESIAN_POINT('Origin',(25.,-200.,3.67394039744206E-14));
#1576=CARTESIAN_POINT('Origin',(0.,-173.205080756888,100.));
#1577=CARTESIAN_POINT('',(0.,-173.205080756888,104.5));
#1578=CARTESIAN_POINT('Origin',(0.,-173.205080756888,100.));
#1579=CARTESIAN_POINT('',(25.,-173.205080756888,104.5));
#1580=CARTESIAN_POINT('',(0.,-173.205080756888,104.5));
#1581=CARTESIAN_POINT('Origin',(25.,-173.205080756888,100.));
#1582=CARTESIAN_POINT('Origin',(0.,-100.,173.205080756888));
#1583=CARTESIAN_POINT('',(0.,-100.,177.705080756888));
#1584=CARTESIAN_POINT('Origin',(0.,-100.,173.205080756888));
#1585=CARTESIAN_POINT('',(25.,-100.,177.705080756888));
#1586=CARTESIAN_POINT('',(0.,-100.,177.705080756888));
#1587=CARTESIAN_POINT('Origin',(25.,-100.,173.205080756888));
#1588=CARTESIAN_POINT('Origin',(0.,2.44929359829471E-14,200.));
#1589=CARTESIAN_POINT('',(0.,2.39418449233308E-14,204.5));
#1590=CARTESIAN_POINT('Origin',(0.,2.44929359829471E-14,200.));
#1591=CARTESIAN_POINT('',(25.,2.39418449233308E-14,204.5));
#1592=CARTESIAN_POINT('',(0.,2.39418449233308E-14,204.5));
#1593=CARTESIAN_POINT('Origin',(25.,2.44929359829471E-14,200.));
#1594=CARTESIAN_POINT('Origin',(0.,51.7638090205042,193.185165257814));
#1595=CARTESIAN_POINT('',(0.,51.7638090205042,197.685165257814));
#1596=CARTESIAN_POINT('Origin',(0.,51.7638090205042,193.185165257814));
#1597=CARTESIAN_POINT('',(25.,51.7638090205042,197.685165257814));
#1598=CARTESIAN_POINT('',(0.,51.7638090205042,197.685165257814));
#1599=CARTESIAN_POINT('Origin',(25.,51.7638090205042,193.185165257814));
#1600=CARTESIAN_POINT('Origin',(0.,141.42135623731,141.421356237309));
#1601=CARTESIAN_POINT('',(0.,141.42135623731,145.921356237309));
#1602=CARTESIAN_POINT('Origin',(0.,141.42135623731,141.421356237309));
#1603=CARTESIAN_POINT('',(25.,141.42135623731,145.921356237309));
#1604=CARTESIAN_POINT('',(0.,141.42135623731,145.921356237309));
#1605=CARTESIAN_POINT('Origin',(25.,141.42135623731,141.421356237309));
#1606=CARTESIAN_POINT('Origin',(0.,193.185165257814,51.7638090205041));
#1607=CARTESIAN_POINT('',(0.,193.185165257814,56.2638090205041));
#1608=CARTESIAN_POINT('Origin',(0.,193.185165257814,51.7638090205041));
#1609=CARTESIAN_POINT('',(25.,193.185165257814,56.2638090205041));
#1610=CARTESIAN_POINT('',(0.,193.185165257814,56.2638090205041));
#1611=CARTESIAN_POINT('Origin',(25.,193.185165257814,51.7638090205041));
#1612=CARTESIAN_POINT('Origin',(0.,193.185165257814,-51.7638090205041));
#1613=CARTESIAN_POINT('',(0.,193.185165257814,-47.2638090205041));
#1614=CARTESIAN_POINT('Origin',(0.,193.185165257814,-51.7638090205041));
#1615=CARTESIAN_POINT('',(25.,193.185165257814,-47.2638090205041));
#1616=CARTESIAN_POINT('',(0.,193.185165257814,-47.2638090205041));
#1617=CARTESIAN_POINT('Origin',(25.,193.185165257814,-51.7638090205041));
#1618=CARTESIAN_POINT('Origin',(0.,141.421356237309,-141.42135623731));
#1619=CARTESIAN_POINT('',(0.,141.421356237309,-136.92135623731));
#1620=CARTESIAN_POINT('Origin',(0.,141.421356237309,-141.42135623731));
#1621=CARTESIAN_POINT('',(25.,141.421356237309,-136.92135623731));
#1622=CARTESIAN_POINT('',(0.,141.421356237309,-136.92135623731));
#1623=CARTESIAN_POINT('Origin',(25.,141.421356237309,-141.42135623731));
#1624=CARTESIAN_POINT('Origin',(0.,51.7638090205041,-193.185165257814));
#1625=CARTESIAN_POINT('',(0.,51.7638090205041,-188.685165257814));
#1626=CARTESIAN_POINT('Origin',(0.,51.7638090205041,-193.185165257814));
#1627=CARTESIAN_POINT('',(25.,51.7638090205041,-188.685165257814));
#1628=CARTESIAN_POINT('',(0.,51.7638090205041,-188.685165257814));
#1629=CARTESIAN_POINT('Origin',(25.,51.7638090205041,-193.185165257814));
#1630=CARTESIAN_POINT('Origin',(0.,100.,-173.205080756888));
#1631=CARTESIAN_POINT('',(0.,100.,-168.705080756888));
#1632=CARTESIAN_POINT('Origin',(0.,100.,-173.205080756888));
#1633=CARTESIAN_POINT('',(25.,100.,-168.705080756888));
#1634=CARTESIAN_POINT('',(0.,100.,-168.705080756888));
#1635=CARTESIAN_POINT('Origin',(25.,100.,-173.205080756888));
#1636=CARTESIAN_POINT('Origin',(0.,173.205080756888,-100.));
#1637=CARTESIAN_POINT('',(0.,173.205080756888,-95.5));
#1638=CARTESIAN_POINT('Origin',(0.,173.205080756888,-100.));
#1639=CARTESIAN_POINT('',(25.,173.205080756888,-95.5));
#1640=CARTESIAN_POINT('',(0.,173.205080756888,-95.5));
#1641=CARTESIAN_POINT('Origin',(25.,173.205080756888,-100.));
#1642=CARTESIAN_POINT('Origin',(0.,200.,-1.22464679914735E-14));
#1643=CARTESIAN_POINT('',(0.,200.,4.49999999999999));
#1644=CARTESIAN_POINT('Origin',(0.,200.,-1.22464679914735E-14));
#1645=CARTESIAN_POINT('',(25.,200.,4.49999999999999));
#1646=CARTESIAN_POINT('',(0.,200.,4.49999999999999));
#1647=CARTESIAN_POINT('Origin',(25.,200.,-1.22464679914735E-14));
#1648=CARTESIAN_POINT('Origin',(0.,173.205080756888,100.));
#1649=CARTESIAN_POINT('',(0.,173.205080756888,104.5));
#1650=CARTESIAN_POINT('Origin',(0.,173.205080756888,100.));
#1651=CARTESIAN_POINT('',(25.,173.205080756888,104.5));
#1652=CARTESIAN_POINT('',(0.,173.205080756888,104.5));
#1653=CARTESIAN_POINT('Origin',(25.,173.205080756888,100.));
#1654=CARTESIAN_POINT('Origin',(0.,100.,173.205080756888));
#1655=CARTESIAN_POINT('',(0.,100.,177.705080756888));
#1656=CARTESIAN_POINT('Origin',(0.,100.,173.205080756888));
#1657=CARTESIAN_POINT('',(25.,100.,177.705080756888));
#1658=CARTESIAN_POINT('',(0.,100.,177.705080756888));
#1659=CARTESIAN_POINT('Origin',(25.,100.,173.205080756888));
#1660=CARTESIAN_POINT('Origin',(0.,0.,-200.));
#1661=CARTESIAN_POINT('',(0.,-5.51091059616308E-16,-195.5));
#1662=CARTESIAN_POINT('Origin',(0.,0.,-200.));
#1663=CARTESIAN_POINT('',(25.,-5.51091059616308E-16,-195.5));
#1664=CARTESIAN_POINT('',(0.,-5.51091059616308E-16,-195.5));
#1665=CARTESIAN_POINT('Origin',(25.,0.,-200.));
#1666=CARTESIAN_POINT('Origin',(0.,-51.7638090205042,193.185165257814));
#1667=CARTESIAN_POINT('',(0.,-51.7638090205042,197.685165257814));
#1668=CARTESIAN_POINT('Origin',(0.,-51.7638090205042,193.185165257814));
#1669=CARTESIAN_POINT('',(25.,-51.7638090205042,197.685165257814));
#1670=CARTESIAN_POINT('',(0.,-51.7638090205042,197.685165257814));
#1671=CARTESIAN_POINT('Origin',(25.,-51.7638090205042,193.185165257814));
#1672=CARTESIAN_POINT('Origin',(0.,-141.421356237309,141.42135623731));
#1673=CARTESIAN_POINT('',(0.,-141.421356237309,145.92135623731));
#1674=CARTESIAN_POINT('Origin',(0.,-141.421356237309,141.42135623731));
#1675=CARTESIAN_POINT('',(25.,-141.421356237309,145.92135623731));
#1676=CARTESIAN_POINT('',(0.,-141.421356237309,145.92135623731));
#1677=CARTESIAN_POINT('Origin',(25.,-141.421356237309,141.42135623731));
#1678=CARTESIAN_POINT('Origin',(0.,-193.185165257814,51.7638090205041));
#1679=CARTESIAN_POINT('',(0.,-193.185165257814,56.2638090205041));
#1680=CARTESIAN_POINT('Origin',(0.,-193.185165257814,51.7638090205041));
#1681=CARTESIAN_POINT('',(25.,-193.185165257814,56.2638090205041));
#1682=CARTESIAN_POINT('',(0.,-193.185165257814,56.2638090205041));
#1683=CARTESIAN_POINT('Origin',(25.,-193.185165257814,51.7638090205041));
#1684=CARTESIAN_POINT('Origin',(0.,-193.185165257814,-51.7638090205041));
#1685=CARTESIAN_POINT('',(0.,-193.185165257814,-47.2638090205041));
#1686=CARTESIAN_POINT('Origin',(0.,-193.185165257814,-51.7638090205041));
#1687=CARTESIAN_POINT('',(25.,-193.185165257814,-47.2638090205041));
#1688=CARTESIAN_POINT('',(0.,-193.185165257814,-47.2638090205041));
#1689=CARTESIAN_POINT('Origin',(25.,-193.185165257814,-51.7638090205041));
#1690=CARTESIAN_POINT('Origin',(0.,-141.42135623731,-141.421356237309));
#1691=CARTESIAN_POINT('',(0.,-141.42135623731,-136.921356237309));
#1692=CARTESIAN_POINT('Origin',(0.,-141.42135623731,-141.421356237309));
#1693=CARTESIAN_POINT('',(25.,-141.42135623731,-136.921356237309));
#1694=CARTESIAN_POINT('',(0.,-141.42135623731,-136.921356237309));
#1695=CARTESIAN_POINT('Origin',(25.,-141.42135623731,-141.421356237309));
#1696=CARTESIAN_POINT('Origin',(0.,-51.7638090205043,-193.185165257814));
#1697=CARTESIAN_POINT('',(0.,-51.7638090205043,-188.685165257814));
#1698=CARTESIAN_POINT('Origin',(0.,-51.7638090205043,-193.185165257814));
#1699=CARTESIAN_POINT('',(25.,-51.7638090205043,-188.685165257814));
#1700=CARTESIAN_POINT('',(0.,-51.7638090205043,-188.685165257814));
#1701=CARTESIAN_POINT('Origin',(25.,-51.7638090205043,-193.185165257814));
#1702=CARTESIAN_POINT('Origin',(0.,0.,0.));
#1703=CARTESIAN_POINT('',(25.,-2.0818995585505E-14,170.));
#1704=CARTESIAN_POINT('Origin',(25.,0.,0.));
#1705=CARTESIAN_POINT('',(0.,-2.0818995585505E-14,170.));
#1706=CARTESIAN_POINT('',(0.,-2.0818995585505E-14,170.));
#1707=CARTESIAN_POINT('Origin',(0.,0.,0.));
#1708=CARTESIAN_POINT('Origin',(0.,0.,0.));
#1709=CARTESIAN_POINT('',(25.,-2.81668763803891E-14,230.));
#1710=CARTESIAN_POINT('Origin',(25.,0.,0.));
#1711=CARTESIAN_POINT('',(0.,-2.81668763803891E-14,230.));
#1712=CARTESIAN_POINT('',(0.,-2.81668763803891E-14,230.));
#1713=CARTESIAN_POINT('Origin',(0.,0.,0.));
#1714=CARTESIAN_POINT('Origin',(25.,0.,0.));
#1715=CARTESIAN_POINT('Origin',(0.,0.,0.));
#1716=CARTESIAN_POINT('Origin',(0.,0.,0.));
#1717=CARTESIAN_POINT('',(15.,-1.83697019872103E-14,150.));
#1718=CARTESIAN_POINT('Origin',(15.,0.,0.));
#1719=CARTESIAN_POINT('',(0.,-1.83697019872103E-14,150.));
#1720=CARTESIAN_POINT('',(0.,-1.83697019872103E-14,150.));
#1721=CARTESIAN_POINT('Origin',(0.,0.,0.));
#1722=CARTESIAN_POINT('Origin',(15.,0.,0.));
#1723=CARTESIAN_POINT('Origin',(0.,0.,0.));
#1724=CARTESIAN_POINT('Origin',(220.,6.,0.));
#1725=CARTESIAN_POINT('',(220.,6.,0.));
#1726=CARTESIAN_POINT('',(50.,6.,0.));
#1727=CARTESIAN_POINT('',(220.,6.,0.));
#1728=CARTESIAN_POINT('',(50.,6.,12.));
#1729=CARTESIAN_POINT('',(50.,6.,0.));
#1730=CARTESIAN_POINT('',(220.,6.,12.));
#1731=CARTESIAN_POINT('',(220.,6.,12.));
#1732=CARTESIAN_POINT('',(220.,6.,0.));
#1733=CARTESIAN_POINT('Origin',(220.,-6.,0.));
#1734=CARTESIAN_POINT('',(220.,-6.,0.));
#1735=CARTESIAN_POINT('',(220.,-6.,0.));
#1736=CARTESIAN_POINT('',(220.,-6.,12.));
#1737=CARTESIAN_POINT('',(220.,-6.,12.));
#1738=CARTESIAN_POINT('',(220.,-6.,0.));
#1739=CARTESIAN_POINT('Origin',(50.,-6.,0.));
#1740=CARTESIAN_POINT('',(50.,-6.,0.));
#1741=CARTESIAN_POINT('',(50.,-6.,0.));
#1742=CARTESIAN_POINT('',(50.,-6.,12.));
#1743=CARTESIAN_POINT('',(50.,-6.,12.));
#1744=CARTESIAN_POINT('',(50.,-6.,0.));
#1745=CARTESIAN_POINT('Origin',(50.,6.,0.));
#1746=CARTESIAN_POINT('',(50.,6.,0.));
#1747=CARTESIAN_POINT('',(50.,6.,12.));
#1748=CARTESIAN_POINT('Origin',(135.,0.,12.));
#1749=CARTESIAN_POINT('Origin',(135.,0.,0.));
#1750=CARTESIAN_POINT('Origin',(0.,200.,-1.22124532708767E-14));
#1751=CARTESIAN_POINT('',(0.,204.5,0.));
#1752=CARTESIAN_POINT('',(0.,195.5,0.));
#1753=CARTESIAN_POINT('',(0.,167.5,0.));
#1754=CARTESIAN_POINT('Origin',(0.,200.,-1.22464679914735E-14));
#1755=CARTESIAN_POINT('Origin',(0.,200.,-1.22464679914735E-14));
#1756=CARTESIAN_POINT('',(6.00000000000001,204.5,0.));
#1757=CARTESIAN_POINT('',(0.,204.5,0.));
#1758=CARTESIAN_POINT('',(6.00000000000001,195.5,0.));
#1759=CARTESIAN_POINT('Origin',(6.,200.,-1.22464679914735E-14));
#1760=CARTESIAN_POINT('',(0.,195.5,0.));
#1761=CARTESIAN_POINT('Origin',(8.88178419700125E-15,135.,0.));
#1762=CARTESIAN_POINT('',(6.,50.,0.));
#1763=CARTESIAN_POINT('',(6.,50.,0.));
#1764=CARTESIAN_POINT('',(-6.,50.,0.));
#1765=CARTESIAN_POINT('',(-6.,50.,0.));
#1766=CARTESIAN_POINT('',(-5.99999999999999,220.,0.));
#1767=CARTESIAN_POINT('',(-5.99999999999999,220.,0.));
#1768=CARTESIAN_POINT('',(6.00000000000001,220.,0.));
#1769=CARTESIAN_POINT('',(6.00000000000001,220.,0.));
#1770=CARTESIAN_POINT('',(6.,50.,0.));
#1771=CARTESIAN_POINT('Origin',(-5.99999999999999,220.,0.));
#1772=CARTESIAN_POINT('',(-6.,50.,12.));
#1773=CARTESIAN_POINT('',(-6.,50.,0.));
#1774=CARTESIAN_POINT('',(-5.99999999999999,220.,12.));
#1775=CARTESIAN_POINT('',(-5.99999999999999,220.,12.));
#1776=CARTESIAN_POINT('',(-5.99999999999999,220.,0.));
#1777=CARTESIAN_POINT('Origin',(6.00000000000001,220.,0.));
#1778=CARTESIAN_POINT('',(6.00000000000001,220.,12.));
#1779=CARTESIAN_POINT('',(6.00000000000001,220.,12.));
#1780=CARTESIAN_POINT('',(6.00000000000001,220.,0.));
#1781=CARTESIAN_POINT('Origin',(6.,50.,0.));
#1782=CARTESIAN_POINT('',(6.,50.,12.));
#1783=CARTESIAN_POINT('',(6.,50.,12.));
#1784=CARTESIAN_POINT('',(6.,50.,0.));
#1785=CARTESIAN_POINT('Origin',(-6.,50.,0.));
#1786=CARTESIAN_POINT('',(-6.,50.,12.));
#1787=CARTESIAN_POINT('Origin',(8.88178419700125E-15,135.,12.));
#1788=CARTESIAN_POINT('Origin',(-220.,-5.99999999999997,0.));
#1789=CARTESIAN_POINT('',(-220.,-5.99999999999997,0.));
#1790=CARTESIAN_POINT('',(-50.,-5.99999999999999,0.));
#1791=CARTESIAN_POINT('',(-220.,-5.99999999999997,0.));
#1792=CARTESIAN_POINT('',(-50.,-5.99999999999999,12.));
#1793=CARTESIAN_POINT('',(-50.,-5.99999999999999,0.));
#1794=CARTESIAN_POINT('',(-220.,-5.99999999999997,12.));
#1795=CARTESIAN_POINT('',(-220.,-5.99999999999997,12.));
#1796=CARTESIAN_POINT('',(-220.,-5.99999999999997,0.));
#1797=CARTESIAN_POINT('Origin',(-220.,6.00000000000003,0.));
#1798=CARTESIAN_POINT('',(-220.,6.00000000000003,0.));
#1799=CARTESIAN_POINT('',(-220.,6.00000000000003,0.));
#1800=CARTESIAN_POINT('',(-220.,6.00000000000003,12.));
#1801=CARTESIAN_POINT('',(-220.,6.00000000000003,12.));
#1802=CARTESIAN_POINT('',(-220.,6.00000000000003,0.));
#1803=CARTESIAN_POINT('Origin',(-50.,6.00000000000001,0.));
#1804=CARTESIAN_POINT('',(-50.,6.00000000000001,0.));
#1805=CARTESIAN_POINT('',(-50.,6.00000000000001,0.));
#1806=CARTESIAN_POINT('',(-50.,6.00000000000001,12.));
#1807=CARTESIAN_POINT('',(-50.,6.00000000000001,12.));
#1808=CARTESIAN_POINT('',(-50.,6.00000000000001,0.));
#1809=CARTESIAN_POINT('Origin',(-50.,-5.99999999999999,0.));
#1810=CARTESIAN_POINT('',(-50.,-5.99999999999999,0.));
#1811=CARTESIAN_POINT('',(-50.,-5.99999999999999,12.));
#1812=CARTESIAN_POINT('Origin',(-135.,1.66533453693773E-14,12.));
#1813=CARTESIAN_POINT('Origin',(-135.,1.66533453693773E-14,0.));
#1814=CARTESIAN_POINT('Origin',(0.,-200.,3.66373598126302E-14));
#1815=CARTESIAN_POINT('',(0.,-195.5,0.));
#1816=CARTESIAN_POINT('',(0.,-204.5,0.));
#1817=CARTESIAN_POINT('',(0.,-167.5,0.));
#1818=CARTESIAN_POINT('Origin',(0.,-200.,3.67394039744206E-14));
#1819=CARTESIAN_POINT('Origin',(0.,-200.,3.67394039744206E-14));
#1820=CARTESIAN_POINT('',(5.99999999999996,-195.5,0.));
#1821=CARTESIAN_POINT('',(0.,-195.5,0.));
#1822=CARTESIAN_POINT('',(5.99999999999996,-204.5,0.));
#1823=CARTESIAN_POINT('Origin',(5.99999999999996,-200.,3.67394039744206E-14));
#1824=CARTESIAN_POINT('',(0.,-204.5,0.));
#1825=CARTESIAN_POINT('Origin',(-2.44249065417534E-14,-135.,0.));
#1826=CARTESIAN_POINT('',(5.99999999999996,-220.,0.));
#1827=CARTESIAN_POINT('',(5.99999999999996,-220.,0.));
#1828=CARTESIAN_POINT('',(-6.00000000000004,-220.,0.));
#1829=CARTESIAN_POINT('',(-6.00000000000004,-220.,0.));
#1830=CARTESIAN_POINT('',(-6.00000000000001,-50.,0.));
#1831=CARTESIAN_POINT('',(-6.00000000000001,-50.,0.));
#1832=CARTESIAN_POINT('',(5.99999999999999,-50.,0.));
#1833=CARTESIAN_POINT('',(5.99999999999999,-50.,0.));
#1834=CARTESIAN_POINT('',(5.99999999999996,-220.,0.));
#1835=CARTESIAN_POINT('Origin',(5.99999999999996,-220.,0.));
#1836=CARTESIAN_POINT('',(5.99999999999999,-50.,12.));
#1837=CARTESIAN_POINT('',(5.99999999999999,-50.,0.));
#1838=CARTESIAN_POINT('',(5.99999999999996,-220.,12.));
#1839=CARTESIAN_POINT('',(5.99999999999996,-220.,12.));
#1840=CARTESIAN_POINT('',(5.99999999999996,-220.,0.));
#1841=CARTESIAN_POINT('Origin',(-6.00000000000004,-220.,0.));
#1842=CARTESIAN_POINT('',(-6.00000000000004,-220.,12.));
#1843=CARTESIAN_POINT('',(-6.00000000000004,-220.,12.));
#1844=CARTESIAN_POINT('',(-6.00000000000004,-220.,0.));
#1845=CARTESIAN_POINT('Origin',(-6.00000000000001,-50.,0.));
#1846=CARTESIAN_POINT('',(-6.00000000000001,-50.,12.));
#1847=CARTESIAN_POINT('',(-6.00000000000001,-50.,12.));
#1848=CARTESIAN_POINT('',(-6.00000000000001,-50.,0.));
#1849=CARTESIAN_POINT('Origin',(5.99999999999999,-50.,0.));
#1850=CARTESIAN_POINT('',(5.99999999999999,-50.,12.));
#1851=CARTESIAN_POINT('Origin',(-2.44249065417534E-14,-135.,12.));
#1852=UNCERTAINTY_MEASURE_WITH_UNIT(LENGTH_MEASURE(0.01),#1856,
'DISTANCE_ACCURACY_VALUE',
'Maximum model space distance between geometric entities at asserted c
onnectivities');
#1853=UNCERTAINTY_MEASURE_WITH_UNIT(LENGTH_MEASURE(0.01),#1856,
'DISTANCE_ACCURACY_VALUE',
'Maximum model space distance between geometric entities at asserted c
onnectivities');
#1854=(
GEOMETRIC_REPRESENTATION_CONTEXT(3)
GLOBAL_UNCERTAINTY_ASSIGNED_CONTEXT((#1852))
GLOBAL_UNIT_ASSIGNED_CONTEXT((#1856,#1858,#1859))
REPRESENTATION_CONTEXT('','3D')
);
#1855=(
GEOMETRIC_REPRESENTATION_CONTEXT(3)
GLOBAL_UNCERTAINTY_ASSIGNED_CONTEXT((#1853))
GLOBAL_UNIT_ASSIGNED_CONTEXT((#1856,#1858,#1859))
REPRESENTATION_CONTEXT('','3D')
);
#1856=(
LENGTH_UNIT()
NAMED_UNIT(*)
SI_UNIT(.MILLI.,.METRE.)
);
#1857=(
LENGTH_UNIT()
NAMED_UNIT(*)
SI_UNIT($,.METRE.)
);
#1858=(
NAMED_UNIT(*)
PLANE_ANGLE_UNIT()
SI_UNIT($,.RADIAN.)
);
#1859=(
NAMED_UNIT(*)
SI_UNIT($,.STERADIAN.)
SOLID_ANGLE_UNIT()
);
#1860=SHAPE_DEFINITION_REPRESENTATION(#1861,#1862);
#1861=PRODUCT_DEFINITION_SHAPE('',$,#1864);
#1862=SHAPE_REPRESENTATION('',(#1120),#1854);
#1863=PRODUCT_DEFINITION_CONTEXT('part definition',#1868,'design');
#1864=PRODUCT_DEFINITION('EMOCD_Interface_ESPA',
'EMOCD_Interface_ESPA v1',#1865,#1863);
#1865=PRODUCT_DEFINITION_FORMATION('',$,#1870);
#1866=PRODUCT_RELATED_PRODUCT_CATEGORY('EMOCD_Interface_ESPA v1',
'EMOCD_Interface_ESPA v1',(#1870));
#1867=APPLICATION_PROTOCOL_DEFINITION('international standard',
'automotive_design',2009,#1868);
#1868=APPLICATION_CONTEXT(
'Core Data for Automotive Mechanical Design Process');
#1869=PRODUCT_CONTEXT('part definition',#1868,'mechanical');
#1870=PRODUCT('EMOCD_Interface_ESPA','EMOCD_Interface_ESPA v1',$,(#1869));
#1871=PRESENTATION_STYLE_ASSIGNMENT((#1872));
#1872=SURFACE_STYLE_USAGE(.BOTH.,#1873);
#1873=SURFACE_SIDE_STYLE('',(#1874));
#1874=SURFACE_STYLE_FILL_AREA(#1875);
#1875=FILL_AREA_STYLE('Steel - Satin',(#1876));
#1876=FILL_AREA_STYLE_COLOUR('Steel - Satin',#1877);
#1877=COLOUR_RGB('Steel - Satin',0.627450980392157,0.627450980392157,0.627450980392157);
ENDSEC;
END-ISO-10303-21;
