ISO-10303-21;
HEADER;
/* Generated by software containing ST-Developer
 * from STEP Tools, Inc. (www.steptools.com) 
 */

FILE_DESCRIPTION(
/* description */ (''),
/* implementation_level */ '2;1');

FILE_NAME(
/* name */ 'EMOCD_Magazine_Cassette_Gen1.step',
/* time_stamp */ '2026-07-28T19:09:56+05:30',
/* author */ (''),
/* organization */ (''),
/* preprocessor_version */ 'ST-DEVELOPER v20.1',
/* originating_system */ 'Autodesk Translation Framework v15.8.0.0',
/* authorisation */ '');

FILE_SCHEMA (('AUTOMOTIVE_DESIGN { 1 0 10303 214 3 1 1 }'));
ENDSEC;

DATA;
#10=MECHANICAL_DESIGN_GEOMETRIC_PRESENTATION_REPRESENTATION('',(#16,#17,
#18,#19,#20,#21,#22,#23,#24,#25,#26,#27,#28,#29,#30,#31),#2351);
#11=SHAPE_REPRESENTATION_RELATIONSHIP('SRR','None',#2358,#12);
#12=ADVANCED_BREP_SHAPE_REPRESENTATION('',(#32,#33,#34,#35,#36,#37,#38,
#39,#40,#41,#42,#43,#44,#45,#46,#47),#2350);
#13=CIRCLE('',#1572,10.);
#14=CIRCLE('',#1573,10.);
#15=CYLINDRICAL_SURFACE('',#1571,10.);
#16=STYLED_ITEM('',(#2367),#32);
#17=STYLED_ITEM('',(#2367),#33);
#18=STYLED_ITEM('',(#2367),#34);
#19=STYLED_ITEM('',(#2367),#35);
#20=STYLED_ITEM('',(#2367),#36);
#21=STYLED_ITEM('',(#2367),#37);
#22=STYLED_ITEM('',(#2367),#38);
#23=STYLED_ITEM('',(#2367),#39);
#24=STYLED_ITEM('',(#2367),#40);
#25=STYLED_ITEM('',(#2367),#41);
#26=STYLED_ITEM('',(#2367),#42);
#27=STYLED_ITEM('',(#2367),#43);
#28=STYLED_ITEM('',(#2367),#44);
#29=STYLED_ITEM('',(#2367),#45);
#30=STYLED_ITEM('',(#2367),#46);
#31=STYLED_ITEM('',(#2367),#47);
#32=MANIFOLD_SOLID_BREP('Shell_Front',#1452);
#33=MANIFOLD_SOLID_BREP('Shell_Back',#1453);
#34=MANIFOLD_SOLID_BREP('Shell_Aft',#1454);
#35=MANIFOLD_SOLID_BREP('Shell_Muzzle_End',#1455);
#36=MANIFOLD_SOLID_BREP('Shell_Bottom',#1456);
#37=MANIFOLD_SOLID_BREP('Shell_Top',#1457);
#38=MANIFOLD_SOLID_BREP('Septum_MagShield',#1458);
#39=MANIFOLD_SOLID_BREP('Follower_Plate',#1459);
#40=MANIFOLD_SOLID_BREP('Divider_0',#1460);
#41=MANIFOLD_SOLID_BREP('Divider_1',#1461);
#42=MANIFOLD_SOLID_BREP('Divider_2',#1462);
#43=MANIFOLD_SOLID_BREP('Divider_3',#1463);
#44=MANIFOLD_SOLID_BREP('Divider_4',#1464);
#45=MANIFOLD_SOLID_BREP('Divider_5',#1465);
#46=MANIFOLD_SOLID_BREP('Gate_Frame',#1466);
#47=MANIFOLD_SOLID_BREP('Leadscrew_Drive',#1467);
#48=FACE_OUTER_BOUND('',#141,.T.);
#49=FACE_OUTER_BOUND('',#142,.T.);
#50=FACE_OUTER_BOUND('',#143,.T.);
#51=FACE_OUTER_BOUND('',#144,.T.);
#52=FACE_OUTER_BOUND('',#145,.T.);
#53=FACE_OUTER_BOUND('',#146,.T.);
#54=FACE_OUTER_BOUND('',#147,.T.);
#55=FACE_OUTER_BOUND('',#148,.T.);
#56=FACE_OUTER_BOUND('',#149,.T.);
#57=FACE_OUTER_BOUND('',#150,.T.);
#58=FACE_OUTER_BOUND('',#151,.T.);
#59=FACE_OUTER_BOUND('',#152,.T.);
#60=FACE_OUTER_BOUND('',#153,.T.);
#61=FACE_OUTER_BOUND('',#154,.T.);
#62=FACE_OUTER_BOUND('',#155,.T.);
#63=FACE_OUTER_BOUND('',#156,.T.);
#64=FACE_OUTER_BOUND('',#157,.T.);
#65=FACE_OUTER_BOUND('',#158,.T.);
#66=FACE_OUTER_BOUND('',#159,.T.);
#67=FACE_OUTER_BOUND('',#160,.T.);
#68=FACE_OUTER_BOUND('',#161,.T.);
#69=FACE_OUTER_BOUND('',#162,.T.);
#70=FACE_OUTER_BOUND('',#163,.T.);
#71=FACE_OUTER_BOUND('',#164,.T.);
#72=FACE_OUTER_BOUND('',#165,.T.);
#73=FACE_OUTER_BOUND('',#166,.T.);
#74=FACE_OUTER_BOUND('',#167,.T.);
#75=FACE_OUTER_BOUND('',#168,.T.);
#76=FACE_OUTER_BOUND('',#169,.T.);
#77=FACE_OUTER_BOUND('',#170,.T.);
#78=FACE_OUTER_BOUND('',#171,.T.);
#79=FACE_OUTER_BOUND('',#172,.T.);
#80=FACE_OUTER_BOUND('',#173,.T.);
#81=FACE_OUTER_BOUND('',#174,.T.);
#82=FACE_OUTER_BOUND('',#175,.T.);
#83=FACE_OUTER_BOUND('',#176,.T.);
#84=FACE_OUTER_BOUND('',#177,.T.);
#85=FACE_OUTER_BOUND('',#178,.T.);
#86=FACE_OUTER_BOUND('',#179,.T.);
#87=FACE_OUTER_BOUND('',#180,.T.);
#88=FACE_OUTER_BOUND('',#181,.T.);
#89=FACE_OUTER_BOUND('',#182,.T.);
#90=FACE_OUTER_BOUND('',#183,.T.);
#91=FACE_OUTER_BOUND('',#184,.T.);
#92=FACE_OUTER_BOUND('',#185,.T.);
#93=FACE_OUTER_BOUND('',#186,.T.);
#94=FACE_OUTER_BOUND('',#187,.T.);
#95=FACE_OUTER_BOUND('',#188,.T.);
#96=FACE_OUTER_BOUND('',#189,.T.);
#97=FACE_OUTER_BOUND('',#190,.T.);
#98=FACE_OUTER_BOUND('',#191,.T.);
#99=FACE_OUTER_BOUND('',#192,.T.);
#100=FACE_OUTER_BOUND('',#193,.T.);
#101=FACE_OUTER_BOUND('',#194,.T.);
#102=FACE_OUTER_BOUND('',#195,.T.);
#103=FACE_OUTER_BOUND('',#196,.T.);
#104=FACE_OUTER_BOUND('',#197,.T.);
#105=FACE_OUTER_BOUND('',#198,.T.);
#106=FACE_OUTER_BOUND('',#199,.T.);
#107=FACE_OUTER_BOUND('',#200,.T.);
#108=FACE_OUTER_BOUND('',#201,.T.);
#109=FACE_OUTER_BOUND('',#202,.T.);
#110=FACE_OUTER_BOUND('',#203,.T.);
#111=FACE_OUTER_BOUND('',#204,.T.);
#112=FACE_OUTER_BOUND('',#205,.T.);
#113=FACE_OUTER_BOUND('',#206,.T.);
#114=FACE_OUTER_BOUND('',#207,.T.);
#115=FACE_OUTER_BOUND('',#208,.T.);
#116=FACE_OUTER_BOUND('',#209,.T.);
#117=FACE_OUTER_BOUND('',#210,.T.);
#118=FACE_OUTER_BOUND('',#211,.T.);
#119=FACE_OUTER_BOUND('',#212,.T.);
#120=FACE_OUTER_BOUND('',#213,.T.);
#121=FACE_OUTER_BOUND('',#214,.T.);
#122=FACE_OUTER_BOUND('',#215,.T.);
#123=FACE_OUTER_BOUND('',#216,.T.);
#124=FACE_OUTER_BOUND('',#217,.T.);
#125=FACE_OUTER_BOUND('',#218,.T.);
#126=FACE_OUTER_BOUND('',#219,.T.);
#127=FACE_OUTER_BOUND('',#220,.T.);
#128=FACE_OUTER_BOUND('',#221,.T.);
#129=FACE_OUTER_BOUND('',#222,.T.);
#130=FACE_OUTER_BOUND('',#223,.T.);
#131=FACE_OUTER_BOUND('',#224,.T.);
#132=FACE_OUTER_BOUND('',#225,.T.);
#133=FACE_OUTER_BOUND('',#226,.T.);
#134=FACE_OUTER_BOUND('',#227,.T.);
#135=FACE_OUTER_BOUND('',#228,.T.);
#136=FACE_OUTER_BOUND('',#229,.T.);
#137=FACE_OUTER_BOUND('',#230,.T.);
#138=FACE_OUTER_BOUND('',#231,.T.);
#139=FACE_OUTER_BOUND('',#232,.T.);
#140=FACE_OUTER_BOUND('',#233,.T.);
#141=EDGE_LOOP('',(#901,#902,#903,#904));
#142=EDGE_LOOP('',(#905,#906,#907,#908));
#143=EDGE_LOOP('',(#909,#910,#911,#912));
#144=EDGE_LOOP('',(#913,#914,#915,#916));
#145=EDGE_LOOP('',(#917,#918,#919,#920));
#146=EDGE_LOOP('',(#921,#922,#923,#924));
#147=EDGE_LOOP('',(#925,#926,#927,#928));
#148=EDGE_LOOP('',(#929,#930,#931,#932));
#149=EDGE_LOOP('',(#933,#934,#935,#936));
#150=EDGE_LOOP('',(#937,#938,#939,#940));
#151=EDGE_LOOP('',(#941,#942,#943,#944));
#152=EDGE_LOOP('',(#945,#946,#947,#948));
#153=EDGE_LOOP('',(#949,#950,#951,#952));
#154=EDGE_LOOP('',(#953,#954,#955,#956));
#155=EDGE_LOOP('',(#957,#958,#959,#960));
#156=EDGE_LOOP('',(#961,#962,#963,#964));
#157=EDGE_LOOP('',(#965,#966,#967,#968));
#158=EDGE_LOOP('',(#969,#970,#971,#972));
#159=EDGE_LOOP('',(#973,#974,#975,#976));
#160=EDGE_LOOP('',(#977,#978,#979,#980));
#161=EDGE_LOOP('',(#981,#982,#983,#984));
#162=EDGE_LOOP('',(#985,#986,#987,#988));
#163=EDGE_LOOP('',(#989,#990,#991,#992));
#164=EDGE_LOOP('',(#993,#994,#995,#996));
#165=EDGE_LOOP('',(#997,#998,#999,#1000));
#166=EDGE_LOOP('',(#1001,#1002,#1003,#1004));
#167=EDGE_LOOP('',(#1005,#1006,#1007,#1008));
#168=EDGE_LOOP('',(#1009,#1010,#1011,#1012));
#169=EDGE_LOOP('',(#1013,#1014,#1015,#1016));
#170=EDGE_LOOP('',(#1017,#1018,#1019,#1020));
#171=EDGE_LOOP('',(#1021,#1022,#1023,#1024));
#172=EDGE_LOOP('',(#1025,#1026,#1027,#1028));
#173=EDGE_LOOP('',(#1029,#1030,#1031,#1032));
#174=EDGE_LOOP('',(#1033,#1034,#1035,#1036));
#175=EDGE_LOOP('',(#1037,#1038,#1039,#1040));
#176=EDGE_LOOP('',(#1041,#1042,#1043,#1044));
#177=EDGE_LOOP('',(#1045,#1046,#1047,#1048));
#178=EDGE_LOOP('',(#1049,#1050,#1051,#1052));
#179=EDGE_LOOP('',(#1053,#1054,#1055,#1056));
#180=EDGE_LOOP('',(#1057,#1058,#1059,#1060));
#181=EDGE_LOOP('',(#1061,#1062,#1063,#1064));
#182=EDGE_LOOP('',(#1065,#1066,#1067,#1068));
#183=EDGE_LOOP('',(#1069,#1070,#1071,#1072));
#184=EDGE_LOOP('',(#1073,#1074,#1075,#1076));
#185=EDGE_LOOP('',(#1077,#1078,#1079,#1080));
#186=EDGE_LOOP('',(#1081,#1082,#1083,#1084));
#187=EDGE_LOOP('',(#1085,#1086,#1087,#1088));
#188=EDGE_LOOP('',(#1089,#1090,#1091,#1092));
#189=EDGE_LOOP('',(#1093,#1094,#1095,#1096));
#190=EDGE_LOOP('',(#1097,#1098,#1099,#1100));
#191=EDGE_LOOP('',(#1101,#1102,#1103,#1104));
#192=EDGE_LOOP('',(#1105,#1106,#1107,#1108));
#193=EDGE_LOOP('',(#1109,#1110,#1111,#1112));
#194=EDGE_LOOP('',(#1113,#1114,#1115,#1116));
#195=EDGE_LOOP('',(#1117,#1118,#1119,#1120));
#196=EDGE_LOOP('',(#1121,#1122,#1123,#1124));
#197=EDGE_LOOP('',(#1125,#1126,#1127,#1128));
#198=EDGE_LOOP('',(#1129,#1130,#1131,#1132));
#199=EDGE_LOOP('',(#1133,#1134,#1135,#1136));
#200=EDGE_LOOP('',(#1137,#1138,#1139,#1140));
#201=EDGE_LOOP('',(#1141,#1142,#1143,#1144));
#202=EDGE_LOOP('',(#1145,#1146,#1147,#1148));
#203=EDGE_LOOP('',(#1149,#1150,#1151,#1152));
#204=EDGE_LOOP('',(#1153,#1154,#1155,#1156));
#205=EDGE_LOOP('',(#1157,#1158,#1159,#1160));
#206=EDGE_LOOP('',(#1161,#1162,#1163,#1164));
#207=EDGE_LOOP('',(#1165,#1166,#1167,#1168));
#208=EDGE_LOOP('',(#1169,#1170,#1171,#1172));
#209=EDGE_LOOP('',(#1173,#1174,#1175,#1176));
#210=EDGE_LOOP('',(#1177,#1178,#1179,#1180));
#211=EDGE_LOOP('',(#1181,#1182,#1183,#1184));
#212=EDGE_LOOP('',(#1185,#1186,#1187,#1188));
#213=EDGE_LOOP('',(#1189,#1190,#1191,#1192));
#214=EDGE_LOOP('',(#1193,#1194,#1195,#1196));
#215=EDGE_LOOP('',(#1197,#1198,#1199,#1200));
#216=EDGE_LOOP('',(#1201,#1202,#1203,#1204));
#217=EDGE_LOOP('',(#1205,#1206,#1207,#1208));
#218=EDGE_LOOP('',(#1209,#1210,#1211,#1212));
#219=EDGE_LOOP('',(#1213,#1214,#1215,#1216));
#220=EDGE_LOOP('',(#1217,#1218,#1219,#1220));
#221=EDGE_LOOP('',(#1221,#1222,#1223,#1224));
#222=EDGE_LOOP('',(#1225,#1226,#1227,#1228));
#223=EDGE_LOOP('',(#1229,#1230,#1231,#1232));
#224=EDGE_LOOP('',(#1233,#1234,#1235,#1236));
#225=EDGE_LOOP('',(#1237,#1238,#1239,#1240));
#226=EDGE_LOOP('',(#1241,#1242,#1243,#1244));
#227=EDGE_LOOP('',(#1245,#1246,#1247,#1248));
#228=EDGE_LOOP('',(#1249,#1250,#1251,#1252));
#229=EDGE_LOOP('',(#1253,#1254,#1255,#1256));
#230=EDGE_LOOP('',(#1257,#1258,#1259,#1260));
#231=EDGE_LOOP('',(#1261,#1262,#1263,#1264));
#232=EDGE_LOOP('',(#1265));
#233=EDGE_LOOP('',(#1266));
#234=LINE('',#1953,#415);
#235=LINE('',#1955,#416);
#236=LINE('',#1957,#417);
#237=LINE('',#1958,#418);
#238=LINE('',#1961,#419);
#239=LINE('',#1963,#420);
#240=LINE('',#1964,#421);
#241=LINE('',#1967,#422);
#242=LINE('',#1969,#423);
#243=LINE('',#1970,#424);
#244=LINE('',#1972,#425);
#245=LINE('',#1973,#426);
#246=LINE('',#1979,#427);
#247=LINE('',#1981,#428);
#248=LINE('',#1983,#429);
#249=LINE('',#1984,#430);
#250=LINE('',#1987,#431);
#251=LINE('',#1989,#432);
#252=LINE('',#1990,#433);
#253=LINE('',#1993,#434);
#254=LINE('',#1995,#435);
#255=LINE('',#1996,#436);
#256=LINE('',#1998,#437);
#257=LINE('',#1999,#438);
#258=LINE('',#2005,#439);
#259=LINE('',#2007,#440);
#260=LINE('',#2009,#441);
#261=LINE('',#2010,#442);
#262=LINE('',#2013,#443);
#263=LINE('',#2015,#444);
#264=LINE('',#2016,#445);
#265=LINE('',#2019,#446);
#266=LINE('',#2021,#447);
#267=LINE('',#2022,#448);
#268=LINE('',#2024,#449);
#269=LINE('',#2025,#450);
#270=LINE('',#2031,#451);
#271=LINE('',#2033,#452);
#272=LINE('',#2035,#453);
#273=LINE('',#2036,#454);
#274=LINE('',#2039,#455);
#275=LINE('',#2041,#456);
#276=LINE('',#2042,#457);
#277=LINE('',#2045,#458);
#278=LINE('',#2047,#459);
#279=LINE('',#2048,#460);
#280=LINE('',#2050,#461);
#281=LINE('',#2051,#462);
#282=LINE('',#2057,#463);
#283=LINE('',#2059,#464);
#284=LINE('',#2061,#465);
#285=LINE('',#2062,#466);
#286=LINE('',#2065,#467);
#287=LINE('',#2067,#468);
#288=LINE('',#2068,#469);
#289=LINE('',#2071,#470);
#290=LINE('',#2073,#471);
#291=LINE('',#2074,#472);
#292=LINE('',#2076,#473);
#293=LINE('',#2077,#474);
#294=LINE('',#2083,#475);
#295=LINE('',#2085,#476);
#296=LINE('',#2087,#477);
#297=LINE('',#2088,#478);
#298=LINE('',#2091,#479);
#299=LINE('',#2093,#480);
#300=LINE('',#2094,#481);
#301=LINE('',#2097,#482);
#302=LINE('',#2099,#483);
#303=LINE('',#2100,#484);
#304=LINE('',#2102,#485);
#305=LINE('',#2103,#486);
#306=LINE('',#2109,#487);
#307=LINE('',#2111,#488);
#308=LINE('',#2113,#489);
#309=LINE('',#2114,#490);
#310=LINE('',#2117,#491);
#311=LINE('',#2119,#492);
#312=LINE('',#2120,#493);
#313=LINE('',#2123,#494);
#314=LINE('',#2125,#495);
#315=LINE('',#2126,#496);
#316=LINE('',#2128,#497);
#317=LINE('',#2129,#498);
#318=LINE('',#2135,#499);
#319=LINE('',#2137,#500);
#320=LINE('',#2139,#501);
#321=LINE('',#2140,#502);
#322=LINE('',#2143,#503);
#323=LINE('',#2145,#504);
#324=LINE('',#2146,#505);
#325=LINE('',#2149,#506);
#326=LINE('',#2151,#507);
#327=LINE('',#2152,#508);
#328=LINE('',#2154,#509);
#329=LINE('',#2155,#510);
#330=LINE('',#2161,#511);
#331=LINE('',#2163,#512);
#332=LINE('',#2165,#513);
#333=LINE('',#2166,#514);
#334=LINE('',#2169,#515);
#335=LINE('',#2171,#516);
#336=LINE('',#2172,#517);
#337=LINE('',#2175,#518);
#338=LINE('',#2177,#519);
#339=LINE('',#2178,#520);
#340=LINE('',#2180,#521);
#341=LINE('',#2181,#522);
#342=LINE('',#2187,#523);
#343=LINE('',#2189,#524);
#344=LINE('',#2191,#525);
#345=LINE('',#2192,#526);
#346=LINE('',#2195,#527);
#347=LINE('',#2197,#528);
#348=LINE('',#2198,#529);
#349=LINE('',#2201,#530);
#350=LINE('',#2203,#531);
#351=LINE('',#2204,#532);
#352=LINE('',#2206,#533);
#353=LINE('',#2207,#534);
#354=LINE('',#2213,#535);
#355=LINE('',#2215,#536);
#356=LINE('',#2217,#537);
#357=LINE('',#2218,#538);
#358=LINE('',#2221,#539);
#359=LINE('',#2223,#540);
#360=LINE('',#2224,#541);
#361=LINE('',#2227,#542);
#362=LINE('',#2229,#543);
#363=LINE('',#2230,#544);
#364=LINE('',#2232,#545);
#365=LINE('',#2233,#546);
#366=LINE('',#2239,#547);
#367=LINE('',#2241,#548);
#368=LINE('',#2243,#549);
#369=LINE('',#2244,#550);
#370=LINE('',#2247,#551);
#371=LINE('',#2249,#552);
#372=LINE('',#2250,#553);
#373=LINE('',#2253,#554);
#374=LINE('',#2255,#555);
#375=LINE('',#2256,#556);
#376=LINE('',#2258,#557);
#377=LINE('',#2259,#558);
#378=LINE('',#2265,#559);
#379=LINE('',#2267,#560);
#380=LINE('',#2269,#561);
#381=LINE('',#2270,#562);
#382=LINE('',#2273,#563);
#383=LINE('',#2275,#564);
#384=LINE('',#2276,#565);
#385=LINE('',#2279,#566);
#386=LINE('',#2281,#567);
#387=LINE('',#2282,#568);
#388=LINE('',#2284,#569);
#389=LINE('',#2285,#570);
#390=LINE('',#2291,#571);
#391=LINE('',#2293,#572);
#392=LINE('',#2295,#573);
#393=LINE('',#2296,#574);
#394=LINE('',#2299,#575);
#395=LINE('',#2301,#576);
#396=LINE('',#2302,#577);
#397=LINE('',#2305,#578);
#398=LINE('',#2307,#579);
#399=LINE('',#2308,#580);
#400=LINE('',#2310,#581);
#401=LINE('',#2311,#582);
#402=LINE('',#2317,#583);
#403=LINE('',#2319,#584);
#404=LINE('',#2321,#585);
#405=LINE('',#2322,#586);
#406=LINE('',#2325,#587);
#407=LINE('',#2327,#588);
#408=LINE('',#2328,#589);
#409=LINE('',#2331,#590);
#410=LINE('',#2333,#591);
#411=LINE('',#2334,#592);
#412=LINE('',#2336,#593);
#413=LINE('',#2337,#594);
#414=LINE('',#2344,#595);
#415=VECTOR('',#1580,10.);
#416=VECTOR('',#1581,10.);
#417=VECTOR('',#1582,10.);
#418=VECTOR('',#1583,10.);
#419=VECTOR('',#1586,10.);
#420=VECTOR('',#1587,10.);
#421=VECTOR('',#1588,10.);
#422=VECTOR('',#1591,10.);
#423=VECTOR('',#1592,10.);
#424=VECTOR('',#1593,10.);
#425=VECTOR('',#1596,10.);
#426=VECTOR('',#1597,10.);
#427=VECTOR('',#1604,10.);
#428=VECTOR('',#1605,10.);
#429=VECTOR('',#1606,10.);
#430=VECTOR('',#1607,10.);
#431=VECTOR('',#1610,10.);
#432=VECTOR('',#1611,10.);
#433=VECTOR('',#1612,10.);
#434=VECTOR('',#1615,10.);
#435=VECTOR('',#1616,10.);
#436=VECTOR('',#1617,10.);
#437=VECTOR('',#1620,10.);
#438=VECTOR('',#1621,10.);
#439=VECTOR('',#1628,10.);
#440=VECTOR('',#1629,10.);
#441=VECTOR('',#1630,10.);
#442=VECTOR('',#1631,10.);
#443=VECTOR('',#1634,10.);
#444=VECTOR('',#1635,10.);
#445=VECTOR('',#1636,10.);
#446=VECTOR('',#1639,10.);
#447=VECTOR('',#1640,10.);
#448=VECTOR('',#1641,10.);
#449=VECTOR('',#1644,10.);
#450=VECTOR('',#1645,10.);
#451=VECTOR('',#1652,10.);
#452=VECTOR('',#1653,10.);
#453=VECTOR('',#1654,10.);
#454=VECTOR('',#1655,10.);
#455=VECTOR('',#1658,10.);
#456=VECTOR('',#1659,10.);
#457=VECTOR('',#1660,10.);
#458=VECTOR('',#1663,10.);
#459=VECTOR('',#1664,10.);
#460=VECTOR('',#1665,10.);
#461=VECTOR('',#1668,10.);
#462=VECTOR('',#1669,10.);
#463=VECTOR('',#1676,10.);
#464=VECTOR('',#1677,10.);
#465=VECTOR('',#1678,10.);
#466=VECTOR('',#1679,10.);
#467=VECTOR('',#1682,10.);
#468=VECTOR('',#1683,10.);
#469=VECTOR('',#1684,10.);
#470=VECTOR('',#1687,10.);
#471=VECTOR('',#1688,10.);
#472=VECTOR('',#1689,10.);
#473=VECTOR('',#1692,10.);
#474=VECTOR('',#1693,10.);
#475=VECTOR('',#1700,10.);
#476=VECTOR('',#1701,10.);
#477=VECTOR('',#1702,10.);
#478=VECTOR('',#1703,10.);
#479=VECTOR('',#1706,10.);
#480=VECTOR('',#1707,10.);
#481=VECTOR('',#1708,10.);
#482=VECTOR('',#1711,10.);
#483=VECTOR('',#1712,10.);
#484=VECTOR('',#1713,10.);
#485=VECTOR('',#1716,10.);
#486=VECTOR('',#1717,10.);
#487=VECTOR('',#1724,10.);
#488=VECTOR('',#1725,10.);
#489=VECTOR('',#1726,10.);
#490=VECTOR('',#1727,10.);
#491=VECTOR('',#1730,10.);
#492=VECTOR('',#1731,10.);
#493=VECTOR('',#1732,10.);
#494=VECTOR('',#1735,10.);
#495=VECTOR('',#1736,10.);
#496=VECTOR('',#1737,10.);
#497=VECTOR('',#1740,10.);
#498=VECTOR('',#1741,10.);
#499=VECTOR('',#1748,10.);
#500=VECTOR('',#1749,10.);
#501=VECTOR('',#1750,10.);
#502=VECTOR('',#1751,10.);
#503=VECTOR('',#1754,10.);
#504=VECTOR('',#1755,10.);
#505=VECTOR('',#1756,10.);
#506=VECTOR('',#1759,10.);
#507=VECTOR('',#1760,10.);
#508=VECTOR('',#1761,10.);
#509=VECTOR('',#1764,10.);
#510=VECTOR('',#1765,10.);
#511=VECTOR('',#1772,10.);
#512=VECTOR('',#1773,10.);
#513=VECTOR('',#1774,10.);
#514=VECTOR('',#1775,10.);
#515=VECTOR('',#1778,10.);
#516=VECTOR('',#1779,10.);
#517=VECTOR('',#1780,10.);
#518=VECTOR('',#1783,10.);
#519=VECTOR('',#1784,10.);
#520=VECTOR('',#1785,10.);
#521=VECTOR('',#1788,10.);
#522=VECTOR('',#1789,10.);
#523=VECTOR('',#1796,10.);
#524=VECTOR('',#1797,10.);
#525=VECTOR('',#1798,10.);
#526=VECTOR('',#1799,10.);
#527=VECTOR('',#1802,10.);
#528=VECTOR('',#1803,10.);
#529=VECTOR('',#1804,10.);
#530=VECTOR('',#1807,10.);
#531=VECTOR('',#1808,10.);
#532=VECTOR('',#1809,10.);
#533=VECTOR('',#1812,10.);
#534=VECTOR('',#1813,10.);
#535=VECTOR('',#1820,10.);
#536=VECTOR('',#1821,10.);
#537=VECTOR('',#1822,10.);
#538=VECTOR('',#1823,10.);
#539=VECTOR('',#1826,10.);
#540=VECTOR('',#1827,10.);
#541=VECTOR('',#1828,10.);
#542=VECTOR('',#1831,10.);
#543=VECTOR('',#1832,10.);
#544=VECTOR('',#1833,10.);
#545=VECTOR('',#1836,10.);
#546=VECTOR('',#1837,10.);
#547=VECTOR('',#1844,10.);
#548=VECTOR('',#1845,10.);
#549=VECTOR('',#1846,10.);
#550=VECTOR('',#1847,10.);
#551=VECTOR('',#1850,10.);
#552=VECTOR('',#1851,10.);
#553=VECTOR('',#1852,10.);
#554=VECTOR('',#1855,10.);
#555=VECTOR('',#1856,10.);
#556=VECTOR('',#1857,10.);
#557=VECTOR('',#1860,10.);
#558=VECTOR('',#1861,10.);
#559=VECTOR('',#1868,10.);
#560=VECTOR('',#1869,10.);
#561=VECTOR('',#1870,10.);
#562=VECTOR('',#1871,10.);
#563=VECTOR('',#1874,10.);
#564=VECTOR('',#1875,10.);
#565=VECTOR('',#1876,10.);
#566=VECTOR('',#1879,10.);
#567=VECTOR('',#1880,10.);
#568=VECTOR('',#1881,10.);
#569=VECTOR('',#1884,10.);
#570=VECTOR('',#1885,10.);
#571=VECTOR('',#1892,10.);
#572=VECTOR('',#1893,10.);
#573=VECTOR('',#1894,10.);
#574=VECTOR('',#1895,10.);
#575=VECTOR('',#1898,10.);
#576=VECTOR('',#1899,10.);
#577=VECTOR('',#1900,10.);
#578=VECTOR('',#1903,10.);
#579=VECTOR('',#1904,10.);
#580=VECTOR('',#1905,10.);
#581=VECTOR('',#1908,10.);
#582=VECTOR('',#1909,10.);
#583=VECTOR('',#1916,10.);
#584=VECTOR('',#1917,10.);
#585=VECTOR('',#1918,10.);
#586=VECTOR('',#1919,10.);
#587=VECTOR('',#1922,10.);
#588=VECTOR('',#1923,10.);
#589=VECTOR('',#1924,10.);
#590=VECTOR('',#1927,10.);
#591=VECTOR('',#1928,10.);
#592=VECTOR('',#1929,10.);
#593=VECTOR('',#1932,10.);
#594=VECTOR('',#1933,10.);
#595=VECTOR('',#1942,10.);
#596=VERTEX_POINT('',#1951);
#597=VERTEX_POINT('',#1952);
#598=VERTEX_POINT('',#1954);
#599=VERTEX_POINT('',#1956);
#600=VERTEX_POINT('',#1960);
#601=VERTEX_POINT('',#1962);
#602=VERTEX_POINT('',#1966);
#603=VERTEX_POINT('',#1968);
#604=VERTEX_POINT('',#1977);
#605=VERTEX_POINT('',#1978);
#606=VERTEX_POINT('',#1980);
#607=VERTEX_POINT('',#1982);
#608=VERTEX_POINT('',#1986);
#609=VERTEX_POINT('',#1988);
#610=VERTEX_POINT('',#1992);
#611=VERTEX_POINT('',#1994);
#612=VERTEX_POINT('',#2003);
#613=VERTEX_POINT('',#2004);
#614=VERTEX_POINT('',#2006);
#615=VERTEX_POINT('',#2008);
#616=VERTEX_POINT('',#2012);
#617=VERTEX_POINT('',#2014);
#618=VERTEX_POINT('',#2018);
#619=VERTEX_POINT('',#2020);
#620=VERTEX_POINT('',#2029);
#621=VERTEX_POINT('',#2030);
#622=VERTEX_POINT('',#2032);
#623=VERTEX_POINT('',#2034);
#624=VERTEX_POINT('',#2038);
#625=VERTEX_POINT('',#2040);
#626=VERTEX_POINT('',#2044);
#627=VERTEX_POINT('',#2046);
#628=VERTEX_POINT('',#2055);
#629=VERTEX_POINT('',#2056);
#630=VERTEX_POINT('',#2058);
#631=VERTEX_POINT('',#2060);
#632=VERTEX_POINT('',#2064);
#633=VERTEX_POINT('',#2066);
#634=VERTEX_POINT('',#2070);
#635=VERTEX_POINT('',#2072);
#636=VERTEX_POINT('',#2081);
#637=VERTEX_POINT('',#2082);
#638=VERTEX_POINT('',#2084);
#639=VERTEX_POINT('',#2086);
#640=VERTEX_POINT('',#2090);
#641=VERTEX_POINT('',#2092);
#642=VERTEX_POINT('',#2096);
#643=VERTEX_POINT('',#2098);
#644=VERTEX_POINT('',#2107);
#645=VERTEX_POINT('',#2108);
#646=VERTEX_POINT('',#2110);
#647=VERTEX_POINT('',#2112);
#648=VERTEX_POINT('',#2116);
#649=VERTEX_POINT('',#2118);
#650=VERTEX_POINT('',#2122);
#651=VERTEX_POINT('',#2124);
#652=VERTEX_POINT('',#2133);
#653=VERTEX_POINT('',#2134);
#654=VERTEX_POINT('',#2136);
#655=VERTEX_POINT('',#2138);
#656=VERTEX_POINT('',#2142);
#657=VERTEX_POINT('',#2144);
#658=VERTEX_POINT('',#2148);
#659=VERTEX_POINT('',#2150);
#660=VERTEX_POINT('',#2159);
#661=VERTEX_POINT('',#2160);
#662=VERTEX_POINT('',#2162);
#663=VERTEX_POINT('',#2164);
#664=VERTEX_POINT('',#2168);
#665=VERTEX_POINT('',#2170);
#666=VERTEX_POINT('',#2174);
#667=VERTEX_POINT('',#2176);
#668=VERTEX_POINT('',#2185);
#669=VERTEX_POINT('',#2186);
#670=VERTEX_POINT('',#2188);
#671=VERTEX_POINT('',#2190);
#672=VERTEX_POINT('',#2194);
#673=VERTEX_POINT('',#2196);
#674=VERTEX_POINT('',#2200);
#675=VERTEX_POINT('',#2202);
#676=VERTEX_POINT('',#2211);
#677=VERTEX_POINT('',#2212);
#678=VERTEX_POINT('',#2214);
#679=VERTEX_POINT('',#2216);
#680=VERTEX_POINT('',#2220);
#681=VERTEX_POINT('',#2222);
#682=VERTEX_POINT('',#2226);
#683=VERTEX_POINT('',#2228);
#684=VERTEX_POINT('',#2237);
#685=VERTEX_POINT('',#2238);
#686=VERTEX_POINT('',#2240);
#687=VERTEX_POINT('',#2242);
#688=VERTEX_POINT('',#2246);
#689=VERTEX_POINT('',#2248);
#690=VERTEX_POINT('',#2252);
#691=VERTEX_POINT('',#2254);
#692=VERTEX_POINT('',#2263);
#693=VERTEX_POINT('',#2264);
#694=VERTEX_POINT('',#2266);
#695=VERTEX_POINT('',#2268);
#696=VERTEX_POINT('',#2272);
#697=VERTEX_POINT('',#2274);
#698=VERTEX_POINT('',#2278);
#699=VERTEX_POINT('',#2280);
#700=VERTEX_POINT('',#2289);
#701=VERTEX_POINT('',#2290);
#702=VERTEX_POINT('',#2292);
#703=VERTEX_POINT('',#2294);
#704=VERTEX_POINT('',#2298);
#705=VERTEX_POINT('',#2300);
#706=VERTEX_POINT('',#2304);
#707=VERTEX_POINT('',#2306);
#708=VERTEX_POINT('',#2315);
#709=VERTEX_POINT('',#2316);
#710=VERTEX_POINT('',#2318);
#711=VERTEX_POINT('',#2320);
#712=VERTEX_POINT('',#2324);
#713=VERTEX_POINT('',#2326);
#714=VERTEX_POINT('',#2330);
#715=VERTEX_POINT('',#2332);
#716=VERTEX_POINT('',#2341);
#717=VERTEX_POINT('',#2343);
#718=EDGE_CURVE('',#596,#597,#234,.T.);
#719=EDGE_CURVE('',#597,#598,#235,.T.);
#720=EDGE_CURVE('',#599,#598,#236,.T.);
#721=EDGE_CURVE('',#596,#599,#237,.T.);
#722=EDGE_CURVE('',#600,#596,#238,.T.);
#723=EDGE_CURVE('',#601,#599,#239,.T.);
#724=EDGE_CURVE('',#600,#601,#240,.T.);
#725=EDGE_CURVE('',#602,#600,#241,.T.);
#726=EDGE_CURVE('',#603,#601,#242,.T.);
#727=EDGE_CURVE('',#602,#603,#243,.T.);
#728=EDGE_CURVE('',#597,#602,#244,.T.);
#729=EDGE_CURVE('',#598,#603,#245,.T.);
#730=EDGE_CURVE('',#604,#605,#246,.T.);
#731=EDGE_CURVE('',#605,#606,#247,.T.);
#732=EDGE_CURVE('',#607,#606,#248,.T.);
#733=EDGE_CURVE('',#604,#607,#249,.T.);
#734=EDGE_CURVE('',#608,#604,#250,.T.);
#735=EDGE_CURVE('',#609,#607,#251,.T.);
#736=EDGE_CURVE('',#608,#609,#252,.T.);
#737=EDGE_CURVE('',#610,#608,#253,.T.);
#738=EDGE_CURVE('',#611,#609,#254,.T.);
#739=EDGE_CURVE('',#610,#611,#255,.T.);
#740=EDGE_CURVE('',#605,#610,#256,.T.);
#741=EDGE_CURVE('',#606,#611,#257,.T.);
#742=EDGE_CURVE('',#612,#613,#258,.T.);
#743=EDGE_CURVE('',#613,#614,#259,.T.);
#744=EDGE_CURVE('',#615,#614,#260,.T.);
#745=EDGE_CURVE('',#612,#615,#261,.T.);
#746=EDGE_CURVE('',#616,#612,#262,.T.);
#747=EDGE_CURVE('',#617,#615,#263,.T.);
#748=EDGE_CURVE('',#616,#617,#264,.T.);
#749=EDGE_CURVE('',#618,#616,#265,.T.);
#750=EDGE_CURVE('',#619,#617,#266,.T.);
#751=EDGE_CURVE('',#618,#619,#267,.T.);
#752=EDGE_CURVE('',#613,#618,#268,.T.);
#753=EDGE_CURVE('',#614,#619,#269,.T.);
#754=EDGE_CURVE('',#620,#621,#270,.T.);
#755=EDGE_CURVE('',#621,#622,#271,.T.);
#756=EDGE_CURVE('',#623,#622,#272,.T.);
#757=EDGE_CURVE('',#620,#623,#273,.T.);
#758=EDGE_CURVE('',#624,#620,#274,.T.);
#759=EDGE_CURVE('',#625,#623,#275,.T.);
#760=EDGE_CURVE('',#624,#625,#276,.T.);
#761=EDGE_CURVE('',#626,#624,#277,.T.);
#762=EDGE_CURVE('',#627,#625,#278,.T.);
#763=EDGE_CURVE('',#626,#627,#279,.T.);
#764=EDGE_CURVE('',#621,#626,#280,.T.);
#765=EDGE_CURVE('',#622,#627,#281,.T.);
#766=EDGE_CURVE('',#628,#629,#282,.T.);
#767=EDGE_CURVE('',#629,#630,#283,.T.);
#768=EDGE_CURVE('',#631,#630,#284,.T.);
#769=EDGE_CURVE('',#628,#631,#285,.T.);
#770=EDGE_CURVE('',#632,#628,#286,.T.);
#771=EDGE_CURVE('',#633,#631,#287,.T.);
#772=EDGE_CURVE('',#632,#633,#288,.T.);
#773=EDGE_CURVE('',#634,#632,#289,.T.);
#774=EDGE_CURVE('',#635,#633,#290,.T.);
#775=EDGE_CURVE('',#634,#635,#291,.T.);
#776=EDGE_CURVE('',#629,#634,#292,.T.);
#777=EDGE_CURVE('',#630,#635,#293,.T.);
#778=EDGE_CURVE('',#636,#637,#294,.T.);
#779=EDGE_CURVE('',#637,#638,#295,.T.);
#780=EDGE_CURVE('',#639,#638,#296,.T.);
#781=EDGE_CURVE('',#636,#639,#297,.T.);
#782=EDGE_CURVE('',#640,#636,#298,.T.);
#783=EDGE_CURVE('',#641,#639,#299,.T.);
#784=EDGE_CURVE('',#640,#641,#300,.T.);
#785=EDGE_CURVE('',#642,#640,#301,.T.);
#786=EDGE_CURVE('',#643,#641,#302,.T.);
#787=EDGE_CURVE('',#642,#643,#303,.T.);
#788=EDGE_CURVE('',#637,#642,#304,.T.);
#789=EDGE_CURVE('',#638,#643,#305,.T.);
#790=EDGE_CURVE('',#644,#645,#306,.T.);
#791=EDGE_CURVE('',#645,#646,#307,.T.);
#792=EDGE_CURVE('',#647,#646,#308,.T.);
#793=EDGE_CURVE('',#644,#647,#309,.T.);
#794=EDGE_CURVE('',#648,#644,#310,.T.);
#795=EDGE_CURVE('',#649,#647,#311,.T.);
#796=EDGE_CURVE('',#648,#649,#312,.T.);
#797=EDGE_CURVE('',#650,#648,#313,.T.);
#798=EDGE_CURVE('',#651,#649,#314,.T.);
#799=EDGE_CURVE('',#650,#651,#315,.T.);
#800=EDGE_CURVE('',#645,#650,#316,.T.);
#801=EDGE_CURVE('',#646,#651,#317,.T.);
#802=EDGE_CURVE('',#652,#653,#318,.T.);
#803=EDGE_CURVE('',#653,#654,#319,.T.);
#804=EDGE_CURVE('',#655,#654,#320,.T.);
#805=EDGE_CURVE('',#652,#655,#321,.T.);
#806=EDGE_CURVE('',#656,#652,#322,.T.);
#807=EDGE_CURVE('',#657,#655,#323,.T.);
#808=EDGE_CURVE('',#656,#657,#324,.T.);
#809=EDGE_CURVE('',#658,#656,#325,.T.);
#810=EDGE_CURVE('',#659,#657,#326,.T.);
#811=EDGE_CURVE('',#658,#659,#327,.T.);
#812=EDGE_CURVE('',#653,#658,#328,.T.);
#813=EDGE_CURVE('',#654,#659,#329,.T.);
#814=EDGE_CURVE('',#660,#661,#330,.T.);
#815=EDGE_CURVE('',#661,#662,#331,.T.);
#816=EDGE_CURVE('',#663,#662,#332,.T.);
#817=EDGE_CURVE('',#660,#663,#333,.T.);
#818=EDGE_CURVE('',#664,#660,#334,.T.);
#819=EDGE_CURVE('',#665,#663,#335,.T.);
#820=EDGE_CURVE('',#664,#665,#336,.T.);
#821=EDGE_CURVE('',#666,#664,#337,.T.);
#822=EDGE_CURVE('',#667,#665,#338,.T.);
#823=EDGE_CURVE('',#666,#667,#339,.T.);
#824=EDGE_CURVE('',#661,#666,#340,.T.);
#825=EDGE_CURVE('',#662,#667,#341,.T.);
#826=EDGE_CURVE('',#668,#669,#342,.T.);
#827=EDGE_CURVE('',#669,#670,#343,.T.);
#828=EDGE_CURVE('',#671,#670,#344,.T.);
#829=EDGE_CURVE('',#668,#671,#345,.T.);
#830=EDGE_CURVE('',#672,#668,#346,.T.);
#831=EDGE_CURVE('',#673,#671,#347,.T.);
#832=EDGE_CURVE('',#672,#673,#348,.T.);
#833=EDGE_CURVE('',#674,#672,#349,.T.);
#834=EDGE_CURVE('',#675,#673,#350,.T.);
#835=EDGE_CURVE('',#674,#675,#351,.T.);
#836=EDGE_CURVE('',#669,#674,#352,.T.);
#837=EDGE_CURVE('',#670,#675,#353,.T.);
#838=EDGE_CURVE('',#676,#677,#354,.T.);
#839=EDGE_CURVE('',#677,#678,#355,.T.);
#840=EDGE_CURVE('',#679,#678,#356,.T.);
#841=EDGE_CURVE('',#676,#679,#357,.T.);
#842=EDGE_CURVE('',#680,#676,#358,.T.);
#843=EDGE_CURVE('',#681,#679,#359,.T.);
#844=EDGE_CURVE('',#680,#681,#360,.T.);
#845=EDGE_CURVE('',#682,#680,#361,.T.);
#846=EDGE_CURVE('',#683,#681,#362,.T.);
#847=EDGE_CURVE('',#682,#683,#363,.T.);
#848=EDGE_CURVE('',#677,#682,#364,.T.);
#849=EDGE_CURVE('',#678,#683,#365,.T.);
#850=EDGE_CURVE('',#684,#685,#366,.T.);
#851=EDGE_CURVE('',#685,#686,#367,.T.);
#852=EDGE_CURVE('',#687,#686,#368,.T.);
#853=EDGE_CURVE('',#684,#687,#369,.T.);
#854=EDGE_CURVE('',#688,#684,#370,.T.);
#855=EDGE_CURVE('',#689,#687,#371,.T.);
#856=EDGE_CURVE('',#688,#689,#372,.T.);
#857=EDGE_CURVE('',#690,#688,#373,.T.);
#858=EDGE_CURVE('',#691,#689,#374,.T.);
#859=EDGE_CURVE('',#690,#691,#375,.T.);
#860=EDGE_CURVE('',#685,#690,#376,.T.);
#861=EDGE_CURVE('',#686,#691,#377,.T.);
#862=EDGE_CURVE('',#692,#693,#378,.T.);
#863=EDGE_CURVE('',#693,#694,#379,.T.);
#864=EDGE_CURVE('',#695,#694,#380,.T.);
#865=EDGE_CURVE('',#692,#695,#381,.T.);
#866=EDGE_CURVE('',#696,#692,#382,.T.);
#867=EDGE_CURVE('',#697,#695,#383,.T.);
#868=EDGE_CURVE('',#696,#697,#384,.T.);
#869=EDGE_CURVE('',#698,#696,#385,.T.);
#870=EDGE_CURVE('',#699,#697,#386,.T.);
#871=EDGE_CURVE('',#698,#699,#387,.T.);
#872=EDGE_CURVE('',#693,#698,#388,.T.);
#873=EDGE_CURVE('',#694,#699,#389,.T.);
#874=EDGE_CURVE('',#700,#701,#390,.T.);
#875=EDGE_CURVE('',#701,#702,#391,.T.);
#876=EDGE_CURVE('',#703,#702,#392,.T.);
#877=EDGE_CURVE('',#700,#703,#393,.T.);
#878=EDGE_CURVE('',#704,#700,#394,.T.);
#879=EDGE_CURVE('',#705,#703,#395,.T.);
#880=EDGE_CURVE('',#704,#705,#396,.T.);
#881=EDGE_CURVE('',#706,#704,#397,.T.);
#882=EDGE_CURVE('',#707,#705,#398,.T.);
#883=EDGE_CURVE('',#706,#707,#399,.T.);
#884=EDGE_CURVE('',#701,#706,#400,.T.);
#885=EDGE_CURVE('',#702,#707,#401,.T.);
#886=EDGE_CURVE('',#708,#709,#402,.T.);
#887=EDGE_CURVE('',#709,#710,#403,.T.);
#888=EDGE_CURVE('',#711,#710,#404,.T.);
#889=EDGE_CURVE('',#708,#711,#405,.T.);
#890=EDGE_CURVE('',#712,#708,#406,.T.);
#891=EDGE_CURVE('',#713,#711,#407,.T.);
#892=EDGE_CURVE('',#712,#713,#408,.T.);
#893=EDGE_CURVE('',#714,#712,#409,.T.);
#894=EDGE_CURVE('',#715,#713,#410,.T.);
#895=EDGE_CURVE('',#714,#715,#411,.T.);
#896=EDGE_CURVE('',#709,#714,#412,.T.);
#897=EDGE_CURVE('',#710,#715,#413,.T.);
#898=EDGE_CURVE('',#716,#716,#13,.T.);
#899=EDGE_CURVE('',#716,#717,#414,.T.);
#900=EDGE_CURVE('',#717,#717,#14,.T.);
#901=ORIENTED_EDGE('',*,*,#718,.T.);
#902=ORIENTED_EDGE('',*,*,#719,.T.);
#903=ORIENTED_EDGE('',*,*,#720,.F.);
#904=ORIENTED_EDGE('',*,*,#721,.F.);
#905=ORIENTED_EDGE('',*,*,#722,.T.);
#906=ORIENTED_EDGE('',*,*,#721,.T.);
#907=ORIENTED_EDGE('',*,*,#723,.F.);
#908=ORIENTED_EDGE('',*,*,#724,.F.);
#909=ORIENTED_EDGE('',*,*,#725,.T.);
#910=ORIENTED_EDGE('',*,*,#724,.T.);
#911=ORIENTED_EDGE('',*,*,#726,.F.);
#912=ORIENTED_EDGE('',*,*,#727,.F.);
#913=ORIENTED_EDGE('',*,*,#728,.T.);
#914=ORIENTED_EDGE('',*,*,#727,.T.);
#915=ORIENTED_EDGE('',*,*,#729,.F.);
#916=ORIENTED_EDGE('',*,*,#719,.F.);
#917=ORIENTED_EDGE('',*,*,#729,.T.);
#918=ORIENTED_EDGE('',*,*,#726,.T.);
#919=ORIENTED_EDGE('',*,*,#723,.T.);
#920=ORIENTED_EDGE('',*,*,#720,.T.);
#921=ORIENTED_EDGE('',*,*,#728,.F.);
#922=ORIENTED_EDGE('',*,*,#718,.F.);
#923=ORIENTED_EDGE('',*,*,#722,.F.);
#924=ORIENTED_EDGE('',*,*,#725,.F.);
#925=ORIENTED_EDGE('',*,*,#730,.T.);
#926=ORIENTED_EDGE('',*,*,#731,.T.);
#927=ORIENTED_EDGE('',*,*,#732,.F.);
#928=ORIENTED_EDGE('',*,*,#733,.F.);
#929=ORIENTED_EDGE('',*,*,#734,.T.);
#930=ORIENTED_EDGE('',*,*,#733,.T.);
#931=ORIENTED_EDGE('',*,*,#735,.F.);
#932=ORIENTED_EDGE('',*,*,#736,.F.);
#933=ORIENTED_EDGE('',*,*,#737,.T.);
#934=ORIENTED_EDGE('',*,*,#736,.T.);
#935=ORIENTED_EDGE('',*,*,#738,.F.);
#936=ORIENTED_EDGE('',*,*,#739,.F.);
#937=ORIENTED_EDGE('',*,*,#740,.T.);
#938=ORIENTED_EDGE('',*,*,#739,.T.);
#939=ORIENTED_EDGE('',*,*,#741,.F.);
#940=ORIENTED_EDGE('',*,*,#731,.F.);
#941=ORIENTED_EDGE('',*,*,#741,.T.);
#942=ORIENTED_EDGE('',*,*,#738,.T.);
#943=ORIENTED_EDGE('',*,*,#735,.T.);
#944=ORIENTED_EDGE('',*,*,#732,.T.);
#945=ORIENTED_EDGE('',*,*,#740,.F.);
#946=ORIENTED_EDGE('',*,*,#730,.F.);
#947=ORIENTED_EDGE('',*,*,#734,.F.);
#948=ORIENTED_EDGE('',*,*,#737,.F.);
#949=ORIENTED_EDGE('',*,*,#742,.T.);
#950=ORIENTED_EDGE('',*,*,#743,.T.);
#951=ORIENTED_EDGE('',*,*,#744,.F.);
#952=ORIENTED_EDGE('',*,*,#745,.F.);
#953=ORIENTED_EDGE('',*,*,#746,.T.);
#954=ORIENTED_EDGE('',*,*,#745,.T.);
#955=ORIENTED_EDGE('',*,*,#747,.F.);
#956=ORIENTED_EDGE('',*,*,#748,.F.);
#957=ORIENTED_EDGE('',*,*,#749,.T.);
#958=ORIENTED_EDGE('',*,*,#748,.T.);
#959=ORIENTED_EDGE('',*,*,#750,.F.);
#960=ORIENTED_EDGE('',*,*,#751,.F.);
#961=ORIENTED_EDGE('',*,*,#752,.T.);
#962=ORIENTED_EDGE('',*,*,#751,.T.);
#963=ORIENTED_EDGE('',*,*,#753,.F.);
#964=ORIENTED_EDGE('',*,*,#743,.F.);
#965=ORIENTED_EDGE('',*,*,#753,.T.);
#966=ORIENTED_EDGE('',*,*,#750,.T.);
#967=ORIENTED_EDGE('',*,*,#747,.T.);
#968=ORIENTED_EDGE('',*,*,#744,.T.);
#969=ORIENTED_EDGE('',*,*,#752,.F.);
#970=ORIENTED_EDGE('',*,*,#742,.F.);
#971=ORIENTED_EDGE('',*,*,#746,.F.);
#972=ORIENTED_EDGE('',*,*,#749,.F.);
#973=ORIENTED_EDGE('',*,*,#754,.T.);
#974=ORIENTED_EDGE('',*,*,#755,.T.);
#975=ORIENTED_EDGE('',*,*,#756,.F.);
#976=ORIENTED_EDGE('',*,*,#757,.F.);
#977=ORIENTED_EDGE('',*,*,#758,.T.);
#978=ORIENTED_EDGE('',*,*,#757,.T.);
#979=ORIENTED_EDGE('',*,*,#759,.F.);
#980=ORIENTED_EDGE('',*,*,#760,.F.);
#981=ORIENTED_EDGE('',*,*,#761,.T.);
#982=ORIENTED_EDGE('',*,*,#760,.T.);
#983=ORIENTED_EDGE('',*,*,#762,.F.);
#984=ORIENTED_EDGE('',*,*,#763,.F.);
#985=ORIENTED_EDGE('',*,*,#764,.T.);
#986=ORIENTED_EDGE('',*,*,#763,.T.);
#987=ORIENTED_EDGE('',*,*,#765,.F.);
#988=ORIENTED_EDGE('',*,*,#755,.F.);
#989=ORIENTED_EDGE('',*,*,#765,.T.);
#990=ORIENTED_EDGE('',*,*,#762,.T.);
#991=ORIENTED_EDGE('',*,*,#759,.T.);
#992=ORIENTED_EDGE('',*,*,#756,.T.);
#993=ORIENTED_EDGE('',*,*,#764,.F.);
#994=ORIENTED_EDGE('',*,*,#754,.F.);
#995=ORIENTED_EDGE('',*,*,#758,.F.);
#996=ORIENTED_EDGE('',*,*,#761,.F.);
#997=ORIENTED_EDGE('',*,*,#766,.T.);
#998=ORIENTED_EDGE('',*,*,#767,.T.);
#999=ORIENTED_EDGE('',*,*,#768,.F.);
#1000=ORIENTED_EDGE('',*,*,#769,.F.);
#1001=ORIENTED_EDGE('',*,*,#770,.T.);
#1002=ORIENTED_EDGE('',*,*,#769,.T.);
#1003=ORIENTED_EDGE('',*,*,#771,.F.);
#1004=ORIENTED_EDGE('',*,*,#772,.F.);
#1005=ORIENTED_EDGE('',*,*,#773,.T.);
#1006=ORIENTED_EDGE('',*,*,#772,.T.);
#1007=ORIENTED_EDGE('',*,*,#774,.F.);
#1008=ORIENTED_EDGE('',*,*,#775,.F.);
#1009=ORIENTED_EDGE('',*,*,#776,.T.);
#1010=ORIENTED_EDGE('',*,*,#775,.T.);
#1011=ORIENTED_EDGE('',*,*,#777,.F.);
#1012=ORIENTED_EDGE('',*,*,#767,.F.);
#1013=ORIENTED_EDGE('',*,*,#777,.T.);
#1014=ORIENTED_EDGE('',*,*,#774,.T.);
#1015=ORIENTED_EDGE('',*,*,#771,.T.);
#1016=ORIENTED_EDGE('',*,*,#768,.T.);
#1017=ORIENTED_EDGE('',*,*,#776,.F.);
#1018=ORIENTED_EDGE('',*,*,#766,.F.);
#1019=ORIENTED_EDGE('',*,*,#770,.F.);
#1020=ORIENTED_EDGE('',*,*,#773,.F.);
#1021=ORIENTED_EDGE('',*,*,#778,.T.);
#1022=ORIENTED_EDGE('',*,*,#779,.T.);
#1023=ORIENTED_EDGE('',*,*,#780,.F.);
#1024=ORIENTED_EDGE('',*,*,#781,.F.);
#1025=ORIENTED_EDGE('',*,*,#782,.T.);
#1026=ORIENTED_EDGE('',*,*,#781,.T.);
#1027=ORIENTED_EDGE('',*,*,#783,.F.);
#1028=ORIENTED_EDGE('',*,*,#784,.F.);
#1029=ORIENTED_EDGE('',*,*,#785,.T.);
#1030=ORIENTED_EDGE('',*,*,#784,.T.);
#1031=ORIENTED_EDGE('',*,*,#786,.F.);
#1032=ORIENTED_EDGE('',*,*,#787,.F.);
#1033=ORIENTED_EDGE('',*,*,#788,.T.);
#1034=ORIENTED_EDGE('',*,*,#787,.T.);
#1035=ORIENTED_EDGE('',*,*,#789,.F.);
#1036=ORIENTED_EDGE('',*,*,#779,.F.);
#1037=ORIENTED_EDGE('',*,*,#789,.T.);
#1038=ORIENTED_EDGE('',*,*,#786,.T.);
#1039=ORIENTED_EDGE('',*,*,#783,.T.);
#1040=ORIENTED_EDGE('',*,*,#780,.T.);
#1041=ORIENTED_EDGE('',*,*,#788,.F.);
#1042=ORIENTED_EDGE('',*,*,#778,.F.);
#1043=ORIENTED_EDGE('',*,*,#782,.F.);
#1044=ORIENTED_EDGE('',*,*,#785,.F.);
#1045=ORIENTED_EDGE('',*,*,#790,.T.);
#1046=ORIENTED_EDGE('',*,*,#791,.T.);
#1047=ORIENTED_EDGE('',*,*,#792,.F.);
#1048=ORIENTED_EDGE('',*,*,#793,.F.);
#1049=ORIENTED_EDGE('',*,*,#794,.T.);
#1050=ORIENTED_EDGE('',*,*,#793,.T.);
#1051=ORIENTED_EDGE('',*,*,#795,.F.);
#1052=ORIENTED_EDGE('',*,*,#796,.F.);
#1053=ORIENTED_EDGE('',*,*,#797,.T.);
#1054=ORIENTED_EDGE('',*,*,#796,.T.);
#1055=ORIENTED_EDGE('',*,*,#798,.F.);
#1056=ORIENTED_EDGE('',*,*,#799,.F.);
#1057=ORIENTED_EDGE('',*,*,#800,.T.);
#1058=ORIENTED_EDGE('',*,*,#799,.T.);
#1059=ORIENTED_EDGE('',*,*,#801,.F.);
#1060=ORIENTED_EDGE('',*,*,#791,.F.);
#1061=ORIENTED_EDGE('',*,*,#801,.T.);
#1062=ORIENTED_EDGE('',*,*,#798,.T.);
#1063=ORIENTED_EDGE('',*,*,#795,.T.);
#1064=ORIENTED_EDGE('',*,*,#792,.T.);
#1065=ORIENTED_EDGE('',*,*,#800,.F.);
#1066=ORIENTED_EDGE('',*,*,#790,.F.);
#1067=ORIENTED_EDGE('',*,*,#794,.F.);
#1068=ORIENTED_EDGE('',*,*,#797,.F.);
#1069=ORIENTED_EDGE('',*,*,#802,.T.);
#1070=ORIENTED_EDGE('',*,*,#803,.T.);
#1071=ORIENTED_EDGE('',*,*,#804,.F.);
#1072=ORIENTED_EDGE('',*,*,#805,.F.);
#1073=ORIENTED_EDGE('',*,*,#806,.T.);
#1074=ORIENTED_EDGE('',*,*,#805,.T.);
#1075=ORIENTED_EDGE('',*,*,#807,.F.);
#1076=ORIENTED_EDGE('',*,*,#808,.F.);
#1077=ORIENTED_EDGE('',*,*,#809,.T.);
#1078=ORIENTED_EDGE('',*,*,#808,.T.);
#1079=ORIENTED_EDGE('',*,*,#810,.F.);
#1080=ORIENTED_EDGE('',*,*,#811,.F.);
#1081=ORIENTED_EDGE('',*,*,#812,.T.);
#1082=ORIENTED_EDGE('',*,*,#811,.T.);
#1083=ORIENTED_EDGE('',*,*,#813,.F.);
#1084=ORIENTED_EDGE('',*,*,#803,.F.);
#1085=ORIENTED_EDGE('',*,*,#813,.T.);
#1086=ORIENTED_EDGE('',*,*,#810,.T.);
#1087=ORIENTED_EDGE('',*,*,#807,.T.);
#1088=ORIENTED_EDGE('',*,*,#804,.T.);
#1089=ORIENTED_EDGE('',*,*,#812,.F.);
#1090=ORIENTED_EDGE('',*,*,#802,.F.);
#1091=ORIENTED_EDGE('',*,*,#806,.F.);
#1092=ORIENTED_EDGE('',*,*,#809,.F.);
#1093=ORIENTED_EDGE('',*,*,#814,.T.);
#1094=ORIENTED_EDGE('',*,*,#815,.T.);
#1095=ORIENTED_EDGE('',*,*,#816,.F.);
#1096=ORIENTED_EDGE('',*,*,#817,.F.);
#1097=ORIENTED_EDGE('',*,*,#818,.T.);
#1098=ORIENTED_EDGE('',*,*,#817,.T.);
#1099=ORIENTED_EDGE('',*,*,#819,.F.);
#1100=ORIENTED_EDGE('',*,*,#820,.F.);
#1101=ORIENTED_EDGE('',*,*,#821,.T.);
#1102=ORIENTED_EDGE('',*,*,#820,.T.);
#1103=ORIENTED_EDGE('',*,*,#822,.F.);
#1104=ORIENTED_EDGE('',*,*,#823,.F.);
#1105=ORIENTED_EDGE('',*,*,#824,.T.);
#1106=ORIENTED_EDGE('',*,*,#823,.T.);
#1107=ORIENTED_EDGE('',*,*,#825,.F.);
#1108=ORIENTED_EDGE('',*,*,#815,.F.);
#1109=ORIENTED_EDGE('',*,*,#825,.T.);
#1110=ORIENTED_EDGE('',*,*,#822,.T.);
#1111=ORIENTED_EDGE('',*,*,#819,.T.);
#1112=ORIENTED_EDGE('',*,*,#816,.T.);
#1113=ORIENTED_EDGE('',*,*,#824,.F.);
#1114=ORIENTED_EDGE('',*,*,#814,.F.);
#1115=ORIENTED_EDGE('',*,*,#818,.F.);
#1116=ORIENTED_EDGE('',*,*,#821,.F.);
#1117=ORIENTED_EDGE('',*,*,#826,.T.);
#1118=ORIENTED_EDGE('',*,*,#827,.T.);
#1119=ORIENTED_EDGE('',*,*,#828,.F.);
#1120=ORIENTED_EDGE('',*,*,#829,.F.);
#1121=ORIENTED_EDGE('',*,*,#830,.T.);
#1122=ORIENTED_EDGE('',*,*,#829,.T.);
#1123=ORIENTED_EDGE('',*,*,#831,.F.);
#1124=ORIENTED_EDGE('',*,*,#832,.F.);
#1125=ORIENTED_EDGE('',*,*,#833,.T.);
#1126=ORIENTED_EDGE('',*,*,#832,.T.);
#1127=ORIENTED_EDGE('',*,*,#834,.F.);
#1128=ORIENTED_EDGE('',*,*,#835,.F.);
#1129=ORIENTED_EDGE('',*,*,#836,.T.);
#1130=ORIENTED_EDGE('',*,*,#835,.T.);
#1131=ORIENTED_EDGE('',*,*,#837,.F.);
#1132=ORIENTED_EDGE('',*,*,#827,.F.);
#1133=ORIENTED_EDGE('',*,*,#837,.T.);
#1134=ORIENTED_EDGE('',*,*,#834,.T.);
#1135=ORIENTED_EDGE('',*,*,#831,.T.);
#1136=ORIENTED_EDGE('',*,*,#828,.T.);
#1137=ORIENTED_EDGE('',*,*,#836,.F.);
#1138=ORIENTED_EDGE('',*,*,#826,.F.);
#1139=ORIENTED_EDGE('',*,*,#830,.F.);
#1140=ORIENTED_EDGE('',*,*,#833,.F.);
#1141=ORIENTED_EDGE('',*,*,#838,.T.);
#1142=ORIENTED_EDGE('',*,*,#839,.T.);
#1143=ORIENTED_EDGE('',*,*,#840,.F.);
#1144=ORIENTED_EDGE('',*,*,#841,.F.);
#1145=ORIENTED_EDGE('',*,*,#842,.T.);
#1146=ORIENTED_EDGE('',*,*,#841,.T.);
#1147=ORIENTED_EDGE('',*,*,#843,.F.);
#1148=ORIENTED_EDGE('',*,*,#844,.F.);
#1149=ORIENTED_EDGE('',*,*,#845,.T.);
#1150=ORIENTED_EDGE('',*,*,#844,.T.);
#1151=ORIENTED_EDGE('',*,*,#846,.F.);
#1152=ORIENTED_EDGE('',*,*,#847,.F.);
#1153=ORIENTED_EDGE('',*,*,#848,.T.);
#1154=ORIENTED_EDGE('',*,*,#847,.T.);
#1155=ORIENTED_EDGE('',*,*,#849,.F.);
#1156=ORIENTED_EDGE('',*,*,#839,.F.);
#1157=ORIENTED_EDGE('',*,*,#849,.T.);
#1158=ORIENTED_EDGE('',*,*,#846,.T.);
#1159=ORIENTED_EDGE('',*,*,#843,.T.);
#1160=ORIENTED_EDGE('',*,*,#840,.T.);
#1161=ORIENTED_EDGE('',*,*,#848,.F.);
#1162=ORIENTED_EDGE('',*,*,#838,.F.);
#1163=ORIENTED_EDGE('',*,*,#842,.F.);
#1164=ORIENTED_EDGE('',*,*,#845,.F.);
#1165=ORIENTED_EDGE('',*,*,#850,.T.);
#1166=ORIENTED_EDGE('',*,*,#851,.T.);
#1167=ORIENTED_EDGE('',*,*,#852,.F.);
#1168=ORIENTED_EDGE('',*,*,#853,.F.);
#1169=ORIENTED_EDGE('',*,*,#854,.T.);
#1170=ORIENTED_EDGE('',*,*,#853,.T.);
#1171=ORIENTED_EDGE('',*,*,#855,.F.);
#1172=ORIENTED_EDGE('',*,*,#856,.F.);
#1173=ORIENTED_EDGE('',*,*,#857,.T.);
#1174=ORIENTED_EDGE('',*,*,#856,.T.);
#1175=ORIENTED_EDGE('',*,*,#858,.F.);
#1176=ORIENTED_EDGE('',*,*,#859,.F.);
#1177=ORIENTED_EDGE('',*,*,#860,.T.);
#1178=ORIENTED_EDGE('',*,*,#859,.T.);
#1179=ORIENTED_EDGE('',*,*,#861,.F.);
#1180=ORIENTED_EDGE('',*,*,#851,.F.);
#1181=ORIENTED_EDGE('',*,*,#861,.T.);
#1182=ORIENTED_EDGE('',*,*,#858,.T.);
#1183=ORIENTED_EDGE('',*,*,#855,.T.);
#1184=ORIENTED_EDGE('',*,*,#852,.T.);
#1185=ORIENTED_EDGE('',*,*,#860,.F.);
#1186=ORIENTED_EDGE('',*,*,#850,.F.);
#1187=ORIENTED_EDGE('',*,*,#854,.F.);
#1188=ORIENTED_EDGE('',*,*,#857,.F.);
#1189=ORIENTED_EDGE('',*,*,#862,.T.);
#1190=ORIENTED_EDGE('',*,*,#863,.T.);
#1191=ORIENTED_EDGE('',*,*,#864,.F.);
#1192=ORIENTED_EDGE('',*,*,#865,.F.);
#1193=ORIENTED_EDGE('',*,*,#866,.T.);
#1194=ORIENTED_EDGE('',*,*,#865,.T.);
#1195=ORIENTED_EDGE('',*,*,#867,.F.);
#1196=ORIENTED_EDGE('',*,*,#868,.F.);
#1197=ORIENTED_EDGE('',*,*,#869,.T.);
#1198=ORIENTED_EDGE('',*,*,#868,.T.);
#1199=ORIENTED_EDGE('',*,*,#870,.F.);
#1200=ORIENTED_EDGE('',*,*,#871,.F.);
#1201=ORIENTED_EDGE('',*,*,#872,.T.);
#1202=ORIENTED_EDGE('',*,*,#871,.T.);
#1203=ORIENTED_EDGE('',*,*,#873,.F.);
#1204=ORIENTED_EDGE('',*,*,#863,.F.);
#1205=ORIENTED_EDGE('',*,*,#873,.T.);
#1206=ORIENTED_EDGE('',*,*,#870,.T.);
#1207=ORIENTED_EDGE('',*,*,#867,.T.);
#1208=ORIENTED_EDGE('',*,*,#864,.T.);
#1209=ORIENTED_EDGE('',*,*,#872,.F.);
#1210=ORIENTED_EDGE('',*,*,#862,.F.);
#1211=ORIENTED_EDGE('',*,*,#866,.F.);
#1212=ORIENTED_EDGE('',*,*,#869,.F.);
#1213=ORIENTED_EDGE('',*,*,#874,.T.);
#1214=ORIENTED_EDGE('',*,*,#875,.T.);
#1215=ORIENTED_EDGE('',*,*,#876,.F.);
#1216=ORIENTED_EDGE('',*,*,#877,.F.);
#1217=ORIENTED_EDGE('',*,*,#878,.T.);
#1218=ORIENTED_EDGE('',*,*,#877,.T.);
#1219=ORIENTED_EDGE('',*,*,#879,.F.);
#1220=ORIENTED_EDGE('',*,*,#880,.F.);
#1221=ORIENTED_EDGE('',*,*,#881,.T.);
#1222=ORIENTED_EDGE('',*,*,#880,.T.);
#1223=ORIENTED_EDGE('',*,*,#882,.F.);
#1224=ORIENTED_EDGE('',*,*,#883,.F.);
#1225=ORIENTED_EDGE('',*,*,#884,.T.);
#1226=ORIENTED_EDGE('',*,*,#883,.T.);
#1227=ORIENTED_EDGE('',*,*,#885,.F.);
#1228=ORIENTED_EDGE('',*,*,#875,.F.);
#1229=ORIENTED_EDGE('',*,*,#885,.T.);
#1230=ORIENTED_EDGE('',*,*,#882,.T.);
#1231=ORIENTED_EDGE('',*,*,#879,.T.);
#1232=ORIENTED_EDGE('',*,*,#876,.T.);
#1233=ORIENTED_EDGE('',*,*,#884,.F.);
#1234=ORIENTED_EDGE('',*,*,#874,.F.);
#1235=ORIENTED_EDGE('',*,*,#878,.F.);
#1236=ORIENTED_EDGE('',*,*,#881,.F.);
#1237=ORIENTED_EDGE('',*,*,#886,.T.);
#1238=ORIENTED_EDGE('',*,*,#887,.T.);
#1239=ORIENTED_EDGE('',*,*,#888,.F.);
#1240=ORIENTED_EDGE('',*,*,#889,.F.);
#1241=ORIENTED_EDGE('',*,*,#890,.T.);
#1242=ORIENTED_EDGE('',*,*,#889,.T.);
#1243=ORIENTED_EDGE('',*,*,#891,.F.);
#1244=ORIENTED_EDGE('',*,*,#892,.F.);
#1245=ORIENTED_EDGE('',*,*,#893,.T.);
#1246=ORIENTED_EDGE('',*,*,#892,.T.);
#1247=ORIENTED_EDGE('',*,*,#894,.F.);
#1248=ORIENTED_EDGE('',*,*,#895,.F.);
#1249=ORIENTED_EDGE('',*,*,#896,.T.);
#1250=ORIENTED_EDGE('',*,*,#895,.T.);
#1251=ORIENTED_EDGE('',*,*,#897,.F.);
#1252=ORIENTED_EDGE('',*,*,#887,.F.);
#1253=ORIENTED_EDGE('',*,*,#897,.T.);
#1254=ORIENTED_EDGE('',*,*,#894,.T.);
#1255=ORIENTED_EDGE('',*,*,#891,.T.);
#1256=ORIENTED_EDGE('',*,*,#888,.T.);
#1257=ORIENTED_EDGE('',*,*,#896,.F.);
#1258=ORIENTED_EDGE('',*,*,#886,.F.);
#1259=ORIENTED_EDGE('',*,*,#890,.F.);
#1260=ORIENTED_EDGE('',*,*,#893,.F.);
#1261=ORIENTED_EDGE('',*,*,#898,.F.);
#1262=ORIENTED_EDGE('',*,*,#899,.T.);
#1263=ORIENTED_EDGE('',*,*,#900,.T.);
#1264=ORIENTED_EDGE('',*,*,#899,.F.);
#1265=ORIENTED_EDGE('',*,*,#898,.T.);
#1266=ORIENTED_EDGE('',*,*,#900,.F.);
#1267=PLANE('',#1481);
#1268=PLANE('',#1482);
#1269=PLANE('',#1483);
#1270=PLANE('',#1484);
#1271=PLANE('',#1485);
#1272=PLANE('',#1486);
#1273=PLANE('',#1487);
#1274=PLANE('',#1488);
#1275=PLANE('',#1489);
#1276=PLANE('',#1490);
#1277=PLANE('',#1491);
#1278=PLANE('',#1492);
#1279=PLANE('',#1493);
#1280=PLANE('',#1494);
#1281=PLANE('',#1495);
#1282=PLANE('',#1496);
#1283=PLANE('',#1497);
#1284=PLANE('',#1498);
#1285=PLANE('',#1499);
#1286=PLANE('',#1500);
#1287=PLANE('',#1501);
#1288=PLANE('',#1502);
#1289=PLANE('',#1503);
#1290=PLANE('',#1504);
#1291=PLANE('',#1505);
#1292=PLANE('',#1506);
#1293=PLANE('',#1507);
#1294=PLANE('',#1508);
#1295=PLANE('',#1509);
#1296=PLANE('',#1510);
#1297=PLANE('',#1511);
#1298=PLANE('',#1512);
#1299=PLANE('',#1513);
#1300=PLANE('',#1514);
#1301=PLANE('',#1515);
#1302=PLANE('',#1516);
#1303=PLANE('',#1517);
#1304=PLANE('',#1518);
#1305=PLANE('',#1519);
#1306=PLANE('',#1520);
#1307=PLANE('',#1521);
#1308=PLANE('',#1522);
#1309=PLANE('',#1523);
#1310=PLANE('',#1524);
#1311=PLANE('',#1525);
#1312=PLANE('',#1526);
#1313=PLANE('',#1527);
#1314=PLANE('',#1528);
#1315=PLANE('',#1529);
#1316=PLANE('',#1530);
#1317=PLANE('',#1531);
#1318=PLANE('',#1532);
#1319=PLANE('',#1533);
#1320=PLANE('',#1534);
#1321=PLANE('',#1535);
#1322=PLANE('',#1536);
#1323=PLANE('',#1537);
#1324=PLANE('',#1538);
#1325=PLANE('',#1539);
#1326=PLANE('',#1540);
#1327=PLANE('',#1541);
#1328=PLANE('',#1542);
#1329=PLANE('',#1543);
#1330=PLANE('',#1544);
#1331=PLANE('',#1545);
#1332=PLANE('',#1546);
#1333=PLANE('',#1547);
#1334=PLANE('',#1548);
#1335=PLANE('',#1549);
#1336=PLANE('',#1550);
#1337=PLANE('',#1551);
#1338=PLANE('',#1552);
#1339=PLANE('',#1553);
#1340=PLANE('',#1554);
#1341=PLANE('',#1555);
#1342=PLANE('',#1556);
#1343=PLANE('',#1557);
#1344=PLANE('',#1558);
#1345=PLANE('',#1559);
#1346=PLANE('',#1560);
#1347=PLANE('',#1561);
#1348=PLANE('',#1562);
#1349=PLANE('',#1563);
#1350=PLANE('',#1564);
#1351=PLANE('',#1565);
#1352=PLANE('',#1566);
#1353=PLANE('',#1567);
#1354=PLANE('',#1568);
#1355=PLANE('',#1569);
#1356=PLANE('',#1570);
#1357=PLANE('',#1574);
#1358=PLANE('',#1575);
#1359=ADVANCED_FACE('',(#48),#1267,.T.);
#1360=ADVANCED_FACE('',(#49),#1268,.T.);
#1361=ADVANCED_FACE('',(#50),#1269,.T.);
#1362=ADVANCED_FACE('',(#51),#1270,.T.);
#1363=ADVANCED_FACE('',(#52),#1271,.T.);
#1364=ADVANCED_FACE('',(#53),#1272,.F.);
#1365=ADVANCED_FACE('',(#54),#1273,.T.);
#1366=ADVANCED_FACE('',(#55),#1274,.T.);
#1367=ADVANCED_FACE('',(#56),#1275,.T.);
#1368=ADVANCED_FACE('',(#57),#1276,.T.);
#1369=ADVANCED_FACE('',(#58),#1277,.T.);
#1370=ADVANCED_FACE('',(#59),#1278,.F.);
#1371=ADVANCED_FACE('',(#60),#1279,.T.);
#1372=ADVANCED_FACE('',(#61),#1280,.T.);
#1373=ADVANCED_FACE('',(#62),#1281,.T.);
#1374=ADVANCED_FACE('',(#63),#1282,.T.);
#1375=ADVANCED_FACE('',(#64),#1283,.T.);
#1376=ADVANCED_FACE('',(#65),#1284,.F.);
#1377=ADVANCED_FACE('',(#66),#1285,.T.);
#1378=ADVANCED_FACE('',(#67),#1286,.T.);
#1379=ADVANCED_FACE('',(#68),#1287,.T.);
#1380=ADVANCED_FACE('',(#69),#1288,.T.);
#1381=ADVANCED_FACE('',(#70),#1289,.T.);
#1382=ADVANCED_FACE('',(#71),#1290,.F.);
#1383=ADVANCED_FACE('',(#72),#1291,.T.);
#1384=ADVANCED_FACE('',(#73),#1292,.T.);
#1385=ADVANCED_FACE('',(#74),#1293,.T.);
#1386=ADVANCED_FACE('',(#75),#1294,.T.);
#1387=ADVANCED_FACE('',(#76),#1295,.T.);
#1388=ADVANCED_FACE('',(#77),#1296,.F.);
#1389=ADVANCED_FACE('',(#78),#1297,.T.);
#1390=ADVANCED_FACE('',(#79),#1298,.T.);
#1391=ADVANCED_FACE('',(#80),#1299,.T.);
#1392=ADVANCED_FACE('',(#81),#1300,.T.);
#1393=ADVANCED_FACE('',(#82),#1301,.T.);
#1394=ADVANCED_FACE('',(#83),#1302,.F.);
#1395=ADVANCED_FACE('',(#84),#1303,.T.);
#1396=ADVANCED_FACE('',(#85),#1304,.T.);
#1397=ADVANCED_FACE('',(#86),#1305,.T.);
#1398=ADVANCED_FACE('',(#87),#1306,.T.);
#1399=ADVANCED_FACE('',(#88),#1307,.T.);
#1400=ADVANCED_FACE('',(#89),#1308,.F.);
#1401=ADVANCED_FACE('',(#90),#1309,.T.);
#1402=ADVANCED_FACE('',(#91),#1310,.T.);
#1403=ADVANCED_FACE('',(#92),#1311,.T.);
#1404=ADVANCED_FACE('',(#93),#1312,.T.);
#1405=ADVANCED_FACE('',(#94),#1313,.T.);
#1406=ADVANCED_FACE('',(#95),#1314,.F.);
#1407=ADVANCED_FACE('',(#96),#1315,.T.);
#1408=ADVANCED_FACE('',(#97),#1316,.T.);
#1409=ADVANCED_FACE('',(#98),#1317,.T.);
#1410=ADVANCED_FACE('',(#99),#1318,.T.);
#1411=ADVANCED_FACE('',(#100),#1319,.T.);
#1412=ADVANCED_FACE('',(#101),#1320,.F.);
#1413=ADVANCED_FACE('',(#102),#1321,.T.);
#1414=ADVANCED_FACE('',(#103),#1322,.T.);
#1415=ADVANCED_FACE('',(#104),#1323,.T.);
#1416=ADVANCED_FACE('',(#105),#1324,.T.);
#1417=ADVANCED_FACE('',(#106),#1325,.T.);
#1418=ADVANCED_FACE('',(#107),#1326,.F.);
#1419=ADVANCED_FACE('',(#108),#1327,.T.);
#1420=ADVANCED_FACE('',(#109),#1328,.T.);
#1421=ADVANCED_FACE('',(#110),#1329,.T.);
#1422=ADVANCED_FACE('',(#111),#1330,.T.);
#1423=ADVANCED_FACE('',(#112),#1331,.T.);
#1424=ADVANCED_FACE('',(#113),#1332,.F.);
#1425=ADVANCED_FACE('',(#114),#1333,.T.);
#1426=ADVANCED_FACE('',(#115),#1334,.T.);
#1427=ADVANCED_FACE('',(#116),#1335,.T.);
#1428=ADVANCED_FACE('',(#117),#1336,.T.);
#1429=ADVANCED_FACE('',(#118),#1337,.T.);
#1430=ADVANCED_FACE('',(#119),#1338,.F.);
#1431=ADVANCED_FACE('',(#120),#1339,.T.);
#1432=ADVANCED_FACE('',(#121),#1340,.T.);
#1433=ADVANCED_FACE('',(#122),#1341,.T.);
#1434=ADVANCED_FACE('',(#123),#1342,.T.);
#1435=ADVANCED_FACE('',(#124),#1343,.T.);
#1436=ADVANCED_FACE('',(#125),#1344,.F.);
#1437=ADVANCED_FACE('',(#126),#1345,.T.);
#1438=ADVANCED_FACE('',(#127),#1346,.T.);
#1439=ADVANCED_FACE('',(#128),#1347,.T.);
#1440=ADVANCED_FACE('',(#129),#1348,.T.);
#1441=ADVANCED_FACE('',(#130),#1349,.T.);
#1442=ADVANCED_FACE('',(#131),#1350,.F.);
#1443=ADVANCED_FACE('',(#132),#1351,.T.);
#1444=ADVANCED_FACE('',(#133),#1352,.T.);
#1445=ADVANCED_FACE('',(#134),#1353,.T.);
#1446=ADVANCED_FACE('',(#135),#1354,.T.);
#1447=ADVANCED_FACE('',(#136),#1355,.T.);
#1448=ADVANCED_FACE('',(#137),#1356,.F.);
#1449=ADVANCED_FACE('',(#138),#15,.T.);
#1450=ADVANCED_FACE('',(#139),#1357,.T.);
#1451=ADVANCED_FACE('',(#140),#1358,.F.);
#1452=CLOSED_SHELL('',(#1359,#1360,#1361,#1362,#1363,#1364));
#1453=CLOSED_SHELL('',(#1365,#1366,#1367,#1368,#1369,#1370));
#1454=CLOSED_SHELL('',(#1371,#1372,#1373,#1374,#1375,#1376));
#1455=CLOSED_SHELL('',(#1377,#1378,#1379,#1380,#1381,#1382));
#1456=CLOSED_SHELL('',(#1383,#1384,#1385,#1386,#1387,#1388));
#1457=CLOSED_SHELL('',(#1389,#1390,#1391,#1392,#1393,#1394));
#1458=CLOSED_SHELL('',(#1395,#1396,#1397,#1398,#1399,#1400));
#1459=CLOSED_SHELL('',(#1401,#1402,#1403,#1404,#1405,#1406));
#1460=CLOSED_SHELL('',(#1407,#1408,#1409,#1410,#1411,#1412));
#1461=CLOSED_SHELL('',(#1413,#1414,#1415,#1416,#1417,#1418));
#1462=CLOSED_SHELL('',(#1419,#1420,#1421,#1422,#1423,#1424));
#1463=CLOSED_SHELL('',(#1425,#1426,#1427,#1428,#1429,#1430));
#1464=CLOSED_SHELL('',(#1431,#1432,#1433,#1434,#1435,#1436));
#1465=CLOSED_SHELL('',(#1437,#1438,#1439,#1440,#1441,#1442));
#1466=CLOSED_SHELL('',(#1443,#1444,#1445,#1446,#1447,#1448));
#1467=CLOSED_SHELL('',(#1449,#1450,#1451));
#1468=DERIVED_UNIT_ELEMENT(#1470,1.);
#1469=DERIVED_UNIT_ELEMENT(#2353,-3.);
#1470=(
MASS_UNIT()
NAMED_UNIT(*)
SI_UNIT(.KILO.,.GRAM.)
);
#1471=DERIVED_UNIT((#1468,#1469));
#1472=MEASURE_REPRESENTATION_ITEM('density measure',
POSITIVE_RATIO_MEASURE(7850.),#1471);
#1473=PROPERTY_DEFINITION_REPRESENTATION(#1478,#1475);
#1474=PROPERTY_DEFINITION_REPRESENTATION(#1479,#1476);
#1475=REPRESENTATION('material name',(#1477),#2350);
#1476=REPRESENTATION('density',(#1472),#2350);
#1477=DESCRIPTIVE_REPRESENTATION_ITEM('Steel','Steel');
#1478=PROPERTY_DEFINITION('material property','material name',#2360);
#1479=PROPERTY_DEFINITION('material property','density of part',#2360);
#1480=AXIS2_PLACEMENT_3D('',#1949,#1576,#1577);
#1481=AXIS2_PLACEMENT_3D('',#1950,#1578,#1579);
#1482=AXIS2_PLACEMENT_3D('',#1959,#1584,#1585);
#1483=AXIS2_PLACEMENT_3D('',#1965,#1589,#1590);
#1484=AXIS2_PLACEMENT_3D('',#1971,#1594,#1595);
#1485=AXIS2_PLACEMENT_3D('',#1974,#1598,#1599);
#1486=AXIS2_PLACEMENT_3D('',#1975,#1600,#1601);
#1487=AXIS2_PLACEMENT_3D('',#1976,#1602,#1603);
#1488=AXIS2_PLACEMENT_3D('',#1985,#1608,#1609);
#1489=AXIS2_PLACEMENT_3D('',#1991,#1613,#1614);
#1490=AXIS2_PLACEMENT_3D('',#1997,#1618,#1619);
#1491=AXIS2_PLACEMENT_3D('',#2000,#1622,#1623);
#1492=AXIS2_PLACEMENT_3D('',#2001,#1624,#1625);
#1493=AXIS2_PLACEMENT_3D('',#2002,#1626,#1627);
#1494=AXIS2_PLACEMENT_3D('',#2011,#1632,#1633);
#1495=AXIS2_PLACEMENT_3D('',#2017,#1637,#1638);
#1496=AXIS2_PLACEMENT_3D('',#2023,#1642,#1643);
#1497=AXIS2_PLACEMENT_3D('',#2026,#1646,#1647);
#1498=AXIS2_PLACEMENT_3D('',#2027,#1648,#1649);
#1499=AXIS2_PLACEMENT_3D('',#2028,#1650,#1651);
#1500=AXIS2_PLACEMENT_3D('',#2037,#1656,#1657);
#1501=AXIS2_PLACEMENT_3D('',#2043,#1661,#1662);
#1502=AXIS2_PLACEMENT_3D('',#2049,#1666,#1667);
#1503=AXIS2_PLACEMENT_3D('',#2052,#1670,#1671);
#1504=AXIS2_PLACEMENT_3D('',#2053,#1672,#1673);
#1505=AXIS2_PLACEMENT_3D('',#2054,#1674,#1675);
#1506=AXIS2_PLACEMENT_3D('',#2063,#1680,#1681);
#1507=AXIS2_PLACEMENT_3D('',#2069,#1685,#1686);
#1508=AXIS2_PLACEMENT_3D('',#2075,#1690,#1691);
#1509=AXIS2_PLACEMENT_3D('',#2078,#1694,#1695);
#1510=AXIS2_PLACEMENT_3D('',#2079,#1696,#1697);
#1511=AXIS2_PLACEMENT_3D('',#2080,#1698,#1699);
#1512=AXIS2_PLACEMENT_3D('',#2089,#1704,#1705);
#1513=AXIS2_PLACEMENT_3D('',#2095,#1709,#1710);
#1514=AXIS2_PLACEMENT_3D('',#2101,#1714,#1715);
#1515=AXIS2_PLACEMENT_3D('',#2104,#1718,#1719);
#1516=AXIS2_PLACEMENT_3D('',#2105,#1720,#1721);
#1517=AXIS2_PLACEMENT_3D('',#2106,#1722,#1723);
#1518=AXIS2_PLACEMENT_3D('',#2115,#1728,#1729);
#1519=AXIS2_PLACEMENT_3D('',#2121,#1733,#1734);
#1520=AXIS2_PLACEMENT_3D('',#2127,#1738,#1739);
#1521=AXIS2_PLACEMENT_3D('',#2130,#1742,#1743);
#1522=AXIS2_PLACEMENT_3D('',#2131,#1744,#1745);
#1523=AXIS2_PLACEMENT_3D('',#2132,#1746,#1747);
#1524=AXIS2_PLACEMENT_3D('',#2141,#1752,#1753);
#1525=AXIS2_PLACEMENT_3D('',#2147,#1757,#1758);
#1526=AXIS2_PLACEMENT_3D('',#2153,#1762,#1763);
#1527=AXIS2_PLACEMENT_3D('',#2156,#1766,#1767);
#1528=AXIS2_PLACEMENT_3D('',#2157,#1768,#1769);
#1529=AXIS2_PLACEMENT_3D('',#2158,#1770,#1771);
#1530=AXIS2_PLACEMENT_3D('',#2167,#1776,#1777);
#1531=AXIS2_PLACEMENT_3D('',#2173,#1781,#1782);
#1532=AXIS2_PLACEMENT_3D('',#2179,#1786,#1787);
#1533=AXIS2_PLACEMENT_3D('',#2182,#1790,#1791);
#1534=AXIS2_PLACEMENT_3D('',#2183,#1792,#1793);
#1535=AXIS2_PLACEMENT_3D('',#2184,#1794,#1795);
#1536=AXIS2_PLACEMENT_3D('',#2193,#1800,#1801);
#1537=AXIS2_PLACEMENT_3D('',#2199,#1805,#1806);
#1538=AXIS2_PLACEMENT_3D('',#2205,#1810,#1811);
#1539=AXIS2_PLACEMENT_3D('',#2208,#1814,#1815);
#1540=AXIS2_PLACEMENT_3D('',#2209,#1816,#1817);
#1541=AXIS2_PLACEMENT_3D('',#2210,#1818,#1819);
#1542=AXIS2_PLACEMENT_3D('',#2219,#1824,#1825);
#1543=AXIS2_PLACEMENT_3D('',#2225,#1829,#1830);
#1544=AXIS2_PLACEMENT_3D('',#2231,#1834,#1835);
#1545=AXIS2_PLACEMENT_3D('',#2234,#1838,#1839);
#1546=AXIS2_PLACEMENT_3D('',#2235,#1840,#1841);
#1547=AXIS2_PLACEMENT_3D('',#2236,#1842,#1843);
#1548=AXIS2_PLACEMENT_3D('',#2245,#1848,#1849);
#1549=AXIS2_PLACEMENT_3D('',#2251,#1853,#1854);
#1550=AXIS2_PLACEMENT_3D('',#2257,#1858,#1859);
#1551=AXIS2_PLACEMENT_3D('',#2260,#1862,#1863);
#1552=AXIS2_PLACEMENT_3D('',#2261,#1864,#1865);
#1553=AXIS2_PLACEMENT_3D('',#2262,#1866,#1867);
#1554=AXIS2_PLACEMENT_3D('',#2271,#1872,#1873);
#1555=AXIS2_PLACEMENT_3D('',#2277,#1877,#1878);
#1556=AXIS2_PLACEMENT_3D('',#2283,#1882,#1883);
#1557=AXIS2_PLACEMENT_3D('',#2286,#1886,#1887);
#1558=AXIS2_PLACEMENT_3D('',#2287,#1888,#1889);
#1559=AXIS2_PLACEMENT_3D('',#2288,#1890,#1891);
#1560=AXIS2_PLACEMENT_3D('',#2297,#1896,#1897);
#1561=AXIS2_PLACEMENT_3D('',#2303,#1901,#1902);
#1562=AXIS2_PLACEMENT_3D('',#2309,#1906,#1907);
#1563=AXIS2_PLACEMENT_3D('',#2312,#1910,#1911);
#1564=AXIS2_PLACEMENT_3D('',#2313,#1912,#1913);
#1565=AXIS2_PLACEMENT_3D('',#2314,#1914,#1915);
#1566=AXIS2_PLACEMENT_3D('',#2323,#1920,#1921);
#1567=AXIS2_PLACEMENT_3D('',#2329,#1925,#1926);
#1568=AXIS2_PLACEMENT_3D('',#2335,#1930,#1931);
#1569=AXIS2_PLACEMENT_3D('',#2338,#1934,#1935);
#1570=AXIS2_PLACEMENT_3D('',#2339,#1936,#1937);
#1571=AXIS2_PLACEMENT_3D('',#2340,#1938,#1939);
#1572=AXIS2_PLACEMENT_3D('',#2342,#1940,#1941);
#1573=AXIS2_PLACEMENT_3D('',#2345,#1943,#1944);
#1574=AXIS2_PLACEMENT_3D('',#2346,#1945,#1946);
#1575=AXIS2_PLACEMENT_3D('',#2347,#1947,#1948);
#1576=DIRECTION('axis',(0.,0.,1.));
#1577=DIRECTION('refdir',(1.,0.,0.));
#1578=DIRECTION('center_axis',(0.,1.,0.));
#1579=DIRECTION('ref_axis',(-1.,0.,0.));
#1580=DIRECTION('',(-1.,0.,0.));
#1581=DIRECTION('',(0.,0.,1.));
#1582=DIRECTION('',(-1.,0.,0.));
#1583=DIRECTION('',(0.,0.,1.));
#1584=DIRECTION('center_axis',(1.,0.,0.));
#1585=DIRECTION('ref_axis',(0.,1.,0.));
#1586=DIRECTION('',(0.,1.,0.));
#1587=DIRECTION('',(0.,1.,0.));
#1588=DIRECTION('',(0.,0.,1.));
#1589=DIRECTION('center_axis',(0.,-1.,0.));
#1590=DIRECTION('ref_axis',(1.,0.,0.));
#1591=DIRECTION('',(1.,0.,0.));
#1592=DIRECTION('',(1.,0.,0.));
#1593=DIRECTION('',(0.,0.,1.));
#1594=DIRECTION('center_axis',(-1.,0.,0.));
#1595=DIRECTION('ref_axis',(0.,-1.,0.));
#1596=DIRECTION('',(0.,-1.,0.));
#1597=DIRECTION('',(0.,-1.,0.));
#1598=DIRECTION('center_axis',(0.,0.,1.));
#1599=DIRECTION('ref_axis',(1.,0.,0.));
#1600=DIRECTION('center_axis',(0.,0.,1.));
#1601=DIRECTION('ref_axis',(1.,0.,0.));
#1602=DIRECTION('center_axis',(0.,1.,0.));
#1603=DIRECTION('ref_axis',(-1.,0.,0.));
#1604=DIRECTION('',(-1.,0.,0.));
#1605=DIRECTION('',(0.,0.,1.));
#1606=DIRECTION('',(-1.,0.,0.));
#1607=DIRECTION('',(0.,0.,1.));
#1608=DIRECTION('center_axis',(1.,0.,0.));
#1609=DIRECTION('ref_axis',(0.,1.,0.));
#1610=DIRECTION('',(0.,1.,0.));
#1611=DIRECTION('',(0.,1.,0.));
#1612=DIRECTION('',(0.,0.,1.));
#1613=DIRECTION('center_axis',(0.,-1.,0.));
#1614=DIRECTION('ref_axis',(1.,0.,0.));
#1615=DIRECTION('',(1.,0.,0.));
#1616=DIRECTION('',(1.,0.,0.));
#1617=DIRECTION('',(0.,0.,1.));
#1618=DIRECTION('center_axis',(-1.,0.,0.));
#1619=DIRECTION('ref_axis',(0.,-1.,0.));
#1620=DIRECTION('',(0.,-1.,0.));
#1621=DIRECTION('',(0.,-1.,0.));
#1622=DIRECTION('center_axis',(0.,0.,1.));
#1623=DIRECTION('ref_axis',(1.,0.,0.));
#1624=DIRECTION('center_axis',(0.,0.,1.));
#1625=DIRECTION('ref_axis',(1.,0.,0.));
#1626=DIRECTION('center_axis',(0.,1.,0.));
#1627=DIRECTION('ref_axis',(-1.,0.,0.));
#1628=DIRECTION('',(-1.,0.,0.));
#1629=DIRECTION('',(0.,0.,1.));
#1630=DIRECTION('',(-1.,0.,0.));
#1631=DIRECTION('',(0.,0.,1.));
#1632=DIRECTION('center_axis',(1.,0.,0.));
#1633=DIRECTION('ref_axis',(0.,1.,0.));
#1634=DIRECTION('',(0.,1.,0.));
#1635=DIRECTION('',(0.,1.,0.));
#1636=DIRECTION('',(0.,0.,1.));
#1637=DIRECTION('center_axis',(0.,-1.,0.));
#1638=DIRECTION('ref_axis',(1.,0.,0.));
#1639=DIRECTION('',(1.,0.,0.));
#1640=DIRECTION('',(1.,0.,0.));
#1641=DIRECTION('',(0.,0.,1.));
#1642=DIRECTION('center_axis',(-1.,0.,0.));
#1643=DIRECTION('ref_axis',(0.,-1.,0.));
#1644=DIRECTION('',(0.,-1.,0.));
#1645=DIRECTION('',(0.,-1.,0.));
#1646=DIRECTION('center_axis',(0.,0.,1.));
#1647=DIRECTION('ref_axis',(1.,0.,0.));
#1648=DIRECTION('center_axis',(0.,0.,1.));
#1649=DIRECTION('ref_axis',(1.,0.,0.));
#1650=DIRECTION('center_axis',(0.,1.,0.));
#1651=DIRECTION('ref_axis',(-1.,0.,0.));
#1652=DIRECTION('',(-1.,0.,0.));
#1653=DIRECTION('',(0.,0.,1.));
#1654=DIRECTION('',(-1.,0.,0.));
#1655=DIRECTION('',(0.,0.,1.));
#1656=DIRECTION('center_axis',(1.,0.,0.));
#1657=DIRECTION('ref_axis',(0.,1.,0.));
#1658=DIRECTION('',(0.,1.,0.));
#1659=DIRECTION('',(0.,1.,0.));
#1660=DIRECTION('',(0.,0.,1.));
#1661=DIRECTION('center_axis',(0.,-1.,0.));
#1662=DIRECTION('ref_axis',(1.,0.,0.));
#1663=DIRECTION('',(1.,0.,0.));
#1664=DIRECTION('',(1.,0.,0.));
#1665=DIRECTION('',(0.,0.,1.));
#1666=DIRECTION('center_axis',(-1.,0.,0.));
#1667=DIRECTION('ref_axis',(0.,-1.,0.));
#1668=DIRECTION('',(0.,-1.,0.));
#1669=DIRECTION('',(0.,-1.,0.));
#1670=DIRECTION('center_axis',(0.,0.,1.));
#1671=DIRECTION('ref_axis',(1.,0.,0.));
#1672=DIRECTION('center_axis',(0.,0.,1.));
#1673=DIRECTION('ref_axis',(1.,0.,0.));
#1674=DIRECTION('center_axis',(0.,1.,0.));
#1675=DIRECTION('ref_axis',(-1.,0.,0.));
#1676=DIRECTION('',(-1.,0.,0.));
#1677=DIRECTION('',(0.,0.,1.));
#1678=DIRECTION('',(-1.,0.,0.));
#1679=DIRECTION('',(0.,0.,1.));
#1680=DIRECTION('center_axis',(1.,0.,0.));
#1681=DIRECTION('ref_axis',(0.,1.,0.));
#1682=DIRECTION('',(0.,1.,0.));
#1683=DIRECTION('',(0.,1.,0.));
#1684=DIRECTION('',(0.,0.,1.));
#1685=DIRECTION('center_axis',(0.,-1.,0.));
#1686=DIRECTION('ref_axis',(1.,0.,0.));
#1687=DIRECTION('',(1.,0.,0.));
#1688=DIRECTION('',(1.,0.,0.));
#1689=DIRECTION('',(0.,0.,1.));
#1690=DIRECTION('center_axis',(-1.,0.,0.));
#1691=DIRECTION('ref_axis',(0.,-1.,0.));
#1692=DIRECTION('',(0.,-1.,0.));
#1693=DIRECTION('',(0.,-1.,0.));
#1694=DIRECTION('center_axis',(0.,0.,1.));
#1695=DIRECTION('ref_axis',(1.,0.,0.));
#1696=DIRECTION('center_axis',(0.,0.,1.));
#1697=DIRECTION('ref_axis',(1.,0.,0.));
#1698=DIRECTION('center_axis',(0.,1.,0.));
#1699=DIRECTION('ref_axis',(-1.,0.,0.));
#1700=DIRECTION('',(-1.,0.,0.));
#1701=DIRECTION('',(0.,0.,1.));
#1702=DIRECTION('',(-1.,0.,0.));
#1703=DIRECTION('',(0.,0.,1.));
#1704=DIRECTION('center_axis',(1.,0.,0.));
#1705=DIRECTION('ref_axis',(0.,1.,0.));
#1706=DIRECTION('',(0.,1.,0.));
#1707=DIRECTION('',(0.,1.,0.));
#1708=DIRECTION('',(0.,0.,1.));
#1709=DIRECTION('center_axis',(0.,-1.,0.));
#1710=DIRECTION('ref_axis',(1.,0.,0.));
#1711=DIRECTION('',(1.,0.,0.));
#1712=DIRECTION('',(1.,0.,0.));
#1713=DIRECTION('',(0.,0.,1.));
#1714=DIRECTION('center_axis',(-1.,0.,0.));
#1715=DIRECTION('ref_axis',(0.,-1.,0.));
#1716=DIRECTION('',(0.,-1.,0.));
#1717=DIRECTION('',(0.,-1.,0.));
#1718=DIRECTION('center_axis',(0.,0.,1.));
#1719=DIRECTION('ref_axis',(1.,0.,0.));
#1720=DIRECTION('center_axis',(0.,0.,1.));
#1721=DIRECTION('ref_axis',(1.,0.,0.));
#1722=DIRECTION('center_axis',(0.,1.,0.));
#1723=DIRECTION('ref_axis',(-1.,0.,0.));
#1724=DIRECTION('',(-1.,0.,0.));
#1725=DIRECTION('',(0.,0.,1.));
#1726=DIRECTION('',(-1.,0.,0.));
#1727=DIRECTION('',(0.,0.,1.));
#1728=DIRECTION('center_axis',(1.,0.,0.));
#1729=DIRECTION('ref_axis',(0.,1.,0.));
#1730=DIRECTION('',(0.,1.,0.));
#1731=DIRECTION('',(0.,1.,0.));
#1732=DIRECTION('',(0.,0.,1.));
#1733=DIRECTION('center_axis',(0.,-1.,0.));
#1734=DIRECTION('ref_axis',(1.,0.,0.));
#1735=DIRECTION('',(1.,0.,0.));
#1736=DIRECTION('',(1.,0.,0.));
#1737=DIRECTION('',(0.,0.,1.));
#1738=DIRECTION('center_axis',(-1.,0.,0.));
#1739=DIRECTION('ref_axis',(0.,-1.,0.));
#1740=DIRECTION('',(0.,-1.,0.));
#1741=DIRECTION('',(0.,-1.,0.));
#1742=DIRECTION('center_axis',(0.,0.,1.));
#1743=DIRECTION('ref_axis',(1.,0.,0.));
#1744=DIRECTION('center_axis',(0.,0.,1.));
#1745=DIRECTION('ref_axis',(1.,0.,0.));
#1746=DIRECTION('center_axis',(0.,1.,0.));
#1747=DIRECTION('ref_axis',(-1.,0.,0.));
#1748=DIRECTION('',(-1.,0.,0.));
#1749=DIRECTION('',(0.,0.,1.));
#1750=DIRECTION('',(-1.,0.,0.));
#1751=DIRECTION('',(0.,0.,1.));
#1752=DIRECTION('center_axis',(1.,0.,0.));
#1753=DIRECTION('ref_axis',(0.,1.,0.));
#1754=DIRECTION('',(0.,1.,0.));
#1755=DIRECTION('',(0.,1.,0.));
#1756=DIRECTION('',(0.,0.,1.));
#1757=DIRECTION('center_axis',(0.,-1.,0.));
#1758=DIRECTION('ref_axis',(1.,0.,0.));
#1759=DIRECTION('',(1.,0.,0.));
#1760=DIRECTION('',(1.,0.,0.));
#1761=DIRECTION('',(0.,0.,1.));
#1762=DIRECTION('center_axis',(-1.,0.,0.));
#1763=DIRECTION('ref_axis',(0.,-1.,0.));
#1764=DIRECTION('',(0.,-1.,0.));
#1765=DIRECTION('',(0.,-1.,0.));
#1766=DIRECTION('center_axis',(0.,0.,1.));
#1767=DIRECTION('ref_axis',(1.,0.,0.));
#1768=DIRECTION('center_axis',(0.,0.,1.));
#1769=DIRECTION('ref_axis',(1.,0.,0.));
#1770=DIRECTION('center_axis',(0.,1.,0.));
#1771=DIRECTION('ref_axis',(-1.,0.,0.));
#1772=DIRECTION('',(-1.,0.,0.));
#1773=DIRECTION('',(0.,0.,1.));
#1774=DIRECTION('',(-1.,0.,0.));
#1775=DIRECTION('',(0.,0.,1.));
#1776=DIRECTION('center_axis',(1.,0.,0.));
#1777=DIRECTION('ref_axis',(0.,1.,0.));
#1778=DIRECTION('',(0.,1.,0.));
#1779=DIRECTION('',(0.,1.,0.));
#1780=DIRECTION('',(0.,0.,1.));
#1781=DIRECTION('center_axis',(0.,-1.,0.));
#1782=DIRECTION('ref_axis',(1.,0.,0.));
#1783=DIRECTION('',(1.,0.,0.));
#1784=DIRECTION('',(1.,0.,0.));
#1785=DIRECTION('',(0.,0.,1.));
#1786=DIRECTION('center_axis',(-1.,0.,0.));
#1787=DIRECTION('ref_axis',(0.,-1.,0.));
#1788=DIRECTION('',(0.,-1.,0.));
#1789=DIRECTION('',(0.,-1.,0.));
#1790=DIRECTION('center_axis',(0.,0.,1.));
#1791=DIRECTION('ref_axis',(1.,0.,0.));
#1792=DIRECTION('center_axis',(0.,0.,1.));
#1793=DIRECTION('ref_axis',(1.,0.,0.));
#1794=DIRECTION('center_axis',(0.,1.,0.));
#1795=DIRECTION('ref_axis',(-1.,0.,0.));
#1796=DIRECTION('',(-1.,0.,0.));
#1797=DIRECTION('',(0.,0.,1.));
#1798=DIRECTION('',(-1.,0.,0.));
#1799=DIRECTION('',(0.,0.,1.));
#1800=DIRECTION('center_axis',(1.,0.,0.));
#1801=DIRECTION('ref_axis',(0.,1.,0.));
#1802=DIRECTION('',(0.,1.,0.));
#1803=DIRECTION('',(0.,1.,0.));
#1804=DIRECTION('',(0.,0.,1.));
#1805=DIRECTION('center_axis',(0.,-1.,0.));
#1806=DIRECTION('ref_axis',(1.,0.,0.));
#1807=DIRECTION('',(1.,0.,0.));
#1808=DIRECTION('',(1.,0.,0.));
#1809=DIRECTION('',(0.,0.,1.));
#1810=DIRECTION('center_axis',(-1.,0.,0.));
#1811=DIRECTION('ref_axis',(0.,-1.,0.));
#1812=DIRECTION('',(0.,-1.,0.));
#1813=DIRECTION('',(0.,-1.,0.));
#1814=DIRECTION('center_axis',(0.,0.,1.));
#1815=DIRECTION('ref_axis',(1.,0.,0.));
#1816=DIRECTION('center_axis',(0.,0.,1.));
#1817=DIRECTION('ref_axis',(1.,0.,0.));
#1818=DIRECTION('center_axis',(0.,1.,0.));
#1819=DIRECTION('ref_axis',(-1.,0.,0.));
#1820=DIRECTION('',(-1.,0.,0.));
#1821=DIRECTION('',(0.,0.,1.));
#1822=DIRECTION('',(-1.,0.,0.));
#1823=DIRECTION('',(0.,0.,1.));
#1824=DIRECTION('center_axis',(1.,0.,0.));
#1825=DIRECTION('ref_axis',(0.,1.,0.));
#1826=DIRECTION('',(0.,1.,0.));
#1827=DIRECTION('',(0.,1.,0.));
#1828=DIRECTION('',(0.,0.,1.));
#1829=DIRECTION('center_axis',(0.,-1.,0.));
#1830=DIRECTION('ref_axis',(1.,0.,0.));
#1831=DIRECTION('',(1.,0.,0.));
#1832=DIRECTION('',(1.,0.,0.));
#1833=DIRECTION('',(0.,0.,1.));
#1834=DIRECTION('center_axis',(-1.,0.,0.));
#1835=DIRECTION('ref_axis',(0.,-1.,0.));
#1836=DIRECTION('',(0.,-1.,0.));
#1837=DIRECTION('',(0.,-1.,0.));
#1838=DIRECTION('center_axis',(0.,0.,1.));
#1839=DIRECTION('ref_axis',(1.,0.,0.));
#1840=DIRECTION('center_axis',(0.,0.,1.));
#1841=DIRECTION('ref_axis',(1.,0.,0.));
#1842=DIRECTION('center_axis',(0.,1.,0.));
#1843=DIRECTION('ref_axis',(-1.,0.,0.));
#1844=DIRECTION('',(-1.,0.,0.));
#1845=DIRECTION('',(0.,0.,1.));
#1846=DIRECTION('',(-1.,0.,0.));
#1847=DIRECTION('',(0.,0.,1.));
#1848=DIRECTION('center_axis',(1.,0.,0.));
#1849=DIRECTION('ref_axis',(0.,1.,0.));
#1850=DIRECTION('',(0.,1.,0.));
#1851=DIRECTION('',(0.,1.,0.));
#1852=DIRECTION('',(0.,0.,1.));
#1853=DIRECTION('center_axis',(0.,-1.,0.));
#1854=DIRECTION('ref_axis',(1.,0.,0.));
#1855=DIRECTION('',(1.,0.,0.));
#1856=DIRECTION('',(1.,0.,0.));
#1857=DIRECTION('',(0.,0.,1.));
#1858=DIRECTION('center_axis',(-1.,0.,0.));
#1859=DIRECTION('ref_axis',(0.,-1.,0.));
#1860=DIRECTION('',(0.,-1.,0.));
#1861=DIRECTION('',(0.,-1.,0.));
#1862=DIRECTION('center_axis',(0.,0.,1.));
#1863=DIRECTION('ref_axis',(1.,0.,0.));
#1864=DIRECTION('center_axis',(0.,0.,1.));
#1865=DIRECTION('ref_axis',(1.,0.,0.));
#1866=DIRECTION('center_axis',(0.,1.,0.));
#1867=DIRECTION('ref_axis',(-1.,0.,0.));
#1868=DIRECTION('',(-1.,0.,0.));
#1869=DIRECTION('',(0.,0.,1.));
#1870=DIRECTION('',(-1.,0.,0.));
#1871=DIRECTION('',(0.,0.,1.));
#1872=DIRECTION('center_axis',(1.,0.,0.));
#1873=DIRECTION('ref_axis',(0.,1.,0.));
#1874=DIRECTION('',(0.,1.,0.));
#1875=DIRECTION('',(0.,1.,0.));
#1876=DIRECTION('',(0.,0.,1.));
#1877=DIRECTION('center_axis',(0.,-1.,0.));
#1878=DIRECTION('ref_axis',(1.,0.,0.));
#1879=DIRECTION('',(1.,0.,0.));
#1880=DIRECTION('',(1.,0.,0.));
#1881=DIRECTION('',(0.,0.,1.));
#1882=DIRECTION('center_axis',(-1.,0.,0.));
#1883=DIRECTION('ref_axis',(0.,-1.,0.));
#1884=DIRECTION('',(0.,-1.,0.));
#1885=DIRECTION('',(0.,-1.,0.));
#1886=DIRECTION('center_axis',(0.,0.,1.));
#1887=DIRECTION('ref_axis',(1.,0.,0.));
#1888=DIRECTION('center_axis',(0.,0.,1.));
#1889=DIRECTION('ref_axis',(1.,0.,0.));
#1890=DIRECTION('center_axis',(0.,1.,0.));
#1891=DIRECTION('ref_axis',(-1.,0.,0.));
#1892=DIRECTION('',(-1.,0.,0.));
#1893=DIRECTION('',(0.,0.,1.));
#1894=DIRECTION('',(-1.,0.,0.));
#1895=DIRECTION('',(0.,0.,1.));
#1896=DIRECTION('center_axis',(1.,0.,0.));
#1897=DIRECTION('ref_axis',(0.,1.,0.));
#1898=DIRECTION('',(0.,1.,0.));
#1899=DIRECTION('',(0.,1.,0.));
#1900=DIRECTION('',(0.,0.,1.));
#1901=DIRECTION('center_axis',(0.,-1.,0.));
#1902=DIRECTION('ref_axis',(1.,0.,0.));
#1903=DIRECTION('',(1.,0.,0.));
#1904=DIRECTION('',(1.,0.,0.));
#1905=DIRECTION('',(0.,0.,1.));
#1906=DIRECTION('center_axis',(-1.,0.,0.));
#1907=DIRECTION('ref_axis',(0.,-1.,0.));
#1908=DIRECTION('',(0.,-1.,0.));
#1909=DIRECTION('',(0.,-1.,0.));
#1910=DIRECTION('center_axis',(0.,0.,1.));
#1911=DIRECTION('ref_axis',(1.,0.,0.));
#1912=DIRECTION('center_axis',(0.,0.,1.));
#1913=DIRECTION('ref_axis',(1.,0.,0.));
#1914=DIRECTION('center_axis',(0.,1.,0.));
#1915=DIRECTION('ref_axis',(0.,0.,1.));
#1916=DIRECTION('',(0.,0.,1.));
#1917=DIRECTION('',(1.,0.,0.));
#1918=DIRECTION('',(0.,0.,1.));
#1919=DIRECTION('',(1.,0.,0.));
#1920=DIRECTION('center_axis',(0.,0.,-1.));
#1921=DIRECTION('ref_axis',(0.,1.,0.));
#1922=DIRECTION('',(0.,1.,0.));
#1923=DIRECTION('',(0.,1.,0.));
#1924=DIRECTION('',(1.,0.,0.));
#1925=DIRECTION('center_axis',(0.,-1.,0.));
#1926=DIRECTION('ref_axis',(0.,0.,-1.));
#1927=DIRECTION('',(0.,0.,-1.));
#1928=DIRECTION('',(0.,0.,-1.));
#1929=DIRECTION('',(1.,0.,0.));
#1930=DIRECTION('center_axis',(0.,0.,1.));
#1931=DIRECTION('ref_axis',(0.,-1.,0.));
#1932=DIRECTION('',(0.,-1.,0.));
#1933=DIRECTION('',(0.,-1.,0.));
#1934=DIRECTION('center_axis',(1.,0.,0.));
#1935=DIRECTION('ref_axis',(0.,0.,-1.));
#1936=DIRECTION('center_axis',(1.,0.,0.));
#1937=DIRECTION('ref_axis',(0.,0.,-1.));
#1938=DIRECTION('center_axis',(0.,1.,0.));
#1939=DIRECTION('ref_axis',(1.,0.,0.));
#1940=DIRECTION('center_axis',(0.,1.,0.));
#1941=DIRECTION('ref_axis',(1.,0.,0.));
#1942=DIRECTION('',(0.,-1.,0.));
#1943=DIRECTION('center_axis',(0.,1.,0.));
#1944=DIRECTION('ref_axis',(1.,0.,0.));
#1945=DIRECTION('center_axis',(0.,1.,0.));
#1946=DIRECTION('ref_axis',(1.,0.,0.));
#1947=DIRECTION('center_axis',(0.,1.,0.));
#1948=DIRECTION('ref_axis',(1.,0.,0.));
#1949=CARTESIAN_POINT('',(0.,0.,0.));
#1950=CARTESIAN_POINT('Origin',(380.5,4.,0.));
#1951=CARTESIAN_POINT('',(380.5,4.,0.));
#1952=CARTESIAN_POINT('',(0.,4.,0.));
#1953=CARTESIAN_POINT('',(380.5,4.,0.));
#1954=CARTESIAN_POINT('',(0.,4.,690.));
#1955=CARTESIAN_POINT('',(0.,4.,0.));
#1956=CARTESIAN_POINT('',(380.5,4.,690.));
#1957=CARTESIAN_POINT('',(380.5,4.,690.));
#1958=CARTESIAN_POINT('',(380.5,4.,0.));
#1959=CARTESIAN_POINT('Origin',(380.5,0.,0.));
#1960=CARTESIAN_POINT('',(380.5,0.,0.));
#1961=CARTESIAN_POINT('',(380.5,0.,0.));
#1962=CARTESIAN_POINT('',(380.5,0.,690.));
#1963=CARTESIAN_POINT('',(380.5,0.,690.));
#1964=CARTESIAN_POINT('',(380.5,0.,0.));
#1965=CARTESIAN_POINT('Origin',(0.,0.,0.));
#1966=CARTESIAN_POINT('',(0.,0.,0.));
#1967=CARTESIAN_POINT('',(0.,0.,0.));
#1968=CARTESIAN_POINT('',(0.,0.,690.));
#1969=CARTESIAN_POINT('',(0.,0.,690.));
#1970=CARTESIAN_POINT('',(0.,0.,0.));
#1971=CARTESIAN_POINT('Origin',(0.,4.,0.));
#1972=CARTESIAN_POINT('',(0.,4.,0.));
#1973=CARTESIAN_POINT('',(0.,4.,690.));
#1974=CARTESIAN_POINT('Origin',(190.25,2.,690.));
#1975=CARTESIAN_POINT('Origin',(190.25,2.,0.));
#1976=CARTESIAN_POINT('Origin',(380.5,166.,0.));
#1977=CARTESIAN_POINT('',(380.5,166.,0.));
#1978=CARTESIAN_POINT('',(0.,166.,0.));
#1979=CARTESIAN_POINT('',(380.5,166.,0.));
#1980=CARTESIAN_POINT('',(0.,166.,690.));
#1981=CARTESIAN_POINT('',(0.,166.,0.));
#1982=CARTESIAN_POINT('',(380.5,166.,690.));
#1983=CARTESIAN_POINT('',(380.5,166.,690.));
#1984=CARTESIAN_POINT('',(380.5,166.,0.));
#1985=CARTESIAN_POINT('Origin',(380.5,162.,0.));
#1986=CARTESIAN_POINT('',(380.5,162.,0.));
#1987=CARTESIAN_POINT('',(380.5,162.,0.));
#1988=CARTESIAN_POINT('',(380.5,162.,690.));
#1989=CARTESIAN_POINT('',(380.5,162.,690.));
#1990=CARTESIAN_POINT('',(380.5,162.,0.));
#1991=CARTESIAN_POINT('Origin',(0.,162.,0.));
#1992=CARTESIAN_POINT('',(0.,162.,0.));
#1993=CARTESIAN_POINT('',(0.,162.,0.));
#1994=CARTESIAN_POINT('',(0.,162.,690.));
#1995=CARTESIAN_POINT('',(0.,162.,690.));
#1996=CARTESIAN_POINT('',(0.,162.,0.));
#1997=CARTESIAN_POINT('Origin',(0.,166.,0.));
#1998=CARTESIAN_POINT('',(0.,166.,0.));
#1999=CARTESIAN_POINT('',(0.,166.,690.));
#2000=CARTESIAN_POINT('Origin',(190.25,164.,690.));
#2001=CARTESIAN_POINT('Origin',(190.25,164.,0.));
#2002=CARTESIAN_POINT('Origin',(4.,166.,0.));
#2003=CARTESIAN_POINT('',(4.,166.,0.));
#2004=CARTESIAN_POINT('',(0.,166.,0.));
#2005=CARTESIAN_POINT('',(4.,166.,0.));
#2006=CARTESIAN_POINT('',(0.,166.,690.));
#2007=CARTESIAN_POINT('',(0.,166.,0.));
#2008=CARTESIAN_POINT('',(4.,166.,690.));
#2009=CARTESIAN_POINT('',(4.,166.,690.));
#2010=CARTESIAN_POINT('',(4.,166.,0.));
#2011=CARTESIAN_POINT('Origin',(4.,0.,0.));
#2012=CARTESIAN_POINT('',(4.,0.,0.));
#2013=CARTESIAN_POINT('',(4.,0.,0.));
#2014=CARTESIAN_POINT('',(4.,0.,690.));
#2015=CARTESIAN_POINT('',(4.,0.,690.));
#2016=CARTESIAN_POINT('',(4.,0.,0.));
#2017=CARTESIAN_POINT('Origin',(0.,0.,0.));
#2018=CARTESIAN_POINT('',(0.,0.,0.));
#2019=CARTESIAN_POINT('',(0.,0.,0.));
#2020=CARTESIAN_POINT('',(0.,0.,690.));
#2021=CARTESIAN_POINT('',(0.,0.,690.));
#2022=CARTESIAN_POINT('',(0.,0.,0.));
#2023=CARTESIAN_POINT('Origin',(0.,166.,0.));
#2024=CARTESIAN_POINT('',(0.,166.,0.));
#2025=CARTESIAN_POINT('',(0.,166.,690.));
#2026=CARTESIAN_POINT('Origin',(2.,83.,690.));
#2027=CARTESIAN_POINT('Origin',(2.,83.,0.));
#2028=CARTESIAN_POINT('Origin',(380.5,166.,0.));
#2029=CARTESIAN_POINT('',(380.5,166.,0.));
#2030=CARTESIAN_POINT('',(376.5,166.,0.));
#2031=CARTESIAN_POINT('',(380.5,166.,0.));
#2032=CARTESIAN_POINT('',(376.5,166.,690.));
#2033=CARTESIAN_POINT('',(376.5,166.,0.));
#2034=CARTESIAN_POINT('',(380.5,166.,690.));
#2035=CARTESIAN_POINT('',(380.5,166.,690.));
#2036=CARTESIAN_POINT('',(380.5,166.,0.));
#2037=CARTESIAN_POINT('Origin',(380.5,0.,0.));
#2038=CARTESIAN_POINT('',(380.5,0.,0.));
#2039=CARTESIAN_POINT('',(380.5,0.,0.));
#2040=CARTESIAN_POINT('',(380.5,0.,690.));
#2041=CARTESIAN_POINT('',(380.5,0.,690.));
#2042=CARTESIAN_POINT('',(380.5,0.,0.));
#2043=CARTESIAN_POINT('Origin',(376.5,0.,0.));
#2044=CARTESIAN_POINT('',(376.5,0.,0.));
#2045=CARTESIAN_POINT('',(376.5,0.,0.));
#2046=CARTESIAN_POINT('',(376.5,0.,690.));
#2047=CARTESIAN_POINT('',(376.5,0.,690.));
#2048=CARTESIAN_POINT('',(376.5,0.,0.));
#2049=CARTESIAN_POINT('Origin',(376.5,166.,0.));
#2050=CARTESIAN_POINT('',(376.5,166.,0.));
#2051=CARTESIAN_POINT('',(376.5,166.,690.));
#2052=CARTESIAN_POINT('Origin',(378.5,83.,690.));
#2053=CARTESIAN_POINT('Origin',(378.5,83.,0.));
#2054=CARTESIAN_POINT('Origin',(380.5,166.,0.));
#2055=CARTESIAN_POINT('',(380.5,166.,0.));
#2056=CARTESIAN_POINT('',(0.,166.,0.));
#2057=CARTESIAN_POINT('',(380.5,166.,0.));
#2058=CARTESIAN_POINT('',(0.,166.,4.));
#2059=CARTESIAN_POINT('',(0.,166.,0.));
#2060=CARTESIAN_POINT('',(380.5,166.,4.));
#2061=CARTESIAN_POINT('',(380.5,166.,4.));
#2062=CARTESIAN_POINT('',(380.5,166.,0.));
#2063=CARTESIAN_POINT('Origin',(380.5,0.,0.));
#2064=CARTESIAN_POINT('',(380.5,0.,0.));
#2065=CARTESIAN_POINT('',(380.5,0.,0.));
#2066=CARTESIAN_POINT('',(380.5,0.,4.));
#2067=CARTESIAN_POINT('',(380.5,0.,4.));
#2068=CARTESIAN_POINT('',(380.5,0.,0.));
#2069=CARTESIAN_POINT('Origin',(0.,0.,0.));
#2070=CARTESIAN_POINT('',(0.,0.,0.));
#2071=CARTESIAN_POINT('',(0.,0.,0.));
#2072=CARTESIAN_POINT('',(0.,0.,4.));
#2073=CARTESIAN_POINT('',(0.,0.,4.));
#2074=CARTESIAN_POINT('',(0.,0.,0.));
#2075=CARTESIAN_POINT('Origin',(0.,166.,0.));
#2076=CARTESIAN_POINT('',(0.,166.,0.));
#2077=CARTESIAN_POINT('',(0.,166.,4.));
#2078=CARTESIAN_POINT('Origin',(190.25,83.,4.));
#2079=CARTESIAN_POINT('Origin',(190.25,83.,0.));
#2080=CARTESIAN_POINT('Origin',(380.5,166.,0.));
#2081=CARTESIAN_POINT('',(380.5,166.,0.));
#2082=CARTESIAN_POINT('',(0.,166.,0.));
#2083=CARTESIAN_POINT('',(380.5,166.,0.));
#2084=CARTESIAN_POINT('',(0.,166.,4.));
#2085=CARTESIAN_POINT('',(0.,166.,0.));
#2086=CARTESIAN_POINT('',(380.5,166.,4.));
#2087=CARTESIAN_POINT('',(380.5,166.,4.));
#2088=CARTESIAN_POINT('',(380.5,166.,0.));
#2089=CARTESIAN_POINT('Origin',(380.5,0.,0.));
#2090=CARTESIAN_POINT('',(380.5,0.,0.));
#2091=CARTESIAN_POINT('',(380.5,0.,0.));
#2092=CARTESIAN_POINT('',(380.5,0.,4.));
#2093=CARTESIAN_POINT('',(380.5,0.,4.));
#2094=CARTESIAN_POINT('',(380.5,0.,0.));
#2095=CARTESIAN_POINT('Origin',(0.,0.,0.));
#2096=CARTESIAN_POINT('',(0.,0.,0.));
#2097=CARTESIAN_POINT('',(0.,0.,0.));
#2098=CARTESIAN_POINT('',(0.,0.,4.));
#2099=CARTESIAN_POINT('',(0.,0.,4.));
#2100=CARTESIAN_POINT('',(0.,0.,0.));
#2101=CARTESIAN_POINT('Origin',(0.,166.,0.));
#2102=CARTESIAN_POINT('',(0.,166.,0.));
#2103=CARTESIAN_POINT('',(0.,166.,4.));
#2104=CARTESIAN_POINT('Origin',(190.25,83.,4.));
#2105=CARTESIAN_POINT('Origin',(190.25,83.,0.));
#2106=CARTESIAN_POINT('Origin',(375.,83.5,0.));
#2107=CARTESIAN_POINT('',(375.,83.5,0.));
#2108=CARTESIAN_POINT('',(25.,83.5,0.));
#2109=CARTESIAN_POINT('',(375.,83.5,0.));
#2110=CARTESIAN_POINT('',(25.,83.5,620.));
#2111=CARTESIAN_POINT('',(25.,83.5,0.));
#2112=CARTESIAN_POINT('',(375.,83.5,620.));
#2113=CARTESIAN_POINT('',(375.,83.5,620.));
#2114=CARTESIAN_POINT('',(375.,83.5,0.));
#2115=CARTESIAN_POINT('Origin',(375.,82.5,0.));
#2116=CARTESIAN_POINT('',(375.,82.5,0.));
#2117=CARTESIAN_POINT('',(375.,82.5,0.));
#2118=CARTESIAN_POINT('',(375.,82.5,620.));
#2119=CARTESIAN_POINT('',(375.,82.5,620.));
#2120=CARTESIAN_POINT('',(375.,82.5,0.));
#2121=CARTESIAN_POINT('Origin',(25.,82.5,0.));
#2122=CARTESIAN_POINT('',(25.,82.5,0.));
#2123=CARTESIAN_POINT('',(25.,82.5,0.));
#2124=CARTESIAN_POINT('',(25.,82.5,620.));
#2125=CARTESIAN_POINT('',(25.,82.5,620.));
#2126=CARTESIAN_POINT('',(25.,82.5,0.));
#2127=CARTESIAN_POINT('Origin',(25.,83.5,0.));
#2128=CARTESIAN_POINT('',(25.,83.5,0.));
#2129=CARTESIAN_POINT('',(25.,83.5,620.));
#2130=CARTESIAN_POINT('Origin',(200.,83.,620.));
#2131=CARTESIAN_POINT('Origin',(200.,83.,0.));
#2132=CARTESIAN_POINT('Origin',(380.5,162.,0.));
#2133=CARTESIAN_POINT('',(380.5,162.,0.));
#2134=CARTESIAN_POINT('',(0.,162.,0.));
#2135=CARTESIAN_POINT('',(380.5,162.,0.));
#2136=CARTESIAN_POINT('',(0.,162.,6.));
#2137=CARTESIAN_POINT('',(0.,162.,0.));
#2138=CARTESIAN_POINT('',(380.5,162.,6.));
#2139=CARTESIAN_POINT('',(380.5,162.,6.));
#2140=CARTESIAN_POINT('',(380.5,162.,0.));
#2141=CARTESIAN_POINT('Origin',(380.5,4.,0.));
#2142=CARTESIAN_POINT('',(380.5,4.,0.));
#2143=CARTESIAN_POINT('',(380.5,4.,0.));
#2144=CARTESIAN_POINT('',(380.5,4.,6.));
#2145=CARTESIAN_POINT('',(380.5,4.,6.));
#2146=CARTESIAN_POINT('',(380.5,4.,0.));
#2147=CARTESIAN_POINT('Origin',(0.,4.,0.));
#2148=CARTESIAN_POINT('',(0.,4.,0.));
#2149=CARTESIAN_POINT('',(0.,4.,0.));
#2150=CARTESIAN_POINT('',(0.,4.,6.));
#2151=CARTESIAN_POINT('',(0.,4.,6.));
#2152=CARTESIAN_POINT('',(0.,4.,0.));
#2153=CARTESIAN_POINT('Origin',(0.,162.,0.));
#2154=CARTESIAN_POINT('',(0.,162.,0.));
#2155=CARTESIAN_POINT('',(0.,162.,6.));
#2156=CARTESIAN_POINT('Origin',(190.25,83.,6.));
#2157=CARTESIAN_POINT('Origin',(190.25,83.,0.));
#2158=CARTESIAN_POINT('Origin',(360.,146.,0.));
#2159=CARTESIAN_POINT('',(360.,146.,0.));
#2160=CARTESIAN_POINT('',(20.,146.,0.));
#2161=CARTESIAN_POINT('',(360.,146.,0.));
#2162=CARTESIAN_POINT('',(20.,146.,2.));
#2163=CARTESIAN_POINT('',(20.,146.,0.));
#2164=CARTESIAN_POINT('',(360.,146.,2.));
#2165=CARTESIAN_POINT('',(360.,146.,2.));
#2166=CARTESIAN_POINT('',(360.,146.,0.));
#2167=CARTESIAN_POINT('Origin',(360.,20.,0.));
#2168=CARTESIAN_POINT('',(360.,20.,0.));
#2169=CARTESIAN_POINT('',(360.,20.,0.));
#2170=CARTESIAN_POINT('',(360.,20.,2.));
#2171=CARTESIAN_POINT('',(360.,20.,2.));
#2172=CARTESIAN_POINT('',(360.,20.,0.));
#2173=CARTESIAN_POINT('Origin',(20.,20.,0.));
#2174=CARTESIAN_POINT('',(20.,20.,0.));
#2175=CARTESIAN_POINT('',(20.,20.,0.));
#2176=CARTESIAN_POINT('',(20.,20.,2.));
#2177=CARTESIAN_POINT('',(20.,20.,2.));
#2178=CARTESIAN_POINT('',(20.,20.,0.));
#2179=CARTESIAN_POINT('Origin',(20.,146.,0.));
#2180=CARTESIAN_POINT('',(20.,146.,0.));
#2181=CARTESIAN_POINT('',(20.,146.,2.));
#2182=CARTESIAN_POINT('Origin',(190.,83.,2.));
#2183=CARTESIAN_POINT('Origin',(190.,83.,0.));
#2184=CARTESIAN_POINT('Origin',(360.,146.,0.));
#2185=CARTESIAN_POINT('',(360.,146.,0.));
#2186=CARTESIAN_POINT('',(20.,146.,0.));
#2187=CARTESIAN_POINT('',(360.,146.,0.));
#2188=CARTESIAN_POINT('',(20.,146.,2.));
#2189=CARTESIAN_POINT('',(20.,146.,0.));
#2190=CARTESIAN_POINT('',(360.,146.,2.));
#2191=CARTESIAN_POINT('',(360.,146.,2.));
#2192=CARTESIAN_POINT('',(360.,146.,0.));
#2193=CARTESIAN_POINT('Origin',(360.,20.,0.));
#2194=CARTESIAN_POINT('',(360.,20.,0.));
#2195=CARTESIAN_POINT('',(360.,20.,0.));
#2196=CARTESIAN_POINT('',(360.,20.,2.));
#2197=CARTESIAN_POINT('',(360.,20.,2.));
#2198=CARTESIAN_POINT('',(360.,20.,0.));
#2199=CARTESIAN_POINT('Origin',(20.,20.,0.));
#2200=CARTESIAN_POINT('',(20.,20.,0.));
#2201=CARTESIAN_POINT('',(20.,20.,0.));
#2202=CARTESIAN_POINT('',(20.,20.,2.));
#2203=CARTESIAN_POINT('',(20.,20.,2.));
#2204=CARTESIAN_POINT('',(20.,20.,0.));
#2205=CARTESIAN_POINT('Origin',(20.,146.,0.));
#2206=CARTESIAN_POINT('',(20.,146.,0.));
#2207=CARTESIAN_POINT('',(20.,146.,2.));
#2208=CARTESIAN_POINT('Origin',(190.,83.,2.));
#2209=CARTESIAN_POINT('Origin',(190.,83.,0.));
#2210=CARTESIAN_POINT('Origin',(360.,146.,0.));
#2211=CARTESIAN_POINT('',(360.,146.,0.));
#2212=CARTESIAN_POINT('',(20.,146.,0.));
#2213=CARTESIAN_POINT('',(360.,146.,0.));
#2214=CARTESIAN_POINT('',(20.,146.,2.));
#2215=CARTESIAN_POINT('',(20.,146.,0.));
#2216=CARTESIAN_POINT('',(360.,146.,2.));
#2217=CARTESIAN_POINT('',(360.,146.,2.));
#2218=CARTESIAN_POINT('',(360.,146.,0.));
#2219=CARTESIAN_POINT('Origin',(360.,20.,0.));
#2220=CARTESIAN_POINT('',(360.,20.,0.));
#2221=CARTESIAN_POINT('',(360.,20.,0.));
#2222=CARTESIAN_POINT('',(360.,20.,2.));
#2223=CARTESIAN_POINT('',(360.,20.,2.));
#2224=CARTESIAN_POINT('',(360.,20.,0.));
#2225=CARTESIAN_POINT('Origin',(20.,20.,0.));
#2226=CARTESIAN_POINT('',(20.,20.,0.));
#2227=CARTESIAN_POINT('',(20.,20.,0.));
#2228=CARTESIAN_POINT('',(20.,20.,2.));
#2229=CARTESIAN_POINT('',(20.,20.,2.));
#2230=CARTESIAN_POINT('',(20.,20.,0.));
#2231=CARTESIAN_POINT('Origin',(20.,146.,0.));
#2232=CARTESIAN_POINT('',(20.,146.,0.));
#2233=CARTESIAN_POINT('',(20.,146.,2.));
#2234=CARTESIAN_POINT('Origin',(190.,83.,2.));
#2235=CARTESIAN_POINT('Origin',(190.,83.,0.));
#2236=CARTESIAN_POINT('Origin',(360.,146.,0.));
#2237=CARTESIAN_POINT('',(360.,146.,0.));
#2238=CARTESIAN_POINT('',(20.,146.,0.));
#2239=CARTESIAN_POINT('',(360.,146.,0.));
#2240=CARTESIAN_POINT('',(20.,146.,2.));
#2241=CARTESIAN_POINT('',(20.,146.,0.));
#2242=CARTESIAN_POINT('',(360.,146.,2.));
#2243=CARTESIAN_POINT('',(360.,146.,2.));
#2244=CARTESIAN_POINT('',(360.,146.,0.));
#2245=CARTESIAN_POINT('Origin',(360.,20.,0.));
#2246=CARTESIAN_POINT('',(360.,20.,0.));
#2247=CARTESIAN_POINT('',(360.,20.,0.));
#2248=CARTESIAN_POINT('',(360.,20.,2.));
#2249=CARTESIAN_POINT('',(360.,20.,2.));
#2250=CARTESIAN_POINT('',(360.,20.,0.));
#2251=CARTESIAN_POINT('Origin',(20.,20.,0.));
#2252=CARTESIAN_POINT('',(20.,20.,0.));
#2253=CARTESIAN_POINT('',(20.,20.,0.));
#2254=CARTESIAN_POINT('',(20.,20.,2.));
#2255=CARTESIAN_POINT('',(20.,20.,2.));
#2256=CARTESIAN_POINT('',(20.,20.,0.));
#2257=CARTESIAN_POINT('Origin',(20.,146.,0.));
#2258=CARTESIAN_POINT('',(20.,146.,0.));
#2259=CARTESIAN_POINT('',(20.,146.,2.));
#2260=CARTESIAN_POINT('Origin',(190.,83.,2.));
#2261=CARTESIAN_POINT('Origin',(190.,83.,0.));
#2262=CARTESIAN_POINT('Origin',(360.,146.,0.));
#2263=CARTESIAN_POINT('',(360.,146.,0.));
#2264=CARTESIAN_POINT('',(20.,146.,0.));
#2265=CARTESIAN_POINT('',(360.,146.,0.));
#2266=CARTESIAN_POINT('',(20.,146.,2.));
#2267=CARTESIAN_POINT('',(20.,146.,0.));
#2268=CARTESIAN_POINT('',(360.,146.,2.));
#2269=CARTESIAN_POINT('',(360.,146.,2.));
#2270=CARTESIAN_POINT('',(360.,146.,0.));
#2271=CARTESIAN_POINT('Origin',(360.,20.,0.));
#2272=CARTESIAN_POINT('',(360.,20.,0.));
#2273=CARTESIAN_POINT('',(360.,20.,0.));
#2274=CARTESIAN_POINT('',(360.,20.,2.));
#2275=CARTESIAN_POINT('',(360.,20.,2.));
#2276=CARTESIAN_POINT('',(360.,20.,0.));
#2277=CARTESIAN_POINT('Origin',(20.,20.,0.));
#2278=CARTESIAN_POINT('',(20.,20.,0.));
#2279=CARTESIAN_POINT('',(20.,20.,0.));
#2280=CARTESIAN_POINT('',(20.,20.,2.));
#2281=CARTESIAN_POINT('',(20.,20.,2.));
#2282=CARTESIAN_POINT('',(20.,20.,0.));
#2283=CARTESIAN_POINT('Origin',(20.,146.,0.));
#2284=CARTESIAN_POINT('',(20.,146.,0.));
#2285=CARTESIAN_POINT('',(20.,146.,2.));
#2286=CARTESIAN_POINT('Origin',(190.,83.,2.));
#2287=CARTESIAN_POINT('Origin',(190.,83.,0.));
#2288=CARTESIAN_POINT('Origin',(360.,146.,0.));
#2289=CARTESIAN_POINT('',(360.,146.,0.));
#2290=CARTESIAN_POINT('',(20.,146.,0.));
#2291=CARTESIAN_POINT('',(360.,146.,0.));
#2292=CARTESIAN_POINT('',(20.,146.,2.));
#2293=CARTESIAN_POINT('',(20.,146.,0.));
#2294=CARTESIAN_POINT('',(360.,146.,2.));
#2295=CARTESIAN_POINT('',(360.,146.,2.));
#2296=CARTESIAN_POINT('',(360.,146.,0.));
#2297=CARTESIAN_POINT('Origin',(360.,20.,0.));
#2298=CARTESIAN_POINT('',(360.,20.,0.));
#2299=CARTESIAN_POINT('',(360.,20.,0.));
#2300=CARTESIAN_POINT('',(360.,20.,2.));
#2301=CARTESIAN_POINT('',(360.,20.,2.));
#2302=CARTESIAN_POINT('',(360.,20.,0.));
#2303=CARTESIAN_POINT('Origin',(20.,20.,0.));
#2304=CARTESIAN_POINT('',(20.,20.,0.));
#2305=CARTESIAN_POINT('',(20.,20.,0.));
#2306=CARTESIAN_POINT('',(20.,20.,2.));
#2307=CARTESIAN_POINT('',(20.,20.,2.));
#2308=CARTESIAN_POINT('',(20.,20.,0.));
#2309=CARTESIAN_POINT('Origin',(20.,146.,0.));
#2310=CARTESIAN_POINT('',(20.,146.,0.));
#2311=CARTESIAN_POINT('',(20.,146.,2.));
#2312=CARTESIAN_POINT('Origin',(190.,83.,2.));
#2313=CARTESIAN_POINT('Origin',(190.,83.,0.));
#2314=CARTESIAN_POINT('Origin',(0.,626.,-160.));
#2315=CARTESIAN_POINT('',(0.,626.,-160.));
#2316=CARTESIAN_POINT('',(0.,626.,-20.));
#2317=CARTESIAN_POINT('',(0.,626.,-160.));
#2318=CARTESIAN_POINT('',(10.,626.,-20.));
#2319=CARTESIAN_POINT('',(0.,626.,-20.));
#2320=CARTESIAN_POINT('',(10.,626.,-160.));
#2321=CARTESIAN_POINT('',(10.,626.,-160.));
#2322=CARTESIAN_POINT('',(0.,626.,-160.));
#2323=CARTESIAN_POINT('Origin',(0.,46.,-160.));
#2324=CARTESIAN_POINT('',(0.,46.,-160.));
#2325=CARTESIAN_POINT('',(0.,46.,-160.));
#2326=CARTESIAN_POINT('',(10.,46.,-160.));
#2327=CARTESIAN_POINT('',(10.,46.,-160.));
#2328=CARTESIAN_POINT('',(0.,46.,-160.));
#2329=CARTESIAN_POINT('Origin',(0.,46.,-20.));
#2330=CARTESIAN_POINT('',(0.,46.,-20.));
#2331=CARTESIAN_POINT('',(0.,46.,-20.));
#2332=CARTESIAN_POINT('',(10.,46.,-20.));
#2333=CARTESIAN_POINT('',(10.,46.,-20.));
#2334=CARTESIAN_POINT('',(0.,46.,-20.));
#2335=CARTESIAN_POINT('Origin',(0.,626.,-20.));
#2336=CARTESIAN_POINT('',(0.,626.,-20.));
#2337=CARTESIAN_POINT('',(10.,626.,-20.));
#2338=CARTESIAN_POINT('Origin',(10.,336.,-90.));
#2339=CARTESIAN_POINT('Origin',(0.,336.,-90.));
#2340=CARTESIAN_POINT('Origin',(200.,0.,0.));
#2341=CARTESIAN_POINT('',(190.,166.,1.22464679914735E-15));
#2342=CARTESIAN_POINT('Origin',(200.,166.,0.));
#2343=CARTESIAN_POINT('',(190.,0.,1.22464679914735E-15));
#2344=CARTESIAN_POINT('',(190.,0.,1.22464679914735E-15));
#2345=CARTESIAN_POINT('Origin',(200.,0.,0.));
#2346=CARTESIAN_POINT('Origin',(200.,166.,0.));
#2347=CARTESIAN_POINT('Origin',(200.,0.,0.));
#2348=UNCERTAINTY_MEASURE_WITH_UNIT(LENGTH_MEASURE(0.01),#2352,
'DISTANCE_ACCURACY_VALUE',
'Maximum model space distance between geometric entities at asserted c
onnectivities');
#2349=UNCERTAINTY_MEASURE_WITH_UNIT(LENGTH_MEASURE(0.01),#2352,
'DISTANCE_ACCURACY_VALUE',
'Maximum model space distance between geometric entities at asserted c
onnectivities');
#2350=(
GEOMETRIC_REPRESENTATION_CONTEXT(3)
GLOBAL_UNCERTAINTY_ASSIGNED_CONTEXT((#2348))
GLOBAL_UNIT_ASSIGNED_CONTEXT((#2352,#2354,#2355))
REPRESENTATION_CONTEXT('','3D')
);
#2351=(
GEOMETRIC_REPRESENTATION_CONTEXT(3)
GLOBAL_UNCERTAINTY_ASSIGNED_CONTEXT((#2349))
GLOBAL_UNIT_ASSIGNED_CONTEXT((#2352,#2354,#2355))
REPRESENTATION_CONTEXT('','3D')
);
#2352=(
LENGTH_UNIT()
NAMED_UNIT(*)
SI_UNIT(.MILLI.,.METRE.)
);
#2353=(
LENGTH_UNIT()
NAMED_UNIT(*)
SI_UNIT($,.METRE.)
);
#2354=(
NAMED_UNIT(*)
PLANE_ANGLE_UNIT()
SI_UNIT($,.RADIAN.)
);
#2355=(
NAMED_UNIT(*)
SI_UNIT($,.STERADIAN.)
SOLID_ANGLE_UNIT()
);
#2356=SHAPE_DEFINITION_REPRESENTATION(#2357,#2358);
#2357=PRODUCT_DEFINITION_SHAPE('',$,#2360);
#2358=SHAPE_REPRESENTATION('',(#1480),#2350);
#2359=PRODUCT_DEFINITION_CONTEXT('part definition',#2364,'design');
#2360=PRODUCT_DEFINITION('EMOCD_Magazine_Cassette_Gen1',
'EMOCD_Magazine_Cassette_Gen1 v1',#2361,#2359);
#2361=PRODUCT_DEFINITION_FORMATION('',$,#2366);
#2362=PRODUCT_RELATED_PRODUCT_CATEGORY(
'EMOCD_Magazine_Cassette_Gen1 v1','EMOCD_Magazine_Cassette_Gen1 v1',(#2366));
#2363=APPLICATION_PROTOCOL_DEFINITION('international standard',
'automotive_design',2009,#2364);
#2364=APPLICATION_CONTEXT(
'Core Data for Automotive Mechanical Design Process');
#2365=PRODUCT_CONTEXT('part definition',#2364,'mechanical');
#2366=PRODUCT('EMOCD_Magazine_Cassette_Gen1',
'EMOCD_Magazine_Cassette_Gen1 v1',$,(#2365));
#2367=PRESENTATION_STYLE_ASSIGNMENT((#2368));
#2368=SURFACE_STYLE_USAGE(.BOTH.,#2369);
#2369=SURFACE_SIDE_STYLE('',(#2370));
#2370=SURFACE_STYLE_FILL_AREA(#2371);
#2371=FILL_AREA_STYLE('Steel - Satin',(#2372));
#2372=FILL_AREA_STYLE_COLOUR('Steel - Satin',#2373);
#2373=COLOUR_RGB('Steel - Satin',0.627450980392157,0.627450980392157,0.627450980392157);
ENDSEC;
END-ISO-10303-21;
