ISO-10303-21;
HEADER;
/* Generated by software containing ST-Developer
 * from STEP Tools, Inc. (www.steptools.com) 
 */

FILE_DESCRIPTION(
/* description */ (''),
/* implementation_level */ '2;1');

FILE_NAME(
/* name */ 'EMOCD_Enclosure_Gen1.step',
/* time_stamp */ '2026-07-28T19:15:01+05:30',
/* author */ (''),
/* organization */ (''),
/* preprocessor_version */ 'ST-DEVELOPER v20.1',
/* originating_system */ 'Autodesk Translation Framework v15.8.0.0',
/* authorisation */ '');

FILE_SCHEMA (('AUTOMOTIVE_DESIGN { 1 0 10303 214 3 1 1 }'));
ENDSEC;

DATA;
#10=MECHANICAL_DESIGN_GEOMETRIC_PRESENTATION_REPRESENTATION('',(#18,#19,
#20,#21,#22,#23,#24,#25,#26,#27,#28),#1897);
#11=SHAPE_REPRESENTATION_RELATIONSHIP('SRR','None',#1904,#12);
#12=ADVANCED_BREP_SHAPE_REPRESENTATION('',(#29,#30,#31,#32,#33,#34,#35,
#36,#37,#38,#39),#1896);
#13=FACE_BOUND('',#153,.T.);
#14=FACE_BOUND('',#155,.T.);
#15=CIRCLE('',#1227,233.);
#16=CIRCLE('',#1228,233.);
#17=CYLINDRICAL_SURFACE('',#1226,233.);
#18=STYLED_ITEM('',(#1913),#29);
#19=STYLED_ITEM('',(#1913),#30);
#20=STYLED_ITEM('',(#1913),#31);
#21=STYLED_ITEM('',(#1913),#32);
#22=STYLED_ITEM('',(#1913),#33);
#23=STYLED_ITEM('',(#1913),#34);
#24=STYLED_ITEM('',(#1913),#35);
#25=STYLED_ITEM('',(#1913),#36);
#26=STYLED_ITEM('',(#1913),#37);
#27=STYLED_ITEM('',(#1913),#38);
#28=STYLED_ITEM('',(#1913),#39);
#29=MANIFOLD_SOLID_BREP('Skin_Top',#1175);
#30=MANIFOLD_SOLID_BREP('Skin_Bottom',#1176);
#31=MANIFOLD_SOLID_BREP('Skin_Port',#1177);
#32=MANIFOLD_SOLID_BREP('Skin_Stbd',#1178);
#33=MANIFOLD_SOLID_BREP('Skin_Aft_Horseshoe',#1179);
#34=MANIFOLD_SOLID_BREP('MuzzlePanel_with_Aperture',#1180);
#35=MANIFOLD_SOLID_BREP('Radiator_Top',#1181);
#36=MANIFOLD_SOLID_BREP('Bay_SupercapBank',#1182);
#37=MANIFOLD_SOLID_BREP('Bay_PPU_SiC',#1183);
#38=MANIFOLD_SOLID_BREP('Bay_Avionics',#1184);
#39=MANIFOLD_SOLID_BREP('Bay_IMU',#1185);
#40=FACE_OUTER_BOUND('',#112,.T.);
#41=FACE_OUTER_BOUND('',#113,.T.);
#42=FACE_OUTER_BOUND('',#114,.T.);
#43=FACE_OUTER_BOUND('',#115,.T.);
#44=FACE_OUTER_BOUND('',#116,.T.);
#45=FACE_OUTER_BOUND('',#117,.T.);
#46=FACE_OUTER_BOUND('',#118,.T.);
#47=FACE_OUTER_BOUND('',#119,.T.);
#48=FACE_OUTER_BOUND('',#120,.T.);
#49=FACE_OUTER_BOUND('',#121,.T.);
#50=FACE_OUTER_BOUND('',#122,.T.);
#51=FACE_OUTER_BOUND('',#123,.T.);
#52=FACE_OUTER_BOUND('',#124,.T.);
#53=FACE_OUTER_BOUND('',#125,.T.);
#54=FACE_OUTER_BOUND('',#126,.T.);
#55=FACE_OUTER_BOUND('',#127,.T.);
#56=FACE_OUTER_BOUND('',#128,.T.);
#57=FACE_OUTER_BOUND('',#129,.T.);
#58=FACE_OUTER_BOUND('',#130,.T.);
#59=FACE_OUTER_BOUND('',#131,.T.);
#60=FACE_OUTER_BOUND('',#132,.T.);
#61=FACE_OUTER_BOUND('',#133,.T.);
#62=FACE_OUTER_BOUND('',#134,.T.);
#63=FACE_OUTER_BOUND('',#135,.T.);
#64=FACE_OUTER_BOUND('',#136,.T.);
#65=FACE_OUTER_BOUND('',#137,.T.);
#66=FACE_OUTER_BOUND('',#138,.T.);
#67=FACE_OUTER_BOUND('',#139,.T.);
#68=FACE_OUTER_BOUND('',#140,.T.);
#69=FACE_OUTER_BOUND('',#141,.T.);
#70=FACE_OUTER_BOUND('',#142,.T.);
#71=FACE_OUTER_BOUND('',#143,.T.);
#72=FACE_OUTER_BOUND('',#144,.T.);
#73=FACE_OUTER_BOUND('',#145,.T.);
#74=FACE_OUTER_BOUND('',#146,.T.);
#75=FACE_OUTER_BOUND('',#147,.T.);
#76=FACE_OUTER_BOUND('',#148,.T.);
#77=FACE_OUTER_BOUND('',#149,.T.);
#78=FACE_OUTER_BOUND('',#150,.T.);
#79=FACE_OUTER_BOUND('',#151,.T.);
#80=FACE_OUTER_BOUND('',#152,.T.);
#81=FACE_OUTER_BOUND('',#154,.T.);
#82=FACE_OUTER_BOUND('',#156,.T.);
#83=FACE_OUTER_BOUND('',#157,.T.);
#84=FACE_OUTER_BOUND('',#158,.T.);
#85=FACE_OUTER_BOUND('',#159,.T.);
#86=FACE_OUTER_BOUND('',#160,.T.);
#87=FACE_OUTER_BOUND('',#161,.T.);
#88=FACE_OUTER_BOUND('',#162,.T.);
#89=FACE_OUTER_BOUND('',#163,.T.);
#90=FACE_OUTER_BOUND('',#164,.T.);
#91=FACE_OUTER_BOUND('',#165,.T.);
#92=FACE_OUTER_BOUND('',#166,.T.);
#93=FACE_OUTER_BOUND('',#167,.T.);
#94=FACE_OUTER_BOUND('',#168,.T.);
#95=FACE_OUTER_BOUND('',#169,.T.);
#96=FACE_OUTER_BOUND('',#170,.T.);
#97=FACE_OUTER_BOUND('',#171,.T.);
#98=FACE_OUTER_BOUND('',#172,.T.);
#99=FACE_OUTER_BOUND('',#173,.T.);
#100=FACE_OUTER_BOUND('',#174,.T.);
#101=FACE_OUTER_BOUND('',#175,.T.);
#102=FACE_OUTER_BOUND('',#176,.T.);
#103=FACE_OUTER_BOUND('',#177,.T.);
#104=FACE_OUTER_BOUND('',#178,.T.);
#105=FACE_OUTER_BOUND('',#179,.T.);
#106=FACE_OUTER_BOUND('',#180,.T.);
#107=FACE_OUTER_BOUND('',#181,.T.);
#108=FACE_OUTER_BOUND('',#182,.T.);
#109=FACE_OUTER_BOUND('',#183,.T.);
#110=FACE_OUTER_BOUND('',#184,.T.);
#111=FACE_OUTER_BOUND('',#185,.T.);
#112=EDGE_LOOP('',(#732,#733,#734,#735));
#113=EDGE_LOOP('',(#736,#737,#738,#739));
#114=EDGE_LOOP('',(#740,#741,#742,#743));
#115=EDGE_LOOP('',(#744,#745,#746,#747));
#116=EDGE_LOOP('',(#748,#749,#750,#751));
#117=EDGE_LOOP('',(#752,#753,#754,#755));
#118=EDGE_LOOP('',(#756,#757,#758,#759));
#119=EDGE_LOOP('',(#760,#761,#762,#763));
#120=EDGE_LOOP('',(#764,#765,#766,#767));
#121=EDGE_LOOP('',(#768,#769,#770,#771));
#122=EDGE_LOOP('',(#772,#773,#774,#775));
#123=EDGE_LOOP('',(#776,#777,#778,#779));
#124=EDGE_LOOP('',(#780,#781,#782,#783));
#125=EDGE_LOOP('',(#784,#785,#786,#787));
#126=EDGE_LOOP('',(#788,#789,#790,#791));
#127=EDGE_LOOP('',(#792,#793,#794,#795));
#128=EDGE_LOOP('',(#796,#797,#798,#799));
#129=EDGE_LOOP('',(#800,#801,#802,#803));
#130=EDGE_LOOP('',(#804,#805,#806,#807));
#131=EDGE_LOOP('',(#808,#809,#810,#811));
#132=EDGE_LOOP('',(#812,#813,#814,#815));
#133=EDGE_LOOP('',(#816,#817,#818,#819));
#134=EDGE_LOOP('',(#820,#821,#822,#823));
#135=EDGE_LOOP('',(#824,#825,#826,#827));
#136=EDGE_LOOP('',(#828,#829,#830,#831));
#137=EDGE_LOOP('',(#832,#833,#834,#835));
#138=EDGE_LOOP('',(#836,#837,#838,#839));
#139=EDGE_LOOP('',(#840,#841,#842,#843));
#140=EDGE_LOOP('',(#844,#845,#846,#847));
#141=EDGE_LOOP('',(#848,#849,#850,#851));
#142=EDGE_LOOP('',(#852,#853,#854,#855,#856,#857));
#143=EDGE_LOOP('',(#858,#859,#860,#861,#862,#863));
#144=EDGE_LOOP('',(#864,#865,#866,#867));
#145=EDGE_LOOP('',(#868,#869,#870,#871));
#146=EDGE_LOOP('',(#872,#873,#874,#875));
#147=EDGE_LOOP('',(#876,#877,#878,#879));
#148=EDGE_LOOP('',(#880,#881,#882,#883));
#149=EDGE_LOOP('',(#884,#885,#886,#887));
#150=EDGE_LOOP('',(#888,#889,#890,#891));
#151=EDGE_LOOP('',(#892,#893,#894,#895));
#152=EDGE_LOOP('',(#896,#897,#898,#899));
#153=EDGE_LOOP('',(#900,#901,#902,#903));
#154=EDGE_LOOP('',(#904,#905,#906,#907));
#155=EDGE_LOOP('',(#908,#909,#910,#911));
#156=EDGE_LOOP('',(#912,#913,#914,#915));
#157=EDGE_LOOP('',(#916,#917,#918,#919));
#158=EDGE_LOOP('',(#920,#921,#922,#923));
#159=EDGE_LOOP('',(#924,#925,#926,#927));
#160=EDGE_LOOP('',(#928,#929,#930,#931));
#161=EDGE_LOOP('',(#932,#933,#934,#935));
#162=EDGE_LOOP('',(#936,#937,#938,#939));
#163=EDGE_LOOP('',(#940,#941,#942,#943));
#164=EDGE_LOOP('',(#944,#945,#946,#947));
#165=EDGE_LOOP('',(#948,#949,#950,#951));
#166=EDGE_LOOP('',(#952,#953,#954,#955));
#167=EDGE_LOOP('',(#956,#957,#958,#959));
#168=EDGE_LOOP('',(#960,#961,#962,#963));
#169=EDGE_LOOP('',(#964,#965,#966,#967));
#170=EDGE_LOOP('',(#968,#969,#970,#971));
#171=EDGE_LOOP('',(#972,#973,#974,#975));
#172=EDGE_LOOP('',(#976,#977,#978,#979));
#173=EDGE_LOOP('',(#980,#981,#982,#983));
#174=EDGE_LOOP('',(#984,#985,#986,#987));
#175=EDGE_LOOP('',(#988,#989,#990,#991));
#176=EDGE_LOOP('',(#992,#993,#994,#995));
#177=EDGE_LOOP('',(#996,#997,#998,#999));
#178=EDGE_LOOP('',(#1000,#1001,#1002,#1003));
#179=EDGE_LOOP('',(#1004,#1005,#1006,#1007));
#180=EDGE_LOOP('',(#1008,#1009,#1010,#1011));
#181=EDGE_LOOP('',(#1012,#1013,#1014,#1015));
#182=EDGE_LOOP('',(#1016,#1017,#1018,#1019));
#183=EDGE_LOOP('',(#1020,#1021,#1022,#1023));
#184=EDGE_LOOP('',(#1024,#1025,#1026,#1027));
#185=EDGE_LOOP('',(#1028,#1029,#1030,#1031));
#186=LINE('',#1575,#334);
#187=LINE('',#1577,#335);
#188=LINE('',#1579,#336);
#189=LINE('',#1580,#337);
#190=LINE('',#1583,#338);
#191=LINE('',#1585,#339);
#192=LINE('',#1586,#340);
#193=LINE('',#1589,#341);
#194=LINE('',#1591,#342);
#195=LINE('',#1592,#343);
#196=LINE('',#1594,#344);
#197=LINE('',#1595,#345);
#198=LINE('',#1601,#346);
#199=LINE('',#1603,#347);
#200=LINE('',#1605,#348);
#201=LINE('',#1606,#349);
#202=LINE('',#1609,#350);
#203=LINE('',#1611,#351);
#204=LINE('',#1612,#352);
#205=LINE('',#1615,#353);
#206=LINE('',#1617,#354);
#207=LINE('',#1618,#355);
#208=LINE('',#1620,#356);
#209=LINE('',#1621,#357);
#210=LINE('',#1627,#358);
#211=LINE('',#1629,#359);
#212=LINE('',#1631,#360);
#213=LINE('',#1632,#361);
#214=LINE('',#1635,#362);
#215=LINE('',#1637,#363);
#216=LINE('',#1638,#364);
#217=LINE('',#1641,#365);
#218=LINE('',#1643,#366);
#219=LINE('',#1644,#367);
#220=LINE('',#1646,#368);
#221=LINE('',#1647,#369);
#222=LINE('',#1653,#370);
#223=LINE('',#1655,#371);
#224=LINE('',#1657,#372);
#225=LINE('',#1658,#373);
#226=LINE('',#1661,#374);
#227=LINE('',#1663,#375);
#228=LINE('',#1664,#376);
#229=LINE('',#1667,#377);
#230=LINE('',#1669,#378);
#231=LINE('',#1670,#379);
#232=LINE('',#1672,#380);
#233=LINE('',#1673,#381);
#234=LINE('',#1679,#382);
#235=LINE('',#1681,#383);
#236=LINE('',#1683,#384);
#237=LINE('',#1684,#385);
#238=LINE('',#1687,#386);
#239=LINE('',#1689,#387);
#240=LINE('',#1690,#388);
#241=LINE('',#1693,#389);
#242=LINE('',#1695,#390);
#243=LINE('',#1696,#391);
#244=LINE('',#1702,#392);
#245=LINE('',#1705,#393);
#246=LINE('',#1707,#394);
#247=LINE('',#1708,#395);
#248=LINE('',#1710,#396);
#249=LINE('',#1711,#397);
#250=LINE('',#1717,#398);
#251=LINE('',#1719,#399);
#252=LINE('',#1721,#400);
#253=LINE('',#1722,#401);
#254=LINE('',#1725,#402);
#255=LINE('',#1727,#403);
#256=LINE('',#1728,#404);
#257=LINE('',#1731,#405);
#258=LINE('',#1733,#406);
#259=LINE('',#1734,#407);
#260=LINE('',#1736,#408);
#261=LINE('',#1737,#409);
#262=LINE('',#1741,#410);
#263=LINE('',#1743,#411);
#264=LINE('',#1745,#412);
#265=LINE('',#1746,#413);
#266=LINE('',#1749,#414);
#267=LINE('',#1751,#415);
#268=LINE('',#1752,#416);
#269=LINE('',#1755,#417);
#270=LINE('',#1757,#418);
#271=LINE('',#1758,#419);
#272=LINE('',#1760,#420);
#273=LINE('',#1761,#421);
#274=LINE('',#1767,#422);
#275=LINE('',#1769,#423);
#276=LINE('',#1771,#424);
#277=LINE('',#1772,#425);
#278=LINE('',#1775,#426);
#279=LINE('',#1777,#427);
#280=LINE('',#1778,#428);
#281=LINE('',#1781,#429);
#282=LINE('',#1783,#430);
#283=LINE('',#1784,#431);
#284=LINE('',#1786,#432);
#285=LINE('',#1787,#433);
#286=LINE('',#1793,#434);
#287=LINE('',#1795,#435);
#288=LINE('',#1797,#436);
#289=LINE('',#1798,#437);
#290=LINE('',#1801,#438);
#291=LINE('',#1803,#439);
#292=LINE('',#1804,#440);
#293=LINE('',#1807,#441);
#294=LINE('',#1809,#442);
#295=LINE('',#1810,#443);
#296=LINE('',#1812,#444);
#297=LINE('',#1813,#445);
#298=LINE('',#1819,#446);
#299=LINE('',#1821,#447);
#300=LINE('',#1823,#448);
#301=LINE('',#1824,#449);
#302=LINE('',#1827,#450);
#303=LINE('',#1829,#451);
#304=LINE('',#1830,#452);
#305=LINE('',#1833,#453);
#306=LINE('',#1835,#454);
#307=LINE('',#1836,#455);
#308=LINE('',#1838,#456);
#309=LINE('',#1839,#457);
#310=LINE('',#1845,#458);
#311=LINE('',#1847,#459);
#312=LINE('',#1849,#460);
#313=LINE('',#1850,#461);
#314=LINE('',#1853,#462);
#315=LINE('',#1855,#463);
#316=LINE('',#1856,#464);
#317=LINE('',#1859,#465);
#318=LINE('',#1861,#466);
#319=LINE('',#1862,#467);
#320=LINE('',#1864,#468);
#321=LINE('',#1865,#469);
#322=LINE('',#1871,#470);
#323=LINE('',#1873,#471);
#324=LINE('',#1875,#472);
#325=LINE('',#1876,#473);
#326=LINE('',#1879,#474);
#327=LINE('',#1881,#475);
#328=LINE('',#1882,#476);
#329=LINE('',#1885,#477);
#330=LINE('',#1887,#478);
#331=LINE('',#1888,#479);
#332=LINE('',#1890,#480);
#333=LINE('',#1891,#481);
#334=VECTOR('',#1277,10.);
#335=VECTOR('',#1278,10.);
#336=VECTOR('',#1279,10.);
#337=VECTOR('',#1280,10.);
#338=VECTOR('',#1283,10.);
#339=VECTOR('',#1284,10.);
#340=VECTOR('',#1285,10.);
#341=VECTOR('',#1288,10.);
#342=VECTOR('',#1289,10.);
#343=VECTOR('',#1290,10.);
#344=VECTOR('',#1293,10.);
#345=VECTOR('',#1294,10.);
#346=VECTOR('',#1301,10.);
#347=VECTOR('',#1302,10.);
#348=VECTOR('',#1303,10.);
#349=VECTOR('',#1304,10.);
#350=VECTOR('',#1307,10.);
#351=VECTOR('',#1308,10.);
#352=VECTOR('',#1309,10.);
#353=VECTOR('',#1312,10.);
#354=VECTOR('',#1313,10.);
#355=VECTOR('',#1314,10.);
#356=VECTOR('',#1317,10.);
#357=VECTOR('',#1318,10.);
#358=VECTOR('',#1325,10.);
#359=VECTOR('',#1326,10.);
#360=VECTOR('',#1327,10.);
#361=VECTOR('',#1328,10.);
#362=VECTOR('',#1331,10.);
#363=VECTOR('',#1332,10.);
#364=VECTOR('',#1333,10.);
#365=VECTOR('',#1336,10.);
#366=VECTOR('',#1337,10.);
#367=VECTOR('',#1338,10.);
#368=VECTOR('',#1341,10.);
#369=VECTOR('',#1342,10.);
#370=VECTOR('',#1349,10.);
#371=VECTOR('',#1350,10.);
#372=VECTOR('',#1351,10.);
#373=VECTOR('',#1352,10.);
#374=VECTOR('',#1355,10.);
#375=VECTOR('',#1356,10.);
#376=VECTOR('',#1357,10.);
#377=VECTOR('',#1360,10.);
#378=VECTOR('',#1361,10.);
#379=VECTOR('',#1362,10.);
#380=VECTOR('',#1365,10.);
#381=VECTOR('',#1366,10.);
#382=VECTOR('',#1373,10.);
#383=VECTOR('',#1374,10.);
#384=VECTOR('',#1375,10.);
#385=VECTOR('',#1376,10.);
#386=VECTOR('',#1379,10.);
#387=VECTOR('',#1380,10.);
#388=VECTOR('',#1381,10.);
#389=VECTOR('',#1384,10.);
#390=VECTOR('',#1385,10.);
#391=VECTOR('',#1386,10.);
#392=VECTOR('',#1393,10.);
#393=VECTOR('',#1396,10.);
#394=VECTOR('',#1397,10.);
#395=VECTOR('',#1398,10.);
#396=VECTOR('',#1401,10.);
#397=VECTOR('',#1402,10.);
#398=VECTOR('',#1409,10.);
#399=VECTOR('',#1410,10.);
#400=VECTOR('',#1411,10.);
#401=VECTOR('',#1412,10.);
#402=VECTOR('',#1415,10.);
#403=VECTOR('',#1416,10.);
#404=VECTOR('',#1417,10.);
#405=VECTOR('',#1420,10.);
#406=VECTOR('',#1421,10.);
#407=VECTOR('',#1422,10.);
#408=VECTOR('',#1425,10.);
#409=VECTOR('',#1426,10.);
#410=VECTOR('',#1429,10.);
#411=VECTOR('',#1430,10.);
#412=VECTOR('',#1431,10.);
#413=VECTOR('',#1432,10.);
#414=VECTOR('',#1435,10.);
#415=VECTOR('',#1436,10.);
#416=VECTOR('',#1437,10.);
#417=VECTOR('',#1440,10.);
#418=VECTOR('',#1441,10.);
#419=VECTOR('',#1442,10.);
#420=VECTOR('',#1445,10.);
#421=VECTOR('',#1446,10.);
#422=VECTOR('',#1453,10.);
#423=VECTOR('',#1454,10.);
#424=VECTOR('',#1455,10.);
#425=VECTOR('',#1456,10.);
#426=VECTOR('',#1459,10.);
#427=VECTOR('',#1460,10.);
#428=VECTOR('',#1461,10.);
#429=VECTOR('',#1464,10.);
#430=VECTOR('',#1465,10.);
#431=VECTOR('',#1466,10.);
#432=VECTOR('',#1469,10.);
#433=VECTOR('',#1470,10.);
#434=VECTOR('',#1477,10.);
#435=VECTOR('',#1478,10.);
#436=VECTOR('',#1479,10.);
#437=VECTOR('',#1480,10.);
#438=VECTOR('',#1483,10.);
#439=VECTOR('',#1484,10.);
#440=VECTOR('',#1485,10.);
#441=VECTOR('',#1488,10.);
#442=VECTOR('',#1489,10.);
#443=VECTOR('',#1490,10.);
#444=VECTOR('',#1493,10.);
#445=VECTOR('',#1494,10.);
#446=VECTOR('',#1501,10.);
#447=VECTOR('',#1502,10.);
#448=VECTOR('',#1503,10.);
#449=VECTOR('',#1504,10.);
#450=VECTOR('',#1507,10.);
#451=VECTOR('',#1508,10.);
#452=VECTOR('',#1509,10.);
#453=VECTOR('',#1512,10.);
#454=VECTOR('',#1513,10.);
#455=VECTOR('',#1514,10.);
#456=VECTOR('',#1517,10.);
#457=VECTOR('',#1518,10.);
#458=VECTOR('',#1525,10.);
#459=VECTOR('',#1526,10.);
#460=VECTOR('',#1527,10.);
#461=VECTOR('',#1528,10.);
#462=VECTOR('',#1531,10.);
#463=VECTOR('',#1532,10.);
#464=VECTOR('',#1533,10.);
#465=VECTOR('',#1536,10.);
#466=VECTOR('',#1537,10.);
#467=VECTOR('',#1538,10.);
#468=VECTOR('',#1541,10.);
#469=VECTOR('',#1542,10.);
#470=VECTOR('',#1549,10.);
#471=VECTOR('',#1550,10.);
#472=VECTOR('',#1551,10.);
#473=VECTOR('',#1552,10.);
#474=VECTOR('',#1555,10.);
#475=VECTOR('',#1556,10.);
#476=VECTOR('',#1557,10.);
#477=VECTOR('',#1560,10.);
#478=VECTOR('',#1561,10.);
#479=VECTOR('',#1562,10.);
#480=VECTOR('',#1565,10.);
#481=VECTOR('',#1566,10.);
#482=VERTEX_POINT('',#1573);
#483=VERTEX_POINT('',#1574);
#484=VERTEX_POINT('',#1576);
#485=VERTEX_POINT('',#1578);
#486=VERTEX_POINT('',#1582);
#487=VERTEX_POINT('',#1584);
#488=VERTEX_POINT('',#1588);
#489=VERTEX_POINT('',#1590);
#490=VERTEX_POINT('',#1599);
#491=VERTEX_POINT('',#1600);
#492=VERTEX_POINT('',#1602);
#493=VERTEX_POINT('',#1604);
#494=VERTEX_POINT('',#1608);
#495=VERTEX_POINT('',#1610);
#496=VERTEX_POINT('',#1614);
#497=VERTEX_POINT('',#1616);
#498=VERTEX_POINT('',#1625);
#499=VERTEX_POINT('',#1626);
#500=VERTEX_POINT('',#1628);
#501=VERTEX_POINT('',#1630);
#502=VERTEX_POINT('',#1634);
#503=VERTEX_POINT('',#1636);
#504=VERTEX_POINT('',#1640);
#505=VERTEX_POINT('',#1642);
#506=VERTEX_POINT('',#1651);
#507=VERTEX_POINT('',#1652);
#508=VERTEX_POINT('',#1654);
#509=VERTEX_POINT('',#1656);
#510=VERTEX_POINT('',#1660);
#511=VERTEX_POINT('',#1662);
#512=VERTEX_POINT('',#1666);
#513=VERTEX_POINT('',#1668);
#514=VERTEX_POINT('',#1677);
#515=VERTEX_POINT('',#1678);
#516=VERTEX_POINT('',#1680);
#517=VERTEX_POINT('',#1682);
#518=VERTEX_POINT('',#1686);
#519=VERTEX_POINT('',#1688);
#520=VERTEX_POINT('',#1692);
#521=VERTEX_POINT('',#1694);
#522=VERTEX_POINT('',#1698);
#523=VERTEX_POINT('',#1700);
#524=VERTEX_POINT('',#1704);
#525=VERTEX_POINT('',#1706);
#526=VERTEX_POINT('',#1715);
#527=VERTEX_POINT('',#1716);
#528=VERTEX_POINT('',#1718);
#529=VERTEX_POINT('',#1720);
#530=VERTEX_POINT('',#1724);
#531=VERTEX_POINT('',#1726);
#532=VERTEX_POINT('',#1730);
#533=VERTEX_POINT('',#1732);
#534=VERTEX_POINT('',#1739);
#535=VERTEX_POINT('',#1740);
#536=VERTEX_POINT('',#1742);
#537=VERTEX_POINT('',#1744);
#538=VERTEX_POINT('',#1748);
#539=VERTEX_POINT('',#1750);
#540=VERTEX_POINT('',#1754);
#541=VERTEX_POINT('',#1756);
#542=VERTEX_POINT('',#1765);
#543=VERTEX_POINT('',#1766);
#544=VERTEX_POINT('',#1768);
#545=VERTEX_POINT('',#1770);
#546=VERTEX_POINT('',#1774);
#547=VERTEX_POINT('',#1776);
#548=VERTEX_POINT('',#1780);
#549=VERTEX_POINT('',#1782);
#550=VERTEX_POINT('',#1791);
#551=VERTEX_POINT('',#1792);
#552=VERTEX_POINT('',#1794);
#553=VERTEX_POINT('',#1796);
#554=VERTEX_POINT('',#1800);
#555=VERTEX_POINT('',#1802);
#556=VERTEX_POINT('',#1806);
#557=VERTEX_POINT('',#1808);
#558=VERTEX_POINT('',#1817);
#559=VERTEX_POINT('',#1818);
#560=VERTEX_POINT('',#1820);
#561=VERTEX_POINT('',#1822);
#562=VERTEX_POINT('',#1826);
#563=VERTEX_POINT('',#1828);
#564=VERTEX_POINT('',#1832);
#565=VERTEX_POINT('',#1834);
#566=VERTEX_POINT('',#1843);
#567=VERTEX_POINT('',#1844);
#568=VERTEX_POINT('',#1846);
#569=VERTEX_POINT('',#1848);
#570=VERTEX_POINT('',#1852);
#571=VERTEX_POINT('',#1854);
#572=VERTEX_POINT('',#1858);
#573=VERTEX_POINT('',#1860);
#574=VERTEX_POINT('',#1869);
#575=VERTEX_POINT('',#1870);
#576=VERTEX_POINT('',#1872);
#577=VERTEX_POINT('',#1874);
#578=VERTEX_POINT('',#1878);
#579=VERTEX_POINT('',#1880);
#580=VERTEX_POINT('',#1884);
#581=VERTEX_POINT('',#1886);
#582=EDGE_CURVE('',#482,#483,#186,.T.);
#583=EDGE_CURVE('',#483,#484,#187,.T.);
#584=EDGE_CURVE('',#485,#484,#188,.T.);
#585=EDGE_CURVE('',#482,#485,#189,.T.);
#586=EDGE_CURVE('',#486,#482,#190,.T.);
#587=EDGE_CURVE('',#487,#485,#191,.T.);
#588=EDGE_CURVE('',#486,#487,#192,.T.);
#589=EDGE_CURVE('',#488,#486,#193,.T.);
#590=EDGE_CURVE('',#489,#487,#194,.T.);
#591=EDGE_CURVE('',#488,#489,#195,.T.);
#592=EDGE_CURVE('',#483,#488,#196,.T.);
#593=EDGE_CURVE('',#484,#489,#197,.T.);
#594=EDGE_CURVE('',#490,#491,#198,.T.);
#595=EDGE_CURVE('',#491,#492,#199,.T.);
#596=EDGE_CURVE('',#493,#492,#200,.T.);
#597=EDGE_CURVE('',#490,#493,#201,.T.);
#598=EDGE_CURVE('',#494,#490,#202,.T.);
#599=EDGE_CURVE('',#495,#493,#203,.T.);
#600=EDGE_CURVE('',#494,#495,#204,.T.);
#601=EDGE_CURVE('',#496,#494,#205,.T.);
#602=EDGE_CURVE('',#497,#495,#206,.T.);
#603=EDGE_CURVE('',#496,#497,#207,.T.);
#604=EDGE_CURVE('',#491,#496,#208,.T.);
#605=EDGE_CURVE('',#492,#497,#209,.T.);
#606=EDGE_CURVE('',#498,#499,#210,.T.);
#607=EDGE_CURVE('',#499,#500,#211,.T.);
#608=EDGE_CURVE('',#501,#500,#212,.T.);
#609=EDGE_CURVE('',#498,#501,#213,.T.);
#610=EDGE_CURVE('',#502,#498,#214,.T.);
#611=EDGE_CURVE('',#503,#501,#215,.T.);
#612=EDGE_CURVE('',#502,#503,#216,.T.);
#613=EDGE_CURVE('',#504,#502,#217,.T.);
#614=EDGE_CURVE('',#505,#503,#218,.T.);
#615=EDGE_CURVE('',#504,#505,#219,.T.);
#616=EDGE_CURVE('',#499,#504,#220,.T.);
#617=EDGE_CURVE('',#500,#505,#221,.T.);
#618=EDGE_CURVE('',#506,#507,#222,.T.);
#619=EDGE_CURVE('',#507,#508,#223,.T.);
#620=EDGE_CURVE('',#509,#508,#224,.T.);
#621=EDGE_CURVE('',#506,#509,#225,.T.);
#622=EDGE_CURVE('',#510,#506,#226,.T.);
#623=EDGE_CURVE('',#511,#509,#227,.T.);
#624=EDGE_CURVE('',#510,#511,#228,.T.);
#625=EDGE_CURVE('',#512,#510,#229,.T.);
#626=EDGE_CURVE('',#513,#511,#230,.T.);
#627=EDGE_CURVE('',#512,#513,#231,.T.);
#628=EDGE_CURVE('',#507,#512,#232,.T.);
#629=EDGE_CURVE('',#508,#513,#233,.T.);
#630=EDGE_CURVE('',#514,#515,#234,.T.);
#631=EDGE_CURVE('',#514,#516,#235,.T.);
#632=EDGE_CURVE('',#517,#516,#236,.T.);
#633=EDGE_CURVE('',#515,#517,#237,.T.);
#634=EDGE_CURVE('',#515,#518,#238,.T.);
#635=EDGE_CURVE('',#519,#517,#239,.T.);
#636=EDGE_CURVE('',#518,#519,#240,.T.);
#637=EDGE_CURVE('',#518,#520,#241,.T.);
#638=EDGE_CURVE('',#521,#519,#242,.T.);
#639=EDGE_CURVE('',#520,#521,#243,.T.);
#640=EDGE_CURVE('',#522,#520,#15,.T.);
#641=EDGE_CURVE('',#523,#521,#16,.T.);
#642=EDGE_CURVE('',#522,#523,#244,.T.);
#643=EDGE_CURVE('',#522,#524,#245,.T.);
#644=EDGE_CURVE('',#525,#523,#246,.T.);
#645=EDGE_CURVE('',#524,#525,#247,.T.);
#646=EDGE_CURVE('',#524,#514,#248,.T.);
#647=EDGE_CURVE('',#516,#525,#249,.T.);
#648=EDGE_CURVE('',#526,#527,#250,.T.);
#649=EDGE_CURVE('',#527,#528,#251,.T.);
#650=EDGE_CURVE('',#529,#528,#252,.T.);
#651=EDGE_CURVE('',#526,#529,#253,.T.);
#652=EDGE_CURVE('',#530,#526,#254,.T.);
#653=EDGE_CURVE('',#531,#529,#255,.T.);
#654=EDGE_CURVE('',#530,#531,#256,.T.);
#655=EDGE_CURVE('',#532,#530,#257,.T.);
#656=EDGE_CURVE('',#533,#531,#258,.T.);
#657=EDGE_CURVE('',#532,#533,#259,.T.);
#658=EDGE_CURVE('',#527,#532,#260,.T.);
#659=EDGE_CURVE('',#528,#533,#261,.T.);
#660=EDGE_CURVE('',#534,#535,#262,.T.);
#661=EDGE_CURVE('',#535,#536,#263,.T.);
#662=EDGE_CURVE('',#537,#536,#264,.T.);
#663=EDGE_CURVE('',#534,#537,#265,.T.);
#664=EDGE_CURVE('',#538,#534,#266,.T.);
#665=EDGE_CURVE('',#539,#537,#267,.T.);
#666=EDGE_CURVE('',#538,#539,#268,.T.);
#667=EDGE_CURVE('',#540,#538,#269,.T.);
#668=EDGE_CURVE('',#541,#539,#270,.T.);
#669=EDGE_CURVE('',#540,#541,#271,.T.);
#670=EDGE_CURVE('',#535,#540,#272,.T.);
#671=EDGE_CURVE('',#536,#541,#273,.T.);
#672=EDGE_CURVE('',#542,#543,#274,.T.);
#673=EDGE_CURVE('',#543,#544,#275,.T.);
#674=EDGE_CURVE('',#545,#544,#276,.T.);
#675=EDGE_CURVE('',#542,#545,#277,.T.);
#676=EDGE_CURVE('',#546,#542,#278,.T.);
#677=EDGE_CURVE('',#547,#545,#279,.T.);
#678=EDGE_CURVE('',#546,#547,#280,.T.);
#679=EDGE_CURVE('',#548,#546,#281,.T.);
#680=EDGE_CURVE('',#549,#547,#282,.T.);
#681=EDGE_CURVE('',#548,#549,#283,.T.);
#682=EDGE_CURVE('',#543,#548,#284,.T.);
#683=EDGE_CURVE('',#544,#549,#285,.T.);
#684=EDGE_CURVE('',#550,#551,#286,.T.);
#685=EDGE_CURVE('',#551,#552,#287,.T.);
#686=EDGE_CURVE('',#553,#552,#288,.T.);
#687=EDGE_CURVE('',#550,#553,#289,.T.);
#688=EDGE_CURVE('',#554,#550,#290,.T.);
#689=EDGE_CURVE('',#555,#553,#291,.T.);
#690=EDGE_CURVE('',#554,#555,#292,.T.);
#691=EDGE_CURVE('',#556,#554,#293,.T.);
#692=EDGE_CURVE('',#557,#555,#294,.T.);
#693=EDGE_CURVE('',#556,#557,#295,.T.);
#694=EDGE_CURVE('',#551,#556,#296,.T.);
#695=EDGE_CURVE('',#552,#557,#297,.T.);
#696=EDGE_CURVE('',#558,#559,#298,.T.);
#697=EDGE_CURVE('',#559,#560,#299,.T.);
#698=EDGE_CURVE('',#561,#560,#300,.T.);
#699=EDGE_CURVE('',#558,#561,#301,.T.);
#700=EDGE_CURVE('',#562,#558,#302,.T.);
#701=EDGE_CURVE('',#563,#561,#303,.T.);
#702=EDGE_CURVE('',#562,#563,#304,.T.);
#703=EDGE_CURVE('',#564,#562,#305,.T.);
#704=EDGE_CURVE('',#565,#563,#306,.T.);
#705=EDGE_CURVE('',#564,#565,#307,.T.);
#706=EDGE_CURVE('',#559,#564,#308,.T.);
#707=EDGE_CURVE('',#560,#565,#309,.T.);
#708=EDGE_CURVE('',#566,#567,#310,.T.);
#709=EDGE_CURVE('',#567,#568,#311,.T.);
#710=EDGE_CURVE('',#569,#568,#312,.T.);
#711=EDGE_CURVE('',#566,#569,#313,.T.);
#712=EDGE_CURVE('',#570,#566,#314,.T.);
#713=EDGE_CURVE('',#571,#569,#315,.T.);
#714=EDGE_CURVE('',#570,#571,#316,.T.);
#715=EDGE_CURVE('',#572,#570,#317,.T.);
#716=EDGE_CURVE('',#573,#571,#318,.T.);
#717=EDGE_CURVE('',#572,#573,#319,.T.);
#718=EDGE_CURVE('',#567,#572,#320,.T.);
#719=EDGE_CURVE('',#568,#573,#321,.T.);
#720=EDGE_CURVE('',#574,#575,#322,.T.);
#721=EDGE_CURVE('',#575,#576,#323,.T.);
#722=EDGE_CURVE('',#577,#576,#324,.T.);
#723=EDGE_CURVE('',#574,#577,#325,.T.);
#724=EDGE_CURVE('',#578,#574,#326,.T.);
#725=EDGE_CURVE('',#579,#577,#327,.T.);
#726=EDGE_CURVE('',#578,#579,#328,.T.);
#727=EDGE_CURVE('',#580,#578,#329,.T.);
#728=EDGE_CURVE('',#581,#579,#330,.T.);
#729=EDGE_CURVE('',#580,#581,#331,.T.);
#730=EDGE_CURVE('',#575,#580,#332,.T.);
#731=EDGE_CURVE('',#576,#581,#333,.T.);
#732=ORIENTED_EDGE('',*,*,#582,.T.);
#733=ORIENTED_EDGE('',*,*,#583,.T.);
#734=ORIENTED_EDGE('',*,*,#584,.F.);
#735=ORIENTED_EDGE('',*,*,#585,.F.);
#736=ORIENTED_EDGE('',*,*,#586,.T.);
#737=ORIENTED_EDGE('',*,*,#585,.T.);
#738=ORIENTED_EDGE('',*,*,#587,.F.);
#739=ORIENTED_EDGE('',*,*,#588,.F.);
#740=ORIENTED_EDGE('',*,*,#589,.T.);
#741=ORIENTED_EDGE('',*,*,#588,.T.);
#742=ORIENTED_EDGE('',*,*,#590,.F.);
#743=ORIENTED_EDGE('',*,*,#591,.F.);
#744=ORIENTED_EDGE('',*,*,#592,.T.);
#745=ORIENTED_EDGE('',*,*,#591,.T.);
#746=ORIENTED_EDGE('',*,*,#593,.F.);
#747=ORIENTED_EDGE('',*,*,#583,.F.);
#748=ORIENTED_EDGE('',*,*,#593,.T.);
#749=ORIENTED_EDGE('',*,*,#590,.T.);
#750=ORIENTED_EDGE('',*,*,#587,.T.);
#751=ORIENTED_EDGE('',*,*,#584,.T.);
#752=ORIENTED_EDGE('',*,*,#592,.F.);
#753=ORIENTED_EDGE('',*,*,#582,.F.);
#754=ORIENTED_EDGE('',*,*,#586,.F.);
#755=ORIENTED_EDGE('',*,*,#589,.F.);
#756=ORIENTED_EDGE('',*,*,#594,.T.);
#757=ORIENTED_EDGE('',*,*,#595,.T.);
#758=ORIENTED_EDGE('',*,*,#596,.F.);
#759=ORIENTED_EDGE('',*,*,#597,.F.);
#760=ORIENTED_EDGE('',*,*,#598,.T.);
#761=ORIENTED_EDGE('',*,*,#597,.T.);
#762=ORIENTED_EDGE('',*,*,#599,.F.);
#763=ORIENTED_EDGE('',*,*,#600,.F.);
#764=ORIENTED_EDGE('',*,*,#601,.T.);
#765=ORIENTED_EDGE('',*,*,#600,.T.);
#766=ORIENTED_EDGE('',*,*,#602,.F.);
#767=ORIENTED_EDGE('',*,*,#603,.F.);
#768=ORIENTED_EDGE('',*,*,#604,.T.);
#769=ORIENTED_EDGE('',*,*,#603,.T.);
#770=ORIENTED_EDGE('',*,*,#605,.F.);
#771=ORIENTED_EDGE('',*,*,#595,.F.);
#772=ORIENTED_EDGE('',*,*,#605,.T.);
#773=ORIENTED_EDGE('',*,*,#602,.T.);
#774=ORIENTED_EDGE('',*,*,#599,.T.);
#775=ORIENTED_EDGE('',*,*,#596,.T.);
#776=ORIENTED_EDGE('',*,*,#604,.F.);
#777=ORIENTED_EDGE('',*,*,#594,.F.);
#778=ORIENTED_EDGE('',*,*,#598,.F.);
#779=ORIENTED_EDGE('',*,*,#601,.F.);
#780=ORIENTED_EDGE('',*,*,#606,.T.);
#781=ORIENTED_EDGE('',*,*,#607,.T.);
#782=ORIENTED_EDGE('',*,*,#608,.F.);
#783=ORIENTED_EDGE('',*,*,#609,.F.);
#784=ORIENTED_EDGE('',*,*,#610,.T.);
#785=ORIENTED_EDGE('',*,*,#609,.T.);
#786=ORIENTED_EDGE('',*,*,#611,.F.);
#787=ORIENTED_EDGE('',*,*,#612,.F.);
#788=ORIENTED_EDGE('',*,*,#613,.T.);
#789=ORIENTED_EDGE('',*,*,#612,.T.);
#790=ORIENTED_EDGE('',*,*,#614,.F.);
#791=ORIENTED_EDGE('',*,*,#615,.F.);
#792=ORIENTED_EDGE('',*,*,#616,.T.);
#793=ORIENTED_EDGE('',*,*,#615,.T.);
#794=ORIENTED_EDGE('',*,*,#617,.F.);
#795=ORIENTED_EDGE('',*,*,#607,.F.);
#796=ORIENTED_EDGE('',*,*,#617,.T.);
#797=ORIENTED_EDGE('',*,*,#614,.T.);
#798=ORIENTED_EDGE('',*,*,#611,.T.);
#799=ORIENTED_EDGE('',*,*,#608,.T.);
#800=ORIENTED_EDGE('',*,*,#616,.F.);
#801=ORIENTED_EDGE('',*,*,#606,.F.);
#802=ORIENTED_EDGE('',*,*,#610,.F.);
#803=ORIENTED_EDGE('',*,*,#613,.F.);
#804=ORIENTED_EDGE('',*,*,#618,.T.);
#805=ORIENTED_EDGE('',*,*,#619,.T.);
#806=ORIENTED_EDGE('',*,*,#620,.F.);
#807=ORIENTED_EDGE('',*,*,#621,.F.);
#808=ORIENTED_EDGE('',*,*,#622,.T.);
#809=ORIENTED_EDGE('',*,*,#621,.T.);
#810=ORIENTED_EDGE('',*,*,#623,.F.);
#811=ORIENTED_EDGE('',*,*,#624,.F.);
#812=ORIENTED_EDGE('',*,*,#625,.T.);
#813=ORIENTED_EDGE('',*,*,#624,.T.);
#814=ORIENTED_EDGE('',*,*,#626,.F.);
#815=ORIENTED_EDGE('',*,*,#627,.F.);
#816=ORIENTED_EDGE('',*,*,#628,.T.);
#817=ORIENTED_EDGE('',*,*,#627,.T.);
#818=ORIENTED_EDGE('',*,*,#629,.F.);
#819=ORIENTED_EDGE('',*,*,#619,.F.);
#820=ORIENTED_EDGE('',*,*,#629,.T.);
#821=ORIENTED_EDGE('',*,*,#626,.T.);
#822=ORIENTED_EDGE('',*,*,#623,.T.);
#823=ORIENTED_EDGE('',*,*,#620,.T.);
#824=ORIENTED_EDGE('',*,*,#628,.F.);
#825=ORIENTED_EDGE('',*,*,#618,.F.);
#826=ORIENTED_EDGE('',*,*,#622,.F.);
#827=ORIENTED_EDGE('',*,*,#625,.F.);
#828=ORIENTED_EDGE('',*,*,#630,.F.);
#829=ORIENTED_EDGE('',*,*,#631,.T.);
#830=ORIENTED_EDGE('',*,*,#632,.F.);
#831=ORIENTED_EDGE('',*,*,#633,.F.);
#832=ORIENTED_EDGE('',*,*,#634,.F.);
#833=ORIENTED_EDGE('',*,*,#633,.T.);
#834=ORIENTED_EDGE('',*,*,#635,.F.);
#835=ORIENTED_EDGE('',*,*,#636,.F.);
#836=ORIENTED_EDGE('',*,*,#637,.F.);
#837=ORIENTED_EDGE('',*,*,#636,.T.);
#838=ORIENTED_EDGE('',*,*,#638,.F.);
#839=ORIENTED_EDGE('',*,*,#639,.F.);
#840=ORIENTED_EDGE('',*,*,#640,.T.);
#841=ORIENTED_EDGE('',*,*,#639,.T.);
#842=ORIENTED_EDGE('',*,*,#641,.F.);
#843=ORIENTED_EDGE('',*,*,#642,.F.);
#844=ORIENTED_EDGE('',*,*,#643,.F.);
#845=ORIENTED_EDGE('',*,*,#642,.T.);
#846=ORIENTED_EDGE('',*,*,#644,.F.);
#847=ORIENTED_EDGE('',*,*,#645,.F.);
#848=ORIENTED_EDGE('',*,*,#646,.F.);
#849=ORIENTED_EDGE('',*,*,#645,.T.);
#850=ORIENTED_EDGE('',*,*,#647,.F.);
#851=ORIENTED_EDGE('',*,*,#631,.F.);
#852=ORIENTED_EDGE('',*,*,#646,.T.);
#853=ORIENTED_EDGE('',*,*,#630,.T.);
#854=ORIENTED_EDGE('',*,*,#634,.T.);
#855=ORIENTED_EDGE('',*,*,#637,.T.);
#856=ORIENTED_EDGE('',*,*,#640,.F.);
#857=ORIENTED_EDGE('',*,*,#643,.T.);
#858=ORIENTED_EDGE('',*,*,#647,.T.);
#859=ORIENTED_EDGE('',*,*,#644,.T.);
#860=ORIENTED_EDGE('',*,*,#641,.T.);
#861=ORIENTED_EDGE('',*,*,#638,.T.);
#862=ORIENTED_EDGE('',*,*,#635,.T.);
#863=ORIENTED_EDGE('',*,*,#632,.T.);
#864=ORIENTED_EDGE('',*,*,#648,.T.);
#865=ORIENTED_EDGE('',*,*,#649,.T.);
#866=ORIENTED_EDGE('',*,*,#650,.F.);
#867=ORIENTED_EDGE('',*,*,#651,.F.);
#868=ORIENTED_EDGE('',*,*,#652,.T.);
#869=ORIENTED_EDGE('',*,*,#651,.T.);
#870=ORIENTED_EDGE('',*,*,#653,.F.);
#871=ORIENTED_EDGE('',*,*,#654,.F.);
#872=ORIENTED_EDGE('',*,*,#655,.T.);
#873=ORIENTED_EDGE('',*,*,#654,.T.);
#874=ORIENTED_EDGE('',*,*,#656,.F.);
#875=ORIENTED_EDGE('',*,*,#657,.F.);
#876=ORIENTED_EDGE('',*,*,#658,.T.);
#877=ORIENTED_EDGE('',*,*,#657,.T.);
#878=ORIENTED_EDGE('',*,*,#659,.F.);
#879=ORIENTED_EDGE('',*,*,#649,.F.);
#880=ORIENTED_EDGE('',*,*,#660,.T.);
#881=ORIENTED_EDGE('',*,*,#661,.T.);
#882=ORIENTED_EDGE('',*,*,#662,.F.);
#883=ORIENTED_EDGE('',*,*,#663,.F.);
#884=ORIENTED_EDGE('',*,*,#664,.T.);
#885=ORIENTED_EDGE('',*,*,#663,.T.);
#886=ORIENTED_EDGE('',*,*,#665,.F.);
#887=ORIENTED_EDGE('',*,*,#666,.F.);
#888=ORIENTED_EDGE('',*,*,#667,.T.);
#889=ORIENTED_EDGE('',*,*,#666,.T.);
#890=ORIENTED_EDGE('',*,*,#668,.F.);
#891=ORIENTED_EDGE('',*,*,#669,.F.);
#892=ORIENTED_EDGE('',*,*,#670,.T.);
#893=ORIENTED_EDGE('',*,*,#669,.T.);
#894=ORIENTED_EDGE('',*,*,#671,.F.);
#895=ORIENTED_EDGE('',*,*,#661,.F.);
#896=ORIENTED_EDGE('',*,*,#671,.T.);
#897=ORIENTED_EDGE('',*,*,#668,.T.);
#898=ORIENTED_EDGE('',*,*,#665,.T.);
#899=ORIENTED_EDGE('',*,*,#662,.T.);
#900=ORIENTED_EDGE('',*,*,#659,.T.);
#901=ORIENTED_EDGE('',*,*,#656,.T.);
#902=ORIENTED_EDGE('',*,*,#653,.T.);
#903=ORIENTED_EDGE('',*,*,#650,.T.);
#904=ORIENTED_EDGE('',*,*,#670,.F.);
#905=ORIENTED_EDGE('',*,*,#660,.F.);
#906=ORIENTED_EDGE('',*,*,#664,.F.);
#907=ORIENTED_EDGE('',*,*,#667,.F.);
#908=ORIENTED_EDGE('',*,*,#658,.F.);
#909=ORIENTED_EDGE('',*,*,#648,.F.);
#910=ORIENTED_EDGE('',*,*,#652,.F.);
#911=ORIENTED_EDGE('',*,*,#655,.F.);
#912=ORIENTED_EDGE('',*,*,#672,.T.);
#913=ORIENTED_EDGE('',*,*,#673,.T.);
#914=ORIENTED_EDGE('',*,*,#674,.F.);
#915=ORIENTED_EDGE('',*,*,#675,.F.);
#916=ORIENTED_EDGE('',*,*,#676,.T.);
#917=ORIENTED_EDGE('',*,*,#675,.T.);
#918=ORIENTED_EDGE('',*,*,#677,.F.);
#919=ORIENTED_EDGE('',*,*,#678,.F.);
#920=ORIENTED_EDGE('',*,*,#679,.T.);
#921=ORIENTED_EDGE('',*,*,#678,.T.);
#922=ORIENTED_EDGE('',*,*,#680,.F.);
#923=ORIENTED_EDGE('',*,*,#681,.F.);
#924=ORIENTED_EDGE('',*,*,#682,.T.);
#925=ORIENTED_EDGE('',*,*,#681,.T.);
#926=ORIENTED_EDGE('',*,*,#683,.F.);
#927=ORIENTED_EDGE('',*,*,#673,.F.);
#928=ORIENTED_EDGE('',*,*,#683,.T.);
#929=ORIENTED_EDGE('',*,*,#680,.T.);
#930=ORIENTED_EDGE('',*,*,#677,.T.);
#931=ORIENTED_EDGE('',*,*,#674,.T.);
#932=ORIENTED_EDGE('',*,*,#682,.F.);
#933=ORIENTED_EDGE('',*,*,#672,.F.);
#934=ORIENTED_EDGE('',*,*,#676,.F.);
#935=ORIENTED_EDGE('',*,*,#679,.F.);
#936=ORIENTED_EDGE('',*,*,#684,.T.);
#937=ORIENTED_EDGE('',*,*,#685,.T.);
#938=ORIENTED_EDGE('',*,*,#686,.F.);
#939=ORIENTED_EDGE('',*,*,#687,.F.);
#940=ORIENTED_EDGE('',*,*,#688,.T.);
#941=ORIENTED_EDGE('',*,*,#687,.T.);
#942=ORIENTED_EDGE('',*,*,#689,.F.);
#943=ORIENTED_EDGE('',*,*,#690,.F.);
#944=ORIENTED_EDGE('',*,*,#691,.T.);
#945=ORIENTED_EDGE('',*,*,#690,.T.);
#946=ORIENTED_EDGE('',*,*,#692,.F.);
#947=ORIENTED_EDGE('',*,*,#693,.F.);
#948=ORIENTED_EDGE('',*,*,#694,.T.);
#949=ORIENTED_EDGE('',*,*,#693,.T.);
#950=ORIENTED_EDGE('',*,*,#695,.F.);
#951=ORIENTED_EDGE('',*,*,#685,.F.);
#952=ORIENTED_EDGE('',*,*,#695,.T.);
#953=ORIENTED_EDGE('',*,*,#692,.T.);
#954=ORIENTED_EDGE('',*,*,#689,.T.);
#955=ORIENTED_EDGE('',*,*,#686,.T.);
#956=ORIENTED_EDGE('',*,*,#694,.F.);
#957=ORIENTED_EDGE('',*,*,#684,.F.);
#958=ORIENTED_EDGE('',*,*,#688,.F.);
#959=ORIENTED_EDGE('',*,*,#691,.F.);
#960=ORIENTED_EDGE('',*,*,#696,.T.);
#961=ORIENTED_EDGE('',*,*,#697,.T.);
#962=ORIENTED_EDGE('',*,*,#698,.F.);
#963=ORIENTED_EDGE('',*,*,#699,.F.);
#964=ORIENTED_EDGE('',*,*,#700,.T.);
#965=ORIENTED_EDGE('',*,*,#699,.T.);
#966=ORIENTED_EDGE('',*,*,#701,.F.);
#967=ORIENTED_EDGE('',*,*,#702,.F.);
#968=ORIENTED_EDGE('',*,*,#703,.T.);
#969=ORIENTED_EDGE('',*,*,#702,.T.);
#970=ORIENTED_EDGE('',*,*,#704,.F.);
#971=ORIENTED_EDGE('',*,*,#705,.F.);
#972=ORIENTED_EDGE('',*,*,#706,.T.);
#973=ORIENTED_EDGE('',*,*,#705,.T.);
#974=ORIENTED_EDGE('',*,*,#707,.F.);
#975=ORIENTED_EDGE('',*,*,#697,.F.);
#976=ORIENTED_EDGE('',*,*,#707,.T.);
#977=ORIENTED_EDGE('',*,*,#704,.T.);
#978=ORIENTED_EDGE('',*,*,#701,.T.);
#979=ORIENTED_EDGE('',*,*,#698,.T.);
#980=ORIENTED_EDGE('',*,*,#706,.F.);
#981=ORIENTED_EDGE('',*,*,#696,.F.);
#982=ORIENTED_EDGE('',*,*,#700,.F.);
#983=ORIENTED_EDGE('',*,*,#703,.F.);
#984=ORIENTED_EDGE('',*,*,#708,.T.);
#985=ORIENTED_EDGE('',*,*,#709,.T.);
#986=ORIENTED_EDGE('',*,*,#710,.F.);
#987=ORIENTED_EDGE('',*,*,#711,.F.);
#988=ORIENTED_EDGE('',*,*,#712,.T.);
#989=ORIENTED_EDGE('',*,*,#711,.T.);
#990=ORIENTED_EDGE('',*,*,#713,.F.);
#991=ORIENTED_EDGE('',*,*,#714,.F.);
#992=ORIENTED_EDGE('',*,*,#715,.T.);
#993=ORIENTED_EDGE('',*,*,#714,.T.);
#994=ORIENTED_EDGE('',*,*,#716,.F.);
#995=ORIENTED_EDGE('',*,*,#717,.F.);
#996=ORIENTED_EDGE('',*,*,#718,.T.);
#997=ORIENTED_EDGE('',*,*,#717,.T.);
#998=ORIENTED_EDGE('',*,*,#719,.F.);
#999=ORIENTED_EDGE('',*,*,#709,.F.);
#1000=ORIENTED_EDGE('',*,*,#719,.T.);
#1001=ORIENTED_EDGE('',*,*,#716,.T.);
#1002=ORIENTED_EDGE('',*,*,#713,.T.);
#1003=ORIENTED_EDGE('',*,*,#710,.T.);
#1004=ORIENTED_EDGE('',*,*,#718,.F.);
#1005=ORIENTED_EDGE('',*,*,#708,.F.);
#1006=ORIENTED_EDGE('',*,*,#712,.F.);
#1007=ORIENTED_EDGE('',*,*,#715,.F.);
#1008=ORIENTED_EDGE('',*,*,#720,.T.);
#1009=ORIENTED_EDGE('',*,*,#721,.T.);
#1010=ORIENTED_EDGE('',*,*,#722,.F.);
#1011=ORIENTED_EDGE('',*,*,#723,.F.);
#1012=ORIENTED_EDGE('',*,*,#724,.T.);
#1013=ORIENTED_EDGE('',*,*,#723,.T.);
#1014=ORIENTED_EDGE('',*,*,#725,.F.);
#1015=ORIENTED_EDGE('',*,*,#726,.F.);
#1016=ORIENTED_EDGE('',*,*,#727,.T.);
#1017=ORIENTED_EDGE('',*,*,#726,.T.);
#1018=ORIENTED_EDGE('',*,*,#728,.F.);
#1019=ORIENTED_EDGE('',*,*,#729,.F.);
#1020=ORIENTED_EDGE('',*,*,#730,.T.);
#1021=ORIENTED_EDGE('',*,*,#729,.T.);
#1022=ORIENTED_EDGE('',*,*,#731,.F.);
#1023=ORIENTED_EDGE('',*,*,#721,.F.);
#1024=ORIENTED_EDGE('',*,*,#731,.T.);
#1025=ORIENTED_EDGE('',*,*,#728,.T.);
#1026=ORIENTED_EDGE('',*,*,#725,.T.);
#1027=ORIENTED_EDGE('',*,*,#722,.T.);
#1028=ORIENTED_EDGE('',*,*,#730,.F.);
#1029=ORIENTED_EDGE('',*,*,#720,.F.);
#1030=ORIENTED_EDGE('',*,*,#724,.F.);
#1031=ORIENTED_EDGE('',*,*,#727,.F.);
#1032=PLANE('',#1199);
#1033=PLANE('',#1200);
#1034=PLANE('',#1201);
#1035=PLANE('',#1202);
#1036=PLANE('',#1203);
#1037=PLANE('',#1204);
#1038=PLANE('',#1205);
#1039=PLANE('',#1206);
#1040=PLANE('',#1207);
#1041=PLANE('',#1208);
#1042=PLANE('',#1209);
#1043=PLANE('',#1210);
#1044=PLANE('',#1211);
#1045=PLANE('',#1212);
#1046=PLANE('',#1213);
#1047=PLANE('',#1214);
#1048=PLANE('',#1215);
#1049=PLANE('',#1216);
#1050=PLANE('',#1217);
#1051=PLANE('',#1218);
#1052=PLANE('',#1219);
#1053=PLANE('',#1220);
#1054=PLANE('',#1221);
#1055=PLANE('',#1222);
#1056=PLANE('',#1223);
#1057=PLANE('',#1224);
#1058=PLANE('',#1225);
#1059=PLANE('',#1229);
#1060=PLANE('',#1230);
#1061=PLANE('',#1231);
#1062=PLANE('',#1232);
#1063=PLANE('',#1233);
#1064=PLANE('',#1234);
#1065=PLANE('',#1235);
#1066=PLANE('',#1236);
#1067=PLANE('',#1237);
#1068=PLANE('',#1238);
#1069=PLANE('',#1239);
#1070=PLANE('',#1240);
#1071=PLANE('',#1241);
#1072=PLANE('',#1242);
#1073=PLANE('',#1243);
#1074=PLANE('',#1244);
#1075=PLANE('',#1245);
#1076=PLANE('',#1246);
#1077=PLANE('',#1247);
#1078=PLANE('',#1248);
#1079=PLANE('',#1249);
#1080=PLANE('',#1250);
#1081=PLANE('',#1251);
#1082=PLANE('',#1252);
#1083=PLANE('',#1253);
#1084=PLANE('',#1254);
#1085=PLANE('',#1255);
#1086=PLANE('',#1256);
#1087=PLANE('',#1257);
#1088=PLANE('',#1258);
#1089=PLANE('',#1259);
#1090=PLANE('',#1260);
#1091=PLANE('',#1261);
#1092=PLANE('',#1262);
#1093=PLANE('',#1263);
#1094=PLANE('',#1264);
#1095=PLANE('',#1265);
#1096=PLANE('',#1266);
#1097=PLANE('',#1267);
#1098=PLANE('',#1268);
#1099=PLANE('',#1269);
#1100=PLANE('',#1270);
#1101=PLANE('',#1271);
#1102=PLANE('',#1272);
#1103=ADVANCED_FACE('',(#40),#1032,.T.);
#1104=ADVANCED_FACE('',(#41),#1033,.T.);
#1105=ADVANCED_FACE('',(#42),#1034,.T.);
#1106=ADVANCED_FACE('',(#43),#1035,.T.);
#1107=ADVANCED_FACE('',(#44),#1036,.T.);
#1108=ADVANCED_FACE('',(#45),#1037,.F.);
#1109=ADVANCED_FACE('',(#46),#1038,.T.);
#1110=ADVANCED_FACE('',(#47),#1039,.T.);
#1111=ADVANCED_FACE('',(#48),#1040,.T.);
#1112=ADVANCED_FACE('',(#49),#1041,.T.);
#1113=ADVANCED_FACE('',(#50),#1042,.T.);
#1114=ADVANCED_FACE('',(#51),#1043,.F.);
#1115=ADVANCED_FACE('',(#52),#1044,.T.);
#1116=ADVANCED_FACE('',(#53),#1045,.T.);
#1117=ADVANCED_FACE('',(#54),#1046,.T.);
#1118=ADVANCED_FACE('',(#55),#1047,.T.);
#1119=ADVANCED_FACE('',(#56),#1048,.T.);
#1120=ADVANCED_FACE('',(#57),#1049,.F.);
#1121=ADVANCED_FACE('',(#58),#1050,.T.);
#1122=ADVANCED_FACE('',(#59),#1051,.T.);
#1123=ADVANCED_FACE('',(#60),#1052,.T.);
#1124=ADVANCED_FACE('',(#61),#1053,.T.);
#1125=ADVANCED_FACE('',(#62),#1054,.T.);
#1126=ADVANCED_FACE('',(#63),#1055,.F.);
#1127=ADVANCED_FACE('',(#64),#1056,.T.);
#1128=ADVANCED_FACE('',(#65),#1057,.T.);
#1129=ADVANCED_FACE('',(#66),#1058,.T.);
#1130=ADVANCED_FACE('',(#67),#17,.F.);
#1131=ADVANCED_FACE('',(#68),#1059,.T.);
#1132=ADVANCED_FACE('',(#69),#1060,.T.);
#1133=ADVANCED_FACE('',(#70),#1061,.T.);
#1134=ADVANCED_FACE('',(#71),#1062,.F.);
#1135=ADVANCED_FACE('',(#72),#1063,.T.);
#1136=ADVANCED_FACE('',(#73),#1064,.T.);
#1137=ADVANCED_FACE('',(#74),#1065,.T.);
#1138=ADVANCED_FACE('',(#75),#1066,.T.);
#1139=ADVANCED_FACE('',(#76),#1067,.T.);
#1140=ADVANCED_FACE('',(#77),#1068,.T.);
#1141=ADVANCED_FACE('',(#78),#1069,.T.);
#1142=ADVANCED_FACE('',(#79),#1070,.T.);
#1143=ADVANCED_FACE('',(#80,#13),#1071,.T.);
#1144=ADVANCED_FACE('',(#81,#14),#1072,.F.);
#1145=ADVANCED_FACE('',(#82),#1073,.T.);
#1146=ADVANCED_FACE('',(#83),#1074,.T.);
#1147=ADVANCED_FACE('',(#84),#1075,.T.);
#1148=ADVANCED_FACE('',(#85),#1076,.T.);
#1149=ADVANCED_FACE('',(#86),#1077,.T.);
#1150=ADVANCED_FACE('',(#87),#1078,.F.);
#1151=ADVANCED_FACE('',(#88),#1079,.T.);
#1152=ADVANCED_FACE('',(#89),#1080,.T.);
#1153=ADVANCED_FACE('',(#90),#1081,.T.);
#1154=ADVANCED_FACE('',(#91),#1082,.T.);
#1155=ADVANCED_FACE('',(#92),#1083,.T.);
#1156=ADVANCED_FACE('',(#93),#1084,.F.);
#1157=ADVANCED_FACE('',(#94),#1085,.T.);
#1158=ADVANCED_FACE('',(#95),#1086,.T.);
#1159=ADVANCED_FACE('',(#96),#1087,.T.);
#1160=ADVANCED_FACE('',(#97),#1088,.T.);
#1161=ADVANCED_FACE('',(#98),#1089,.T.);
#1162=ADVANCED_FACE('',(#99),#1090,.F.);
#1163=ADVANCED_FACE('',(#100),#1091,.T.);
#1164=ADVANCED_FACE('',(#101),#1092,.T.);
#1165=ADVANCED_FACE('',(#102),#1093,.T.);
#1166=ADVANCED_FACE('',(#103),#1094,.T.);
#1167=ADVANCED_FACE('',(#104),#1095,.T.);
#1168=ADVANCED_FACE('',(#105),#1096,.F.);
#1169=ADVANCED_FACE('',(#106),#1097,.T.);
#1170=ADVANCED_FACE('',(#107),#1098,.T.);
#1171=ADVANCED_FACE('',(#108),#1099,.T.);
#1172=ADVANCED_FACE('',(#109),#1100,.T.);
#1173=ADVANCED_FACE('',(#110),#1101,.T.);
#1174=ADVANCED_FACE('',(#111),#1102,.F.);
#1175=CLOSED_SHELL('',(#1103,#1104,#1105,#1106,#1107,#1108));
#1176=CLOSED_SHELL('',(#1109,#1110,#1111,#1112,#1113,#1114));
#1177=CLOSED_SHELL('',(#1115,#1116,#1117,#1118,#1119,#1120));
#1178=CLOSED_SHELL('',(#1121,#1122,#1123,#1124,#1125,#1126));
#1179=CLOSED_SHELL('',(#1127,#1128,#1129,#1130,#1131,#1132,#1133,#1134));
#1180=CLOSED_SHELL('',(#1135,#1136,#1137,#1138,#1139,#1140,#1141,#1142,
#1143,#1144));
#1181=CLOSED_SHELL('',(#1145,#1146,#1147,#1148,#1149,#1150));
#1182=CLOSED_SHELL('',(#1151,#1152,#1153,#1154,#1155,#1156));
#1183=CLOSED_SHELL('',(#1157,#1158,#1159,#1160,#1161,#1162));
#1184=CLOSED_SHELL('',(#1163,#1164,#1165,#1166,#1167,#1168));
#1185=CLOSED_SHELL('',(#1169,#1170,#1171,#1172,#1173,#1174));
#1186=DERIVED_UNIT_ELEMENT(#1188,1.);
#1187=DERIVED_UNIT_ELEMENT(#1899,-3.);
#1188=(
MASS_UNIT()
NAMED_UNIT(*)
SI_UNIT(.KILO.,.GRAM.)
);
#1189=DERIVED_UNIT((#1186,#1187));
#1190=MEASURE_REPRESENTATION_ITEM('density measure',
POSITIVE_RATIO_MEASURE(7850.),#1189);
#1191=PROPERTY_DEFINITION_REPRESENTATION(#1196,#1193);
#1192=PROPERTY_DEFINITION_REPRESENTATION(#1197,#1194);
#1193=REPRESENTATION('material name',(#1195),#1896);
#1194=REPRESENTATION('density',(#1190),#1896);
#1195=DESCRIPTIVE_REPRESENTATION_ITEM('Steel','Steel');
#1196=PROPERTY_DEFINITION('material property','material name',#1906);
#1197=PROPERTY_DEFINITION('material property','density of part',#1906);
#1198=AXIS2_PLACEMENT_3D('',#1571,#1273,#1274);
#1199=AXIS2_PLACEMENT_3D('',#1572,#1275,#1276);
#1200=AXIS2_PLACEMENT_3D('',#1581,#1281,#1282);
#1201=AXIS2_PLACEMENT_3D('',#1587,#1286,#1287);
#1202=AXIS2_PLACEMENT_3D('',#1593,#1291,#1292);
#1203=AXIS2_PLACEMENT_3D('',#1596,#1295,#1296);
#1204=AXIS2_PLACEMENT_3D('',#1597,#1297,#1298);
#1205=AXIS2_PLACEMENT_3D('',#1598,#1299,#1300);
#1206=AXIS2_PLACEMENT_3D('',#1607,#1305,#1306);
#1207=AXIS2_PLACEMENT_3D('',#1613,#1310,#1311);
#1208=AXIS2_PLACEMENT_3D('',#1619,#1315,#1316);
#1209=AXIS2_PLACEMENT_3D('',#1622,#1319,#1320);
#1210=AXIS2_PLACEMENT_3D('',#1623,#1321,#1322);
#1211=AXIS2_PLACEMENT_3D('',#1624,#1323,#1324);
#1212=AXIS2_PLACEMENT_3D('',#1633,#1329,#1330);
#1213=AXIS2_PLACEMENT_3D('',#1639,#1334,#1335);
#1214=AXIS2_PLACEMENT_3D('',#1645,#1339,#1340);
#1215=AXIS2_PLACEMENT_3D('',#1648,#1343,#1344);
#1216=AXIS2_PLACEMENT_3D('',#1649,#1345,#1346);
#1217=AXIS2_PLACEMENT_3D('',#1650,#1347,#1348);
#1218=AXIS2_PLACEMENT_3D('',#1659,#1353,#1354);
#1219=AXIS2_PLACEMENT_3D('',#1665,#1358,#1359);
#1220=AXIS2_PLACEMENT_3D('',#1671,#1363,#1364);
#1221=AXIS2_PLACEMENT_3D('',#1674,#1367,#1368);
#1222=AXIS2_PLACEMENT_3D('',#1675,#1369,#1370);
#1223=AXIS2_PLACEMENT_3D('',#1676,#1371,#1372);
#1224=AXIS2_PLACEMENT_3D('',#1685,#1377,#1378);
#1225=AXIS2_PLACEMENT_3D('',#1691,#1382,#1383);
#1226=AXIS2_PLACEMENT_3D('',#1697,#1387,#1388);
#1227=AXIS2_PLACEMENT_3D('',#1699,#1389,#1390);
#1228=AXIS2_PLACEMENT_3D('',#1701,#1391,#1392);
#1229=AXIS2_PLACEMENT_3D('',#1703,#1394,#1395);
#1230=AXIS2_PLACEMENT_3D('',#1709,#1399,#1400);
#1231=AXIS2_PLACEMENT_3D('',#1712,#1403,#1404);
#1232=AXIS2_PLACEMENT_3D('',#1713,#1405,#1406);
#1233=AXIS2_PLACEMENT_3D('',#1714,#1407,#1408);
#1234=AXIS2_PLACEMENT_3D('',#1723,#1413,#1414);
#1235=AXIS2_PLACEMENT_3D('',#1729,#1418,#1419);
#1236=AXIS2_PLACEMENT_3D('',#1735,#1423,#1424);
#1237=AXIS2_PLACEMENT_3D('',#1738,#1427,#1428);
#1238=AXIS2_PLACEMENT_3D('',#1747,#1433,#1434);
#1239=AXIS2_PLACEMENT_3D('',#1753,#1438,#1439);
#1240=AXIS2_PLACEMENT_3D('',#1759,#1443,#1444);
#1241=AXIS2_PLACEMENT_3D('',#1762,#1447,#1448);
#1242=AXIS2_PLACEMENT_3D('',#1763,#1449,#1450);
#1243=AXIS2_PLACEMENT_3D('',#1764,#1451,#1452);
#1244=AXIS2_PLACEMENT_3D('',#1773,#1457,#1458);
#1245=AXIS2_PLACEMENT_3D('',#1779,#1462,#1463);
#1246=AXIS2_PLACEMENT_3D('',#1785,#1467,#1468);
#1247=AXIS2_PLACEMENT_3D('',#1788,#1471,#1472);
#1248=AXIS2_PLACEMENT_3D('',#1789,#1473,#1474);
#1249=AXIS2_PLACEMENT_3D('',#1790,#1475,#1476);
#1250=AXIS2_PLACEMENT_3D('',#1799,#1481,#1482);
#1251=AXIS2_PLACEMENT_3D('',#1805,#1486,#1487);
#1252=AXIS2_PLACEMENT_3D('',#1811,#1491,#1492);
#1253=AXIS2_PLACEMENT_3D('',#1814,#1495,#1496);
#1254=AXIS2_PLACEMENT_3D('',#1815,#1497,#1498);
#1255=AXIS2_PLACEMENT_3D('',#1816,#1499,#1500);
#1256=AXIS2_PLACEMENT_3D('',#1825,#1505,#1506);
#1257=AXIS2_PLACEMENT_3D('',#1831,#1510,#1511);
#1258=AXIS2_PLACEMENT_3D('',#1837,#1515,#1516);
#1259=AXIS2_PLACEMENT_3D('',#1840,#1519,#1520);
#1260=AXIS2_PLACEMENT_3D('',#1841,#1521,#1522);
#1261=AXIS2_PLACEMENT_3D('',#1842,#1523,#1524);
#1262=AXIS2_PLACEMENT_3D('',#1851,#1529,#1530);
#1263=AXIS2_PLACEMENT_3D('',#1857,#1534,#1535);
#1264=AXIS2_PLACEMENT_3D('',#1863,#1539,#1540);
#1265=AXIS2_PLACEMENT_3D('',#1866,#1543,#1544);
#1266=AXIS2_PLACEMENT_3D('',#1867,#1545,#1546);
#1267=AXIS2_PLACEMENT_3D('',#1868,#1547,#1548);
#1268=AXIS2_PLACEMENT_3D('',#1877,#1553,#1554);
#1269=AXIS2_PLACEMENT_3D('',#1883,#1558,#1559);
#1270=AXIS2_PLACEMENT_3D('',#1889,#1563,#1564);
#1271=AXIS2_PLACEMENT_3D('',#1892,#1567,#1568);
#1272=AXIS2_PLACEMENT_3D('',#1893,#1569,#1570);
#1273=DIRECTION('axis',(0.,0.,1.));
#1274=DIRECTION('refdir',(1.,0.,0.));
#1275=DIRECTION('center_axis',(0.,1.,0.));
#1276=DIRECTION('ref_axis',(-1.,0.,0.));
#1277=DIRECTION('',(-1.,0.,0.));
#1278=DIRECTION('',(0.,0.,1.));
#1279=DIRECTION('',(-1.,0.,0.));
#1280=DIRECTION('',(0.,0.,1.));
#1281=DIRECTION('center_axis',(1.,0.,0.));
#1282=DIRECTION('ref_axis',(0.,1.,0.));
#1283=DIRECTION('',(0.,1.,0.));
#1284=DIRECTION('',(0.,1.,0.));
#1285=DIRECTION('',(0.,0.,1.));
#1286=DIRECTION('center_axis',(0.,-1.,0.));
#1287=DIRECTION('ref_axis',(1.,0.,0.));
#1288=DIRECTION('',(1.,0.,0.));
#1289=DIRECTION('',(1.,0.,0.));
#1290=DIRECTION('',(0.,0.,1.));
#1291=DIRECTION('center_axis',(-1.,0.,0.));
#1292=DIRECTION('ref_axis',(0.,-1.,0.));
#1293=DIRECTION('',(0.,-1.,0.));
#1294=DIRECTION('',(0.,-1.,0.));
#1295=DIRECTION('center_axis',(0.,0.,1.));
#1296=DIRECTION('ref_axis',(1.,0.,0.));
#1297=DIRECTION('center_axis',(0.,0.,1.));
#1298=DIRECTION('ref_axis',(1.,0.,0.));
#1299=DIRECTION('center_axis',(0.,1.,0.));
#1300=DIRECTION('ref_axis',(-1.,0.,0.));
#1301=DIRECTION('',(-1.,0.,0.));
#1302=DIRECTION('',(0.,0.,1.));
#1303=DIRECTION('',(-1.,0.,0.));
#1304=DIRECTION('',(0.,0.,1.));
#1305=DIRECTION('center_axis',(1.,0.,0.));
#1306=DIRECTION('ref_axis',(0.,1.,0.));
#1307=DIRECTION('',(0.,1.,0.));
#1308=DIRECTION('',(0.,1.,0.));
#1309=DIRECTION('',(0.,0.,1.));
#1310=DIRECTION('center_axis',(0.,-1.,0.));
#1311=DIRECTION('ref_axis',(1.,0.,0.));
#1312=DIRECTION('',(1.,0.,0.));
#1313=DIRECTION('',(1.,0.,0.));
#1314=DIRECTION('',(0.,0.,1.));
#1315=DIRECTION('center_axis',(-1.,0.,0.));
#1316=DIRECTION('ref_axis',(0.,-1.,0.));
#1317=DIRECTION('',(0.,-1.,0.));
#1318=DIRECTION('',(0.,-1.,0.));
#1319=DIRECTION('center_axis',(0.,0.,1.));
#1320=DIRECTION('ref_axis',(1.,0.,0.));
#1321=DIRECTION('center_axis',(0.,0.,1.));
#1322=DIRECTION('ref_axis',(1.,0.,0.));
#1323=DIRECTION('center_axis',(0.,1.,0.));
#1324=DIRECTION('ref_axis',(-1.,0.,0.));
#1325=DIRECTION('',(-1.,0.,0.));
#1326=DIRECTION('',(0.,0.,1.));
#1327=DIRECTION('',(-1.,0.,0.));
#1328=DIRECTION('',(0.,0.,1.));
#1329=DIRECTION('center_axis',(1.,0.,0.));
#1330=DIRECTION('ref_axis',(0.,1.,0.));
#1331=DIRECTION('',(0.,1.,0.));
#1332=DIRECTION('',(0.,1.,0.));
#1333=DIRECTION('',(0.,0.,1.));
#1334=DIRECTION('center_axis',(0.,-1.,0.));
#1335=DIRECTION('ref_axis',(1.,0.,0.));
#1336=DIRECTION('',(1.,0.,0.));
#1337=DIRECTION('',(1.,0.,0.));
#1338=DIRECTION('',(0.,0.,1.));
#1339=DIRECTION('center_axis',(-1.,0.,0.));
#1340=DIRECTION('ref_axis',(0.,-1.,0.));
#1341=DIRECTION('',(0.,-1.,0.));
#1342=DIRECTION('',(0.,-1.,0.));
#1343=DIRECTION('center_axis',(0.,0.,1.));
#1344=DIRECTION('ref_axis',(1.,0.,0.));
#1345=DIRECTION('center_axis',(0.,0.,1.));
#1346=DIRECTION('ref_axis',(1.,0.,0.));
#1347=DIRECTION('center_axis',(0.,1.,0.));
#1348=DIRECTION('ref_axis',(-1.,0.,0.));
#1349=DIRECTION('',(-1.,0.,0.));
#1350=DIRECTION('',(0.,0.,1.));
#1351=DIRECTION('',(-1.,0.,0.));
#1352=DIRECTION('',(0.,0.,1.));
#1353=DIRECTION('center_axis',(1.,0.,0.));
#1354=DIRECTION('ref_axis',(0.,1.,0.));
#1355=DIRECTION('',(0.,1.,0.));
#1356=DIRECTION('',(0.,1.,0.));
#1357=DIRECTION('',(0.,0.,1.));
#1358=DIRECTION('center_axis',(0.,-1.,0.));
#1359=DIRECTION('ref_axis',(1.,0.,0.));
#1360=DIRECTION('',(1.,0.,0.));
#1361=DIRECTION('',(1.,0.,0.));
#1362=DIRECTION('',(0.,0.,1.));
#1363=DIRECTION('center_axis',(-1.,0.,0.));
#1364=DIRECTION('ref_axis',(0.,-1.,0.));
#1365=DIRECTION('',(0.,-1.,0.));
#1366=DIRECTION('',(0.,-1.,0.));
#1367=DIRECTION('center_axis',(0.,0.,1.));
#1368=DIRECTION('ref_axis',(1.,0.,0.));
#1369=DIRECTION('center_axis',(0.,0.,1.));
#1370=DIRECTION('ref_axis',(1.,0.,0.));
#1371=DIRECTION('center_axis',(0.,1.,0.));
#1372=DIRECTION('ref_axis',(0.,0.,-1.));
#1373=DIRECTION('',(0.,0.,1.));
#1374=DIRECTION('',(-1.,0.,0.));
#1375=DIRECTION('',(0.,0.,-1.));
#1376=DIRECTION('',(-1.,0.,0.));
#1377=DIRECTION('center_axis',(0.,0.,1.));
#1378=DIRECTION('ref_axis',(0.,1.,0.));
#1379=DIRECTION('',(0.,-1.,0.));
#1380=DIRECTION('',(0.,1.,0.));
#1381=DIRECTION('',(-1.,0.,0.));
#1382=DIRECTION('center_axis',(0.,-1.,0.));
#1383=DIRECTION('ref_axis',(0.,0.,1.));
#1384=DIRECTION('',(0.,0.,-1.));
#1385=DIRECTION('',(0.,0.,1.));
#1386=DIRECTION('',(-1.,0.,0.));
#1387=DIRECTION('center_axis',(-1.,0.,0.));
#1388=DIRECTION('ref_axis',(0.,1.,-7.04481399828022E-16));
#1389=DIRECTION('center_axis',(1.,0.,0.));
#1390=DIRECTION('ref_axis',(0.,0.,-1.));
#1391=DIRECTION('center_axis',(1.,0.,0.));
#1392=DIRECTION('ref_axis',(0.,0.,-1.));
#1393=DIRECTION('',(-1.,0.,0.));
#1394=DIRECTION('center_axis',(0.,-1.,0.));
#1395=DIRECTION('ref_axis',(0.,0.,1.));
#1396=DIRECTION('',(0.,0.,-1.));
#1397=DIRECTION('',(0.,0.,1.));
#1398=DIRECTION('',(-1.,0.,0.));
#1399=DIRECTION('center_axis',(0.,0.,-1.));
#1400=DIRECTION('ref_axis',(0.,-1.,0.));
#1401=DIRECTION('',(0.,1.,0.));
#1402=DIRECTION('',(0.,-1.,0.));
#1403=DIRECTION('center_axis',(1.,0.,0.));
#1404=DIRECTION('ref_axis',(0.,0.,-1.));
#1405=DIRECTION('center_axis',(1.,0.,0.));
#1406=DIRECTION('ref_axis',(0.,0.,-1.));
#1407=DIRECTION('center_axis',(0.,1.,0.));
#1408=DIRECTION('ref_axis',(0.,0.,1.));
#1409=DIRECTION('',(0.,0.,1.));
#1410=DIRECTION('',(1.,0.,0.));
#1411=DIRECTION('',(0.,0.,1.));
#1412=DIRECTION('',(1.,0.,0.));
#1413=DIRECTION('center_axis',(0.,0.,1.));
#1414=DIRECTION('ref_axis',(0.,-1.,0.));
#1415=DIRECTION('',(0.,-1.,0.));
#1416=DIRECTION('',(0.,-1.,0.));
#1417=DIRECTION('',(1.,0.,0.));
#1418=DIRECTION('center_axis',(0.,-1.,0.));
#1419=DIRECTION('ref_axis',(0.,0.,-1.));
#1420=DIRECTION('',(0.,0.,-1.));
#1421=DIRECTION('',(0.,0.,-1.));
#1422=DIRECTION('',(1.,0.,0.));
#1423=DIRECTION('center_axis',(0.,0.,-1.));
#1424=DIRECTION('ref_axis',(0.,1.,0.));
#1425=DIRECTION('',(0.,1.,0.));
#1426=DIRECTION('',(0.,1.,0.));
#1427=DIRECTION('center_axis',(0.,1.,0.));
#1428=DIRECTION('ref_axis',(0.,0.,1.));
#1429=DIRECTION('',(0.,0.,1.));
#1430=DIRECTION('',(1.,0.,0.));
#1431=DIRECTION('',(0.,0.,1.));
#1432=DIRECTION('',(1.,0.,0.));
#1433=DIRECTION('center_axis',(0.,0.,-1.));
#1434=DIRECTION('ref_axis',(0.,1.,0.));
#1435=DIRECTION('',(0.,1.,0.));
#1436=DIRECTION('',(0.,1.,0.));
#1437=DIRECTION('',(1.,0.,0.));
#1438=DIRECTION('center_axis',(0.,-1.,0.));
#1439=DIRECTION('ref_axis',(0.,0.,-1.));
#1440=DIRECTION('',(0.,0.,-1.));
#1441=DIRECTION('',(0.,0.,-1.));
#1442=DIRECTION('',(1.,0.,0.));
#1443=DIRECTION('center_axis',(0.,0.,1.));
#1444=DIRECTION('ref_axis',(0.,-1.,0.));
#1445=DIRECTION('',(0.,-1.,0.));
#1446=DIRECTION('',(0.,-1.,0.));
#1447=DIRECTION('center_axis',(1.,0.,0.));
#1448=DIRECTION('ref_axis',(0.,0.,-1.));
#1449=DIRECTION('center_axis',(1.,0.,0.));
#1450=DIRECTION('ref_axis',(0.,0.,-1.));
#1451=DIRECTION('center_axis',(0.,1.,0.));
#1452=DIRECTION('ref_axis',(-1.,0.,0.));
#1453=DIRECTION('',(-1.,0.,0.));
#1454=DIRECTION('',(0.,0.,1.));
#1455=DIRECTION('',(-1.,0.,0.));
#1456=DIRECTION('',(0.,0.,1.));
#1457=DIRECTION('center_axis',(1.,0.,0.));
#1458=DIRECTION('ref_axis',(0.,1.,0.));
#1459=DIRECTION('',(0.,1.,0.));
#1460=DIRECTION('',(0.,1.,0.));
#1461=DIRECTION('',(0.,0.,1.));
#1462=DIRECTION('center_axis',(0.,-1.,0.));
#1463=DIRECTION('ref_axis',(1.,0.,0.));
#1464=DIRECTION('',(1.,0.,0.));
#1465=DIRECTION('',(1.,0.,0.));
#1466=DIRECTION('',(0.,0.,1.));
#1467=DIRECTION('center_axis',(-1.,0.,0.));
#1468=DIRECTION('ref_axis',(0.,-1.,0.));
#1469=DIRECTION('',(0.,-1.,0.));
#1470=DIRECTION('',(0.,-1.,0.));
#1471=DIRECTION('center_axis',(0.,0.,1.));
#1472=DIRECTION('ref_axis',(1.,0.,0.));
#1473=DIRECTION('center_axis',(0.,0.,1.));
#1474=DIRECTION('ref_axis',(1.,0.,0.));
#1475=DIRECTION('center_axis',(0.,1.,0.));
#1476=DIRECTION('ref_axis',(-1.,0.,0.));
#1477=DIRECTION('',(-1.,0.,0.));
#1478=DIRECTION('',(0.,0.,1.));
#1479=DIRECTION('',(-1.,0.,0.));
#1480=DIRECTION('',(0.,0.,1.));
#1481=DIRECTION('center_axis',(1.,0.,0.));
#1482=DIRECTION('ref_axis',(0.,1.,0.));
#1483=DIRECTION('',(0.,1.,0.));
#1484=DIRECTION('',(0.,1.,0.));
#1485=DIRECTION('',(0.,0.,1.));
#1486=DIRECTION('center_axis',(0.,-1.,0.));
#1487=DIRECTION('ref_axis',(1.,0.,0.));
#1488=DIRECTION('',(1.,0.,0.));
#1489=DIRECTION('',(1.,0.,0.));
#1490=DIRECTION('',(0.,0.,1.));
#1491=DIRECTION('center_axis',(-1.,0.,0.));
#1492=DIRECTION('ref_axis',(0.,-1.,0.));
#1493=DIRECTION('',(0.,-1.,0.));
#1494=DIRECTION('',(0.,-1.,0.));
#1495=DIRECTION('center_axis',(0.,0.,1.));
#1496=DIRECTION('ref_axis',(1.,0.,0.));
#1497=DIRECTION('center_axis',(0.,0.,1.));
#1498=DIRECTION('ref_axis',(1.,0.,0.));
#1499=DIRECTION('center_axis',(0.,1.,0.));
#1500=DIRECTION('ref_axis',(-1.,0.,0.));
#1501=DIRECTION('',(-1.,0.,0.));
#1502=DIRECTION('',(0.,0.,1.));
#1503=DIRECTION('',(-1.,0.,0.));
#1504=DIRECTION('',(0.,0.,1.));
#1505=DIRECTION('center_axis',(1.,0.,0.));
#1506=DIRECTION('ref_axis',(0.,1.,0.));
#1507=DIRECTION('',(0.,1.,0.));
#1508=DIRECTION('',(0.,1.,0.));
#1509=DIRECTION('',(0.,0.,1.));
#1510=DIRECTION('center_axis',(0.,-1.,0.));
#1511=DIRECTION('ref_axis',(1.,0.,0.));
#1512=DIRECTION('',(1.,0.,0.));
#1513=DIRECTION('',(1.,0.,0.));
#1514=DIRECTION('',(0.,0.,1.));
#1515=DIRECTION('center_axis',(-1.,0.,0.));
#1516=DIRECTION('ref_axis',(0.,-1.,0.));
#1517=DIRECTION('',(0.,-1.,0.));
#1518=DIRECTION('',(0.,-1.,0.));
#1519=DIRECTION('center_axis',(0.,0.,1.));
#1520=DIRECTION('ref_axis',(1.,0.,0.));
#1521=DIRECTION('center_axis',(0.,0.,1.));
#1522=DIRECTION('ref_axis',(1.,0.,0.));
#1523=DIRECTION('center_axis',(0.,1.,0.));
#1524=DIRECTION('ref_axis',(-1.,0.,0.));
#1525=DIRECTION('',(-1.,0.,0.));
#1526=DIRECTION('',(0.,0.,1.));
#1527=DIRECTION('',(-1.,0.,0.));
#1528=DIRECTION('',(0.,0.,1.));
#1529=DIRECTION('center_axis',(1.,0.,0.));
#1530=DIRECTION('ref_axis',(0.,1.,0.));
#1531=DIRECTION('',(0.,1.,0.));
#1532=DIRECTION('',(0.,1.,0.));
#1533=DIRECTION('',(0.,0.,1.));
#1534=DIRECTION('center_axis',(0.,-1.,0.));
#1535=DIRECTION('ref_axis',(1.,0.,0.));
#1536=DIRECTION('',(1.,0.,0.));
#1537=DIRECTION('',(1.,0.,0.));
#1538=DIRECTION('',(0.,0.,1.));
#1539=DIRECTION('center_axis',(-1.,0.,0.));
#1540=DIRECTION('ref_axis',(0.,-1.,0.));
#1541=DIRECTION('',(0.,-1.,0.));
#1542=DIRECTION('',(0.,-1.,0.));
#1543=DIRECTION('center_axis',(0.,0.,1.));
#1544=DIRECTION('ref_axis',(1.,0.,0.));
#1545=DIRECTION('center_axis',(0.,0.,1.));
#1546=DIRECTION('ref_axis',(1.,0.,0.));
#1547=DIRECTION('center_axis',(0.,1.,0.));
#1548=DIRECTION('ref_axis',(-1.,0.,0.));
#1549=DIRECTION('',(-1.,0.,0.));
#1550=DIRECTION('',(0.,0.,1.));
#1551=DIRECTION('',(-1.,0.,0.));
#1552=DIRECTION('',(0.,0.,1.));
#1553=DIRECTION('center_axis',(1.,0.,0.));
#1554=DIRECTION('ref_axis',(0.,1.,0.));
#1555=DIRECTION('',(0.,1.,0.));
#1556=DIRECTION('',(0.,1.,0.));
#1557=DIRECTION('',(0.,0.,1.));
#1558=DIRECTION('center_axis',(0.,-1.,0.));
#1559=DIRECTION('ref_axis',(1.,0.,0.));
#1560=DIRECTION('',(1.,0.,0.));
#1561=DIRECTION('',(1.,0.,0.));
#1562=DIRECTION('',(0.,0.,1.));
#1563=DIRECTION('center_axis',(-1.,0.,0.));
#1564=DIRECTION('ref_axis',(0.,-1.,0.));
#1565=DIRECTION('',(0.,-1.,0.));
#1566=DIRECTION('',(0.,-1.,0.));
#1567=DIRECTION('center_axis',(0.,0.,1.));
#1568=DIRECTION('ref_axis',(1.,0.,0.));
#1569=DIRECTION('center_axis',(0.,0.,1.));
#1570=DIRECTION('ref_axis',(1.,0.,0.));
#1571=CARTESIAN_POINT('',(0.,0.,0.));
#1572=CARTESIAN_POINT('Origin',(1807.,265.,0.));
#1573=CARTESIAN_POINT('',(1807.,265.,0.));
#1574=CARTESIAN_POINT('',(-32.,265.,0.));
#1575=CARTESIAN_POINT('',(1807.,265.,0.));
#1576=CARTESIAN_POINT('',(-32.,265.,2.));
#1577=CARTESIAN_POINT('',(-32.,265.,0.));
#1578=CARTESIAN_POINT('',(1807.,265.,2.));
#1579=CARTESIAN_POINT('',(1807.,265.,2.));
#1580=CARTESIAN_POINT('',(1807.,265.,0.));
#1581=CARTESIAN_POINT('Origin',(1807.,-265.,0.));
#1582=CARTESIAN_POINT('',(1807.,-265.,0.));
#1583=CARTESIAN_POINT('',(1807.,-265.,0.));
#1584=CARTESIAN_POINT('',(1807.,-265.,2.));
#1585=CARTESIAN_POINT('',(1807.,-265.,2.));
#1586=CARTESIAN_POINT('',(1807.,-265.,0.));
#1587=CARTESIAN_POINT('Origin',(-32.,-265.,0.));
#1588=CARTESIAN_POINT('',(-32.,-265.,0.));
#1589=CARTESIAN_POINT('',(-32.,-265.,0.));
#1590=CARTESIAN_POINT('',(-32.,-265.,2.));
#1591=CARTESIAN_POINT('',(-32.,-265.,2.));
#1592=CARTESIAN_POINT('',(-32.,-265.,0.));
#1593=CARTESIAN_POINT('Origin',(-32.,265.,0.));
#1594=CARTESIAN_POINT('',(-32.,265.,0.));
#1595=CARTESIAN_POINT('',(-32.,265.,2.));
#1596=CARTESIAN_POINT('Origin',(887.5,0.,2.));
#1597=CARTESIAN_POINT('Origin',(887.5,0.,0.));
#1598=CARTESIAN_POINT('Origin',(1807.,265.,0.));
#1599=CARTESIAN_POINT('',(1807.,265.,0.));
#1600=CARTESIAN_POINT('',(-32.,265.,0.));
#1601=CARTESIAN_POINT('',(1807.,265.,0.));
#1602=CARTESIAN_POINT('',(-32.,265.,2.));
#1603=CARTESIAN_POINT('',(-32.,265.,0.));
#1604=CARTESIAN_POINT('',(1807.,265.,2.));
#1605=CARTESIAN_POINT('',(1807.,265.,2.));
#1606=CARTESIAN_POINT('',(1807.,265.,0.));
#1607=CARTESIAN_POINT('Origin',(1807.,-265.,0.));
#1608=CARTESIAN_POINT('',(1807.,-265.,0.));
#1609=CARTESIAN_POINT('',(1807.,-265.,0.));
#1610=CARTESIAN_POINT('',(1807.,-265.,2.));
#1611=CARTESIAN_POINT('',(1807.,-265.,2.));
#1612=CARTESIAN_POINT('',(1807.,-265.,0.));
#1613=CARTESIAN_POINT('Origin',(-32.,-265.,0.));
#1614=CARTESIAN_POINT('',(-32.,-265.,0.));
#1615=CARTESIAN_POINT('',(-32.,-265.,0.));
#1616=CARTESIAN_POINT('',(-32.,-265.,2.));
#1617=CARTESIAN_POINT('',(-32.,-265.,2.));
#1618=CARTESIAN_POINT('',(-32.,-265.,0.));
#1619=CARTESIAN_POINT('Origin',(-32.,265.,0.));
#1620=CARTESIAN_POINT('',(-32.,265.,0.));
#1621=CARTESIAN_POINT('',(-32.,265.,2.));
#1622=CARTESIAN_POINT('Origin',(887.5,0.,2.));
#1623=CARTESIAN_POINT('Origin',(887.5,0.,0.));
#1624=CARTESIAN_POINT('Origin',(1807.,265.,0.));
#1625=CARTESIAN_POINT('',(1807.,265.,0.));
#1626=CARTESIAN_POINT('',(-32.,265.,0.));
#1627=CARTESIAN_POINT('',(1807.,265.,0.));
#1628=CARTESIAN_POINT('',(-32.,265.,914.));
#1629=CARTESIAN_POINT('',(-32.,265.,0.));
#1630=CARTESIAN_POINT('',(1807.,265.,914.));
#1631=CARTESIAN_POINT('',(1807.,265.,914.));
#1632=CARTESIAN_POINT('',(1807.,265.,0.));
#1633=CARTESIAN_POINT('Origin',(1807.,263.,0.));
#1634=CARTESIAN_POINT('',(1807.,263.,0.));
#1635=CARTESIAN_POINT('',(1807.,263.,0.));
#1636=CARTESIAN_POINT('',(1807.,263.,914.));
#1637=CARTESIAN_POINT('',(1807.,263.,914.));
#1638=CARTESIAN_POINT('',(1807.,263.,0.));
#1639=CARTESIAN_POINT('Origin',(-32.,263.,0.));
#1640=CARTESIAN_POINT('',(-32.,263.,0.));
#1641=CARTESIAN_POINT('',(-32.,263.,0.));
#1642=CARTESIAN_POINT('',(-32.,263.,914.));
#1643=CARTESIAN_POINT('',(-32.,263.,914.));
#1644=CARTESIAN_POINT('',(-32.,263.,0.));
#1645=CARTESIAN_POINT('Origin',(-32.,265.,0.));
#1646=CARTESIAN_POINT('',(-32.,265.,0.));
#1647=CARTESIAN_POINT('',(-32.,265.,914.));
#1648=CARTESIAN_POINT('Origin',(887.5,264.,914.));
#1649=CARTESIAN_POINT('Origin',(887.5,264.,0.));
#1650=CARTESIAN_POINT('Origin',(1807.,-263.,0.));
#1651=CARTESIAN_POINT('',(1807.,-263.,0.));
#1652=CARTESIAN_POINT('',(-32.,-263.,0.));
#1653=CARTESIAN_POINT('',(1807.,-263.,0.));
#1654=CARTESIAN_POINT('',(-32.,-263.,914.));
#1655=CARTESIAN_POINT('',(-32.,-263.,0.));
#1656=CARTESIAN_POINT('',(1807.,-263.,914.));
#1657=CARTESIAN_POINT('',(1807.,-263.,914.));
#1658=CARTESIAN_POINT('',(1807.,-263.,0.));
#1659=CARTESIAN_POINT('Origin',(1807.,-265.,0.));
#1660=CARTESIAN_POINT('',(1807.,-265.,0.));
#1661=CARTESIAN_POINT('',(1807.,-265.,0.));
#1662=CARTESIAN_POINT('',(1807.,-265.,914.));
#1663=CARTESIAN_POINT('',(1807.,-265.,914.));
#1664=CARTESIAN_POINT('',(1807.,-265.,0.));
#1665=CARTESIAN_POINT('Origin',(-32.,-265.,0.));
#1666=CARTESIAN_POINT('',(-32.,-265.,0.));
#1667=CARTESIAN_POINT('',(-32.,-265.,0.));
#1668=CARTESIAN_POINT('',(-32.,-265.,914.));
#1669=CARTESIAN_POINT('',(-32.,-265.,914.));
#1670=CARTESIAN_POINT('',(-32.,-265.,0.));
#1671=CARTESIAN_POINT('Origin',(-32.,-263.,0.));
#1672=CARTESIAN_POINT('',(-32.,-263.,0.));
#1673=CARTESIAN_POINT('',(-32.,-263.,914.));
#1674=CARTESIAN_POINT('Origin',(887.5,-264.,914.));
#1675=CARTESIAN_POINT('Origin',(887.5,-264.,0.));
#1676=CARTESIAN_POINT('Origin',(0.,707.,265.));
#1677=CARTESIAN_POINT('',(0.,707.,-265.));
#1678=CARTESIAN_POINT('',(0.,707.,265.));
#1679=CARTESIAN_POINT('',(0.,707.,-265.));
#1680=CARTESIAN_POINT('',(-2.,707.,-265.));
#1681=CARTESIAN_POINT('',(0.,707.,-265.));
#1682=CARTESIAN_POINT('',(-2.,707.,265.));
#1683=CARTESIAN_POINT('',(-2.,707.,-265.));
#1684=CARTESIAN_POINT('',(0.,707.,265.));
#1685=CARTESIAN_POINT('Origin',(0.,-207.,265.));
#1686=CARTESIAN_POINT('',(0.,-207.,265.));
#1687=CARTESIAN_POINT('',(0.,707.,265.));
#1688=CARTESIAN_POINT('',(-2.,-207.,265.));
#1689=CARTESIAN_POINT('',(-2.,707.,265.));
#1690=CARTESIAN_POINT('',(0.,-207.,265.));
#1691=CARTESIAN_POINT('Origin',(0.,-207.,106.957935656968));
#1692=CARTESIAN_POINT('',(0.,-207.,106.957935656968));
#1693=CARTESIAN_POINT('',(0.,-207.,265.));
#1694=CARTESIAN_POINT('',(-2.,-207.,106.957935656968));
#1695=CARTESIAN_POINT('',(-2.,-207.,265.));
#1696=CARTESIAN_POINT('',(0.,-207.,106.957935656968));
#1697=CARTESIAN_POINT('Origin',(0.,0.,0.));
#1698=CARTESIAN_POINT('',(0.,-207.,-106.957935656967));
#1699=CARTESIAN_POINT('Origin',(0.,0.,0.));
#1700=CARTESIAN_POINT('',(-2.,-207.,-106.957935656967));
#1701=CARTESIAN_POINT('Origin',(-2.,0.,0.));
#1702=CARTESIAN_POINT('',(0.,-207.,-106.957935656967));
#1703=CARTESIAN_POINT('Origin',(0.,-207.,-265.));
#1704=CARTESIAN_POINT('',(0.,-207.,-265.));
#1705=CARTESIAN_POINT('',(0.,-207.,265.));
#1706=CARTESIAN_POINT('',(-2.,-207.,-265.));
#1707=CARTESIAN_POINT('',(-2.,-207.,265.));
#1708=CARTESIAN_POINT('',(0.,-207.,-265.));
#1709=CARTESIAN_POINT('Origin',(0.,707.,-265.));
#1710=CARTESIAN_POINT('',(0.,-207.,-265.));
#1711=CARTESIAN_POINT('',(-2.,-207.,-265.));
#1712=CARTESIAN_POINT('Origin',(0.,250.,0.));
#1713=CARTESIAN_POINT('Origin',(-2.,250.,0.));
#1714=CARTESIAN_POINT('Origin',(0.,-10.,-80.));
#1715=CARTESIAN_POINT('',(0.,-10.,-80.));
#1716=CARTESIAN_POINT('',(0.,-10.,80.));
#1717=CARTESIAN_POINT('',(0.,-10.,80.));
#1718=CARTESIAN_POINT('',(2.,-10.,80.));
#1719=CARTESIAN_POINT('',(0.,-10.,80.));
#1720=CARTESIAN_POINT('',(2.,-10.,-80.));
#1721=CARTESIAN_POINT('',(2.,-10.,80.));
#1722=CARTESIAN_POINT('',(0.,-10.,-80.));
#1723=CARTESIAN_POINT('Origin',(0.,150.,-80.));
#1724=CARTESIAN_POINT('',(0.,150.,-80.));
#1725=CARTESIAN_POINT('',(0.,-10.,-80.));
#1726=CARTESIAN_POINT('',(2.,150.,-80.));
#1727=CARTESIAN_POINT('',(2.,-10.,-80.));
#1728=CARTESIAN_POINT('',(0.,150.,-80.));
#1729=CARTESIAN_POINT('Origin',(0.,150.,80.));
#1730=CARTESIAN_POINT('',(0.,150.,80.));
#1731=CARTESIAN_POINT('',(0.,150.,-80.));
#1732=CARTESIAN_POINT('',(2.,150.,80.));
#1733=CARTESIAN_POINT('',(2.,150.,-80.));
#1734=CARTESIAN_POINT('',(0.,150.,80.));
#1735=CARTESIAN_POINT('Origin',(0.,-10.,80.));
#1736=CARTESIAN_POINT('',(0.,150.,80.));
#1737=CARTESIAN_POINT('',(2.,150.,80.));
#1738=CARTESIAN_POINT('Origin',(0.,707.,-265.));
#1739=CARTESIAN_POINT('',(0.,707.,-265.));
#1740=CARTESIAN_POINT('',(0.,707.,265.));
#1741=CARTESIAN_POINT('',(0.,707.,-265.));
#1742=CARTESIAN_POINT('',(2.,707.,265.));
#1743=CARTESIAN_POINT('',(0.,707.,265.));
#1744=CARTESIAN_POINT('',(2.,707.,-265.));
#1745=CARTESIAN_POINT('',(2.,707.,-265.));
#1746=CARTESIAN_POINT('',(0.,707.,-265.));
#1747=CARTESIAN_POINT('Origin',(0.,-207.,-265.));
#1748=CARTESIAN_POINT('',(0.,-207.,-265.));
#1749=CARTESIAN_POINT('',(0.,-207.,-265.));
#1750=CARTESIAN_POINT('',(2.,-207.,-265.));
#1751=CARTESIAN_POINT('',(2.,-207.,-265.));
#1752=CARTESIAN_POINT('',(0.,-207.,-265.));
#1753=CARTESIAN_POINT('Origin',(0.,-207.,265.));
#1754=CARTESIAN_POINT('',(0.,-207.,265.));
#1755=CARTESIAN_POINT('',(0.,-207.,265.));
#1756=CARTESIAN_POINT('',(2.,-207.,265.));
#1757=CARTESIAN_POINT('',(2.,-207.,265.));
#1758=CARTESIAN_POINT('',(0.,-207.,265.));
#1759=CARTESIAN_POINT('Origin',(0.,707.,265.));
#1760=CARTESIAN_POINT('',(0.,707.,265.));
#1761=CARTESIAN_POINT('',(2.,707.,265.));
#1762=CARTESIAN_POINT('Origin',(2.,250.,0.));
#1763=CARTESIAN_POINT('Origin',(0.,250.,0.));
#1764=CARTESIAN_POINT('Origin',(1670.,100.,0.));
#1765=CARTESIAN_POINT('',(1670.,100.,0.));
#1766=CARTESIAN_POINT('',(70.,100.,0.));
#1767=CARTESIAN_POINT('',(1670.,100.,0.));
#1768=CARTESIAN_POINT('',(70.,100.,3.));
#1769=CARTESIAN_POINT('',(70.,100.,0.));
#1770=CARTESIAN_POINT('',(1670.,100.,3.));
#1771=CARTESIAN_POINT('',(1670.,100.,3.));
#1772=CARTESIAN_POINT('',(1670.,100.,0.));
#1773=CARTESIAN_POINT('Origin',(1670.,-100.,0.));
#1774=CARTESIAN_POINT('',(1670.,-100.,0.));
#1775=CARTESIAN_POINT('',(1670.,-100.,0.));
#1776=CARTESIAN_POINT('',(1670.,-100.,3.));
#1777=CARTESIAN_POINT('',(1670.,-100.,3.));
#1778=CARTESIAN_POINT('',(1670.,-100.,0.));
#1779=CARTESIAN_POINT('Origin',(70.,-100.,0.));
#1780=CARTESIAN_POINT('',(70.,-100.,0.));
#1781=CARTESIAN_POINT('',(70.,-100.,0.));
#1782=CARTESIAN_POINT('',(70.,-100.,3.));
#1783=CARTESIAN_POINT('',(70.,-100.,3.));
#1784=CARTESIAN_POINT('',(70.,-100.,0.));
#1785=CARTESIAN_POINT('Origin',(70.,100.,0.));
#1786=CARTESIAN_POINT('',(70.,100.,0.));
#1787=CARTESIAN_POINT('',(70.,100.,3.));
#1788=CARTESIAN_POINT('Origin',(870.,0.,3.));
#1789=CARTESIAN_POINT('Origin',(870.,0.,0.));
#1790=CARTESIAN_POINT('Origin',(300.,-115.,0.));
#1791=CARTESIAN_POINT('',(300.,-115.,0.));
#1792=CARTESIAN_POINT('',(0.,-115.,0.));
#1793=CARTESIAN_POINT('',(300.,-115.,0.));
#1794=CARTESIAN_POINT('',(0.,-115.,150.));
#1795=CARTESIAN_POINT('',(0.,-115.,0.));
#1796=CARTESIAN_POINT('',(300.,-115.,150.));
#1797=CARTESIAN_POINT('',(300.,-115.,150.));
#1798=CARTESIAN_POINT('',(300.,-115.,0.));
#1799=CARTESIAN_POINT('Origin',(300.,-255.,0.));
#1800=CARTESIAN_POINT('',(300.,-255.,0.));
#1801=CARTESIAN_POINT('',(300.,-255.,0.));
#1802=CARTESIAN_POINT('',(300.,-255.,150.));
#1803=CARTESIAN_POINT('',(300.,-255.,150.));
#1804=CARTESIAN_POINT('',(300.,-255.,0.));
#1805=CARTESIAN_POINT('Origin',(0.,-255.,0.));
#1806=CARTESIAN_POINT('',(0.,-255.,0.));
#1807=CARTESIAN_POINT('',(0.,-255.,0.));
#1808=CARTESIAN_POINT('',(0.,-255.,150.));
#1809=CARTESIAN_POINT('',(0.,-255.,150.));
#1810=CARTESIAN_POINT('',(0.,-255.,0.));
#1811=CARTESIAN_POINT('Origin',(0.,-115.,0.));
#1812=CARTESIAN_POINT('',(0.,-115.,0.));
#1813=CARTESIAN_POINT('',(0.,-115.,150.));
#1814=CARTESIAN_POINT('Origin',(150.,-185.,150.));
#1815=CARTESIAN_POINT('Origin',(150.,-185.,0.));
#1816=CARTESIAN_POINT('Origin',(580.,-115.,0.));
#1817=CARTESIAN_POINT('',(580.,-115.,0.));
#1818=CARTESIAN_POINT('',(330.,-115.,0.));
#1819=CARTESIAN_POINT('',(580.,-115.,0.));
#1820=CARTESIAN_POINT('',(330.,-115.,100.));
#1821=CARTESIAN_POINT('',(330.,-115.,0.));
#1822=CARTESIAN_POINT('',(580.,-115.,100.));
#1823=CARTESIAN_POINT('',(580.,-115.,100.));
#1824=CARTESIAN_POINT('',(580.,-115.,0.));
#1825=CARTESIAN_POINT('Origin',(580.,-255.,0.));
#1826=CARTESIAN_POINT('',(580.,-255.,0.));
#1827=CARTESIAN_POINT('',(580.,-255.,0.));
#1828=CARTESIAN_POINT('',(580.,-255.,100.));
#1829=CARTESIAN_POINT('',(580.,-255.,100.));
#1830=CARTESIAN_POINT('',(580.,-255.,0.));
#1831=CARTESIAN_POINT('Origin',(330.,-255.,0.));
#1832=CARTESIAN_POINT('',(330.,-255.,0.));
#1833=CARTESIAN_POINT('',(330.,-255.,0.));
#1834=CARTESIAN_POINT('',(330.,-255.,100.));
#1835=CARTESIAN_POINT('',(330.,-255.,100.));
#1836=CARTESIAN_POINT('',(330.,-255.,0.));
#1837=CARTESIAN_POINT('Origin',(330.,-115.,0.));
#1838=CARTESIAN_POINT('',(330.,-115.,0.));
#1839=CARTESIAN_POINT('',(330.,-115.,100.));
#1840=CARTESIAN_POINT('Origin',(455.,-185.,100.));
#1841=CARTESIAN_POINT('Origin',(455.,-185.,0.));
#1842=CARTESIAN_POINT('Origin',(760.,-135.,0.));
#1843=CARTESIAN_POINT('',(760.,-135.,0.));
#1844=CARTESIAN_POINT('',(610.,-135.,0.));
#1845=CARTESIAN_POINT('',(760.,-135.,0.));
#1846=CARTESIAN_POINT('',(610.,-135.,80.));
#1847=CARTESIAN_POINT('',(610.,-135.,0.));
#1848=CARTESIAN_POINT('',(760.,-135.,80.));
#1849=CARTESIAN_POINT('',(760.,-135.,80.));
#1850=CARTESIAN_POINT('',(760.,-135.,0.));
#1851=CARTESIAN_POINT('Origin',(760.,-255.,0.));
#1852=CARTESIAN_POINT('',(760.,-255.,0.));
#1853=CARTESIAN_POINT('',(760.,-255.,0.));
#1854=CARTESIAN_POINT('',(760.,-255.,80.));
#1855=CARTESIAN_POINT('',(760.,-255.,80.));
#1856=CARTESIAN_POINT('',(760.,-255.,0.));
#1857=CARTESIAN_POINT('Origin',(610.,-255.,0.));
#1858=CARTESIAN_POINT('',(610.,-255.,0.));
#1859=CARTESIAN_POINT('',(610.,-255.,0.));
#1860=CARTESIAN_POINT('',(610.,-255.,80.));
#1861=CARTESIAN_POINT('',(610.,-255.,80.));
#1862=CARTESIAN_POINT('',(610.,-255.,0.));
#1863=CARTESIAN_POINT('Origin',(610.,-135.,0.));
#1864=CARTESIAN_POINT('',(610.,-135.,0.));
#1865=CARTESIAN_POINT('',(610.,-135.,80.));
#1866=CARTESIAN_POINT('Origin',(685.,-195.,80.));
#1867=CARTESIAN_POINT('Origin',(685.,-195.,0.));
#1868=CARTESIAN_POINT('Origin',(850.,-195.,0.));
#1869=CARTESIAN_POINT('',(850.,-195.,0.));
#1870=CARTESIAN_POINT('',(790.,-195.,0.));
#1871=CARTESIAN_POINT('',(850.,-195.,0.));
#1872=CARTESIAN_POINT('',(790.,-195.,50.));
#1873=CARTESIAN_POINT('',(790.,-195.,0.));
#1874=CARTESIAN_POINT('',(850.,-195.,50.));
#1875=CARTESIAN_POINT('',(850.,-195.,50.));
#1876=CARTESIAN_POINT('',(850.,-195.,0.));
#1877=CARTESIAN_POINT('Origin',(850.,-255.,0.));
#1878=CARTESIAN_POINT('',(850.,-255.,0.));
#1879=CARTESIAN_POINT('',(850.,-255.,0.));
#1880=CARTESIAN_POINT('',(850.,-255.,50.));
#1881=CARTESIAN_POINT('',(850.,-255.,50.));
#1882=CARTESIAN_POINT('',(850.,-255.,0.));
#1883=CARTESIAN_POINT('Origin',(790.,-255.,0.));
#1884=CARTESIAN_POINT('',(790.,-255.,0.));
#1885=CARTESIAN_POINT('',(790.,-255.,0.));
#1886=CARTESIAN_POINT('',(790.,-255.,50.));
#1887=CARTESIAN_POINT('',(790.,-255.,50.));
#1888=CARTESIAN_POINT('',(790.,-255.,0.));
#1889=CARTESIAN_POINT('Origin',(790.,-195.,0.));
#1890=CARTESIAN_POINT('',(790.,-195.,0.));
#1891=CARTESIAN_POINT('',(790.,-195.,50.));
#1892=CARTESIAN_POINT('Origin',(820.,-225.,50.));
#1893=CARTESIAN_POINT('Origin',(820.,-225.,0.));
#1894=UNCERTAINTY_MEASURE_WITH_UNIT(LENGTH_MEASURE(0.01),#1898,
'DISTANCE_ACCURACY_VALUE',
'Maximum model space distance between geometric entities at asserted c
onnectivities');
#1895=UNCERTAINTY_MEASURE_WITH_UNIT(LENGTH_MEASURE(0.01),#1898,
'DISTANCE_ACCURACY_VALUE',
'Maximum model space distance between geometric entities at asserted c
onnectivities');
#1896=(
GEOMETRIC_REPRESENTATION_CONTEXT(3)
GLOBAL_UNCERTAINTY_ASSIGNED_CONTEXT((#1894))
GLOBAL_UNIT_ASSIGNED_CONTEXT((#1898,#1900,#1901))
REPRESENTATION_CONTEXT('','3D')
);
#1897=(
GEOMETRIC_REPRESENTATION_CONTEXT(3)
GLOBAL_UNCERTAINTY_ASSIGNED_CONTEXT((#1895))
GLOBAL_UNIT_ASSIGNED_CONTEXT((#1898,#1900,#1901))
REPRESENTATION_CONTEXT('','3D')
);
#1898=(
LENGTH_UNIT()
NAMED_UNIT(*)
SI_UNIT(.MILLI.,.METRE.)
);
#1899=(
LENGTH_UNIT()
NAMED_UNIT(*)
SI_UNIT($,.METRE.)
);
#1900=(
NAMED_UNIT(*)
PLANE_ANGLE_UNIT()
SI_UNIT($,.RADIAN.)
);
#1901=(
NAMED_UNIT(*)
SI_UNIT($,.STERADIAN.)
SOLID_ANGLE_UNIT()
);
#1902=SHAPE_DEFINITION_REPRESENTATION(#1903,#1904);
#1903=PRODUCT_DEFINITION_SHAPE('',$,#1906);
#1904=SHAPE_REPRESENTATION('',(#1198),#1896);
#1905=PRODUCT_DEFINITION_CONTEXT('part definition',#1910,'design');
#1906=PRODUCT_DEFINITION('EMOCD_Enclosure_Gen1',
'EMOCD_Enclosure_Gen1 v1',#1907,#1905);
#1907=PRODUCT_DEFINITION_FORMATION('',$,#1912);
#1908=PRODUCT_RELATED_PRODUCT_CATEGORY('EMOCD_Enclosure_Gen1 v1',
'EMOCD_Enclosure_Gen1 v1',(#1912));
#1909=APPLICATION_PROTOCOL_DEFINITION('international standard',
'automotive_design',2009,#1910);
#1910=APPLICATION_CONTEXT(
'Core Data for Automotive Mechanical Design Process');
#1911=PRODUCT_CONTEXT('part definition',#1910,'mechanical');
#1912=PRODUCT('EMOCD_Enclosure_Gen1','EMOCD_Enclosure_Gen1 v1',$,(#1911));
#1913=PRESENTATION_STYLE_ASSIGNMENT((#1914));
#1914=SURFACE_STYLE_USAGE(.BOTH.,#1915);
#1915=SURFACE_SIDE_STYLE('',(#1916));
#1916=SURFACE_STYLE_FILL_AREA(#1917);
#1917=FILL_AREA_STYLE('Steel - Satin',(#1918));
#1918=FILL_AREA_STYLE_COLOUR('Steel - Satin',#1919);
#1919=COLOUR_RGB('Steel - Satin',0.627450980392157,0.627450980392157,0.627450980392157);
ENDSEC;
END-ISO-10303-21;
